G04 (created by PCBNEW-RS274X (2011-05-25)-stable) date Wed 30 Oct 2013 02:01:52 PM EDT*
G01*
G70*
G90*
%MOIN*%
G04 Gerber Fmt 3.4, Leading zero omitted, Abs format*
%FSLAX34Y34*%
G04 APERTURE LIST*
%ADD10C,0.006000*%
%ADD11C,0.005000*%
%ADD12C,0.015000*%
%ADD13C,0.010000*%
%ADD14C,0.009000*%
%ADD15C,0.012000*%
%ADD16C,0.127000*%
%ADD17C,0.076000*%
%ADD18R,0.076000X0.076000*%
%ADD19C,0.180000*%
%ADD20C,0.080000*%
%ADD21R,0.080000X0.045000*%
%ADD22R,0.070000X0.120000*%
%ADD23R,0.120000X0.070000*%
%ADD24C,0.220000*%
%ADD25C,0.100000*%
%ADD26C,0.096000*%
%ADD27C,0.160000*%
%ADD28C,0.140000*%
%ADD29R,0.085000X0.085000*%
%ADD30C,0.085000*%
%ADD31C,0.155000*%
%ADD32R,0.145000X0.050000*%
%ADD33C,0.093000*%
%ADD34R,0.093000X0.093000*%
G04 APERTURE END LIST*
G54D10*
G54D11*
X66331Y-49288D02*
X66236Y-49355D01*
X66331Y-49402D02*
X66131Y-49402D01*
X66131Y-49326D01*
X66140Y-49307D01*
X66150Y-49298D01*
X66169Y-49288D01*
X66198Y-49288D01*
X66217Y-49298D01*
X66226Y-49307D01*
X66236Y-49326D01*
X66236Y-49402D01*
X66312Y-49088D02*
X66321Y-49098D01*
X66331Y-49126D01*
X66331Y-49145D01*
X66321Y-49174D01*
X66302Y-49193D01*
X66283Y-49202D01*
X66245Y-49212D01*
X66217Y-49212D01*
X66179Y-49202D01*
X66160Y-49193D01*
X66140Y-49174D01*
X66131Y-49145D01*
X66131Y-49126D01*
X66140Y-49098D01*
X66150Y-49088D01*
G54D12*
X58000Y-40000D02*
X66500Y-40000D01*
X58000Y-36000D02*
X66500Y-36000D01*
G54D13*
X57124Y-39886D02*
X57143Y-39905D01*
X57162Y-39962D01*
X57162Y-40000D01*
X57143Y-40058D01*
X57105Y-40096D01*
X57067Y-40115D01*
X56990Y-40134D01*
X56933Y-40134D01*
X56857Y-40115D01*
X56819Y-40096D01*
X56781Y-40058D01*
X56762Y-40000D01*
X56762Y-39962D01*
X56781Y-39905D01*
X56800Y-39886D01*
X57162Y-39658D02*
X57143Y-39696D01*
X57124Y-39715D01*
X57086Y-39734D01*
X56971Y-39734D01*
X56933Y-39715D01*
X56914Y-39696D01*
X56895Y-39658D01*
X56895Y-39600D01*
X56914Y-39562D01*
X56933Y-39543D01*
X56971Y-39524D01*
X57086Y-39524D01*
X57124Y-39543D01*
X57143Y-39562D01*
X57162Y-39600D01*
X57162Y-39658D01*
X57162Y-39353D02*
X56895Y-39353D01*
X56933Y-39353D02*
X56914Y-39334D01*
X56895Y-39296D01*
X56895Y-39238D01*
X56914Y-39200D01*
X56952Y-39181D01*
X57162Y-39181D01*
X56952Y-39181D02*
X56914Y-39162D01*
X56895Y-39124D01*
X56895Y-39067D01*
X56914Y-39029D01*
X56952Y-39010D01*
X57162Y-39010D01*
X56895Y-38820D02*
X57295Y-38820D01*
X56914Y-38820D02*
X56895Y-38782D01*
X56895Y-38705D01*
X56914Y-38667D01*
X56933Y-38648D01*
X56971Y-38629D01*
X57086Y-38629D01*
X57124Y-38648D01*
X57143Y-38667D01*
X57162Y-38705D01*
X57162Y-38782D01*
X57143Y-38820D01*
X57162Y-38286D02*
X56952Y-38286D01*
X56914Y-38305D01*
X56895Y-38343D01*
X56895Y-38420D01*
X56914Y-38458D01*
X57143Y-38286D02*
X57162Y-38324D01*
X57162Y-38420D01*
X57143Y-38458D01*
X57105Y-38477D01*
X57067Y-38477D01*
X57029Y-38458D01*
X57010Y-38420D01*
X57010Y-38324D01*
X56990Y-38286D01*
X57162Y-38096D02*
X56895Y-38096D01*
X56971Y-38096D02*
X56933Y-38077D01*
X56914Y-38058D01*
X56895Y-38020D01*
X56895Y-37981D01*
X57143Y-37695D02*
X57162Y-37733D01*
X57162Y-37810D01*
X57143Y-37848D01*
X57105Y-37867D01*
X56952Y-37867D01*
X56914Y-37848D01*
X56895Y-37810D01*
X56895Y-37733D01*
X56914Y-37695D01*
X56952Y-37676D01*
X56990Y-37676D01*
X57029Y-37867D01*
X57162Y-37200D02*
X56762Y-37200D01*
X56895Y-37010D02*
X57162Y-37010D01*
X56933Y-37010D02*
X56914Y-36991D01*
X56895Y-36953D01*
X56895Y-36895D01*
X56914Y-36857D01*
X56952Y-36838D01*
X57162Y-36838D01*
X56895Y-36648D02*
X57295Y-36648D01*
X56914Y-36648D02*
X56895Y-36610D01*
X56895Y-36533D01*
X56914Y-36495D01*
X56933Y-36476D01*
X56971Y-36457D01*
X57086Y-36457D01*
X57124Y-36476D01*
X57143Y-36495D01*
X57162Y-36533D01*
X57162Y-36610D01*
X57143Y-36648D01*
X56895Y-36114D02*
X57162Y-36114D01*
X56895Y-36286D02*
X57105Y-36286D01*
X57143Y-36267D01*
X57162Y-36229D01*
X57162Y-36171D01*
X57143Y-36133D01*
X57124Y-36114D01*
X56895Y-35981D02*
X56895Y-35829D01*
X56762Y-35924D02*
X57105Y-35924D01*
X57143Y-35905D01*
X57162Y-35867D01*
X57162Y-35829D01*
X67624Y-39505D02*
X67643Y-39524D01*
X67662Y-39581D01*
X67662Y-39619D01*
X67643Y-39677D01*
X67605Y-39715D01*
X67567Y-39734D01*
X67490Y-39753D01*
X67433Y-39753D01*
X67357Y-39734D01*
X67319Y-39715D01*
X67281Y-39677D01*
X67262Y-39619D01*
X67262Y-39581D01*
X67281Y-39524D01*
X67300Y-39505D01*
X67662Y-39334D02*
X67262Y-39334D01*
X67452Y-39334D02*
X67452Y-39105D01*
X67662Y-39105D02*
X67262Y-39105D01*
X67662Y-38705D02*
X67662Y-38934D01*
X67662Y-38820D02*
X67262Y-38820D01*
X67319Y-38858D01*
X67357Y-38896D01*
X67376Y-38934D01*
X67662Y-38229D02*
X67262Y-38229D01*
X67262Y-38134D01*
X67281Y-38076D01*
X67319Y-38038D01*
X67357Y-38019D01*
X67433Y-38000D01*
X67490Y-38000D01*
X67567Y-38019D01*
X67605Y-38038D01*
X67643Y-38076D01*
X67662Y-38134D01*
X67662Y-38229D01*
X67662Y-37829D02*
X67395Y-37829D01*
X67262Y-37829D02*
X67281Y-37848D01*
X67300Y-37829D01*
X67281Y-37810D01*
X67262Y-37829D01*
X67300Y-37829D01*
X67643Y-37658D02*
X67662Y-37620D01*
X67662Y-37544D01*
X67643Y-37505D01*
X67605Y-37486D01*
X67586Y-37486D01*
X67548Y-37505D01*
X67529Y-37544D01*
X67529Y-37601D01*
X67510Y-37639D01*
X67471Y-37658D01*
X67452Y-37658D01*
X67414Y-37639D01*
X67395Y-37601D01*
X67395Y-37544D01*
X67414Y-37505D01*
X67395Y-37315D02*
X67795Y-37315D01*
X67414Y-37315D02*
X67395Y-37277D01*
X67395Y-37200D01*
X67414Y-37162D01*
X67433Y-37143D01*
X67471Y-37124D01*
X67586Y-37124D01*
X67624Y-37143D01*
X67643Y-37162D01*
X67662Y-37200D01*
X67662Y-37277D01*
X67643Y-37315D01*
X67662Y-36896D02*
X67643Y-36934D01*
X67605Y-36953D01*
X67262Y-36953D01*
X67662Y-36571D02*
X67452Y-36571D01*
X67414Y-36590D01*
X67395Y-36628D01*
X67395Y-36705D01*
X67414Y-36743D01*
X67643Y-36571D02*
X67662Y-36609D01*
X67662Y-36705D01*
X67643Y-36743D01*
X67605Y-36762D01*
X67567Y-36762D01*
X67529Y-36743D01*
X67510Y-36705D01*
X67510Y-36609D01*
X67490Y-36571D01*
X67395Y-36419D02*
X67662Y-36324D01*
X67395Y-36228D02*
X67662Y-36324D01*
X67757Y-36362D01*
X67776Y-36381D01*
X67795Y-36419D01*
X61345Y-35452D02*
X61211Y-35452D01*
X61211Y-35662D02*
X61211Y-35262D01*
X61402Y-35262D01*
X61554Y-35662D02*
X61554Y-35395D01*
X61554Y-35262D02*
X61535Y-35281D01*
X61554Y-35300D01*
X61573Y-35281D01*
X61554Y-35262D01*
X61554Y-35300D01*
X61801Y-35662D02*
X61763Y-35643D01*
X61744Y-35605D01*
X61744Y-35262D01*
X61897Y-35395D02*
X62049Y-35395D01*
X61954Y-35262D02*
X61954Y-35605D01*
X61973Y-35643D01*
X62011Y-35662D01*
X62049Y-35662D01*
X62336Y-35643D02*
X62298Y-35662D01*
X62221Y-35662D01*
X62183Y-35643D01*
X62164Y-35605D01*
X62164Y-35452D01*
X62183Y-35414D01*
X62221Y-35395D01*
X62298Y-35395D01*
X62336Y-35414D01*
X62355Y-35452D01*
X62355Y-35490D01*
X62164Y-35529D01*
X62526Y-35662D02*
X62526Y-35395D01*
X62526Y-35471D02*
X62545Y-35433D01*
X62564Y-35414D01*
X62602Y-35395D01*
X62641Y-35395D01*
X62927Y-35643D02*
X62889Y-35662D01*
X62812Y-35662D01*
X62774Y-35643D01*
X62755Y-35605D01*
X62755Y-35452D01*
X62774Y-35414D01*
X62812Y-35395D01*
X62889Y-35395D01*
X62927Y-35414D01*
X62946Y-35452D01*
X62946Y-35490D01*
X62755Y-35529D01*
X63289Y-35662D02*
X63289Y-35262D01*
X63289Y-35643D02*
X63251Y-35662D01*
X63174Y-35662D01*
X63136Y-35643D01*
X63117Y-35624D01*
X63098Y-35586D01*
X63098Y-35471D01*
X63117Y-35433D01*
X63136Y-35414D01*
X63174Y-35395D01*
X63251Y-35395D01*
X63289Y-35414D01*
X60878Y-40262D02*
X60878Y-40586D01*
X60897Y-40624D01*
X60916Y-40643D01*
X60954Y-40662D01*
X61031Y-40662D01*
X61069Y-40643D01*
X61088Y-40624D01*
X61107Y-40586D01*
X61107Y-40262D01*
X61297Y-40395D02*
X61297Y-40662D01*
X61297Y-40433D02*
X61316Y-40414D01*
X61354Y-40395D01*
X61412Y-40395D01*
X61450Y-40414D01*
X61469Y-40452D01*
X61469Y-40662D01*
X61602Y-40395D02*
X61754Y-40395D01*
X61659Y-40662D02*
X61659Y-40319D01*
X61678Y-40281D01*
X61716Y-40262D01*
X61754Y-40262D01*
X61888Y-40662D02*
X61888Y-40395D01*
X61888Y-40262D02*
X61869Y-40281D01*
X61888Y-40300D01*
X61907Y-40281D01*
X61888Y-40262D01*
X61888Y-40300D01*
X62135Y-40662D02*
X62097Y-40643D01*
X62078Y-40605D01*
X62078Y-40262D01*
X62231Y-40395D02*
X62383Y-40395D01*
X62288Y-40262D02*
X62288Y-40605D01*
X62307Y-40643D01*
X62345Y-40662D01*
X62383Y-40662D01*
X62670Y-40643D02*
X62632Y-40662D01*
X62555Y-40662D01*
X62517Y-40643D01*
X62498Y-40605D01*
X62498Y-40452D01*
X62517Y-40414D01*
X62555Y-40395D01*
X62632Y-40395D01*
X62670Y-40414D01*
X62689Y-40452D01*
X62689Y-40490D01*
X62498Y-40529D01*
X62860Y-40662D02*
X62860Y-40395D01*
X62860Y-40471D02*
X62879Y-40433D01*
X62898Y-40414D01*
X62936Y-40395D01*
X62975Y-40395D01*
X63261Y-40643D02*
X63223Y-40662D01*
X63146Y-40662D01*
X63108Y-40643D01*
X63089Y-40605D01*
X63089Y-40452D01*
X63108Y-40414D01*
X63146Y-40395D01*
X63223Y-40395D01*
X63261Y-40414D01*
X63280Y-40452D01*
X63280Y-40490D01*
X63089Y-40529D01*
X63623Y-40662D02*
X63623Y-40262D01*
X63623Y-40643D02*
X63585Y-40662D01*
X63508Y-40662D01*
X63470Y-40643D01*
X63451Y-40624D01*
X63432Y-40586D01*
X63432Y-40471D01*
X63451Y-40433D01*
X63470Y-40414D01*
X63508Y-40395D01*
X63585Y-40395D01*
X63623Y-40414D01*
X30362Y-43026D02*
X30362Y-43255D01*
X30362Y-43141D02*
X29962Y-43141D01*
X30019Y-43179D01*
X30057Y-43217D01*
X30076Y-43255D01*
X30133Y-42798D02*
X30114Y-42836D01*
X30095Y-42855D01*
X30057Y-42874D01*
X30038Y-42874D01*
X30000Y-42855D01*
X29981Y-42836D01*
X29962Y-42798D01*
X29962Y-42721D01*
X29981Y-42683D01*
X30000Y-42664D01*
X30038Y-42645D01*
X30057Y-42645D01*
X30095Y-42664D01*
X30114Y-42683D01*
X30133Y-42721D01*
X30133Y-42798D01*
X30152Y-42836D01*
X30171Y-42855D01*
X30210Y-42874D01*
X30286Y-42874D01*
X30324Y-42855D01*
X30343Y-42836D01*
X30362Y-42798D01*
X30362Y-42721D01*
X30343Y-42683D01*
X30324Y-42664D01*
X30286Y-42645D01*
X30210Y-42645D01*
X30171Y-42664D01*
X30152Y-42683D01*
X30133Y-42721D01*
X30210Y-42474D02*
X30210Y-42169D01*
X29962Y-42017D02*
X29962Y-41769D01*
X30114Y-41903D01*
X30114Y-41845D01*
X30133Y-41807D01*
X30152Y-41788D01*
X30190Y-41769D01*
X30286Y-41769D01*
X30324Y-41788D01*
X30343Y-41807D01*
X30362Y-41845D01*
X30362Y-41960D01*
X30343Y-41998D01*
X30324Y-42017D01*
X29962Y-41426D02*
X29962Y-41503D01*
X29981Y-41541D01*
X30000Y-41560D01*
X30057Y-41598D01*
X30133Y-41617D01*
X30286Y-41617D01*
X30324Y-41598D01*
X30343Y-41579D01*
X30362Y-41541D01*
X30362Y-41464D01*
X30343Y-41426D01*
X30324Y-41407D01*
X30286Y-41388D01*
X30190Y-41388D01*
X30152Y-41407D01*
X30133Y-41426D01*
X30114Y-41464D01*
X30114Y-41541D01*
X30133Y-41579D01*
X30152Y-41598D01*
X30190Y-41617D01*
X29962Y-41274D02*
X30362Y-41141D01*
X29962Y-41007D01*
X30362Y-40874D02*
X29962Y-40874D01*
X29962Y-40779D01*
X29981Y-40721D01*
X30019Y-40683D01*
X30057Y-40664D01*
X30133Y-40645D01*
X30190Y-40645D01*
X30267Y-40664D01*
X30305Y-40683D01*
X30343Y-40721D01*
X30362Y-40779D01*
X30362Y-40874D01*
X30324Y-40245D02*
X30343Y-40264D01*
X30362Y-40321D01*
X30362Y-40359D01*
X30343Y-40417D01*
X30305Y-40455D01*
X30267Y-40474D01*
X30190Y-40493D01*
X30133Y-40493D01*
X30057Y-40474D01*
X30019Y-40455D01*
X29981Y-40417D01*
X29962Y-40359D01*
X29962Y-40321D01*
X29981Y-40264D01*
X30000Y-40245D01*
X33519Y-50912D02*
X33519Y-50512D01*
X33614Y-50512D01*
X33672Y-50531D01*
X33710Y-50569D01*
X33729Y-50607D01*
X33748Y-50683D01*
X33748Y-50740D01*
X33729Y-50817D01*
X33710Y-50855D01*
X33672Y-50893D01*
X33614Y-50912D01*
X33519Y-50912D01*
X33919Y-50912D02*
X33919Y-50512D01*
X34319Y-50531D02*
X34281Y-50512D01*
X34224Y-50512D01*
X34166Y-50531D01*
X34128Y-50569D01*
X34109Y-50607D01*
X34090Y-50683D01*
X34090Y-50740D01*
X34109Y-50817D01*
X34128Y-50855D01*
X34166Y-50893D01*
X34224Y-50912D01*
X34262Y-50912D01*
X34319Y-50893D01*
X34338Y-50874D01*
X34338Y-50740D01*
X34262Y-50740D01*
X34509Y-50912D02*
X34509Y-50512D01*
X34642Y-50512D02*
X34871Y-50512D01*
X34756Y-50912D02*
X34756Y-50512D01*
X34985Y-50798D02*
X35176Y-50798D01*
X34947Y-50912D02*
X35080Y-50512D01*
X35214Y-50912D01*
X35538Y-50912D02*
X35347Y-50912D01*
X35347Y-50512D01*
X33452Y-32798D02*
X33643Y-32798D01*
X33414Y-32912D02*
X33547Y-32512D01*
X33681Y-32912D01*
X33814Y-32912D02*
X33814Y-32512D01*
X34043Y-32912D01*
X34043Y-32512D01*
X34214Y-32798D02*
X34405Y-32798D01*
X34176Y-32912D02*
X34309Y-32512D01*
X34443Y-32912D01*
X34767Y-32912D02*
X34576Y-32912D01*
X34576Y-32512D01*
X34976Y-32512D02*
X35053Y-32512D01*
X35091Y-32531D01*
X35129Y-32569D01*
X35148Y-32645D01*
X35148Y-32779D01*
X35129Y-32855D01*
X35091Y-32893D01*
X35053Y-32912D01*
X34976Y-32912D01*
X34938Y-32893D01*
X34900Y-32855D01*
X34881Y-32779D01*
X34881Y-32645D01*
X34900Y-32569D01*
X34938Y-32531D01*
X34976Y-32512D01*
X35529Y-32531D02*
X35491Y-32512D01*
X35434Y-32512D01*
X35376Y-32531D01*
X35338Y-32569D01*
X35319Y-32607D01*
X35300Y-32683D01*
X35300Y-32740D01*
X35319Y-32817D01*
X35338Y-32855D01*
X35376Y-32893D01*
X35434Y-32912D01*
X35472Y-32912D01*
X35529Y-32893D01*
X35548Y-32874D01*
X35548Y-32740D01*
X35472Y-32740D01*
X49422Y-50762D02*
X49517Y-51162D01*
X49594Y-50876D01*
X49670Y-51162D01*
X49765Y-50762D01*
X49917Y-51162D02*
X49917Y-50762D01*
X50107Y-51162D02*
X50107Y-50762D01*
X50202Y-50762D01*
X50260Y-50781D01*
X50298Y-50819D01*
X50317Y-50857D01*
X50336Y-50933D01*
X50336Y-50990D01*
X50317Y-51067D01*
X50298Y-51105D01*
X50260Y-51143D01*
X50202Y-51162D01*
X50107Y-51162D01*
X50450Y-50762D02*
X50679Y-50762D01*
X50564Y-51162D02*
X50564Y-50762D01*
X50812Y-51162D02*
X50812Y-50762D01*
X50812Y-50952D02*
X51041Y-50952D01*
X51041Y-51162D02*
X51041Y-50762D01*
X36700Y-51124D02*
X36681Y-51143D01*
X36624Y-51162D01*
X36586Y-51162D01*
X36528Y-51143D01*
X36490Y-51105D01*
X36471Y-51067D01*
X36452Y-50990D01*
X36452Y-50933D01*
X36471Y-50857D01*
X36490Y-50819D01*
X36528Y-50781D01*
X36586Y-50762D01*
X36624Y-50762D01*
X36681Y-50781D01*
X36700Y-50800D01*
X36871Y-50952D02*
X37005Y-50952D01*
X37062Y-51162D02*
X36871Y-51162D01*
X36871Y-50762D01*
X37062Y-50762D01*
X37233Y-51162D02*
X37233Y-50762D01*
X37462Y-51162D01*
X37462Y-50762D01*
X37595Y-50762D02*
X37824Y-50762D01*
X37709Y-51162D02*
X37709Y-50762D01*
X37957Y-50952D02*
X38091Y-50952D01*
X38148Y-51162D02*
X37957Y-51162D01*
X37957Y-50762D01*
X38148Y-50762D01*
X38548Y-51162D02*
X38414Y-50971D01*
X38319Y-51162D02*
X38319Y-50762D01*
X38472Y-50762D01*
X38510Y-50781D01*
X38529Y-50800D01*
X38548Y-50838D01*
X38548Y-50895D01*
X38529Y-50933D01*
X38510Y-50952D01*
X38472Y-50971D01*
X38319Y-50971D01*
G54D11*
X68097Y-48640D02*
X68078Y-48631D01*
X68050Y-48631D01*
X68021Y-48640D01*
X68002Y-48660D01*
X67993Y-48679D01*
X67983Y-48717D01*
X67983Y-48745D01*
X67993Y-48783D01*
X68002Y-48802D01*
X68021Y-48821D01*
X68050Y-48831D01*
X68069Y-48831D01*
X68097Y-48821D01*
X68107Y-48812D01*
X68107Y-48745D01*
X68069Y-48745D01*
X68193Y-48831D02*
X68193Y-48631D01*
X68307Y-48831D01*
X68307Y-48631D01*
X68403Y-48831D02*
X68403Y-48631D01*
X68450Y-48631D01*
X68479Y-48640D01*
X68498Y-48660D01*
X68507Y-48679D01*
X68517Y-48717D01*
X68517Y-48745D01*
X68507Y-48783D01*
X68498Y-48802D01*
X68479Y-48821D01*
X68450Y-48831D01*
X68403Y-48831D01*
X67131Y-49480D02*
X67131Y-49442D01*
X67140Y-49423D01*
X67160Y-49404D01*
X67198Y-49395D01*
X67264Y-49395D01*
X67302Y-49404D01*
X67321Y-49423D01*
X67331Y-49442D01*
X67331Y-49480D01*
X67321Y-49499D01*
X67302Y-49518D01*
X67264Y-49528D01*
X67198Y-49528D01*
X67160Y-49518D01*
X67140Y-49499D01*
X67131Y-49480D01*
X67331Y-49308D02*
X67131Y-49308D01*
X67131Y-49232D01*
X67140Y-49213D01*
X67150Y-49204D01*
X67169Y-49194D01*
X67198Y-49194D01*
X67217Y-49204D01*
X67226Y-49213D01*
X67236Y-49232D01*
X67236Y-49308D01*
X67131Y-49137D02*
X67131Y-49023D01*
X67331Y-49080D02*
X67131Y-49080D01*
X67331Y-48852D02*
X67331Y-48966D01*
X67331Y-48909D02*
X67131Y-48909D01*
X67160Y-48928D01*
X67179Y-48947D01*
X67188Y-48966D01*
X67131Y-48728D02*
X67131Y-48709D01*
X67140Y-48690D01*
X67150Y-48681D01*
X67169Y-48671D01*
X67207Y-48662D01*
X67255Y-48662D01*
X67293Y-48671D01*
X67312Y-48681D01*
X67321Y-48690D01*
X67331Y-48709D01*
X67331Y-48728D01*
X67321Y-48747D01*
X67312Y-48757D01*
X67293Y-48766D01*
X67255Y-48776D01*
X67207Y-48776D01*
X67169Y-48766D01*
X67150Y-48757D01*
X67140Y-48747D01*
X67131Y-48728D01*
X67331Y-48472D02*
X67331Y-48586D01*
X67331Y-48529D02*
X67131Y-48529D01*
X67160Y-48548D01*
X67179Y-48567D01*
X67188Y-48586D01*
X65131Y-49418D02*
X65293Y-49418D01*
X65312Y-49409D01*
X65321Y-49399D01*
X65331Y-49380D01*
X65331Y-49342D01*
X65321Y-49323D01*
X65312Y-49314D01*
X65293Y-49304D01*
X65131Y-49304D01*
X65274Y-49218D02*
X65274Y-49123D01*
X65331Y-49237D02*
X65131Y-49170D01*
X65331Y-49104D01*
X65226Y-48971D02*
X65226Y-49037D01*
X65331Y-49037D02*
X65131Y-49037D01*
X65131Y-48942D01*
X65198Y-48781D02*
X65331Y-48781D01*
X65121Y-48828D02*
X65264Y-48876D01*
X65264Y-48752D01*
X65150Y-48686D02*
X65140Y-48676D01*
X65131Y-48657D01*
X65131Y-48610D01*
X65140Y-48591D01*
X65150Y-48581D01*
X65169Y-48572D01*
X65188Y-48572D01*
X65217Y-48581D01*
X65331Y-48695D01*
X65331Y-48572D01*
X63274Y-49432D02*
X63274Y-49337D01*
X63331Y-49451D02*
X63131Y-49384D01*
X63331Y-49318D01*
X63331Y-49251D02*
X63131Y-49251D01*
X63131Y-49204D01*
X63140Y-49175D01*
X63160Y-49156D01*
X63179Y-49147D01*
X63217Y-49137D01*
X63245Y-49137D01*
X63283Y-49147D01*
X63302Y-49156D01*
X63321Y-49175D01*
X63331Y-49204D01*
X63331Y-49251D01*
X63131Y-49070D02*
X63131Y-48937D01*
X63331Y-49023D01*
X63331Y-48852D02*
X63331Y-48814D01*
X63321Y-48795D01*
X63312Y-48785D01*
X63283Y-48766D01*
X63245Y-48757D01*
X63169Y-48757D01*
X63150Y-48766D01*
X63140Y-48776D01*
X63131Y-48795D01*
X63131Y-48833D01*
X63140Y-48852D01*
X63150Y-48861D01*
X63169Y-48871D01*
X63217Y-48871D01*
X63236Y-48861D01*
X63245Y-48852D01*
X63255Y-48833D01*
X63255Y-48795D01*
X63245Y-48776D01*
X63236Y-48766D01*
X63217Y-48757D01*
X63131Y-48633D02*
X63131Y-48614D01*
X63140Y-48595D01*
X63150Y-48586D01*
X63169Y-48576D01*
X63207Y-48567D01*
X63255Y-48567D01*
X63293Y-48576D01*
X63312Y-48586D01*
X63321Y-48595D01*
X63331Y-48614D01*
X63331Y-48633D01*
X63321Y-48652D01*
X63312Y-48662D01*
X63293Y-48671D01*
X63255Y-48681D01*
X63207Y-48681D01*
X63169Y-48671D01*
X63150Y-48662D01*
X63140Y-48652D01*
X63131Y-48633D01*
X64331Y-49432D02*
X64331Y-49527D01*
X64131Y-49527D01*
X64331Y-49365D02*
X64131Y-49365D01*
X64274Y-49299D01*
X64131Y-49232D01*
X64331Y-49232D01*
X64131Y-49051D02*
X64131Y-49089D01*
X64140Y-49108D01*
X64150Y-49117D01*
X64179Y-49136D01*
X64217Y-49146D01*
X64293Y-49146D01*
X64312Y-49136D01*
X64321Y-49127D01*
X64331Y-49108D01*
X64331Y-49070D01*
X64321Y-49051D01*
X64312Y-49041D01*
X64293Y-49032D01*
X64245Y-49032D01*
X64226Y-49041D01*
X64217Y-49051D01*
X64207Y-49070D01*
X64207Y-49108D01*
X64217Y-49127D01*
X64226Y-49136D01*
X64245Y-49146D01*
X64331Y-48842D02*
X64331Y-48956D01*
X64331Y-48899D02*
X64131Y-48899D01*
X64160Y-48918D01*
X64179Y-48937D01*
X64188Y-48956D01*
X64131Y-48775D02*
X64131Y-48642D01*
X64331Y-48728D01*
X64150Y-48576D02*
X64140Y-48566D01*
X64131Y-48547D01*
X64131Y-48500D01*
X64140Y-48481D01*
X64150Y-48471D01*
X64169Y-48462D01*
X64188Y-48462D01*
X64217Y-48471D01*
X64331Y-48585D01*
X64331Y-48462D01*
G54D14*
X29500Y-30500D02*
X29500Y-53000D01*
X72000Y-30500D02*
X29500Y-30500D01*
X72000Y-53000D02*
X72000Y-30500D01*
X29500Y-53000D02*
X72000Y-53000D01*
G54D13*
X63011Y-33893D02*
X63088Y-33893D01*
X63126Y-33921D01*
X63164Y-33979D01*
X63183Y-34093D01*
X63183Y-34293D01*
X63164Y-34407D01*
X63126Y-34464D01*
X63088Y-34493D01*
X63011Y-34493D01*
X62973Y-34464D01*
X62935Y-34407D01*
X62916Y-34293D01*
X62916Y-34093D01*
X62935Y-33979D01*
X62973Y-33921D01*
X63011Y-33893D01*
X63526Y-34464D02*
X63488Y-34493D01*
X63411Y-34493D01*
X63373Y-34464D01*
X63354Y-34436D01*
X63335Y-34379D01*
X63335Y-34207D01*
X63354Y-34150D01*
X63373Y-34121D01*
X63411Y-34093D01*
X63488Y-34093D01*
X63526Y-34121D01*
X63640Y-34093D02*
X63792Y-34093D01*
X63697Y-33893D02*
X63697Y-34407D01*
X63716Y-34464D01*
X63754Y-34493D01*
X63792Y-34493D01*
X64212Y-33950D02*
X64231Y-33921D01*
X64269Y-33893D01*
X64365Y-33893D01*
X64403Y-33921D01*
X64422Y-33950D01*
X64441Y-34007D01*
X64441Y-34064D01*
X64422Y-34150D01*
X64193Y-34493D01*
X64441Y-34493D01*
X64688Y-33893D02*
X64727Y-33893D01*
X64765Y-33921D01*
X64784Y-33950D01*
X64803Y-34007D01*
X64822Y-34121D01*
X64822Y-34264D01*
X64803Y-34379D01*
X64784Y-34436D01*
X64765Y-34464D01*
X64727Y-34493D01*
X64688Y-34493D01*
X64650Y-34464D01*
X64631Y-34436D01*
X64612Y-34379D01*
X64593Y-34264D01*
X64593Y-34121D01*
X64612Y-34007D01*
X64631Y-33950D01*
X64650Y-33921D01*
X64688Y-33893D01*
X65203Y-34493D02*
X64974Y-34493D01*
X65088Y-34493D02*
X65088Y-33893D01*
X65050Y-33979D01*
X65012Y-34036D01*
X64974Y-34064D01*
X65336Y-33893D02*
X65584Y-33893D01*
X65450Y-34121D01*
X65508Y-34121D01*
X65546Y-34150D01*
X65565Y-34179D01*
X65584Y-34236D01*
X65584Y-34379D01*
X65565Y-34436D01*
X65546Y-34464D01*
X65508Y-34493D01*
X65393Y-34493D01*
X65355Y-34464D01*
X65336Y-34436D01*
X63193Y-32643D02*
X63326Y-33243D01*
X63460Y-32643D01*
X63746Y-33214D02*
X63708Y-33243D01*
X63631Y-33243D01*
X63593Y-33214D01*
X63574Y-33157D01*
X63574Y-32929D01*
X63593Y-32871D01*
X63631Y-32843D01*
X63708Y-32843D01*
X63746Y-32871D01*
X63765Y-32929D01*
X63765Y-32986D01*
X63574Y-33043D01*
X63936Y-33243D02*
X63936Y-32843D01*
X63936Y-32957D02*
X63955Y-32900D01*
X63974Y-32871D01*
X64012Y-32843D01*
X64051Y-32843D01*
X64699Y-33243D02*
X64470Y-33243D01*
X64584Y-33243D02*
X64584Y-32643D01*
X64546Y-32729D01*
X64508Y-32786D01*
X64470Y-32814D01*
X64870Y-33186D02*
X64889Y-33214D01*
X64870Y-33243D01*
X64851Y-33214D01*
X64870Y-33186D01*
X64870Y-33243D01*
X65022Y-32643D02*
X65270Y-32643D01*
X65136Y-32871D01*
X65194Y-32871D01*
X65232Y-32900D01*
X65251Y-32929D01*
X65270Y-32986D01*
X65270Y-33129D01*
X65251Y-33186D01*
X65232Y-33214D01*
X65194Y-33243D01*
X65079Y-33243D01*
X65041Y-33214D01*
X65022Y-33186D01*
G54D15*
X59708Y-32074D02*
X59708Y-31274D01*
X59936Y-31274D01*
X59994Y-31312D01*
X60022Y-31350D01*
X60051Y-31426D01*
X60051Y-31540D01*
X60022Y-31617D01*
X59994Y-31655D01*
X59936Y-31693D01*
X59708Y-31693D01*
X60394Y-32074D02*
X60336Y-32036D01*
X60308Y-31998D01*
X60279Y-31921D01*
X60279Y-31693D01*
X60308Y-31617D01*
X60336Y-31579D01*
X60394Y-31540D01*
X60479Y-31540D01*
X60536Y-31579D01*
X60565Y-31617D01*
X60594Y-31693D01*
X60594Y-31921D01*
X60565Y-31998D01*
X60536Y-32036D01*
X60479Y-32074D01*
X60394Y-32074D01*
X60794Y-31540D02*
X60908Y-32074D01*
X61022Y-31693D01*
X61137Y-32074D01*
X61251Y-31540D01*
X61708Y-32036D02*
X61651Y-32074D01*
X61537Y-32074D01*
X61480Y-32036D01*
X61451Y-31960D01*
X61451Y-31655D01*
X61480Y-31579D01*
X61537Y-31540D01*
X61651Y-31540D01*
X61708Y-31579D01*
X61737Y-31655D01*
X61737Y-31731D01*
X61451Y-31807D01*
X61994Y-32074D02*
X61994Y-31540D01*
X61994Y-31693D02*
X62022Y-31617D01*
X62051Y-31579D01*
X62108Y-31540D01*
X62165Y-31540D01*
X62336Y-32036D02*
X62422Y-32074D01*
X62565Y-32074D01*
X62622Y-32036D01*
X62651Y-31998D01*
X62679Y-31921D01*
X62679Y-31845D01*
X62651Y-31769D01*
X62622Y-31731D01*
X62565Y-31693D01*
X62451Y-31655D01*
X62393Y-31617D01*
X62365Y-31579D01*
X62336Y-31502D01*
X62336Y-31426D01*
X62365Y-31350D01*
X62393Y-31312D01*
X62451Y-31274D01*
X62593Y-31274D01*
X62679Y-31312D01*
X62936Y-32074D02*
X62936Y-31540D01*
X62936Y-31274D02*
X62907Y-31312D01*
X62936Y-31350D01*
X62964Y-31312D01*
X62936Y-31274D01*
X62936Y-31350D01*
X63479Y-31540D02*
X63479Y-32188D01*
X63450Y-32264D01*
X63422Y-32302D01*
X63365Y-32340D01*
X63279Y-32340D01*
X63222Y-32302D01*
X63479Y-32036D02*
X63422Y-32074D01*
X63308Y-32074D01*
X63250Y-32036D01*
X63222Y-31998D01*
X63193Y-31921D01*
X63193Y-31693D01*
X63222Y-31617D01*
X63250Y-31579D01*
X63308Y-31540D01*
X63422Y-31540D01*
X63479Y-31579D01*
X63765Y-31540D02*
X63765Y-32074D01*
X63765Y-31617D02*
X63793Y-31579D01*
X63851Y-31540D01*
X63936Y-31540D01*
X63993Y-31579D01*
X64022Y-31655D01*
X64022Y-32074D01*
X64565Y-32074D02*
X64565Y-31655D01*
X64536Y-31579D01*
X64479Y-31540D01*
X64365Y-31540D01*
X64308Y-31579D01*
X64565Y-32036D02*
X64508Y-32074D01*
X64365Y-32074D01*
X64308Y-32036D01*
X64279Y-31960D01*
X64279Y-31883D01*
X64308Y-31807D01*
X64365Y-31769D01*
X64508Y-31769D01*
X64565Y-31731D01*
X64937Y-32074D02*
X64879Y-32036D01*
X64851Y-31960D01*
X64851Y-31274D01*
X65508Y-31998D02*
X65479Y-32036D01*
X65393Y-32074D01*
X65336Y-32074D01*
X65251Y-32036D01*
X65193Y-31960D01*
X65165Y-31883D01*
X65136Y-31731D01*
X65136Y-31617D01*
X65165Y-31464D01*
X65193Y-31388D01*
X65251Y-31312D01*
X65336Y-31274D01*
X65393Y-31274D01*
X65479Y-31312D01*
X65508Y-31350D01*
X65851Y-32074D02*
X65793Y-32036D01*
X65765Y-31998D01*
X65736Y-31921D01*
X65736Y-31693D01*
X65765Y-31617D01*
X65793Y-31579D01*
X65851Y-31540D01*
X65936Y-31540D01*
X65993Y-31579D01*
X66022Y-31617D01*
X66051Y-31693D01*
X66051Y-31921D01*
X66022Y-31998D01*
X65993Y-32036D01*
X65936Y-32074D01*
X65851Y-32074D01*
X66308Y-32074D02*
X66308Y-31540D01*
X66308Y-31617D02*
X66336Y-31579D01*
X66394Y-31540D01*
X66479Y-31540D01*
X66536Y-31579D01*
X66565Y-31655D01*
X66565Y-32074D01*
X66565Y-31655D02*
X66594Y-31579D01*
X66651Y-31540D01*
X66736Y-31540D01*
X66794Y-31579D01*
X66822Y-31655D01*
X66822Y-32074D01*
X67108Y-31540D02*
X67108Y-32340D01*
X67108Y-31579D02*
X67165Y-31540D01*
X67279Y-31540D01*
X67336Y-31579D01*
X67365Y-31617D01*
X67394Y-31693D01*
X67394Y-31921D01*
X67365Y-31998D01*
X67336Y-32036D01*
X67279Y-32074D01*
X67165Y-32074D01*
X67108Y-32036D01*
X67908Y-32074D02*
X67908Y-31655D01*
X67879Y-31579D01*
X67822Y-31540D01*
X67708Y-31540D01*
X67651Y-31579D01*
X67908Y-32036D02*
X67851Y-32074D01*
X67708Y-32074D01*
X67651Y-32036D01*
X67622Y-31960D01*
X67622Y-31883D01*
X67651Y-31807D01*
X67708Y-31769D01*
X67851Y-31769D01*
X67908Y-31731D01*
X68194Y-32074D02*
X68194Y-31540D01*
X68194Y-31693D02*
X68222Y-31617D01*
X68251Y-31579D01*
X68308Y-31540D01*
X68365Y-31540D01*
X68793Y-32036D02*
X68736Y-32074D01*
X68622Y-32074D01*
X68565Y-32036D01*
X68536Y-31960D01*
X68536Y-31655D01*
X68565Y-31579D01*
X68622Y-31540D01*
X68736Y-31540D01*
X68793Y-31579D01*
X68822Y-31655D01*
X68822Y-31731D01*
X68536Y-31807D01*
G54D12*
X72000Y-38500D02*
X68500Y-38500D01*
X68500Y-38500D02*
X68500Y-45000D01*
X68500Y-45000D02*
X72000Y-45000D01*
X72000Y-38500D02*
X72000Y-45000D01*
X31650Y-51750D02*
X31632Y-51924D01*
X31582Y-52092D01*
X31499Y-52248D01*
X31388Y-52384D01*
X31253Y-52496D01*
X31098Y-52579D01*
X30930Y-52631D01*
X30756Y-52649D01*
X30582Y-52634D01*
X30413Y-52584D01*
X30258Y-52503D01*
X30121Y-52393D01*
X30008Y-52258D01*
X29923Y-52104D01*
X29870Y-51937D01*
X29851Y-51762D01*
X29865Y-51588D01*
X29914Y-51419D01*
X29994Y-51263D01*
X30103Y-51125D01*
X30237Y-51011D01*
X30390Y-50926D01*
X30557Y-50871D01*
X30732Y-50851D01*
X30906Y-50864D01*
X31075Y-50911D01*
X31232Y-50991D01*
X31370Y-51099D01*
X31485Y-51232D01*
X31572Y-51384D01*
X31627Y-51551D01*
X31649Y-51725D01*
X31650Y-51750D01*
X71650Y-31750D02*
X71632Y-31924D01*
X71582Y-32092D01*
X71499Y-32248D01*
X71388Y-32384D01*
X71253Y-32496D01*
X71098Y-32579D01*
X70930Y-32631D01*
X70756Y-32649D01*
X70582Y-32634D01*
X70413Y-32584D01*
X70258Y-32503D01*
X70121Y-32393D01*
X70008Y-32258D01*
X69923Y-32104D01*
X69870Y-31937D01*
X69851Y-31762D01*
X69865Y-31588D01*
X69914Y-31419D01*
X69994Y-31263D01*
X70103Y-31125D01*
X70237Y-31011D01*
X70390Y-30926D01*
X70557Y-30871D01*
X70732Y-30851D01*
X70906Y-30864D01*
X71075Y-30911D01*
X71232Y-30991D01*
X71370Y-31099D01*
X71485Y-31232D01*
X71572Y-31384D01*
X71627Y-31551D01*
X71649Y-31725D01*
X71650Y-31750D01*
X31650Y-31750D02*
X31632Y-31924D01*
X31582Y-32092D01*
X31499Y-32248D01*
X31388Y-32384D01*
X31253Y-32496D01*
X31098Y-32579D01*
X30930Y-32631D01*
X30756Y-32649D01*
X30582Y-32634D01*
X30413Y-32584D01*
X30258Y-32503D01*
X30121Y-32393D01*
X30008Y-32258D01*
X29923Y-32104D01*
X29870Y-31937D01*
X29851Y-31762D01*
X29865Y-31588D01*
X29914Y-31419D01*
X29994Y-31263D01*
X30103Y-31125D01*
X30237Y-31011D01*
X30390Y-30926D01*
X30557Y-30871D01*
X30732Y-30851D01*
X30906Y-30864D01*
X31075Y-30911D01*
X31232Y-30991D01*
X31370Y-31099D01*
X31485Y-31232D01*
X31572Y-31384D01*
X31627Y-31551D01*
X31649Y-31725D01*
X31650Y-31750D01*
X71650Y-51750D02*
X71632Y-51924D01*
X71582Y-52092D01*
X71499Y-52248D01*
X71388Y-52384D01*
X71253Y-52496D01*
X71098Y-52579D01*
X70930Y-52631D01*
X70756Y-52649D01*
X70582Y-52634D01*
X70413Y-52584D01*
X70258Y-52503D01*
X70121Y-52393D01*
X70008Y-52258D01*
X69923Y-52104D01*
X69870Y-51937D01*
X69851Y-51762D01*
X69865Y-51588D01*
X69914Y-51419D01*
X69994Y-51263D01*
X70103Y-51125D01*
X70237Y-51011D01*
X70390Y-50926D01*
X70557Y-50871D01*
X70732Y-50851D01*
X70906Y-50864D01*
X71075Y-50911D01*
X71232Y-50991D01*
X71370Y-51099D01*
X71485Y-51232D01*
X71572Y-51384D01*
X71627Y-51551D01*
X71649Y-51725D01*
X71650Y-51750D01*
X49000Y-36500D02*
X39000Y-36500D01*
X49000Y-34000D02*
X39000Y-34000D01*
X39000Y-34000D02*
X39000Y-42000D01*
X39000Y-42000D02*
X49000Y-42000D01*
X49000Y-42000D02*
X49000Y-34000D01*
X50500Y-32500D02*
X54000Y-32500D01*
X54000Y-32500D02*
X54000Y-33000D01*
X50500Y-32500D02*
X50500Y-35000D01*
X50500Y-35000D02*
X54000Y-35000D01*
X38000Y-33000D02*
X38000Y-43000D01*
X38000Y-43000D02*
X54000Y-43000D01*
X54000Y-43000D02*
X54000Y-33000D01*
X54000Y-33000D02*
X38000Y-33000D01*
X58500Y-44500D02*
X58495Y-44548D01*
X58481Y-44595D01*
X58458Y-44638D01*
X58427Y-44676D01*
X58389Y-44707D01*
X58346Y-44730D01*
X58300Y-44744D01*
X58251Y-44749D01*
X58204Y-44745D01*
X58157Y-44731D01*
X58114Y-44709D01*
X58076Y-44678D01*
X58044Y-44641D01*
X58021Y-44598D01*
X58006Y-44551D01*
X58001Y-44503D01*
X58005Y-44455D01*
X58018Y-44408D01*
X58040Y-44365D01*
X58071Y-44327D01*
X58108Y-44295D01*
X58150Y-44271D01*
X58197Y-44256D01*
X58245Y-44251D01*
X58293Y-44254D01*
X58340Y-44267D01*
X58383Y-44289D01*
X58422Y-44319D01*
X58454Y-44356D01*
X58478Y-44399D01*
X58493Y-44445D01*
X58499Y-44494D01*
X58500Y-44500D01*
X57750Y-44000D02*
X57750Y-48500D01*
X57750Y-48500D02*
X60750Y-48500D01*
X60750Y-48500D02*
X60750Y-44000D01*
X60750Y-44000D02*
X57750Y-44000D01*
G54D11*
X60270Y-42650D02*
X60268Y-42663D01*
X60264Y-42676D01*
X60258Y-42688D01*
X60249Y-42699D01*
X60239Y-42708D01*
X60227Y-42714D01*
X60214Y-42718D01*
X60200Y-42719D01*
X60187Y-42718D01*
X60174Y-42714D01*
X60162Y-42708D01*
X60152Y-42700D01*
X60143Y-42689D01*
X60136Y-42677D01*
X60132Y-42664D01*
X60131Y-42650D01*
X60132Y-42638D01*
X60135Y-42625D01*
X60142Y-42613D01*
X60150Y-42602D01*
X60161Y-42593D01*
X60172Y-42586D01*
X60185Y-42582D01*
X60199Y-42581D01*
X60212Y-42582D01*
X60225Y-42585D01*
X60237Y-42591D01*
X60248Y-42600D01*
X60257Y-42610D01*
X60263Y-42622D01*
X60268Y-42635D01*
X60269Y-42649D01*
X60270Y-42650D01*
X59550Y-43800D02*
X60150Y-43800D01*
X60150Y-43800D02*
X60150Y-42700D01*
X60150Y-42700D02*
X59550Y-42700D01*
X58950Y-42700D02*
X58350Y-42700D01*
X58350Y-42700D02*
X58350Y-43800D01*
X58350Y-43800D02*
X58950Y-43800D01*
X64520Y-44400D02*
X64518Y-44413D01*
X64514Y-44426D01*
X64508Y-44438D01*
X64499Y-44449D01*
X64489Y-44458D01*
X64477Y-44464D01*
X64464Y-44468D01*
X64450Y-44469D01*
X64437Y-44468D01*
X64424Y-44464D01*
X64412Y-44458D01*
X64402Y-44450D01*
X64393Y-44439D01*
X64386Y-44427D01*
X64382Y-44414D01*
X64381Y-44400D01*
X64382Y-44388D01*
X64385Y-44375D01*
X64392Y-44363D01*
X64400Y-44352D01*
X64411Y-44343D01*
X64422Y-44336D01*
X64435Y-44332D01*
X64449Y-44331D01*
X64462Y-44332D01*
X64475Y-44335D01*
X64487Y-44341D01*
X64498Y-44350D01*
X64507Y-44360D01*
X64513Y-44372D01*
X64518Y-44385D01*
X64519Y-44399D01*
X64520Y-44400D01*
X63800Y-45550D02*
X64400Y-45550D01*
X64400Y-45550D02*
X64400Y-44450D01*
X64400Y-44450D02*
X63800Y-44450D01*
X63200Y-44450D02*
X62600Y-44450D01*
X62600Y-44450D02*
X62600Y-45550D01*
X62600Y-45550D02*
X63200Y-45550D01*
X60270Y-48650D02*
X60268Y-48663D01*
X60264Y-48676D01*
X60258Y-48688D01*
X60249Y-48699D01*
X60239Y-48708D01*
X60227Y-48714D01*
X60214Y-48718D01*
X60200Y-48719D01*
X60187Y-48718D01*
X60174Y-48714D01*
X60162Y-48708D01*
X60152Y-48700D01*
X60143Y-48689D01*
X60136Y-48677D01*
X60132Y-48664D01*
X60131Y-48650D01*
X60132Y-48638D01*
X60135Y-48625D01*
X60142Y-48613D01*
X60150Y-48602D01*
X60161Y-48593D01*
X60172Y-48586D01*
X60185Y-48582D01*
X60199Y-48581D01*
X60212Y-48582D01*
X60225Y-48585D01*
X60237Y-48591D01*
X60248Y-48600D01*
X60257Y-48610D01*
X60263Y-48622D01*
X60268Y-48635D01*
X60269Y-48649D01*
X60270Y-48650D01*
X59550Y-49800D02*
X60150Y-49800D01*
X60150Y-49800D02*
X60150Y-48700D01*
X60150Y-48700D02*
X59550Y-48700D01*
X58950Y-48700D02*
X58350Y-48700D01*
X58350Y-48700D02*
X58350Y-49800D01*
X58350Y-49800D02*
X58950Y-49800D01*
X65170Y-47950D02*
X65168Y-47963D01*
X65164Y-47976D01*
X65158Y-47988D01*
X65149Y-47999D01*
X65139Y-48008D01*
X65127Y-48014D01*
X65114Y-48018D01*
X65100Y-48019D01*
X65087Y-48018D01*
X65074Y-48014D01*
X65062Y-48008D01*
X65052Y-48000D01*
X65043Y-47989D01*
X65036Y-47977D01*
X65032Y-47964D01*
X65031Y-47950D01*
X65032Y-47938D01*
X65035Y-47925D01*
X65042Y-47913D01*
X65050Y-47902D01*
X65061Y-47893D01*
X65072Y-47886D01*
X65085Y-47882D01*
X65099Y-47881D01*
X65112Y-47882D01*
X65125Y-47885D01*
X65137Y-47891D01*
X65148Y-47900D01*
X65157Y-47910D01*
X65163Y-47922D01*
X65168Y-47935D01*
X65169Y-47949D01*
X65170Y-47950D01*
X63950Y-47300D02*
X63950Y-47900D01*
X63950Y-47900D02*
X65050Y-47900D01*
X65050Y-47900D02*
X65050Y-47300D01*
X65050Y-46700D02*
X65050Y-46100D01*
X65050Y-46100D02*
X63950Y-46100D01*
X63950Y-46100D02*
X63950Y-46700D01*
X63170Y-47950D02*
X63168Y-47963D01*
X63164Y-47976D01*
X63158Y-47988D01*
X63149Y-47999D01*
X63139Y-48008D01*
X63127Y-48014D01*
X63114Y-48018D01*
X63100Y-48019D01*
X63087Y-48018D01*
X63074Y-48014D01*
X63062Y-48008D01*
X63052Y-48000D01*
X63043Y-47989D01*
X63036Y-47977D01*
X63032Y-47964D01*
X63031Y-47950D01*
X63032Y-47938D01*
X63035Y-47925D01*
X63042Y-47913D01*
X63050Y-47902D01*
X63061Y-47893D01*
X63072Y-47886D01*
X63085Y-47882D01*
X63099Y-47881D01*
X63112Y-47882D01*
X63125Y-47885D01*
X63137Y-47891D01*
X63148Y-47900D01*
X63157Y-47910D01*
X63163Y-47922D01*
X63168Y-47935D01*
X63169Y-47949D01*
X63170Y-47950D01*
X61950Y-47300D02*
X61950Y-47900D01*
X61950Y-47900D02*
X63050Y-47900D01*
X63050Y-47900D02*
X63050Y-47300D01*
X63050Y-46700D02*
X63050Y-46100D01*
X63050Y-46100D02*
X61950Y-46100D01*
X61950Y-46100D02*
X61950Y-46700D01*
G54D12*
X40500Y-48000D02*
X40480Y-48194D01*
X40424Y-48381D01*
X40332Y-48553D01*
X40209Y-48704D01*
X40059Y-48829D01*
X39887Y-48921D01*
X39701Y-48979D01*
X39506Y-48999D01*
X39313Y-48982D01*
X39126Y-48927D01*
X38953Y-48836D01*
X38801Y-48714D01*
X38675Y-48564D01*
X38581Y-48393D01*
X38522Y-48207D01*
X38501Y-48013D01*
X38517Y-47820D01*
X38571Y-47632D01*
X38660Y-47459D01*
X38781Y-47306D01*
X38930Y-47179D01*
X39100Y-47084D01*
X39286Y-47024D01*
X39480Y-47001D01*
X39673Y-47016D01*
X39861Y-47068D01*
X40035Y-47156D01*
X40189Y-47276D01*
X40317Y-47424D01*
X40413Y-47594D01*
X40475Y-47779D01*
X40499Y-47973D01*
X40500Y-48000D01*
X43000Y-50500D02*
X36000Y-50500D01*
X36000Y-50500D02*
X36000Y-43500D01*
X36000Y-43500D02*
X43000Y-43500D01*
X43000Y-43500D02*
X43000Y-50500D01*
X53500Y-48000D02*
X53480Y-48194D01*
X53424Y-48381D01*
X53332Y-48553D01*
X53209Y-48704D01*
X53059Y-48829D01*
X52887Y-48921D01*
X52701Y-48979D01*
X52506Y-48999D01*
X52313Y-48982D01*
X52126Y-48927D01*
X51953Y-48836D01*
X51801Y-48714D01*
X51675Y-48564D01*
X51581Y-48393D01*
X51522Y-48207D01*
X51501Y-48013D01*
X51517Y-47820D01*
X51571Y-47632D01*
X51660Y-47459D01*
X51781Y-47306D01*
X51930Y-47179D01*
X52100Y-47084D01*
X52286Y-47024D01*
X52480Y-47001D01*
X52673Y-47016D01*
X52861Y-47068D01*
X53035Y-47156D01*
X53189Y-47276D01*
X53317Y-47424D01*
X53413Y-47594D01*
X53475Y-47779D01*
X53499Y-47973D01*
X53500Y-48000D01*
X56000Y-50500D02*
X49000Y-50500D01*
X49000Y-50500D02*
X49000Y-43500D01*
X49000Y-43500D02*
X56000Y-43500D01*
X56000Y-43500D02*
X56000Y-50500D01*
X29750Y-33250D02*
X35750Y-33250D01*
X29750Y-39250D02*
X35750Y-39250D01*
X29750Y-38250D02*
X29450Y-38250D01*
X29450Y-38250D02*
X29450Y-34250D01*
X29450Y-34250D02*
X29750Y-34250D01*
X33750Y-39250D02*
X33750Y-33250D01*
X29750Y-39250D02*
X29750Y-33250D01*
X35750Y-39250D02*
X35750Y-33250D01*
X29750Y-44250D02*
X35750Y-44250D01*
X29750Y-50250D02*
X35750Y-50250D01*
X29750Y-49250D02*
X29450Y-49250D01*
X29450Y-49250D02*
X29450Y-45250D01*
X29450Y-45250D02*
X29750Y-45250D01*
X33750Y-50250D02*
X33750Y-44250D01*
X29750Y-50250D02*
X29750Y-44250D01*
X35750Y-50250D02*
X35750Y-44250D01*
X45750Y-45000D02*
X45747Y-45029D01*
X45738Y-45057D01*
X45724Y-45083D01*
X45706Y-45105D01*
X45683Y-45124D01*
X45658Y-45138D01*
X45630Y-45146D01*
X45601Y-45149D01*
X45572Y-45147D01*
X45544Y-45139D01*
X45518Y-45125D01*
X45496Y-45107D01*
X45477Y-45084D01*
X45463Y-45059D01*
X45454Y-45031D01*
X45451Y-45002D01*
X45453Y-44973D01*
X45461Y-44945D01*
X45474Y-44919D01*
X45493Y-44896D01*
X45515Y-44877D01*
X45540Y-44863D01*
X45568Y-44854D01*
X45597Y-44851D01*
X45626Y-44853D01*
X45654Y-44861D01*
X45680Y-44874D01*
X45703Y-44892D01*
X45722Y-44914D01*
X45737Y-44939D01*
X45746Y-44967D01*
X45749Y-44996D01*
X45750Y-45000D01*
X45300Y-44700D02*
X45300Y-46800D01*
X45300Y-46800D02*
X46700Y-46800D01*
X46700Y-46800D02*
X46700Y-44700D01*
X46700Y-44700D02*
X45300Y-44700D01*
X45750Y-48500D02*
X45747Y-48529D01*
X45738Y-48557D01*
X45724Y-48583D01*
X45706Y-48605D01*
X45683Y-48624D01*
X45658Y-48638D01*
X45630Y-48646D01*
X45601Y-48649D01*
X45572Y-48647D01*
X45544Y-48639D01*
X45518Y-48625D01*
X45496Y-48607D01*
X45477Y-48584D01*
X45463Y-48559D01*
X45454Y-48531D01*
X45451Y-48502D01*
X45453Y-48473D01*
X45461Y-48445D01*
X45474Y-48419D01*
X45493Y-48396D01*
X45515Y-48377D01*
X45540Y-48363D01*
X45568Y-48354D01*
X45597Y-48351D01*
X45626Y-48353D01*
X45654Y-48361D01*
X45680Y-48374D01*
X45703Y-48392D01*
X45722Y-48414D01*
X45737Y-48439D01*
X45746Y-48467D01*
X45749Y-48496D01*
X45750Y-48500D01*
X45300Y-48200D02*
X45300Y-50300D01*
X45300Y-50300D02*
X46700Y-50300D01*
X46700Y-50300D02*
X46700Y-48200D01*
X46700Y-48200D02*
X45300Y-48200D01*
X64750Y-38000D02*
X64750Y-39250D01*
X59750Y-38000D02*
X59750Y-39250D01*
X62500Y-51250D02*
X69000Y-51250D01*
X62500Y-49750D02*
X69000Y-49750D01*
X68000Y-49250D02*
X68250Y-49750D01*
X68250Y-49750D02*
X68500Y-49250D01*
X68500Y-49250D02*
X68000Y-49250D01*
X62500Y-49750D02*
X62500Y-51250D01*
X69000Y-51250D02*
X69000Y-49750D01*
G54D13*
X68705Y-45662D02*
X68705Y-45262D01*
X68858Y-45262D01*
X68896Y-45281D01*
X68915Y-45300D01*
X68934Y-45338D01*
X68934Y-45395D01*
X68915Y-45433D01*
X68896Y-45452D01*
X68858Y-45471D01*
X68705Y-45471D01*
X69315Y-45662D02*
X69086Y-45662D01*
X69200Y-45662D02*
X69200Y-45262D01*
X69162Y-45319D01*
X69124Y-45357D01*
X69086Y-45376D01*
X69612Y-40033D02*
X69612Y-39785D01*
X69764Y-39919D01*
X69764Y-39861D01*
X69783Y-39823D01*
X69802Y-39804D01*
X69840Y-39785D01*
X69936Y-39785D01*
X69974Y-39804D01*
X69993Y-39823D01*
X70012Y-39861D01*
X70012Y-39976D01*
X69993Y-40014D01*
X69974Y-40033D01*
X70012Y-40535D02*
X70012Y-40764D01*
X70012Y-40650D02*
X69612Y-40650D01*
X69669Y-40688D01*
X69707Y-40726D01*
X69726Y-40764D01*
X69650Y-42864D02*
X69631Y-42845D01*
X69612Y-42807D01*
X69612Y-42711D01*
X69631Y-42673D01*
X69650Y-42654D01*
X69688Y-42635D01*
X69726Y-42635D01*
X69783Y-42654D01*
X70012Y-42883D01*
X70012Y-42635D01*
X69745Y-43423D02*
X70012Y-43423D01*
X69593Y-43519D02*
X69879Y-43614D01*
X69879Y-43366D01*
X37012Y-34074D02*
X37412Y-33807D01*
X37012Y-33807D02*
X37412Y-34074D01*
X37412Y-33445D02*
X37412Y-33674D01*
X37412Y-33560D02*
X37012Y-33560D01*
X37069Y-33598D01*
X37107Y-33636D01*
X37126Y-33674D01*
G54D15*
X43543Y-31893D02*
X43943Y-32493D01*
X43943Y-31893D02*
X43543Y-32493D01*
X44171Y-32493D02*
X44171Y-31893D01*
X44399Y-31893D01*
X44457Y-31921D01*
X44485Y-31950D01*
X44514Y-32007D01*
X44514Y-32093D01*
X44485Y-32150D01*
X44457Y-32179D01*
X44399Y-32207D01*
X44171Y-32207D01*
X45114Y-32493D02*
X44914Y-32207D01*
X44771Y-32493D02*
X44771Y-31893D01*
X44999Y-31893D01*
X45057Y-31921D01*
X45085Y-31950D01*
X45114Y-32007D01*
X45114Y-32093D01*
X45085Y-32150D01*
X45057Y-32179D01*
X44999Y-32207D01*
X44771Y-32207D01*
X45485Y-31893D02*
X45599Y-31893D01*
X45657Y-31921D01*
X45714Y-31979D01*
X45742Y-32093D01*
X45742Y-32293D01*
X45714Y-32407D01*
X45657Y-32464D01*
X45599Y-32493D01*
X45485Y-32493D01*
X45428Y-32464D01*
X45371Y-32407D01*
X45342Y-32293D01*
X45342Y-32093D01*
X45371Y-31979D01*
X45428Y-31921D01*
X45485Y-31893D01*
X45914Y-31893D02*
X46257Y-31893D01*
X46086Y-32493D02*
X46086Y-31893D01*
X46571Y-31893D02*
X46685Y-31893D01*
X46743Y-31921D01*
X46800Y-31979D01*
X46828Y-32093D01*
X46828Y-32293D01*
X46800Y-32407D01*
X46743Y-32464D01*
X46685Y-32493D01*
X46571Y-32493D01*
X46514Y-32464D01*
X46457Y-32407D01*
X46428Y-32293D01*
X46428Y-32093D01*
X46457Y-31979D01*
X46514Y-31921D01*
X46571Y-31893D01*
X47372Y-32493D02*
X47086Y-32493D01*
X47086Y-31893D01*
X47543Y-32321D02*
X47829Y-32321D01*
X47486Y-32493D02*
X47686Y-31893D01*
X47886Y-32493D01*
X48286Y-32179D02*
X48372Y-32207D01*
X48400Y-32236D01*
X48429Y-32293D01*
X48429Y-32379D01*
X48400Y-32436D01*
X48372Y-32464D01*
X48314Y-32493D01*
X48086Y-32493D01*
X48086Y-31893D01*
X48286Y-31893D01*
X48343Y-31921D01*
X48372Y-31950D01*
X48400Y-32007D01*
X48400Y-32064D01*
X48372Y-32121D01*
X48343Y-32150D01*
X48286Y-32179D01*
X48086Y-32179D01*
X51243Y-33643D02*
X51243Y-34129D01*
X51271Y-34186D01*
X51300Y-34214D01*
X51357Y-34243D01*
X51471Y-34243D01*
X51529Y-34214D01*
X51557Y-34186D01*
X51586Y-34129D01*
X51586Y-33643D01*
X51843Y-34214D02*
X51929Y-34243D01*
X52072Y-34243D01*
X52129Y-34214D01*
X52158Y-34186D01*
X52186Y-34129D01*
X52186Y-34071D01*
X52158Y-34014D01*
X52129Y-33986D01*
X52072Y-33957D01*
X51958Y-33929D01*
X51900Y-33900D01*
X51872Y-33871D01*
X51843Y-33814D01*
X51843Y-33757D01*
X51872Y-33700D01*
X51900Y-33671D01*
X51958Y-33643D01*
X52100Y-33643D01*
X52186Y-33671D01*
X52643Y-33929D02*
X52729Y-33957D01*
X52757Y-33986D01*
X52786Y-34043D01*
X52786Y-34129D01*
X52757Y-34186D01*
X52729Y-34214D01*
X52671Y-34243D01*
X52443Y-34243D01*
X52443Y-33643D01*
X52643Y-33643D01*
X52700Y-33671D01*
X52729Y-33700D01*
X52757Y-33757D01*
X52757Y-33814D01*
X52729Y-33871D01*
X52700Y-33900D01*
X52643Y-33929D01*
X52443Y-33929D01*
X52171Y-41207D02*
X52143Y-41264D01*
X52143Y-41350D01*
X52171Y-41435D01*
X52229Y-41493D01*
X52286Y-41521D01*
X52400Y-41550D01*
X52486Y-41550D01*
X52600Y-41521D01*
X52657Y-41493D01*
X52714Y-41435D01*
X52743Y-41350D01*
X52743Y-41293D01*
X52714Y-41207D01*
X52686Y-41178D01*
X52486Y-41178D01*
X52486Y-41293D01*
X52743Y-40921D02*
X52143Y-40921D01*
X52743Y-40578D01*
X52143Y-40578D01*
X52743Y-40292D02*
X52143Y-40292D01*
X52143Y-40149D01*
X52171Y-40064D01*
X52229Y-40006D01*
X52286Y-39978D01*
X52400Y-39949D01*
X52486Y-39949D01*
X52600Y-39978D01*
X52657Y-40006D01*
X52714Y-40064D01*
X52743Y-40149D01*
X52743Y-40292D01*
X48171Y-41207D02*
X48143Y-41264D01*
X48143Y-41350D01*
X48171Y-41435D01*
X48229Y-41493D01*
X48286Y-41521D01*
X48400Y-41550D01*
X48486Y-41550D01*
X48600Y-41521D01*
X48657Y-41493D01*
X48714Y-41435D01*
X48743Y-41350D01*
X48743Y-41293D01*
X48714Y-41207D01*
X48686Y-41178D01*
X48486Y-41178D01*
X48486Y-41293D01*
X48743Y-40921D02*
X48143Y-40921D01*
X48743Y-40578D01*
X48143Y-40578D01*
X48743Y-40292D02*
X48143Y-40292D01*
X48143Y-40149D01*
X48171Y-40064D01*
X48229Y-40006D01*
X48286Y-39978D01*
X48400Y-39949D01*
X48486Y-39949D01*
X48600Y-39978D01*
X48657Y-40006D01*
X48714Y-40064D01*
X48743Y-40149D01*
X48743Y-40292D01*
X44171Y-41207D02*
X44143Y-41264D01*
X44143Y-41350D01*
X44171Y-41435D01*
X44229Y-41493D01*
X44286Y-41521D01*
X44400Y-41550D01*
X44486Y-41550D01*
X44600Y-41521D01*
X44657Y-41493D01*
X44714Y-41435D01*
X44743Y-41350D01*
X44743Y-41293D01*
X44714Y-41207D01*
X44686Y-41178D01*
X44486Y-41178D01*
X44486Y-41293D01*
X44743Y-40921D02*
X44143Y-40921D01*
X44743Y-40578D01*
X44143Y-40578D01*
X44743Y-40292D02*
X44143Y-40292D01*
X44143Y-40149D01*
X44171Y-40064D01*
X44229Y-40006D01*
X44286Y-39978D01*
X44400Y-39949D01*
X44486Y-39949D01*
X44600Y-39978D01*
X44657Y-40006D01*
X44714Y-40064D01*
X44743Y-40149D01*
X44743Y-40292D01*
X40171Y-41207D02*
X40143Y-41264D01*
X40143Y-41350D01*
X40171Y-41435D01*
X40229Y-41493D01*
X40286Y-41521D01*
X40400Y-41550D01*
X40486Y-41550D01*
X40600Y-41521D01*
X40657Y-41493D01*
X40714Y-41435D01*
X40743Y-41350D01*
X40743Y-41293D01*
X40714Y-41207D01*
X40686Y-41178D01*
X40486Y-41178D01*
X40486Y-41293D01*
X40743Y-40921D02*
X40143Y-40921D01*
X40743Y-40578D01*
X40143Y-40578D01*
X40743Y-40292D02*
X40143Y-40292D01*
X40143Y-40149D01*
X40171Y-40064D01*
X40229Y-40006D01*
X40286Y-39978D01*
X40400Y-39949D01*
X40486Y-39949D01*
X40600Y-39978D01*
X40657Y-40006D01*
X40714Y-40064D01*
X40743Y-40149D01*
X40743Y-40292D01*
X46615Y-34593D02*
X46615Y-34993D01*
X46472Y-34364D02*
X46329Y-34793D01*
X46701Y-34793D01*
X38514Y-37457D02*
X38514Y-37000D01*
X38743Y-37229D02*
X38286Y-37229D01*
X38143Y-36428D02*
X38143Y-36714D01*
X38429Y-36743D01*
X38400Y-36714D01*
X38371Y-36657D01*
X38371Y-36514D01*
X38400Y-36457D01*
X38429Y-36428D01*
X38486Y-36400D01*
X38629Y-36400D01*
X38686Y-36428D01*
X38714Y-36457D01*
X38743Y-36514D01*
X38743Y-36657D01*
X38714Y-36714D01*
X38686Y-36743D01*
X38143Y-36229D02*
X38743Y-36029D01*
X38143Y-35829D01*
X38743Y-35172D02*
X38143Y-35172D01*
X38743Y-34886D02*
X38143Y-34886D01*
X38743Y-34543D01*
X38143Y-34543D01*
X39514Y-38357D02*
X39514Y-37900D01*
X39143Y-37328D02*
X39143Y-37614D01*
X39429Y-37643D01*
X39400Y-37614D01*
X39371Y-37557D01*
X39371Y-37414D01*
X39400Y-37357D01*
X39429Y-37328D01*
X39486Y-37300D01*
X39629Y-37300D01*
X39686Y-37328D01*
X39714Y-37357D01*
X39743Y-37414D01*
X39743Y-37557D01*
X39714Y-37614D01*
X39686Y-37643D01*
X39143Y-37129D02*
X39743Y-36929D01*
X39143Y-36729D01*
X39143Y-35958D02*
X39143Y-35844D01*
X39171Y-35786D01*
X39229Y-35729D01*
X39343Y-35701D01*
X39543Y-35701D01*
X39657Y-35729D01*
X39714Y-35786D01*
X39743Y-35844D01*
X39743Y-35958D01*
X39714Y-36015D01*
X39657Y-36072D01*
X39543Y-36101D01*
X39343Y-36101D01*
X39229Y-36072D01*
X39171Y-36015D01*
X39143Y-35958D01*
X39143Y-35443D02*
X39629Y-35443D01*
X39686Y-35415D01*
X39714Y-35386D01*
X39743Y-35329D01*
X39743Y-35215D01*
X39714Y-35157D01*
X39686Y-35129D01*
X39629Y-35100D01*
X39143Y-35100D01*
X39143Y-34900D02*
X39143Y-34557D01*
X39743Y-34728D02*
X39143Y-34728D01*
X40171Y-35707D02*
X40143Y-35764D01*
X40143Y-35850D01*
X40171Y-35935D01*
X40229Y-35993D01*
X40286Y-36021D01*
X40400Y-36050D01*
X40486Y-36050D01*
X40600Y-36021D01*
X40657Y-35993D01*
X40714Y-35935D01*
X40743Y-35850D01*
X40743Y-35793D01*
X40714Y-35707D01*
X40686Y-35678D01*
X40486Y-35678D01*
X40486Y-35793D01*
X40743Y-35421D02*
X40143Y-35421D01*
X40743Y-35078D01*
X40143Y-35078D01*
X40743Y-34792D02*
X40143Y-34792D01*
X40143Y-34649D01*
X40171Y-34564D01*
X40229Y-34506D01*
X40286Y-34478D01*
X40400Y-34449D01*
X40486Y-34449D01*
X40600Y-34478D01*
X40657Y-34506D01*
X40714Y-34564D01*
X40743Y-34649D01*
X40743Y-34792D01*
X41514Y-35514D02*
X41514Y-35057D01*
X41743Y-35286D02*
X41286Y-35286D01*
X41143Y-34828D02*
X41143Y-34457D01*
X41371Y-34657D01*
X41371Y-34571D01*
X41400Y-34514D01*
X41429Y-34485D01*
X41486Y-34457D01*
X41629Y-34457D01*
X41686Y-34485D01*
X41714Y-34514D01*
X41743Y-34571D01*
X41743Y-34743D01*
X41714Y-34800D01*
X41686Y-34828D01*
X42472Y-34393D02*
X42529Y-34393D01*
X42586Y-34421D01*
X42615Y-34450D01*
X42644Y-34507D01*
X42672Y-34621D01*
X42672Y-34764D01*
X42644Y-34879D01*
X42615Y-34936D01*
X42586Y-34964D01*
X42529Y-34993D01*
X42472Y-34993D01*
X42415Y-34964D01*
X42386Y-34936D01*
X42358Y-34879D01*
X42329Y-34764D01*
X42329Y-34621D01*
X42358Y-34507D01*
X42386Y-34450D01*
X42415Y-34421D01*
X42472Y-34393D01*
X43672Y-34993D02*
X43329Y-34993D01*
X43501Y-34993D02*
X43501Y-34393D01*
X43444Y-34479D01*
X43386Y-34536D01*
X43329Y-34564D01*
X44329Y-34450D02*
X44358Y-34421D01*
X44415Y-34393D01*
X44558Y-34393D01*
X44615Y-34421D01*
X44644Y-34450D01*
X44672Y-34507D01*
X44672Y-34564D01*
X44644Y-34650D01*
X44301Y-34993D01*
X44672Y-34993D01*
X45301Y-34393D02*
X45672Y-34393D01*
X45472Y-34621D01*
X45558Y-34621D01*
X45615Y-34650D01*
X45644Y-34679D01*
X45672Y-34736D01*
X45672Y-34879D01*
X45644Y-34936D01*
X45615Y-34964D01*
X45558Y-34993D01*
X45386Y-34993D01*
X45329Y-34964D01*
X45301Y-34936D01*
X47644Y-34393D02*
X47358Y-34393D01*
X47329Y-34679D01*
X47358Y-34650D01*
X47415Y-34621D01*
X47558Y-34621D01*
X47615Y-34650D01*
X47644Y-34679D01*
X47672Y-34736D01*
X47672Y-34879D01*
X47644Y-34936D01*
X47615Y-34964D01*
X47558Y-34993D01*
X47415Y-34993D01*
X47358Y-34964D01*
X47329Y-34936D01*
X48615Y-34393D02*
X48501Y-34393D01*
X48444Y-34421D01*
X48415Y-34450D01*
X48358Y-34536D01*
X48329Y-34650D01*
X48329Y-34879D01*
X48358Y-34936D01*
X48386Y-34964D01*
X48444Y-34993D01*
X48558Y-34993D01*
X48615Y-34964D01*
X48644Y-34936D01*
X48672Y-34879D01*
X48672Y-34736D01*
X48644Y-34679D01*
X48615Y-34650D01*
X48558Y-34621D01*
X48444Y-34621D01*
X48386Y-34650D01*
X48358Y-34679D01*
X48329Y-34736D01*
X49301Y-34393D02*
X49701Y-34393D01*
X49444Y-34993D01*
X51429Y-41599D02*
X51429Y-41399D01*
X51743Y-41313D02*
X51743Y-41599D01*
X51143Y-41599D01*
X51143Y-41313D01*
X51143Y-41113D02*
X51743Y-40713D01*
X51143Y-40713D02*
X51743Y-41113D01*
X51143Y-40571D02*
X51143Y-40228D01*
X51743Y-40399D02*
X51143Y-40399D01*
X51143Y-39657D02*
X51143Y-39314D01*
X51743Y-39485D02*
X51143Y-39485D01*
X47571Y-41536D02*
X47571Y-41250D01*
X47743Y-41593D02*
X47143Y-41393D01*
X47743Y-41193D01*
X47143Y-41050D02*
X47743Y-40907D01*
X47314Y-40793D01*
X47743Y-40679D01*
X47143Y-40536D01*
X47171Y-39993D02*
X47143Y-40050D01*
X47143Y-40136D01*
X47171Y-40221D01*
X47229Y-40279D01*
X47286Y-40307D01*
X47400Y-40336D01*
X47486Y-40336D01*
X47600Y-40307D01*
X47657Y-40279D01*
X47714Y-40221D01*
X47743Y-40136D01*
X47743Y-40079D01*
X47714Y-39993D01*
X47686Y-39964D01*
X47486Y-39964D01*
X47486Y-40079D01*
X43686Y-41164D02*
X43714Y-41193D01*
X43743Y-41279D01*
X43743Y-41336D01*
X43714Y-41421D01*
X43657Y-41479D01*
X43600Y-41507D01*
X43486Y-41536D01*
X43400Y-41536D01*
X43286Y-41507D01*
X43229Y-41479D01*
X43171Y-41421D01*
X43143Y-41336D01*
X43143Y-41279D01*
X43171Y-41193D01*
X43200Y-41164D01*
X43743Y-40907D02*
X43143Y-40907D01*
X43429Y-40907D02*
X43429Y-40564D01*
X43743Y-40564D02*
X43143Y-40564D01*
X43200Y-40307D02*
X43171Y-40278D01*
X43143Y-40221D01*
X43143Y-40078D01*
X43171Y-40021D01*
X43200Y-39992D01*
X43257Y-39964D01*
X43314Y-39964D01*
X43400Y-39992D01*
X43743Y-40335D01*
X43743Y-39964D01*
X39686Y-41164D02*
X39714Y-41193D01*
X39743Y-41279D01*
X39743Y-41336D01*
X39714Y-41421D01*
X39657Y-41479D01*
X39600Y-41507D01*
X39486Y-41536D01*
X39400Y-41536D01*
X39286Y-41507D01*
X39229Y-41479D01*
X39171Y-41421D01*
X39143Y-41336D01*
X39143Y-41279D01*
X39171Y-41193D01*
X39200Y-41164D01*
X39743Y-40907D02*
X39143Y-40907D01*
X39429Y-40907D02*
X39429Y-40564D01*
X39743Y-40564D02*
X39143Y-40564D01*
X39743Y-39964D02*
X39743Y-40307D01*
X39743Y-40135D02*
X39143Y-40135D01*
X39229Y-40192D01*
X39286Y-40250D01*
X39314Y-40307D01*
G54D13*
X61195Y-43512D02*
X61195Y-43836D01*
X61214Y-43874D01*
X61233Y-43893D01*
X61271Y-43912D01*
X61348Y-43912D01*
X61386Y-43893D01*
X61405Y-43874D01*
X61424Y-43836D01*
X61424Y-43512D01*
X61576Y-43512D02*
X61824Y-43512D01*
X61690Y-43664D01*
X61748Y-43664D01*
X61786Y-43683D01*
X61805Y-43702D01*
X61824Y-43740D01*
X61824Y-43836D01*
X61805Y-43874D01*
X61786Y-43893D01*
X61748Y-43912D01*
X61633Y-43912D01*
X61595Y-43893D01*
X61576Y-43874D01*
G54D15*
X57994Y-45643D02*
X57994Y-46129D01*
X58022Y-46186D01*
X58051Y-46214D01*
X58108Y-46243D01*
X58222Y-46243D01*
X58280Y-46214D01*
X58308Y-46186D01*
X58337Y-46129D01*
X58337Y-45643D01*
X58594Y-46071D02*
X58880Y-46071D01*
X58537Y-46243D02*
X58737Y-45643D01*
X58937Y-46243D01*
X59337Y-45929D02*
X59137Y-45929D01*
X59137Y-46243D02*
X59137Y-45643D01*
X59423Y-45643D01*
X59908Y-45843D02*
X59908Y-46243D01*
X59765Y-45614D02*
X59622Y-46043D01*
X59994Y-46043D01*
X60193Y-45700D02*
X60222Y-45671D01*
X60279Y-45643D01*
X60422Y-45643D01*
X60479Y-45671D01*
X60508Y-45700D01*
X60536Y-45757D01*
X60536Y-45814D01*
X60508Y-45900D01*
X60165Y-46243D01*
X60536Y-46243D01*
G54D11*
X59107Y-42521D02*
X59007Y-42379D01*
X58935Y-42521D02*
X58935Y-42221D01*
X59050Y-42221D01*
X59078Y-42236D01*
X59093Y-42250D01*
X59107Y-42279D01*
X59107Y-42321D01*
X59093Y-42350D01*
X59078Y-42364D01*
X59050Y-42379D01*
X58935Y-42379D01*
X59393Y-42521D02*
X59221Y-42521D01*
X59307Y-42521D02*
X59307Y-42221D01*
X59278Y-42264D01*
X59250Y-42293D01*
X59221Y-42307D01*
X59579Y-42221D02*
X59607Y-42221D01*
X59636Y-42236D01*
X59650Y-42250D01*
X59664Y-42279D01*
X59679Y-42336D01*
X59679Y-42407D01*
X59664Y-42464D01*
X59650Y-42493D01*
X59636Y-42507D01*
X59607Y-42521D01*
X59579Y-42521D01*
X59550Y-42507D01*
X59536Y-42493D01*
X59521Y-42464D01*
X59507Y-42407D01*
X59507Y-42336D01*
X59521Y-42279D01*
X59536Y-42250D01*
X59550Y-42236D01*
X59579Y-42221D01*
X60421Y-43600D02*
X60621Y-43600D01*
X60307Y-43671D02*
X60521Y-43743D01*
X60521Y-43557D01*
X60321Y-43385D02*
X60321Y-43357D01*
X60336Y-43328D01*
X60350Y-43314D01*
X60379Y-43300D01*
X60436Y-43285D01*
X60507Y-43285D01*
X60564Y-43300D01*
X60593Y-43314D01*
X60607Y-43328D01*
X60621Y-43357D01*
X60621Y-43385D01*
X60607Y-43414D01*
X60593Y-43428D01*
X60564Y-43443D01*
X60507Y-43457D01*
X60436Y-43457D01*
X60379Y-43443D01*
X60350Y-43428D01*
X60336Y-43414D01*
X60321Y-43385D01*
X60350Y-43171D02*
X60336Y-43157D01*
X60321Y-43128D01*
X60321Y-43057D01*
X60336Y-43028D01*
X60350Y-43014D01*
X60379Y-42999D01*
X60407Y-42999D01*
X60450Y-43014D01*
X60621Y-43185D01*
X60621Y-42999D01*
X60621Y-42871D02*
X60321Y-42871D01*
X60507Y-42842D02*
X60621Y-42756D01*
X60421Y-42756D02*
X60536Y-42871D01*
X63450Y-44321D02*
X63350Y-44179D01*
X63278Y-44321D02*
X63278Y-44021D01*
X63393Y-44021D01*
X63421Y-44036D01*
X63436Y-44050D01*
X63450Y-44079D01*
X63450Y-44121D01*
X63436Y-44150D01*
X63421Y-44164D01*
X63393Y-44179D01*
X63278Y-44179D01*
X63593Y-44321D02*
X63650Y-44321D01*
X63678Y-44307D01*
X63693Y-44293D01*
X63721Y-44250D01*
X63736Y-44193D01*
X63736Y-44079D01*
X63721Y-44050D01*
X63707Y-44036D01*
X63678Y-44021D01*
X63621Y-44021D01*
X63593Y-44036D01*
X63578Y-44050D01*
X63564Y-44079D01*
X63564Y-44150D01*
X63578Y-44179D01*
X63593Y-44193D01*
X63621Y-44207D01*
X63678Y-44207D01*
X63707Y-44193D01*
X63721Y-44179D01*
X63736Y-44150D01*
X64671Y-45350D02*
X64871Y-45350D01*
X64557Y-45421D02*
X64771Y-45493D01*
X64771Y-45307D01*
X64571Y-45135D02*
X64571Y-45107D01*
X64586Y-45078D01*
X64600Y-45064D01*
X64629Y-45050D01*
X64686Y-45035D01*
X64757Y-45035D01*
X64814Y-45050D01*
X64843Y-45064D01*
X64857Y-45078D01*
X64871Y-45107D01*
X64871Y-45135D01*
X64857Y-45164D01*
X64843Y-45178D01*
X64814Y-45193D01*
X64757Y-45207D01*
X64686Y-45207D01*
X64629Y-45193D01*
X64600Y-45178D01*
X64586Y-45164D01*
X64571Y-45135D01*
X64600Y-44921D02*
X64586Y-44907D01*
X64571Y-44878D01*
X64571Y-44807D01*
X64586Y-44778D01*
X64600Y-44764D01*
X64629Y-44749D01*
X64657Y-44749D01*
X64700Y-44764D01*
X64871Y-44935D01*
X64871Y-44749D01*
X64871Y-44621D02*
X64571Y-44621D01*
X64757Y-44592D02*
X64871Y-44506D01*
X64671Y-44506D02*
X64786Y-44621D01*
X59200Y-50271D02*
X59100Y-50129D01*
X59028Y-50271D02*
X59028Y-49971D01*
X59143Y-49971D01*
X59171Y-49986D01*
X59186Y-50000D01*
X59200Y-50029D01*
X59200Y-50071D01*
X59186Y-50100D01*
X59171Y-50114D01*
X59143Y-50129D01*
X59028Y-50129D01*
X59300Y-49971D02*
X59500Y-49971D01*
X59371Y-50271D01*
X60321Y-49443D02*
X60321Y-49586D01*
X60464Y-49600D01*
X60450Y-49586D01*
X60436Y-49557D01*
X60436Y-49486D01*
X60450Y-49457D01*
X60464Y-49443D01*
X60493Y-49428D01*
X60564Y-49428D01*
X60593Y-49443D01*
X60607Y-49457D01*
X60621Y-49486D01*
X60621Y-49557D01*
X60607Y-49586D01*
X60593Y-49600D01*
X60321Y-49242D02*
X60321Y-49214D01*
X60336Y-49185D01*
X60350Y-49171D01*
X60379Y-49157D01*
X60436Y-49142D01*
X60507Y-49142D01*
X60564Y-49157D01*
X60593Y-49171D01*
X60607Y-49185D01*
X60621Y-49214D01*
X60621Y-49242D01*
X60607Y-49271D01*
X60593Y-49285D01*
X60564Y-49300D01*
X60507Y-49314D01*
X60436Y-49314D01*
X60379Y-49300D01*
X60350Y-49285D01*
X60336Y-49271D01*
X60321Y-49242D01*
X60621Y-49014D02*
X60321Y-49014D01*
X60507Y-48985D02*
X60621Y-48899D01*
X60421Y-48899D02*
X60536Y-49014D01*
X64307Y-48343D02*
X64293Y-48357D01*
X64250Y-48371D01*
X64221Y-48371D01*
X64178Y-48357D01*
X64150Y-48329D01*
X64135Y-48300D01*
X64121Y-48243D01*
X64121Y-48200D01*
X64135Y-48143D01*
X64150Y-48114D01*
X64178Y-48086D01*
X64221Y-48071D01*
X64250Y-48071D01*
X64293Y-48086D01*
X64307Y-48100D01*
X64593Y-48371D02*
X64421Y-48371D01*
X64507Y-48371D02*
X64507Y-48071D01*
X64478Y-48114D01*
X64450Y-48143D01*
X64421Y-48157D01*
X64850Y-48171D02*
X64850Y-48371D01*
X64779Y-48057D02*
X64707Y-48271D01*
X64893Y-48271D01*
X65321Y-47492D02*
X65321Y-47464D01*
X65336Y-47435D01*
X65350Y-47421D01*
X65379Y-47407D01*
X65436Y-47392D01*
X65507Y-47392D01*
X65564Y-47407D01*
X65593Y-47421D01*
X65607Y-47435D01*
X65621Y-47464D01*
X65621Y-47492D01*
X65607Y-47521D01*
X65593Y-47535D01*
X65564Y-47550D01*
X65507Y-47564D01*
X65436Y-47564D01*
X65379Y-47550D01*
X65350Y-47535D01*
X65336Y-47521D01*
X65321Y-47492D01*
X65593Y-47264D02*
X65607Y-47249D01*
X65621Y-47264D01*
X65607Y-47278D01*
X65593Y-47264D01*
X65621Y-47264D01*
X65621Y-46963D02*
X65621Y-47135D01*
X65621Y-47049D02*
X65321Y-47049D01*
X65364Y-47078D01*
X65393Y-47106D01*
X65407Y-47135D01*
X65421Y-46706D02*
X65621Y-46706D01*
X65421Y-46835D02*
X65579Y-46835D01*
X65607Y-46820D01*
X65621Y-46792D01*
X65621Y-46749D01*
X65607Y-46720D01*
X65593Y-46706D01*
X65464Y-46464D02*
X65464Y-46564D01*
X65621Y-46564D02*
X65321Y-46564D01*
X65321Y-46421D01*
X62307Y-48343D02*
X62293Y-48357D01*
X62250Y-48371D01*
X62221Y-48371D01*
X62178Y-48357D01*
X62150Y-48329D01*
X62135Y-48300D01*
X62121Y-48243D01*
X62121Y-48200D01*
X62135Y-48143D01*
X62150Y-48114D01*
X62178Y-48086D01*
X62221Y-48071D01*
X62250Y-48071D01*
X62293Y-48086D01*
X62307Y-48100D01*
X62593Y-48371D02*
X62421Y-48371D01*
X62507Y-48371D02*
X62507Y-48071D01*
X62478Y-48114D01*
X62450Y-48143D01*
X62421Y-48157D01*
X62707Y-48100D02*
X62721Y-48086D01*
X62750Y-48071D01*
X62821Y-48071D01*
X62850Y-48086D01*
X62864Y-48100D01*
X62879Y-48129D01*
X62879Y-48157D01*
X62864Y-48200D01*
X62693Y-48371D01*
X62879Y-48371D01*
X63321Y-47492D02*
X63321Y-47464D01*
X63336Y-47435D01*
X63350Y-47421D01*
X63379Y-47407D01*
X63436Y-47392D01*
X63507Y-47392D01*
X63564Y-47407D01*
X63593Y-47421D01*
X63607Y-47435D01*
X63621Y-47464D01*
X63621Y-47492D01*
X63607Y-47521D01*
X63593Y-47535D01*
X63564Y-47550D01*
X63507Y-47564D01*
X63436Y-47564D01*
X63379Y-47550D01*
X63350Y-47535D01*
X63336Y-47521D01*
X63321Y-47492D01*
X63593Y-47264D02*
X63607Y-47249D01*
X63621Y-47264D01*
X63607Y-47278D01*
X63593Y-47264D01*
X63621Y-47264D01*
X63621Y-46963D02*
X63621Y-47135D01*
X63621Y-47049D02*
X63321Y-47049D01*
X63364Y-47078D01*
X63393Y-47106D01*
X63407Y-47135D01*
X63421Y-46706D02*
X63621Y-46706D01*
X63421Y-46835D02*
X63579Y-46835D01*
X63607Y-46820D01*
X63621Y-46792D01*
X63621Y-46749D01*
X63607Y-46720D01*
X63593Y-46706D01*
X63464Y-46464D02*
X63464Y-46564D01*
X63621Y-46564D02*
X63321Y-46564D01*
X63321Y-46421D01*
G54D13*
X36762Y-43162D02*
X36628Y-42971D01*
X36533Y-43162D02*
X36533Y-42762D01*
X36686Y-42762D01*
X36724Y-42781D01*
X36743Y-42800D01*
X36762Y-42838D01*
X36762Y-42895D01*
X36743Y-42933D01*
X36724Y-42952D01*
X36686Y-42971D01*
X36533Y-42971D01*
X36876Y-42762D02*
X37009Y-43162D01*
X37143Y-42762D01*
X37486Y-43162D02*
X37257Y-43162D01*
X37371Y-43162D02*
X37371Y-42762D01*
X37333Y-42819D01*
X37295Y-42857D01*
X37257Y-42876D01*
G54D15*
X42743Y-44857D02*
X42743Y-45200D01*
X42743Y-45028D02*
X42143Y-45028D01*
X42229Y-45085D01*
X42286Y-45143D01*
X42314Y-45200D01*
X42143Y-44486D02*
X42143Y-44429D01*
X42171Y-44372D01*
X42200Y-44343D01*
X42257Y-44314D01*
X42371Y-44286D01*
X42514Y-44286D01*
X42629Y-44314D01*
X42686Y-44343D01*
X42714Y-44372D01*
X42743Y-44429D01*
X42743Y-44486D01*
X42714Y-44543D01*
X42686Y-44572D01*
X42629Y-44600D01*
X42514Y-44629D01*
X42371Y-44629D01*
X42257Y-44600D01*
X42200Y-44572D01*
X42171Y-44543D01*
X42143Y-44486D01*
X42743Y-44029D02*
X42143Y-44029D01*
X42514Y-43972D02*
X42743Y-43801D01*
X42343Y-43801D02*
X42571Y-44029D01*
G54D13*
X54762Y-51412D02*
X54628Y-51221D01*
X54533Y-51412D02*
X54533Y-51012D01*
X54686Y-51012D01*
X54724Y-51031D01*
X54743Y-51050D01*
X54762Y-51088D01*
X54762Y-51145D01*
X54743Y-51183D01*
X54724Y-51202D01*
X54686Y-51221D01*
X54533Y-51221D01*
X54876Y-51012D02*
X55009Y-51412D01*
X55143Y-51012D01*
X55257Y-51050D02*
X55276Y-51031D01*
X55314Y-51012D01*
X55410Y-51012D01*
X55448Y-51031D01*
X55467Y-51050D01*
X55486Y-51088D01*
X55486Y-51126D01*
X55467Y-51183D01*
X55238Y-51412D01*
X55486Y-51412D01*
G54D15*
X55743Y-44857D02*
X55743Y-45200D01*
X55743Y-45028D02*
X55143Y-45028D01*
X55229Y-45085D01*
X55286Y-45143D01*
X55314Y-45200D01*
X55143Y-44486D02*
X55143Y-44429D01*
X55171Y-44372D01*
X55200Y-44343D01*
X55257Y-44314D01*
X55371Y-44286D01*
X55514Y-44286D01*
X55629Y-44314D01*
X55686Y-44343D01*
X55714Y-44372D01*
X55743Y-44429D01*
X55743Y-44486D01*
X55714Y-44543D01*
X55686Y-44572D01*
X55629Y-44600D01*
X55514Y-44629D01*
X55371Y-44629D01*
X55257Y-44600D01*
X55200Y-44572D01*
X55171Y-44543D01*
X55143Y-44486D01*
X55743Y-44029D02*
X55143Y-44029D01*
X55514Y-43972D02*
X55743Y-43801D01*
X55343Y-43801D02*
X55571Y-44029D01*
G54D13*
X34205Y-39912D02*
X34205Y-39512D01*
X34358Y-39512D01*
X34396Y-39531D01*
X34415Y-39550D01*
X34434Y-39588D01*
X34434Y-39645D01*
X34415Y-39683D01*
X34396Y-39702D01*
X34358Y-39721D01*
X34205Y-39721D01*
X34567Y-39512D02*
X34815Y-39512D01*
X34681Y-39664D01*
X34739Y-39664D01*
X34777Y-39683D01*
X34796Y-39702D01*
X34815Y-39740D01*
X34815Y-39836D01*
X34796Y-39874D01*
X34777Y-39893D01*
X34739Y-39912D01*
X34624Y-39912D01*
X34586Y-39893D01*
X34567Y-39874D01*
G54D15*
X34679Y-37107D02*
X34707Y-37021D01*
X34736Y-36993D01*
X34793Y-36964D01*
X34879Y-36964D01*
X34936Y-36993D01*
X34964Y-37021D01*
X34993Y-37079D01*
X34993Y-37307D01*
X34393Y-37307D01*
X34393Y-37107D01*
X34421Y-37050D01*
X34450Y-37021D01*
X34507Y-36993D01*
X34564Y-36993D01*
X34621Y-37021D01*
X34650Y-37050D01*
X34679Y-37107D01*
X34679Y-37307D01*
X34993Y-36707D02*
X34393Y-36707D01*
X34993Y-36364D01*
X34393Y-36364D01*
X34936Y-35735D02*
X34964Y-35764D01*
X34993Y-35850D01*
X34993Y-35907D01*
X34964Y-35992D01*
X34907Y-36050D01*
X34850Y-36078D01*
X34736Y-36107D01*
X34650Y-36107D01*
X34536Y-36078D01*
X34479Y-36050D01*
X34421Y-35992D01*
X34393Y-35907D01*
X34393Y-35850D01*
X34421Y-35764D01*
X34450Y-35735D01*
X34393Y-35364D02*
X34393Y-35307D01*
X34421Y-35250D01*
X34450Y-35221D01*
X34507Y-35192D01*
X34621Y-35164D01*
X34764Y-35164D01*
X34879Y-35192D01*
X34936Y-35221D01*
X34964Y-35250D01*
X34993Y-35307D01*
X34993Y-35364D01*
X34964Y-35421D01*
X34936Y-35450D01*
X34879Y-35478D01*
X34764Y-35507D01*
X34621Y-35507D01*
X34507Y-35478D01*
X34450Y-35450D01*
X34421Y-35421D01*
X34393Y-35364D01*
G54D13*
X34205Y-43912D02*
X34205Y-43512D01*
X34358Y-43512D01*
X34396Y-43531D01*
X34415Y-43550D01*
X34434Y-43588D01*
X34434Y-43645D01*
X34415Y-43683D01*
X34396Y-43702D01*
X34358Y-43721D01*
X34205Y-43721D01*
X34777Y-43645D02*
X34777Y-43912D01*
X34681Y-43493D02*
X34586Y-43779D01*
X34834Y-43779D01*
G54D15*
X34679Y-48107D02*
X34707Y-48021D01*
X34736Y-47993D01*
X34793Y-47964D01*
X34879Y-47964D01*
X34936Y-47993D01*
X34964Y-48021D01*
X34993Y-48079D01*
X34993Y-48307D01*
X34393Y-48307D01*
X34393Y-48107D01*
X34421Y-48050D01*
X34450Y-48021D01*
X34507Y-47993D01*
X34564Y-47993D01*
X34621Y-48021D01*
X34650Y-48050D01*
X34679Y-48107D01*
X34679Y-48307D01*
X34993Y-47707D02*
X34393Y-47707D01*
X34993Y-47364D01*
X34393Y-47364D01*
X34936Y-46735D02*
X34964Y-46764D01*
X34993Y-46850D01*
X34993Y-46907D01*
X34964Y-46992D01*
X34907Y-47050D01*
X34850Y-47078D01*
X34736Y-47107D01*
X34650Y-47107D01*
X34536Y-47078D01*
X34479Y-47050D01*
X34421Y-46992D01*
X34393Y-46907D01*
X34393Y-46850D01*
X34421Y-46764D01*
X34450Y-46735D01*
X34993Y-46164D02*
X34993Y-46507D01*
X34993Y-46335D02*
X34393Y-46335D01*
X34479Y-46392D01*
X34536Y-46450D01*
X34564Y-46507D01*
G54D13*
X46195Y-47012D02*
X46195Y-47336D01*
X46214Y-47374D01*
X46233Y-47393D01*
X46271Y-47412D01*
X46348Y-47412D01*
X46386Y-47393D01*
X46405Y-47374D01*
X46424Y-47336D01*
X46424Y-47012D01*
X46824Y-47412D02*
X46595Y-47412D01*
X46709Y-47412D02*
X46709Y-47012D01*
X46671Y-47069D01*
X46633Y-47107D01*
X46595Y-47126D01*
G54D15*
X44701Y-44243D02*
X44415Y-44243D01*
X44415Y-43643D01*
X44901Y-44243D02*
X44901Y-43643D01*
X45101Y-44071D01*
X45301Y-43643D01*
X45301Y-44243D01*
X45844Y-43643D02*
X45730Y-43643D01*
X45673Y-43671D01*
X45644Y-43700D01*
X45587Y-43786D01*
X45558Y-43900D01*
X45558Y-44129D01*
X45587Y-44186D01*
X45615Y-44214D01*
X45673Y-44243D01*
X45787Y-44243D01*
X45844Y-44214D01*
X45873Y-44186D01*
X45901Y-44129D01*
X45901Y-43986D01*
X45873Y-43929D01*
X45844Y-43900D01*
X45787Y-43871D01*
X45673Y-43871D01*
X45615Y-43900D01*
X45587Y-43929D01*
X45558Y-43986D01*
X46472Y-44243D02*
X46129Y-44243D01*
X46301Y-44243D02*
X46301Y-43643D01*
X46244Y-43729D01*
X46186Y-43786D01*
X46129Y-43814D01*
X46672Y-43643D02*
X47072Y-43643D01*
X46815Y-44243D01*
X47271Y-43700D02*
X47300Y-43671D01*
X47357Y-43643D01*
X47500Y-43643D01*
X47557Y-43671D01*
X47586Y-43700D01*
X47614Y-43757D01*
X47614Y-43814D01*
X47586Y-43900D01*
X47243Y-44243D01*
X47614Y-44243D01*
G54D13*
X45195Y-47512D02*
X45195Y-47836D01*
X45214Y-47874D01*
X45233Y-47893D01*
X45271Y-47912D01*
X45348Y-47912D01*
X45386Y-47893D01*
X45405Y-47874D01*
X45424Y-47836D01*
X45424Y-47512D01*
X45595Y-47550D02*
X45614Y-47531D01*
X45652Y-47512D01*
X45748Y-47512D01*
X45786Y-47531D01*
X45805Y-47550D01*
X45824Y-47588D01*
X45824Y-47626D01*
X45805Y-47683D01*
X45576Y-47912D01*
X45824Y-47912D01*
G54D15*
X44701Y-51321D02*
X44987Y-51321D01*
X44644Y-51493D02*
X44844Y-50893D01*
X45044Y-51493D01*
X45244Y-51493D02*
X45244Y-50893D01*
X45387Y-50893D01*
X45472Y-50921D01*
X45530Y-50979D01*
X45558Y-51036D01*
X45587Y-51150D01*
X45587Y-51236D01*
X45558Y-51350D01*
X45530Y-51407D01*
X45472Y-51464D01*
X45387Y-51493D01*
X45244Y-51493D01*
X45787Y-50893D02*
X46187Y-50893D01*
X45930Y-51493D01*
X46443Y-51493D02*
X46558Y-51493D01*
X46615Y-51464D01*
X46643Y-51436D01*
X46701Y-51350D01*
X46729Y-51236D01*
X46729Y-51007D01*
X46701Y-50950D01*
X46672Y-50921D01*
X46615Y-50893D01*
X46501Y-50893D01*
X46443Y-50921D01*
X46415Y-50950D01*
X46386Y-51007D01*
X46386Y-51150D01*
X46415Y-51207D01*
X46443Y-51236D01*
X46501Y-51264D01*
X46615Y-51264D01*
X46672Y-51236D01*
X46701Y-51207D01*
X46729Y-51150D01*
X47100Y-50893D02*
X47157Y-50893D01*
X47214Y-50921D01*
X47243Y-50950D01*
X47272Y-51007D01*
X47300Y-51121D01*
X47300Y-51264D01*
X47272Y-51379D01*
X47243Y-51436D01*
X47214Y-51464D01*
X47157Y-51493D01*
X47100Y-51493D01*
X47043Y-51464D01*
X47014Y-51436D01*
X46986Y-51379D01*
X46957Y-51264D01*
X46957Y-51121D01*
X46986Y-51007D01*
X47014Y-50950D01*
X47043Y-50921D01*
X47100Y-50893D01*
G54D13*
X66393Y-38533D02*
X66412Y-38476D01*
X66412Y-38380D01*
X66393Y-38342D01*
X66374Y-38323D01*
X66336Y-38304D01*
X66298Y-38304D01*
X66260Y-38323D01*
X66240Y-38342D01*
X66221Y-38380D01*
X66202Y-38457D01*
X66183Y-38495D01*
X66164Y-38514D01*
X66126Y-38533D01*
X66088Y-38533D01*
X66050Y-38514D01*
X66031Y-38495D01*
X66012Y-38457D01*
X66012Y-38361D01*
X66031Y-38304D01*
X66012Y-38171D02*
X66412Y-38076D01*
X66126Y-37999D01*
X66412Y-37923D01*
X66012Y-37828D01*
X66412Y-37466D02*
X66412Y-37695D01*
X66412Y-37581D02*
X66012Y-37581D01*
X66069Y-37619D01*
X66107Y-37657D01*
X66126Y-37695D01*
X61393Y-38533D02*
X61412Y-38476D01*
X61412Y-38380D01*
X61393Y-38342D01*
X61374Y-38323D01*
X61336Y-38304D01*
X61298Y-38304D01*
X61260Y-38323D01*
X61240Y-38342D01*
X61221Y-38380D01*
X61202Y-38457D01*
X61183Y-38495D01*
X61164Y-38514D01*
X61126Y-38533D01*
X61088Y-38533D01*
X61050Y-38514D01*
X61031Y-38495D01*
X61012Y-38457D01*
X61012Y-38361D01*
X61031Y-38304D01*
X61012Y-38171D02*
X61412Y-38076D01*
X61126Y-37999D01*
X61412Y-37923D01*
X61012Y-37828D01*
X61050Y-37695D02*
X61031Y-37676D01*
X61012Y-37638D01*
X61012Y-37542D01*
X61031Y-37504D01*
X61050Y-37485D01*
X61088Y-37466D01*
X61126Y-37466D01*
X61183Y-37485D01*
X61412Y-37714D01*
X61412Y-37466D01*
X65455Y-52162D02*
X65455Y-51762D01*
X65608Y-51762D01*
X65646Y-51781D01*
X65665Y-51800D01*
X65684Y-51838D01*
X65684Y-51895D01*
X65665Y-51933D01*
X65646Y-51952D01*
X65608Y-51971D01*
X65455Y-51971D01*
X65874Y-52162D02*
X65950Y-52162D01*
X65989Y-52143D01*
X66008Y-52124D01*
X66046Y-52067D01*
X66065Y-51990D01*
X66065Y-51838D01*
X66046Y-51800D01*
X66027Y-51781D01*
X65989Y-51762D01*
X65912Y-51762D01*
X65874Y-51781D01*
X65855Y-51800D01*
X65836Y-51838D01*
X65836Y-51933D01*
X65855Y-51971D01*
X65874Y-51990D01*
X65912Y-52010D01*
X65989Y-52010D01*
X66027Y-51990D01*
X66046Y-51971D01*
X66065Y-51933D01*
%LPC*%
G54D16*
X71090Y-44270D03*
X71090Y-39230D03*
G54D17*
X69170Y-43520D03*
X69170Y-39980D03*
X69170Y-42815D03*
G54D18*
X69170Y-40685D03*
G54D16*
X70820Y-41750D03*
G54D19*
X30750Y-51750D03*
X70750Y-31750D03*
X30750Y-31750D03*
X70750Y-51750D03*
G54D20*
X44500Y-42500D03*
X43500Y-42500D03*
X40500Y-42500D03*
X39500Y-42500D03*
X47500Y-42500D03*
X48500Y-42500D03*
X51500Y-42500D03*
X52500Y-42500D03*
X38500Y-33500D03*
X39500Y-33500D03*
X40500Y-33500D03*
X41500Y-33500D03*
X42500Y-33500D03*
X43500Y-33500D03*
X44500Y-33500D03*
X45500Y-33500D03*
X46500Y-33500D03*
X47500Y-33500D03*
X48500Y-33500D03*
X49500Y-33500D03*
G54D21*
X57250Y-44500D03*
X57250Y-45000D03*
X57250Y-45500D03*
X57250Y-46000D03*
X57250Y-46500D03*
X57250Y-47000D03*
X57250Y-47500D03*
X57250Y-48000D03*
X61250Y-48000D03*
X61250Y-47500D03*
X61250Y-47000D03*
X61250Y-46500D03*
X61250Y-46000D03*
X61250Y-45500D03*
X61250Y-45000D03*
X61250Y-44500D03*
G54D22*
X59850Y-43250D03*
X58650Y-43250D03*
X64100Y-45000D03*
X62900Y-45000D03*
X59850Y-49250D03*
X58650Y-49250D03*
G54D23*
X64500Y-47600D03*
X64500Y-46400D03*
X62500Y-47600D03*
X62500Y-46400D03*
G54D24*
X41670Y-48000D03*
X37330Y-48000D03*
G54D25*
X39500Y-44060D03*
X40980Y-44060D03*
X38020Y-44060D03*
G54D24*
X54670Y-48000D03*
X50330Y-48000D03*
G54D25*
X52500Y-44060D03*
X53980Y-44060D03*
X51020Y-44060D03*
G54D26*
X30930Y-41750D03*
G54D27*
X32110Y-41750D03*
G54D19*
X34470Y-41750D03*
G54D27*
X31720Y-39980D03*
X31720Y-43520D03*
G54D28*
X30750Y-38250D03*
X30750Y-34250D03*
G54D29*
X32750Y-36250D03*
G54D30*
X32750Y-37250D03*
G54D28*
X34750Y-38250D03*
X30750Y-49250D03*
X30750Y-45250D03*
G54D29*
X32750Y-47250D03*
G54D30*
X32750Y-48250D03*
G54D28*
X34750Y-49250D03*
G54D31*
X37000Y-39000D03*
X37000Y-37000D03*
X55000Y-34000D03*
X55000Y-36000D03*
X55000Y-39000D03*
X55000Y-42000D03*
G54D21*
X44800Y-45000D03*
X44800Y-45500D03*
X44800Y-46000D03*
X44800Y-46500D03*
X47200Y-46500D03*
X47200Y-46000D03*
X47200Y-45500D03*
X47200Y-45000D03*
X44800Y-48500D03*
X44800Y-49000D03*
X44800Y-49500D03*
X44800Y-50000D03*
X47200Y-50000D03*
X47200Y-49500D03*
X47200Y-49000D03*
X47200Y-48500D03*
G54D32*
X63720Y-39000D03*
X63720Y-38000D03*
X63720Y-37000D03*
X65780Y-39000D03*
X65780Y-37000D03*
X58720Y-39000D03*
X58720Y-38000D03*
X58720Y-37000D03*
X60780Y-39000D03*
X60780Y-37000D03*
G54D33*
X67250Y-50500D03*
X66250Y-50500D03*
G54D34*
X68250Y-50500D03*
G54D33*
X65250Y-50500D03*
X64250Y-50500D03*
X63250Y-50500D03*
M02*
