M48
;DRILL file {PCBnew (2011-05-25)-stable} date Wed 30 Oct 2013 01:58:13 PM EDT
;FORMAT={2:4/ absolute / inch / suppress trailing zeros}
FMAT,2
INCH,LZ
T1C0.025
T2C0.035
T3C0.036
T4C0.040
T5C0.043
T6C0.051
T7C0.063
T8C0.079
T9C0.086
T10C0.087
T11C0.106
T12C0.120
T13C0.123
T14C0.124
%
G90
G05
M72
T1
X044639Y-047
X047281Y-047715
X049208Y-046402
X056612Y-042527
X058265Y-047481
X058411Y-046656
X060096Y-036566
X065633Y-045883
T2
X03275Y-03625
X03275Y-03725
X03275Y-04725
X03275Y-04825
X06917Y-03998
X06917Y-040685
X06917Y-042815
X06917Y-04352
T3
X042908Y-045641
X043514Y-048055
X044788Y-047582
X046539Y-045
X047934Y-04925
X053187Y-041534
X061913Y-047003
X066888Y-039618
T4
X0385Y-0335
X0395Y-0335
X0395Y-0425
X0405Y-0335
X0405Y-0425
X0415Y-0335
X0425Y-0335
X0435Y-0335
X0435Y-0425
X0445Y-0335
X0445Y-0425
X0455Y-0335
X0465Y-0335
X0475Y-0335
X0475Y-0425
X0485Y-0335
X0485Y-0425
X0495Y-0335
X0515Y-0425
X0525Y-0425
T5
X06325Y-0505
X06425Y-0505
X06525Y-0505
X06625Y-0505
X06725Y-0505
X06825Y-0505
T6
X03802Y-04406
X0395Y-04406
X04098Y-04406
X05102Y-04406
X0525Y-04406
X05398Y-04406
T7
X03093Y-04175
T8
X03075Y-03425
X03075Y-03825
X03075Y-04525
X03075Y-04925
X03475Y-03825
X03475Y-04925
T9
X037Y-037
X037Y-039
X055Y-034
X055Y-036
X055Y-039
X055Y-042
T10
X07082Y-04175
X07109Y-03923
X07109Y-04427
T11
X03172Y-03998
X03172Y-04352
X03211Y-04175
T12
X03075Y-03175
X03075Y-05175
X07075Y-03175
X07075Y-05175
T13
X03733Y-048
X04167Y-048
X05033Y-048
X05467Y-048
T14
X03447Y-04175
T0
M30
