M48
;DRILL file {PCBnew (20090216-final)} date Mon 26 Oct 2009 16:49:34 PDT
;FORMAT={2:4/ absolute / inch / suppress trailing zeros}
R,T
VER,1
FMAT,2
INCH,LZ
TCST,OFF
ICI,OFF
ATC,ON
T1C0.025
T2C0.035
T3C0.036
T4C0.040
T5C0.087
T6C0.122
%
M47
G05
M72
T1
X052123Y-04103
X052726Y-037895
X053658Y-040757
X054418Y-042623
X055468Y-04203
X055805Y-038488
X05592Y-04056
X057309Y-037702
X057651Y-042874
T2
X05323Y-04701
X053935Y-04701
X056065Y-04701
X05677Y-04701
T3
X0535Y-03566
X0535Y-03666
X0535Y-03766
X0535Y-03866
X054Y-04394
X055Y-04494
X056Y-04394
X0565Y-03566
X0565Y-03666
X0565Y-03766
X0565Y-03866
T4
X05805Y-038
X05805Y-039
X05805Y-041
X05805Y-042
X05805Y-044
X05805Y-045
T5
X05248Y-04893
X055Y-04866
X05752Y-04893
T6
X052188Y-03615
X057813Y-03615
T0
M30
