G04 (created by PCBNEW-RS274X (2011-05-25)-stable) date Wed 18 Sep 2013 05:27:13 PM EDT*
G01*
G70*
G90*
%MOIN*%
G04 Gerber Fmt 3.4, Leading zero omitted, Abs format*
%FSLAX34Y34*%
G04 APERTURE LIST*
%ADD10C,0.006000*%
%ADD11C,0.009000*%
%ADD12C,0.107000*%
%ADD13C,0.056000*%
%ADD14R,0.056000X0.056000*%
%ADD15C,0.160000*%
%ADD16C,0.060000*%
%ADD17R,0.060000X0.025000*%
%ADD18C,0.080000*%
%ADD19R,0.050000X0.100000*%
%ADD20R,0.100000X0.050000*%
%ADD21C,0.200000*%
%ADD22C,0.076000*%
%ADD23C,0.140000*%
%ADD24C,0.120000*%
%ADD25R,0.065000X0.065000*%
%ADD26C,0.065000*%
%ADD27C,0.073000*%
%ADD28R,0.073000X0.073000*%
%ADD29C,0.046000*%
%ADD30C,0.035000*%
%ADD31C,0.036000*%
%ADD32C,0.024000*%
%ADD33C,0.010000*%
G04 APERTURE END LIST*
G54D10*
G54D11*
X29500Y-30500D02*
X29500Y-53000D01*
X72000Y-30500D02*
X29500Y-30500D01*
X72000Y-53000D02*
X72000Y-30500D01*
X29500Y-53000D02*
X72000Y-53000D01*
G54D12*
X71090Y-44270D03*
X71090Y-39230D03*
G54D13*
X69170Y-43520D03*
X69170Y-39980D03*
X69170Y-42815D03*
G54D14*
X69170Y-40685D03*
G54D12*
X70820Y-41750D03*
G54D15*
X30750Y-51750D03*
X40750Y-51750D03*
X30750Y-31750D03*
X60750Y-51750D03*
X70750Y-31750D03*
X70750Y-51750D03*
G54D16*
X44500Y-42500D03*
X43500Y-42500D03*
X40500Y-42500D03*
X39500Y-42500D03*
X47500Y-42500D03*
X48500Y-42500D03*
X51500Y-42500D03*
X52500Y-42500D03*
X38500Y-33500D03*
X39500Y-33500D03*
X40500Y-33500D03*
X41500Y-33500D03*
X42500Y-33500D03*
X43500Y-33500D03*
X44500Y-33500D03*
X45500Y-33500D03*
X46500Y-33500D03*
X47500Y-33500D03*
X48500Y-33500D03*
X49500Y-33500D03*
G54D17*
X57250Y-44500D03*
X57250Y-45000D03*
X57250Y-45500D03*
X57250Y-46000D03*
X57250Y-46500D03*
X57250Y-47000D03*
X57250Y-47500D03*
X57250Y-48000D03*
X61250Y-48000D03*
X61250Y-47500D03*
X61250Y-47000D03*
X61250Y-46500D03*
X61250Y-46000D03*
X61250Y-45500D03*
X61250Y-45000D03*
X61250Y-44500D03*
G54D18*
X37000Y-39000D03*
X37000Y-37000D03*
X55000Y-34000D03*
X55000Y-36000D03*
X55000Y-39000D03*
X55000Y-42000D03*
G54D17*
X44000Y-48500D03*
X44000Y-49000D03*
X44000Y-49500D03*
X44000Y-50000D03*
X48000Y-50000D03*
X48000Y-49500D03*
X48000Y-49000D03*
X48000Y-48500D03*
G54D19*
X59850Y-43250D03*
X58650Y-43250D03*
X63850Y-45250D03*
X62650Y-45250D03*
X59850Y-49250D03*
X58650Y-49250D03*
G54D20*
X64000Y-47600D03*
X64000Y-46400D03*
X62500Y-47600D03*
X62500Y-46400D03*
G54D21*
X41670Y-48000D03*
X37330Y-48000D03*
G54D18*
X39500Y-44060D03*
X40980Y-44060D03*
X38020Y-44060D03*
G54D21*
X54670Y-48000D03*
X50330Y-48000D03*
G54D18*
X52500Y-44060D03*
X53980Y-44060D03*
X51020Y-44060D03*
G54D15*
X40750Y-31750D03*
G54D22*
X30930Y-41750D03*
G54D23*
X32110Y-41750D03*
G54D15*
X34470Y-41750D03*
G54D23*
X31720Y-39980D03*
X31720Y-43520D03*
G54D24*
X30750Y-38250D03*
X30750Y-34250D03*
G54D25*
X32750Y-36250D03*
G54D26*
X32750Y-37250D03*
G54D24*
X34750Y-38250D03*
X30750Y-49250D03*
X30750Y-45250D03*
G54D25*
X32750Y-47250D03*
G54D26*
X32750Y-48250D03*
G54D24*
X34750Y-49250D03*
G54D17*
X44000Y-45000D03*
X44000Y-45500D03*
X44000Y-46000D03*
X44000Y-46500D03*
X48000Y-46500D03*
X48000Y-46000D03*
X48000Y-45500D03*
X48000Y-45000D03*
G54D27*
X66750Y-50500D03*
X65750Y-50500D03*
G54D28*
X67750Y-50500D03*
G54D27*
X64750Y-50500D03*
X63750Y-50500D03*
G54D15*
X60750Y-31750D03*
G54D29*
X44831Y-49000D03*
X44125Y-46996D03*
X47364Y-49500D03*
G54D30*
X59315Y-45061D03*
X65610Y-40725D03*
X46524Y-50400D03*
X56660Y-46000D03*
X49062Y-46548D03*
X47070Y-48371D03*
G54D29*
X43296Y-49250D03*
X47300Y-45000D03*
X64140Y-47000D03*
G54D31*
X44831Y-49000D02*
X44000Y-49000D01*
X39446Y-34446D02*
X38500Y-33500D01*
X47446Y-34446D02*
X39446Y-34446D01*
X55000Y-42000D02*
X47446Y-34446D01*
X61600Y-47500D02*
X61250Y-47500D01*
X61700Y-47600D02*
X61600Y-47500D01*
X62500Y-47600D02*
X61700Y-47600D01*
X44125Y-46996D02*
X44214Y-46907D01*
X44214Y-46714D02*
X44000Y-46500D01*
X44214Y-46907D02*
X44214Y-46714D01*
X44771Y-46907D02*
X47364Y-49500D01*
X44214Y-46907D02*
X44771Y-46907D01*
X47364Y-49500D02*
X48000Y-49500D01*
X60650Y-47500D02*
X61250Y-47500D01*
X60650Y-48450D02*
X60650Y-47500D01*
X60779Y-48579D02*
X60650Y-48450D01*
X64746Y-48579D02*
X60779Y-48579D01*
X66332Y-46993D02*
X64746Y-48579D01*
X66332Y-39980D02*
X66332Y-46993D01*
X58980Y-39980D02*
X66332Y-39980D01*
X55000Y-36000D02*
X58980Y-39980D01*
X66332Y-39980D02*
X69170Y-39980D01*
G54D32*
X66750Y-44395D02*
X66750Y-50500D01*
X70331Y-40814D02*
X66750Y-44395D01*
X70331Y-39439D02*
X70331Y-40814D01*
X63666Y-32774D02*
X70331Y-39439D01*
X36791Y-32774D02*
X63666Y-32774D01*
X33315Y-36250D02*
X36791Y-32774D01*
X32750Y-36250D02*
X33315Y-36250D01*
X58650Y-45726D02*
X58650Y-49250D01*
X59315Y-45061D02*
X58650Y-45726D01*
X40676Y-41324D02*
X39500Y-42500D01*
X52674Y-41324D02*
X40676Y-41324D01*
X54077Y-42727D02*
X52674Y-41324D01*
X55250Y-42727D02*
X54077Y-42727D01*
X57252Y-40725D02*
X55250Y-42727D01*
X65610Y-40725D02*
X57252Y-40725D01*
X57250Y-47500D02*
X56980Y-47500D01*
X56805Y-47000D02*
X57250Y-47000D01*
X56805Y-47325D02*
X56805Y-47000D01*
X56980Y-47500D02*
X56805Y-47325D01*
X56726Y-47754D02*
X56980Y-47500D01*
X56726Y-48538D02*
X56726Y-47754D01*
X58162Y-49974D02*
X56726Y-48538D01*
X63161Y-49974D02*
X58162Y-49974D01*
X63541Y-49594D02*
X63161Y-49974D01*
X64844Y-49594D02*
X63541Y-49594D01*
X65750Y-50500D02*
X64844Y-49594D01*
X51060Y-45500D02*
X48000Y-45500D01*
X52500Y-44060D02*
X51060Y-45500D01*
X44940Y-50400D02*
X46524Y-50400D01*
X44540Y-50000D02*
X44940Y-50400D01*
X44000Y-50000D02*
X44540Y-50000D01*
X45238Y-48500D02*
X44087Y-48500D01*
X47238Y-50500D02*
X45238Y-48500D01*
X63750Y-50500D02*
X47238Y-50500D01*
X42872Y-43128D02*
X43500Y-42500D01*
X39467Y-43128D02*
X42872Y-43128D01*
X38850Y-43745D02*
X39467Y-43128D01*
X38850Y-46776D02*
X38850Y-43745D01*
X36539Y-46776D02*
X38850Y-46776D01*
X36065Y-47250D02*
X36539Y-46776D01*
X32750Y-47250D02*
X36065Y-47250D01*
X42363Y-46776D02*
X44087Y-48500D01*
X38850Y-46776D02*
X42363Y-46776D01*
X44000Y-48500D02*
X44087Y-48500D01*
G54D31*
X37000Y-37419D02*
X37000Y-37000D01*
X34470Y-39949D02*
X37000Y-37419D01*
X34470Y-41750D02*
X34470Y-39949D01*
X32750Y-49750D02*
X30750Y-51750D01*
X32750Y-48250D02*
X32750Y-49750D01*
X45084Y-41916D02*
X44500Y-42500D01*
X47916Y-41916D02*
X45084Y-41916D01*
X48500Y-42500D02*
X47916Y-41916D01*
X67750Y-50500D02*
X67750Y-51750D01*
X52500Y-42500D02*
X53308Y-43308D01*
X53240Y-43376D02*
X53308Y-43308D01*
X53240Y-44840D02*
X53240Y-43376D01*
X52007Y-46073D02*
X53240Y-44840D01*
X50220Y-46073D02*
X52007Y-46073D01*
X48374Y-47919D02*
X50220Y-46073D01*
X48374Y-48500D02*
X48374Y-47919D01*
X48000Y-48500D02*
X48374Y-48500D01*
X48600Y-50000D02*
X48000Y-50000D01*
X48600Y-48726D02*
X48600Y-50000D01*
X48374Y-48500D02*
X48600Y-48726D01*
X55937Y-43308D02*
X56620Y-43991D01*
X53308Y-43308D02*
X55937Y-43308D01*
X56650Y-45000D02*
X57250Y-45000D01*
X56620Y-44970D02*
X56650Y-45000D01*
X56620Y-43991D02*
X56620Y-44970D01*
X64000Y-46400D02*
X63200Y-46400D01*
X63200Y-44472D02*
X63200Y-46400D01*
X63096Y-44368D02*
X63200Y-44472D01*
X61929Y-44368D02*
X63096Y-44368D01*
X61929Y-44149D02*
X61929Y-44368D01*
X60246Y-42466D02*
X61929Y-44149D01*
X58145Y-42466D02*
X60246Y-42466D01*
X56620Y-43991D02*
X58145Y-42466D01*
X61734Y-45000D02*
X61250Y-45000D01*
X61929Y-44805D02*
X61734Y-45000D01*
X61929Y-44368D02*
X61929Y-44805D01*
X62500Y-46400D02*
X63200Y-46400D01*
X61600Y-46500D02*
X61250Y-46500D01*
X61700Y-46400D02*
X61600Y-46500D01*
X62500Y-46400D02*
X61700Y-46400D01*
X70750Y-51750D02*
X67750Y-51750D01*
X67750Y-51750D02*
X60750Y-51750D01*
G54D32*
X57790Y-46500D02*
X57250Y-46500D01*
X57790Y-44500D02*
X57790Y-46500D01*
X57250Y-44500D02*
X57790Y-44500D01*
X57250Y-46000D02*
X56660Y-46000D01*
X61910Y-45500D02*
X61250Y-45500D01*
X62160Y-45250D02*
X61910Y-45500D01*
X62650Y-45250D02*
X62160Y-45250D01*
X59850Y-46770D02*
X59850Y-49250D01*
X60620Y-46000D02*
X59850Y-46770D01*
X61250Y-46000D02*
X60620Y-46000D01*
X61324Y-48074D02*
X61250Y-48000D01*
X64679Y-48074D02*
X61324Y-48074D01*
X64724Y-48029D02*
X64679Y-48074D01*
X64724Y-45634D02*
X64724Y-48029D01*
X64340Y-45250D02*
X64724Y-45634D01*
X63850Y-45250D02*
X64340Y-45250D01*
X58160Y-43250D02*
X58650Y-43250D01*
X58160Y-47630D02*
X58160Y-43250D01*
X57790Y-48000D02*
X58160Y-47630D01*
X57250Y-48000D02*
X57790Y-48000D01*
X48588Y-46548D02*
X49062Y-46548D01*
X48540Y-46500D02*
X48588Y-46548D01*
X48000Y-46500D02*
X48540Y-46500D01*
X41440Y-46000D02*
X39500Y-44060D01*
X44000Y-46000D02*
X41440Y-46000D01*
X44540Y-45000D02*
X44540Y-45500D01*
X44000Y-45000D02*
X44540Y-45000D01*
X45040Y-46000D02*
X44540Y-45500D01*
X48000Y-46000D02*
X45040Y-46000D01*
X44000Y-45500D02*
X44540Y-45500D01*
X47460Y-48761D02*
X47070Y-48371D01*
X47460Y-49000D02*
X47460Y-48761D01*
X48000Y-49000D02*
X47460Y-49000D01*
X60710Y-44500D02*
X61250Y-44500D01*
X60710Y-43620D02*
X60710Y-44500D01*
X60340Y-43250D02*
X60710Y-43620D01*
X59850Y-43250D02*
X60340Y-43250D01*
G54D31*
X43400Y-49354D02*
X43296Y-49250D01*
X43400Y-49500D02*
X43400Y-49354D01*
X44000Y-49500D02*
X43400Y-49500D01*
X48000Y-45000D02*
X47300Y-45000D01*
X64140Y-47000D02*
X64000Y-47140D01*
X64018Y-34000D02*
X55000Y-34000D01*
X69750Y-39732D02*
X64018Y-34000D01*
X69750Y-40685D02*
X69750Y-39732D01*
X69170Y-40685D02*
X69750Y-40685D01*
X64000Y-47600D02*
X64000Y-47140D01*
X63950Y-47000D02*
X61250Y-47000D01*
X64000Y-47050D02*
X63950Y-47000D01*
X64000Y-47140D02*
X64000Y-47050D01*
G54D10*
G36*
X41311Y-34016D02*
X40673Y-34016D01*
X40781Y-33972D01*
X40808Y-33878D01*
X40500Y-33571D01*
X40192Y-33878D01*
X40219Y-33972D01*
X40344Y-34016D01*
X39688Y-34016D01*
X39811Y-33965D01*
X39965Y-33811D01*
X40002Y-33719D01*
X40028Y-33781D01*
X40122Y-33808D01*
X40394Y-33535D01*
X40429Y-33500D01*
X40500Y-33429D01*
X40571Y-33500D01*
X40606Y-33535D01*
X40878Y-33808D01*
X40972Y-33781D01*
X40995Y-33715D01*
X41035Y-33811D01*
X41189Y-33965D01*
X41311Y-34016D01*
X41311Y-34016D01*
G37*
G54D33*
X41311Y-34016D02*
X40673Y-34016D01*
X40781Y-33972D01*
X40808Y-33878D01*
X40500Y-33571D01*
X40192Y-33878D01*
X40219Y-33972D01*
X40344Y-34016D01*
X39688Y-34016D01*
X39811Y-33965D01*
X39965Y-33811D01*
X40002Y-33719D01*
X40028Y-33781D01*
X40122Y-33808D01*
X40394Y-33535D01*
X40429Y-33500D01*
X40500Y-33429D01*
X40571Y-33500D01*
X40606Y-33535D01*
X40878Y-33808D01*
X40972Y-33781D01*
X40995Y-33715D01*
X41035Y-33811D01*
X41189Y-33965D01*
X41311Y-34016D01*
G54D10*
G36*
X61300Y-46550D02*
X61200Y-46550D01*
X61150Y-46550D01*
X60762Y-46550D01*
X60701Y-46611D01*
X60701Y-46675D01*
X60732Y-46750D01*
X60701Y-46825D01*
X60701Y-46924D01*
X60701Y-47070D01*
X60650Y-47070D01*
X60485Y-47103D01*
X60346Y-47196D01*
X60253Y-47335D01*
X60220Y-47500D01*
X60220Y-46923D01*
X60727Y-46415D01*
X60762Y-46450D01*
X61150Y-46450D01*
X61200Y-46450D01*
X61300Y-46450D01*
X61300Y-46550D01*
X61300Y-46550D01*
G37*
G54D33*
X61300Y-46550D02*
X61200Y-46550D01*
X61150Y-46550D01*
X60762Y-46550D01*
X60701Y-46611D01*
X60701Y-46675D01*
X60732Y-46750D01*
X60701Y-46825D01*
X60701Y-46924D01*
X60701Y-47070D01*
X60650Y-47070D01*
X60485Y-47103D01*
X60346Y-47196D01*
X60253Y-47335D01*
X60220Y-47500D01*
X60220Y-46923D01*
X60727Y-46415D01*
X60762Y-46450D01*
X61150Y-46450D01*
X61200Y-46450D01*
X61300Y-46450D01*
X61300Y-46550D01*
G54D10*
G36*
X64050Y-46450D02*
X63950Y-46450D01*
X63900Y-46450D01*
X63312Y-46450D01*
X63250Y-46512D01*
X63188Y-46450D01*
X62600Y-46450D01*
X62550Y-46450D01*
X62450Y-46450D01*
X62450Y-46350D01*
X62550Y-46350D01*
X62600Y-46350D01*
X63188Y-46350D01*
X63250Y-46288D01*
X63312Y-46350D01*
X63900Y-46350D01*
X63950Y-46350D01*
X64050Y-46350D01*
X64050Y-46450D01*
X64050Y-46450D01*
G37*
G54D33*
X64050Y-46450D02*
X63950Y-46450D01*
X63900Y-46450D01*
X63312Y-46450D01*
X63250Y-46512D01*
X63188Y-46450D01*
X62600Y-46450D01*
X62550Y-46450D01*
X62450Y-46450D01*
X62450Y-46350D01*
X62550Y-46350D01*
X62600Y-46350D01*
X63188Y-46350D01*
X63250Y-46288D01*
X63312Y-46350D01*
X63900Y-46350D01*
X63950Y-46350D01*
X64050Y-46350D01*
X64050Y-46450D01*
G54D10*
G36*
X65902Y-46815D02*
X65094Y-47623D01*
X65094Y-45634D01*
X65066Y-45493D01*
X65066Y-45492D01*
X64986Y-45372D01*
X64602Y-44988D01*
X64482Y-44908D01*
X64457Y-44903D01*
X64349Y-44881D01*
X64349Y-44880D01*
X64349Y-44701D01*
X64311Y-44609D01*
X64241Y-44539D01*
X64150Y-44501D01*
X64051Y-44501D01*
X63551Y-44501D01*
X63459Y-44539D01*
X63389Y-44609D01*
X63351Y-44700D01*
X63351Y-44799D01*
X63351Y-45799D01*
X63389Y-45891D01*
X63414Y-45916D01*
X63359Y-45939D01*
X63289Y-46009D01*
X63251Y-46101D01*
X63250Y-46288D01*
X63249Y-46101D01*
X63211Y-46009D01*
X63141Y-45939D01*
X63085Y-45916D01*
X63111Y-45891D01*
X63149Y-45800D01*
X63149Y-45701D01*
X63149Y-44701D01*
X63111Y-44609D01*
X63041Y-44539D01*
X62950Y-44501D01*
X62851Y-44501D01*
X62351Y-44501D01*
X62259Y-44539D01*
X62189Y-44609D01*
X62151Y-44700D01*
X62151Y-44799D01*
X62151Y-44881D01*
X62018Y-44908D01*
X61898Y-44988D01*
X61896Y-44990D01*
X61799Y-45087D01*
X61799Y-44889D01*
X61799Y-44825D01*
X61767Y-44750D01*
X61799Y-44675D01*
X61799Y-44576D01*
X61799Y-44326D01*
X61761Y-44234D01*
X61691Y-44164D01*
X61600Y-44126D01*
X61501Y-44126D01*
X61080Y-44126D01*
X61080Y-43620D01*
X61052Y-43478D01*
X60972Y-43358D01*
X60969Y-43356D01*
X60602Y-42988D01*
X60482Y-42908D01*
X60457Y-42903D01*
X60349Y-42881D01*
X60349Y-42880D01*
X60349Y-42701D01*
X60311Y-42609D01*
X60241Y-42539D01*
X60150Y-42501D01*
X60051Y-42501D01*
X59551Y-42501D01*
X59459Y-42539D01*
X59389Y-42609D01*
X59351Y-42700D01*
X59351Y-42799D01*
X59351Y-43799D01*
X59389Y-43891D01*
X59459Y-43961D01*
X59550Y-43999D01*
X59649Y-43999D01*
X60149Y-43999D01*
X60241Y-43961D01*
X60311Y-43891D01*
X60340Y-43821D01*
X60340Y-44500D01*
X60368Y-44642D01*
X60448Y-44762D01*
X60568Y-44842D01*
X60701Y-44868D01*
X60701Y-44889D01*
X60762Y-44950D01*
X61150Y-44950D01*
X61200Y-44950D01*
X61300Y-44950D01*
X61350Y-44950D01*
X61738Y-44950D01*
X61799Y-44889D01*
X61799Y-45087D01*
X61787Y-45099D01*
X61738Y-45050D01*
X61350Y-45050D01*
X61300Y-45050D01*
X61200Y-45050D01*
X61150Y-45050D01*
X60762Y-45050D01*
X60701Y-45111D01*
X60701Y-45175D01*
X60732Y-45250D01*
X60701Y-45325D01*
X60701Y-45424D01*
X60701Y-45630D01*
X60620Y-45630D01*
X60619Y-45630D01*
X60478Y-45658D01*
X60358Y-45738D01*
X60356Y-45740D01*
X59588Y-46508D01*
X59508Y-46628D01*
X59503Y-46652D01*
X59479Y-46770D01*
X59480Y-46774D01*
X59480Y-48530D01*
X59459Y-48539D01*
X59389Y-48609D01*
X59351Y-48700D01*
X59351Y-48799D01*
X59351Y-49604D01*
X59149Y-49604D01*
X59149Y-48701D01*
X59111Y-48609D01*
X59041Y-48539D01*
X59020Y-48530D01*
X59020Y-45879D01*
X59423Y-45476D01*
X59555Y-45422D01*
X59675Y-45302D01*
X59740Y-45146D01*
X59740Y-44977D01*
X59676Y-44821D01*
X59556Y-44701D01*
X59400Y-44636D01*
X59231Y-44636D01*
X59075Y-44700D01*
X58955Y-44820D01*
X58899Y-44953D01*
X58530Y-45322D01*
X58530Y-43999D01*
X58949Y-43999D01*
X59041Y-43961D01*
X59111Y-43891D01*
X59149Y-43800D01*
X59149Y-43701D01*
X59149Y-42701D01*
X59111Y-42609D01*
X59041Y-42539D01*
X58950Y-42501D01*
X58851Y-42501D01*
X58351Y-42501D01*
X58259Y-42539D01*
X58189Y-42609D01*
X58151Y-42700D01*
X58151Y-42799D01*
X58151Y-42881D01*
X58018Y-42908D01*
X57898Y-42988D01*
X57818Y-43108D01*
X57790Y-43250D01*
X57790Y-44130D01*
X57609Y-44130D01*
X57600Y-44126D01*
X57501Y-44126D01*
X56901Y-44126D01*
X56809Y-44164D01*
X56739Y-44234D01*
X56701Y-44325D01*
X56701Y-44424D01*
X56701Y-44674D01*
X56732Y-44749D01*
X56701Y-44825D01*
X56701Y-44889D01*
X56762Y-44950D01*
X57150Y-44950D01*
X57200Y-44950D01*
X57300Y-44950D01*
X57300Y-45050D01*
X57200Y-45050D01*
X57150Y-45050D01*
X56762Y-45050D01*
X56701Y-45111D01*
X56701Y-45175D01*
X56732Y-45250D01*
X56701Y-45325D01*
X56701Y-45424D01*
X56701Y-45575D01*
X56576Y-45575D01*
X56420Y-45639D01*
X56300Y-45759D01*
X56235Y-45915D01*
X56235Y-46084D01*
X56299Y-46240D01*
X56419Y-46360D01*
X56575Y-46425D01*
X56701Y-46425D01*
X56701Y-46650D01*
X56663Y-46658D01*
X56543Y-46738D01*
X56463Y-46858D01*
X56435Y-47000D01*
X56435Y-47320D01*
X56434Y-47325D01*
X56458Y-47442D01*
X56463Y-47467D01*
X56473Y-47482D01*
X56464Y-47492D01*
X56384Y-47612D01*
X56379Y-47636D01*
X56355Y-47754D01*
X56356Y-47758D01*
X56356Y-48533D01*
X56355Y-48538D01*
X56379Y-48655D01*
X56384Y-48680D01*
X56464Y-48800D01*
X57794Y-50130D01*
X55920Y-50130D01*
X55920Y-47753D01*
X55730Y-47293D01*
X55379Y-46941D01*
X54920Y-46751D01*
X54629Y-46750D01*
X54629Y-44189D01*
X54629Y-43931D01*
X54530Y-43692D01*
X54348Y-43510D01*
X54109Y-43411D01*
X53851Y-43411D01*
X53612Y-43510D01*
X53430Y-43692D01*
X53331Y-43931D01*
X53331Y-44189D01*
X53430Y-44428D01*
X53612Y-44610D01*
X53851Y-44709D01*
X54109Y-44709D01*
X54348Y-44610D01*
X54530Y-44428D01*
X54629Y-44189D01*
X54629Y-46750D01*
X54423Y-46750D01*
X53963Y-46940D01*
X53611Y-47291D01*
X53421Y-47750D01*
X53420Y-48247D01*
X53610Y-48707D01*
X53961Y-49059D01*
X54420Y-49249D01*
X54917Y-49250D01*
X55377Y-49060D01*
X55729Y-48709D01*
X55919Y-48250D01*
X55920Y-47753D01*
X55920Y-50130D01*
X51580Y-50130D01*
X51580Y-47753D01*
X51390Y-47293D01*
X51039Y-46941D01*
X50580Y-46751D01*
X50083Y-46750D01*
X49623Y-46940D01*
X49271Y-47291D01*
X49081Y-47750D01*
X49080Y-48247D01*
X49270Y-48707D01*
X49621Y-49059D01*
X50080Y-49249D01*
X50577Y-49250D01*
X51037Y-49060D01*
X51389Y-48709D01*
X51579Y-48250D01*
X51580Y-47753D01*
X51580Y-50130D01*
X48549Y-50130D01*
X48549Y-50111D01*
X48488Y-50050D01*
X48100Y-50050D01*
X48050Y-50050D01*
X47950Y-50050D01*
X47900Y-50050D01*
X47512Y-50050D01*
X47451Y-50111D01*
X47451Y-50130D01*
X47391Y-50130D01*
X47222Y-49960D01*
X47268Y-49980D01*
X47459Y-49980D01*
X47531Y-49950D01*
X47900Y-49950D01*
X47950Y-49950D01*
X48050Y-49950D01*
X48100Y-49950D01*
X48488Y-49950D01*
X48549Y-49889D01*
X48549Y-49825D01*
X48517Y-49750D01*
X48549Y-49675D01*
X48549Y-49576D01*
X48549Y-49326D01*
X48517Y-49250D01*
X48549Y-49175D01*
X48549Y-49076D01*
X48549Y-48826D01*
X48517Y-48750D01*
X48549Y-48675D01*
X48549Y-48611D01*
X48549Y-48389D01*
X48549Y-48325D01*
X48511Y-48234D01*
X48441Y-48164D01*
X48349Y-48126D01*
X48112Y-48125D01*
X48050Y-48187D01*
X48050Y-48450D01*
X48488Y-48450D01*
X48549Y-48389D01*
X48549Y-48611D01*
X48488Y-48550D01*
X48100Y-48550D01*
X48050Y-48550D01*
X47950Y-48550D01*
X47950Y-48450D01*
X47950Y-48400D01*
X47950Y-48187D01*
X47888Y-48125D01*
X47651Y-48126D01*
X47559Y-48164D01*
X47489Y-48234D01*
X47481Y-48253D01*
X47431Y-48131D01*
X47311Y-48011D01*
X47155Y-47946D01*
X46986Y-47946D01*
X46830Y-48010D01*
X46710Y-48130D01*
X46678Y-48206D01*
X45075Y-46603D01*
X44936Y-46510D01*
X44771Y-46477D01*
X44563Y-46477D01*
X44549Y-46456D01*
X44549Y-46455D01*
X44549Y-46326D01*
X44517Y-46250D01*
X44549Y-46175D01*
X44549Y-46076D01*
X44549Y-46033D01*
X44778Y-46262D01*
X44898Y-46342D01*
X44899Y-46342D01*
X45040Y-46370D01*
X47451Y-46370D01*
X47451Y-46424D01*
X47451Y-46674D01*
X47489Y-46766D01*
X47559Y-46836D01*
X47650Y-46874D01*
X47749Y-46874D01*
X48349Y-46874D01*
X48358Y-46870D01*
X48416Y-46870D01*
X48446Y-46890D01*
X48587Y-46918D01*
X48587Y-46917D01*
X48588Y-46918D01*
X48845Y-46918D01*
X48977Y-46973D01*
X49146Y-46973D01*
X49302Y-46909D01*
X49422Y-46789D01*
X49487Y-46633D01*
X49487Y-46464D01*
X49423Y-46308D01*
X49303Y-46188D01*
X49147Y-46123D01*
X48978Y-46123D01*
X48843Y-46178D01*
X48712Y-46178D01*
X48682Y-46158D01*
X48657Y-46153D01*
X48549Y-46131D01*
X48549Y-46130D01*
X48549Y-46076D01*
X48549Y-45870D01*
X51055Y-45870D01*
X51060Y-45871D01*
X51060Y-45870D01*
X51177Y-45846D01*
X51201Y-45842D01*
X51202Y-45842D01*
X51322Y-45762D01*
X52374Y-44709D01*
X52629Y-44709D01*
X52868Y-44610D01*
X53050Y-44428D01*
X53149Y-44189D01*
X53149Y-43931D01*
X53050Y-43692D01*
X53043Y-43685D01*
X53043Y-42579D01*
X53032Y-42366D01*
X52972Y-42219D01*
X52878Y-42192D01*
X52808Y-42262D01*
X52808Y-42122D01*
X52781Y-42028D01*
X52579Y-41957D01*
X52366Y-41968D01*
X52219Y-42028D01*
X52192Y-42122D01*
X52500Y-42429D01*
X52808Y-42122D01*
X52808Y-42262D01*
X52571Y-42500D01*
X52878Y-42808D01*
X52972Y-42781D01*
X53043Y-42579D01*
X53043Y-43685D01*
X52868Y-43510D01*
X52808Y-43485D01*
X52808Y-42878D01*
X52500Y-42571D01*
X52429Y-42641D01*
X52429Y-42500D01*
X52122Y-42192D01*
X52028Y-42219D01*
X52004Y-42284D01*
X51965Y-42189D01*
X51811Y-42035D01*
X51609Y-41951D01*
X51391Y-41951D01*
X51189Y-42035D01*
X51035Y-42189D01*
X50951Y-42391D01*
X50951Y-42609D01*
X51035Y-42811D01*
X51189Y-42965D01*
X51391Y-43049D01*
X51609Y-43049D01*
X51811Y-42965D01*
X51965Y-42811D01*
X52002Y-42719D01*
X52028Y-42781D01*
X52122Y-42808D01*
X52429Y-42500D01*
X52429Y-42641D01*
X52192Y-42878D01*
X52219Y-42972D01*
X52421Y-43043D01*
X52634Y-43032D01*
X52781Y-42972D01*
X52808Y-42878D01*
X52808Y-43485D01*
X52629Y-43411D01*
X52371Y-43411D01*
X52132Y-43510D01*
X51950Y-43692D01*
X51851Y-43931D01*
X51851Y-44185D01*
X51669Y-44367D01*
X51669Y-44189D01*
X51669Y-43931D01*
X51570Y-43692D01*
X51388Y-43510D01*
X51149Y-43411D01*
X50891Y-43411D01*
X50652Y-43510D01*
X50470Y-43692D01*
X50371Y-43931D01*
X50371Y-44189D01*
X50470Y-44428D01*
X50652Y-44610D01*
X50891Y-44709D01*
X51149Y-44709D01*
X51388Y-44610D01*
X51570Y-44428D01*
X51669Y-44189D01*
X51669Y-44367D01*
X50906Y-45130D01*
X49043Y-45130D01*
X49043Y-42579D01*
X49032Y-42366D01*
X48972Y-42219D01*
X48878Y-42192D01*
X48808Y-42262D01*
X48808Y-42122D01*
X48781Y-42028D01*
X48579Y-41957D01*
X48366Y-41968D01*
X48219Y-42028D01*
X48192Y-42122D01*
X48500Y-42429D01*
X48808Y-42122D01*
X48808Y-42262D01*
X48571Y-42500D01*
X48878Y-42808D01*
X48972Y-42781D01*
X49043Y-42579D01*
X49043Y-45130D01*
X48808Y-45130D01*
X48808Y-42878D01*
X48500Y-42571D01*
X48429Y-42641D01*
X48429Y-42500D01*
X48122Y-42192D01*
X48028Y-42219D01*
X48004Y-42284D01*
X47965Y-42189D01*
X47811Y-42035D01*
X47609Y-41951D01*
X47391Y-41951D01*
X47189Y-42035D01*
X47035Y-42189D01*
X46951Y-42391D01*
X46951Y-42609D01*
X47035Y-42811D01*
X47189Y-42965D01*
X47391Y-43049D01*
X47609Y-43049D01*
X47811Y-42965D01*
X47965Y-42811D01*
X48002Y-42719D01*
X48028Y-42781D01*
X48122Y-42808D01*
X48429Y-42500D01*
X48429Y-42641D01*
X48192Y-42878D01*
X48219Y-42972D01*
X48421Y-43043D01*
X48634Y-43032D01*
X48781Y-42972D01*
X48808Y-42878D01*
X48808Y-45130D01*
X48549Y-45130D01*
X48549Y-45076D01*
X48549Y-44826D01*
X48511Y-44734D01*
X48441Y-44664D01*
X48350Y-44626D01*
X48251Y-44626D01*
X48199Y-44626D01*
X48165Y-44603D01*
X48000Y-44570D01*
X47516Y-44570D01*
X47396Y-44520D01*
X47205Y-44520D01*
X47029Y-44593D01*
X46893Y-44728D01*
X46820Y-44904D01*
X46820Y-45095D01*
X46893Y-45271D01*
X47028Y-45407D01*
X47204Y-45480D01*
X47395Y-45480D01*
X47451Y-45456D01*
X47451Y-45630D01*
X45194Y-45630D01*
X45043Y-45479D01*
X45043Y-42579D01*
X45032Y-42366D01*
X44972Y-42219D01*
X44878Y-42192D01*
X44808Y-42262D01*
X44808Y-42122D01*
X44781Y-42028D01*
X44579Y-41957D01*
X44366Y-41968D01*
X44219Y-42028D01*
X44192Y-42122D01*
X44500Y-42429D01*
X44808Y-42122D01*
X44808Y-42262D01*
X44571Y-42500D01*
X44878Y-42808D01*
X44972Y-42781D01*
X45043Y-42579D01*
X45043Y-45479D01*
X44910Y-45346D01*
X44910Y-45000D01*
X44882Y-44858D01*
X44808Y-44747D01*
X44808Y-42878D01*
X44500Y-42571D01*
X44192Y-42878D01*
X44219Y-42972D01*
X44421Y-43043D01*
X44634Y-43032D01*
X44781Y-42972D01*
X44808Y-42878D01*
X44808Y-44747D01*
X44802Y-44738D01*
X44682Y-44658D01*
X44540Y-44630D01*
X44359Y-44630D01*
X44350Y-44626D01*
X44251Y-44626D01*
X43651Y-44626D01*
X43559Y-44664D01*
X43489Y-44734D01*
X43451Y-44825D01*
X43451Y-44924D01*
X43451Y-45174D01*
X43482Y-45249D01*
X43451Y-45325D01*
X43451Y-45424D01*
X43451Y-45630D01*
X41593Y-45630D01*
X40149Y-44185D01*
X40149Y-43931D01*
X40050Y-43692D01*
X39868Y-43510D01*
X39839Y-43498D01*
X40640Y-43498D01*
X40612Y-43510D01*
X40430Y-43692D01*
X40331Y-43931D01*
X40331Y-44189D01*
X40430Y-44428D01*
X40612Y-44610D01*
X40851Y-44709D01*
X41109Y-44709D01*
X41348Y-44610D01*
X41530Y-44428D01*
X41629Y-44189D01*
X41629Y-43931D01*
X41530Y-43692D01*
X41348Y-43510D01*
X41319Y-43498D01*
X42867Y-43498D01*
X42872Y-43499D01*
X42872Y-43498D01*
X42989Y-43474D01*
X43013Y-43470D01*
X43014Y-43470D01*
X43134Y-43390D01*
X43475Y-43049D01*
X43609Y-43049D01*
X43811Y-42965D01*
X43965Y-42811D01*
X44002Y-42719D01*
X44028Y-42781D01*
X44122Y-42808D01*
X44429Y-42500D01*
X44122Y-42192D01*
X44028Y-42219D01*
X44004Y-42284D01*
X43965Y-42189D01*
X43811Y-42035D01*
X43609Y-41951D01*
X43391Y-41951D01*
X43189Y-42035D01*
X43035Y-42189D01*
X42951Y-42391D01*
X42951Y-42525D01*
X42718Y-42758D01*
X40980Y-42758D01*
X41043Y-42579D01*
X41032Y-42366D01*
X40972Y-42219D01*
X40878Y-42192D01*
X40571Y-42500D01*
X40500Y-42571D01*
X40429Y-42500D01*
X40500Y-42429D01*
X40535Y-42394D01*
X40808Y-42122D01*
X40781Y-42028D01*
X40579Y-41957D01*
X40566Y-41957D01*
X40830Y-41694D01*
X52520Y-41694D01*
X53815Y-42989D01*
X53935Y-43069D01*
X54077Y-43097D01*
X55245Y-43097D01*
X55250Y-43098D01*
X55250Y-43097D01*
X55367Y-43073D01*
X55391Y-43069D01*
X55392Y-43069D01*
X55512Y-42989D01*
X57405Y-41095D01*
X65393Y-41095D01*
X65525Y-41150D01*
X65694Y-41150D01*
X65850Y-41086D01*
X65902Y-41034D01*
X65902Y-46815D01*
X65902Y-46815D01*
G37*
G54D33*
X65902Y-46815D02*
X65094Y-47623D01*
X65094Y-45634D01*
X65066Y-45493D01*
X65066Y-45492D01*
X64986Y-45372D01*
X64602Y-44988D01*
X64482Y-44908D01*
X64457Y-44903D01*
X64349Y-44881D01*
X64349Y-44880D01*
X64349Y-44701D01*
X64311Y-44609D01*
X64241Y-44539D01*
X64150Y-44501D01*
X64051Y-44501D01*
X63551Y-44501D01*
X63459Y-44539D01*
X63389Y-44609D01*
X63351Y-44700D01*
X63351Y-44799D01*
X63351Y-45799D01*
X63389Y-45891D01*
X63414Y-45916D01*
X63359Y-45939D01*
X63289Y-46009D01*
X63251Y-46101D01*
X63250Y-46288D01*
X63249Y-46101D01*
X63211Y-46009D01*
X63141Y-45939D01*
X63085Y-45916D01*
X63111Y-45891D01*
X63149Y-45800D01*
X63149Y-45701D01*
X63149Y-44701D01*
X63111Y-44609D01*
X63041Y-44539D01*
X62950Y-44501D01*
X62851Y-44501D01*
X62351Y-44501D01*
X62259Y-44539D01*
X62189Y-44609D01*
X62151Y-44700D01*
X62151Y-44799D01*
X62151Y-44881D01*
X62018Y-44908D01*
X61898Y-44988D01*
X61896Y-44990D01*
X61799Y-45087D01*
X61799Y-44889D01*
X61799Y-44825D01*
X61767Y-44750D01*
X61799Y-44675D01*
X61799Y-44576D01*
X61799Y-44326D01*
X61761Y-44234D01*
X61691Y-44164D01*
X61600Y-44126D01*
X61501Y-44126D01*
X61080Y-44126D01*
X61080Y-43620D01*
X61052Y-43478D01*
X60972Y-43358D01*
X60969Y-43356D01*
X60602Y-42988D01*
X60482Y-42908D01*
X60457Y-42903D01*
X60349Y-42881D01*
X60349Y-42880D01*
X60349Y-42701D01*
X60311Y-42609D01*
X60241Y-42539D01*
X60150Y-42501D01*
X60051Y-42501D01*
X59551Y-42501D01*
X59459Y-42539D01*
X59389Y-42609D01*
X59351Y-42700D01*
X59351Y-42799D01*
X59351Y-43799D01*
X59389Y-43891D01*
X59459Y-43961D01*
X59550Y-43999D01*
X59649Y-43999D01*
X60149Y-43999D01*
X60241Y-43961D01*
X60311Y-43891D01*
X60340Y-43821D01*
X60340Y-44500D01*
X60368Y-44642D01*
X60448Y-44762D01*
X60568Y-44842D01*
X60701Y-44868D01*
X60701Y-44889D01*
X60762Y-44950D01*
X61150Y-44950D01*
X61200Y-44950D01*
X61300Y-44950D01*
X61350Y-44950D01*
X61738Y-44950D01*
X61799Y-44889D01*
X61799Y-45087D01*
X61787Y-45099D01*
X61738Y-45050D01*
X61350Y-45050D01*
X61300Y-45050D01*
X61200Y-45050D01*
X61150Y-45050D01*
X60762Y-45050D01*
X60701Y-45111D01*
X60701Y-45175D01*
X60732Y-45250D01*
X60701Y-45325D01*
X60701Y-45424D01*
X60701Y-45630D01*
X60620Y-45630D01*
X60619Y-45630D01*
X60478Y-45658D01*
X60358Y-45738D01*
X60356Y-45740D01*
X59588Y-46508D01*
X59508Y-46628D01*
X59503Y-46652D01*
X59479Y-46770D01*
X59480Y-46774D01*
X59480Y-48530D01*
X59459Y-48539D01*
X59389Y-48609D01*
X59351Y-48700D01*
X59351Y-48799D01*
X59351Y-49604D01*
X59149Y-49604D01*
X59149Y-48701D01*
X59111Y-48609D01*
X59041Y-48539D01*
X59020Y-48530D01*
X59020Y-45879D01*
X59423Y-45476D01*
X59555Y-45422D01*
X59675Y-45302D01*
X59740Y-45146D01*
X59740Y-44977D01*
X59676Y-44821D01*
X59556Y-44701D01*
X59400Y-44636D01*
X59231Y-44636D01*
X59075Y-44700D01*
X58955Y-44820D01*
X58899Y-44953D01*
X58530Y-45322D01*
X58530Y-43999D01*
X58949Y-43999D01*
X59041Y-43961D01*
X59111Y-43891D01*
X59149Y-43800D01*
X59149Y-43701D01*
X59149Y-42701D01*
X59111Y-42609D01*
X59041Y-42539D01*
X58950Y-42501D01*
X58851Y-42501D01*
X58351Y-42501D01*
X58259Y-42539D01*
X58189Y-42609D01*
X58151Y-42700D01*
X58151Y-42799D01*
X58151Y-42881D01*
X58018Y-42908D01*
X57898Y-42988D01*
X57818Y-43108D01*
X57790Y-43250D01*
X57790Y-44130D01*
X57609Y-44130D01*
X57600Y-44126D01*
X57501Y-44126D01*
X56901Y-44126D01*
X56809Y-44164D01*
X56739Y-44234D01*
X56701Y-44325D01*
X56701Y-44424D01*
X56701Y-44674D01*
X56732Y-44749D01*
X56701Y-44825D01*
X56701Y-44889D01*
X56762Y-44950D01*
X57150Y-44950D01*
X57200Y-44950D01*
X57300Y-44950D01*
X57300Y-45050D01*
X57200Y-45050D01*
X57150Y-45050D01*
X56762Y-45050D01*
X56701Y-45111D01*
X56701Y-45175D01*
X56732Y-45250D01*
X56701Y-45325D01*
X56701Y-45424D01*
X56701Y-45575D01*
X56576Y-45575D01*
X56420Y-45639D01*
X56300Y-45759D01*
X56235Y-45915D01*
X56235Y-46084D01*
X56299Y-46240D01*
X56419Y-46360D01*
X56575Y-46425D01*
X56701Y-46425D01*
X56701Y-46650D01*
X56663Y-46658D01*
X56543Y-46738D01*
X56463Y-46858D01*
X56435Y-47000D01*
X56435Y-47320D01*
X56434Y-47325D01*
X56458Y-47442D01*
X56463Y-47467D01*
X56473Y-47482D01*
X56464Y-47492D01*
X56384Y-47612D01*
X56379Y-47636D01*
X56355Y-47754D01*
X56356Y-47758D01*
X56356Y-48533D01*
X56355Y-48538D01*
X56379Y-48655D01*
X56384Y-48680D01*
X56464Y-48800D01*
X57794Y-50130D01*
X55920Y-50130D01*
X55920Y-47753D01*
X55730Y-47293D01*
X55379Y-46941D01*
X54920Y-46751D01*
X54629Y-46750D01*
X54629Y-44189D01*
X54629Y-43931D01*
X54530Y-43692D01*
X54348Y-43510D01*
X54109Y-43411D01*
X53851Y-43411D01*
X53612Y-43510D01*
X53430Y-43692D01*
X53331Y-43931D01*
X53331Y-44189D01*
X53430Y-44428D01*
X53612Y-44610D01*
X53851Y-44709D01*
X54109Y-44709D01*
X54348Y-44610D01*
X54530Y-44428D01*
X54629Y-44189D01*
X54629Y-46750D01*
X54423Y-46750D01*
X53963Y-46940D01*
X53611Y-47291D01*
X53421Y-47750D01*
X53420Y-48247D01*
X53610Y-48707D01*
X53961Y-49059D01*
X54420Y-49249D01*
X54917Y-49250D01*
X55377Y-49060D01*
X55729Y-48709D01*
X55919Y-48250D01*
X55920Y-47753D01*
X55920Y-50130D01*
X51580Y-50130D01*
X51580Y-47753D01*
X51390Y-47293D01*
X51039Y-46941D01*
X50580Y-46751D01*
X50083Y-46750D01*
X49623Y-46940D01*
X49271Y-47291D01*
X49081Y-47750D01*
X49080Y-48247D01*
X49270Y-48707D01*
X49621Y-49059D01*
X50080Y-49249D01*
X50577Y-49250D01*
X51037Y-49060D01*
X51389Y-48709D01*
X51579Y-48250D01*
X51580Y-47753D01*
X51580Y-50130D01*
X48549Y-50130D01*
X48549Y-50111D01*
X48488Y-50050D01*
X48100Y-50050D01*
X48050Y-50050D01*
X47950Y-50050D01*
X47900Y-50050D01*
X47512Y-50050D01*
X47451Y-50111D01*
X47451Y-50130D01*
X47391Y-50130D01*
X47222Y-49960D01*
X47268Y-49980D01*
X47459Y-49980D01*
X47531Y-49950D01*
X47900Y-49950D01*
X47950Y-49950D01*
X48050Y-49950D01*
X48100Y-49950D01*
X48488Y-49950D01*
X48549Y-49889D01*
X48549Y-49825D01*
X48517Y-49750D01*
X48549Y-49675D01*
X48549Y-49576D01*
X48549Y-49326D01*
X48517Y-49250D01*
X48549Y-49175D01*
X48549Y-49076D01*
X48549Y-48826D01*
X48517Y-48750D01*
X48549Y-48675D01*
X48549Y-48611D01*
X48549Y-48389D01*
X48549Y-48325D01*
X48511Y-48234D01*
X48441Y-48164D01*
X48349Y-48126D01*
X48112Y-48125D01*
X48050Y-48187D01*
X48050Y-48450D01*
X48488Y-48450D01*
X48549Y-48389D01*
X48549Y-48611D01*
X48488Y-48550D01*
X48100Y-48550D01*
X48050Y-48550D01*
X47950Y-48550D01*
X47950Y-48450D01*
X47950Y-48400D01*
X47950Y-48187D01*
X47888Y-48125D01*
X47651Y-48126D01*
X47559Y-48164D01*
X47489Y-48234D01*
X47481Y-48253D01*
X47431Y-48131D01*
X47311Y-48011D01*
X47155Y-47946D01*
X46986Y-47946D01*
X46830Y-48010D01*
X46710Y-48130D01*
X46678Y-48206D01*
X45075Y-46603D01*
X44936Y-46510D01*
X44771Y-46477D01*
X44563Y-46477D01*
X44549Y-46456D01*
X44549Y-46455D01*
X44549Y-46326D01*
X44517Y-46250D01*
X44549Y-46175D01*
X44549Y-46076D01*
X44549Y-46033D01*
X44778Y-46262D01*
X44898Y-46342D01*
X44899Y-46342D01*
X45040Y-46370D01*
X47451Y-46370D01*
X47451Y-46424D01*
X47451Y-46674D01*
X47489Y-46766D01*
X47559Y-46836D01*
X47650Y-46874D01*
X47749Y-46874D01*
X48349Y-46874D01*
X48358Y-46870D01*
X48416Y-46870D01*
X48446Y-46890D01*
X48587Y-46918D01*
X48587Y-46917D01*
X48588Y-46918D01*
X48845Y-46918D01*
X48977Y-46973D01*
X49146Y-46973D01*
X49302Y-46909D01*
X49422Y-46789D01*
X49487Y-46633D01*
X49487Y-46464D01*
X49423Y-46308D01*
X49303Y-46188D01*
X49147Y-46123D01*
X48978Y-46123D01*
X48843Y-46178D01*
X48712Y-46178D01*
X48682Y-46158D01*
X48657Y-46153D01*
X48549Y-46131D01*
X48549Y-46130D01*
X48549Y-46076D01*
X48549Y-45870D01*
X51055Y-45870D01*
X51060Y-45871D01*
X51060Y-45870D01*
X51177Y-45846D01*
X51201Y-45842D01*
X51202Y-45842D01*
X51322Y-45762D01*
X52374Y-44709D01*
X52629Y-44709D01*
X52868Y-44610D01*
X53050Y-44428D01*
X53149Y-44189D01*
X53149Y-43931D01*
X53050Y-43692D01*
X53043Y-43685D01*
X53043Y-42579D01*
X53032Y-42366D01*
X52972Y-42219D01*
X52878Y-42192D01*
X52808Y-42262D01*
X52808Y-42122D01*
X52781Y-42028D01*
X52579Y-41957D01*
X52366Y-41968D01*
X52219Y-42028D01*
X52192Y-42122D01*
X52500Y-42429D01*
X52808Y-42122D01*
X52808Y-42262D01*
X52571Y-42500D01*
X52878Y-42808D01*
X52972Y-42781D01*
X53043Y-42579D01*
X53043Y-43685D01*
X52868Y-43510D01*
X52808Y-43485D01*
X52808Y-42878D01*
X52500Y-42571D01*
X52429Y-42641D01*
X52429Y-42500D01*
X52122Y-42192D01*
X52028Y-42219D01*
X52004Y-42284D01*
X51965Y-42189D01*
X51811Y-42035D01*
X51609Y-41951D01*
X51391Y-41951D01*
X51189Y-42035D01*
X51035Y-42189D01*
X50951Y-42391D01*
X50951Y-42609D01*
X51035Y-42811D01*
X51189Y-42965D01*
X51391Y-43049D01*
X51609Y-43049D01*
X51811Y-42965D01*
X51965Y-42811D01*
X52002Y-42719D01*
X52028Y-42781D01*
X52122Y-42808D01*
X52429Y-42500D01*
X52429Y-42641D01*
X52192Y-42878D01*
X52219Y-42972D01*
X52421Y-43043D01*
X52634Y-43032D01*
X52781Y-42972D01*
X52808Y-42878D01*
X52808Y-43485D01*
X52629Y-43411D01*
X52371Y-43411D01*
X52132Y-43510D01*
X51950Y-43692D01*
X51851Y-43931D01*
X51851Y-44185D01*
X51669Y-44367D01*
X51669Y-44189D01*
X51669Y-43931D01*
X51570Y-43692D01*
X51388Y-43510D01*
X51149Y-43411D01*
X50891Y-43411D01*
X50652Y-43510D01*
X50470Y-43692D01*
X50371Y-43931D01*
X50371Y-44189D01*
X50470Y-44428D01*
X50652Y-44610D01*
X50891Y-44709D01*
X51149Y-44709D01*
X51388Y-44610D01*
X51570Y-44428D01*
X51669Y-44189D01*
X51669Y-44367D01*
X50906Y-45130D01*
X49043Y-45130D01*
X49043Y-42579D01*
X49032Y-42366D01*
X48972Y-42219D01*
X48878Y-42192D01*
X48808Y-42262D01*
X48808Y-42122D01*
X48781Y-42028D01*
X48579Y-41957D01*
X48366Y-41968D01*
X48219Y-42028D01*
X48192Y-42122D01*
X48500Y-42429D01*
X48808Y-42122D01*
X48808Y-42262D01*
X48571Y-42500D01*
X48878Y-42808D01*
X48972Y-42781D01*
X49043Y-42579D01*
X49043Y-45130D01*
X48808Y-45130D01*
X48808Y-42878D01*
X48500Y-42571D01*
X48429Y-42641D01*
X48429Y-42500D01*
X48122Y-42192D01*
X48028Y-42219D01*
X48004Y-42284D01*
X47965Y-42189D01*
X47811Y-42035D01*
X47609Y-41951D01*
X47391Y-41951D01*
X47189Y-42035D01*
X47035Y-42189D01*
X46951Y-42391D01*
X46951Y-42609D01*
X47035Y-42811D01*
X47189Y-42965D01*
X47391Y-43049D01*
X47609Y-43049D01*
X47811Y-42965D01*
X47965Y-42811D01*
X48002Y-42719D01*
X48028Y-42781D01*
X48122Y-42808D01*
X48429Y-42500D01*
X48429Y-42641D01*
X48192Y-42878D01*
X48219Y-42972D01*
X48421Y-43043D01*
X48634Y-43032D01*
X48781Y-42972D01*
X48808Y-42878D01*
X48808Y-45130D01*
X48549Y-45130D01*
X48549Y-45076D01*
X48549Y-44826D01*
X48511Y-44734D01*
X48441Y-44664D01*
X48350Y-44626D01*
X48251Y-44626D01*
X48199Y-44626D01*
X48165Y-44603D01*
X48000Y-44570D01*
X47516Y-44570D01*
X47396Y-44520D01*
X47205Y-44520D01*
X47029Y-44593D01*
X46893Y-44728D01*
X46820Y-44904D01*
X46820Y-45095D01*
X46893Y-45271D01*
X47028Y-45407D01*
X47204Y-45480D01*
X47395Y-45480D01*
X47451Y-45456D01*
X47451Y-45630D01*
X45194Y-45630D01*
X45043Y-45479D01*
X45043Y-42579D01*
X45032Y-42366D01*
X44972Y-42219D01*
X44878Y-42192D01*
X44808Y-42262D01*
X44808Y-42122D01*
X44781Y-42028D01*
X44579Y-41957D01*
X44366Y-41968D01*
X44219Y-42028D01*
X44192Y-42122D01*
X44500Y-42429D01*
X44808Y-42122D01*
X44808Y-42262D01*
X44571Y-42500D01*
X44878Y-42808D01*
X44972Y-42781D01*
X45043Y-42579D01*
X45043Y-45479D01*
X44910Y-45346D01*
X44910Y-45000D01*
X44882Y-44858D01*
X44808Y-44747D01*
X44808Y-42878D01*
X44500Y-42571D01*
X44192Y-42878D01*
X44219Y-42972D01*
X44421Y-43043D01*
X44634Y-43032D01*
X44781Y-42972D01*
X44808Y-42878D01*
X44808Y-44747D01*
X44802Y-44738D01*
X44682Y-44658D01*
X44540Y-44630D01*
X44359Y-44630D01*
X44350Y-44626D01*
X44251Y-44626D01*
X43651Y-44626D01*
X43559Y-44664D01*
X43489Y-44734D01*
X43451Y-44825D01*
X43451Y-44924D01*
X43451Y-45174D01*
X43482Y-45249D01*
X43451Y-45325D01*
X43451Y-45424D01*
X43451Y-45630D01*
X41593Y-45630D01*
X40149Y-44185D01*
X40149Y-43931D01*
X40050Y-43692D01*
X39868Y-43510D01*
X39839Y-43498D01*
X40640Y-43498D01*
X40612Y-43510D01*
X40430Y-43692D01*
X40331Y-43931D01*
X40331Y-44189D01*
X40430Y-44428D01*
X40612Y-44610D01*
X40851Y-44709D01*
X41109Y-44709D01*
X41348Y-44610D01*
X41530Y-44428D01*
X41629Y-44189D01*
X41629Y-43931D01*
X41530Y-43692D01*
X41348Y-43510D01*
X41319Y-43498D01*
X42867Y-43498D01*
X42872Y-43499D01*
X42872Y-43498D01*
X42989Y-43474D01*
X43013Y-43470D01*
X43014Y-43470D01*
X43134Y-43390D01*
X43475Y-43049D01*
X43609Y-43049D01*
X43811Y-42965D01*
X43965Y-42811D01*
X44002Y-42719D01*
X44028Y-42781D01*
X44122Y-42808D01*
X44429Y-42500D01*
X44122Y-42192D01*
X44028Y-42219D01*
X44004Y-42284D01*
X43965Y-42189D01*
X43811Y-42035D01*
X43609Y-41951D01*
X43391Y-41951D01*
X43189Y-42035D01*
X43035Y-42189D01*
X42951Y-42391D01*
X42951Y-42525D01*
X42718Y-42758D01*
X40980Y-42758D01*
X41043Y-42579D01*
X41032Y-42366D01*
X40972Y-42219D01*
X40878Y-42192D01*
X40571Y-42500D01*
X40500Y-42571D01*
X40429Y-42500D01*
X40500Y-42429D01*
X40535Y-42394D01*
X40808Y-42122D01*
X40781Y-42028D01*
X40579Y-41957D01*
X40566Y-41957D01*
X40830Y-41694D01*
X52520Y-41694D01*
X53815Y-42989D01*
X53935Y-43069D01*
X54077Y-43097D01*
X55245Y-43097D01*
X55250Y-43098D01*
X55250Y-43097D01*
X55367Y-43073D01*
X55391Y-43069D01*
X55392Y-43069D01*
X55512Y-42989D01*
X57405Y-41095D01*
X65393Y-41095D01*
X65525Y-41150D01*
X65694Y-41150D01*
X65850Y-41086D01*
X65902Y-41034D01*
X65902Y-46815D01*
G54D10*
G36*
X68920Y-39510D02*
X68870Y-39531D01*
X68850Y-39550D01*
X66332Y-39550D01*
X59158Y-39550D01*
X55649Y-36041D01*
X55649Y-35871D01*
X55550Y-35632D01*
X55368Y-35450D01*
X55129Y-35351D01*
X54871Y-35351D01*
X54632Y-35450D01*
X54450Y-35632D01*
X54351Y-35871D01*
X54351Y-36129D01*
X54450Y-36368D01*
X54632Y-36550D01*
X54871Y-36649D01*
X55041Y-36649D01*
X58676Y-40284D01*
X58782Y-40355D01*
X57252Y-40355D01*
X57110Y-40383D01*
X56990Y-40463D01*
X56988Y-40465D01*
X55641Y-41811D01*
X55641Y-39103D01*
X55631Y-38849D01*
X55554Y-38660D01*
X55449Y-38622D01*
X55378Y-38693D01*
X55378Y-38551D01*
X55340Y-38446D01*
X55103Y-38359D01*
X54849Y-38369D01*
X54660Y-38446D01*
X54622Y-38551D01*
X55000Y-38929D01*
X55378Y-38551D01*
X55378Y-38693D01*
X55071Y-39000D01*
X55449Y-39378D01*
X55554Y-39340D01*
X55641Y-39103D01*
X55641Y-41811D01*
X55629Y-41823D01*
X55550Y-41632D01*
X55378Y-41460D01*
X55378Y-39449D01*
X55000Y-39071D01*
X54929Y-39142D01*
X54929Y-39000D01*
X54551Y-38622D01*
X54446Y-38660D01*
X54359Y-38897D01*
X54369Y-39151D01*
X54446Y-39340D01*
X54551Y-39378D01*
X54929Y-39000D01*
X54929Y-39142D01*
X54622Y-39449D01*
X54660Y-39554D01*
X54897Y-39641D01*
X55151Y-39631D01*
X55340Y-39554D01*
X55378Y-39449D01*
X55378Y-41460D01*
X55368Y-41450D01*
X55129Y-41351D01*
X54959Y-41351D01*
X47750Y-34142D01*
X47611Y-34049D01*
X47609Y-34048D01*
X47811Y-33965D01*
X47965Y-33811D01*
X48000Y-33726D01*
X48035Y-33811D01*
X48189Y-33965D01*
X48391Y-34049D01*
X48609Y-34049D01*
X48811Y-33965D01*
X48965Y-33811D01*
X49000Y-33726D01*
X49035Y-33811D01*
X49189Y-33965D01*
X49391Y-34049D01*
X49609Y-34049D01*
X49811Y-33965D01*
X49965Y-33811D01*
X50049Y-33609D01*
X50049Y-33391D01*
X49965Y-33189D01*
X49920Y-33144D01*
X63512Y-33144D01*
X63938Y-33570D01*
X55488Y-33570D01*
X55368Y-33450D01*
X55129Y-33351D01*
X54871Y-33351D01*
X54632Y-33450D01*
X54450Y-33632D01*
X54351Y-33871D01*
X54351Y-34129D01*
X54450Y-34368D01*
X54632Y-34550D01*
X54871Y-34649D01*
X55129Y-34649D01*
X55368Y-34550D01*
X55488Y-34430D01*
X63840Y-34430D01*
X68920Y-39510D01*
X68920Y-39510D01*
G37*
G54D33*
X68920Y-39510D02*
X68870Y-39531D01*
X68850Y-39550D01*
X66332Y-39550D01*
X59158Y-39550D01*
X55649Y-36041D01*
X55649Y-35871D01*
X55550Y-35632D01*
X55368Y-35450D01*
X55129Y-35351D01*
X54871Y-35351D01*
X54632Y-35450D01*
X54450Y-35632D01*
X54351Y-35871D01*
X54351Y-36129D01*
X54450Y-36368D01*
X54632Y-36550D01*
X54871Y-36649D01*
X55041Y-36649D01*
X58676Y-40284D01*
X58782Y-40355D01*
X57252Y-40355D01*
X57110Y-40383D01*
X56990Y-40463D01*
X56988Y-40465D01*
X55641Y-41811D01*
X55641Y-39103D01*
X55631Y-38849D01*
X55554Y-38660D01*
X55449Y-38622D01*
X55378Y-38693D01*
X55378Y-38551D01*
X55340Y-38446D01*
X55103Y-38359D01*
X54849Y-38369D01*
X54660Y-38446D01*
X54622Y-38551D01*
X55000Y-38929D01*
X55378Y-38551D01*
X55378Y-38693D01*
X55071Y-39000D01*
X55449Y-39378D01*
X55554Y-39340D01*
X55641Y-39103D01*
X55641Y-41811D01*
X55629Y-41823D01*
X55550Y-41632D01*
X55378Y-41460D01*
X55378Y-39449D01*
X55000Y-39071D01*
X54929Y-39142D01*
X54929Y-39000D01*
X54551Y-38622D01*
X54446Y-38660D01*
X54359Y-38897D01*
X54369Y-39151D01*
X54446Y-39340D01*
X54551Y-39378D01*
X54929Y-39000D01*
X54929Y-39142D01*
X54622Y-39449D01*
X54660Y-39554D01*
X54897Y-39641D01*
X55151Y-39631D01*
X55340Y-39554D01*
X55378Y-39449D01*
X55378Y-41460D01*
X55368Y-41450D01*
X55129Y-41351D01*
X54959Y-41351D01*
X47750Y-34142D01*
X47611Y-34049D01*
X47609Y-34048D01*
X47811Y-33965D01*
X47965Y-33811D01*
X48000Y-33726D01*
X48035Y-33811D01*
X48189Y-33965D01*
X48391Y-34049D01*
X48609Y-34049D01*
X48811Y-33965D01*
X48965Y-33811D01*
X49000Y-33726D01*
X49035Y-33811D01*
X49189Y-33965D01*
X49391Y-34049D01*
X49609Y-34049D01*
X49811Y-33965D01*
X49965Y-33811D01*
X50049Y-33609D01*
X50049Y-33391D01*
X49965Y-33189D01*
X49920Y-33144D01*
X63512Y-33144D01*
X63938Y-33570D01*
X55488Y-33570D01*
X55368Y-33450D01*
X55129Y-33351D01*
X54871Y-33351D01*
X54632Y-33450D01*
X54450Y-33632D01*
X54351Y-33871D01*
X54351Y-34129D01*
X54450Y-34368D01*
X54632Y-34550D01*
X54871Y-34649D01*
X55129Y-34649D01*
X55368Y-34550D01*
X55488Y-34430D01*
X63840Y-34430D01*
X68920Y-39510D01*
G54D10*
G36*
X71705Y-52705D02*
X71137Y-52705D01*
X71326Y-52627D01*
X71412Y-52483D01*
X70750Y-51821D01*
X70679Y-51892D01*
X70679Y-51750D01*
X70017Y-51088D01*
X69873Y-51174D01*
X69720Y-51554D01*
X69723Y-51964D01*
X69873Y-52326D01*
X70017Y-52412D01*
X70679Y-51750D01*
X70679Y-51892D01*
X70088Y-52483D01*
X70174Y-52627D01*
X70367Y-52705D01*
X69700Y-52705D01*
X68365Y-52705D01*
X68365Y-50612D01*
X68365Y-50388D01*
X68364Y-50184D01*
X68364Y-50085D01*
X68326Y-49994D01*
X68256Y-49924D01*
X68164Y-49886D01*
X67862Y-49885D01*
X67800Y-49947D01*
X67800Y-50450D01*
X68303Y-50450D01*
X68365Y-50388D01*
X68365Y-50612D01*
X68303Y-50550D01*
X67800Y-50550D01*
X67800Y-51053D01*
X67862Y-51115D01*
X68164Y-51114D01*
X68256Y-51076D01*
X68326Y-51006D01*
X68364Y-50915D01*
X68364Y-50816D01*
X68365Y-50612D01*
X68365Y-52705D01*
X61780Y-52705D01*
X61780Y-51946D01*
X61777Y-51536D01*
X61627Y-51174D01*
X61483Y-51088D01*
X60821Y-51750D01*
X61483Y-52412D01*
X61627Y-52326D01*
X61780Y-51946D01*
X61780Y-52705D01*
X61137Y-52705D01*
X61326Y-52627D01*
X61412Y-52483D01*
X60750Y-51821D01*
X60679Y-51892D01*
X60679Y-51750D01*
X60017Y-51088D01*
X59873Y-51174D01*
X59720Y-51554D01*
X59723Y-51964D01*
X59873Y-52326D01*
X60017Y-52412D01*
X60679Y-51750D01*
X60679Y-51892D01*
X60088Y-52483D01*
X60174Y-52627D01*
X60367Y-52705D01*
X41780Y-52705D01*
X41780Y-51946D01*
X41777Y-51536D01*
X41627Y-51174D01*
X41483Y-51088D01*
X41412Y-51159D01*
X41412Y-51017D01*
X41326Y-50873D01*
X40946Y-50720D01*
X40536Y-50723D01*
X40174Y-50873D01*
X40088Y-51017D01*
X40750Y-51679D01*
X41412Y-51017D01*
X41412Y-51159D01*
X40821Y-51750D01*
X41483Y-52412D01*
X41627Y-52326D01*
X41780Y-51946D01*
X41780Y-52705D01*
X41137Y-52705D01*
X41326Y-52627D01*
X41412Y-52483D01*
X40750Y-51821D01*
X40679Y-51892D01*
X40679Y-51750D01*
X40017Y-51088D01*
X39873Y-51174D01*
X39720Y-51554D01*
X39723Y-51964D01*
X39873Y-52326D01*
X40017Y-52412D01*
X40679Y-51750D01*
X40679Y-51892D01*
X40088Y-52483D01*
X40174Y-52627D01*
X40367Y-52705D01*
X35600Y-52705D01*
X35600Y-49420D01*
X35600Y-49082D01*
X35471Y-48770D01*
X35232Y-48530D01*
X34920Y-48400D01*
X34582Y-48400D01*
X34270Y-48529D01*
X34030Y-48768D01*
X33900Y-49080D01*
X33900Y-49418D01*
X34029Y-49730D01*
X34268Y-49970D01*
X34580Y-50100D01*
X34918Y-50100D01*
X35230Y-49971D01*
X35470Y-49732D01*
X35600Y-49420D01*
X35600Y-52705D01*
X33318Y-52705D01*
X33318Y-48334D01*
X33306Y-48111D01*
X33242Y-47954D01*
X33146Y-47925D01*
X32821Y-48250D01*
X33146Y-48575D01*
X33242Y-48546D01*
X33318Y-48334D01*
X33318Y-52705D01*
X33075Y-52705D01*
X33075Y-48646D01*
X32750Y-48321D01*
X32679Y-48392D01*
X32679Y-48250D01*
X32354Y-47925D01*
X32258Y-47954D01*
X32182Y-48166D01*
X32194Y-48389D01*
X32258Y-48546D01*
X32354Y-48575D01*
X32679Y-48250D01*
X32679Y-48392D01*
X32425Y-48646D01*
X32454Y-48742D01*
X32666Y-48818D01*
X32889Y-48806D01*
X33046Y-48742D01*
X33075Y-48646D01*
X33075Y-52705D01*
X31780Y-52705D01*
X31780Y-51946D01*
X31777Y-51536D01*
X31627Y-51174D01*
X31600Y-51157D01*
X31600Y-49420D01*
X31600Y-49082D01*
X31600Y-45420D01*
X31600Y-45082D01*
X31471Y-44770D01*
X31232Y-44530D01*
X30920Y-44400D01*
X30582Y-44400D01*
X30270Y-44529D01*
X30030Y-44768D01*
X29900Y-45080D01*
X29900Y-45418D01*
X30029Y-45730D01*
X30268Y-45970D01*
X30580Y-46100D01*
X30918Y-46100D01*
X31230Y-45971D01*
X31470Y-45732D01*
X31600Y-45420D01*
X31600Y-49082D01*
X31471Y-48770D01*
X31232Y-48530D01*
X30920Y-48400D01*
X30582Y-48400D01*
X30270Y-48529D01*
X30030Y-48768D01*
X29900Y-49080D01*
X29900Y-49418D01*
X30029Y-49730D01*
X30268Y-49970D01*
X30580Y-50100D01*
X30918Y-50100D01*
X31230Y-49971D01*
X31470Y-49732D01*
X31600Y-49420D01*
X31600Y-51157D01*
X31483Y-51088D01*
X31412Y-51159D01*
X31412Y-51017D01*
X31326Y-50873D01*
X30946Y-50720D01*
X30536Y-50723D01*
X30174Y-50873D01*
X30088Y-51017D01*
X30750Y-51679D01*
X31412Y-51017D01*
X31412Y-51159D01*
X30821Y-51750D01*
X31483Y-52412D01*
X31627Y-52326D01*
X31780Y-51946D01*
X31780Y-52705D01*
X31137Y-52705D01*
X31326Y-52627D01*
X31412Y-52483D01*
X30750Y-51821D01*
X30088Y-52483D01*
X30174Y-52627D01*
X30367Y-52705D01*
X29795Y-52705D01*
X29795Y-52137D01*
X29873Y-52326D01*
X30017Y-52412D01*
X30679Y-51750D01*
X30017Y-51088D01*
X29873Y-51174D01*
X29795Y-51367D01*
X29795Y-32137D01*
X29873Y-32326D01*
X30017Y-32412D01*
X30679Y-31750D01*
X30017Y-31088D01*
X29873Y-31174D01*
X29795Y-31367D01*
X29795Y-30795D01*
X30362Y-30795D01*
X30174Y-30873D01*
X30088Y-31017D01*
X30750Y-31679D01*
X31412Y-31017D01*
X31326Y-30873D01*
X31132Y-30795D01*
X40362Y-30795D01*
X40174Y-30873D01*
X40088Y-31017D01*
X40750Y-31679D01*
X41412Y-31017D01*
X41326Y-30873D01*
X41132Y-30795D01*
X60362Y-30795D01*
X60174Y-30873D01*
X60088Y-31017D01*
X60750Y-31679D01*
X61412Y-31017D01*
X61326Y-30873D01*
X61132Y-30795D01*
X70362Y-30795D01*
X70174Y-30873D01*
X70088Y-31017D01*
X70750Y-31679D01*
X71412Y-31017D01*
X71326Y-30873D01*
X71132Y-30795D01*
X71705Y-30795D01*
X71705Y-31362D01*
X71627Y-31174D01*
X71483Y-31088D01*
X70821Y-31750D01*
X71483Y-32412D01*
X71627Y-32326D01*
X71705Y-32132D01*
X71705Y-38735D01*
X71535Y-38565D01*
X71412Y-38513D01*
X71412Y-32483D01*
X70750Y-31821D01*
X70679Y-31892D01*
X70679Y-31750D01*
X70017Y-31088D01*
X69873Y-31174D01*
X69720Y-31554D01*
X69723Y-31964D01*
X69873Y-32326D01*
X70017Y-32412D01*
X70679Y-31750D01*
X70679Y-31892D01*
X70088Y-32483D01*
X70174Y-32627D01*
X70554Y-32780D01*
X70964Y-32777D01*
X71326Y-32627D01*
X71412Y-32483D01*
X71412Y-38513D01*
X71247Y-38445D01*
X70935Y-38445D01*
X70646Y-38564D01*
X70425Y-38785D01*
X70358Y-38943D01*
X63928Y-32512D01*
X63808Y-32432D01*
X63783Y-32427D01*
X63666Y-32403D01*
X63661Y-32404D01*
X61545Y-32404D01*
X61527Y-32385D01*
X61627Y-32326D01*
X61780Y-31946D01*
X61777Y-31536D01*
X61627Y-31174D01*
X61483Y-31088D01*
X60856Y-31715D01*
X60821Y-31750D01*
X60750Y-31821D01*
X60679Y-31750D01*
X60644Y-31715D01*
X60017Y-31088D01*
X59873Y-31174D01*
X59720Y-31554D01*
X59723Y-31964D01*
X59873Y-32326D01*
X59972Y-32385D01*
X59954Y-32404D01*
X41545Y-32404D01*
X41527Y-32385D01*
X41627Y-32326D01*
X41780Y-31946D01*
X41777Y-31536D01*
X41627Y-31174D01*
X41483Y-31088D01*
X40856Y-31715D01*
X40821Y-31750D01*
X40750Y-31821D01*
X40679Y-31750D01*
X40644Y-31715D01*
X40017Y-31088D01*
X39873Y-31174D01*
X39720Y-31554D01*
X39723Y-31964D01*
X39873Y-32326D01*
X39972Y-32385D01*
X39954Y-32404D01*
X36791Y-32404D01*
X36790Y-32404D01*
X36649Y-32432D01*
X36529Y-32512D01*
X36527Y-32514D01*
X33271Y-35769D01*
X33216Y-35714D01*
X33125Y-35676D01*
X33026Y-35676D01*
X32376Y-35676D01*
X32284Y-35714D01*
X32214Y-35784D01*
X32176Y-35875D01*
X32176Y-35974D01*
X32176Y-36624D01*
X32214Y-36716D01*
X32284Y-36786D01*
X32375Y-36824D01*
X32434Y-36824D01*
X32425Y-36854D01*
X32750Y-37179D01*
X33075Y-36854D01*
X33065Y-36824D01*
X33124Y-36824D01*
X33216Y-36786D01*
X33286Y-36716D01*
X33324Y-36625D01*
X33324Y-36619D01*
X33324Y-36618D01*
X33432Y-36596D01*
X33456Y-36592D01*
X33457Y-36592D01*
X33577Y-36512D01*
X36944Y-33144D01*
X38080Y-33144D01*
X38035Y-33189D01*
X37951Y-33391D01*
X37951Y-33609D01*
X38035Y-33811D01*
X38189Y-33965D01*
X38391Y-34049D01*
X38441Y-34049D01*
X39141Y-34749D01*
X39142Y-34750D01*
X39281Y-34843D01*
X39445Y-34875D01*
X39446Y-34876D01*
X47268Y-34876D01*
X54351Y-41959D01*
X54351Y-42129D01*
X54445Y-42357D01*
X54231Y-42357D01*
X52936Y-41062D01*
X52816Y-40982D01*
X52791Y-40977D01*
X52674Y-40953D01*
X52669Y-40954D01*
X40676Y-40954D01*
X40534Y-40982D01*
X40414Y-41062D01*
X39525Y-41951D01*
X39391Y-41951D01*
X39189Y-42035D01*
X39035Y-42189D01*
X38951Y-42391D01*
X38951Y-42609D01*
X39035Y-42811D01*
X39147Y-42923D01*
X38588Y-43483D01*
X38508Y-43603D01*
X38503Y-43625D01*
X38388Y-43510D01*
X38149Y-43411D01*
X37891Y-43411D01*
X37652Y-43510D01*
X37649Y-43513D01*
X37649Y-39129D01*
X37649Y-38871D01*
X37649Y-37129D01*
X37649Y-36871D01*
X37550Y-36632D01*
X37368Y-36450D01*
X37129Y-36351D01*
X36871Y-36351D01*
X36632Y-36450D01*
X36450Y-36632D01*
X36351Y-36871D01*
X36351Y-37129D01*
X36447Y-37363D01*
X35600Y-38211D01*
X35600Y-38082D01*
X35471Y-37770D01*
X35232Y-37530D01*
X34920Y-37400D01*
X34582Y-37400D01*
X34270Y-37529D01*
X34030Y-37768D01*
X33900Y-38080D01*
X33900Y-38418D01*
X34029Y-38730D01*
X34268Y-38970D01*
X34580Y-39100D01*
X34711Y-39100D01*
X34166Y-39645D01*
X34073Y-39784D01*
X34040Y-39949D01*
X34040Y-40792D01*
X33876Y-40860D01*
X33580Y-41155D01*
X33420Y-41540D01*
X33420Y-41958D01*
X33580Y-42344D01*
X33875Y-42640D01*
X34260Y-42800D01*
X34678Y-42800D01*
X35064Y-42640D01*
X35360Y-42345D01*
X35520Y-41960D01*
X35520Y-41542D01*
X35360Y-41156D01*
X35065Y-40860D01*
X34900Y-40791D01*
X34900Y-40127D01*
X37303Y-37724D01*
X37303Y-37723D01*
X37304Y-37723D01*
X37397Y-37584D01*
X37412Y-37505D01*
X37550Y-37368D01*
X37649Y-37129D01*
X37649Y-38871D01*
X37550Y-38632D01*
X37368Y-38450D01*
X37129Y-38351D01*
X36871Y-38351D01*
X36632Y-38450D01*
X36450Y-38632D01*
X36351Y-38871D01*
X36351Y-39129D01*
X36450Y-39368D01*
X36632Y-39550D01*
X36871Y-39649D01*
X37129Y-39649D01*
X37368Y-39550D01*
X37550Y-39368D01*
X37649Y-39129D01*
X37649Y-43513D01*
X37470Y-43692D01*
X37371Y-43931D01*
X37371Y-44189D01*
X37470Y-44428D01*
X37652Y-44610D01*
X37891Y-44709D01*
X38149Y-44709D01*
X38388Y-44610D01*
X38480Y-44518D01*
X38480Y-46406D01*
X36539Y-46406D01*
X36397Y-46434D01*
X36277Y-46514D01*
X36275Y-46516D01*
X35911Y-46880D01*
X33324Y-46880D01*
X33324Y-46876D01*
X33318Y-46861D01*
X33318Y-37334D01*
X33306Y-37111D01*
X33242Y-36954D01*
X33146Y-36925D01*
X32821Y-37250D01*
X33146Y-37575D01*
X33242Y-37546D01*
X33318Y-37334D01*
X33318Y-46861D01*
X33286Y-46784D01*
X33216Y-46714D01*
X33125Y-46676D01*
X33075Y-46676D01*
X33075Y-37646D01*
X32750Y-37321D01*
X32679Y-37392D01*
X32679Y-37250D01*
X32354Y-36925D01*
X32258Y-36954D01*
X32182Y-37166D01*
X32194Y-37389D01*
X32258Y-37546D01*
X32354Y-37575D01*
X32679Y-37250D01*
X32679Y-37392D01*
X32425Y-37646D01*
X32454Y-37742D01*
X32666Y-37818D01*
X32889Y-37806D01*
X33046Y-37742D01*
X33075Y-37646D01*
X33075Y-46676D01*
X33060Y-46676D01*
X33060Y-41940D01*
X33060Y-41562D01*
X32916Y-41213D01*
X32649Y-40945D01*
X32300Y-40800D01*
X32223Y-40800D01*
X32257Y-40786D01*
X32525Y-40519D01*
X32670Y-40170D01*
X32670Y-39792D01*
X32526Y-39443D01*
X32259Y-39175D01*
X31910Y-39030D01*
X31780Y-39030D01*
X31780Y-31946D01*
X31777Y-31536D01*
X31627Y-31174D01*
X31483Y-31088D01*
X30821Y-31750D01*
X31483Y-32412D01*
X31627Y-32326D01*
X31780Y-31946D01*
X31780Y-39030D01*
X31600Y-39030D01*
X31600Y-38420D01*
X31600Y-38082D01*
X31600Y-34420D01*
X31600Y-34082D01*
X31471Y-33770D01*
X31412Y-33710D01*
X31412Y-32483D01*
X30750Y-31821D01*
X30088Y-32483D01*
X30174Y-32627D01*
X30554Y-32780D01*
X30964Y-32777D01*
X31326Y-32627D01*
X31412Y-32483D01*
X31412Y-33710D01*
X31232Y-33530D01*
X30920Y-33400D01*
X30582Y-33400D01*
X30270Y-33529D01*
X30030Y-33768D01*
X29900Y-34080D01*
X29900Y-34418D01*
X30029Y-34730D01*
X30268Y-34970D01*
X30580Y-35100D01*
X30918Y-35100D01*
X31230Y-34971D01*
X31470Y-34732D01*
X31600Y-34420D01*
X31600Y-38082D01*
X31471Y-37770D01*
X31232Y-37530D01*
X30920Y-37400D01*
X30582Y-37400D01*
X30270Y-37529D01*
X30030Y-37768D01*
X29900Y-38080D01*
X29900Y-38418D01*
X30029Y-38730D01*
X30268Y-38970D01*
X30580Y-39100D01*
X30918Y-39100D01*
X31230Y-38971D01*
X31470Y-38732D01*
X31600Y-38420D01*
X31600Y-39030D01*
X31532Y-39030D01*
X31183Y-39174D01*
X30915Y-39441D01*
X30770Y-39790D01*
X30770Y-40168D01*
X30914Y-40517D01*
X31181Y-40785D01*
X31530Y-40930D01*
X31606Y-40930D01*
X31573Y-40944D01*
X31305Y-41211D01*
X31298Y-41227D01*
X31287Y-41216D01*
X31056Y-41120D01*
X30805Y-41120D01*
X30573Y-41216D01*
X30396Y-41393D01*
X30300Y-41624D01*
X30300Y-41875D01*
X30396Y-42107D01*
X30573Y-42284D01*
X30804Y-42380D01*
X31055Y-42380D01*
X31287Y-42284D01*
X31298Y-42272D01*
X31304Y-42287D01*
X31571Y-42555D01*
X31607Y-42570D01*
X31532Y-42570D01*
X31183Y-42714D01*
X30915Y-42981D01*
X30770Y-43330D01*
X30770Y-43708D01*
X30914Y-44057D01*
X31181Y-44325D01*
X31530Y-44470D01*
X31908Y-44470D01*
X32257Y-44326D01*
X32525Y-44059D01*
X32670Y-43710D01*
X32670Y-43332D01*
X32526Y-42983D01*
X32259Y-42715D01*
X32222Y-42700D01*
X32298Y-42700D01*
X32647Y-42556D01*
X32915Y-42289D01*
X33060Y-41940D01*
X33060Y-46676D01*
X33026Y-46676D01*
X32376Y-46676D01*
X32284Y-46714D01*
X32214Y-46784D01*
X32176Y-46875D01*
X32176Y-46974D01*
X32176Y-47624D01*
X32214Y-47716D01*
X32284Y-47786D01*
X32375Y-47824D01*
X32434Y-47824D01*
X32425Y-47854D01*
X32750Y-48179D01*
X33075Y-47854D01*
X33065Y-47824D01*
X33124Y-47824D01*
X33216Y-47786D01*
X33286Y-47716D01*
X33324Y-47625D01*
X33324Y-47620D01*
X36060Y-47620D01*
X36065Y-47621D01*
X36065Y-47620D01*
X36140Y-47605D01*
X36081Y-47750D01*
X36080Y-48247D01*
X36270Y-48707D01*
X36621Y-49059D01*
X37080Y-49249D01*
X37577Y-49250D01*
X38037Y-49060D01*
X38389Y-48709D01*
X38579Y-48250D01*
X38580Y-47753D01*
X38390Y-47293D01*
X38243Y-47146D01*
X38850Y-47146D01*
X40756Y-47146D01*
X40611Y-47291D01*
X40421Y-47750D01*
X40420Y-48247D01*
X40610Y-48707D01*
X40961Y-49059D01*
X41420Y-49249D01*
X41917Y-49250D01*
X42377Y-49060D01*
X42729Y-48709D01*
X42919Y-48250D01*
X42919Y-47856D01*
X43451Y-48388D01*
X43451Y-48424D01*
X43451Y-48674D01*
X43482Y-48749D01*
X43461Y-48798D01*
X43392Y-48770D01*
X43201Y-48770D01*
X43025Y-48843D01*
X42889Y-48978D01*
X42816Y-49154D01*
X42816Y-49345D01*
X42889Y-49521D01*
X42995Y-49628D01*
X43003Y-49665D01*
X43096Y-49804D01*
X43235Y-49897D01*
X43400Y-49930D01*
X43451Y-49930D01*
X43451Y-50174D01*
X43489Y-50266D01*
X43559Y-50336D01*
X43650Y-50374D01*
X43749Y-50374D01*
X44349Y-50374D01*
X44358Y-50370D01*
X44386Y-50370D01*
X44676Y-50659D01*
X44678Y-50662D01*
X44798Y-50742D01*
X44940Y-50770D01*
X46307Y-50770D01*
X46439Y-50825D01*
X46608Y-50825D01*
X46764Y-50761D01*
X46869Y-50655D01*
X46974Y-50759D01*
X46976Y-50762D01*
X47096Y-50842D01*
X47238Y-50870D01*
X60181Y-50870D01*
X60174Y-50873D01*
X60088Y-51017D01*
X60750Y-51679D01*
X61412Y-51017D01*
X61326Y-50873D01*
X61318Y-50870D01*
X63250Y-50870D01*
X63401Y-51021D01*
X63627Y-51115D01*
X63872Y-51115D01*
X64098Y-51021D01*
X64250Y-50869D01*
X64401Y-51021D01*
X64627Y-51115D01*
X64872Y-51115D01*
X65098Y-51021D01*
X65250Y-50869D01*
X65401Y-51021D01*
X65627Y-51115D01*
X65872Y-51115D01*
X66098Y-51021D01*
X66250Y-50869D01*
X66401Y-51021D01*
X66627Y-51115D01*
X66872Y-51115D01*
X67098Y-51021D01*
X67156Y-50963D01*
X67174Y-51006D01*
X67244Y-51076D01*
X67336Y-51114D01*
X67638Y-51115D01*
X67700Y-51053D01*
X67700Y-50600D01*
X67700Y-50550D01*
X67700Y-50450D01*
X67700Y-50400D01*
X67700Y-49947D01*
X67638Y-49885D01*
X67336Y-49886D01*
X67244Y-49924D01*
X67174Y-49994D01*
X67156Y-50036D01*
X67120Y-50000D01*
X67120Y-44548D01*
X68675Y-42992D01*
X68714Y-43084D01*
X68749Y-43093D01*
X68718Y-43125D01*
X68766Y-43173D01*
X68721Y-43219D01*
X68640Y-43414D01*
X68640Y-43625D01*
X68721Y-43820D01*
X68869Y-43969D01*
X69064Y-44050D01*
X69275Y-44050D01*
X69470Y-43969D01*
X69619Y-43821D01*
X69700Y-43626D01*
X69700Y-43415D01*
X69694Y-43400D01*
X69619Y-43220D01*
X69573Y-43173D01*
X69622Y-43125D01*
X69590Y-43093D01*
X69626Y-43084D01*
X69694Y-42889D01*
X69683Y-42683D01*
X69626Y-42546D01*
X69534Y-42522D01*
X69276Y-42780D01*
X69241Y-42815D01*
X69170Y-42886D01*
X69099Y-42815D01*
X69170Y-42744D01*
X69205Y-42709D01*
X69463Y-42451D01*
X69439Y-42359D01*
X69342Y-42325D01*
X70035Y-41633D01*
X70035Y-41905D01*
X70154Y-42194D01*
X70375Y-42415D01*
X70663Y-42535D01*
X70975Y-42535D01*
X71264Y-42416D01*
X71485Y-42195D01*
X71605Y-41907D01*
X71605Y-41595D01*
X71486Y-41306D01*
X71265Y-41085D01*
X70977Y-40965D01*
X70667Y-40965D01*
X70673Y-40956D01*
X70701Y-40814D01*
X70701Y-39918D01*
X70933Y-40015D01*
X71245Y-40015D01*
X71534Y-39896D01*
X71705Y-39725D01*
X71705Y-43828D01*
X71635Y-43796D01*
X71564Y-43867D01*
X71564Y-43725D01*
X71510Y-43607D01*
X71224Y-43496D01*
X70918Y-43504D01*
X70670Y-43607D01*
X70616Y-43725D01*
X71090Y-44199D01*
X71564Y-43725D01*
X71564Y-43867D01*
X71161Y-44270D01*
X71635Y-44744D01*
X71705Y-44711D01*
X71705Y-51362D01*
X71627Y-51174D01*
X71564Y-51136D01*
X71564Y-44815D01*
X71090Y-44341D01*
X71019Y-44412D01*
X71019Y-44270D01*
X70545Y-43796D01*
X70427Y-43850D01*
X70316Y-44136D01*
X70324Y-44442D01*
X70427Y-44690D01*
X70545Y-44744D01*
X71019Y-44270D01*
X71019Y-44412D01*
X70616Y-44815D01*
X70670Y-44933D01*
X70956Y-45044D01*
X71262Y-45036D01*
X71510Y-44933D01*
X71564Y-44815D01*
X71564Y-51136D01*
X71483Y-51088D01*
X71412Y-51159D01*
X71412Y-51017D01*
X71326Y-50873D01*
X70946Y-50720D01*
X70536Y-50723D01*
X70174Y-50873D01*
X70088Y-51017D01*
X70750Y-51679D01*
X71412Y-51017D01*
X71412Y-51159D01*
X70821Y-51750D01*
X71483Y-52412D01*
X71627Y-52326D01*
X71705Y-52132D01*
X71705Y-52705D01*
X71705Y-52705D01*
G37*
G54D33*
X71705Y-52705D02*
X71137Y-52705D01*
X71326Y-52627D01*
X71412Y-52483D01*
X70750Y-51821D01*
X70679Y-51892D01*
X70679Y-51750D01*
X70017Y-51088D01*
X69873Y-51174D01*
X69720Y-51554D01*
X69723Y-51964D01*
X69873Y-52326D01*
X70017Y-52412D01*
X70679Y-51750D01*
X70679Y-51892D01*
X70088Y-52483D01*
X70174Y-52627D01*
X70367Y-52705D01*
X69700Y-52705D01*
X68365Y-52705D01*
X68365Y-50612D01*
X68365Y-50388D01*
X68364Y-50184D01*
X68364Y-50085D01*
X68326Y-49994D01*
X68256Y-49924D01*
X68164Y-49886D01*
X67862Y-49885D01*
X67800Y-49947D01*
X67800Y-50450D01*
X68303Y-50450D01*
X68365Y-50388D01*
X68365Y-50612D01*
X68303Y-50550D01*
X67800Y-50550D01*
X67800Y-51053D01*
X67862Y-51115D01*
X68164Y-51114D01*
X68256Y-51076D01*
X68326Y-51006D01*
X68364Y-50915D01*
X68364Y-50816D01*
X68365Y-50612D01*
X68365Y-52705D01*
X61780Y-52705D01*
X61780Y-51946D01*
X61777Y-51536D01*
X61627Y-51174D01*
X61483Y-51088D01*
X60821Y-51750D01*
X61483Y-52412D01*
X61627Y-52326D01*
X61780Y-51946D01*
X61780Y-52705D01*
X61137Y-52705D01*
X61326Y-52627D01*
X61412Y-52483D01*
X60750Y-51821D01*
X60679Y-51892D01*
X60679Y-51750D01*
X60017Y-51088D01*
X59873Y-51174D01*
X59720Y-51554D01*
X59723Y-51964D01*
X59873Y-52326D01*
X60017Y-52412D01*
X60679Y-51750D01*
X60679Y-51892D01*
X60088Y-52483D01*
X60174Y-52627D01*
X60367Y-52705D01*
X41780Y-52705D01*
X41780Y-51946D01*
X41777Y-51536D01*
X41627Y-51174D01*
X41483Y-51088D01*
X41412Y-51159D01*
X41412Y-51017D01*
X41326Y-50873D01*
X40946Y-50720D01*
X40536Y-50723D01*
X40174Y-50873D01*
X40088Y-51017D01*
X40750Y-51679D01*
X41412Y-51017D01*
X41412Y-51159D01*
X40821Y-51750D01*
X41483Y-52412D01*
X41627Y-52326D01*
X41780Y-51946D01*
X41780Y-52705D01*
X41137Y-52705D01*
X41326Y-52627D01*
X41412Y-52483D01*
X40750Y-51821D01*
X40679Y-51892D01*
X40679Y-51750D01*
X40017Y-51088D01*
X39873Y-51174D01*
X39720Y-51554D01*
X39723Y-51964D01*
X39873Y-52326D01*
X40017Y-52412D01*
X40679Y-51750D01*
X40679Y-51892D01*
X40088Y-52483D01*
X40174Y-52627D01*
X40367Y-52705D01*
X35600Y-52705D01*
X35600Y-49420D01*
X35600Y-49082D01*
X35471Y-48770D01*
X35232Y-48530D01*
X34920Y-48400D01*
X34582Y-48400D01*
X34270Y-48529D01*
X34030Y-48768D01*
X33900Y-49080D01*
X33900Y-49418D01*
X34029Y-49730D01*
X34268Y-49970D01*
X34580Y-50100D01*
X34918Y-50100D01*
X35230Y-49971D01*
X35470Y-49732D01*
X35600Y-49420D01*
X35600Y-52705D01*
X33318Y-52705D01*
X33318Y-48334D01*
X33306Y-48111D01*
X33242Y-47954D01*
X33146Y-47925D01*
X32821Y-48250D01*
X33146Y-48575D01*
X33242Y-48546D01*
X33318Y-48334D01*
X33318Y-52705D01*
X33075Y-52705D01*
X33075Y-48646D01*
X32750Y-48321D01*
X32679Y-48392D01*
X32679Y-48250D01*
X32354Y-47925D01*
X32258Y-47954D01*
X32182Y-48166D01*
X32194Y-48389D01*
X32258Y-48546D01*
X32354Y-48575D01*
X32679Y-48250D01*
X32679Y-48392D01*
X32425Y-48646D01*
X32454Y-48742D01*
X32666Y-48818D01*
X32889Y-48806D01*
X33046Y-48742D01*
X33075Y-48646D01*
X33075Y-52705D01*
X31780Y-52705D01*
X31780Y-51946D01*
X31777Y-51536D01*
X31627Y-51174D01*
X31600Y-51157D01*
X31600Y-49420D01*
X31600Y-49082D01*
X31600Y-45420D01*
X31600Y-45082D01*
X31471Y-44770D01*
X31232Y-44530D01*
X30920Y-44400D01*
X30582Y-44400D01*
X30270Y-44529D01*
X30030Y-44768D01*
X29900Y-45080D01*
X29900Y-45418D01*
X30029Y-45730D01*
X30268Y-45970D01*
X30580Y-46100D01*
X30918Y-46100D01*
X31230Y-45971D01*
X31470Y-45732D01*
X31600Y-45420D01*
X31600Y-49082D01*
X31471Y-48770D01*
X31232Y-48530D01*
X30920Y-48400D01*
X30582Y-48400D01*
X30270Y-48529D01*
X30030Y-48768D01*
X29900Y-49080D01*
X29900Y-49418D01*
X30029Y-49730D01*
X30268Y-49970D01*
X30580Y-50100D01*
X30918Y-50100D01*
X31230Y-49971D01*
X31470Y-49732D01*
X31600Y-49420D01*
X31600Y-51157D01*
X31483Y-51088D01*
X31412Y-51159D01*
X31412Y-51017D01*
X31326Y-50873D01*
X30946Y-50720D01*
X30536Y-50723D01*
X30174Y-50873D01*
X30088Y-51017D01*
X30750Y-51679D01*
X31412Y-51017D01*
X31412Y-51159D01*
X30821Y-51750D01*
X31483Y-52412D01*
X31627Y-52326D01*
X31780Y-51946D01*
X31780Y-52705D01*
X31137Y-52705D01*
X31326Y-52627D01*
X31412Y-52483D01*
X30750Y-51821D01*
X30088Y-52483D01*
X30174Y-52627D01*
X30367Y-52705D01*
X29795Y-52705D01*
X29795Y-52137D01*
X29873Y-52326D01*
X30017Y-52412D01*
X30679Y-51750D01*
X30017Y-51088D01*
X29873Y-51174D01*
X29795Y-51367D01*
X29795Y-32137D01*
X29873Y-32326D01*
X30017Y-32412D01*
X30679Y-31750D01*
X30017Y-31088D01*
X29873Y-31174D01*
X29795Y-31367D01*
X29795Y-30795D01*
X30362Y-30795D01*
X30174Y-30873D01*
X30088Y-31017D01*
X30750Y-31679D01*
X31412Y-31017D01*
X31326Y-30873D01*
X31132Y-30795D01*
X40362Y-30795D01*
X40174Y-30873D01*
X40088Y-31017D01*
X40750Y-31679D01*
X41412Y-31017D01*
X41326Y-30873D01*
X41132Y-30795D01*
X60362Y-30795D01*
X60174Y-30873D01*
X60088Y-31017D01*
X60750Y-31679D01*
X61412Y-31017D01*
X61326Y-30873D01*
X61132Y-30795D01*
X70362Y-30795D01*
X70174Y-30873D01*
X70088Y-31017D01*
X70750Y-31679D01*
X71412Y-31017D01*
X71326Y-30873D01*
X71132Y-30795D01*
X71705Y-30795D01*
X71705Y-31362D01*
X71627Y-31174D01*
X71483Y-31088D01*
X70821Y-31750D01*
X71483Y-32412D01*
X71627Y-32326D01*
X71705Y-32132D01*
X71705Y-38735D01*
X71535Y-38565D01*
X71412Y-38513D01*
X71412Y-32483D01*
X70750Y-31821D01*
X70679Y-31892D01*
X70679Y-31750D01*
X70017Y-31088D01*
X69873Y-31174D01*
X69720Y-31554D01*
X69723Y-31964D01*
X69873Y-32326D01*
X70017Y-32412D01*
X70679Y-31750D01*
X70679Y-31892D01*
X70088Y-32483D01*
X70174Y-32627D01*
X70554Y-32780D01*
X70964Y-32777D01*
X71326Y-32627D01*
X71412Y-32483D01*
X71412Y-38513D01*
X71247Y-38445D01*
X70935Y-38445D01*
X70646Y-38564D01*
X70425Y-38785D01*
X70358Y-38943D01*
X63928Y-32512D01*
X63808Y-32432D01*
X63783Y-32427D01*
X63666Y-32403D01*
X63661Y-32404D01*
X61545Y-32404D01*
X61527Y-32385D01*
X61627Y-32326D01*
X61780Y-31946D01*
X61777Y-31536D01*
X61627Y-31174D01*
X61483Y-31088D01*
X60856Y-31715D01*
X60821Y-31750D01*
X60750Y-31821D01*
X60679Y-31750D01*
X60644Y-31715D01*
X60017Y-31088D01*
X59873Y-31174D01*
X59720Y-31554D01*
X59723Y-31964D01*
X59873Y-32326D01*
X59972Y-32385D01*
X59954Y-32404D01*
X41545Y-32404D01*
X41527Y-32385D01*
X41627Y-32326D01*
X41780Y-31946D01*
X41777Y-31536D01*
X41627Y-31174D01*
X41483Y-31088D01*
X40856Y-31715D01*
X40821Y-31750D01*
X40750Y-31821D01*
X40679Y-31750D01*
X40644Y-31715D01*
X40017Y-31088D01*
X39873Y-31174D01*
X39720Y-31554D01*
X39723Y-31964D01*
X39873Y-32326D01*
X39972Y-32385D01*
X39954Y-32404D01*
X36791Y-32404D01*
X36790Y-32404D01*
X36649Y-32432D01*
X36529Y-32512D01*
X36527Y-32514D01*
X33271Y-35769D01*
X33216Y-35714D01*
X33125Y-35676D01*
X33026Y-35676D01*
X32376Y-35676D01*
X32284Y-35714D01*
X32214Y-35784D01*
X32176Y-35875D01*
X32176Y-35974D01*
X32176Y-36624D01*
X32214Y-36716D01*
X32284Y-36786D01*
X32375Y-36824D01*
X32434Y-36824D01*
X32425Y-36854D01*
X32750Y-37179D01*
X33075Y-36854D01*
X33065Y-36824D01*
X33124Y-36824D01*
X33216Y-36786D01*
X33286Y-36716D01*
X33324Y-36625D01*
X33324Y-36619D01*
X33324Y-36618D01*
X33432Y-36596D01*
X33456Y-36592D01*
X33457Y-36592D01*
X33577Y-36512D01*
X36944Y-33144D01*
X38080Y-33144D01*
X38035Y-33189D01*
X37951Y-33391D01*
X37951Y-33609D01*
X38035Y-33811D01*
X38189Y-33965D01*
X38391Y-34049D01*
X38441Y-34049D01*
X39141Y-34749D01*
X39142Y-34750D01*
X39281Y-34843D01*
X39445Y-34875D01*
X39446Y-34876D01*
X47268Y-34876D01*
X54351Y-41959D01*
X54351Y-42129D01*
X54445Y-42357D01*
X54231Y-42357D01*
X52936Y-41062D01*
X52816Y-40982D01*
X52791Y-40977D01*
X52674Y-40953D01*
X52669Y-40954D01*
X40676Y-40954D01*
X40534Y-40982D01*
X40414Y-41062D01*
X39525Y-41951D01*
X39391Y-41951D01*
X39189Y-42035D01*
X39035Y-42189D01*
X38951Y-42391D01*
X38951Y-42609D01*
X39035Y-42811D01*
X39147Y-42923D01*
X38588Y-43483D01*
X38508Y-43603D01*
X38503Y-43625D01*
X38388Y-43510D01*
X38149Y-43411D01*
X37891Y-43411D01*
X37652Y-43510D01*
X37649Y-43513D01*
X37649Y-39129D01*
X37649Y-38871D01*
X37649Y-37129D01*
X37649Y-36871D01*
X37550Y-36632D01*
X37368Y-36450D01*
X37129Y-36351D01*
X36871Y-36351D01*
X36632Y-36450D01*
X36450Y-36632D01*
X36351Y-36871D01*
X36351Y-37129D01*
X36447Y-37363D01*
X35600Y-38211D01*
X35600Y-38082D01*
X35471Y-37770D01*
X35232Y-37530D01*
X34920Y-37400D01*
X34582Y-37400D01*
X34270Y-37529D01*
X34030Y-37768D01*
X33900Y-38080D01*
X33900Y-38418D01*
X34029Y-38730D01*
X34268Y-38970D01*
X34580Y-39100D01*
X34711Y-39100D01*
X34166Y-39645D01*
X34073Y-39784D01*
X34040Y-39949D01*
X34040Y-40792D01*
X33876Y-40860D01*
X33580Y-41155D01*
X33420Y-41540D01*
X33420Y-41958D01*
X33580Y-42344D01*
X33875Y-42640D01*
X34260Y-42800D01*
X34678Y-42800D01*
X35064Y-42640D01*
X35360Y-42345D01*
X35520Y-41960D01*
X35520Y-41542D01*
X35360Y-41156D01*
X35065Y-40860D01*
X34900Y-40791D01*
X34900Y-40127D01*
X37303Y-37724D01*
X37303Y-37723D01*
X37304Y-37723D01*
X37397Y-37584D01*
X37412Y-37505D01*
X37550Y-37368D01*
X37649Y-37129D01*
X37649Y-38871D01*
X37550Y-38632D01*
X37368Y-38450D01*
X37129Y-38351D01*
X36871Y-38351D01*
X36632Y-38450D01*
X36450Y-38632D01*
X36351Y-38871D01*
X36351Y-39129D01*
X36450Y-39368D01*
X36632Y-39550D01*
X36871Y-39649D01*
X37129Y-39649D01*
X37368Y-39550D01*
X37550Y-39368D01*
X37649Y-39129D01*
X37649Y-43513D01*
X37470Y-43692D01*
X37371Y-43931D01*
X37371Y-44189D01*
X37470Y-44428D01*
X37652Y-44610D01*
X37891Y-44709D01*
X38149Y-44709D01*
X38388Y-44610D01*
X38480Y-44518D01*
X38480Y-46406D01*
X36539Y-46406D01*
X36397Y-46434D01*
X36277Y-46514D01*
X36275Y-46516D01*
X35911Y-46880D01*
X33324Y-46880D01*
X33324Y-46876D01*
X33318Y-46861D01*
X33318Y-37334D01*
X33306Y-37111D01*
X33242Y-36954D01*
X33146Y-36925D01*
X32821Y-37250D01*
X33146Y-37575D01*
X33242Y-37546D01*
X33318Y-37334D01*
X33318Y-46861D01*
X33286Y-46784D01*
X33216Y-46714D01*
X33125Y-46676D01*
X33075Y-46676D01*
X33075Y-37646D01*
X32750Y-37321D01*
X32679Y-37392D01*
X32679Y-37250D01*
X32354Y-36925D01*
X32258Y-36954D01*
X32182Y-37166D01*
X32194Y-37389D01*
X32258Y-37546D01*
X32354Y-37575D01*
X32679Y-37250D01*
X32679Y-37392D01*
X32425Y-37646D01*
X32454Y-37742D01*
X32666Y-37818D01*
X32889Y-37806D01*
X33046Y-37742D01*
X33075Y-37646D01*
X33075Y-46676D01*
X33060Y-46676D01*
X33060Y-41940D01*
X33060Y-41562D01*
X32916Y-41213D01*
X32649Y-40945D01*
X32300Y-40800D01*
X32223Y-40800D01*
X32257Y-40786D01*
X32525Y-40519D01*
X32670Y-40170D01*
X32670Y-39792D01*
X32526Y-39443D01*
X32259Y-39175D01*
X31910Y-39030D01*
X31780Y-39030D01*
X31780Y-31946D01*
X31777Y-31536D01*
X31627Y-31174D01*
X31483Y-31088D01*
X30821Y-31750D01*
X31483Y-32412D01*
X31627Y-32326D01*
X31780Y-31946D01*
X31780Y-39030D01*
X31600Y-39030D01*
X31600Y-38420D01*
X31600Y-38082D01*
X31600Y-34420D01*
X31600Y-34082D01*
X31471Y-33770D01*
X31412Y-33710D01*
X31412Y-32483D01*
X30750Y-31821D01*
X30088Y-32483D01*
X30174Y-32627D01*
X30554Y-32780D01*
X30964Y-32777D01*
X31326Y-32627D01*
X31412Y-32483D01*
X31412Y-33710D01*
X31232Y-33530D01*
X30920Y-33400D01*
X30582Y-33400D01*
X30270Y-33529D01*
X30030Y-33768D01*
X29900Y-34080D01*
X29900Y-34418D01*
X30029Y-34730D01*
X30268Y-34970D01*
X30580Y-35100D01*
X30918Y-35100D01*
X31230Y-34971D01*
X31470Y-34732D01*
X31600Y-34420D01*
X31600Y-38082D01*
X31471Y-37770D01*
X31232Y-37530D01*
X30920Y-37400D01*
X30582Y-37400D01*
X30270Y-37529D01*
X30030Y-37768D01*
X29900Y-38080D01*
X29900Y-38418D01*
X30029Y-38730D01*
X30268Y-38970D01*
X30580Y-39100D01*
X30918Y-39100D01*
X31230Y-38971D01*
X31470Y-38732D01*
X31600Y-38420D01*
X31600Y-39030D01*
X31532Y-39030D01*
X31183Y-39174D01*
X30915Y-39441D01*
X30770Y-39790D01*
X30770Y-40168D01*
X30914Y-40517D01*
X31181Y-40785D01*
X31530Y-40930D01*
X31606Y-40930D01*
X31573Y-40944D01*
X31305Y-41211D01*
X31298Y-41227D01*
X31287Y-41216D01*
X31056Y-41120D01*
X30805Y-41120D01*
X30573Y-41216D01*
X30396Y-41393D01*
X30300Y-41624D01*
X30300Y-41875D01*
X30396Y-42107D01*
X30573Y-42284D01*
X30804Y-42380D01*
X31055Y-42380D01*
X31287Y-42284D01*
X31298Y-42272D01*
X31304Y-42287D01*
X31571Y-42555D01*
X31607Y-42570D01*
X31532Y-42570D01*
X31183Y-42714D01*
X30915Y-42981D01*
X30770Y-43330D01*
X30770Y-43708D01*
X30914Y-44057D01*
X31181Y-44325D01*
X31530Y-44470D01*
X31908Y-44470D01*
X32257Y-44326D01*
X32525Y-44059D01*
X32670Y-43710D01*
X32670Y-43332D01*
X32526Y-42983D01*
X32259Y-42715D01*
X32222Y-42700D01*
X32298Y-42700D01*
X32647Y-42556D01*
X32915Y-42289D01*
X33060Y-41940D01*
X33060Y-46676D01*
X33026Y-46676D01*
X32376Y-46676D01*
X32284Y-46714D01*
X32214Y-46784D01*
X32176Y-46875D01*
X32176Y-46974D01*
X32176Y-47624D01*
X32214Y-47716D01*
X32284Y-47786D01*
X32375Y-47824D01*
X32434Y-47824D01*
X32425Y-47854D01*
X32750Y-48179D01*
X33075Y-47854D01*
X33065Y-47824D01*
X33124Y-47824D01*
X33216Y-47786D01*
X33286Y-47716D01*
X33324Y-47625D01*
X33324Y-47620D01*
X36060Y-47620D01*
X36065Y-47621D01*
X36065Y-47620D01*
X36140Y-47605D01*
X36081Y-47750D01*
X36080Y-48247D01*
X36270Y-48707D01*
X36621Y-49059D01*
X37080Y-49249D01*
X37577Y-49250D01*
X38037Y-49060D01*
X38389Y-48709D01*
X38579Y-48250D01*
X38580Y-47753D01*
X38390Y-47293D01*
X38243Y-47146D01*
X38850Y-47146D01*
X40756Y-47146D01*
X40611Y-47291D01*
X40421Y-47750D01*
X40420Y-48247D01*
X40610Y-48707D01*
X40961Y-49059D01*
X41420Y-49249D01*
X41917Y-49250D01*
X42377Y-49060D01*
X42729Y-48709D01*
X42919Y-48250D01*
X42919Y-47856D01*
X43451Y-48388D01*
X43451Y-48424D01*
X43451Y-48674D01*
X43482Y-48749D01*
X43461Y-48798D01*
X43392Y-48770D01*
X43201Y-48770D01*
X43025Y-48843D01*
X42889Y-48978D01*
X42816Y-49154D01*
X42816Y-49345D01*
X42889Y-49521D01*
X42995Y-49628D01*
X43003Y-49665D01*
X43096Y-49804D01*
X43235Y-49897D01*
X43400Y-49930D01*
X43451Y-49930D01*
X43451Y-50174D01*
X43489Y-50266D01*
X43559Y-50336D01*
X43650Y-50374D01*
X43749Y-50374D01*
X44349Y-50374D01*
X44358Y-50370D01*
X44386Y-50370D01*
X44676Y-50659D01*
X44678Y-50662D01*
X44798Y-50742D01*
X44940Y-50770D01*
X46307Y-50770D01*
X46439Y-50825D01*
X46608Y-50825D01*
X46764Y-50761D01*
X46869Y-50655D01*
X46974Y-50759D01*
X46976Y-50762D01*
X47096Y-50842D01*
X47238Y-50870D01*
X60181Y-50870D01*
X60174Y-50873D01*
X60088Y-51017D01*
X60750Y-51679D01*
X61412Y-51017D01*
X61326Y-50873D01*
X61318Y-50870D01*
X63250Y-50870D01*
X63401Y-51021D01*
X63627Y-51115D01*
X63872Y-51115D01*
X64098Y-51021D01*
X64250Y-50869D01*
X64401Y-51021D01*
X64627Y-51115D01*
X64872Y-51115D01*
X65098Y-51021D01*
X65250Y-50869D01*
X65401Y-51021D01*
X65627Y-51115D01*
X65872Y-51115D01*
X66098Y-51021D01*
X66250Y-50869D01*
X66401Y-51021D01*
X66627Y-51115D01*
X66872Y-51115D01*
X67098Y-51021D01*
X67156Y-50963D01*
X67174Y-51006D01*
X67244Y-51076D01*
X67336Y-51114D01*
X67638Y-51115D01*
X67700Y-51053D01*
X67700Y-50600D01*
X67700Y-50550D01*
X67700Y-50450D01*
X67700Y-50400D01*
X67700Y-49947D01*
X67638Y-49885D01*
X67336Y-49886D01*
X67244Y-49924D01*
X67174Y-49994D01*
X67156Y-50036D01*
X67120Y-50000D01*
X67120Y-44548D01*
X68675Y-42992D01*
X68714Y-43084D01*
X68749Y-43093D01*
X68718Y-43125D01*
X68766Y-43173D01*
X68721Y-43219D01*
X68640Y-43414D01*
X68640Y-43625D01*
X68721Y-43820D01*
X68869Y-43969D01*
X69064Y-44050D01*
X69275Y-44050D01*
X69470Y-43969D01*
X69619Y-43821D01*
X69700Y-43626D01*
X69700Y-43415D01*
X69694Y-43400D01*
X69619Y-43220D01*
X69573Y-43173D01*
X69622Y-43125D01*
X69590Y-43093D01*
X69626Y-43084D01*
X69694Y-42889D01*
X69683Y-42683D01*
X69626Y-42546D01*
X69534Y-42522D01*
X69276Y-42780D01*
X69241Y-42815D01*
X69170Y-42886D01*
X69099Y-42815D01*
X69170Y-42744D01*
X69205Y-42709D01*
X69463Y-42451D01*
X69439Y-42359D01*
X69342Y-42325D01*
X70035Y-41633D01*
X70035Y-41905D01*
X70154Y-42194D01*
X70375Y-42415D01*
X70663Y-42535D01*
X70975Y-42535D01*
X71264Y-42416D01*
X71485Y-42195D01*
X71605Y-41907D01*
X71605Y-41595D01*
X71486Y-41306D01*
X71265Y-41085D01*
X70977Y-40965D01*
X70667Y-40965D01*
X70673Y-40956D01*
X70701Y-40814D01*
X70701Y-39918D01*
X70933Y-40015D01*
X71245Y-40015D01*
X71534Y-39896D01*
X71705Y-39725D01*
X71705Y-43828D01*
X71635Y-43796D01*
X71564Y-43867D01*
X71564Y-43725D01*
X71510Y-43607D01*
X71224Y-43496D01*
X70918Y-43504D01*
X70670Y-43607D01*
X70616Y-43725D01*
X71090Y-44199D01*
X71564Y-43725D01*
X71564Y-43867D01*
X71161Y-44270D01*
X71635Y-44744D01*
X71705Y-44711D01*
X71705Y-51362D01*
X71627Y-51174D01*
X71564Y-51136D01*
X71564Y-44815D01*
X71090Y-44341D01*
X71019Y-44412D01*
X71019Y-44270D01*
X70545Y-43796D01*
X70427Y-43850D01*
X70316Y-44136D01*
X70324Y-44442D01*
X70427Y-44690D01*
X70545Y-44744D01*
X71019Y-44270D01*
X71019Y-44412D01*
X70616Y-44815D01*
X70670Y-44933D01*
X70956Y-45044D01*
X71262Y-45036D01*
X71510Y-44933D01*
X71564Y-44815D01*
X71564Y-51136D01*
X71483Y-51088D01*
X71412Y-51159D01*
X71412Y-51017D01*
X71326Y-50873D01*
X70946Y-50720D01*
X70536Y-50723D01*
X70174Y-50873D01*
X70088Y-51017D01*
X70750Y-51679D01*
X71412Y-51017D01*
X71412Y-51159D01*
X70821Y-51750D01*
X71483Y-52412D01*
X71627Y-52326D01*
X71705Y-52132D01*
X71705Y-52705D01*
M02*
