G04 (created by PCBNEW-RS274X (2010-03-14)-final) date Sun 12 Jun 2011 03:53:41 PM PDT*
G01*
G70*
G90*
%MOIN*%
G04 Gerber Fmt 3.4, Leading zero omitted, Abs format*
%FSLAX34Y34*%
G04 APERTURE LIST*
%ADD10C,0.006000*%
%ADD11C,0.009000*%
%ADD12C,0.015000*%
%ADD13C,0.005000*%
%ADD14C,0.006700*%
G04 APERTURE END LIST*
G54D10*
G54D11*
X52250Y-29000D02*
X52250Y-54000D01*
X64750Y-29000D02*
X52250Y-29000D01*
X64750Y-54000D02*
X64750Y-29000D01*
X52250Y-54000D02*
X64750Y-54000D01*
G54D12*
X58400Y-41700D02*
X58396Y-41738D01*
X58384Y-41776D01*
X58366Y-41810D01*
X58341Y-41840D01*
X58311Y-41865D01*
X58277Y-41884D01*
X58240Y-41895D01*
X58201Y-41899D01*
X58163Y-41896D01*
X58126Y-41885D01*
X58091Y-41867D01*
X58061Y-41842D01*
X58035Y-41812D01*
X58017Y-41778D01*
X58005Y-41741D01*
X58001Y-41702D01*
X58004Y-41664D01*
X58015Y-41627D01*
X58032Y-41592D01*
X58057Y-41562D01*
X58086Y-41536D01*
X58120Y-41517D01*
X58158Y-41505D01*
X58196Y-41501D01*
X58234Y-41504D01*
X58272Y-41514D01*
X58307Y-41532D01*
X58337Y-41556D01*
X58363Y-41585D01*
X58382Y-41619D01*
X58395Y-41656D01*
X58399Y-41695D01*
X58400Y-41700D01*
X57800Y-42100D02*
X57800Y-40000D01*
X57800Y-40000D02*
X59200Y-40000D01*
X59200Y-40000D02*
X59200Y-42100D01*
X59200Y-42100D02*
X57800Y-42100D01*
G54D13*
X56170Y-40050D02*
X56168Y-40063D01*
X56164Y-40076D01*
X56158Y-40088D01*
X56149Y-40099D01*
X56139Y-40108D01*
X56127Y-40114D01*
X56114Y-40118D01*
X56100Y-40119D01*
X56087Y-40118D01*
X56074Y-40114D01*
X56062Y-40108D01*
X56052Y-40100D01*
X56043Y-40089D01*
X56036Y-40077D01*
X56032Y-40064D01*
X56031Y-40050D01*
X56032Y-40038D01*
X56035Y-40025D01*
X56042Y-40013D01*
X56050Y-40002D01*
X56061Y-39993D01*
X56072Y-39986D01*
X56085Y-39982D01*
X56099Y-39981D01*
X56112Y-39982D01*
X56125Y-39985D01*
X56137Y-39991D01*
X56148Y-40000D01*
X56157Y-40010D01*
X56163Y-40022D01*
X56168Y-40035D01*
X56169Y-40049D01*
X56170Y-40050D01*
X54950Y-40700D02*
X54950Y-40100D01*
X54950Y-40100D02*
X56050Y-40100D01*
X56050Y-40100D02*
X56050Y-40700D01*
X56050Y-41300D02*
X56050Y-41900D01*
X56050Y-41900D02*
X54950Y-41900D01*
X54950Y-41900D02*
X54950Y-41300D01*
X62170Y-40050D02*
X62168Y-40063D01*
X62164Y-40076D01*
X62158Y-40088D01*
X62149Y-40099D01*
X62139Y-40108D01*
X62127Y-40114D01*
X62114Y-40118D01*
X62100Y-40119D01*
X62087Y-40118D01*
X62074Y-40114D01*
X62062Y-40108D01*
X62052Y-40100D01*
X62043Y-40089D01*
X62036Y-40077D01*
X62032Y-40064D01*
X62031Y-40050D01*
X62032Y-40038D01*
X62035Y-40025D01*
X62042Y-40013D01*
X62050Y-40002D01*
X62061Y-39993D01*
X62072Y-39986D01*
X62085Y-39982D01*
X62099Y-39981D01*
X62112Y-39982D01*
X62125Y-39985D01*
X62137Y-39991D01*
X62148Y-40000D01*
X62157Y-40010D01*
X62163Y-40022D01*
X62168Y-40035D01*
X62169Y-40049D01*
X62170Y-40050D01*
X60950Y-40700D02*
X60950Y-40100D01*
X60950Y-40100D02*
X62050Y-40100D01*
X62050Y-40100D02*
X62050Y-40700D01*
X62050Y-41300D02*
X62050Y-41900D01*
X62050Y-41900D02*
X60950Y-41900D01*
X60950Y-41900D02*
X60950Y-41300D01*
X59470Y-46700D02*
X59468Y-46713D01*
X59464Y-46726D01*
X59458Y-46738D01*
X59449Y-46749D01*
X59439Y-46758D01*
X59427Y-46764D01*
X59414Y-46768D01*
X59400Y-46769D01*
X59387Y-46768D01*
X59374Y-46764D01*
X59362Y-46758D01*
X59352Y-46750D01*
X59343Y-46739D01*
X59336Y-46727D01*
X59332Y-46714D01*
X59331Y-46700D01*
X59332Y-46688D01*
X59335Y-46675D01*
X59342Y-46663D01*
X59350Y-46652D01*
X59361Y-46643D01*
X59372Y-46636D01*
X59385Y-46632D01*
X59399Y-46631D01*
X59412Y-46632D01*
X59425Y-46635D01*
X59437Y-46641D01*
X59448Y-46650D01*
X59457Y-46660D01*
X59463Y-46672D01*
X59468Y-46685D01*
X59469Y-46699D01*
X59470Y-46700D01*
X60550Y-46050D02*
X60550Y-46650D01*
X60550Y-46650D02*
X59450Y-46650D01*
X59450Y-46650D02*
X59450Y-46050D01*
X59450Y-45450D02*
X59450Y-44850D01*
X59450Y-44850D02*
X60550Y-44850D01*
X60550Y-44850D02*
X60550Y-45450D01*
X62470Y-46700D02*
X62468Y-46713D01*
X62464Y-46726D01*
X62458Y-46738D01*
X62449Y-46749D01*
X62439Y-46758D01*
X62427Y-46764D01*
X62414Y-46768D01*
X62400Y-46769D01*
X62387Y-46768D01*
X62374Y-46764D01*
X62362Y-46758D01*
X62352Y-46750D01*
X62343Y-46739D01*
X62336Y-46727D01*
X62332Y-46714D01*
X62331Y-46700D01*
X62332Y-46688D01*
X62335Y-46675D01*
X62342Y-46663D01*
X62350Y-46652D01*
X62361Y-46643D01*
X62372Y-46636D01*
X62385Y-46632D01*
X62399Y-46631D01*
X62412Y-46632D01*
X62425Y-46635D01*
X62437Y-46641D01*
X62448Y-46650D01*
X62457Y-46660D01*
X62463Y-46672D01*
X62468Y-46685D01*
X62469Y-46699D01*
X62470Y-46700D01*
X63550Y-46050D02*
X63550Y-46650D01*
X63550Y-46650D02*
X62450Y-46650D01*
X62450Y-46650D02*
X62450Y-46050D01*
X62450Y-45450D02*
X62450Y-44850D01*
X62450Y-44850D02*
X63550Y-44850D01*
X63550Y-44850D02*
X63550Y-45450D01*
X57670Y-44800D02*
X57668Y-44813D01*
X57664Y-44826D01*
X57658Y-44838D01*
X57649Y-44849D01*
X57639Y-44858D01*
X57627Y-44864D01*
X57614Y-44868D01*
X57600Y-44869D01*
X57587Y-44868D01*
X57574Y-44864D01*
X57562Y-44858D01*
X57552Y-44850D01*
X57543Y-44839D01*
X57536Y-44827D01*
X57532Y-44814D01*
X57531Y-44800D01*
X57532Y-44788D01*
X57535Y-44775D01*
X57542Y-44763D01*
X57550Y-44752D01*
X57561Y-44743D01*
X57572Y-44736D01*
X57585Y-44732D01*
X57599Y-44731D01*
X57612Y-44732D01*
X57625Y-44735D01*
X57637Y-44741D01*
X57648Y-44750D01*
X57657Y-44760D01*
X57663Y-44772D01*
X57668Y-44785D01*
X57669Y-44799D01*
X57670Y-44800D01*
X56450Y-45450D02*
X56450Y-44850D01*
X56450Y-44850D02*
X57550Y-44850D01*
X57550Y-44850D02*
X57550Y-45450D01*
X57550Y-46050D02*
X57550Y-46650D01*
X57550Y-46650D02*
X56450Y-46650D01*
X56450Y-46650D02*
X56450Y-46050D01*
X54670Y-44800D02*
X54668Y-44813D01*
X54664Y-44826D01*
X54658Y-44838D01*
X54649Y-44849D01*
X54639Y-44858D01*
X54627Y-44864D01*
X54614Y-44868D01*
X54600Y-44869D01*
X54587Y-44868D01*
X54574Y-44864D01*
X54562Y-44858D01*
X54552Y-44850D01*
X54543Y-44839D01*
X54536Y-44827D01*
X54532Y-44814D01*
X54531Y-44800D01*
X54532Y-44788D01*
X54535Y-44775D01*
X54542Y-44763D01*
X54550Y-44752D01*
X54561Y-44743D01*
X54572Y-44736D01*
X54585Y-44732D01*
X54599Y-44731D01*
X54612Y-44732D01*
X54625Y-44735D01*
X54637Y-44741D01*
X54648Y-44750D01*
X54657Y-44760D01*
X54663Y-44772D01*
X54668Y-44785D01*
X54669Y-44799D01*
X54670Y-44800D01*
X53450Y-45450D02*
X53450Y-44850D01*
X53450Y-44850D02*
X54550Y-44850D01*
X54550Y-44850D02*
X54550Y-45450D01*
X54550Y-46050D02*
X54550Y-46650D01*
X54550Y-46650D02*
X53450Y-46650D01*
X53450Y-46650D02*
X53450Y-46050D01*
X57420Y-48050D02*
X57418Y-48063D01*
X57414Y-48076D01*
X57408Y-48088D01*
X57399Y-48099D01*
X57389Y-48108D01*
X57377Y-48114D01*
X57364Y-48118D01*
X57350Y-48119D01*
X57337Y-48118D01*
X57324Y-48114D01*
X57312Y-48108D01*
X57302Y-48100D01*
X57293Y-48089D01*
X57286Y-48077D01*
X57282Y-48064D01*
X57281Y-48050D01*
X57282Y-48038D01*
X57285Y-48025D01*
X57292Y-48013D01*
X57300Y-48002D01*
X57311Y-47993D01*
X57322Y-47986D01*
X57335Y-47982D01*
X57349Y-47981D01*
X57362Y-47982D01*
X57375Y-47985D01*
X57387Y-47991D01*
X57398Y-48000D01*
X57407Y-48010D01*
X57413Y-48022D01*
X57418Y-48035D01*
X57419Y-48049D01*
X57420Y-48050D01*
X56200Y-48700D02*
X56200Y-48100D01*
X56200Y-48100D02*
X57300Y-48100D01*
X57300Y-48100D02*
X57300Y-48700D01*
X57300Y-49300D02*
X57300Y-49900D01*
X57300Y-49900D02*
X56200Y-49900D01*
X56200Y-49900D02*
X56200Y-49300D01*
X57620Y-42900D02*
X57618Y-42913D01*
X57614Y-42926D01*
X57608Y-42938D01*
X57599Y-42949D01*
X57589Y-42958D01*
X57577Y-42964D01*
X57564Y-42968D01*
X57550Y-42969D01*
X57537Y-42968D01*
X57524Y-42964D01*
X57512Y-42958D01*
X57502Y-42950D01*
X57493Y-42939D01*
X57486Y-42927D01*
X57482Y-42914D01*
X57481Y-42900D01*
X57482Y-42888D01*
X57485Y-42875D01*
X57492Y-42863D01*
X57500Y-42852D01*
X57511Y-42843D01*
X57522Y-42836D01*
X57535Y-42832D01*
X57549Y-42831D01*
X57562Y-42832D01*
X57575Y-42835D01*
X57587Y-42841D01*
X57598Y-42850D01*
X57607Y-42860D01*
X57613Y-42872D01*
X57618Y-42885D01*
X57619Y-42899D01*
X57620Y-42900D01*
X58200Y-44050D02*
X57600Y-44050D01*
X57600Y-44050D02*
X57600Y-42950D01*
X57600Y-42950D02*
X58200Y-42950D01*
X58800Y-42950D02*
X59400Y-42950D01*
X59400Y-42950D02*
X59400Y-44050D01*
X59400Y-44050D02*
X58800Y-44050D01*
G54D14*
X58805Y-42362D02*
X58805Y-42686D01*
X58786Y-42724D01*
X58767Y-42743D01*
X58729Y-42762D01*
X58652Y-42762D01*
X58614Y-42743D01*
X58595Y-42724D01*
X58576Y-42686D01*
X58576Y-42362D01*
X58176Y-42762D02*
X58405Y-42762D01*
X58291Y-42762D02*
X58291Y-42362D01*
X58329Y-42419D01*
X58367Y-42457D01*
X58405Y-42476D01*
X59423Y-39452D02*
X59366Y-39471D01*
X59347Y-39490D01*
X59328Y-39529D01*
X59328Y-39586D01*
X59347Y-39624D01*
X59366Y-39643D01*
X59404Y-39662D01*
X59557Y-39662D01*
X59557Y-39262D01*
X59423Y-39262D01*
X59385Y-39281D01*
X59366Y-39300D01*
X59347Y-39338D01*
X59347Y-39376D01*
X59366Y-39414D01*
X59385Y-39433D01*
X59423Y-39452D01*
X59557Y-39452D01*
X59157Y-39262D02*
X59157Y-39586D01*
X59138Y-39624D01*
X59119Y-39643D01*
X59081Y-39662D01*
X59004Y-39662D01*
X58966Y-39643D01*
X58947Y-39624D01*
X58928Y-39586D01*
X58928Y-39262D01*
X58604Y-39452D02*
X58738Y-39452D01*
X58738Y-39662D02*
X58738Y-39262D01*
X58547Y-39262D01*
X58223Y-39262D02*
X58300Y-39262D01*
X58338Y-39281D01*
X58357Y-39300D01*
X58395Y-39357D01*
X58414Y-39433D01*
X58414Y-39586D01*
X58395Y-39624D01*
X58376Y-39643D01*
X58338Y-39662D01*
X58261Y-39662D01*
X58223Y-39643D01*
X58204Y-39624D01*
X58185Y-39586D01*
X58185Y-39490D01*
X58204Y-39452D01*
X58223Y-39433D01*
X58261Y-39414D01*
X58338Y-39414D01*
X58376Y-39433D01*
X58395Y-39452D01*
X58414Y-39490D01*
X58052Y-39262D02*
X57804Y-39262D01*
X57938Y-39414D01*
X57880Y-39414D01*
X57842Y-39433D01*
X57823Y-39452D01*
X57804Y-39490D01*
X57804Y-39586D01*
X57823Y-39624D01*
X57842Y-39643D01*
X57880Y-39662D01*
X57995Y-39662D01*
X58033Y-39643D01*
X58052Y-39624D01*
X57461Y-39395D02*
X57461Y-39662D01*
X57557Y-39243D02*
X57652Y-39529D01*
X57404Y-39529D01*
G54D13*
X54793Y-40950D02*
X54807Y-40936D01*
X54821Y-40893D01*
X54821Y-40864D01*
X54807Y-40821D01*
X54779Y-40793D01*
X54750Y-40778D01*
X54693Y-40764D01*
X54650Y-40764D01*
X54593Y-40778D01*
X54564Y-40793D01*
X54536Y-40821D01*
X54521Y-40864D01*
X54521Y-40893D01*
X54536Y-40936D01*
X54550Y-40950D01*
X54521Y-41207D02*
X54521Y-41150D01*
X54536Y-41121D01*
X54550Y-41107D01*
X54593Y-41078D01*
X54650Y-41064D01*
X54764Y-41064D01*
X54793Y-41078D01*
X54807Y-41093D01*
X54821Y-41121D01*
X54821Y-41178D01*
X54807Y-41207D01*
X54793Y-41221D01*
X54764Y-41236D01*
X54693Y-41236D01*
X54664Y-41221D01*
X54650Y-41207D01*
X54636Y-41178D01*
X54636Y-41121D01*
X54650Y-41093D01*
X54664Y-41078D01*
X54693Y-41064D01*
X56221Y-40508D02*
X56221Y-40536D01*
X56236Y-40565D01*
X56250Y-40579D01*
X56279Y-40593D01*
X56336Y-40608D01*
X56407Y-40608D01*
X56464Y-40593D01*
X56493Y-40579D01*
X56507Y-40565D01*
X56521Y-40536D01*
X56521Y-40508D01*
X56507Y-40479D01*
X56493Y-40465D01*
X56464Y-40450D01*
X56407Y-40436D01*
X56336Y-40436D01*
X56279Y-40450D01*
X56250Y-40465D01*
X56236Y-40479D01*
X56221Y-40508D01*
X56493Y-40736D02*
X56507Y-40751D01*
X56521Y-40736D01*
X56507Y-40722D01*
X56493Y-40736D01*
X56521Y-40736D01*
X56521Y-41037D02*
X56521Y-40865D01*
X56521Y-40951D02*
X56221Y-40951D01*
X56264Y-40922D01*
X56293Y-40894D01*
X56307Y-40865D01*
X56321Y-41294D02*
X56521Y-41294D01*
X56321Y-41165D02*
X56479Y-41165D01*
X56507Y-41180D01*
X56521Y-41208D01*
X56521Y-41251D01*
X56507Y-41280D01*
X56493Y-41294D01*
X56364Y-41536D02*
X56364Y-41436D01*
X56521Y-41436D02*
X56221Y-41436D01*
X56221Y-41579D01*
X60793Y-40950D02*
X60807Y-40936D01*
X60821Y-40893D01*
X60821Y-40864D01*
X60807Y-40821D01*
X60779Y-40793D01*
X60750Y-40778D01*
X60693Y-40764D01*
X60650Y-40764D01*
X60593Y-40778D01*
X60564Y-40793D01*
X60536Y-40821D01*
X60521Y-40864D01*
X60521Y-40893D01*
X60536Y-40936D01*
X60550Y-40950D01*
X60521Y-41221D02*
X60521Y-41078D01*
X60664Y-41064D01*
X60650Y-41078D01*
X60636Y-41107D01*
X60636Y-41178D01*
X60650Y-41207D01*
X60664Y-41221D01*
X60693Y-41236D01*
X60764Y-41236D01*
X60793Y-41221D01*
X60807Y-41207D01*
X60821Y-41178D01*
X60821Y-41107D01*
X60807Y-41078D01*
X60793Y-41064D01*
X62221Y-40508D02*
X62221Y-40536D01*
X62236Y-40565D01*
X62250Y-40579D01*
X62279Y-40593D01*
X62336Y-40608D01*
X62407Y-40608D01*
X62464Y-40593D01*
X62493Y-40579D01*
X62507Y-40565D01*
X62521Y-40536D01*
X62521Y-40508D01*
X62507Y-40479D01*
X62493Y-40465D01*
X62464Y-40450D01*
X62407Y-40436D01*
X62336Y-40436D01*
X62279Y-40450D01*
X62250Y-40465D01*
X62236Y-40479D01*
X62221Y-40508D01*
X62493Y-40736D02*
X62507Y-40751D01*
X62521Y-40736D01*
X62507Y-40722D01*
X62493Y-40736D01*
X62521Y-40736D01*
X62521Y-41037D02*
X62521Y-40865D01*
X62521Y-40951D02*
X62221Y-40951D01*
X62264Y-40922D01*
X62293Y-40894D01*
X62307Y-40865D01*
X62321Y-41294D02*
X62521Y-41294D01*
X62321Y-41165D02*
X62479Y-41165D01*
X62507Y-41180D01*
X62521Y-41208D01*
X62521Y-41251D01*
X62507Y-41280D01*
X62493Y-41294D01*
X62364Y-41536D02*
X62364Y-41436D01*
X62521Y-41436D02*
X62221Y-41436D01*
X62221Y-41579D01*
X60893Y-45700D02*
X60907Y-45686D01*
X60921Y-45643D01*
X60921Y-45614D01*
X60907Y-45571D01*
X60879Y-45543D01*
X60850Y-45528D01*
X60793Y-45514D01*
X60750Y-45514D01*
X60693Y-45528D01*
X60664Y-45543D01*
X60636Y-45571D01*
X60621Y-45614D01*
X60621Y-45643D01*
X60636Y-45686D01*
X60650Y-45700D01*
X60921Y-45986D02*
X60921Y-45814D01*
X60921Y-45900D02*
X60621Y-45900D01*
X60664Y-45871D01*
X60693Y-45843D01*
X60707Y-45814D01*
X59221Y-45429D02*
X59221Y-45257D01*
X59221Y-45343D02*
X58921Y-45343D01*
X58964Y-45314D01*
X58993Y-45286D01*
X59007Y-45257D01*
X58921Y-45615D02*
X58921Y-45643D01*
X58936Y-45672D01*
X58950Y-45686D01*
X58979Y-45700D01*
X59036Y-45715D01*
X59107Y-45715D01*
X59164Y-45700D01*
X59193Y-45686D01*
X59207Y-45672D01*
X59221Y-45643D01*
X59221Y-45615D01*
X59207Y-45586D01*
X59193Y-45572D01*
X59164Y-45557D01*
X59107Y-45543D01*
X59036Y-45543D01*
X58979Y-45557D01*
X58950Y-45572D01*
X58936Y-45586D01*
X58921Y-45615D01*
X59021Y-45972D02*
X59221Y-45972D01*
X59021Y-45843D02*
X59179Y-45843D01*
X59207Y-45858D01*
X59221Y-45886D01*
X59221Y-45929D01*
X59207Y-45958D01*
X59193Y-45972D01*
X59064Y-46214D02*
X59064Y-46114D01*
X59221Y-46114D02*
X58921Y-46114D01*
X58921Y-46257D01*
X63893Y-45700D02*
X63907Y-45686D01*
X63921Y-45643D01*
X63921Y-45614D01*
X63907Y-45571D01*
X63879Y-45543D01*
X63850Y-45528D01*
X63793Y-45514D01*
X63750Y-45514D01*
X63693Y-45528D01*
X63664Y-45543D01*
X63636Y-45571D01*
X63621Y-45614D01*
X63621Y-45643D01*
X63636Y-45686D01*
X63650Y-45700D01*
X63650Y-45814D02*
X63636Y-45828D01*
X63621Y-45857D01*
X63621Y-45928D01*
X63636Y-45957D01*
X63650Y-45971D01*
X63679Y-45986D01*
X63707Y-45986D01*
X63750Y-45971D01*
X63921Y-45800D01*
X63921Y-45986D01*
X62221Y-45572D02*
X62221Y-45400D01*
X62221Y-45486D02*
X61921Y-45486D01*
X61964Y-45457D01*
X61993Y-45429D01*
X62007Y-45400D01*
X62021Y-45829D02*
X62221Y-45829D01*
X62021Y-45700D02*
X62179Y-45700D01*
X62207Y-45715D01*
X62221Y-45743D01*
X62221Y-45786D01*
X62207Y-45815D01*
X62193Y-45829D01*
X62064Y-46071D02*
X62064Y-45971D01*
X62221Y-45971D02*
X61921Y-45971D01*
X61921Y-46114D01*
X56293Y-45700D02*
X56307Y-45686D01*
X56321Y-45643D01*
X56321Y-45614D01*
X56307Y-45571D01*
X56279Y-45543D01*
X56250Y-45528D01*
X56193Y-45514D01*
X56150Y-45514D01*
X56093Y-45528D01*
X56064Y-45543D01*
X56036Y-45571D01*
X56021Y-45614D01*
X56021Y-45643D01*
X56036Y-45686D01*
X56050Y-45700D01*
X56021Y-45800D02*
X56021Y-45986D01*
X56136Y-45886D01*
X56136Y-45928D01*
X56150Y-45957D01*
X56164Y-45971D01*
X56193Y-45986D01*
X56264Y-45986D01*
X56293Y-45971D01*
X56307Y-45957D01*
X56321Y-45928D01*
X56321Y-45843D01*
X56307Y-45814D01*
X56293Y-45800D01*
X58021Y-45429D02*
X58021Y-45257D01*
X58021Y-45343D02*
X57721Y-45343D01*
X57764Y-45314D01*
X57793Y-45286D01*
X57807Y-45257D01*
X57721Y-45615D02*
X57721Y-45643D01*
X57736Y-45672D01*
X57750Y-45686D01*
X57779Y-45700D01*
X57836Y-45715D01*
X57907Y-45715D01*
X57964Y-45700D01*
X57993Y-45686D01*
X58007Y-45672D01*
X58021Y-45643D01*
X58021Y-45615D01*
X58007Y-45586D01*
X57993Y-45572D01*
X57964Y-45557D01*
X57907Y-45543D01*
X57836Y-45543D01*
X57779Y-45557D01*
X57750Y-45572D01*
X57736Y-45586D01*
X57721Y-45615D01*
X57821Y-45972D02*
X58021Y-45972D01*
X57821Y-45843D02*
X57979Y-45843D01*
X58007Y-45858D01*
X58021Y-45886D01*
X58021Y-45929D01*
X58007Y-45958D01*
X57993Y-45972D01*
X57864Y-46214D02*
X57864Y-46114D01*
X58021Y-46114D02*
X57721Y-46114D01*
X57721Y-46257D01*
X53293Y-45700D02*
X53307Y-45686D01*
X53321Y-45643D01*
X53321Y-45614D01*
X53307Y-45571D01*
X53279Y-45543D01*
X53250Y-45528D01*
X53193Y-45514D01*
X53150Y-45514D01*
X53093Y-45528D01*
X53064Y-45543D01*
X53036Y-45571D01*
X53021Y-45614D01*
X53021Y-45643D01*
X53036Y-45686D01*
X53050Y-45700D01*
X53121Y-45957D02*
X53321Y-45957D01*
X53007Y-45886D02*
X53221Y-45814D01*
X53221Y-46000D01*
X55021Y-45572D02*
X55021Y-45400D01*
X55021Y-45486D02*
X54721Y-45486D01*
X54764Y-45457D01*
X54793Y-45429D01*
X54807Y-45400D01*
X54821Y-45829D02*
X55021Y-45829D01*
X54821Y-45700D02*
X54979Y-45700D01*
X55007Y-45715D01*
X55021Y-45743D01*
X55021Y-45786D01*
X55007Y-45815D01*
X54993Y-45829D01*
X54864Y-46071D02*
X54864Y-45971D01*
X55021Y-45971D02*
X54721Y-45971D01*
X54721Y-46114D01*
X56071Y-48950D02*
X55929Y-48850D01*
X56071Y-48778D02*
X55771Y-48778D01*
X55771Y-48893D01*
X55786Y-48921D01*
X55800Y-48936D01*
X55829Y-48950D01*
X55871Y-48950D01*
X55900Y-48936D01*
X55914Y-48921D01*
X55929Y-48893D01*
X55929Y-48778D01*
X56071Y-49236D02*
X56071Y-49064D01*
X56071Y-49150D02*
X55771Y-49150D01*
X55814Y-49121D01*
X55843Y-49093D01*
X55857Y-49064D01*
X57471Y-48771D02*
X57471Y-48714D01*
X57486Y-48685D01*
X57500Y-48671D01*
X57543Y-48642D01*
X57600Y-48628D01*
X57714Y-48628D01*
X57743Y-48642D01*
X57757Y-48657D01*
X57771Y-48685D01*
X57771Y-48742D01*
X57757Y-48771D01*
X57743Y-48785D01*
X57714Y-48800D01*
X57643Y-48800D01*
X57614Y-48785D01*
X57600Y-48771D01*
X57586Y-48742D01*
X57586Y-48685D01*
X57600Y-48657D01*
X57614Y-48642D01*
X57643Y-48628D01*
X57471Y-48900D02*
X57471Y-49086D01*
X57586Y-48986D01*
X57586Y-49028D01*
X57600Y-49057D01*
X57614Y-49071D01*
X57643Y-49086D01*
X57714Y-49086D01*
X57743Y-49071D01*
X57757Y-49057D01*
X57771Y-49028D01*
X57771Y-48943D01*
X57757Y-48914D01*
X57743Y-48900D01*
X57571Y-49343D02*
X57771Y-49343D01*
X57457Y-49272D02*
X57671Y-49200D01*
X57671Y-49386D01*
X57343Y-43450D02*
X57357Y-43436D01*
X57371Y-43393D01*
X57371Y-43364D01*
X57357Y-43321D01*
X57329Y-43293D01*
X57300Y-43278D01*
X57243Y-43264D01*
X57200Y-43264D01*
X57143Y-43278D01*
X57114Y-43293D01*
X57086Y-43321D01*
X57071Y-43364D01*
X57071Y-43393D01*
X57086Y-43436D01*
X57100Y-43450D01*
X57071Y-43550D02*
X57071Y-43750D01*
X57371Y-43621D01*
X59571Y-43008D02*
X59571Y-43036D01*
X59586Y-43065D01*
X59600Y-43079D01*
X59629Y-43093D01*
X59686Y-43108D01*
X59757Y-43108D01*
X59814Y-43093D01*
X59843Y-43079D01*
X59857Y-43065D01*
X59871Y-43036D01*
X59871Y-43008D01*
X59857Y-42979D01*
X59843Y-42965D01*
X59814Y-42950D01*
X59757Y-42936D01*
X59686Y-42936D01*
X59629Y-42950D01*
X59600Y-42965D01*
X59586Y-42979D01*
X59571Y-43008D01*
X59843Y-43236D02*
X59857Y-43251D01*
X59871Y-43236D01*
X59857Y-43222D01*
X59843Y-43236D01*
X59871Y-43236D01*
X59871Y-43537D02*
X59871Y-43365D01*
X59871Y-43451D02*
X59571Y-43451D01*
X59614Y-43422D01*
X59643Y-43394D01*
X59657Y-43365D01*
X59671Y-43794D02*
X59871Y-43794D01*
X59671Y-43665D02*
X59829Y-43665D01*
X59857Y-43680D01*
X59871Y-43708D01*
X59871Y-43751D01*
X59857Y-43780D01*
X59843Y-43794D01*
X59714Y-44036D02*
X59714Y-43936D01*
X59871Y-43936D02*
X59571Y-43936D01*
X59571Y-44079D01*
M02*
