G04 (created by PCBNEW-RS274X (2010-03-14)-final) date Fri 10 Jun 2011 04:11:06 PM PDT*
G01*
G70*
G90*
%MOIN*%
G04 Gerber Fmt 3.4, Leading zero omitted, Abs format*
%FSLAX34Y34*%
G04 APERTURE LIST*
%ADD10C,0.006000*%
%ADD11C,0.009000*%
%ADD12C,0.006700*%
%ADD13C,0.010000*%
%ADD14C,0.015000*%
G04 APERTURE END LIST*
G54D10*
G54D11*
X52250Y-29000D02*
X52250Y-54000D01*
X64750Y-29000D02*
X52250Y-29000D01*
X64750Y-54000D02*
X64750Y-29000D01*
X52250Y-54000D02*
X64750Y-54000D01*
G54D12*
X63893Y-50390D02*
X64321Y-50390D01*
X64407Y-50410D01*
X64464Y-50448D01*
X64493Y-50505D01*
X64493Y-50543D01*
X64093Y-50028D02*
X64493Y-50028D01*
X64093Y-50200D02*
X64407Y-50200D01*
X64464Y-50181D01*
X64493Y-50143D01*
X64493Y-50085D01*
X64464Y-50047D01*
X64436Y-50028D01*
X64093Y-49838D02*
X64493Y-49838D01*
X64150Y-49838D02*
X64121Y-49819D01*
X64093Y-49781D01*
X64093Y-49723D01*
X64121Y-49685D01*
X64179Y-49666D01*
X64493Y-49666D01*
X64464Y-49323D02*
X64493Y-49361D01*
X64493Y-49438D01*
X64464Y-49476D01*
X64407Y-49495D01*
X64179Y-49495D01*
X64121Y-49476D01*
X64093Y-49438D01*
X64093Y-49361D01*
X64121Y-49323D01*
X64179Y-49304D01*
X64236Y-49304D01*
X64293Y-49495D01*
X63950Y-48847D02*
X63921Y-48828D01*
X63893Y-48790D01*
X63893Y-48694D01*
X63921Y-48656D01*
X63950Y-48637D01*
X64007Y-48618D01*
X64064Y-48618D01*
X64150Y-48637D01*
X64493Y-48866D01*
X64493Y-48618D01*
X63893Y-48371D02*
X63893Y-48332D01*
X63921Y-48294D01*
X63950Y-48275D01*
X64007Y-48256D01*
X64121Y-48237D01*
X64264Y-48237D01*
X64379Y-48256D01*
X64436Y-48275D01*
X64464Y-48294D01*
X64493Y-48332D01*
X64493Y-48371D01*
X64464Y-48409D01*
X64436Y-48428D01*
X64379Y-48447D01*
X64264Y-48466D01*
X64121Y-48466D01*
X64007Y-48447D01*
X63950Y-48428D01*
X63921Y-48409D01*
X63893Y-48371D01*
X64493Y-47856D02*
X64493Y-48085D01*
X64493Y-47971D02*
X63893Y-47971D01*
X63979Y-48009D01*
X64036Y-48047D01*
X64064Y-48085D01*
X64493Y-47475D02*
X64493Y-47704D01*
X64493Y-47590D02*
X63893Y-47590D01*
X63979Y-47628D01*
X64036Y-47666D01*
X64064Y-47704D01*
X52643Y-50057D02*
X53243Y-49924D01*
X52643Y-49790D01*
X53214Y-49504D02*
X53243Y-49542D01*
X53243Y-49619D01*
X53214Y-49657D01*
X53157Y-49676D01*
X52929Y-49676D01*
X52871Y-49657D01*
X52843Y-49619D01*
X52843Y-49542D01*
X52871Y-49504D01*
X52929Y-49485D01*
X52986Y-49485D01*
X53043Y-49676D01*
X53243Y-49314D02*
X52843Y-49314D01*
X52957Y-49314D02*
X52900Y-49295D01*
X52871Y-49276D01*
X52843Y-49238D01*
X52843Y-49199D01*
X52700Y-48780D02*
X52671Y-48761D01*
X52643Y-48723D01*
X52643Y-48627D01*
X52671Y-48589D01*
X52700Y-48570D01*
X52757Y-48551D01*
X52814Y-48551D01*
X52900Y-48570D01*
X53243Y-48799D01*
X53243Y-48551D01*
X53186Y-48380D02*
X53214Y-48361D01*
X53243Y-48380D01*
X53214Y-48399D01*
X53186Y-48380D01*
X53243Y-48380D01*
X52643Y-48114D02*
X52643Y-48075D01*
X52671Y-48037D01*
X52700Y-48018D01*
X52757Y-47999D01*
X52871Y-47980D01*
X53014Y-47980D01*
X53129Y-47999D01*
X53186Y-48018D01*
X53214Y-48037D01*
X53243Y-48075D01*
X53243Y-48114D01*
X53214Y-48152D01*
X53186Y-48171D01*
X53129Y-48190D01*
X53014Y-48209D01*
X52871Y-48209D01*
X52757Y-48190D01*
X52700Y-48171D01*
X52671Y-48152D01*
X52643Y-48114D01*
G54D13*
X54386Y-49574D02*
X54386Y-48774D01*
X54614Y-48774D01*
X54672Y-48812D01*
X54700Y-48850D01*
X54729Y-48926D01*
X54729Y-49040D01*
X54700Y-49117D01*
X54672Y-49155D01*
X54614Y-49193D01*
X54386Y-49193D01*
X55072Y-49574D02*
X55014Y-49536D01*
X54986Y-49498D01*
X54957Y-49421D01*
X54957Y-49193D01*
X54986Y-49117D01*
X55014Y-49079D01*
X55072Y-49040D01*
X55157Y-49040D01*
X55214Y-49079D01*
X55243Y-49117D01*
X55272Y-49193D01*
X55272Y-49421D01*
X55243Y-49498D01*
X55214Y-49536D01*
X55157Y-49574D01*
X55072Y-49574D01*
X55472Y-49040D02*
X55586Y-49574D01*
X55700Y-49193D01*
X55815Y-49574D01*
X55929Y-49040D01*
X56386Y-49536D02*
X56329Y-49574D01*
X56215Y-49574D01*
X56158Y-49536D01*
X56129Y-49460D01*
X56129Y-49155D01*
X56158Y-49079D01*
X56215Y-49040D01*
X56329Y-49040D01*
X56386Y-49079D01*
X56415Y-49155D01*
X56415Y-49231D01*
X56129Y-49307D01*
X56672Y-49574D02*
X56672Y-49040D01*
X56672Y-49193D02*
X56700Y-49117D01*
X56729Y-49079D01*
X56786Y-49040D01*
X56843Y-49040D01*
X57014Y-49536D02*
X57100Y-49574D01*
X57243Y-49574D01*
X57300Y-49536D01*
X57329Y-49498D01*
X57357Y-49421D01*
X57357Y-49345D01*
X57329Y-49269D01*
X57300Y-49231D01*
X57243Y-49193D01*
X57129Y-49155D01*
X57071Y-49117D01*
X57043Y-49079D01*
X57014Y-49002D01*
X57014Y-48926D01*
X57043Y-48850D01*
X57071Y-48812D01*
X57129Y-48774D01*
X57271Y-48774D01*
X57357Y-48812D01*
X57614Y-49574D02*
X57614Y-49040D01*
X57614Y-48774D02*
X57585Y-48812D01*
X57614Y-48850D01*
X57642Y-48812D01*
X57614Y-48774D01*
X57614Y-48850D01*
X58157Y-49040D02*
X58157Y-49688D01*
X58128Y-49764D01*
X58100Y-49802D01*
X58043Y-49840D01*
X57957Y-49840D01*
X57900Y-49802D01*
X58157Y-49536D02*
X58100Y-49574D01*
X57986Y-49574D01*
X57928Y-49536D01*
X57900Y-49498D01*
X57871Y-49421D01*
X57871Y-49193D01*
X57900Y-49117D01*
X57928Y-49079D01*
X57986Y-49040D01*
X58100Y-49040D01*
X58157Y-49079D01*
X58443Y-49040D02*
X58443Y-49574D01*
X58443Y-49117D02*
X58471Y-49079D01*
X58529Y-49040D01*
X58614Y-49040D01*
X58671Y-49079D01*
X58700Y-49155D01*
X58700Y-49574D01*
X59243Y-49574D02*
X59243Y-49155D01*
X59214Y-49079D01*
X59157Y-49040D01*
X59043Y-49040D01*
X58986Y-49079D01*
X59243Y-49536D02*
X59186Y-49574D01*
X59043Y-49574D01*
X58986Y-49536D01*
X58957Y-49460D01*
X58957Y-49383D01*
X58986Y-49307D01*
X59043Y-49269D01*
X59186Y-49269D01*
X59243Y-49231D01*
X59615Y-49574D02*
X59557Y-49536D01*
X59529Y-49460D01*
X59529Y-48774D01*
X60500Y-49155D02*
X60586Y-49193D01*
X60614Y-49231D01*
X60643Y-49307D01*
X60643Y-49421D01*
X60614Y-49498D01*
X60586Y-49536D01*
X60528Y-49574D01*
X60300Y-49574D01*
X60300Y-48774D01*
X60500Y-48774D01*
X60557Y-48812D01*
X60586Y-48850D01*
X60614Y-48926D01*
X60614Y-49002D01*
X60586Y-49079D01*
X60557Y-49117D01*
X60500Y-49155D01*
X60300Y-49155D01*
X60986Y-49574D02*
X60928Y-49536D01*
X60900Y-49498D01*
X60871Y-49421D01*
X60871Y-49193D01*
X60900Y-49117D01*
X60928Y-49079D01*
X60986Y-49040D01*
X61071Y-49040D01*
X61128Y-49079D01*
X61157Y-49117D01*
X61186Y-49193D01*
X61186Y-49421D01*
X61157Y-49498D01*
X61128Y-49536D01*
X61071Y-49574D01*
X60986Y-49574D01*
X61700Y-49574D02*
X61700Y-49155D01*
X61671Y-49079D01*
X61614Y-49040D01*
X61500Y-49040D01*
X61443Y-49079D01*
X61700Y-49536D02*
X61643Y-49574D01*
X61500Y-49574D01*
X61443Y-49536D01*
X61414Y-49460D01*
X61414Y-49383D01*
X61443Y-49307D01*
X61500Y-49269D01*
X61643Y-49269D01*
X61700Y-49231D01*
X61986Y-49574D02*
X61986Y-49040D01*
X61986Y-49193D02*
X62014Y-49117D01*
X62043Y-49079D01*
X62100Y-49040D01*
X62157Y-49040D01*
X62614Y-49574D02*
X62614Y-48774D01*
X62614Y-49536D02*
X62557Y-49574D01*
X62443Y-49574D01*
X62385Y-49536D01*
X62357Y-49498D01*
X62328Y-49421D01*
X62328Y-49193D01*
X62357Y-49117D01*
X62385Y-49079D01*
X62443Y-49040D01*
X62557Y-49040D01*
X62614Y-49079D01*
G54D14*
X64500Y-29500D02*
X64500Y-35500D01*
X58500Y-29500D02*
X58500Y-35500D01*
X59500Y-29500D02*
X59500Y-29200D01*
X59500Y-29200D02*
X63500Y-29200D01*
X63500Y-29200D02*
X63500Y-29500D01*
X58500Y-33500D02*
X64500Y-33500D01*
X58500Y-29500D02*
X64500Y-29500D01*
X58500Y-35500D02*
X64500Y-35500D01*
X61750Y-53750D02*
X61750Y-50250D01*
X61750Y-50250D02*
X55250Y-50250D01*
X55250Y-50250D02*
X55250Y-53750D01*
X61750Y-53750D02*
X55250Y-53750D01*
X53187Y-34500D02*
X52478Y-34500D01*
X52478Y-34500D02*
X52478Y-29067D01*
X52478Y-29067D02*
X55982Y-29067D01*
X55982Y-29067D02*
X56022Y-29067D01*
X56022Y-29067D02*
X56022Y-34500D01*
X56022Y-34500D02*
X55313Y-34500D01*
X54500Y-36000D02*
X54500Y-48500D01*
X54500Y-48500D02*
X62500Y-48500D01*
X62500Y-48500D02*
X62500Y-36000D01*
X62500Y-36000D02*
X54500Y-36000D01*
X64400Y-41500D02*
X64382Y-41674D01*
X64332Y-41842D01*
X64249Y-41998D01*
X64138Y-42134D01*
X64003Y-42246D01*
X63848Y-42329D01*
X63680Y-42381D01*
X63506Y-42399D01*
X63332Y-42384D01*
X63163Y-42334D01*
X63008Y-42253D01*
X62871Y-42143D01*
X62758Y-42008D01*
X62673Y-41854D01*
X62620Y-41687D01*
X62601Y-41512D01*
X62615Y-41338D01*
X62664Y-41169D01*
X62744Y-41013D01*
X62853Y-40875D01*
X62987Y-40761D01*
X63140Y-40676D01*
X63307Y-40621D01*
X63482Y-40601D01*
X63656Y-40614D01*
X63825Y-40661D01*
X63982Y-40741D01*
X64120Y-40849D01*
X64235Y-40982D01*
X64322Y-41134D01*
X64377Y-41301D01*
X64399Y-41475D01*
X64400Y-41500D01*
X54400Y-51500D02*
X54382Y-51674D01*
X54332Y-51842D01*
X54249Y-51998D01*
X54138Y-52134D01*
X54003Y-52246D01*
X53848Y-52329D01*
X53680Y-52381D01*
X53506Y-52399D01*
X53332Y-52384D01*
X53163Y-52334D01*
X53008Y-52253D01*
X52871Y-52143D01*
X52758Y-52008D01*
X52673Y-51854D01*
X52620Y-51687D01*
X52601Y-51512D01*
X52615Y-51338D01*
X52664Y-51169D01*
X52744Y-51013D01*
X52853Y-50875D01*
X52987Y-50761D01*
X53140Y-50676D01*
X53307Y-50621D01*
X53482Y-50601D01*
X53656Y-50614D01*
X53825Y-50661D01*
X53982Y-50741D01*
X54120Y-50849D01*
X54235Y-50982D01*
X54322Y-51134D01*
X54377Y-51301D01*
X54399Y-51475D01*
X54400Y-51500D01*
X64400Y-51500D02*
X64382Y-51674D01*
X64332Y-51842D01*
X64249Y-51998D01*
X64138Y-52134D01*
X64003Y-52246D01*
X63848Y-52329D01*
X63680Y-52381D01*
X63506Y-52399D01*
X63332Y-52384D01*
X63163Y-52334D01*
X63008Y-52253D01*
X62871Y-52143D01*
X62758Y-52008D01*
X62673Y-51854D01*
X62620Y-51687D01*
X62601Y-51512D01*
X62615Y-51338D01*
X62664Y-51169D01*
X62744Y-51013D01*
X62853Y-50875D01*
X62987Y-50761D01*
X63140Y-50676D01*
X63307Y-50621D01*
X63482Y-50601D01*
X63656Y-50614D01*
X63825Y-50661D01*
X63982Y-50741D01*
X64120Y-50849D01*
X64235Y-50982D01*
X64322Y-51134D01*
X64377Y-51301D01*
X64399Y-51475D01*
X64400Y-51500D01*
X54400Y-41500D02*
X54382Y-41674D01*
X54332Y-41842D01*
X54249Y-41998D01*
X54138Y-42134D01*
X54003Y-42246D01*
X53848Y-42329D01*
X53680Y-42381D01*
X53506Y-42399D01*
X53332Y-42384D01*
X53163Y-42334D01*
X53008Y-42253D01*
X52871Y-42143D01*
X52758Y-42008D01*
X52673Y-41854D01*
X52620Y-41687D01*
X52601Y-41512D01*
X52615Y-41338D01*
X52664Y-41169D01*
X52744Y-41013D01*
X52853Y-40875D01*
X52987Y-40761D01*
X53140Y-40676D01*
X53307Y-40621D01*
X53482Y-40601D01*
X53656Y-40614D01*
X53825Y-40661D01*
X53982Y-40741D01*
X54120Y-40849D01*
X54235Y-40982D01*
X54322Y-41134D01*
X54377Y-41301D01*
X54399Y-41475D01*
X54400Y-41500D01*
X64400Y-36500D02*
X64382Y-36674D01*
X64332Y-36842D01*
X64249Y-36998D01*
X64138Y-37134D01*
X64003Y-37246D01*
X63848Y-37329D01*
X63680Y-37381D01*
X63506Y-37399D01*
X63332Y-37384D01*
X63163Y-37334D01*
X63008Y-37253D01*
X62871Y-37143D01*
X62758Y-37008D01*
X62673Y-36854D01*
X62620Y-36687D01*
X62601Y-36512D01*
X62615Y-36338D01*
X62664Y-36169D01*
X62744Y-36013D01*
X62853Y-35875D01*
X62987Y-35761D01*
X63140Y-35676D01*
X63307Y-35621D01*
X63482Y-35601D01*
X63656Y-35614D01*
X63825Y-35661D01*
X63982Y-35741D01*
X64120Y-35849D01*
X64235Y-35982D01*
X64322Y-36134D01*
X64377Y-36301D01*
X64399Y-36475D01*
X64400Y-36500D01*
X58150Y-31500D02*
X58132Y-31674D01*
X58082Y-31842D01*
X57999Y-31998D01*
X57888Y-32134D01*
X57753Y-32246D01*
X57598Y-32329D01*
X57430Y-32381D01*
X57256Y-32399D01*
X57082Y-32384D01*
X56913Y-32334D01*
X56758Y-32253D01*
X56621Y-32143D01*
X56508Y-32008D01*
X56423Y-31854D01*
X56370Y-31687D01*
X56351Y-31512D01*
X56365Y-31338D01*
X56414Y-31169D01*
X56494Y-31013D01*
X56603Y-30875D01*
X56737Y-30761D01*
X56890Y-30676D01*
X57057Y-30621D01*
X57232Y-30601D01*
X57406Y-30614D01*
X57575Y-30661D01*
X57732Y-30741D01*
X57870Y-30849D01*
X57985Y-30982D01*
X58072Y-31134D01*
X58127Y-31301D01*
X58149Y-31475D01*
X58150Y-31500D01*
X54400Y-36500D02*
X54382Y-36674D01*
X54332Y-36842D01*
X54249Y-36998D01*
X54138Y-37134D01*
X54003Y-37246D01*
X53848Y-37329D01*
X53680Y-37381D01*
X53506Y-37399D01*
X53332Y-37384D01*
X53163Y-37334D01*
X53008Y-37253D01*
X52871Y-37143D01*
X52758Y-37008D01*
X52673Y-36854D01*
X52620Y-36687D01*
X52601Y-36512D01*
X52615Y-36338D01*
X52664Y-36169D01*
X52744Y-36013D01*
X52853Y-35875D01*
X52987Y-35761D01*
X53140Y-35676D01*
X53307Y-35621D01*
X53482Y-35601D01*
X53656Y-35614D01*
X53825Y-35661D01*
X53982Y-35741D01*
X54120Y-35849D01*
X54235Y-35982D01*
X54322Y-36134D01*
X54377Y-36301D01*
X54399Y-36475D01*
X54400Y-36500D01*
G54D12*
X58162Y-35545D02*
X57762Y-35545D01*
X57762Y-35392D01*
X57781Y-35354D01*
X57800Y-35335D01*
X57838Y-35316D01*
X57895Y-35316D01*
X57933Y-35335D01*
X57952Y-35354D01*
X57971Y-35392D01*
X57971Y-35545D01*
X57800Y-35164D02*
X57781Y-35145D01*
X57762Y-35107D01*
X57762Y-35011D01*
X57781Y-34973D01*
X57800Y-34954D01*
X57838Y-34935D01*
X57876Y-34935D01*
X57933Y-34954D01*
X58162Y-35183D01*
X58162Y-34935D01*
X61220Y-31552D02*
X61277Y-31571D01*
X61296Y-31590D01*
X61315Y-31629D01*
X61315Y-31686D01*
X61296Y-31724D01*
X61277Y-31743D01*
X61239Y-31762D01*
X61086Y-31762D01*
X61086Y-31362D01*
X61220Y-31362D01*
X61258Y-31381D01*
X61277Y-31400D01*
X61296Y-31438D01*
X61296Y-31476D01*
X61277Y-31514D01*
X61258Y-31533D01*
X61220Y-31552D01*
X61086Y-31552D01*
X61486Y-31762D02*
X61486Y-31362D01*
X61715Y-31762D01*
X61715Y-31362D01*
X62134Y-31724D02*
X62115Y-31743D01*
X62058Y-31762D01*
X62020Y-31762D01*
X61962Y-31743D01*
X61924Y-31705D01*
X61905Y-31667D01*
X61886Y-31590D01*
X61886Y-31533D01*
X61905Y-31457D01*
X61924Y-31419D01*
X61962Y-31381D01*
X62020Y-31362D01*
X62058Y-31362D01*
X62115Y-31381D01*
X62134Y-31400D01*
X54912Y-51045D02*
X54512Y-51045D01*
X54512Y-50892D01*
X54531Y-50854D01*
X54550Y-50835D01*
X54588Y-50816D01*
X54645Y-50816D01*
X54683Y-50835D01*
X54702Y-50854D01*
X54721Y-50892D01*
X54721Y-51045D01*
X54912Y-50435D02*
X54912Y-50664D01*
X54912Y-50550D02*
X54512Y-50550D01*
X54569Y-50588D01*
X54607Y-50626D01*
X54626Y-50664D01*
X60217Y-51362D02*
X60465Y-51362D01*
X60331Y-51514D01*
X60389Y-51514D01*
X60427Y-51533D01*
X60446Y-51552D01*
X60465Y-51590D01*
X60465Y-51686D01*
X60446Y-51724D01*
X60427Y-51743D01*
X60389Y-51762D01*
X60274Y-51762D01*
X60236Y-51743D01*
X60217Y-51724D01*
X59715Y-51762D02*
X59486Y-51762D01*
X59600Y-51762D02*
X59600Y-51362D01*
X59562Y-51419D01*
X59524Y-51457D01*
X59486Y-51476D01*
X57386Y-51400D02*
X57405Y-51381D01*
X57443Y-51362D01*
X57539Y-51362D01*
X57577Y-51381D01*
X57596Y-51400D01*
X57615Y-51438D01*
X57615Y-51476D01*
X57596Y-51533D01*
X57367Y-51762D01*
X57615Y-51762D01*
X56827Y-51495D02*
X56827Y-51762D01*
X56731Y-51343D02*
X56636Y-51629D01*
X56884Y-51629D01*
X56662Y-30045D02*
X56262Y-30045D01*
X56262Y-29892D01*
X56281Y-29854D01*
X56300Y-29835D01*
X56338Y-29816D01*
X56395Y-29816D01*
X56433Y-29835D01*
X56452Y-29854D01*
X56471Y-29892D01*
X56471Y-30045D01*
X56262Y-29683D02*
X56262Y-29435D01*
X56414Y-29569D01*
X56414Y-29511D01*
X56433Y-29473D01*
X56452Y-29454D01*
X56490Y-29435D01*
X56586Y-29435D01*
X56624Y-29454D01*
X56643Y-29473D01*
X56662Y-29511D01*
X56662Y-29626D01*
X56643Y-29664D01*
X56624Y-29683D01*
X56662Y-35526D02*
X56662Y-35450D01*
X56643Y-35411D01*
X56624Y-35392D01*
X56567Y-35354D01*
X56490Y-35335D01*
X56338Y-35335D01*
X56300Y-35354D01*
X56281Y-35373D01*
X56262Y-35411D01*
X56262Y-35488D01*
X56281Y-35526D01*
X56300Y-35545D01*
X56338Y-35564D01*
X56433Y-35564D01*
X56471Y-35545D01*
X56490Y-35526D01*
X56510Y-35488D01*
X56510Y-35411D01*
X56490Y-35373D01*
X56471Y-35354D01*
X56433Y-35335D01*
X56510Y-35164D02*
X56510Y-34859D01*
X56662Y-34459D02*
X56662Y-34688D01*
X56662Y-34574D02*
X56262Y-34574D01*
X56319Y-34612D01*
X56357Y-34650D01*
X56376Y-34688D01*
X56433Y-34231D02*
X56414Y-34269D01*
X56395Y-34288D01*
X56357Y-34307D01*
X56338Y-34307D01*
X56300Y-34288D01*
X56281Y-34269D01*
X56262Y-34231D01*
X56262Y-34154D01*
X56281Y-34116D01*
X56300Y-34097D01*
X56338Y-34078D01*
X56357Y-34078D01*
X56395Y-34097D01*
X56414Y-34116D01*
X56433Y-34154D01*
X56433Y-34231D01*
X56452Y-34269D01*
X56471Y-34288D01*
X56510Y-34307D01*
X56586Y-34307D01*
X56624Y-34288D01*
X56643Y-34269D01*
X56662Y-34231D01*
X56662Y-34154D01*
X56643Y-34116D01*
X56624Y-34097D01*
X56586Y-34078D01*
X56510Y-34078D01*
X56471Y-34097D01*
X56452Y-34116D01*
X56433Y-34154D01*
X56262Y-33964D02*
X56662Y-33831D01*
X56262Y-33697D01*
X56662Y-33564D02*
X56262Y-33564D01*
X56262Y-33469D01*
X56281Y-33411D01*
X56319Y-33373D01*
X56357Y-33354D01*
X56433Y-33335D01*
X56490Y-33335D01*
X56567Y-33354D01*
X56605Y-33373D01*
X56643Y-33411D01*
X56662Y-33469D01*
X56662Y-33564D01*
X56624Y-32935D02*
X56643Y-32954D01*
X56662Y-33011D01*
X56662Y-33049D01*
X56643Y-33107D01*
X56605Y-33145D01*
X56567Y-33164D01*
X56490Y-33183D01*
X56433Y-33183D01*
X56357Y-33164D01*
X56319Y-33145D01*
X56281Y-33107D01*
X56262Y-33049D01*
X56262Y-33011D01*
X56281Y-32954D01*
X56300Y-32935D01*
G54D13*
X63493Y-48242D02*
X62893Y-48242D01*
X62893Y-48099D01*
X62921Y-48014D01*
X62979Y-47956D01*
X63036Y-47928D01*
X63150Y-47899D01*
X63236Y-47899D01*
X63350Y-47928D01*
X63407Y-47956D01*
X63464Y-48014D01*
X63493Y-48099D01*
X63493Y-48242D01*
X63436Y-47299D02*
X63464Y-47328D01*
X63493Y-47414D01*
X63493Y-47471D01*
X63464Y-47556D01*
X63407Y-47614D01*
X63350Y-47642D01*
X63236Y-47671D01*
X63150Y-47671D01*
X63036Y-47642D01*
X62979Y-47614D01*
X62921Y-47556D01*
X62893Y-47471D01*
X62893Y-47414D01*
X62921Y-47328D01*
X62950Y-47299D01*
X63493Y-46728D02*
X63493Y-47071D01*
X63493Y-46899D02*
X62893Y-46899D01*
X62979Y-46956D01*
X63036Y-47014D01*
X63064Y-47071D01*
X54243Y-48371D02*
X53643Y-48371D01*
X53643Y-48228D01*
X53671Y-48143D01*
X53729Y-48085D01*
X53786Y-48057D01*
X53900Y-48028D01*
X53986Y-48028D01*
X54100Y-48057D01*
X54157Y-48085D01*
X54214Y-48143D01*
X54243Y-48228D01*
X54243Y-48371D01*
X54186Y-47428D02*
X54214Y-47457D01*
X54243Y-47543D01*
X54243Y-47600D01*
X54214Y-47685D01*
X54157Y-47743D01*
X54100Y-47771D01*
X53986Y-47800D01*
X53900Y-47800D01*
X53786Y-47771D01*
X53729Y-47743D01*
X53671Y-47685D01*
X53643Y-47600D01*
X53643Y-47543D01*
X53671Y-47457D01*
X53700Y-47428D01*
X53643Y-47228D02*
X54243Y-47085D01*
X53814Y-46971D01*
X54243Y-46857D01*
X53643Y-46714D01*
X53643Y-46371D02*
X53643Y-46314D01*
X53671Y-46257D01*
X53700Y-46228D01*
X53757Y-46199D01*
X53871Y-46171D01*
X54014Y-46171D01*
X54129Y-46199D01*
X54186Y-46228D01*
X54214Y-46257D01*
X54243Y-46314D01*
X54243Y-46371D01*
X54214Y-46428D01*
X54186Y-46457D01*
X54129Y-46485D01*
X54014Y-46514D01*
X53871Y-46514D01*
X53757Y-46485D01*
X53700Y-46457D01*
X53671Y-46428D01*
X53643Y-46371D01*
X53900Y-45828D02*
X53871Y-45886D01*
X53843Y-45914D01*
X53786Y-45943D01*
X53757Y-45943D01*
X53700Y-45914D01*
X53671Y-45886D01*
X53643Y-45828D01*
X53643Y-45714D01*
X53671Y-45657D01*
X53700Y-45628D01*
X53757Y-45600D01*
X53786Y-45600D01*
X53843Y-45628D01*
X53871Y-45657D01*
X53900Y-45714D01*
X53900Y-45828D01*
X53929Y-45886D01*
X53957Y-45914D01*
X54014Y-45943D01*
X54129Y-45943D01*
X54186Y-45914D01*
X54214Y-45886D01*
X54243Y-45828D01*
X54243Y-45714D01*
X54214Y-45657D01*
X54186Y-45628D01*
X54129Y-45600D01*
X54014Y-45600D01*
X53957Y-45628D01*
X53929Y-45657D01*
X53900Y-45714D01*
G54D12*
X59143Y-46512D02*
X59276Y-46912D01*
X59410Y-46512D01*
X59600Y-46912D02*
X59562Y-46893D01*
X59543Y-46874D01*
X59524Y-46836D01*
X59524Y-46721D01*
X59543Y-46683D01*
X59562Y-46664D01*
X59600Y-46645D01*
X59658Y-46645D01*
X59696Y-46664D01*
X59715Y-46683D01*
X59734Y-46721D01*
X59734Y-46836D01*
X59715Y-46874D01*
X59696Y-46893D01*
X59658Y-46912D01*
X59600Y-46912D01*
X60077Y-46645D02*
X60077Y-46912D01*
X59905Y-46645D02*
X59905Y-46855D01*
X59924Y-46893D01*
X59962Y-46912D01*
X60020Y-46912D01*
X60058Y-46893D01*
X60077Y-46874D01*
X60210Y-46645D02*
X60362Y-46645D01*
X60267Y-46512D02*
X60267Y-46855D01*
X60286Y-46893D01*
X60324Y-46912D01*
X60362Y-46912D01*
X60496Y-46760D02*
X60801Y-46760D01*
X60649Y-46912D02*
X60649Y-46607D01*
X56393Y-46512D02*
X56526Y-46912D01*
X56660Y-46512D01*
X56850Y-46912D02*
X56812Y-46893D01*
X56793Y-46874D01*
X56774Y-46836D01*
X56774Y-46721D01*
X56793Y-46683D01*
X56812Y-46664D01*
X56850Y-46645D01*
X56908Y-46645D01*
X56946Y-46664D01*
X56965Y-46683D01*
X56984Y-46721D01*
X56984Y-46836D01*
X56965Y-46874D01*
X56946Y-46893D01*
X56908Y-46912D01*
X56850Y-46912D01*
X57327Y-46645D02*
X57327Y-46912D01*
X57155Y-46645D02*
X57155Y-46855D01*
X57174Y-46893D01*
X57212Y-46912D01*
X57270Y-46912D01*
X57308Y-46893D01*
X57327Y-46874D01*
X57460Y-46645D02*
X57612Y-46645D01*
X57517Y-46512D02*
X57517Y-46855D01*
X57536Y-46893D01*
X57574Y-46912D01*
X57612Y-46912D01*
X57746Y-46760D02*
X58051Y-46760D01*
X59686Y-44874D02*
X59667Y-44893D01*
X59610Y-44912D01*
X59572Y-44912D01*
X59514Y-44893D01*
X59476Y-44855D01*
X59457Y-44817D01*
X59438Y-44740D01*
X59438Y-44683D01*
X59457Y-44607D01*
X59476Y-44569D01*
X59514Y-44531D01*
X59572Y-44512D01*
X59610Y-44512D01*
X59667Y-44531D01*
X59686Y-44550D01*
X59933Y-44512D02*
X60010Y-44512D01*
X60048Y-44531D01*
X60086Y-44569D01*
X60105Y-44645D01*
X60105Y-44779D01*
X60086Y-44855D01*
X60048Y-44893D01*
X60010Y-44912D01*
X59933Y-44912D01*
X59895Y-44893D01*
X59857Y-44855D01*
X59838Y-44779D01*
X59838Y-44645D01*
X59857Y-44569D01*
X59895Y-44531D01*
X59933Y-44512D01*
X60276Y-44912D02*
X60276Y-44512D01*
X60410Y-44798D01*
X60543Y-44512D01*
X60543Y-44912D01*
X56686Y-44874D02*
X56667Y-44893D01*
X56610Y-44912D01*
X56572Y-44912D01*
X56514Y-44893D01*
X56476Y-44855D01*
X56457Y-44817D01*
X56438Y-44740D01*
X56438Y-44683D01*
X56457Y-44607D01*
X56476Y-44569D01*
X56514Y-44531D01*
X56572Y-44512D01*
X56610Y-44512D01*
X56667Y-44531D01*
X56686Y-44550D01*
X56933Y-44512D02*
X57010Y-44512D01*
X57048Y-44531D01*
X57086Y-44569D01*
X57105Y-44645D01*
X57105Y-44779D01*
X57086Y-44855D01*
X57048Y-44893D01*
X57010Y-44912D01*
X56933Y-44912D01*
X56895Y-44893D01*
X56857Y-44855D01*
X56838Y-44779D01*
X56838Y-44645D01*
X56857Y-44569D01*
X56895Y-44531D01*
X56933Y-44512D01*
X57276Y-44912D02*
X57276Y-44512D01*
X57410Y-44798D01*
X57543Y-44512D01*
X57543Y-44912D01*
X56343Y-38012D02*
X56476Y-38412D01*
X56610Y-38012D01*
X56743Y-38412D02*
X56743Y-38145D01*
X56743Y-38012D02*
X56724Y-38031D01*
X56743Y-38050D01*
X56762Y-38031D01*
X56743Y-38012D01*
X56743Y-38050D01*
X56933Y-38145D02*
X56933Y-38412D01*
X56933Y-38183D02*
X56952Y-38164D01*
X56990Y-38145D01*
X57048Y-38145D01*
X57086Y-38164D01*
X57105Y-38202D01*
X57105Y-38412D01*
X57295Y-38260D02*
X57600Y-38260D01*
X59593Y-38012D02*
X59726Y-38412D01*
X59860Y-38012D01*
X59993Y-38412D02*
X59993Y-38145D01*
X59993Y-38012D02*
X59974Y-38031D01*
X59993Y-38050D01*
X60012Y-38031D01*
X59993Y-38012D01*
X59993Y-38050D01*
X60183Y-38145D02*
X60183Y-38412D01*
X60183Y-38183D02*
X60202Y-38164D01*
X60240Y-38145D01*
X60298Y-38145D01*
X60336Y-38164D01*
X60355Y-38202D01*
X60355Y-38412D01*
X60545Y-38260D02*
X60850Y-38260D01*
X60698Y-38412D02*
X60698Y-38107D01*
M02*
