G04 (created by PCBnew (20090216-final)) date Tue 06 Oct 2009 17:03:36 PDT*
G01*
G70*
G90*
%MOIN*%
G04 Gerber Fmt 3.4, Leading zero omitted, Abs format*
%FSLAX34Y34*%
G04 APERTURE LIST*
%ADD10C,0.012000*%
%ADD11C,0.073000*%
%ADD12R,0.073000X0.073000*%
%ADD13C,0.053000*%
%ADD14C,0.120000*%
%ADD15R,0.065000X0.065000*%
%ADD16C,0.065000*%
%ADD17C,0.107000*%
%ADD18C,0.056000*%
%ADD19R,0.056000X0.056000*%
%ADD20C,0.122000*%
%ADD21C,0.018000*%
%ADD22C,0.010000*%
%ADD23R,0.040000X0.020000*%
%ADD24R,0.055000X0.035000*%
%ADD25R,0.027500X0.035000*%
%ADD26C,0.012000*%
%ADD27C,0.009000*%
%ADD28C,0.015000*%
%ADD29C,0.005000*%
%ADD30C,0.079000*%
%ADD31R,0.079000X0.079000*%
%ADD32C,0.059000*%
%ADD33C,0.126000*%
%ADD34R,0.071000X0.071000*%
%ADD35C,0.071000*%
%ADD36C,0.113000*%
%ADD37C,0.062000*%
%ADD38R,0.062000X0.062000*%
%ADD39C,0.128000*%
%ADD40R,0.046000X0.026000*%
%ADD41R,0.061000X0.041000*%
%ADD42R,0.033500X0.041000*%
G04 APERTURE END LIST*
G54D10*
X59534Y-33708D02*
X59534Y-34108D01*
X59734Y-33908D02*
X59334Y-33908D01*
X59800Y-34628D02*
X59800Y-34894D01*
X59800Y-34761D02*
X59200Y-34761D01*
X59267Y-34761D02*
X59400Y-34628D01*
X59667Y-35280D02*
X59734Y-35280D01*
X59734Y-35280D02*
X59800Y-35347D01*
X59800Y-35347D02*
X59800Y-35680D01*
X59800Y-35680D02*
X59734Y-35747D01*
X59734Y-35747D02*
X59534Y-35747D01*
X59534Y-35747D02*
X59400Y-35614D01*
X59400Y-35614D02*
X59400Y-35280D01*
X59400Y-35280D02*
X59200Y-35280D01*
X59200Y-35280D02*
X59200Y-35747D01*
X59200Y-36066D02*
X59800Y-36333D01*
X59800Y-36333D02*
X59200Y-36600D01*
X59800Y-36919D02*
X59200Y-36919D01*
X59200Y-36852D02*
X59200Y-37252D01*
X59200Y-37252D02*
X59267Y-37319D01*
X59267Y-37319D02*
X59734Y-37319D01*
X59734Y-37319D02*
X59800Y-37252D01*
X59800Y-37252D02*
X59800Y-36852D01*
X59734Y-38105D02*
X59800Y-38038D01*
X59800Y-38038D02*
X59800Y-37705D01*
X59800Y-37705D02*
X59734Y-37638D01*
X59734Y-37638D02*
X59267Y-37638D01*
X59267Y-37638D02*
X59200Y-37705D01*
X59200Y-37705D02*
X59200Y-38038D01*
X59200Y-38038D02*
X59267Y-38105D01*
X58267Y-34287D02*
X58200Y-34287D01*
X58200Y-34287D02*
X58200Y-33954D01*
X58200Y-33954D02*
X58267Y-33887D01*
X58267Y-33887D02*
X58734Y-33887D01*
X58734Y-33887D02*
X58800Y-33954D01*
X58800Y-33954D02*
X58800Y-34287D01*
X58800Y-34287D02*
X58734Y-34354D01*
X58734Y-34354D02*
X58534Y-34354D01*
X58534Y-34354D02*
X58534Y-34154D01*
X58800Y-34673D02*
X58200Y-34673D01*
X58200Y-34673D02*
X58800Y-35140D01*
X58800Y-35140D02*
X58200Y-35140D01*
X58800Y-35526D02*
X58200Y-35526D01*
X58200Y-35459D02*
X58200Y-35859D01*
X58200Y-35859D02*
X58267Y-35926D01*
X58267Y-35926D02*
X58734Y-35926D01*
X58734Y-35926D02*
X58800Y-35859D01*
X58800Y-35859D02*
X58800Y-35459D01*
X57534Y-33875D02*
X57534Y-34208D01*
X57800Y-34728D02*
X57800Y-34994D01*
X57800Y-34861D02*
X57200Y-34861D01*
X57267Y-34861D02*
X57400Y-34728D01*
X57667Y-35380D02*
X57734Y-35380D01*
X57734Y-35380D02*
X57800Y-35447D01*
X57800Y-35447D02*
X57800Y-35780D01*
X57800Y-35780D02*
X57734Y-35847D01*
X57734Y-35847D02*
X57534Y-35847D01*
X57534Y-35847D02*
X57400Y-35714D01*
X57400Y-35714D02*
X57400Y-35380D01*
X57400Y-35380D02*
X57200Y-35380D01*
X57200Y-35380D02*
X57200Y-35847D01*
X57200Y-36166D02*
X57800Y-36433D01*
X57800Y-36433D02*
X57200Y-36700D01*
X57800Y-37019D02*
X57200Y-37019D01*
X57200Y-36952D02*
X57200Y-37352D01*
X57200Y-37352D02*
X57267Y-37419D01*
X57267Y-37419D02*
X57734Y-37419D01*
X57734Y-37419D02*
X57800Y-37352D01*
X57800Y-37352D02*
X57800Y-36952D01*
X57734Y-38205D02*
X57800Y-38138D01*
X57800Y-38138D02*
X57800Y-37805D01*
X57800Y-37805D02*
X57734Y-37738D01*
X57734Y-37738D02*
X57267Y-37738D01*
X57267Y-37738D02*
X57200Y-37805D01*
X57200Y-37805D02*
X57200Y-38138D01*
X57200Y-38138D02*
X57267Y-38205D01*
G54D27*
X63500Y-30500D02*
X53500Y-30500D01*
X63500Y-52500D02*
X63500Y-30500D01*
X53500Y-52500D02*
X63500Y-52500D01*
X53500Y-30500D02*
X53500Y-52500D01*
M02*
