G04 (created by PCBNEW-RS274X (2011-05-25)-stable) date Thu 26 Sep 2013 02:57:48 PM EDT*
G01*
G70*
G90*
%MOIN*%
G04 Gerber Fmt 3.4, Leading zero omitted, Abs format*
%FSLAX34Y34*%
G04 APERTURE LIST*
%ADD10C,0.006000*%
%ADD11C,0.009000*%
%ADD12C,0.127000*%
%ADD13C,0.076000*%
%ADD14R,0.076000X0.076000*%
%ADD15C,0.180000*%
%ADD16C,0.080000*%
%ADD17R,0.080000X0.045000*%
%ADD18R,0.070000X0.120000*%
%ADD19R,0.120000X0.070000*%
%ADD20C,0.220000*%
%ADD21C,0.100000*%
%ADD22C,0.096000*%
%ADD23C,0.160000*%
%ADD24C,0.140000*%
%ADD25R,0.085000X0.085000*%
%ADD26C,0.085000*%
%ADD27C,0.093000*%
%ADD28R,0.093000X0.093000*%
%ADD29C,0.155000*%
G04 APERTURE END LIST*
G54D10*
G54D11*
X29500Y-30500D02*
X29500Y-53000D01*
X72000Y-30500D02*
X29500Y-30500D01*
X72000Y-53000D02*
X72000Y-30500D01*
X29500Y-53000D02*
X72000Y-53000D01*
G54D12*
X71090Y-44270D03*
X71090Y-39230D03*
G54D13*
X69170Y-43520D03*
X69170Y-39980D03*
X69170Y-42815D03*
G54D14*
X69170Y-40685D03*
G54D12*
X70820Y-41750D03*
G54D15*
X30750Y-51750D03*
X40750Y-51750D03*
X30750Y-31750D03*
X60750Y-51750D03*
X70750Y-31750D03*
X70750Y-51750D03*
G54D16*
X44500Y-42500D03*
X43500Y-42500D03*
X40500Y-42500D03*
X39500Y-42500D03*
X47500Y-42500D03*
X48500Y-42500D03*
X51500Y-42500D03*
X52500Y-42500D03*
X38500Y-33500D03*
X39500Y-33500D03*
X40500Y-33500D03*
X41500Y-33500D03*
X42500Y-33500D03*
X43500Y-33500D03*
X44500Y-33500D03*
X45500Y-33500D03*
X46500Y-33500D03*
X47500Y-33500D03*
X48500Y-33500D03*
X49500Y-33500D03*
G54D17*
X57250Y-44500D03*
X57250Y-45000D03*
X57250Y-45500D03*
X57250Y-46000D03*
X57250Y-46500D03*
X57250Y-47000D03*
X57250Y-47500D03*
X57250Y-48000D03*
X61250Y-48000D03*
X61250Y-47500D03*
X61250Y-47000D03*
X61250Y-46500D03*
X61250Y-46000D03*
X61250Y-45500D03*
X61250Y-45000D03*
X61250Y-44500D03*
G54D18*
X59850Y-43250D03*
X58650Y-43250D03*
X63850Y-45250D03*
X62650Y-45250D03*
X59850Y-49250D03*
X58650Y-49250D03*
G54D19*
X64000Y-47600D03*
X64000Y-46400D03*
X62500Y-47600D03*
X62500Y-46400D03*
G54D20*
X41670Y-48000D03*
X37330Y-48000D03*
G54D21*
X39500Y-44060D03*
X40980Y-44060D03*
X38020Y-44060D03*
G54D20*
X54670Y-48000D03*
X50330Y-48000D03*
G54D21*
X52500Y-44060D03*
X53980Y-44060D03*
X51020Y-44060D03*
G54D15*
X40750Y-31750D03*
G54D22*
X30930Y-41750D03*
G54D23*
X32110Y-41750D03*
G54D15*
X34470Y-41750D03*
G54D23*
X31720Y-39980D03*
X31720Y-43520D03*
G54D24*
X30750Y-38250D03*
X30750Y-34250D03*
G54D25*
X32750Y-36250D03*
G54D26*
X32750Y-37250D03*
G54D24*
X34750Y-38250D03*
X30750Y-49250D03*
X30750Y-45250D03*
G54D25*
X32750Y-47250D03*
G54D26*
X32750Y-48250D03*
G54D24*
X34750Y-49250D03*
G54D27*
X66750Y-50500D03*
X65750Y-50500D03*
G54D28*
X67750Y-50500D03*
G54D27*
X64750Y-50500D03*
X63750Y-50500D03*
G54D15*
X60750Y-31750D03*
G54D29*
X37000Y-39000D03*
X37000Y-37000D03*
X55000Y-34000D03*
X55000Y-36000D03*
X55000Y-39000D03*
X55000Y-42000D03*
G54D17*
X44800Y-45000D03*
X44800Y-45500D03*
X44800Y-46000D03*
X44800Y-46500D03*
X47200Y-46500D03*
X47200Y-46000D03*
X47200Y-45500D03*
X47200Y-45000D03*
X44800Y-48500D03*
X44800Y-49000D03*
X44800Y-49500D03*
X44800Y-50000D03*
X47200Y-50000D03*
X47200Y-49500D03*
X47200Y-49000D03*
X47200Y-48500D03*
M02*
