999
dxflib 2.2.0.0
  0
SECTION
  2
HEADER
  9
$ACADVER
  1
AC1015
  9
$HANDSEED
  5
FFFF
  9
$SPLINESEGS
 70
8
  9
$DIMEXE
 40
1.25
  9
$ANGBASE
 50
0.0
  9
$DIMLUNIT
 70
2
  9
$GRIDMODE
 70
1
  9
$INSUNITS
 70
1
  9
$DIMADEC
 70
2
  9
$DIMASZ
 40
2.5
  9
$DIMGAP
 40
0.625
  9
$DIMTXT
 40
2.5
  9
$GRIDUNIT
 10
0.0
 20
0.0
  9
$ANGDIR
 70
0
  9
$DIMEXO
 40
0.625
  9
$LUPREC
 70
4
  9
$DIMAUNIT
 70
0
  9
$AUPREC
 70
2
  9
$PLIMMIN
 10
0.0
 20
0.0
  9
$LUNITS
 70
2
  9
$PLIMMAX
 10
8.2677165354330722
 20
11.6929133858267722
  9
$DIMSTYLE
  2
Standard
  9
$AUNITS
 70
0
  0
ENDSEC
  0
SECTION
  2
TABLES
  0
TABLE
  2
VPORT
  5
8
100
AcDbSymbolTable
 70
1
  0
VPORT
  5
30
100
AcDbSymbolTableRecord
100
AcDbViewportTableRecord
  2
*Active
 70
0
 10
0.0
 20
0.0
 11
1.0
 21
1.0
 12
286.3055555555554861
 22
148.5
 13
0.0
 23
0.0
 14
10.0
 24
10.0
 15
10.0
 25
10.0
 16
0.0
 26
0.0
 36
1.0
 17
0.0
 27
0.0
 37
0.0
 40
297.0
 41
1.92798353909465
 42
50.0
 43
0.0
 44
0.0
 50
0.0
 51
0.0
 71
0
 72
100
 73
1
 74
3
 75
1
 76
1
 77
0
 78
0
281
0
 65
1
110
0.0
120
0.0
130
0.0
111
1.0
121
0.0
131
0.0
112
0.0
122
1.0
132
0.0
 79
0
146
0.0
  0
ENDTAB
  0
TABLE
  2
LTYPE
  5
5
100
AcDbSymbolTable
 70
21
  0
LTYPE
  5
14
100
AcDbSymbolTableRecord
100
AcDbLinetypeTableRecord
  2
ByBlock
 70
0
  3

 72
65
 73
0
 40
0.0
  0
LTYPE
  5
15
100
AcDbSymbolTableRecord
100
AcDbLinetypeTableRecord
  2
ByLayer
 70
0
  3

 72
65
 73
0
 40
0.0
  0
LTYPE
  5
16
100
AcDbSymbolTableRecord
100
AcDbLinetypeTableRecord
  2
CONTINUOUS
 70
0
  3
Solid line
 72
65
 73
0
 40
0.0
  0
LTYPE
  5
31
100
AcDbSymbolTableRecord
100
AcDbLinetypeTableRecord
  2
DOT
 70
0
  3
Dot . . . . . . . . . . . . . . . . . . . . . .
 72
65
 73
2
 40
6.3499999999999996
 49
0.0
 74
0
 49
-6.3499999999999996
 74
0
  0
LTYPE
  5
32
100
AcDbSymbolTableRecord
100
AcDbLinetypeTableRecord
  2
DOT2
 70
0
  3
Dot (.5x) .....................................
 72
65
 73
2
 40
3.1749999999999998
 49
0.0
 74
0
 49
-3.1749999999999998
 74
0
  0
LTYPE
  5
33
100
AcDbSymbolTableRecord
100
AcDbLinetypeTableRecord
  2
DOTX2
 70
0
  3
Dot (2x) .  .  .  .  .  .  .  .  .  .  .  .  .
 72
65
 73
2
 40
12.6999999999999993
 49
0.0
 74
0
 49
-12.6999999999999993
 74
0
  0
LTYPE
  5
34
100
AcDbSymbolTableRecord
100
AcDbLinetypeTableRecord
  2
DASHED
 70
0
  3
Dashed __ __ __ __ __ __ __ __ __ __ __ __ __ _
 72
65
 73
2
 40
19.0500000000000007
 49
12.6999999999999993
 74
0
 49
-6.3499999999999996
 74
0
  0
LTYPE
  5
35
100
AcDbSymbolTableRecord
100
AcDbLinetypeTableRecord
  2
DASHED2
 70
0
  3
Dashed (.5x) _ _ _ _ _ _ _ _ _ _ _ _ _ _ _ _ _
 72
65
 73
2
 40
9.5250000000000004
 49
6.3499999999999996
 74
0
 49
-3.1749999999999998
 74
0
  0
LTYPE
  5
36
100
AcDbSymbolTableRecord
100
AcDbLinetypeTableRecord
  2
DASHEDX2
 70
0
  3
Dashed (2x) ____  ____  ____  ____  ____  ___
 72
65
 73
2
 40
38.1000000000000014
 49
25.3999999999999986
 74
0
 49
-12.6999999999999993
 74
0
  0
LTYPE
  5
37
100
AcDbSymbolTableRecord
100
AcDbLinetypeTableRecord
  2
DASHDOT
 70
0
  3
Dash dot __ . __ . __ . __ . __ . __ . __ . __
 72
65
 73
4
 40
25.3999999999999986
 49
12.6999999999999993
 74
0
 49
-6.3499999999999996
 74
0
 49
0.0
 74
0
 49
-6.3499999999999996
 74
0
  0
LTYPE
  5
38
100
AcDbSymbolTableRecord
100
AcDbLinetypeTableRecord
  2
DASHDOT2
 70
0
  3
Dash dot (.5x) _._._._._._._._._._._._._._._.
 72
65
 73
4
 40
12.6999999999999993
 49
6.3499999999999996
 74
0
 49
-3.1749999999999998
 74
0
 49
0.0
 74
0
 49
-3.1749999999999998
 74
0
  0
LTYPE
  5
39
100
AcDbSymbolTableRecord
100
AcDbLinetypeTableRecord
  2
DASHDOTX2
 70
0
  3
Dash dot (2x) ____  .  ____  .  ____  .  ___
 72
65
 73
4
 40
50.7999999999999972
 49
25.3999999999999986
 74
0
 49
-12.6999999999999993
 74
0
 49
0.0
 74
0
 49
-12.6999999999999993
 74
0
  0
LTYPE
  5
3A
100
AcDbSymbolTableRecord
100
AcDbLinetypeTableRecord
  2
DIVIDE
 70
0
  3
Divide ____ . . ____ . . ____ . . ____ . . ____
 72
65
 73
6
 40
31.75
 49
12.6999999999999993
 74
0
 49
-6.3499999999999996
 74
0
 49
0.0
 74
0
 49
-6.3499999999999996
 74
0
 49
0.0
 74
0
 49
-6.3499999999999996
 74
0
  0
LTYPE
  5
3B
100
AcDbSymbolTableRecord
100
AcDbLinetypeTableRecord
  2
DIVIDE2
 70
0
  3
Divide (.5x) __..__..__..__..__..__..__..__.._
 72
65
 73
6
 40
15.875
 49
6.3499999999999996
 74
0
 49
-3.1749999999999998
 74
0
 49
0.0
 74
0
 49
-3.1749999999999998
 74
0
 49
0.0
 74
0
 49
-3.1749999999999998
 74
0
  0
LTYPE
  5
3C
100
AcDbSymbolTableRecord
100
AcDbLinetypeTableRecord
  2
DIVIDEX2
 70
0
  3
Divide (2x) ________  .  .  ________  .  .  _
 72
65
 73
6
 40
63.5
 49
25.3999999999999986
 74
0
 49
-12.6999999999999993
 74
0
 49
0.0
 74
0
 49
-12.6999999999999993
 74
0
 49
0.0
 74
0
 49
-12.6999999999999993
 74
0
  0
LTYPE
  5
3D
100
AcDbSymbolTableRecord
100
AcDbLinetypeTableRecord
  2
CENTER
 70
0
  3
Center ____ _ ____ _ ____ _ ____ _ ____ _ ____
 72
65
 73
4
 40
50.7999999999999972
 49
31.75
 74
0
 49
-6.3499999999999996
 74
0
 49
6.3499999999999996
 74
0
 49
-6.3499999999999996
 74
0
  0
LTYPE
  5
3E
100
AcDbSymbolTableRecord
100
AcDbLinetypeTableRecord
  2
CENTER2
 70
0
  3
Center (.5x) ___ _ ___ _ ___ _ ___ _ ___ _ ___
 72
65
 73
4
 40
28.5749999999999993
 49
19.0500000000000007
 74
0
 49
-3.1749999999999998
 74
0
 49
3.1749999999999998
 74
0
 49
-3.1749999999999998
 74
0
  0
LTYPE
  5
3F
100
AcDbSymbolTableRecord
100
AcDbLinetypeTableRecord
  2
CENTERX2
 70
0
  3
Center (2x) ________  __  ________  __  _____
 72
65
 73
4
 40
101.5999999999999943
 49
63.5
 74
0
 49
-12.6999999999999993
 74
0
 49
12.6999999999999993
 74
0
 49
-12.6999999999999993
 74
0
  0
LTYPE
  5
40
100
AcDbSymbolTableRecord
100
AcDbLinetypeTableRecord
  2
BORDER
 70
0
  3
Border __ __ . __ __ . __ __ . __ __ . __ __ .
 72
65
 73
6
 40
44.4500000000000028
 49
12.6999999999999993
 74
0
 49
-6.3499999999999996
 74
0
 49
12.6999999999999993
 74
0
 49
-6.3499999999999996
 74
0
 49
0.0
 74
0
 49
-6.3499999999999996
 74
0
  0
LTYPE
  5
41
100
AcDbSymbolTableRecord
100
AcDbLinetypeTableRecord
  2
BORDER2
 70
0
  3
Border (.5x) __.__.__.__.__.__.__.__.__.__.__.
 72
65
 73
6
 40
22.2250000000000014
 49
6.3499999999999996
 74
0
 49
-3.1749999999999998
 74
0
 49
6.3499999999999996
 74
0
 49
-3.1749999999999998
 74
0
 49
0.0
 74
0
 49
-3.1749999999999998
 74
0
  0
LTYPE
  5
42
100
AcDbSymbolTableRecord
100
AcDbLinetypeTableRecord
  2
BORDERX2
 70
0
  3
Border (2x) ____  ____  .  ____  ____  .  ___
 72
65
 73
6
 40
88.9000000000000057
 49
25.3999999999999986
 74
0
 49
-12.6999999999999993
 74
0
 49
25.3999999999999986
 74
0
 49
-12.6999999999999993
 74
0
 49
0.0
 74
0
 49
-12.6999999999999993
 74
0
  0
ENDTAB
  0
TABLE
  2
LAYER
  5
2
100
AcDbSymbolTable
 70
25
  0
LAYER
  5
10
100
AcDbSymbolTableRecord
100
AcDbLayerTableRecord
  2
0
 70
0
 62
7
  6
CONTINUOUS
370
0
390
F
  0
LAYER
  5
43
100
AcDbSymbolTableRecord
100
AcDbLayerTableRecord
  2
BLACK
 70
0
 62
1
  6
CONTINUOUS
390
F
  0
LAYER
  5
44
100
AcDbSymbolTableRecord
100
AcDbLayerTableRecord
  2
BLUE
 70
0
 62
2
  6
CONTINUOUS
390
F
  0
LAYER
  5
45
100
AcDbSymbolTableRecord
100
AcDbLayerTableRecord
  2
GREEN
 70
0
 62
3
  6
CONTINUOUS
390
F
  0
LAYER
  5
46
100
AcDbSymbolTableRecord
100
AcDbLayerTableRecord
  2
CYAN
 70
0
 62
4
  6
CONTINUOUS
390
F
  0
LAYER
  5
47
100
AcDbSymbolTableRecord
100
AcDbLayerTableRecord
  2
RED
 70
0
 62
5
  6
CONTINUOUS
390
F
  0
LAYER
  5
48
100
AcDbSymbolTableRecord
100
AcDbLayerTableRecord
  2
MAGENTA
 70
0
 62
6
  6
CONTINUOUS
390
F
  0
LAYER
  5
49
100
AcDbSymbolTableRecord
100
AcDbLayerTableRecord
  2
BROWN
 70
0
 62
7
  6
CONTINUOUS
390
F
  0
LAYER
  5
4A
100
AcDbSymbolTableRecord
100
AcDbLayerTableRecord
  2
GRAY
 70
0
 62
8
  6
CONTINUOUS
390
F
  0
LAYER
  5
4B
100
AcDbSymbolTableRecord
100
AcDbLayerTableRecord
  2
DARKGRAY
 70
0
 62
9
  6
CONTINUOUS
390
F
  0
LAYER
  5
4C
100
AcDbSymbolTableRecord
100
AcDbLayerTableRecord
  2
LIGHTBLUE
 70
0
 62
1
  6
CONTINUOUS
390
F
  0
LAYER
  5
4D
100
AcDbSymbolTableRecord
100
AcDbLayerTableRecord
  2
LIGHTGREEN
 70
0
 62
11
  6
CONTINUOUS
390
F
  0
LAYER
  5
4E
100
AcDbSymbolTableRecord
100
AcDbLayerTableRecord
  2
LIGHTCYAN
 70
0
 62
12
  6
CONTINUOUS
390
F
  0
LAYER
  5
4F
100
AcDbSymbolTableRecord
100
AcDbLayerTableRecord
  2
LIGHTRED
 70
0
 62
13
  6
CONTINUOUS
390
F
  0
LAYER
  5
50
100
AcDbSymbolTableRecord
100
AcDbLayerTableRecord
  2
LIGHTMAGENTA
 70
0
 62
14
  6
CONTINUOUS
390
F
  0
LAYER
  5
51
100
AcDbSymbolTableRecord
100
AcDbLayerTableRecord
  2
YELLOW
 70
0
 62
15
  6
CONTINUOUS
390
F
  0
LAYER
  5
52
100
AcDbSymbolTableRecord
100
AcDbLayerTableRecord
  2
WHITE
 70
0
 62
16
  6
CONTINUOUS
390
F
  0
LAYER
  5
53
100
AcDbSymbolTableRecord
100
AcDbLayerTableRecord
  2
DARKDARKGRAY
 70
0
 62
17
  6
CONTINUOUS
390
F
  0
LAYER
  5
54
100
AcDbSymbolTableRecord
100
AcDbLayerTableRecord
  2
DARKBLUE
 70
0
 62
18
  6
CONTINUOUS
390
F
  0
LAYER
  5
55
100
AcDbSymbolTableRecord
100
AcDbLayerTableRecord
  2
DARKGREEN
 70
0
 62
19
  6
CONTINUOUS
390
F
  0
LAYER
  5
56
100
AcDbSymbolTableRecord
100
AcDbLayerTableRecord
  2
DARKCYAN
 70
0
 62
20
  6
CONTINUOUS
390
F
  0
LAYER
  5
57
100
AcDbSymbolTableRecord
100
AcDbLayerTableRecord
  2
DARKRED
 70
0
 62
21
  6
CONTINUOUS
390
F
  0
LAYER
  5
58
100
AcDbSymbolTableRecord
100
AcDbLayerTableRecord
  2
DARKMAGENTA
 70
0
 62
22
  6
CONTINUOUS
390
F
  0
LAYER
  5
59
100
AcDbSymbolTableRecord
100
AcDbLayerTableRecord
  2
DARKBROWN
 70
0
 62
23
  6
CONTINUOUS
390
F
  0
LAYER
  5
5A
100
AcDbSymbolTableRecord
100
AcDbLayerTableRecord
  2
LIGHTYELLOW
 70
0
 62
24
  6
CONTINUOUS
390
F
  0
ENDTAB
  0
TABLE
  2
STYLE
  5
3
100
AcDbSymbolTable
 70
1
  0
STYLE
  5
11
100
AcDbSymbolTableRecord
100
AcDbTextStyleTableRecord
  2
Standard
 70
0
 40
0.0
 41
0.75
 50
0.0
 71
0
 42
2.5
  3
txt
  4

  0
ENDTAB
  0
TABLE
  2
VIEW
  5
6
100
AcDbSymbolTable
 70
0
  0
ENDTAB
  0
TABLE
  2
UCS
  5
7
100
AcDbSymbolTable
 70
0
  0
ENDTAB
  0
TABLE
  2
APPID
  5
9
100
AcDbSymbolTable
 70
1
  0
APPID
  5
12
100
AcDbSymbolTableRecord
100
AcDbRegAppTableRecord
  2
ACAD
 70
0
  0
ENDTAB
  0
TABLE
  2
DIMSTYLE
  5
A
100
AcDbSymbolTable
 70
1
100
AcDbDimStyleTable
 71
0
  0
DIMSTYLE
105
27
100
AcDbSymbolTableRecord
100
AcDbDimStyleTableRecord
  2
Standard
 41
2.5
 42
0.625
 43
3.75
 44
1.25
 70
0
 73
0
 74
0
 77
1
 78
8
140
2.5
141
2.5
143
0.03937007874016
147
0.625
171
3
172
1
271
2
272
2
274
3
278
44
283
0
284
8
340
11
  0
ENDTAB
  0
TABLE
  2
BLOCK_RECORD
  5
1
100
AcDbSymbolTable
 70
1
  0
BLOCK_RECORD
  5
1F
100
AcDbSymbolTableRecord
100
AcDbBlockTableRecord
  2
*Model_Space
340
22
  0
BLOCK_RECORD
  5
1B
100
AcDbSymbolTableRecord
100
AcDbBlockTableRecord
  2
*Paper_Space
340
1E
  0
BLOCK_RECORD
  5
23
100
AcDbSymbolTableRecord
100
AcDbBlockTableRecord
  2
*Paper_Space0
340
26
  0
ENDTAB
  0
ENDSEC
  0
SECTION
  2
BLOCKS
  0
BLOCK
  5
20
100
AcDbEntity
  8
0
100
AcDbBlockBegin
  2
*Model_Space
 70
0
 10
0.0
 20
0.0
 30
0.0
  3
*Model_Space
  1

  0
ENDBLK
  5
21
100
AcDbEntity
  8
0
100
AcDbBlockEnd
  0
BLOCK
  5
1C
100
AcDbEntity
 67
1
  8
0
100
AcDbBlockBegin
  2
*Paper_Space
 70
0
 10
0.0
 20
0.0
 30
0.0
  3
*Paper_Space
  1

  0
ENDBLK
  5
1D
100
AcDbEntity
 67
1
  8
0
100
AcDbBlockEnd
  0
BLOCK
  5
24
100
AcDbEntity
  8
0
100
AcDbBlockBegin
  2
*Paper_Space0
 70
0
 10
0.0
 20
0.0
 30
0.0
  3
*Paper_Space0
  1

  0
ENDBLK
  5
25
100
AcDbEntity
  8
0
100
AcDbBlockEnd
  0
ENDSEC
  0
SECTION
  2
ENTITIES
  0
LINE
  5
5B
100
AcDbEntity
100
AcDbLine
  8
BLACK
 62
256
370
-1
  6
ByLayer
 10
0.0
 20
1.5
 30
0.0
 11
0.0
 21
0.0
 31
0.0
  0
LINE
  5
5C
100
AcDbEntity
100
AcDbLine
  8
BLACK
 62
256
370
-1
  6
ByLayer
 10
0.75
 20
1.5
 30
0.0
 11
0.0
 21
1.5
 31
0.0
  0
LINE
  5
5D
100
AcDbEntity
100
AcDbLine
  8
BLACK
 62
256
370
-1
  6
ByLayer
 10
0.75
 20
0.0
 30
0.0
 11
0.75
 21
1.5
 31
0.0
  0
LINE
  5
5E
100
AcDbEntity
100
AcDbLine
  8
BLACK
 62
256
370
-1
  6
ByLayer
 10
0.0
 20
0.0
 30
0.0
 11
0.75
 21
0.0
 31
0.0
  0
LINE
  5
5F
100
AcDbEntity
100
AcDbLine
  8
BLACK
 62
256
370
-1
  6
ByLayer
 10
0.5583
 20
0.2538
 30
0.0
 11
0.5335
 21
0.2538
 31
0.0
  0
LINE
  5
60
100
AcDbEntity
100
AcDbLine
  8
BLACK
 62
256
370
-1
  6
ByLayer
 10
0.5335
 20
0.2538
 30
0.0
 11
0.5468999999999999
 21
0.2386
 31
0.0
  0
LINE
  5
61
100
AcDbEntity
100
AcDbLine
  8
BLACK
 62
256
370
-1
  6
ByLayer
 10
0.5468999999999999
 20
0.2386
 30
0.0
 11
0.5411
 21
0.2386
 31
0.0
  0
LINE
  5
62
100
AcDbEntity
100
AcDbLine
  8
BLACK
 62
256
370
-1
  6
ByLayer
 10
0.5411
 20
0.2386
 30
0.0
 11
0.5373
 21
0.2367
 31
0.0
  0
LINE
  5
63
100
AcDbEntity
100
AcDbLine
  8
BLACK
 62
256
370
-1
  6
ByLayer
 10
0.5373
 20
0.2367
 30
0.0
 11
0.5354
 21
0.2348
 31
0.0
  0
LINE
  5
64
100
AcDbEntity
100
AcDbLine
  8
BLACK
 62
256
370
-1
  6
ByLayer
 10
0.5354
 20
0.2348
 30
0.0
 11
0.5335
 21
0.231
 31
0.0
  0
LINE
  5
65
100
AcDbEntity
100
AcDbLine
  8
BLACK
 62
256
370
-1
  6
ByLayer
 10
0.5335
 20
0.231
 30
0.0
 11
0.5335
 21
0.2214
 31
0.0
  0
LINE
  5
66
100
AcDbEntity
100
AcDbLine
  8
BLACK
 62
256
370
-1
  6
ByLayer
 10
0.5335
 20
0.2214
 30
0.0
 11
0.5354
 21
0.2176
 31
0.0
  0
LINE
  5
67
100
AcDbEntity
100
AcDbLine
  8
BLACK
 62
256
370
-1
  6
ByLayer
 10
0.5354
 20
0.2176
 30
0.0
 11
0.5373
 21
0.2157
 31
0.0
  0
LINE
  5
68
100
AcDbEntity
100
AcDbLine
  8
BLACK
 62
256
370
-1
  6
ByLayer
 10
0.5373
 20
0.2157
 30
0.0
 11
0.5411
 21
0.2138
 31
0.0
  0
LINE
  5
69
100
AcDbEntity
100
AcDbLine
  8
BLACK
 62
256
370
-1
  6
ByLayer
 10
0.5411
 20
0.2138
 30
0.0
 11
0.5526
 21
0.2138
 31
0.0
  0
LINE
  5
6A
100
AcDbEntity
100
AcDbLine
  8
BLACK
 62
256
370
-1
  6
ByLayer
 10
0.5526
 20
0.2138
 30
0.0
 11
0.5564
 21
0.2157
 31
0.0
  0
LINE
  5
6B
100
AcDbEntity
100
AcDbLine
  8
BLACK
 62
256
370
-1
  6
ByLayer
 10
0.5564
 20
0.2157
 30
0.0
 11
0.5583
 21
0.2176
 31
0.0
  0
LINE
  5
6C
100
AcDbEntity
100
AcDbLine
  8
BLACK
 62
256
370
-1
  6
ByLayer
 10
0.4635
 20
0.2138
 30
0.0
 11
0.4864
 21
0.2138
 31
0.0
  0
LINE
  5
6D
100
AcDbEntity
100
AcDbLine
  8
BLACK
 62
256
370
-1
  6
ByLayer
 10
0.475
 20
0.2138
 30
0.0
 11
0.475
 21
0.2538
 31
0.0
  0
LINE
  5
6E
100
AcDbEntity
100
AcDbLine
  8
BLACK
 62
256
370
-1
  6
ByLayer
 10
0.475
 20
0.2538
 30
0.0
 11
0.4788
 21
0.2481
 31
0.0
  0
LINE
  5
6F
100
AcDbEntity
100
AcDbLine
  8
BLACK
 62
256
370
-1
  6
ByLayer
 10
0.4788
 20
0.2481
 30
0.0
 11
0.4826
 21
0.2443
 31
0.0
  0
LINE
  5
70
100
AcDbEntity
100
AcDbLine
  8
BLACK
 62
256
370
-1
  6
ByLayer
 10
0.4826
 20
0.2443
 30
0.0
 11
0.4864
 21
0.2424
 31
0.0
  0
LINE
  5
71
100
AcDbEntity
100
AcDbLine
  8
BLACK
 62
256
370
-1
  6
ByLayer
 10
0.2724
 20
0.25
 30
0.0
 11
0.2705
 21
0.2519
 31
0.0
  0
LINE
  5
72
100
AcDbEntity
100
AcDbLine
  8
BLACK
 62
256
370
-1
  6
ByLayer
 10
0.2705
 20
0.2519
 30
0.0
 11
0.2667
 21
0.2538
 31
0.0
  0
LINE
  5
73
100
AcDbEntity
100
AcDbLine
  8
BLACK
 62
256
370
-1
  6
ByLayer
 10
0.2667
 20
0.2538
 30
0.0
 11
0.2571
 21
0.2538
 31
0.0
  0
LINE
  5
74
100
AcDbEntity
100
AcDbLine
  8
BLACK
 62
256
370
-1
  6
ByLayer
 10
0.2571
 20
0.2538
 30
0.0
 11
0.2533
 21
0.2519
 31
0.0
  0
LINE
  5
75
100
AcDbEntity
100
AcDbLine
  8
BLACK
 62
256
370
-1
  6
ByLayer
 10
0.2533
 20
0.2519
 30
0.0
 11
0.2514
 21
0.25
 31
0.0
  0
LINE
  5
76
100
AcDbEntity
100
AcDbLine
  8
BLACK
 62
256
370
-1
  6
ByLayer
 10
0.2514
 20
0.25
 30
0.0
 11
0.2495
 21
0.2462
 31
0.0
  0
LINE
  5
77
100
AcDbEntity
100
AcDbLine
  8
BLACK
 62
256
370
-1
  6
ByLayer
 10
0.2495
 20
0.2462
 30
0.0
 11
0.2495
 21
0.2424
 31
0.0
  0
LINE
  5
78
100
AcDbEntity
100
AcDbLine
  8
BLACK
 62
256
370
-1
  6
ByLayer
 10
0.2495
 20
0.2424
 30
0.0
 11
0.2514
 21
0.2367
 31
0.0
  0
LINE
  5
79
100
AcDbEntity
100
AcDbLine
  8
BLACK
 62
256
370
-1
  6
ByLayer
 10
0.2514
 20
0.2367
 30
0.0
 11
0.2743
 21
0.2138
 31
0.0
  0
LINE
  5
7A
100
AcDbEntity
100
AcDbLine
  8
BLACK
 62
256
370
-1
  6
ByLayer
 10
0.2743
 20
0.2138
 30
0.0
 11
0.2495
 21
0.2138
 31
0.0
  0
LINE
  5
7B
100
AcDbEntity
100
AcDbLine
  8
BLACK
 62
256
370
-1
  6
ByLayer
 10
0.1873
 20
0.2405
 30
0.0
 11
0.1873
 21
0.2138
 31
0.0
  0
LINE
  5
7C
100
AcDbEntity
100
AcDbLine
  8
BLACK
 62
256
370
-1
  6
ByLayer
 10
0.1969
 20
0.2557
 30
0.0
 11
0.2064
 21
0.2271
 31
0.0
  0
LINE
  5
7D
100
AcDbEntity
100
AcDbLine
  8
BLACK
 62
256
370
-1
  6
ByLayer
 10
0.2064
 20
0.2271
 30
0.0
 11
0.1816
 21
0.2271
 31
0.0
  0
LINE
  5
7E
100
AcDbEntity
100
AcDbLine
  8
BLACK
 62
256
370
-1
  6
ByLayer
 10
0.7
 20
0.366
 30
0.0
 11
0.05
 21
0.366
 31
0.0
  0
LINE
  5
7F
100
AcDbEntity
100
AcDbLine
  8
BLACK
 62
256
370
-1
  6
ByLayer
 10
0.7
 20
0.016
 30
0.0
 11
0.7
 21
0.366
 31
0.0
  0
LINE
  5
80
100
AcDbEntity
100
AcDbLine
  8
BLACK
 62
256
370
-1
  6
ByLayer
 10
0.05
 20
0.0155
 30
0.0
 11
0.7
 21
0.0155
 31
0.0
  0
LINE
  5
81
100
AcDbEntity
100
AcDbLine
  8
BLACK
 62
256
370
-1
  6
ByLayer
 10
0.05
 20
0.366
 30
0.0
 11
0.05
 21
0.016
 31
0.0
  0
CIRCLE
  5
82
100
AcDbEntity
100
AcDbCircle
  8
BLACK
 62
256
370
-1
  6
ByLayer
 10
0.44
 20
1.175
 30
0.0
 40
0.005
  0
LINE
  5
83
100
AcDbEntity
100
AcDbLine
  8
BLACK
 62
256
370
-1
  6
ByLayer
 10
0.395
 20
1.175
 30
0.0
 11
0.435
 21
1.175
 31
0.0
  0
LINE
  5
84
100
AcDbEntity
100
AcDbLine
  8
BLACK
 62
256
370
-1
  6
ByLayer
 10
0.435
 20
1.175
 30
0.0
 11
0.435
 21
1.2350000000000001
 31
0.0
  0
LINE
  5
85
100
AcDbEntity
100
AcDbLine
  8
BLACK
 62
256
370
-1
  6
ByLayer
 10
0.435
 20
1.2350000000000001
 30
0.0
 11
0.395
 21
1.2350000000000001
 31
0.0
  0
LINE
  5
86
100
AcDbEntity
100
AcDbLine
  8
BLACK
 62
256
370
-1
  6
ByLayer
 10
0.355
 20
1.2350000000000001
 30
0.0
 11
0.315
 21
1.2350000000000001
 31
0.0
  0
LINE
  5
87
100
AcDbEntity
100
AcDbLine
  8
BLACK
 62
256
370
-1
  6
ByLayer
 10
0.315
 20
1.2350000000000001
 30
0.0
 11
0.315
 21
1.175
 31
0.0
  0
LINE
  5
88
100
AcDbEntity
100
AcDbLine
  8
BLACK
 62
256
370
-1
  6
ByLayer
 10
0.315
 20
1.175
 30
0.0
 11
0.355
 21
1.175
 31
0.0
  0
CIRCLE
  5
89
100
AcDbEntity
100
AcDbCircle
  8
BLACK
 62
256
370
-1
  6
ByLayer
 10
0.44
 20
1.365
 30
0.0
 40
0.005
  0
LINE
  5
8A
100
AcDbEntity
100
AcDbLine
  8
BLACK
 62
256
370
-1
  6
ByLayer
 10
0.395
 20
1.365
 30
0.0
 11
0.435
 21
1.365
 31
0.0
  0
LINE
  5
8B
100
AcDbEntity
100
AcDbLine
  8
BLACK
 62
256
370
-1
  6
ByLayer
 10
0.435
 20
1.365
 30
0.0
 11
0.435
 21
1.425
 31
0.0
  0
LINE
  5
8C
100
AcDbEntity
100
AcDbLine
  8
BLACK
 62
256
370
-1
  6
ByLayer
 10
0.435
 20
1.425
 30
0.0
 11
0.395
 21
1.425
 31
0.0
  0
LINE
  5
8D
100
AcDbEntity
100
AcDbLine
  8
BLACK
 62
256
370
-1
  6
ByLayer
 10
0.355
 20
1.425
 30
0.0
 11
0.315
 21
1.425
 31
0.0
  0
LINE
  5
8E
100
AcDbEntity
100
AcDbLine
  8
BLACK
 62
256
370
-1
  6
ByLayer
 10
0.315
 20
1.425
 30
0.0
 11
0.315
 21
1.365
 31
0.0
  0
LINE
  5
8F
100
AcDbEntity
100
AcDbLine
  8
BLACK
 62
256
370
-1
  6
ByLayer
 10
0.315
 20
1.365
 30
0.0
 11
0.355
 21
1.365
 31
0.0
  0
CIRCLE
  5
90
100
AcDbEntity
100
AcDbCircle
  8
BLACK
 62
256
370
-1
  6
ByLayer
 10
0.16
 20
0.5900000000000001
 30
0.0
 40
0.005
  0
LINE
  5
91
100
AcDbEntity
100
AcDbLine
  8
BLACK
 62
256
370
-1
  6
ByLayer
 10
0.115
 20
0.5900000000000001
 30
0.0
 11
0.155
 21
0.5900000000000001
 31
0.0
  0
LINE
  5
92
100
AcDbEntity
100
AcDbLine
  8
BLACK
 62
256
370
-1
  6
ByLayer
 10
0.155
 20
0.5900000000000001
 30
0.0
 11
0.155
 21
0.65
 31
0.0
  0
LINE
  5
93
100
AcDbEntity
100
AcDbLine
  8
BLACK
 62
256
370
-1
  6
ByLayer
 10
0.155
 20
0.65
 30
0.0
 11
0.115
 21
0.65
 31
0.0
  0
LINE
  5
94
100
AcDbEntity
100
AcDbLine
  8
BLACK
 62
256
370
-1
  6
ByLayer
 10
0.075
 20
0.65
 30
0.0
 11
0.035
 21
0.65
 31
0.0
  0
LINE
  5
95
100
AcDbEntity
100
AcDbLine
  8
BLACK
 62
256
370
-1
  6
ByLayer
 10
0.035
 20
0.65
 30
0.0
 11
0.035
 21
0.5900000000000001
 31
0.0
  0
LINE
  5
96
100
AcDbEntity
100
AcDbLine
  8
BLACK
 62
256
370
-1
  6
ByLayer
 10
0.035
 20
0.5900000000000001
 30
0.0
 11
0.075
 21
0.5900000000000001
 31
0.0
  0
CIRCLE
  5
97
100
AcDbEntity
100
AcDbCircle
  8
BLACK
 62
256
370
-1
  6
ByLayer
 10
0.475
 20
1.0470000000000002
 30
0.0
 40
0.025
  0
LINE
  5
98
100
AcDbEntity
100
AcDbLine
  8
BLACK
 62
256
370
-1
  6
ByLayer
 10
0.525
 20
1.097
 30
0.0
 11
0.525
 21
0.647
 31
0.0
  0
LINE
  5
99
100
AcDbEntity
100
AcDbLine
  8
BLACK
 62
256
370
-1
  6
ByLayer
 10
0.525
 20
0.647
 30
0.0
 11
0.225
 21
0.647
 31
0.0
  0
LINE
  5
9A
100
AcDbEntity
100
AcDbLine
  8
BLACK
 62
256
370
-1
  6
ByLayer
 10
0.225
 20
0.647
 30
0.0
 11
0.225
 21
1.097
 31
0.0
  0
LINE
  5
9B
100
AcDbEntity
100
AcDbLine
  8
BLACK
 62
256
370
-1
  6
ByLayer
 10
0.225
 20
1.097
 30
0.0
 11
0.525
 21
1.097
 31
0.0
  0
CIRCLE
  5
9C
100
AcDbEntity
100
AcDbCircle
  8
BLACK
 62
256
370
-1
  6
ByLayer
 10
0.59
 20
0.44
 30
0.0
 40
0.005
  0
LINE
  5
9D
100
AcDbEntity
100
AcDbLine
  8
BLACK
 62
256
370
-1
  6
ByLayer
 10
0.545
 20
0.44
 30
0.0
 11
0.585
 21
0.44
 31
0.0
  0
LINE
  5
9E
100
AcDbEntity
100
AcDbLine
  8
BLACK
 62
256
370
-1
  6
ByLayer
 10
0.585
 20
0.44
 30
0.0
 11
0.585
 21
0.5
 31
0.0
  0
LINE
  5
9F
100
AcDbEntity
100
AcDbLine
  8
BLACK
 62
256
370
-1
  6
ByLayer
 10
0.585
 20
0.5
 30
0.0
 11
0.545
 21
0.5
 31
0.0
  0
LINE
  5
A0
100
AcDbEntity
100
AcDbLine
  8
BLACK
 62
256
370
-1
  6
ByLayer
 10
0.505
 20
0.5
 30
0.0
 11
0.465
 21
0.5
 31
0.0
  0
LINE
  5
A1
100
AcDbEntity
100
AcDbLine
  8
BLACK
 62
256
370
-1
  6
ByLayer
 10
0.465
 20
0.5
 30
0.0
 11
0.465
 21
0.44
 31
0.0
  0
LINE
  5
A2
100
AcDbEntity
100
AcDbLine
  8
BLACK
 62
256
370
-1
  6
ByLayer
 10
0.465
 20
0.44
 30
0.0
 11
0.505
 21
0.44
 31
0.0
  0
CIRCLE
  5
A3
100
AcDbEntity
100
AcDbCircle
  8
BLACK
 62
256
370
-1
  6
ByLayer
 10
0.29
 20
0.44
 30
0.0
 40
0.005
  0
LINE
  5
A4
100
AcDbEntity
100
AcDbLine
  8
BLACK
 62
256
370
-1
  6
ByLayer
 10
0.245
 20
0.44
 30
0.0
 11
0.285
 21
0.44
 31
0.0
  0
LINE
  5
A5
100
AcDbEntity
100
AcDbLine
  8
BLACK
 62
256
370
-1
  6
ByLayer
 10
0.285
 20
0.44
 30
0.0
 11
0.285
 21
0.5
 31
0.0
  0
LINE
  5
A6
100
AcDbEntity
100
AcDbLine
  8
BLACK
 62
256
370
-1
  6
ByLayer
 10
0.285
 20
0.5
 30
0.0
 11
0.245
 21
0.5
 31
0.0
  0
LINE
  5
A7
100
AcDbEntity
100
AcDbLine
  8
BLACK
 62
256
370
-1
  6
ByLayer
 10
0.205
 20
0.5
 30
0.0
 11
0.165
 21
0.5
 31
0.0
  0
LINE
  5
A8
100
AcDbEntity
100
AcDbLine
  8
BLACK
 62
256
370
-1
  6
ByLayer
 10
0.165
 20
0.5
 30
0.0
 11
0.165
 21
0.44
 31
0.0
  0
LINE
  5
A9
100
AcDbEntity
100
AcDbLine
  8
BLACK
 62
256
370
-1
  6
ByLayer
 10
0.165
 20
0.44
 30
0.0
 11
0.205
 21
0.44
 31
0.0
  0
LINE
  5
AA
100
AcDbEntity
100
AcDbLine
  8
BLACK
 62
256
370
-1
  6
ByLayer
 10
0.3742
 20
1.2549000000000001
 30
0.0
 11
0.3825
 21
1.2668000000000001
 31
0.0
  0
LINE
  5
AB
100
AcDbEntity
100
AcDbLine
  8
BLACK
 62
256
370
-1
  6
ByLayer
 10
0.3884
 20
1.2549000000000001
 30
0.0
 11
0.3884
 21
1.2799
 31
0.0
  0
LINE
  5
AC
100
AcDbEntity
100
AcDbLine
  8
BLACK
 62
256
370
-1
  6
ByLayer
 10
0.3884
 20
1.2799
 30
0.0
 11
0.3789
 21
1.2799
 31
0.0
  0
LINE
  5
AD
100
AcDbEntity
100
AcDbLine
  8
BLACK
 62
256
370
-1
  6
ByLayer
 10
0.3789
 20
1.2799
 30
0.0
 11
0.3765
 21
1.2787000000000002
 31
0.0
  0
LINE
  5
AE
100
AcDbEntity
100
AcDbLine
  8
BLACK
 62
256
370
-1
  6
ByLayer
 10
0.3765
 20
1.2787000000000002
 30
0.0
 11
0.3754
 21
1.2775000000000001
 31
0.0
  0
LINE
  5
AF
100
AcDbEntity
100
AcDbLine
  8
BLACK
 62
256
370
-1
  6
ByLayer
 10
0.3754
 20
1.2775000000000001
 30
0.0
 11
0.3742
 21
1.2751000000000001
 31
0.0
  0
LINE
  5
B0
100
AcDbEntity
100
AcDbLine
  8
BLACK
 62
256
370
-1
  6
ByLayer
 10
0.3742
 20
1.2751000000000001
 30
0.0
 11
0.3742
 21
1.2715000000000001
 31
0.0
  0
LINE
  5
B1
100
AcDbEntity
100
AcDbLine
  8
BLACK
 62
256
370
-1
  6
ByLayer
 10
0.3742
 20
1.2715000000000001
 30
0.0
 11
0.3754
 21
1.2692000000000001
 31
0.0
  0
LINE
  5
B2
100
AcDbEntity
100
AcDbLine
  8
BLACK
 62
256
370
-1
  6
ByLayer
 10
0.3754
 20
1.2692000000000001
 30
0.0
 11
0.3765
 21
1.268
 31
0.0
  0
LINE
  5
B3
100
AcDbEntity
100
AcDbLine
  8
BLACK
 62
256
370
-1
  6
ByLayer
 10
0.3765
 20
1.268
 30
0.0
 11
0.3789
 21
1.2668000000000001
 31
0.0
  0
LINE
  5
B4
100
AcDbEntity
100
AcDbLine
  8
BLACK
 62
256
370
-1
  6
ByLayer
 10
0.3789
 20
1.2668000000000001
 30
0.0
 11
0.3884
 21
1.2668000000000001
 31
0.0
  0
LINE
  5
B5
100
AcDbEntity
100
AcDbLine
  8
BLACK
 62
256
370
-1
  6
ByLayer
 10
0.3527
 20
1.2715000000000001
 30
0.0
 11
0.3527
 21
1.2549000000000001
 31
0.0
  0
LINE
  5
B6
100
AcDbEntity
100
AcDbLine
  8
BLACK
 62
256
370
-1
  6
ByLayer
 10
0.3587
 20
1.2811000000000001
 30
0.0
 11
0.3646
 21
1.2632000000000001
 31
0.0
  0
LINE
  5
B7
100
AcDbEntity
100
AcDbLine
  8
BLACK
 62
256
370
-1
  6
ByLayer
 10
0.3646
 20
1.2632000000000001
 30
0.0
 11
0.3492
 21
1.2632000000000001
 31
0.0
  0
LINE
  5
B8
100
AcDbEntity
100
AcDbLine
  8
BLACK
 62
256
370
-1
  6
ByLayer
 10
0.4211
 20
1.1575
 30
0.0
 11
0.4199
 21
1.1587000000000001
 31
0.0
  0
LINE
  5
B9
100
AcDbEntity
100
AcDbLine
  8
BLACK
 62
256
370
-1
  6
ByLayer
 10
0.4199
 20
1.1587000000000001
 30
0.0
 11
0.4176
 21
1.1599000000000002
 31
0.0
  0
LINE
  5
BA
100
AcDbEntity
100
AcDbLine
  8
BLACK
 62
256
370
-1
  6
ByLayer
 10
0.4176
 20
1.1599000000000002
 30
0.0
 11
0.4116
 21
1.1599000000000002
 31
0.0
  0
LINE
  5
BB
100
AcDbEntity
100
AcDbLine
  8
BLACK
 62
256
370
-1
  6
ByLayer
 10
0.4116
 20
1.1599000000000002
 30
0.0
 11
0.4092
 21
1.1587000000000001
 31
0.0
  0
LINE
  5
BC
100
AcDbEntity
100
AcDbLine
  8
BLACK
 62
256
370
-1
  6
ByLayer
 10
0.4092
 20
1.1587000000000001
 30
0.0
 11
0.408
 21
1.1575
 31
0.0
  0
LINE
  5
BD
100
AcDbEntity
100
AcDbLine
  8
BLACK
 62
256
370
-1
  6
ByLayer
 10
0.408
 20
1.1575
 30
0.0
 11
0.4069
 21
1.1551
 31
0.0
  0
LINE
  5
BE
100
AcDbEntity
100
AcDbLine
  8
BLACK
 62
256
370
-1
  6
ByLayer
 10
0.4069
 20
1.1551
 30
0.0
 11
0.4069
 21
1.1527000000000001
 31
0.0
  0
LINE
  5
BF
100
AcDbEntity
100
AcDbLine
  8
BLACK
 62
256
370
-1
  6
ByLayer
 10
0.4069
 20
1.1527000000000001
 30
0.0
 11
0.408
 21
1.1492
 31
0.0
  0
LINE
  5
C0
100
AcDbEntity
100
AcDbLine
  8
BLACK
 62
256
370
-1
  6
ByLayer
 10
0.408
 20
1.1492
 30
0.0
 11
0.4223
 21
1.1349
 31
0.0
  0
LINE
  5
C1
100
AcDbEntity
100
AcDbLine
  8
BLACK
 62
256
370
-1
  6
ByLayer
 10
0.4223
 20
1.1349
 30
0.0
 11
0.4069
 21
1.1349
 31
0.0
  0
LINE
  5
C2
100
AcDbEntity
100
AcDbLine
  8
BLACK
 62
256
370
-1
  6
ByLayer
 10
0.3961
 20
1.1373
 30
0.0
 11
0.395
 21
1.1361000000000001
 31
0.0
  0
LINE
  5
C3
100
AcDbEntity
100
AcDbLine
  8
BLACK
 62
256
370
-1
  6
ByLayer
 10
0.395
 20
1.1361000000000001
 30
0.0
 11
0.3961
 21
1.1349
 31
0.0
  0
LINE
  5
C4
100
AcDbEntity
100
AcDbLine
  8
BLACK
 62
256
370
-1
  6
ByLayer
 10
0.3961
 20
1.1349
 30
0.0
 11
0.3973
 21
1.1361000000000001
 31
0.0
  0
LINE
  5
C5
100
AcDbEntity
100
AcDbLine
  8
BLACK
 62
256
370
-1
  6
ByLayer
 10
0.3973
 20
1.1361000000000001
 30
0.0
 11
0.3961
 21
1.1373
 31
0.0
  0
LINE
  5
C6
100
AcDbEntity
100
AcDbLine
  8
BLACK
 62
256
370
-1
  6
ByLayer
 10
0.3961
 20
1.1373
 30
0.0
 11
0.3961
 21
1.1349
 31
0.0
  0
LINE
  5
C7
100
AcDbEntity
100
AcDbLine
  8
BLACK
 62
256
370
-1
  6
ByLayer
 10
0.3723
 20
1.1599000000000002
 30
0.0
 11
0.3842
 21
1.1599000000000002
 31
0.0
  0
LINE
  5
C8
100
AcDbEntity
100
AcDbLine
  8
BLACK
 62
256
370
-1
  6
ByLayer
 10
0.3842
 20
1.1599000000000002
 30
0.0
 11
0.3854
 21
1.1480000000000001
 31
0.0
  0
LINE
  5
C9
100
AcDbEntity
100
AcDbLine
  8
BLACK
 62
256
370
-1
  6
ByLayer
 10
0.3854
 20
1.1480000000000001
 30
0.0
 11
0.3842
 21
1.1492
 31
0.0
  0
LINE
  5
CA
100
AcDbEntity
100
AcDbLine
  8
BLACK
 62
256
370
-1
  6
ByLayer
 10
0.3842
 20
1.1492
 30
0.0
 11
0.3819
 21
1.1504000000000001
 31
0.0
  0
LINE
  5
CB
100
AcDbEntity
100
AcDbLine
  8
BLACK
 62
256
370
-1
  6
ByLayer
 10
0.3819
 20
1.1504000000000001
 30
0.0
 11
0.3759
 21
1.1504000000000001
 31
0.0
  0
LINE
  5
CC
100
AcDbEntity
100
AcDbLine
  8
BLACK
 62
256
370
-1
  6
ByLayer
 10
0.3759
 20
1.1504000000000001
 30
0.0
 11
0.3735
 21
1.1492
 31
0.0
  0
LINE
  5
CD
100
AcDbEntity
100
AcDbLine
  8
BLACK
 62
256
370
-1
  6
ByLayer
 10
0.3735
 20
1.1492
 30
0.0
 11
0.3723
 21
1.1480000000000001
 31
0.0
  0
LINE
  5
CE
100
AcDbEntity
100
AcDbLine
  8
BLACK
 62
256
370
-1
  6
ByLayer
 10
0.3723
 20
1.1480000000000001
 30
0.0
 11
0.3712
 21
1.1456
 31
0.0
  0
LINE
  5
CF
100
AcDbEntity
100
AcDbLine
  8
BLACK
 62
256
370
-1
  6
ByLayer
 10
0.3712
 20
1.1456
 30
0.0
 11
0.3712
 21
1.1395999999999999
 31
0.0
  0
LINE
  5
D0
100
AcDbEntity
100
AcDbLine
  8
BLACK
 62
256
370
-1
  6
ByLayer
 10
0.3712
 20
1.1395999999999999
 30
0.0
 11
0.3723
 21
1.1373
 31
0.0
  0
LINE
  5
D1
100
AcDbEntity
100
AcDbLine
  8
BLACK
 62
256
370
-1
  6
ByLayer
 10
0.3723
 20
1.1373
 30
0.0
 11
0.3735
 21
1.1361000000000001
 31
0.0
  0
LINE
  5
D2
100
AcDbEntity
100
AcDbLine
  8
BLACK
 62
256
370
-1
  6
ByLayer
 10
0.3735
 20
1.1361000000000001
 30
0.0
 11
0.3759
 21
1.1349
 31
0.0
  0
LINE
  5
D3
100
AcDbEntity
100
AcDbLine
  8
BLACK
 62
256
370
-1
  6
ByLayer
 10
0.3759
 20
1.1349
 30
0.0
 11
0.3819
 21
1.1349
 31
0.0
  0
LINE
  5
D4
100
AcDbEntity
100
AcDbLine
  8
BLACK
 62
256
370
-1
  6
ByLayer
 10
0.3819
 20
1.1349
 30
0.0
 11
0.3842
 21
1.1361000000000001
 31
0.0
  0
LINE
  5
D5
100
AcDbEntity
100
AcDbLine
  8
BLACK
 62
256
370
-1
  6
ByLayer
 10
0.3842
 20
1.1361000000000001
 30
0.0
 11
0.3854
 21
1.1373
 31
0.0
  0
LINE
  5
D6
100
AcDbEntity
100
AcDbLine
  8
BLACK
 62
256
370
-1
  6
ByLayer
 10
0.3485
 20
1.1599000000000002
 30
0.0
 11
0.3604
 21
1.1599000000000002
 31
0.0
  0
LINE
  5
D7
100
AcDbEntity
100
AcDbLine
  8
BLACK
 62
256
370
-1
  6
ByLayer
 10
0.3604
 20
1.1599000000000002
 30
0.0
 11
0.3616
 21
1.1480000000000001
 31
0.0
  0
LINE
  5
D8
100
AcDbEntity
100
AcDbLine
  8
BLACK
 62
256
370
-1
  6
ByLayer
 10
0.3616
 20
1.1480000000000001
 30
0.0
 11
0.3604
 21
1.1492
 31
0.0
  0
LINE
  5
D9
100
AcDbEntity
100
AcDbLine
  8
BLACK
 62
256
370
-1
  6
ByLayer
 10
0.3604
 20
1.1492
 30
0.0
 11
0.3581
 21
1.1504000000000001
 31
0.0
  0
LINE
  5
DA
100
AcDbEntity
100
AcDbLine
  8
BLACK
 62
256
370
-1
  6
ByLayer
 10
0.3581
 20
1.1504000000000001
 30
0.0
 11
0.3521
 21
1.1504000000000001
 31
0.0
  0
LINE
  5
DB
100
AcDbEntity
100
AcDbLine
  8
BLACK
 62
256
370
-1
  6
ByLayer
 10
0.3521
 20
1.1504000000000001
 30
0.0
 11
0.3497
 21
1.1492
 31
0.0
  0
LINE
  5
DC
100
AcDbEntity
100
AcDbLine
  8
BLACK
 62
256
370
-1
  6
ByLayer
 10
0.3497
 20
1.1492
 30
0.0
 11
0.3485
 21
1.1480000000000001
 31
0.0
  0
LINE
  5
DD
100
AcDbEntity
100
AcDbLine
  8
BLACK
 62
256
370
-1
  6
ByLayer
 10
0.3485
 20
1.1480000000000001
 30
0.0
 11
0.3474
 21
1.1456
 31
0.0
  0
LINE
  5
DE
100
AcDbEntity
100
AcDbLine
  8
BLACK
 62
256
370
-1
  6
ByLayer
 10
0.3474
 20
1.1456
 30
0.0
 11
0.3474
 21
1.1395999999999999
 31
0.0
  0
LINE
  5
DF
100
AcDbEntity
100
AcDbLine
  8
BLACK
 62
256
370
-1
  6
ByLayer
 10
0.3474
 20
1.1395999999999999
 30
0.0
 11
0.3485
 21
1.1373
 31
0.0
  0
LINE
  5
E0
100
AcDbEntity
100
AcDbLine
  8
BLACK
 62
256
370
-1
  6
ByLayer
 10
0.3485
 20
1.1373
 30
0.0
 11
0.3497
 21
1.1361000000000001
 31
0.0
  0
LINE
  5
E1
100
AcDbEntity
100
AcDbLine
  8
BLACK
 62
256
370
-1
  6
ByLayer
 10
0.3497
 20
1.1361000000000001
 30
0.0
 11
0.3521
 21
1.1349
 31
0.0
  0
LINE
  5
E2
100
AcDbEntity
100
AcDbLine
  8
BLACK
 62
256
370
-1
  6
ByLayer
 10
0.3521
 20
1.1349
 30
0.0
 11
0.3581
 21
1.1349
 31
0.0
  0
LINE
  5
E3
100
AcDbEntity
100
AcDbLine
  8
BLACK
 62
256
370
-1
  6
ByLayer
 10
0.3581
 20
1.1349
 30
0.0
 11
0.3604
 21
1.1361000000000001
 31
0.0
  0
LINE
  5
E4
100
AcDbEntity
100
AcDbLine
  8
BLACK
 62
256
370
-1
  6
ByLayer
 10
0.3604
 20
1.1361000000000001
 30
0.0
 11
0.3616
 21
1.1373
 31
0.0
  0
LINE
  5
E5
100
AcDbEntity
100
AcDbLine
  8
BLACK
 62
256
370
-1
  6
ByLayer
 10
0.3366
 20
1.1349
 30
0.0
 11
0.3366
 21
1.1599000000000002
 31
0.0
  0
LINE
  5
E6
100
AcDbEntity
100
AcDbLine
  8
BLACK
 62
256
370
-1
  6
ByLayer
 10
0.3366
 20
1.1599000000000002
 30
0.0
 11
0.3283
 21
1.1420000000000001
 31
0.0
  0
LINE
  5
E7
100
AcDbEntity
100
AcDbLine
  8
BLACK
 62
256
370
-1
  6
ByLayer
 10
0.3283
 20
1.1420000000000001
 30
0.0
 11
0.32
 21
1.1599000000000002
 31
0.0
  0
LINE
  5
E8
100
AcDbEntity
100
AcDbLine
  8
BLACK
 62
256
370
-1
  6
ByLayer
 10
0.32
 20
1.1599000000000002
 30
0.0
 11
0.32
 21
1.1349
 31
0.0
  0
LINE
  5
E9
100
AcDbEntity
100
AcDbLine
  8
BLACK
 62
256
370
-1
  6
ByLayer
 10
0.3742
 20
1.4449000000000001
 30
0.0
 11
0.3825
 21
1.4568000000000001
 31
0.0
  0
LINE
  5
EA
100
AcDbEntity
100
AcDbLine
  8
BLACK
 62
256
370
-1
  6
ByLayer
 10
0.3884
 20
1.4449000000000001
 30
0.0
 11
0.3884
 21
1.4699
 31
0.0
  0
LINE
  5
EB
100
AcDbEntity
100
AcDbLine
  8
BLACK
 62
256
370
-1
  6
ByLayer
 10
0.3884
 20
1.4699
 30
0.0
 11
0.3789
 21
1.4699
 31
0.0
  0
LINE
  5
EC
100
AcDbEntity
100
AcDbLine
  8
BLACK
 62
256
370
-1
  6
ByLayer
 10
0.3789
 20
1.4699
 30
0.0
 11
0.3765
 21
1.4687000000000001
 31
0.0
  0
LINE
  5
ED
100
AcDbEntity
100
AcDbLine
  8
BLACK
 62
256
370
-1
  6
ByLayer
 10
0.3765
 20
1.4687000000000001
 30
0.0
 11
0.3754
 21
1.4675
 31
0.0
  0
LINE
  5
EE
100
AcDbEntity
100
AcDbLine
  8
BLACK
 62
256
370
-1
  6
ByLayer
 10
0.3754
 20
1.4675
 30
0.0
 11
0.3742
 21
1.4651000000000001
 31
0.0
  0
LINE
  5
EF
100
AcDbEntity
100
AcDbLine
  8
BLACK
 62
256
370
-1
  6
ByLayer
 10
0.3742
 20
1.4651000000000001
 30
0.0
 11
0.3742
 21
1.4615
 31
0.0
  0
LINE
  5
F0
100
AcDbEntity
100
AcDbLine
  8
BLACK
 62
256
370
-1
  6
ByLayer
 10
0.3742
 20
1.4615
 30
0.0
 11
0.3754
 21
1.4592000000000001
 31
0.0
  0
LINE
  5
F1
100
AcDbEntity
100
AcDbLine
  8
BLACK
 62
256
370
-1
  6
ByLayer
 10
0.3754
 20
1.4592000000000001
 30
0.0
 11
0.3765
 21
1.458
 31
0.0
  0
LINE
  5
F2
100
AcDbEntity
100
AcDbLine
  8
BLACK
 62
256
370
-1
  6
ByLayer
 10
0.3765
 20
1.458
 30
0.0
 11
0.3789
 21
1.4568000000000001
 31
0.0
  0
LINE
  5
F3
100
AcDbEntity
100
AcDbLine
  8
BLACK
 62
256
370
-1
  6
ByLayer
 10
0.3789
 20
1.4568000000000001
 30
0.0
 11
0.3884
 21
1.4568000000000001
 31
0.0
  0
LINE
  5
F4
100
AcDbEntity
100
AcDbLine
  8
BLACK
 62
256
370
-1
  6
ByLayer
 10
0.3658
 20
1.4699
 30
0.0
 11
0.3504
 21
1.4699
 31
0.0
  0
LINE
  5
F5
100
AcDbEntity
100
AcDbLine
  8
BLACK
 62
256
370
-1
  6
ByLayer
 10
0.3504
 20
1.4699
 30
0.0
 11
0.3587
 21
1.4604000000000001
 31
0.0
  0
LINE
  5
F6
100
AcDbEntity
100
AcDbLine
  8
BLACK
 62
256
370
-1
  6
ByLayer
 10
0.3587
 20
1.4604000000000001
 30
0.0
 11
0.3551
 21
1.4604000000000001
 31
0.0
  0
LINE
  5
F7
100
AcDbEntity
100
AcDbLine
  8
BLACK
 62
256
370
-1
  6
ByLayer
 10
0.3551
 20
1.4604000000000001
 30
0.0
 11
0.3527
 21
1.4592000000000001
 31
0.0
  0
LINE
  5
F8
100
AcDbEntity
100
AcDbLine
  8
BLACK
 62
256
370
-1
  6
ByLayer
 10
0.3527
 20
1.4592000000000001
 30
0.0
 11
0.3515
 21
1.458
 31
0.0
  0
LINE
  5
F9
100
AcDbEntity
100
AcDbLine
  8
BLACK
 62
256
370
-1
  6
ByLayer
 10
0.3515
 20
1.458
 30
0.0
 11
0.3504
 21
1.4556
 31
0.0
  0
LINE
  5
FA
100
AcDbEntity
100
AcDbLine
  8
BLACK
 62
256
370
-1
  6
ByLayer
 10
0.3504
 20
1.4556
 30
0.0
 11
0.3504
 21
1.4496
 31
0.0
  0
LINE
  5
FB
100
AcDbEntity
100
AcDbLine
  8
BLACK
 62
256
370
-1
  6
ByLayer
 10
0.3504
 20
1.4496
 30
0.0
 11
0.3515
 21
1.4473
 31
0.0
  0
LINE
  5
FC
100
AcDbEntity
100
AcDbLine
  8
BLACK
 62
256
370
-1
  6
ByLayer
 10
0.3515
 20
1.4473
 30
0.0
 11
0.3527
 21
1.4461000000000002
 31
0.0
  0
LINE
  5
FD
100
AcDbEntity
100
AcDbLine
  8
BLACK
 62
256
370
-1
  6
ByLayer
 10
0.3527
 20
1.4461000000000002
 30
0.0
 11
0.3551
 21
1.4449000000000001
 31
0.0
  0
LINE
  5
FE
100
AcDbEntity
100
AcDbLine
  8
BLACK
 62
256
370
-1
  6
ByLayer
 10
0.3551
 20
1.4449000000000001
 30
0.0
 11
0.3623
 21
1.4449000000000001
 31
0.0
  0
LINE
  5
FF
100
AcDbEntity
100
AcDbLine
  8
BLACK
 62
256
370
-1
  6
ByLayer
 10
0.3623
 20
1.4449000000000001
 30
0.0
 11
0.3646
 21
1.4461000000000002
 31
0.0
  0
LINE
  5
100
100
AcDbEntity
100
AcDbLine
  8
BLACK
 62
256
370
-1
  6
ByLayer
 10
0.3646
 20
1.4461000000000002
 30
0.0
 11
0.3658
 21
1.4473
 31
0.0
  0
LINE
  5
101
100
AcDbEntity
100
AcDbLine
  8
BLACK
 62
256
370
-1
  6
ByLayer
 10
0.4211
 20
1.3475000000000001
 30
0.0
 11
0.4199
 21
1.3487
 31
0.0
  0
LINE
  5
102
100
AcDbEntity
100
AcDbLine
  8
BLACK
 62
256
370
-1
  6
ByLayer
 10
0.4199
 20
1.3487
 30
0.0
 11
0.4176
 21
1.3499000000000001
 31
0.0
  0
LINE
  5
103
100
AcDbEntity
100
AcDbLine
  8
BLACK
 62
256
370
-1
  6
ByLayer
 10
0.4176
 20
1.3499000000000001
 30
0.0
 11
0.4116
 21
1.3499000000000001
 31
0.0
  0
LINE
  5
104
100
AcDbEntity
100
AcDbLine
  8
BLACK
 62
256
370
-1
  6
ByLayer
 10
0.4116
 20
1.3499000000000001
 30
0.0
 11
0.4092
 21
1.3487
 31
0.0
  0
LINE
  5
105
100
AcDbEntity
100
AcDbLine
  8
BLACK
 62
256
370
-1
  6
ByLayer
 10
0.4092
 20
1.3487
 30
0.0
 11
0.408
 21
1.3475000000000001
 31
0.0
  0
LINE
  5
106
100
AcDbEntity
100
AcDbLine
  8
BLACK
 62
256
370
-1
  6
ByLayer
 10
0.408
 20
1.3475000000000001
 30
0.0
 11
0.4069
 21
1.3451
 31
0.0
  0
LINE
  5
107
100
AcDbEntity
100
AcDbLine
  8
BLACK
 62
256
370
-1
  6
ByLayer
 10
0.4069
 20
1.3451
 30
0.0
 11
0.4069
 21
1.3427
 31
0.0
  0
LINE
  5
108
100
AcDbEntity
100
AcDbLine
  8
BLACK
 62
256
370
-1
  6
ByLayer
 10
0.4069
 20
1.3427
 30
0.0
 11
0.408
 21
1.3392000000000002
 31
0.0
  0
LINE
  5
109
100
AcDbEntity
100
AcDbLine
  8
BLACK
 62
256
370
-1
  6
ByLayer
 10
0.408
 20
1.3392000000000002
 30
0.0
 11
0.4223
 21
1.3249
 31
0.0
  0
LINE
  5
10A
100
AcDbEntity
100
AcDbLine
  8
BLACK
 62
256
370
-1
  6
ByLayer
 10
0.4223
 20
1.3249
 30
0.0
 11
0.4069
 21
1.3249
 31
0.0
  0
LINE
  5
10B
100
AcDbEntity
100
AcDbLine
  8
BLACK
 62
256
370
-1
  6
ByLayer
 10
0.3961
 20
1.3273000000000001
 30
0.0
 11
0.395
 21
1.3261000000000001
 31
0.0
  0
LINE
  5
10C
100
AcDbEntity
100
AcDbLine
  8
BLACK
 62
256
370
-1
  6
ByLayer
 10
0.395
 20
1.3261000000000001
 30
0.0
 11
0.3961
 21
1.3249
 31
0.0
  0
LINE
  5
10D
100
AcDbEntity
100
AcDbLine
  8
BLACK
 62
256
370
-1
  6
ByLayer
 10
0.3961
 20
1.3249
 30
0.0
 11
0.3973
 21
1.3261000000000001
 31
0.0
  0
LINE
  5
10E
100
AcDbEntity
100
AcDbLine
  8
BLACK
 62
256
370
-1
  6
ByLayer
 10
0.3973
 20
1.3261000000000001
 30
0.0
 11
0.3961
 21
1.3273000000000001
 31
0.0
  0
LINE
  5
10F
100
AcDbEntity
100
AcDbLine
  8
BLACK
 62
256
370
-1
  6
ByLayer
 10
0.3961
 20
1.3273000000000001
 30
0.0
 11
0.3961
 21
1.3249
 31
0.0
  0
LINE
  5
110
100
AcDbEntity
100
AcDbLine
  8
BLACK
 62
256
370
-1
  6
ByLayer
 10
0.3723
 20
1.3499000000000001
 30
0.0
 11
0.3842
 21
1.3499000000000001
 31
0.0
  0
LINE
  5
111
100
AcDbEntity
100
AcDbLine
  8
BLACK
 62
256
370
-1
  6
ByLayer
 10
0.3842
 20
1.3499000000000001
 30
0.0
 11
0.3854
 21
1.3380000000000001
 31
0.0
  0
LINE
  5
112
100
AcDbEntity
100
AcDbLine
  8
BLACK
 62
256
370
-1
  6
ByLayer
 10
0.3854
 20
1.3380000000000001
 30
0.0
 11
0.3842
 21
1.3392000000000002
 31
0.0
  0
LINE
  5
113
100
AcDbEntity
100
AcDbLine
  8
BLACK
 62
256
370
-1
  6
ByLayer
 10
0.3842
 20
1.3392000000000002
 30
0.0
 11
0.3819
 21
1.3404
 31
0.0
  0
LINE
  5
114
100
AcDbEntity
100
AcDbLine
  8
BLACK
 62
256
370
-1
  6
ByLayer
 10
0.3819
 20
1.3404
 30
0.0
 11
0.3759
 21
1.3404
 31
0.0
  0
LINE
  5
115
100
AcDbEntity
100
AcDbLine
  8
BLACK
 62
256
370
-1
  6
ByLayer
 10
0.3759
 20
1.3404
 30
0.0
 11
0.3735
 21
1.3392000000000002
 31
0.0
  0
LINE
  5
116
100
AcDbEntity
100
AcDbLine
  8
BLACK
 62
256
370
-1
  6
ByLayer
 10
0.3735
 20
1.3392000000000002
 30
0.0
 11
0.3723
 21
1.3380000000000001
 31
0.0
  0
LINE
  5
117
100
AcDbEntity
100
AcDbLine
  8
BLACK
 62
256
370
-1
  6
ByLayer
 10
0.3723
 20
1.3380000000000001
 30
0.0
 11
0.3712
 21
1.3356000000000001
 31
0.0
  0
LINE
  5
118
100
AcDbEntity
100
AcDbLine
  8
BLACK
 62
256
370
-1
  6
ByLayer
 10
0.3712
 20
1.3356000000000001
 30
0.0
 11
0.3712
 21
1.3296000000000001
 31
0.0
  0
LINE
  5
119
100
AcDbEntity
100
AcDbLine
  8
BLACK
 62
256
370
-1
  6
ByLayer
 10
0.3712
 20
1.3296000000000001
 30
0.0
 11
0.3723
 21
1.3273000000000001
 31
0.0
  0
LINE
  5
11A
100
AcDbEntity
100
AcDbLine
  8
BLACK
 62
256
370
-1
  6
ByLayer
 10
0.3723
 20
1.3273000000000001
 30
0.0
 11
0.3735
 21
1.3261000000000001
 31
0.0
  0
LINE
  5
11B
100
AcDbEntity
100
AcDbLine
  8
BLACK
 62
256
370
-1
  6
ByLayer
 10
0.3735
 20
1.3261000000000001
 30
0.0
 11
0.3759
 21
1.3249
 31
0.0
  0
LINE
  5
11C
100
AcDbEntity
100
AcDbLine
  8
BLACK
 62
256
370
-1
  6
ByLayer
 10
0.3759
 20
1.3249
 30
0.0
 11
0.3819
 21
1.3249
 31
0.0
  0
LINE
  5
11D
100
AcDbEntity
100
AcDbLine
  8
BLACK
 62
256
370
-1
  6
ByLayer
 10
0.3819
 20
1.3249
 30
0.0
 11
0.3842
 21
1.3261000000000001
 31
0.0
  0
LINE
  5
11E
100
AcDbEntity
100
AcDbLine
  8
BLACK
 62
256
370
-1
  6
ByLayer
 10
0.3842
 20
1.3261000000000001
 30
0.0
 11
0.3854
 21
1.3273000000000001
 31
0.0
  0
LINE
  5
11F
100
AcDbEntity
100
AcDbLine
  8
BLACK
 62
256
370
-1
  6
ByLayer
 10
0.3485
 20
1.3499000000000001
 30
0.0
 11
0.3604
 21
1.3499000000000001
 31
0.0
  0
LINE
  5
120
100
AcDbEntity
100
AcDbLine
  8
BLACK
 62
256
370
-1
  6
ByLayer
 10
0.3604
 20
1.3499000000000001
 30
0.0
 11
0.3616
 21
1.3380000000000001
 31
0.0
  0
LINE
  5
121
100
AcDbEntity
100
AcDbLine
  8
BLACK
 62
256
370
-1
  6
ByLayer
 10
0.3616
 20
1.3380000000000001
 30
0.0
 11
0.3604
 21
1.3392000000000002
 31
0.0
  0
LINE
  5
122
100
AcDbEntity
100
AcDbLine
  8
BLACK
 62
256
370
-1
  6
ByLayer
 10
0.3604
 20
1.3392000000000002
 30
0.0
 11
0.3581
 21
1.3404
 31
0.0
  0
LINE
  5
123
100
AcDbEntity
100
AcDbLine
  8
BLACK
 62
256
370
-1
  6
ByLayer
 10
0.3581
 20
1.3404
 30
0.0
 11
0.3521
 21
1.3404
 31
0.0
  0
LINE
  5
124
100
AcDbEntity
100
AcDbLine
  8
BLACK
 62
256
370
-1
  6
ByLayer
 10
0.3521
 20
1.3404
 30
0.0
 11
0.3497
 21
1.3392000000000002
 31
0.0
  0
LINE
  5
125
100
AcDbEntity
100
AcDbLine
  8
BLACK
 62
256
370
-1
  6
ByLayer
 10
0.3497
 20
1.3392000000000002
 30
0.0
 11
0.3485
 21
1.3380000000000001
 31
0.0
  0
LINE
  5
126
100
AcDbEntity
100
AcDbLine
  8
BLACK
 62
256
370
-1
  6
ByLayer
 10
0.3485
 20
1.3380000000000001
 30
0.0
 11
0.3474
 21
1.3356000000000001
 31
0.0
  0
LINE
  5
127
100
AcDbEntity
100
AcDbLine
  8
BLACK
 62
256
370
-1
  6
ByLayer
 10
0.3474
 20
1.3356000000000001
 30
0.0
 11
0.3474
 21
1.3296000000000001
 31
0.0
  0
LINE
  5
128
100
AcDbEntity
100
AcDbLine
  8
BLACK
 62
256
370
-1
  6
ByLayer
 10
0.3474
 20
1.3296000000000001
 30
0.0
 11
0.3485
 21
1.3273000000000001
 31
0.0
  0
LINE
  5
129
100
AcDbEntity
100
AcDbLine
  8
BLACK
 62
256
370
-1
  6
ByLayer
 10
0.3485
 20
1.3273000000000001
 30
0.0
 11
0.3497
 21
1.3261000000000001
 31
0.0
  0
LINE
  5
12A
100
AcDbEntity
100
AcDbLine
  8
BLACK
 62
256
370
-1
  6
ByLayer
 10
0.3497
 20
1.3261000000000001
 30
0.0
 11
0.3521
 21
1.3249
 31
0.0
  0
LINE
  5
12B
100
AcDbEntity
100
AcDbLine
  8
BLACK
 62
256
370
-1
  6
ByLayer
 10
0.3521
 20
1.3249
 30
0.0
 11
0.3581
 21
1.3249
 31
0.0
  0
LINE
  5
12C
100
AcDbEntity
100
AcDbLine
  8
BLACK
 62
256
370
-1
  6
ByLayer
 10
0.3581
 20
1.3249
 30
0.0
 11
0.3604
 21
1.3261000000000001
 31
0.0
  0
LINE
  5
12D
100
AcDbEntity
100
AcDbLine
  8
BLACK
 62
256
370
-1
  6
ByLayer
 10
0.3604
 20
1.3261000000000001
 30
0.0
 11
0.3616
 21
1.3273000000000001
 31
0.0
  0
LINE
  5
12E
100
AcDbEntity
100
AcDbLine
  8
BLACK
 62
256
370
-1
  6
ByLayer
 10
0.3366
 20
1.3249
 30
0.0
 11
0.3366
 21
1.3499000000000001
 31
0.0
  0
LINE
  5
12F
100
AcDbEntity
100
AcDbLine
  8
BLACK
 62
256
370
-1
  6
ByLayer
 10
0.3366
 20
1.3499000000000001
 30
0.0
 11
0.3283
 21
1.3320000000000001
 31
0.0
  0
LINE
  5
130
100
AcDbEntity
100
AcDbLine
  8
BLACK
 62
256
370
-1
  6
ByLayer
 10
0.3283
 20
1.3320000000000001
 30
0.0
 11
0.32
 21
1.3499000000000001
 31
0.0
  0
LINE
  5
131
100
AcDbEntity
100
AcDbLine
  8
BLACK
 62
256
370
-1
  6
ByLayer
 10
0.32
 20
1.3499000000000001
 30
0.0
 11
0.32
 21
1.3249
 31
0.0
  0
LINE
  5
132
100
AcDbEntity
100
AcDbLine
  8
BLACK
 62
256
370
-1
  6
ByLayer
 10
0.0942
 20
0.6649
 30
0.0
 11
0.1025
 21
0.6768000000000001
 31
0.0
  0
LINE
  5
133
100
AcDbEntity
100
AcDbLine
  8
BLACK
 62
256
370
-1
  6
ByLayer
 10
0.1084
 20
0.6649
 30
0.0
 11
0.1084
 21
0.6899000000000001
 31
0.0
  0
LINE
  5
134
100
AcDbEntity
100
AcDbLine
  8
BLACK
 62
256
370
-1
  6
ByLayer
 10
0.1084
 20
0.6899000000000001
 30
0.0
 11
0.0989
 21
0.6899000000000001
 31
0.0
  0
LINE
  5
135
100
AcDbEntity
100
AcDbLine
  8
BLACK
 62
256
370
-1
  6
ByLayer
 10
0.0989
 20
0.6899000000000001
 30
0.0
 11
0.0965
 21
0.6887
 31
0.0
  0
LINE
  5
136
100
AcDbEntity
100
AcDbLine
  8
BLACK
 62
256
370
-1
  6
ByLayer
 10
0.0965
 20
0.6887
 30
0.0
 11
0.0954
 21
0.6875
 31
0.0
  0
LINE
  5
137
100
AcDbEntity
100
AcDbLine
  8
BLACK
 62
256
370
-1
  6
ByLayer
 10
0.0954
 20
0.6875
 30
0.0
 11
0.0942
 21
0.6851
 31
0.0
  0
LINE
  5
138
100
AcDbEntity
100
AcDbLine
  8
BLACK
 62
256
370
-1
  6
ByLayer
 10
0.0942
 20
0.6851
 30
0.0
 11
0.0942
 21
0.6815
 31
0.0
  0
LINE
  5
139
100
AcDbEntity
100
AcDbLine
  8
BLACK
 62
256
370
-1
  6
ByLayer
 10
0.0942
 20
0.6815
 30
0.0
 11
0.0954
 21
0.6792
 31
0.0
  0
LINE
  5
13A
100
AcDbEntity
100
AcDbLine
  8
BLACK
 62
256
370
-1
  6
ByLayer
 10
0.0954
 20
0.6792
 30
0.0
 11
0.0965
 21
0.678
 31
0.0
  0
LINE
  5
13B
100
AcDbEntity
100
AcDbLine
  8
BLACK
 62
256
370
-1
  6
ByLayer
 10
0.0965
 20
0.678
 30
0.0
 11
0.0989
 21
0.6768000000000001
 31
0.0
  0
LINE
  5
13C
100
AcDbEntity
100
AcDbLine
  8
BLACK
 62
256
370
-1
  6
ByLayer
 10
0.0989
 20
0.6768000000000001
 30
0.0
 11
0.1084
 21
0.6768000000000001
 31
0.0
  0
LINE
  5
13D
100
AcDbEntity
100
AcDbLine
  8
BLACK
 62
256
370
-1
  6
ByLayer
 10
0.0846
 20
0.6875
 30
0.0
 11
0.0834
 21
0.6887
 31
0.0
  0
LINE
  5
13E
100
AcDbEntity
100
AcDbLine
  8
BLACK
 62
256
370
-1
  6
ByLayer
 10
0.0834
 20
0.6887
 30
0.0
 11
0.0811
 21
0.6899000000000001
 31
0.0
  0
LINE
  5
13F
100
AcDbEntity
100
AcDbLine
  8
BLACK
 62
256
370
-1
  6
ByLayer
 10
0.0811
 20
0.6899000000000001
 30
0.0
 11
0.0751
 21
0.6899000000000001
 31
0.0
  0
LINE
  5
140
100
AcDbEntity
100
AcDbLine
  8
BLACK
 62
256
370
-1
  6
ByLayer
 10
0.0751
 20
0.6899000000000001
 30
0.0
 11
0.0727
 21
0.6887
 31
0.0
  0
LINE
  5
141
100
AcDbEntity
100
AcDbLine
  8
BLACK
 62
256
370
-1
  6
ByLayer
 10
0.0727
 20
0.6887
 30
0.0
 11
0.0715
 21
0.6875
 31
0.0
  0
LINE
  5
142
100
AcDbEntity
100
AcDbLine
  8
BLACK
 62
256
370
-1
  6
ByLayer
 10
0.0715
 20
0.6875
 30
0.0
 11
0.0704
 21
0.6851
 31
0.0
  0
LINE
  5
143
100
AcDbEntity
100
AcDbLine
  8
BLACK
 62
256
370
-1
  6
ByLayer
 10
0.0704
 20
0.6851
 30
0.0
 11
0.0704
 21
0.6827000000000001
 31
0.0
  0
LINE
  5
144
100
AcDbEntity
100
AcDbLine
  8
BLACK
 62
256
370
-1
  6
ByLayer
 10
0.0704
 20
0.6827000000000001
 30
0.0
 11
0.0715
 21
0.6792
 31
0.0
  0
LINE
  5
145
100
AcDbEntity
100
AcDbLine
  8
BLACK
 62
256
370
-1
  6
ByLayer
 10
0.0715
 20
0.6792
 30
0.0
 11
0.0858
 21
0.6649
 31
0.0
  0
LINE
  5
146
100
AcDbEntity
100
AcDbLine
  8
BLACK
 62
256
370
-1
  6
ByLayer
 10
0.0858
 20
0.6649
 30
0.0
 11
0.0704
 21
0.6649
 31
0.0
  0
LINE
  5
147
100
AcDbEntity
100
AcDbLine
  8
BLACK
 62
256
370
-1
  6
ByLayer
 10
0.125
 20
0.5715
 30
0.0
 11
0.125
 21
0.5549000000000001
 31
0.0
  0
LINE
  5
148
100
AcDbEntity
100
AcDbLine
  8
BLACK
 62
256
370
-1
  6
ByLayer
 10
0.131
 20
0.5811000000000001
 30
0.0
 11
0.1369
 21
0.5632
 31
0.0
  0
LINE
  5
149
100
AcDbEntity
100
AcDbLine
  8
BLACK
 62
256
370
-1
  6
ByLayer
 10
0.1369
 20
0.5632
 30
0.0
 11
0.1215
 21
0.5632
 31
0.0
  0
LINE
  5
14A
100
AcDbEntity
100
AcDbLine
  8
BLACK
 62
256
370
-1
  6
ByLayer
 10
0.1131
 20
0.5775
 30
0.0
 11
0.1119
 21
0.5787
 31
0.0
  0
LINE
  5
14B
100
AcDbEntity
100
AcDbLine
  8
BLACK
 62
256
370
-1
  6
ByLayer
 10
0.1119
 20
0.5787
 30
0.0
 11
0.1096
 21
0.5799000000000001
 31
0.0
  0
LINE
  5
14C
100
AcDbEntity
100
AcDbLine
  8
BLACK
 62
256
370
-1
  6
ByLayer
 10
0.1096
 20
0.5799000000000001
 30
0.0
 11
0.1036
 21
0.5799000000000001
 31
0.0
  0
LINE
  5
14D
100
AcDbEntity
100
AcDbLine
  8
BLACK
 62
256
370
-1
  6
ByLayer
 10
0.1036
 20
0.5799000000000001
 30
0.0
 11
0.1012
 21
0.5787
 31
0.0
  0
LINE
  5
14E
100
AcDbEntity
100
AcDbLine
  8
BLACK
 62
256
370
-1
  6
ByLayer
 10
0.1012
 20
0.5787
 30
0.0
 11
0.1
 21
0.5775
 31
0.0
  0
LINE
  5
14F
100
AcDbEntity
100
AcDbLine
  8
BLACK
 62
256
370
-1
  6
ByLayer
 10
0.1
 20
0.5775
 30
0.0
 11
0.0989
 21
0.5751000000000001
 31
0.0
  0
LINE
  5
150
100
AcDbEntity
100
AcDbLine
  8
BLACK
 62
256
370
-1
  6
ByLayer
 10
0.0989
 20
0.5751000000000001
 30
0.0
 11
0.0989
 21
0.5727
 31
0.0
  0
LINE
  5
151
100
AcDbEntity
100
AcDbLine
  8
BLACK
 62
256
370
-1
  6
ByLayer
 10
0.0989
 20
0.5727
 30
0.0
 11
0.1
 21
0.5692
 31
0.0
  0
LINE
  5
152
100
AcDbEntity
100
AcDbLine
  8
BLACK
 62
256
370
-1
  6
ByLayer
 10
0.1
 20
0.5692
 30
0.0
 11
0.1143
 21
0.5549000000000001
 31
0.0
  0
LINE
  5
153
100
AcDbEntity
100
AcDbLine
  8
BLACK
 62
256
370
-1
  6
ByLayer
 10
0.1143
 20
0.5549000000000001
 30
0.0
 11
0.0989
 21
0.5549000000000001
 31
0.0
  0
LINE
  5
154
100
AcDbEntity
100
AcDbLine
  8
BLACK
 62
256
370
-1
  6
ByLayer
 10
0.0881
 20
0.5573
 30
0.0
 11
0.087
 21
0.5561
 31
0.0
  0
LINE
  5
155
100
AcDbEntity
100
AcDbLine
  8
BLACK
 62
256
370
-1
  6
ByLayer
 10
0.087
 20
0.5561
 30
0.0
 11
0.0881
 21
0.5549000000000001
 31
0.0
  0
LINE
  5
156
100
AcDbEntity
100
AcDbLine
  8
BLACK
 62
256
370
-1
  6
ByLayer
 10
0.0881
 20
0.5549000000000001
 30
0.0
 11
0.0893
 21
0.5561
 31
0.0
  0
LINE
  5
157
100
AcDbEntity
100
AcDbLine
  8
BLACK
 62
256
370
-1
  6
ByLayer
 10
0.0893
 20
0.5561
 30
0.0
 11
0.0881
 21
0.5573
 31
0.0
  0
LINE
  5
158
100
AcDbEntity
100
AcDbLine
  8
BLACK
 62
256
370
-1
  6
ByLayer
 10
0.0881
 20
0.5573
 30
0.0
 11
0.0881
 21
0.5549000000000001
 31
0.0
  0
LINE
  5
159
100
AcDbEntity
100
AcDbLine
  8
BLACK
 62
256
370
-1
  6
ByLayer
 10
0.0774
 20
0.5775
 30
0.0
 11
0.0762
 21
0.5787
 31
0.0
  0
LINE
  5
15A
100
AcDbEntity
100
AcDbLine
  8
BLACK
 62
256
370
-1
  6
ByLayer
 10
0.0762
 20
0.5787
 30
0.0
 11
0.0739
 21
0.5799000000000001
 31
0.0
  0
LINE
  5
15B
100
AcDbEntity
100
AcDbLine
  8
BLACK
 62
256
370
-1
  6
ByLayer
 10
0.0739
 20
0.5799000000000001
 30
0.0
 11
0.0679
 21
0.5799000000000001
 31
0.0
  0
LINE
  5
15C
100
AcDbEntity
100
AcDbLine
  8
BLACK
 62
256
370
-1
  6
ByLayer
 10
0.0679
 20
0.5799000000000001
 30
0.0
 11
0.0655
 21
0.5787
 31
0.0
  0
LINE
  5
15D
100
AcDbEntity
100
AcDbLine
  8
BLACK
 62
256
370
-1
  6
ByLayer
 10
0.0655
 20
0.5787
 30
0.0
 11
0.0643
 21
0.5775
 31
0.0
  0
LINE
  5
15E
100
AcDbEntity
100
AcDbLine
  8
BLACK
 62
256
370
-1
  6
ByLayer
 10
0.0643
 20
0.5775
 30
0.0
 11
0.0632
 21
0.5751000000000001
 31
0.0
  0
LINE
  5
15F
100
AcDbEntity
100
AcDbLine
  8
BLACK
 62
256
370
-1
  6
ByLayer
 10
0.0632
 20
0.5751000000000001
 30
0.0
 11
0.0632
 21
0.5727
 31
0.0
  0
LINE
  5
160
100
AcDbEntity
100
AcDbLine
  8
BLACK
 62
256
370
-1
  6
ByLayer
 10
0.0632
 20
0.5727
 30
0.0
 11
0.0643
 21
0.5692
 31
0.0
  0
LINE
  5
161
100
AcDbEntity
100
AcDbLine
  8
BLACK
 62
256
370
-1
  6
ByLayer
 10
0.0643
 20
0.5692
 30
0.0
 11
0.0786
 21
0.5549000000000001
 31
0.0
  0
LINE
  5
162
100
AcDbEntity
100
AcDbLine
  8
BLACK
 62
256
370
-1
  6
ByLayer
 10
0.0786
 20
0.5549000000000001
 30
0.0
 11
0.0632
 21
0.5549000000000001
 31
0.0
  0
LINE
  5
163
100
AcDbEntity
100
AcDbLine
  8
BLACK
 62
256
370
-1
  6
ByLayer
 10
0.0524
 20
0.5549000000000001
 30
0.0
 11
0.0524
 21
0.5799000000000001
 31
0.0
  0
LINE
  5
164
100
AcDbEntity
100
AcDbLine
  8
BLACK
 62
256
370
-1
  6
ByLayer
 10
0.0501
 20
0.5644
 30
0.0
 11
0.0429
 21
0.5549000000000001
 31
0.0
  0
LINE
  5
165
100
AcDbEntity
100
AcDbLine
  8
BLACK
 62
256
370
-1
  6
ByLayer
 10
0.0429
 20
0.5715
 30
0.0
 11
0.0524
 21
0.5620000000000001
 31
0.0
  0
LINE
  5
166
100
AcDbEntity
100
AcDbLine
  8
BLACK
 62
256
370
-1
  6
ByLayer
 10
0.4005
 20
0.6308
 30
0.0
 11
0.4005
 21
0.5984
 31
0.0
  0
LINE
  5
167
100
AcDbEntity
100
AcDbLine
  8
BLACK
 62
256
370
-1
  6
ByLayer
 10
0.4005
 20
0.5984
 30
0.0
 11
0.3986
 21
0.5946
 31
0.0
  0
LINE
  5
168
100
AcDbEntity
100
AcDbLine
  8
BLACK
 62
256
370
-1
  6
ByLayer
 10
0.3986
 20
0.5946
 30
0.0
 11
0.3967
 21
0.5927
 31
0.0
  0
LINE
  5
169
100
AcDbEntity
100
AcDbLine
  8
BLACK
 62
256
370
-1
  6
ByLayer
 10
0.3967
 20
0.5927
 30
0.0
 11
0.3929
 21
0.5908
 31
0.0
  0
LINE
  5
16A
100
AcDbEntity
100
AcDbLine
  8
BLACK
 62
256
370
-1
  6
ByLayer
 10
0.3929
 20
0.5908
 30
0.0
 11
0.3852
 21
0.5908
 31
0.0
  0
LINE
  5
16B
100
AcDbEntity
100
AcDbLine
  8
BLACK
 62
256
370
-1
  6
ByLayer
 10
0.3852
 20
0.5908
 30
0.0
 11
0.3814
 21
0.5927
 31
0.0
  0
LINE
  5
16C
100
AcDbEntity
100
AcDbLine
  8
BLACK
 62
256
370
-1
  6
ByLayer
 10
0.3814
 20
0.5927
 30
0.0
 11
0.3795
 21
0.5946
 31
0.0
  0
LINE
  5
16D
100
AcDbEntity
100
AcDbLine
  8
BLACK
 62
256
370
-1
  6
ByLayer
 10
0.3795
 20
0.5946
 30
0.0
 11
0.3776
 21
0.5984
 31
0.0
  0
LINE
  5
16E
100
AcDbEntity
100
AcDbLine
  8
BLACK
 62
256
370
-1
  6
ByLayer
 10
0.3776
 20
0.5984
 30
0.0
 11
0.3776
 21
0.6308
 31
0.0
  0
LINE
  5
16F
100
AcDbEntity
100
AcDbLine
  8
BLACK
 62
256
370
-1
  6
ByLayer
 10
0.3624
 20
0.6308
 30
0.0
 11
0.3376
 21
0.6308
 31
0.0
  0
LINE
  5
170
100
AcDbEntity
100
AcDbLine
  8
BLACK
 62
256
370
-1
  6
ByLayer
 10
0.3376
 20
0.6308
 30
0.0
 11
0.351
 21
0.6156
 31
0.0
  0
LINE
  5
171
100
AcDbEntity
100
AcDbLine
  8
BLACK
 62
256
370
-1
  6
ByLayer
 10
0.351
 20
0.6156
 30
0.0
 11
0.3452
 21
0.6156
 31
0.0
  0
LINE
  5
172
100
AcDbEntity
100
AcDbLine
  8
BLACK
 62
256
370
-1
  6
ByLayer
 10
0.3452
 20
0.6156
 30
0.0
 11
0.3414
 21
0.6137
 31
0.0
  0
LINE
  5
173
100
AcDbEntity
100
AcDbLine
  8
BLACK
 62
256
370
-1
  6
ByLayer
 10
0.3414
 20
0.6137
 30
0.0
 11
0.3395
 21
0.6118
 31
0.0
  0
LINE
  5
174
100
AcDbEntity
100
AcDbLine
  8
BLACK
 62
256
370
-1
  6
ByLayer
 10
0.3395
 20
0.6118
 30
0.0
 11
0.3376
 21
0.608
 31
0.0
  0
LINE
  5
175
100
AcDbEntity
100
AcDbLine
  8
BLACK
 62
256
370
-1
  6
ByLayer
 10
0.3376
 20
0.608
 30
0.0
 11
0.3376
 21
0.5984
 31
0.0
  0
LINE
  5
176
100
AcDbEntity
100
AcDbLine
  8
BLACK
 62
256
370
-1
  6
ByLayer
 10
0.3376
 20
0.5984
 30
0.0
 11
0.3395
 21
0.5946
 31
0.0
  0
LINE
  5
177
100
AcDbEntity
100
AcDbLine
  8
BLACK
 62
256
370
-1
  6
ByLayer
 10
0.3395
 20
0.5946
 30
0.0
 11
0.3414
 21
0.5927
 31
0.0
  0
LINE
  5
178
100
AcDbEntity
100
AcDbLine
  8
BLACK
 62
256
370
-1
  6
ByLayer
 10
0.3414
 20
0.5927
 30
0.0
 11
0.3452
 21
0.5908
 31
0.0
  0
LINE
  5
179
100
AcDbEntity
100
AcDbLine
  8
BLACK
 62
256
370
-1
  6
ByLayer
 10
0.3452
 20
0.5908
 30
0.0
 11
0.3567
 21
0.5908
 31
0.0
  0
LINE
  5
17A
100
AcDbEntity
100
AcDbLine
  8
BLACK
 62
256
370
-1
  6
ByLayer
 10
0.3567
 20
0.5908
 30
0.0
 11
0.3605
 21
0.5927
 31
0.0
  0
LINE
  5
17B
100
AcDbEntity
100
AcDbLine
  8
BLACK
 62
256
370
-1
  6
ByLayer
 10
0.3605
 20
0.5927
 30
0.0
 11
0.3624
 21
0.5946
 31
0.0
  0
LINE
  5
17C
100
AcDbEntity
100
AcDbLine
  8
BLACK
 62
256
370
-1
  6
ByLayer
 10
0.4488
 20
0.8858
 30
0.0
 11
0.4488
 21
0.8534
 31
0.0
  0
LINE
  5
17D
100
AcDbEntity
100
AcDbLine
  8
BLACK
 62
256
370
-1
  6
ByLayer
 10
0.4488
 20
0.8534
 30
0.0
 11
0.4469
 21
0.8496
 31
0.0
  0
LINE
  5
17E
100
AcDbEntity
100
AcDbLine
  8
BLACK
 62
256
370
-1
  6
ByLayer
 10
0.4469
 20
0.8496
 30
0.0
 11
0.445
 21
0.8477
 31
0.0
  0
LINE
  5
17F
100
AcDbEntity
100
AcDbLine
  8
BLACK
 62
256
370
-1
  6
ByLayer
 10
0.445
 20
0.8477
 30
0.0
 11
0.4412
 21
0.8458
 31
0.0
  0
LINE
  5
180
100
AcDbEntity
100
AcDbLine
  8
BLACK
 62
256
370
-1
  6
ByLayer
 10
0.4412
 20
0.8458
 30
0.0
 11
0.4335
 21
0.8458
 31
0.0
  0
LINE
  5
181
100
AcDbEntity
100
AcDbLine
  8
BLACK
 62
256
370
-1
  6
ByLayer
 10
0.4335
 20
0.8458
 30
0.0
 11
0.4297
 21
0.8477
 31
0.0
  0
LINE
  5
182
100
AcDbEntity
100
AcDbLine
  8
BLACK
 62
256
370
-1
  6
ByLayer
 10
0.4297
 20
0.8477
 30
0.0
 11
0.4278
 21
0.8496
 31
0.0
  0
LINE
  5
183
100
AcDbEntity
100
AcDbLine
  8
BLACK
 62
256
370
-1
  6
ByLayer
 10
0.4278
 20
0.8496
 30
0.0
 11
0.4259
 21
0.8534
 31
0.0
  0
LINE
  5
184
100
AcDbEntity
100
AcDbLine
  8
BLACK
 62
256
370
-1
  6
ByLayer
 10
0.4259
 20
0.8534
 30
0.0
 11
0.4259
 21
0.8858
 31
0.0
  0
LINE
  5
185
100
AcDbEntity
100
AcDbLine
  8
BLACK
 62
256
370
-1
  6
ByLayer
 10
0.4088
 20
0.8572000000000001
 30
0.0
 11
0.3897
 21
0.8572000000000001
 31
0.0
  0
LINE
  5
186
100
AcDbEntity
100
AcDbLine
  8
BLACK
 62
256
370
-1
  6
ByLayer
 10
0.4126
 20
0.8458
 30
0.0
 11
0.3993
 21
0.8858
 31
0.0
  0
LINE
  5
187
100
AcDbEntity
100
AcDbLine
  8
BLACK
 62
256
370
-1
  6
ByLayer
 10
0.3993
 20
0.8858
 30
0.0
 11
0.3859
 21
0.8458
 31
0.0
  0
LINE
  5
188
100
AcDbEntity
100
AcDbLine
  8
BLACK
 62
256
370
-1
  6
ByLayer
 10
0.3592
 20
0.8668
 30
0.0
 11
0.3726
 21
0.8668
 31
0.0
  0
LINE
  5
189
100
AcDbEntity
100
AcDbLine
  8
BLACK
 62
256
370
-1
  6
ByLayer
 10
0.3726
 20
0.8458
 30
0.0
 11
0.3726
 21
0.8858
 31
0.0
  0
LINE
  5
18A
100
AcDbEntity
100
AcDbLine
  8
BLACK
 62
256
370
-1
  6
ByLayer
 10
0.3726
 20
0.8858
 30
0.0
 11
0.3535
 21
0.8858
 31
0.0
  0
LINE
  5
18B
100
AcDbEntity
100
AcDbLine
  8
BLACK
 62
256
370
-1
  6
ByLayer
 10
0.3211
 20
0.8725000000000001
 30
0.0
 11
0.3211
 21
0.8458
 31
0.0
  0
LINE
  5
18C
100
AcDbEntity
100
AcDbLine
  8
BLACK
 62
256
370
-1
  6
ByLayer
 10
0.3307
 20
0.8877
 30
0.0
 11
0.3402
 21
0.8591000000000001
 31
0.0
  0
LINE
  5
18D
100
AcDbEntity
100
AcDbLine
  8
BLACK
 62
256
370
-1
  6
ByLayer
 10
0.3402
 20
0.8591000000000001
 30
0.0
 11
0.3154
 21
0.8591000000000001
 31
0.0
  0
LINE
  5
18E
100
AcDbEntity
100
AcDbLine
  8
BLACK
 62
256
370
-1
  6
ByLayer
 10
0.3021
 20
0.882
 30
0.0
 11
0.3002
 21
0.8839
 31
0.0
  0
LINE
  5
18F
100
AcDbEntity
100
AcDbLine
  8
BLACK
 62
256
370
-1
  6
ByLayer
 10
0.3002
 20
0.8839
 30
0.0
 11
0.2964
 21
0.8858
 31
0.0
  0
LINE
  5
190
100
AcDbEntity
100
AcDbLine
  8
BLACK
 62
256
370
-1
  6
ByLayer
 10
0.2964
 20
0.8858
 30
0.0
 11
0.2868
 21
0.8858
 31
0.0
  0
LINE
  5
191
100
AcDbEntity
100
AcDbLine
  8
BLACK
 62
256
370
-1
  6
ByLayer
 10
0.2868
 20
0.8858
 30
0.0
 11
0.283
 21
0.8839
 31
0.0
  0
LINE
  5
192
100
AcDbEntity
100
AcDbLine
  8
BLACK
 62
256
370
-1
  6
ByLayer
 10
0.283
 20
0.8839
 30
0.0
 11
0.2811
 21
0.882
 31
0.0
  0
LINE
  5
193
100
AcDbEntity
100
AcDbLine
  8
BLACK
 62
256
370
-1
  6
ByLayer
 10
0.2811
 20
0.882
 30
0.0
 11
0.2792
 21
0.8782000000000001
 31
0.0
  0
LINE
  5
194
100
AcDbEntity
100
AcDbLine
  8
BLACK
 62
256
370
-1
  6
ByLayer
 10
0.2792
 20
0.8782000000000001
 30
0.0
 11
0.2792
 21
0.8744000000000001
 31
0.0
  0
LINE
  5
195
100
AcDbEntity
100
AcDbLine
  8
BLACK
 62
256
370
-1
  6
ByLayer
 10
0.2792
 20
0.8744000000000001
 30
0.0
 11
0.2811
 21
0.8687
 31
0.0
  0
LINE
  5
196
100
AcDbEntity
100
AcDbLine
  8
BLACK
 62
256
370
-1
  6
ByLayer
 10
0.2811
 20
0.8687
 30
0.0
 11
0.304
 21
0.8458
 31
0.0
  0
LINE
  5
197
100
AcDbEntity
100
AcDbLine
  8
BLACK
 62
256
370
-1
  6
ByLayer
 10
0.304
 20
0.8458
 30
0.0
 11
0.2792
 21
0.8458
 31
0.0
  0
LINE
  5
198
100
AcDbEntity
100
AcDbLine
  8
BLACK
 62
256
370
-1
  6
ByLayer
 10
0.5242
 20
0.5223
 30
0.0
 11
0.5254
 21
0.5211
 31
0.0
  0
LINE
  5
199
100
AcDbEntity
100
AcDbLine
  8
BLACK
 62
256
370
-1
  6
ByLayer
 10
0.5254
 20
0.5211
 30
0.0
 11
0.5289
 21
0.5199
 31
0.0
  0
LINE
  5
19A
100
AcDbEntity
100
AcDbLine
  8
BLACK
 62
256
370
-1
  6
ByLayer
 10
0.5289
 20
0.5199
 30
0.0
 11
0.5313
 21
0.5199
 31
0.0
  0
LINE
  5
19B
100
AcDbEntity
100
AcDbLine
  8
BLACK
 62
256
370
-1
  6
ByLayer
 10
0.5313
 20
0.5199
 30
0.0
 11
0.5348999999999999
 21
0.5211
 31
0.0
  0
LINE
  5
19C
100
AcDbEntity
100
AcDbLine
  8
BLACK
 62
256
370
-1
  6
ByLayer
 10
0.5348999999999999
 20
0.5211
 30
0.0
 11
0.5373
 21
0.5235000000000001
 31
0.0
  0
LINE
  5
19D
100
AcDbEntity
100
AcDbLine
  8
BLACK
 62
256
370
-1
  6
ByLayer
 10
0.5373
 20
0.5235000000000001
 30
0.0
 11
0.5384
 21
0.5258
 31
0.0
  0
LINE
  5
19E
100
AcDbEntity
100
AcDbLine
  8
BLACK
 62
256
370
-1
  6
ByLayer
 10
0.5384
 20
0.5258
 30
0.0
 11
0.5396
 21
0.5306000000000001
 31
0.0
  0
LINE
  5
19F
100
AcDbEntity
100
AcDbLine
  8
BLACK
 62
256
370
-1
  6
ByLayer
 10
0.5396
 20
0.5306000000000001
 30
0.0
 11
0.5396
 21
0.5342
 31
0.0
  0
LINE
  5
1A0
100
AcDbEntity
100
AcDbLine
  8
BLACK
 62
256
370
-1
  6
ByLayer
 10
0.5396
 20
0.5342
 30
0.0
 11
0.5384
 21
0.5389
 31
0.0
  0
LINE
  5
1A1
100
AcDbEntity
100
AcDbLine
  8
BLACK
 62
256
370
-1
  6
ByLayer
 10
0.5384
 20
0.5389
 30
0.0
 11
0.5373
 21
0.5413
 31
0.0
  0
LINE
  5
1A2
100
AcDbEntity
100
AcDbLine
  8
BLACK
 62
256
370
-1
  6
ByLayer
 10
0.5373
 20
0.5413
 30
0.0
 11
0.5348999999999999
 21
0.5437000000000001
 31
0.0
  0
LINE
  5
1A3
100
AcDbEntity
100
AcDbLine
  8
BLACK
 62
256
370
-1
  6
ByLayer
 10
0.5348999999999999
 20
0.5437000000000001
 30
0.0
 11
0.5313
 21
0.5449000000000001
 31
0.0
  0
LINE
  5
1A4
100
AcDbEntity
100
AcDbLine
  8
BLACK
 62
256
370
-1
  6
ByLayer
 10
0.5313
 20
0.5449000000000001
 30
0.0
 11
0.5289
 21
0.5449000000000001
 31
0.0
  0
LINE
  5
1A5
100
AcDbEntity
100
AcDbLine
  8
BLACK
 62
256
370
-1
  6
ByLayer
 10
0.5289
 20
0.5449000000000001
 30
0.0
 11
0.5254
 21
0.5437000000000001
 31
0.0
  0
LINE
  5
1A6
100
AcDbEntity
100
AcDbLine
  8
BLACK
 62
256
370
-1
  6
ByLayer
 10
0.5254
 20
0.5437000000000001
 30
0.0
 11
0.5242
 21
0.5425
 31
0.0
  0
LINE
  5
1A7
100
AcDbEntity
100
AcDbLine
  8
BLACK
 62
256
370
-1
  6
ByLayer
 10
0.5027
 20
0.5365
 30
0.0
 11
0.5027
 21
0.5199
 31
0.0
  0
LINE
  5
1A8
100
AcDbEntity
100
AcDbLine
  8
BLACK
 62
256
370
-1
  6
ByLayer
 10
0.5087
 20
0.5461
 30
0.0
 11
0.5145999999999999
 21
0.5282
 31
0.0
  0
LINE
  5
1A9
100
AcDbEntity
100
AcDbLine
  8
BLACK
 62
256
370
-1
  6
ByLayer
 10
0.5145999999999999
 20
0.5282
 30
0.0
 11
0.4992
 21
0.5282
 31
0.0
  0
LINE
  5
1AA
100
AcDbEntity
100
AcDbLine
  8
BLACK
 62
256
370
-1
  6
ByLayer
 10
0.5609999999999999
 20
0.4249
 30
0.0
 11
0.5586
 21
0.4249
 31
0.0
  0
LINE
  5
1AB
100
AcDbEntity
100
AcDbLine
  8
BLACK
 62
256
370
-1
  6
ByLayer
 10
0.5586
 20
0.4249
 30
0.0
 11
0.5562
 21
0.4237
 31
0.0
  0
LINE
  5
1AC
100
AcDbEntity
100
AcDbLine
  8
BLACK
 62
256
370
-1
  6
ByLayer
 10
0.5562
 20
0.4237
 30
0.0
 11
0.5549999999999999
 21
0.4225
 31
0.0
  0
LINE
  5
1AD
100
AcDbEntity
100
AcDbLine
  8
BLACK
 62
256
370
-1
  6
ByLayer
 10
0.5549999999999999
 20
0.4225
 30
0.0
 11
0.5538
 21
0.4201
 31
0.0
  0
LINE
  5
1AE
100
AcDbEntity
100
AcDbLine
  8
BLACK
 62
256
370
-1
  6
ByLayer
 10
0.5538
 20
0.4201
 30
0.0
 11
0.5527
 21
0.4154
 31
0.0
  0
LINE
  5
1AF
100
AcDbEntity
100
AcDbLine
  8
BLACK
 62
256
370
-1
  6
ByLayer
 10
0.5527
 20
0.4154
 30
0.0
 11
0.5527
 21
0.4094
 31
0.0
  0
LINE
  5
1B0
100
AcDbEntity
100
AcDbLine
  8
BLACK
 62
256
370
-1
  6
ByLayer
 10
0.5527
 20
0.4094
 30
0.0
 11
0.5538
 21
0.4046
 31
0.0
  0
LINE
  5
1B1
100
AcDbEntity
100
AcDbLine
  8
BLACK
 62
256
370
-1
  6
ByLayer
 10
0.5538
 20
0.4046
 30
0.0
 11
0.5549999999999999
 21
0.4023
 31
0.0
  0
LINE
  5
1B2
100
AcDbEntity
100
AcDbLine
  8
BLACK
 62
256
370
-1
  6
ByLayer
 10
0.5549999999999999
 20
0.4023
 30
0.0
 11
0.5562
 21
0.4011
 31
0.0
  0
LINE
  5
1B3
100
AcDbEntity
100
AcDbLine
  8
BLACK
 62
256
370
-1
  6
ByLayer
 10
0.5562
 20
0.4011
 30
0.0
 11
0.5586
 21
0.3999
 31
0.0
  0
LINE
  5
1B4
100
AcDbEntity
100
AcDbLine
  8
BLACK
 62
256
370
-1
  6
ByLayer
 10
0.5586
 20
0.3999
 30
0.0
 11
0.5609999999999999
 21
0.3999
 31
0.0
  0
LINE
  5
1B5
100
AcDbEntity
100
AcDbLine
  8
BLACK
 62
256
370
-1
  6
ByLayer
 10
0.5609999999999999
 20
0.3999
 30
0.0
 11
0.5634
 21
0.4011
 31
0.0
  0
LINE
  5
1B6
100
AcDbEntity
100
AcDbLine
  8
BLACK
 62
256
370
-1
  6
ByLayer
 10
0.5634
 20
0.4011
 30
0.0
 11
0.5646
 21
0.4023
 31
0.0
  0
LINE
  5
1B7
100
AcDbEntity
100
AcDbLine
  8
BLACK
 62
256
370
-1
  6
ByLayer
 10
0.5646
 20
0.4023
 30
0.0
 11
0.5657
 21
0.4046
 31
0.0
  0
LINE
  5
1B8
100
AcDbEntity
100
AcDbLine
  8
BLACK
 62
256
370
-1
  6
ByLayer
 10
0.5657
 20
0.4046
 30
0.0
 11
0.5669
 21
0.4094
 31
0.0
  0
LINE
  5
1B9
100
AcDbEntity
100
AcDbLine
  8
BLACK
 62
256
370
-1
  6
ByLayer
 10
0.5669
 20
0.4094
 30
0.0
 11
0.5669
 21
0.4154
 31
0.0
  0
LINE
  5
1BA
100
AcDbEntity
100
AcDbLine
  8
BLACK
 62
256
370
-1
  6
ByLayer
 10
0.5669
 20
0.4154
 30
0.0
 11
0.5657
 21
0.4201
 31
0.0
  0
LINE
  5
1BB
100
AcDbEntity
100
AcDbLine
  8
BLACK
 62
256
370
-1
  6
ByLayer
 10
0.5657
 20
0.4201
 30
0.0
 11
0.5646
 21
0.4225
 31
0.0
  0
LINE
  5
1BC
100
AcDbEntity
100
AcDbLine
  8
BLACK
 62
256
370
-1
  6
ByLayer
 10
0.5646
 20
0.4225
 30
0.0
 11
0.5634
 21
0.4237
 31
0.0
  0
LINE
  5
1BD
100
AcDbEntity
100
AcDbLine
  8
BLACK
 62
256
370
-1
  6
ByLayer
 10
0.5634
 20
0.4237
 30
0.0
 11
0.5609999999999999
 21
0.4249
 31
0.0
  0
LINE
  5
1BE
100
AcDbEntity
100
AcDbLine
  8
BLACK
 62
256
370
-1
  6
ByLayer
 10
0.5419
 20
0.4023
 30
0.0
 11
0.5407999999999999
 21
0.4011
 31
0.0
  0
LINE
  5
1BF
100
AcDbEntity
100
AcDbLine
  8
BLACK
 62
256
370
-1
  6
ByLayer
 10
0.5407999999999999
 20
0.4011
 30
0.0
 11
0.5419
 21
0.3999
 31
0.0
  0
LINE
  5
1C0
100
AcDbEntity
100
AcDbLine
  8
BLACK
 62
256
370
-1
  6
ByLayer
 10
0.5419
 20
0.3999
 30
0.0
 11
0.5431
 21
0.4011
 31
0.0
  0
LINE
  5
1C1
100
AcDbEntity
100
AcDbLine
  8
BLACK
 62
256
370
-1
  6
ByLayer
 10
0.5431
 20
0.4011
 30
0.0
 11
0.5419
 21
0.4023
 31
0.0
  0
LINE
  5
1C2
100
AcDbEntity
100
AcDbLine
  8
BLACK
 62
256
370
-1
  6
ByLayer
 10
0.5419
 20
0.4023
 30
0.0
 11
0.5419
 21
0.3999
 31
0.0
  0
LINE
  5
1C3
100
AcDbEntity
100
AcDbLine
  8
BLACK
 62
256
370
-1
  6
ByLayer
 10
0.517
 20
0.3999
 30
0.0
 11
0.5312
 21
0.3999
 31
0.0
  0
LINE
  5
1C4
100
AcDbEntity
100
AcDbLine
  8
BLACK
 62
256
370
-1
  6
ByLayer
 10
0.5241
 20
0.3999
 30
0.0
 11
0.5241
 21
0.4249
 31
0.0
  0
LINE
  5
1C5
100
AcDbEntity
100
AcDbLine
  8
BLACK
 62
256
370
-1
  6
ByLayer
 10
0.5241
 20
0.4249
 30
0.0
 11
0.5265
 21
0.4213
 31
0.0
  0
LINE
  5
1C6
100
AcDbEntity
100
AcDbLine
  8
BLACK
 62
256
370
-1
  6
ByLayer
 10
0.5265
 20
0.4213
 30
0.0
 11
0.5289
 21
0.4189
 31
0.0
  0
LINE
  5
1C7
100
AcDbEntity
100
AcDbLine
  8
BLACK
 62
256
370
-1
  6
ByLayer
 10
0.5289
 20
0.4189
 30
0.0
 11
0.5312
 21
0.4177
 31
0.0
  0
LINE
  5
1C8
100
AcDbEntity
100
AcDbLine
  8
BLACK
 62
256
370
-1
  6
ByLayer
 10
0.4955
 20
0.4165
 30
0.0
 11
0.4955
 21
0.3999
 31
0.0
  0
LINE
  5
1C9
100
AcDbEntity
100
AcDbLine
  8
BLACK
 62
256
370
-1
  6
ByLayer
 10
0.5062
 20
0.4165
 30
0.0
 11
0.5062
 21
0.4035
 31
0.0
  0
LINE
  5
1CA
100
AcDbEntity
100
AcDbLine
  8
BLACK
 62
256
370
-1
  6
ByLayer
 10
0.5062
 20
0.4035
 30
0.0
 11
0.5051
 21
0.4011
 31
0.0
  0
LINE
  5
1CB
100
AcDbEntity
100
AcDbLine
  8
BLACK
 62
256
370
-1
  6
ByLayer
 10
0.5051
 20
0.4011
 30
0.0
 11
0.5027
 21
0.3999
 31
0.0
  0
LINE
  5
1CC
100
AcDbEntity
100
AcDbLine
  8
BLACK
 62
256
370
-1
  6
ByLayer
 10
0.5027
 20
0.3999
 30
0.0
 11
0.4991
 21
0.3999
 31
0.0
  0
LINE
  5
1CD
100
AcDbEntity
100
AcDbLine
  8
BLACK
 62
256
370
-1
  6
ByLayer
 10
0.4991
 20
0.3999
 30
0.0
 11
0.4967
 21
0.4011
 31
0.0
  0
LINE
  5
1CE
100
AcDbEntity
100
AcDbLine
  8
BLACK
 62
256
370
-1
  6
ByLayer
 10
0.4967
 20
0.4011
 30
0.0
 11
0.4955
 21
0.4023
 31
0.0
  0
LINE
  5
1CF
100
AcDbEntity
100
AcDbLine
  8
BLACK
 62
256
370
-1
  6
ByLayer
 10
0.4753
 20
0.413
 30
0.0
 11
0.4836
 21
0.413
 31
0.0
  0
LINE
  5
1D0
100
AcDbEntity
100
AcDbLine
  8
BLACK
 62
256
370
-1
  6
ByLayer
 10
0.4836
 20
0.3999
 30
0.0
 11
0.4836
 21
0.4249
 31
0.0
  0
LINE
  5
1D1
100
AcDbEntity
100
AcDbLine
  8
BLACK
 62
256
370
-1
  6
ByLayer
 10
0.4836
 20
0.4249
 30
0.0
 11
0.4717
 21
0.4249
 31
0.0
  0
LINE
  5
1D2
100
AcDbEntity
100
AcDbLine
  8
BLACK
 62
256
370
-1
  6
ByLayer
 10
0.2292
 20
0.5223
 30
0.0
 11
0.2304
 21
0.5211
 31
0.0
  0
LINE
  5
1D3
100
AcDbEntity
100
AcDbLine
  8
BLACK
 62
256
370
-1
  6
ByLayer
 10
0.2304
 20
0.5211
 30
0.0
 11
0.2339
 21
0.5199
 31
0.0
  0
LINE
  5
1D4
100
AcDbEntity
100
AcDbLine
  8
BLACK
 62
256
370
-1
  6
ByLayer
 10
0.2339
 20
0.5199
 30
0.0
 11
0.2363
 21
0.5199
 31
0.0
  0
LINE
  5
1D5
100
AcDbEntity
100
AcDbLine
  8
BLACK
 62
256
370
-1
  6
ByLayer
 10
0.2363
 20
0.5199
 30
0.0
 11
0.2399
 21
0.5211
 31
0.0
  0
LINE
  5
1D6
100
AcDbEntity
100
AcDbLine
  8
BLACK
 62
256
370
-1
  6
ByLayer
 10
0.2399
 20
0.5211
 30
0.0
 11
0.2423
 21
0.5235000000000001
 31
0.0
  0
LINE
  5
1D7
100
AcDbEntity
100
AcDbLine
  8
BLACK
 62
256
370
-1
  6
ByLayer
 10
0.2423
 20
0.5235000000000001
 30
0.0
 11
0.2434
 21
0.5258
 31
0.0
  0
LINE
  5
1D8
100
AcDbEntity
100
AcDbLine
  8
BLACK
 62
256
370
-1
  6
ByLayer
 10
0.2434
 20
0.5258
 30
0.0
 11
0.2446
 21
0.5306000000000001
 31
0.0
  0
LINE
  5
1D9
100
AcDbEntity
100
AcDbLine
  8
BLACK
 62
256
370
-1
  6
ByLayer
 10
0.2446
 20
0.5306000000000001
 30
0.0
 11
0.2446
 21
0.5342
 31
0.0
  0
LINE
  5
1DA
100
AcDbEntity
100
AcDbLine
  8
BLACK
 62
256
370
-1
  6
ByLayer
 10
0.2446
 20
0.5342
 30
0.0
 11
0.2434
 21
0.5389
 31
0.0
  0
LINE
  5
1DB
100
AcDbEntity
100
AcDbLine
  8
BLACK
 62
256
370
-1
  6
ByLayer
 10
0.2434
 20
0.5389
 30
0.0
 11
0.2423
 21
0.5413
 31
0.0
  0
LINE
  5
1DC
100
AcDbEntity
100
AcDbLine
  8
BLACK
 62
256
370
-1
  6
ByLayer
 10
0.2423
 20
0.5413
 30
0.0
 11
0.2399
 21
0.5437000000000001
 31
0.0
  0
LINE
  5
1DD
100
AcDbEntity
100
AcDbLine
  8
BLACK
 62
256
370
-1
  6
ByLayer
 10
0.2399
 20
0.5437000000000001
 30
0.0
 11
0.2363
 21
0.5449000000000001
 31
0.0
  0
LINE
  5
1DE
100
AcDbEntity
100
AcDbLine
  8
BLACK
 62
256
370
-1
  6
ByLayer
 10
0.2363
 20
0.5449000000000001
 30
0.0
 11
0.2339
 21
0.5449000000000001
 31
0.0
  0
LINE
  5
1DF
100
AcDbEntity
100
AcDbLine
  8
BLACK
 62
256
370
-1
  6
ByLayer
 10
0.2339
 20
0.5449000000000001
 30
0.0
 11
0.2304
 21
0.5437000000000001
 31
0.0
  0
LINE
  5
1E0
100
AcDbEntity
100
AcDbLine
  8
BLACK
 62
256
370
-1
  6
ByLayer
 10
0.2304
 20
0.5437000000000001
 30
0.0
 11
0.2292
 21
0.5425
 31
0.0
  0
LINE
  5
1E1
100
AcDbEntity
100
AcDbLine
  8
BLACK
 62
256
370
-1
  6
ByLayer
 10
0.2208
 20
0.5449000000000001
 30
0.0
 11
0.2054
 21
0.5449000000000001
 31
0.0
  0
LINE
  5
1E2
100
AcDbEntity
100
AcDbLine
  8
BLACK
 62
256
370
-1
  6
ByLayer
 10
0.2054
 20
0.5449000000000001
 30
0.0
 11
0.2137
 21
0.5354
 31
0.0
  0
LINE
  5
1E3
100
AcDbEntity
100
AcDbLine
  8
BLACK
 62
256
370
-1
  6
ByLayer
 10
0.2137
 20
0.5354
 30
0.0
 11
0.2101
 21
0.5354
 31
0.0
  0
LINE
  5
1E4
100
AcDbEntity
100
AcDbLine
  8
BLACK
 62
256
370
-1
  6
ByLayer
 10
0.2101
 20
0.5354
 30
0.0
 11
0.2077
 21
0.5342
 31
0.0
  0
LINE
  5
1E5
100
AcDbEntity
100
AcDbLine
  8
BLACK
 62
256
370
-1
  6
ByLayer
 10
0.2077
 20
0.5342
 30
0.0
 11
0.2065
 21
0.533
 31
0.0
  0
LINE
  5
1E6
100
AcDbEntity
100
AcDbLine
  8
BLACK
 62
256
370
-1
  6
ByLayer
 10
0.2065
 20
0.533
 30
0.0
 11
0.2054
 21
0.5306000000000001
 31
0.0
  0
LINE
  5
1E7
100
AcDbEntity
100
AcDbLine
  8
BLACK
 62
256
370
-1
  6
ByLayer
 10
0.2054
 20
0.5306000000000001
 30
0.0
 11
0.2054
 21
0.5246000000000001
 31
0.0
  0
LINE
  5
1E8
100
AcDbEntity
100
AcDbLine
  8
BLACK
 62
256
370
-1
  6
ByLayer
 10
0.2054
 20
0.5246000000000001
 30
0.0
 11
0.2065
 21
0.5223
 31
0.0
  0
LINE
  5
1E9
100
AcDbEntity
100
AcDbLine
  8
BLACK
 62
256
370
-1
  6
ByLayer
 10
0.2065
 20
0.5223
 30
0.0
 11
0.2077
 21
0.5211
 31
0.0
  0
LINE
  5
1EA
100
AcDbEntity
100
AcDbLine
  8
BLACK
 62
256
370
-1
  6
ByLayer
 10
0.2077
 20
0.5211
 30
0.0
 11
0.2101
 21
0.5199
 31
0.0
  0
LINE
  5
1EB
100
AcDbEntity
100
AcDbLine
  8
BLACK
 62
256
370
-1
  6
ByLayer
 10
0.2101
 20
0.5199
 30
0.0
 11
0.2173
 21
0.5199
 31
0.0
  0
LINE
  5
1EC
100
AcDbEntity
100
AcDbLine
  8
BLACK
 62
256
370
-1
  6
ByLayer
 10
0.2173
 20
0.5199
 30
0.0
 11
0.2196
 21
0.5211
 31
0.0
  0
LINE
  5
1ED
100
AcDbEntity
100
AcDbLine
  8
BLACK
 62
256
370
-1
  6
ByLayer
 10
0.2196
 20
0.5211
 30
0.0
 11
0.2208
 21
0.5223
 31
0.0
  0
LINE
  5
1EE
100
AcDbEntity
100
AcDbLine
  8
BLACK
 62
256
370
-1
  6
ByLayer
 10
0.266
 20
0.4249
 30
0.0
 11
0.2636
 21
0.4249
 31
0.0
  0
LINE
  5
1EF
100
AcDbEntity
100
AcDbLine
  8
BLACK
 62
256
370
-1
  6
ByLayer
 10
0.2636
 20
0.4249
 30
0.0
 11
0.2612
 21
0.4237
 31
0.0
  0
LINE
  5
1F0
100
AcDbEntity
100
AcDbLine
  8
BLACK
 62
256
370
-1
  6
ByLayer
 10
0.2612
 20
0.4237
 30
0.0
 11
0.26
 21
0.4225
 31
0.0
  0
LINE
  5
1F1
100
AcDbEntity
100
AcDbLine
  8
BLACK
 62
256
370
-1
  6
ByLayer
 10
0.26
 20
0.4225
 30
0.0
 11
0.2588
 21
0.4201
 31
0.0
  0
LINE
  5
1F2
100
AcDbEntity
100
AcDbLine
  8
BLACK
 62
256
370
-1
  6
ByLayer
 10
0.2588
 20
0.4201
 30
0.0
 11
0.2577
 21
0.4154
 31
0.0
  0
LINE
  5
1F3
100
AcDbEntity
100
AcDbLine
  8
BLACK
 62
256
370
-1
  6
ByLayer
 10
0.2577
 20
0.4154
 30
0.0
 11
0.2577
 21
0.4094
 31
0.0
  0
LINE
  5
1F4
100
AcDbEntity
100
AcDbLine
  8
BLACK
 62
256
370
-1
  6
ByLayer
 10
0.2577
 20
0.4094
 30
0.0
 11
0.2588
 21
0.4046
 31
0.0
  0
LINE
  5
1F5
100
AcDbEntity
100
AcDbLine
  8
BLACK
 62
256
370
-1
  6
ByLayer
 10
0.2588
 20
0.4046
 30
0.0
 11
0.26
 21
0.4023
 31
0.0
  0
LINE
  5
1F6
100
AcDbEntity
100
AcDbLine
  8
BLACK
 62
256
370
-1
  6
ByLayer
 10
0.26
 20
0.4023
 30
0.0
 11
0.2612
 21
0.4011
 31
0.0
  0
LINE
  5
1F7
100
AcDbEntity
100
AcDbLine
  8
BLACK
 62
256
370
-1
  6
ByLayer
 10
0.2612
 20
0.4011
 30
0.0
 11
0.2636
 21
0.3999
 31
0.0
  0
LINE
  5
1F8
100
AcDbEntity
100
AcDbLine
  8
BLACK
 62
256
370
-1
  6
ByLayer
 10
0.2636
 20
0.3999
 30
0.0
 11
0.266
 21
0.3999
 31
0.0
  0
LINE
  5
1F9
100
AcDbEntity
100
AcDbLine
  8
BLACK
 62
256
370
-1
  6
ByLayer
 10
0.266
 20
0.3999
 30
0.0
 11
0.2684
 21
0.4011
 31
0.0
  0
LINE
  5
1FA
100
AcDbEntity
100
AcDbLine
  8
BLACK
 62
256
370
-1
  6
ByLayer
 10
0.2684
 20
0.4011
 30
0.0
 11
0.2696
 21
0.4023
 31
0.0
  0
LINE
  5
1FB
100
AcDbEntity
100
AcDbLine
  8
BLACK
 62
256
370
-1
  6
ByLayer
 10
0.2696
 20
0.4023
 30
0.0
 11
0.2707
 21
0.4046
 31
0.0
  0
LINE
  5
1FC
100
AcDbEntity
100
AcDbLine
  8
BLACK
 62
256
370
-1
  6
ByLayer
 10
0.2707
 20
0.4046
 30
0.0
 11
0.2719
 21
0.4094
 31
0.0
  0
LINE
  5
1FD
100
AcDbEntity
100
AcDbLine
  8
BLACK
 62
256
370
-1
  6
ByLayer
 10
0.2719
 20
0.4094
 30
0.0
 11
0.2719
 21
0.4154
 31
0.0
  0
LINE
  5
1FE
100
AcDbEntity
100
AcDbLine
  8
BLACK
 62
256
370
-1
  6
ByLayer
 10
0.2719
 20
0.4154
 30
0.0
 11
0.2707
 21
0.4201
 31
0.0
  0
LINE
  5
1FF
100
AcDbEntity
100
AcDbLine
  8
BLACK
 62
256
370
-1
  6
ByLayer
 10
0.2707
 20
0.4201
 30
0.0
 11
0.2696
 21
0.4225
 31
0.0
  0
LINE
  5
200
100
AcDbEntity
100
AcDbLine
  8
BLACK
 62
256
370
-1
  6
ByLayer
 10
0.2696
 20
0.4225
 30
0.0
 11
0.2684
 21
0.4237
 31
0.0
  0
LINE
  5
201
100
AcDbEntity
100
AcDbLine
  8
BLACK
 62
256
370
-1
  6
ByLayer
 10
0.2684
 20
0.4237
 30
0.0
 11
0.266
 21
0.4249
 31
0.0
  0
LINE
  5
202
100
AcDbEntity
100
AcDbLine
  8
BLACK
 62
256
370
-1
  6
ByLayer
 10
0.2469
 20
0.4023
 30
0.0
 11
0.2458
 21
0.4011
 31
0.0
  0
LINE
  5
203
100
AcDbEntity
100
AcDbLine
  8
BLACK
 62
256
370
-1
  6
ByLayer
 10
0.2458
 20
0.4011
 30
0.0
 11
0.2469
 21
0.3999
 31
0.0
  0
LINE
  5
204
100
AcDbEntity
100
AcDbLine
  8
BLACK
 62
256
370
-1
  6
ByLayer
 10
0.2469
 20
0.3999
 30
0.0
 11
0.2481
 21
0.4011
 31
0.0
  0
LINE
  5
205
100
AcDbEntity
100
AcDbLine
  8
BLACK
 62
256
370
-1
  6
ByLayer
 10
0.2481
 20
0.4011
 30
0.0
 11
0.2469
 21
0.4023
 31
0.0
  0
LINE
  5
206
100
AcDbEntity
100
AcDbLine
  8
BLACK
 62
256
370
-1
  6
ByLayer
 10
0.2469
 20
0.4023
 30
0.0
 11
0.2469
 21
0.3999
 31
0.0
  0
LINE
  5
207
100
AcDbEntity
100
AcDbLine
  8
BLACK
 62
256
370
-1
  6
ByLayer
 10
0.222
 20
0.3999
 30
0.0
 11
0.2362
 21
0.3999
 31
0.0
  0
LINE
  5
208
100
AcDbEntity
100
AcDbLine
  8
BLACK
 62
256
370
-1
  6
ByLayer
 10
0.2291
 20
0.3999
 30
0.0
 11
0.2291
 21
0.4249
 31
0.0
  0
LINE
  5
209
100
AcDbEntity
100
AcDbLine
  8
BLACK
 62
256
370
-1
  6
ByLayer
 10
0.2291
 20
0.4249
 30
0.0
 11
0.2315
 21
0.4213
 31
0.0
  0
LINE
  5
20A
100
AcDbEntity
100
AcDbLine
  8
BLACK
 62
256
370
-1
  6
ByLayer
 10
0.2315
 20
0.4213
 30
0.0
 11
0.2339
 21
0.4189
 31
0.0
  0
LINE
  5
20B
100
AcDbEntity
100
AcDbLine
  8
BLACK
 62
256
370
-1
  6
ByLayer
 10
0.2339
 20
0.4189
 30
0.0
 11
0.2362
 21
0.4177
 31
0.0
  0
LINE
  5
20C
100
AcDbEntity
100
AcDbLine
  8
BLACK
 62
256
370
-1
  6
ByLayer
 10
0.2005
 20
0.4165
 30
0.0
 11
0.2005
 21
0.3999
 31
0.0
  0
LINE
  5
20D
100
AcDbEntity
100
AcDbLine
  8
BLACK
 62
256
370
-1
  6
ByLayer
 10
0.2112
 20
0.4165
 30
0.0
 11
0.2112
 21
0.4035
 31
0.0
  0
LINE
  5
20E
100
AcDbEntity
100
AcDbLine
  8
BLACK
 62
256
370
-1
  6
ByLayer
 10
0.2112
 20
0.4035
 30
0.0
 11
0.2101
 21
0.4011
 31
0.0
  0
LINE
  5
20F
100
AcDbEntity
100
AcDbLine
  8
BLACK
 62
256
370
-1
  6
ByLayer
 10
0.2101
 20
0.4011
 30
0.0
 11
0.2077
 21
0.3999
 31
0.0
  0
LINE
  5
210
100
AcDbEntity
100
AcDbLine
  8
BLACK
 62
256
370
-1
  6
ByLayer
 10
0.2077
 20
0.3999
 30
0.0
 11
0.2041
 21
0.3999
 31
0.0
  0
LINE
  5
211
100
AcDbEntity
100
AcDbLine
  8
BLACK
 62
256
370
-1
  6
ByLayer
 10
0.2041
 20
0.3999
 30
0.0
 11
0.2017
 21
0.4011
 31
0.0
  0
LINE
  5
212
100
AcDbEntity
100
AcDbLine
  8
BLACK
 62
256
370
-1
  6
ByLayer
 10
0.2017
 20
0.4011
 30
0.0
 11
0.2005
 21
0.4023
 31
0.0
  0
LINE
  5
213
100
AcDbEntity
100
AcDbLine
  8
BLACK
 62
256
370
-1
  6
ByLayer
 10
0.1803
 20
0.413
 30
0.0
 11
0.1886
 21
0.413
 31
0.0
  0
LINE
  5
214
100
AcDbEntity
100
AcDbLine
  8
BLACK
 62
256
370
-1
  6
ByLayer
 10
0.1886
 20
0.3999
 30
0.0
 11
0.1886
 21
0.4249
 31
0.0
  0
LINE
  5
215
100
AcDbEntity
100
AcDbLine
  8
BLACK
 62
256
370
-1
  6
ByLayer
 10
0.1886
 20
0.4249
 30
0.0
 11
0.1767
 21
0.4249
 31
0.0
  0
ENDSEC
  0
SECTION
  2
OBJECTS
  0
DICTIONARY
  5
C
100
AcDbDictionary
280
0
281
1
  3
ACAD_GROUP
350
D
  3
ACAD_LAYOUT
350
1A
  3
ACAD_MLINESTYLE
350
17
  3
ACAD_PLOTSETTINGS
350
19
  3
ACAD_PLOTSTYLENAME
350
E
  3
AcDbVariableDictionary
350
216
  0
DICTIONARY
  5
D
100
AcDbDictionary
280
0
281
1
  0
ACDBDICTIONARYWDFLT
  5
E
100
AcDbDictionary
281
1
  3
Normal
350
F
100
AcDbDictionaryWithDefault
340
F
  0
ACDBPLACEHOLDER
  5
F
  0
DICTIONARY
  5
17
100
AcDbDictionary
280
0
281
1
  3
Standard
350
18
  0
MLINESTYLE
  5
18
100
AcDbMlineStyle
  2
STANDARD
 70
0
  3

 62
256
 51
90.0
 52
90.0
 71
2
 49
0.5
 62
256
  6
BYLAYER
 49
-0.5
 62
256
  6
BYLAYER
  0
DICTIONARY
  5
19
100
AcDbDictionary
280
0
281
1
  0
DICTIONARY
  5
1A
100
AcDbDictionary
281
1
  3
Layout1
350
1E
  3
Layout2
350
26
  3
Model
350
22
  0
LAYOUT
  5
1E
100
AcDbPlotSettings
  1

  2
C:\Program Files\AutoCAD 2002\plotters\DWF ePlot (optimized for plotting).pc3
  4

  6

 40
0.0
 41
0.0
 42
0.0
 43
0.0
 44
0.0
 45
0.0
 46
0.0
 47
0.0
 48
0.0
 49
0.0
140
0.0
141
0.0
142
1.0
143
1.0
 70
688
 72
0
 73
0
 74
5
  7

 75
16
147
1.0
148
0.0
149
0.0
100
AcDbLayout
  1
Layout1
 70
1
 71
1
 10
0.0
 20
0.0
 11
420.0
 21
297.0
 12
0.0
 22
0.0
 32
0.0
 14
100000000000000000000.0
 24
100000000000000000000.0
 34
100000000000000000000.0
 15
-100000000000000000000.0
 25
-100000000000000000000.0
 35
-100000000000000000000.0
146
0.0
 13
0.0
 23
0.0
 33
0.0
 16
1.0
 26
0.0
 36
0.0
 17
0.0
 27
1.0
 37
0.0
 76
0
330
1B
  0
LAYOUT
  5
22
100
AcDbPlotSettings
  1

  2
C:\Program Files\AutoCAD 2002\plotters\DWF ePlot (optimized for plotting).pc3
  4

  6

 40
0.0
 41
0.0
 42
0.0
 43
0.0
 44
0.0
 45
0.0
 46
0.0
 47
0.0
 48
0.0
 49
0.0
140
0.0
141
0.0
142
1.0
143
1.0
 70
1712
 72
0
 73
0
 74
0
  7

 75
0
147
1.0
148
0.0
149
0.0
100
AcDbLayout
  1
Model
 70
1
 71
0
 10
0.0
 20
0.0
 11
12.0
 21
9.0
 12
0.0
 22
0.0
 32
0.0
 14
0.0
 24
0.0
 34
0.0
 15
0.0
 25
0.0
 35
0.0
146
0.0
 13
0.0
 23
0.0
 33
0.0
 16
1.0
 26
0.0
 36
0.0
 17
0.0
 27
1.0
 37
0.0
 76
0
330
1F
  0
LAYOUT
  5
26
100
AcDbPlotSettings
  1

  2
C:\Program Files\AutoCAD 2002\plotters\DWF ePlot (optimized for plotting).pc3
  4

  6

 40
0.0
 41
0.0
 42
0.0
 43
0.0
 44
0.0
 45
0.0
 46
0.0
 47
0.0
 48
0.0
 49
0.0
140
0.0
141
0.0
142
1.0
143
1.0
 70
688
 72
0
 73
0
 74
5
  7

 75
16
147
1.0
148
0.0
149
0.0
100
AcDbLayout
  1
Layout2
 70
1
 71
2
 10
0.0
 20
0.0
 11
12.0
 21
9.0
 12
0.0
 22
0.0
 32
0.0
 14
0.0
 24
0.0
 34
0.0
 15
0.0
 25
0.0
 35
0.0
146
0.0
 13
0.0
 23
0.0
 33
0.0
 16
1.0
 26
0.0
 36
0.0
 17
0.0
 27
1.0
 37
0.0
 76
0
330
23
  0
DICTIONARY
  5
216
100
AcDbDictionary
281
1
  3
DIMASSOC
350
218
  3
HIDETEXT
350
217
  0
DICTIONARYVAR
  5
217
100
DictionaryVariables
280
0
  1
2
  0
DICTIONARYVAR
  5
218
100
DictionaryVariables
280
0
  1
1
  0
ENDSEC
  0
EOF
