999
dxflib 2.2.0.0
  0
SECTION
  2
HEADER
  9
$ACADVER
  1
AC1015
  9
$HANDSEED
  5
FFFF
  9
$SPLINESEGS
 70
8
  9
$DIMEXE
 40
1.25
  9
$ANGBASE
 50
0.0
  9
$DIMLUNIT
 70
2
  9
$GRIDMODE
 70
1
  9
$INSUNITS
 70
1
  9
$DIMADEC
 70
2
  9
$DIMASZ
 40
2.5
  9
$DIMGAP
 40
0.625
  9
$DIMTXT
 40
2.5
  9
$GRIDUNIT
 10
0.0
 20
0.0
  9
$ANGDIR
 70
0
  9
$DIMEXO
 40
0.625
  9
$LUPREC
 70
4
  9
$DIMAUNIT
 70
0
  9
$AUPREC
 70
2
  9
$PLIMMIN
 10
0.0
 20
0.0
  9
$LUNITS
 70
2
  9
$PLIMMAX
 10
8.2677165354330722
 20
11.6929133858267722
  9
$DIMSTYLE
  2
Standard
  9
$AUNITS
 70
0
  0
ENDSEC
  0
SECTION
  2
TABLES
  0
TABLE
  2
VPORT
  5
8
100
AcDbSymbolTable
 70
1
  0
VPORT
  5
30
100
AcDbSymbolTableRecord
100
AcDbViewportTableRecord
  2
*Active
 70
0
 10
0.0
 20
0.0
 11
1.0
 21
1.0
 12
286.3055555555554861
 22
148.5
 13
0.0
 23
0.0
 14
10.0
 24
10.0
 15
10.0
 25
10.0
 16
0.0
 26
0.0
 36
1.0
 17
0.0
 27
0.0
 37
0.0
 40
297.0
 41
1.92798353909465
 42
50.0
 43
0.0
 44
0.0
 50
0.0
 51
0.0
 71
0
 72
100
 73
1
 74
3
 75
1
 76
1
 77
0
 78
0
281
0
 65
1
110
0.0
120
0.0
130
0.0
111
1.0
121
0.0
131
0.0
112
0.0
122
1.0
132
0.0
 79
0
146
0.0
  0
ENDTAB
  0
TABLE
  2
LTYPE
  5
5
100
AcDbSymbolTable
 70
21
  0
LTYPE
  5
14
100
AcDbSymbolTableRecord
100
AcDbLinetypeTableRecord
  2
ByBlock
 70
0
  3

 72
65
 73
0
 40
0.0
  0
LTYPE
  5
15
100
AcDbSymbolTableRecord
100
AcDbLinetypeTableRecord
  2
ByLayer
 70
0
  3

 72
65
 73
0
 40
0.0
  0
LTYPE
  5
16
100
AcDbSymbolTableRecord
100
AcDbLinetypeTableRecord
  2
CONTINUOUS
 70
0
  3
Solid line
 72
65
 73
0
 40
0.0
  0
LTYPE
  5
31
100
AcDbSymbolTableRecord
100
AcDbLinetypeTableRecord
  2
DOT
 70
0
  3
Dot . . . . . . . . . . . . . . . . . . . . . .
 72
65
 73
2
 40
6.3499999999999996
 49
0.0
 74
0
 49
-6.3499999999999996
 74
0
  0
LTYPE
  5
32
100
AcDbSymbolTableRecord
100
AcDbLinetypeTableRecord
  2
DOT2
 70
0
  3
Dot (.5x) .....................................
 72
65
 73
2
 40
3.1749999999999998
 49
0.0
 74
0
 49
-3.1749999999999998
 74
0
  0
LTYPE
  5
33
100
AcDbSymbolTableRecord
100
AcDbLinetypeTableRecord
  2
DOTX2
 70
0
  3
Dot (2x) .  .  .  .  .  .  .  .  .  .  .  .  .
 72
65
 73
2
 40
12.6999999999999993
 49
0.0
 74
0
 49
-12.6999999999999993
 74
0
  0
LTYPE
  5
34
100
AcDbSymbolTableRecord
100
AcDbLinetypeTableRecord
  2
DASHED
 70
0
  3
Dashed __ __ __ __ __ __ __ __ __ __ __ __ __ _
 72
65
 73
2
 40
19.0500000000000007
 49
12.6999999999999993
 74
0
 49
-6.3499999999999996
 74
0
  0
LTYPE
  5
35
100
AcDbSymbolTableRecord
100
AcDbLinetypeTableRecord
  2
DASHED2
 70
0
  3
Dashed (.5x) _ _ _ _ _ _ _ _ _ _ _ _ _ _ _ _ _
 72
65
 73
2
 40
9.5250000000000004
 49
6.3499999999999996
 74
0
 49
-3.1749999999999998
 74
0
  0
LTYPE
  5
36
100
AcDbSymbolTableRecord
100
AcDbLinetypeTableRecord
  2
DASHEDX2
 70
0
  3
Dashed (2x) ____  ____  ____  ____  ____  ___
 72
65
 73
2
 40
38.1000000000000014
 49
25.3999999999999986
 74
0
 49
-12.6999999999999993
 74
0
  0
LTYPE
  5
37
100
AcDbSymbolTableRecord
100
AcDbLinetypeTableRecord
  2
DASHDOT
 70
0
  3
Dash dot __ . __ . __ . __ . __ . __ . __ . __
 72
65
 73
4
 40
25.3999999999999986
 49
12.6999999999999993
 74
0
 49
-6.3499999999999996
 74
0
 49
0.0
 74
0
 49
-6.3499999999999996
 74
0
  0
LTYPE
  5
38
100
AcDbSymbolTableRecord
100
AcDbLinetypeTableRecord
  2
DASHDOT2
 70
0
  3
Dash dot (.5x) _._._._._._._._._._._._._._._.
 72
65
 73
4
 40
12.6999999999999993
 49
6.3499999999999996
 74
0
 49
-3.1749999999999998
 74
0
 49
0.0
 74
0
 49
-3.1749999999999998
 74
0
  0
LTYPE
  5
39
100
AcDbSymbolTableRecord
100
AcDbLinetypeTableRecord
  2
DASHDOTX2
 70
0
  3
Dash dot (2x) ____  .  ____  .  ____  .  ___
 72
65
 73
4
 40
50.7999999999999972
 49
25.3999999999999986
 74
0
 49
-12.6999999999999993
 74
0
 49
0.0
 74
0
 49
-12.6999999999999993
 74
0
  0
LTYPE
  5
3A
100
AcDbSymbolTableRecord
100
AcDbLinetypeTableRecord
  2
DIVIDE
 70
0
  3
Divide ____ . . ____ . . ____ . . ____ . . ____
 72
65
 73
6
 40
31.75
 49
12.6999999999999993
 74
0
 49
-6.3499999999999996
 74
0
 49
0.0
 74
0
 49
-6.3499999999999996
 74
0
 49
0.0
 74
0
 49
-6.3499999999999996
 74
0
  0
LTYPE
  5
3B
100
AcDbSymbolTableRecord
100
AcDbLinetypeTableRecord
  2
DIVIDE2
 70
0
  3
Divide (.5x) __..__..__..__..__..__..__..__.._
 72
65
 73
6
 40
15.875
 49
6.3499999999999996
 74
0
 49
-3.1749999999999998
 74
0
 49
0.0
 74
0
 49
-3.1749999999999998
 74
0
 49
0.0
 74
0
 49
-3.1749999999999998
 74
0
  0
LTYPE
  5
3C
100
AcDbSymbolTableRecord
100
AcDbLinetypeTableRecord
  2
DIVIDEX2
 70
0
  3
Divide (2x) ________  .  .  ________  .  .  _
 72
65
 73
6
 40
63.5
 49
25.3999999999999986
 74
0
 49
-12.6999999999999993
 74
0
 49
0.0
 74
0
 49
-12.6999999999999993
 74
0
 49
0.0
 74
0
 49
-12.6999999999999993
 74
0
  0
LTYPE
  5
3D
100
AcDbSymbolTableRecord
100
AcDbLinetypeTableRecord
  2
CENTER
 70
0
  3
Center ____ _ ____ _ ____ _ ____ _ ____ _ ____
 72
65
 73
4
 40
50.7999999999999972
 49
31.75
 74
0
 49
-6.3499999999999996
 74
0
 49
6.3499999999999996
 74
0
 49
-6.3499999999999996
 74
0
  0
LTYPE
  5
3E
100
AcDbSymbolTableRecord
100
AcDbLinetypeTableRecord
  2
CENTER2
 70
0
  3
Center (.5x) ___ _ ___ _ ___ _ ___ _ ___ _ ___
 72
65
 73
4
 40
28.5749999999999993
 49
19.0500000000000007
 74
0
 49
-3.1749999999999998
 74
0
 49
3.1749999999999998
 74
0
 49
-3.1749999999999998
 74
0
  0
LTYPE
  5
3F
100
AcDbSymbolTableRecord
100
AcDbLinetypeTableRecord
  2
CENTERX2
 70
0
  3
Center (2x) ________  __  ________  __  _____
 72
65
 73
4
 40
101.5999999999999943
 49
63.5
 74
0
 49
-12.6999999999999993
 74
0
 49
12.6999999999999993
 74
0
 49
-12.6999999999999993
 74
0
  0
LTYPE
  5
40
100
AcDbSymbolTableRecord
100
AcDbLinetypeTableRecord
  2
BORDER
 70
0
  3
Border __ __ . __ __ . __ __ . __ __ . __ __ .
 72
65
 73
6
 40
44.4500000000000028
 49
12.6999999999999993
 74
0
 49
-6.3499999999999996
 74
0
 49
12.6999999999999993
 74
0
 49
-6.3499999999999996
 74
0
 49
0.0
 74
0
 49
-6.3499999999999996
 74
0
  0
LTYPE
  5
41
100
AcDbSymbolTableRecord
100
AcDbLinetypeTableRecord
  2
BORDER2
 70
0
  3
Border (.5x) __.__.__.__.__.__.__.__.__.__.__.
 72
65
 73
6
 40
22.2250000000000014
 49
6.3499999999999996
 74
0
 49
-3.1749999999999998
 74
0
 49
6.3499999999999996
 74
0
 49
-3.1749999999999998
 74
0
 49
0.0
 74
0
 49
-3.1749999999999998
 74
0
  0
LTYPE
  5
42
100
AcDbSymbolTableRecord
100
AcDbLinetypeTableRecord
  2
BORDERX2
 70
0
  3
Border (2x) ____  ____  .  ____  ____  .  ___
 72
65
 73
6
 40
88.9000000000000057
 49
25.3999999999999986
 74
0
 49
-12.6999999999999993
 74
0
 49
25.3999999999999986
 74
0
 49
-12.6999999999999993
 74
0
 49
0.0
 74
0
 49
-12.6999999999999993
 74
0
  0
ENDTAB
  0
TABLE
  2
LAYER
  5
2
100
AcDbSymbolTable
 70
25
  0
LAYER
  5
10
100
AcDbSymbolTableRecord
100
AcDbLayerTableRecord
  2
0
 70
0
 62
7
  6
CONTINUOUS
370
0
390
F
  0
LAYER
  5
43
100
AcDbSymbolTableRecord
100
AcDbLayerTableRecord
  2
BLACK
 70
0
 62
1
  6
CONTINUOUS
390
F
  0
LAYER
  5
44
100
AcDbSymbolTableRecord
100
AcDbLayerTableRecord
  2
BLUE
 70
0
 62
2
  6
CONTINUOUS
390
F
  0
LAYER
  5
45
100
AcDbSymbolTableRecord
100
AcDbLayerTableRecord
  2
GREEN
 70
0
 62
3
  6
CONTINUOUS
390
F
  0
LAYER
  5
46
100
AcDbSymbolTableRecord
100
AcDbLayerTableRecord
  2
CYAN
 70
0
 62
4
  6
CONTINUOUS
390
F
  0
LAYER
  5
47
100
AcDbSymbolTableRecord
100
AcDbLayerTableRecord
  2
RED
 70
0
 62
5
  6
CONTINUOUS
390
F
  0
LAYER
  5
48
100
AcDbSymbolTableRecord
100
AcDbLayerTableRecord
  2
MAGENTA
 70
0
 62
6
  6
CONTINUOUS
390
F
  0
LAYER
  5
49
100
AcDbSymbolTableRecord
100
AcDbLayerTableRecord
  2
BROWN
 70
0
 62
7
  6
CONTINUOUS
390
F
  0
LAYER
  5
4A
100
AcDbSymbolTableRecord
100
AcDbLayerTableRecord
  2
GRAY
 70
0
 62
8
  6
CONTINUOUS
390
F
  0
LAYER
  5
4B
100
AcDbSymbolTableRecord
100
AcDbLayerTableRecord
  2
DARKGRAY
 70
0
 62
9
  6
CONTINUOUS
390
F
  0
LAYER
  5
4C
100
AcDbSymbolTableRecord
100
AcDbLayerTableRecord
  2
LIGHTBLUE
 70
0
 62
1
  6
CONTINUOUS
390
F
  0
LAYER
  5
4D
100
AcDbSymbolTableRecord
100
AcDbLayerTableRecord
  2
LIGHTGREEN
 70
0
 62
11
  6
CONTINUOUS
390
F
  0
LAYER
  5
4E
100
AcDbSymbolTableRecord
100
AcDbLayerTableRecord
  2
LIGHTCYAN
 70
0
 62
12
  6
CONTINUOUS
390
F
  0
LAYER
  5
4F
100
AcDbSymbolTableRecord
100
AcDbLayerTableRecord
  2
LIGHTRED
 70
0
 62
13
  6
CONTINUOUS
390
F
  0
LAYER
  5
50
100
AcDbSymbolTableRecord
100
AcDbLayerTableRecord
  2
LIGHTMAGENTA
 70
0
 62
14
  6
CONTINUOUS
390
F
  0
LAYER
  5
51
100
AcDbSymbolTableRecord
100
AcDbLayerTableRecord
  2
YELLOW
 70
0
 62
15
  6
CONTINUOUS
390
F
  0
LAYER
  5
52
100
AcDbSymbolTableRecord
100
AcDbLayerTableRecord
  2
WHITE
 70
0
 62
16
  6
CONTINUOUS
390
F
  0
LAYER
  5
53
100
AcDbSymbolTableRecord
100
AcDbLayerTableRecord
  2
DARKDARKGRAY
 70
0
 62
17
  6
CONTINUOUS
390
F
  0
LAYER
  5
54
100
AcDbSymbolTableRecord
100
AcDbLayerTableRecord
  2
DARKBLUE
 70
0
 62
18
  6
CONTINUOUS
390
F
  0
LAYER
  5
55
100
AcDbSymbolTableRecord
100
AcDbLayerTableRecord
  2
DARKGREEN
 70
0
 62
19
  6
CONTINUOUS
390
F
  0
LAYER
  5
56
100
AcDbSymbolTableRecord
100
AcDbLayerTableRecord
  2
DARKCYAN
 70
0
 62
20
  6
CONTINUOUS
390
F
  0
LAYER
  5
57
100
AcDbSymbolTableRecord
100
AcDbLayerTableRecord
  2
DARKRED
 70
0
 62
21
  6
CONTINUOUS
390
F
  0
LAYER
  5
58
100
AcDbSymbolTableRecord
100
AcDbLayerTableRecord
  2
DARKMAGENTA
 70
0
 62
22
  6
CONTINUOUS
390
F
  0
LAYER
  5
59
100
AcDbSymbolTableRecord
100
AcDbLayerTableRecord
  2
DARKBROWN
 70
0
 62
23
  6
CONTINUOUS
390
F
  0
LAYER
  5
5A
100
AcDbSymbolTableRecord
100
AcDbLayerTableRecord
  2
LIGHTYELLOW
 70
0
 62
24
  6
CONTINUOUS
390
F
  0
ENDTAB
  0
TABLE
  2
STYLE
  5
3
100
AcDbSymbolTable
 70
1
  0
STYLE
  5
11
100
AcDbSymbolTableRecord
100
AcDbTextStyleTableRecord
  2
Standard
 70
0
 40
0.0
 41
0.75
 50
0.0
 71
0
 42
2.5
  3
txt
  4

  0
ENDTAB
  0
TABLE
  2
VIEW
  5
6
100
AcDbSymbolTable
 70
0
  0
ENDTAB
  0
TABLE
  2
UCS
  5
7
100
AcDbSymbolTable
 70
0
  0
ENDTAB
  0
TABLE
  2
APPID
  5
9
100
AcDbSymbolTable
 70
1
  0
APPID
  5
12
100
AcDbSymbolTableRecord
100
AcDbRegAppTableRecord
  2
ACAD
 70
0
  0
ENDTAB
  0
TABLE
  2
DIMSTYLE
  5
A
100
AcDbSymbolTable
 70
1
100
AcDbDimStyleTable
 71
0
  0
DIMSTYLE
105
27
100
AcDbSymbolTableRecord
100
AcDbDimStyleTableRecord
  2
Standard
 41
2.5
 42
0.625
 43
3.75
 44
1.25
 70
0
 73
0
 74
0
 77
1
 78
8
140
2.5
141
2.5
143
0.03937007874016
147
0.625
171
3
172
1
271
2
272
2
274
3
278
44
283
0
284
8
340
11
  0
ENDTAB
  0
TABLE
  2
BLOCK_RECORD
  5
1
100
AcDbSymbolTable
 70
1
  0
BLOCK_RECORD
  5
1F
100
AcDbSymbolTableRecord
100
AcDbBlockTableRecord
  2
*Model_Space
340
22
  0
BLOCK_RECORD
  5
1B
100
AcDbSymbolTableRecord
100
AcDbBlockTableRecord
  2
*Paper_Space
340
1E
  0
BLOCK_RECORD
  5
23
100
AcDbSymbolTableRecord
100
AcDbBlockTableRecord
  2
*Paper_Space0
340
26
  0
ENDTAB
  0
ENDSEC
  0
SECTION
  2
BLOCKS
  0
BLOCK
  5
20
100
AcDbEntity
  8
0
100
AcDbBlockBegin
  2
*Model_Space
 70
0
 10
0.0
 20
0.0
 30
0.0
  3
*Model_Space
  1

  0
ENDBLK
  5
21
100
AcDbEntity
  8
0
100
AcDbBlockEnd
  0
BLOCK
  5
1C
100
AcDbEntity
 67
1
  8
0
100
AcDbBlockBegin
  2
*Paper_Space
 70
0
 10
0.0
 20
0.0
 30
0.0
  3
*Paper_Space
  1

  0
ENDBLK
  5
1D
100
AcDbEntity
 67
1
  8
0
100
AcDbBlockEnd
  0
BLOCK
  5
24
100
AcDbEntity
  8
0
100
AcDbBlockBegin
  2
*Paper_Space0
 70
0
 10
0.0
 20
0.0
 30
0.0
  3
*Paper_Space0
  1

  0
ENDBLK
  5
25
100
AcDbEntity
  8
0
100
AcDbBlockEnd
  0
ENDSEC
  0
SECTION
  2
ENTITIES
  0
LINE
  5
5B
100
AcDbEntity
100
AcDbLine
  8
BLACK
 62
256
370
-1
  6
ByLayer
 10
0.4331
 20
1.2383
 30
0.0
 11
0.4331
 21
1.2421
 31
0.0
  0
LINE
  5
5C
100
AcDbEntity
100
AcDbLine
  8
BLACK
 62
256
370
-1
  6
ByLayer
 10
0.4331
 20
1.2421
 30
0.0
 11
0.434
 21
1.244
 31
0.0
  0
LINE
  5
5D
100
AcDbEntity
100
AcDbLine
  8
BLACK
 62
256
370
-1
  6
ByLayer
 10
0.434
 20
1.244
 30
0.0
 11
0.436
 21
1.2459
 31
0.0
  0
LINE
  5
5E
100
AcDbEntity
100
AcDbLine
  8
BLACK
 62
256
370
-1
  6
ByLayer
 10
0.436
 20
1.2459
 30
0.0
 11
0.4398
 21
1.2468000000000001
 31
0.0
  0
LINE
  5
5F
100
AcDbEntity
100
AcDbLine
  8
BLACK
 62
256
370
-1
  6
ByLayer
 10
0.4398
 20
1.2468000000000001
 30
0.0
 11
0.4464
 21
1.2468000000000001
 31
0.0
  0
LINE
  5
60
100
AcDbEntity
100
AcDbLine
  8
BLACK
 62
256
370
-1
  6
ByLayer
 10
0.4464
 20
1.2468000000000001
 30
0.0
 11
0.4502
 21
1.2459
 31
0.0
  0
LINE
  5
61
100
AcDbEntity
100
AcDbLine
  8
BLACK
 62
256
370
-1
  6
ByLayer
 10
0.4502
 20
1.2459
 30
0.0
 11
0.4521
 21
1.244
 31
0.0
  0
LINE
  5
62
100
AcDbEntity
100
AcDbLine
  8
BLACK
 62
256
370
-1
  6
ByLayer
 10
0.4521
 20
1.244
 30
0.0
 11
0.4531
 21
1.2421
 31
0.0
  0
LINE
  5
63
100
AcDbEntity
100
AcDbLine
  8
BLACK
 62
256
370
-1
  6
ByLayer
 10
0.4531
 20
1.2421
 30
0.0
 11
0.4531
 21
1.2383
 31
0.0
  0
LINE
  5
64
100
AcDbEntity
100
AcDbLine
  8
BLACK
 62
256
370
-1
  6
ByLayer
 10
0.4531
 20
1.2383
 30
0.0
 11
0.4521
 21
1.2364000000000002
 31
0.0
  0
LINE
  5
65
100
AcDbEntity
100
AcDbLine
  8
BLACK
 62
256
370
-1
  6
ByLayer
 10
0.4521
 20
1.2364000000000002
 30
0.0
 11
0.4502
 21
1.2345000000000002
 31
0.0
  0
LINE
  5
66
100
AcDbEntity
100
AcDbLine
  8
BLACK
 62
256
370
-1
  6
ByLayer
 10
0.4502
 20
1.2345000000000002
 30
0.0
 11
0.4464
 21
1.2335
 31
0.0
  0
LINE
  5
67
100
AcDbEntity
100
AcDbLine
  8
BLACK
 62
256
370
-1
  6
ByLayer
 10
0.4464
 20
1.2335
 30
0.0
 11
0.4398
 21
1.2335
 31
0.0
  0
LINE
  5
68
100
AcDbEntity
100
AcDbLine
  8
BLACK
 62
256
370
-1
  6
ByLayer
 10
0.4398
 20
1.2335
 30
0.0
 11
0.436
 21
1.2345000000000002
 31
0.0
  0
LINE
  5
69
100
AcDbEntity
100
AcDbLine
  8
BLACK
 62
256
370
-1
  6
ByLayer
 10
0.436
 20
1.2345000000000002
 30
0.0
 11
0.434
 21
1.2364000000000002
 31
0.0
  0
LINE
  5
6A
100
AcDbEntity
100
AcDbLine
  8
BLACK
 62
256
370
-1
  6
ByLayer
 10
0.434
 20
1.2364000000000002
 30
0.0
 11
0.4331
 21
1.2383
 31
0.0
  0
LINE
  5
6B
100
AcDbEntity
100
AcDbLine
  8
BLACK
 62
256
370
-1
  6
ByLayer
 10
0.4521
 20
1.264
 30
0.0
 11
0.4531
 21
1.2621
 31
0.0
  0
LINE
  5
6C
100
AcDbEntity
100
AcDbLine
  8
BLACK
 62
256
370
-1
  6
ByLayer
 10
0.4531
 20
1.2621
 30
0.0
 11
0.4531
 21
1.2583
 31
0.0
  0
LINE
  5
6D
100
AcDbEntity
100
AcDbLine
  8
BLACK
 62
256
370
-1
  6
ByLayer
 10
0.4531
 20
1.2583
 30
0.0
 11
0.4521
 21
1.2564
 31
0.0
  0
LINE
  5
6E
100
AcDbEntity
100
AcDbLine
  8
BLACK
 62
256
370
-1
  6
ByLayer
 10
0.4521
 20
1.2564
 30
0.0
 11
0.4512
 21
1.2555000000000001
 31
0.0
  0
LINE
  5
6F
100
AcDbEntity
100
AcDbLine
  8
BLACK
 62
256
370
-1
  6
ByLayer
 10
0.4512
 20
1.2555000000000001
 30
0.0
 11
0.4493
 21
1.2545000000000002
 31
0.0
  0
LINE
  5
70
100
AcDbEntity
100
AcDbLine
  8
BLACK
 62
256
370
-1
  6
ByLayer
 10
0.4493
 20
1.2545000000000002
 30
0.0
 11
0.4436
 21
1.2545000000000002
 31
0.0
  0
LINE
  5
71
100
AcDbEntity
100
AcDbLine
  8
BLACK
 62
256
370
-1
  6
ByLayer
 10
0.4436
 20
1.2545000000000002
 30
0.0
 11
0.4417
 21
1.2555000000000001
 31
0.0
  0
LINE
  5
72
100
AcDbEntity
100
AcDbLine
  8
BLACK
 62
256
370
-1
  6
ByLayer
 10
0.4417
 20
1.2555000000000001
 30
0.0
 11
0.4407
 21
1.2564
 31
0.0
  0
LINE
  5
73
100
AcDbEntity
100
AcDbLine
  8
BLACK
 62
256
370
-1
  6
ByLayer
 10
0.4407
 20
1.2564
 30
0.0
 11
0.4398
 21
1.2583
 31
0.0
  0
LINE
  5
74
100
AcDbEntity
100
AcDbLine
  8
BLACK
 62
256
370
-1
  6
ByLayer
 10
0.4398
 20
1.2583
 30
0.0
 11
0.4398
 21
1.2621
 31
0.0
  0
LINE
  5
75
100
AcDbEntity
100
AcDbLine
  8
BLACK
 62
256
370
-1
  6
ByLayer
 10
0.4398
 20
1.2621
 30
0.0
 11
0.4407
 21
1.264
 31
0.0
  0
LINE
  5
76
100
AcDbEntity
100
AcDbLine
  8
BLACK
 62
256
370
-1
  6
ByLayer
 10
0.4398
 20
1.2697000000000001
 30
0.0
 11
0.4398
 21
1.2773000000000001
 31
0.0
  0
LINE
  5
77
100
AcDbEntity
100
AcDbLine
  8
BLACK
 62
256
370
-1
  6
ByLayer
 10
0.4331
 20
1.2726
 30
0.0
 11
0.4502
 21
1.2726
 31
0.0
  0
LINE
  5
78
100
AcDbEntity
100
AcDbLine
  8
BLACK
 62
256
370
-1
  6
ByLayer
 10
0.4502
 20
1.2726
 30
0.0
 11
0.4521
 21
1.2735000000000001
 31
0.0
  0
LINE
  5
79
100
AcDbEntity
100
AcDbLine
  8
BLACK
 62
256
370
-1
  6
ByLayer
 10
0.4521
 20
1.2735000000000001
 30
0.0
 11
0.4531
 21
1.2754000000000001
 31
0.0
  0
LINE
  5
7A
100
AcDbEntity
100
AcDbLine
  8
BLACK
 62
256
370
-1
  6
ByLayer
 10
0.4531
 20
1.2754000000000001
 30
0.0
 11
0.4531
 21
1.2773000000000001
 31
0.0
  0
LINE
  5
7B
100
AcDbEntity
100
AcDbLine
  8
BLACK
 62
256
370
-1
  6
ByLayer
 10
0.435
 20
1.2982
 30
0.0
 11
0.434
 21
1.2992000000000001
 31
0.0
  0
LINE
  5
7C
100
AcDbEntity
100
AcDbLine
  8
BLACK
 62
256
370
-1
  6
ByLayer
 10
0.434
 20
1.2992000000000001
 30
0.0
 11
0.4331
 21
1.3011000000000001
 31
0.0
  0
LINE
  5
7D
100
AcDbEntity
100
AcDbLine
  8
BLACK
 62
256
370
-1
  6
ByLayer
 10
0.4331
 20
1.3011000000000001
 30
0.0
 11
0.4331
 21
1.3058000000000001
 31
0.0
  0
LINE
  5
7E
100
AcDbEntity
100
AcDbLine
  8
BLACK
 62
256
370
-1
  6
ByLayer
 10
0.4331
 20
1.3058000000000001
 30
0.0
 11
0.434
 21
1.3077000000000001
 31
0.0
  0
LINE
  5
7F
100
AcDbEntity
100
AcDbLine
  8
BLACK
 62
256
370
-1
  6
ByLayer
 10
0.434
 20
1.3077000000000001
 30
0.0
 11
0.435
 21
1.3087
 31
0.0
  0
LINE
  5
80
100
AcDbEntity
100
AcDbLine
  8
BLACK
 62
256
370
-1
  6
ByLayer
 10
0.435
 20
1.3087
 30
0.0
 11
0.4369
 21
1.3096000000000001
 31
0.0
  0
LINE
  5
81
100
AcDbEntity
100
AcDbLine
  8
BLACK
 62
256
370
-1
  6
ByLayer
 10
0.4369
 20
1.3096000000000001
 30
0.0
 11
0.4388
 21
1.3096000000000001
 31
0.0
  0
LINE
  5
82
100
AcDbEntity
100
AcDbLine
  8
BLACK
 62
256
370
-1
  6
ByLayer
 10
0.4388
 20
1.3096000000000001
 30
0.0
 11
0.4417
 21
1.3087
 31
0.0
  0
LINE
  5
83
100
AcDbEntity
100
AcDbLine
  8
BLACK
 62
256
370
-1
  6
ByLayer
 10
0.4417
 20
1.3087
 30
0.0
 11
0.4531
 21
1.2973000000000001
 31
0.0
  0
LINE
  5
84
100
AcDbEntity
100
AcDbLine
  8
BLACK
 62
256
370
-1
  6
ByLayer
 10
0.4531
 20
1.2973000000000001
 30
0.0
 11
0.4531
 21
1.3096000000000001
 31
0.0
  0
LINE
  5
85
100
AcDbEntity
100
AcDbLine
  8
BLACK
 62
256
370
-1
  6
ByLayer
 10
0.4331
 20
1.3220000000000001
 30
0.0
 11
0.4331
 21
1.3239000000000001
 31
0.0
  0
LINE
  5
86
100
AcDbEntity
100
AcDbLine
  8
BLACK
 62
256
370
-1
  6
ByLayer
 10
0.4331
 20
1.3239000000000001
 30
0.0
 11
0.434
 21
1.3258000000000001
 31
0.0
  0
LINE
  5
87
100
AcDbEntity
100
AcDbLine
  8
BLACK
 62
256
370
-1
  6
ByLayer
 10
0.434
 20
1.3258000000000001
 30
0.0
 11
0.435
 21
1.3267
 31
0.0
  0
LINE
  5
88
100
AcDbEntity
100
AcDbLine
  8
BLACK
 62
256
370
-1
  6
ByLayer
 10
0.435
 20
1.3267
 30
0.0
 11
0.4369
 21
1.3277000000000001
 31
0.0
  0
LINE
  5
89
100
AcDbEntity
100
AcDbLine
  8
BLACK
 62
256
370
-1
  6
ByLayer
 10
0.4369
 20
1.3277000000000001
 30
0.0
 11
0.4407
 21
1.3286
 31
0.0
  0
LINE
  5
8A
100
AcDbEntity
100
AcDbLine
  8
BLACK
 62
256
370
-1
  6
ByLayer
 10
0.4407
 20
1.3286
 30
0.0
 11
0.4455
 21
1.3286
 31
0.0
  0
LINE
  5
8B
100
AcDbEntity
100
AcDbLine
  8
BLACK
 62
256
370
-1
  6
ByLayer
 10
0.4455
 20
1.3286
 30
0.0
 11
0.4493
 21
1.3277000000000001
 31
0.0
  0
LINE
  5
8C
100
AcDbEntity
100
AcDbLine
  8
BLACK
 62
256
370
-1
  6
ByLayer
 10
0.4493
 20
1.3277000000000001
 30
0.0
 11
0.4512
 21
1.3267
 31
0.0
  0
LINE
  5
8D
100
AcDbEntity
100
AcDbLine
  8
BLACK
 62
256
370
-1
  6
ByLayer
 10
0.4512
 20
1.3267
 30
0.0
 11
0.4521
 21
1.3258000000000001
 31
0.0
  0
LINE
  5
8E
100
AcDbEntity
100
AcDbLine
  8
BLACK
 62
256
370
-1
  6
ByLayer
 10
0.4521
 20
1.3258000000000001
 30
0.0
 11
0.4531
 21
1.3239000000000001
 31
0.0
  0
LINE
  5
8F
100
AcDbEntity
100
AcDbLine
  8
BLACK
 62
256
370
-1
  6
ByLayer
 10
0.4531
 20
1.3239000000000001
 30
0.0
 11
0.4531
 21
1.3220000000000001
 31
0.0
  0
LINE
  5
90
100
AcDbEntity
100
AcDbLine
  8
BLACK
 62
256
370
-1
  6
ByLayer
 10
0.4531
 20
1.3220000000000001
 30
0.0
 11
0.4521
 21
1.3201000000000001
 31
0.0
  0
LINE
  5
91
100
AcDbEntity
100
AcDbLine
  8
BLACK
 62
256
370
-1
  6
ByLayer
 10
0.4521
 20
1.3201000000000001
 30
0.0
 11
0.4512
 21
1.3191000000000002
 31
0.0
  0
LINE
  5
92
100
AcDbEntity
100
AcDbLine
  8
BLACK
 62
256
370
-1
  6
ByLayer
 10
0.4512
 20
1.3191000000000002
 30
0.0
 11
0.4493
 21
1.3182
 31
0.0
  0
LINE
  5
93
100
AcDbEntity
100
AcDbLine
  8
BLACK
 62
256
370
-1
  6
ByLayer
 10
0.4493
 20
1.3182
 30
0.0
 11
0.4455
 21
1.3172000000000001
 31
0.0
  0
LINE
  5
94
100
AcDbEntity
100
AcDbLine
  8
BLACK
 62
256
370
-1
  6
ByLayer
 10
0.4455
 20
1.3172000000000001
 30
0.0
 11
0.4407
 21
1.3172000000000001
 31
0.0
  0
LINE
  5
95
100
AcDbEntity
100
AcDbLine
  8
BLACK
 62
256
370
-1
  6
ByLayer
 10
0.4407
 20
1.3172000000000001
 30
0.0
 11
0.4369
 21
1.3182
 31
0.0
  0
LINE
  5
96
100
AcDbEntity
100
AcDbLine
  8
BLACK
 62
256
370
-1
  6
ByLayer
 10
0.4369
 20
1.3182
 30
0.0
 11
0.435
 21
1.3191000000000002
 31
0.0
  0
LINE
  5
97
100
AcDbEntity
100
AcDbLine
  8
BLACK
 62
256
370
-1
  6
ByLayer
 10
0.435
 20
1.3191000000000002
 30
0.0
 11
0.434
 21
1.3201000000000001
 31
0.0
  0
LINE
  5
98
100
AcDbEntity
100
AcDbLine
  8
BLACK
 62
256
370
-1
  6
ByLayer
 10
0.434
 20
1.3201000000000001
 30
0.0
 11
0.4331
 21
1.3220000000000001
 31
0.0
  0
LINE
  5
99
100
AcDbEntity
100
AcDbLine
  8
BLACK
 62
256
370
-1
  6
ByLayer
 10
0.4331
 20
1.341
 30
0.0
 11
0.4331
 21
1.3429
 31
0.0
  0
LINE
  5
9A
100
AcDbEntity
100
AcDbLine
  8
BLACK
 62
256
370
-1
  6
ByLayer
 10
0.4331
 20
1.3429
 30
0.0
 11
0.434
 21
1.3448
 31
0.0
  0
LINE
  5
9B
100
AcDbEntity
100
AcDbLine
  8
BLACK
 62
256
370
-1
  6
ByLayer
 10
0.434
 20
1.3448
 30
0.0
 11
0.435
 21
1.3457000000000001
 31
0.0
  0
LINE
  5
9C
100
AcDbEntity
100
AcDbLine
  8
BLACK
 62
256
370
-1
  6
ByLayer
 10
0.435
 20
1.3457000000000001
 30
0.0
 11
0.4369
 21
1.3467
 31
0.0
  0
LINE
  5
9D
100
AcDbEntity
100
AcDbLine
  8
BLACK
 62
256
370
-1
  6
ByLayer
 10
0.4369
 20
1.3467
 30
0.0
 11
0.4407
 21
1.3476000000000001
 31
0.0
  0
LINE
  5
9E
100
AcDbEntity
100
AcDbLine
  8
BLACK
 62
256
370
-1
  6
ByLayer
 10
0.4407
 20
1.3476000000000001
 30
0.0
 11
0.4455
 21
1.3476000000000001
 31
0.0
  0
LINE
  5
9F
100
AcDbEntity
100
AcDbLine
  8
BLACK
 62
256
370
-1
  6
ByLayer
 10
0.4455
 20
1.3476000000000001
 30
0.0
 11
0.4493
 21
1.3467
 31
0.0
  0
LINE
  5
A0
100
AcDbEntity
100
AcDbLine
  8
BLACK
 62
256
370
-1
  6
ByLayer
 10
0.4493
 20
1.3467
 30
0.0
 11
0.4512
 21
1.3457000000000001
 31
0.0
  0
LINE
  5
A1
100
AcDbEntity
100
AcDbLine
  8
BLACK
 62
256
370
-1
  6
ByLayer
 10
0.4512
 20
1.3457000000000001
 30
0.0
 11
0.4521
 21
1.3448
 31
0.0
  0
LINE
  5
A2
100
AcDbEntity
100
AcDbLine
  8
BLACK
 62
256
370
-1
  6
ByLayer
 10
0.4521
 20
1.3448
 30
0.0
 11
0.4531
 21
1.3429
 31
0.0
  0
LINE
  5
A3
100
AcDbEntity
100
AcDbLine
  8
BLACK
 62
256
370
-1
  6
ByLayer
 10
0.4531
 20
1.3429
 30
0.0
 11
0.4531
 21
1.341
 31
0.0
  0
LINE
  5
A4
100
AcDbEntity
100
AcDbLine
  8
BLACK
 62
256
370
-1
  6
ByLayer
 10
0.4531
 20
1.341
 30
0.0
 11
0.4521
 21
1.3391
 31
0.0
  0
LINE
  5
A5
100
AcDbEntity
100
AcDbLine
  8
BLACK
 62
256
370
-1
  6
ByLayer
 10
0.4521
 20
1.3391
 30
0.0
 11
0.4512
 21
1.3381000000000001
 31
0.0
  0
LINE
  5
A6
100
AcDbEntity
100
AcDbLine
  8
BLACK
 62
256
370
-1
  6
ByLayer
 10
0.4512
 20
1.3381000000000001
 30
0.0
 11
0.4493
 21
1.3372000000000002
 31
0.0
  0
LINE
  5
A7
100
AcDbEntity
100
AcDbLine
  8
BLACK
 62
256
370
-1
  6
ByLayer
 10
0.4493
 20
1.3372000000000002
 30
0.0
 11
0.4455
 21
1.3362000000000001
 31
0.0
  0
LINE
  5
A8
100
AcDbEntity
100
AcDbLine
  8
BLACK
 62
256
370
-1
  6
ByLayer
 10
0.4455
 20
1.3362000000000001
 30
0.0
 11
0.4407
 21
1.3362000000000001
 31
0.0
  0
LINE
  5
A9
100
AcDbEntity
100
AcDbLine
  8
BLACK
 62
256
370
-1
  6
ByLayer
 10
0.4407
 20
1.3362000000000001
 30
0.0
 11
0.4369
 21
1.3372000000000002
 31
0.0
  0
LINE
  5
AA
100
AcDbEntity
100
AcDbLine
  8
BLACK
 62
256
370
-1
  6
ByLayer
 10
0.4369
 20
1.3372000000000002
 30
0.0
 11
0.435
 21
1.3381000000000001
 31
0.0
  0
LINE
  5
AB
100
AcDbEntity
100
AcDbLine
  8
BLACK
 62
256
370
-1
  6
ByLayer
 10
0.435
 20
1.3381000000000001
 30
0.0
 11
0.434
 21
1.3391
 31
0.0
  0
LINE
  5
AC
100
AcDbEntity
100
AcDbLine
  8
BLACK
 62
256
370
-1
  6
ByLayer
 10
0.434
 20
1.3391
 30
0.0
 11
0.4331
 21
1.341
 31
0.0
  0
LINE
  5
AD
100
AcDbEntity
100
AcDbLine
  8
BLACK
 62
256
370
-1
  6
ByLayer
 10
0.4531
 20
1.3571
 30
0.0
 11
0.4531
 21
1.3609
 31
0.0
  0
LINE
  5
AE
100
AcDbEntity
100
AcDbLine
  8
BLACK
 62
256
370
-1
  6
ByLayer
 10
0.4531
 20
1.3609
 30
0.0
 11
0.4521
 21
1.3628
 31
0.0
  0
LINE
  5
AF
100
AcDbEntity
100
AcDbLine
  8
BLACK
 62
256
370
-1
  6
ByLayer
 10
0.4521
 20
1.3628
 30
0.0
 11
0.4512
 21
1.3638000000000001
 31
0.0
  0
LINE
  5
B0
100
AcDbEntity
100
AcDbLine
  8
BLACK
 62
256
370
-1
  6
ByLayer
 10
0.4512
 20
1.3638000000000001
 30
0.0
 11
0.4483
 21
1.3657000000000001
 31
0.0
  0
LINE
  5
B1
100
AcDbEntity
100
AcDbLine
  8
BLACK
 62
256
370
-1
  6
ByLayer
 10
0.4483
 20
1.3657000000000001
 30
0.0
 11
0.4445
 21
1.3666
 31
0.0
  0
LINE
  5
B2
100
AcDbEntity
100
AcDbLine
  8
BLACK
 62
256
370
-1
  6
ByLayer
 10
0.4445
 20
1.3666
 30
0.0
 11
0.4369
 21
1.3666
 31
0.0
  0
LINE
  5
B3
100
AcDbEntity
100
AcDbLine
  8
BLACK
 62
256
370
-1
  6
ByLayer
 10
0.4369
 20
1.3666
 30
0.0
 11
0.435
 21
1.3657000000000001
 31
0.0
  0
LINE
  5
B4
100
AcDbEntity
100
AcDbLine
  8
BLACK
 62
256
370
-1
  6
ByLayer
 10
0.435
 20
1.3657000000000001
 30
0.0
 11
0.434
 21
1.3647
 31
0.0
  0
LINE
  5
B5
100
AcDbEntity
100
AcDbLine
  8
BLACK
 62
256
370
-1
  6
ByLayer
 10
0.434
 20
1.3647
 30
0.0
 11
0.4331
 21
1.3628
 31
0.0
  0
LINE
  5
B6
100
AcDbEntity
100
AcDbLine
  8
BLACK
 62
256
370
-1
  6
ByLayer
 10
0.4331
 20
1.3628
 30
0.0
 11
0.4331
 21
1.359
 31
0.0
  0
LINE
  5
B7
100
AcDbEntity
100
AcDbLine
  8
BLACK
 62
256
370
-1
  6
ByLayer
 10
0.4331
 20
1.359
 30
0.0
 11
0.434
 21
1.3571
 31
0.0
  0
LINE
  5
B8
100
AcDbEntity
100
AcDbLine
  8
BLACK
 62
256
370
-1
  6
ByLayer
 10
0.434
 20
1.3571
 30
0.0
 11
0.435
 21
1.3562000000000001
 31
0.0
  0
LINE
  5
B9
100
AcDbEntity
100
AcDbLine
  8
BLACK
 62
256
370
-1
  6
ByLayer
 10
0.435
 20
1.3562000000000001
 30
0.0
 11
0.4369
 21
1.3552
 31
0.0
  0
LINE
  5
BA
100
AcDbEntity
100
AcDbLine
  8
BLACK
 62
256
370
-1
  6
ByLayer
 10
0.4369
 20
1.3552
 30
0.0
 11
0.4417
 21
1.3552
 31
0.0
  0
LINE
  5
BB
100
AcDbEntity
100
AcDbLine
  8
BLACK
 62
256
370
-1
  6
ByLayer
 10
0.4417
 20
1.3552
 30
0.0
 11
0.4436
 21
1.3562000000000001
 31
0.0
  0
LINE
  5
BC
100
AcDbEntity
100
AcDbLine
  8
BLACK
 62
256
370
-1
  6
ByLayer
 10
0.4436
 20
1.3562000000000001
 30
0.0
 11
0.4445
 21
1.3571
 31
0.0
  0
LINE
  5
BD
100
AcDbEntity
100
AcDbLine
  8
BLACK
 62
256
370
-1
  6
ByLayer
 10
0.4445
 20
1.3571
 30
0.0
 11
0.4455
 21
1.359
 31
0.0
  0
LINE
  5
BE
100
AcDbEntity
100
AcDbLine
  8
BLACK
 62
256
370
-1
  6
ByLayer
 10
0.4455
 20
1.359
 30
0.0
 11
0.4455
 21
1.3628
 31
0.0
  0
LINE
  5
BF
100
AcDbEntity
100
AcDbLine
  8
BLACK
 62
256
370
-1
  6
ByLayer
 10
0.4455
 20
1.3628
 30
0.0
 11
0.4445
 21
1.3647
 31
0.0
  0
LINE
  5
C0
100
AcDbEntity
100
AcDbLine
  8
BLACK
 62
256
370
-1
  6
ByLayer
 10
0.4445
 20
1.3647
 30
0.0
 11
0.4436
 21
1.3657000000000001
 31
0.0
  0
LINE
  5
C1
100
AcDbEntity
100
AcDbLine
  8
BLACK
 62
256
370
-1
  6
ByLayer
 10
0.4436
 20
1.3657000000000001
 30
0.0
 11
0.4417
 21
1.3666
 31
0.0
  0
LINE
  5
C2
100
AcDbEntity
100
AcDbLine
  8
BLACK
 62
256
370
-1
  6
ByLayer
 10
0.3031
 20
1.2473000000000001
 30
0.0
 11
0.3231
 21
1.254
 31
0.0
  0
LINE
  5
C3
100
AcDbEntity
100
AcDbLine
  8
BLACK
 62
256
370
-1
  6
ByLayer
 10
0.3231
 20
1.254
 30
0.0
 11
0.3031
 21
1.2606000000000002
 31
0.0
  0
LINE
  5
C4
100
AcDbEntity
100
AcDbLine
  8
BLACK
 62
256
370
-1
  6
ByLayer
 10
0.3221
 20
1.2749000000000001
 30
0.0
 11
0.3231
 21
1.2730000000000001
 31
0.0
  0
LINE
  5
C5
100
AcDbEntity
100
AcDbLine
  8
BLACK
 62
256
370
-1
  6
ByLayer
 10
0.3231
 20
1.2730000000000001
 30
0.0
 11
0.3231
 21
1.2692000000000001
 31
0.0
  0
LINE
  5
C6
100
AcDbEntity
100
AcDbLine
  8
BLACK
 62
256
370
-1
  6
ByLayer
 10
0.3231
 20
1.2692000000000001
 30
0.0
 11
0.3221
 21
1.2673000000000001
 31
0.0
  0
LINE
  5
C7
100
AcDbEntity
100
AcDbLine
  8
BLACK
 62
256
370
-1
  6
ByLayer
 10
0.3221
 20
1.2673000000000001
 30
0.0
 11
0.3202
 21
1.2663
 31
0.0
  0
LINE
  5
C8
100
AcDbEntity
100
AcDbLine
  8
BLACK
 62
256
370
-1
  6
ByLayer
 10
0.3202
 20
1.2663
 30
0.0
 11
0.3126
 21
1.2663
 31
0.0
  0
LINE
  5
C9
100
AcDbEntity
100
AcDbLine
  8
BLACK
 62
256
370
-1
  6
ByLayer
 10
0.3126
 20
1.2663
 30
0.0
 11
0.3107
 21
1.2673000000000001
 31
0.0
  0
LINE
  5
CA
100
AcDbEntity
100
AcDbLine
  8
BLACK
 62
256
370
-1
  6
ByLayer
 10
0.3107
 20
1.2673000000000001
 30
0.0
 11
0.3098
 21
1.2692000000000001
 31
0.0
  0
LINE
  5
CB
100
AcDbEntity
100
AcDbLine
  8
BLACK
 62
256
370
-1
  6
ByLayer
 10
0.3098
 20
1.2692000000000001
 30
0.0
 11
0.3098
 21
1.2730000000000001
 31
0.0
  0
LINE
  5
CC
100
AcDbEntity
100
AcDbLine
  8
BLACK
 62
256
370
-1
  6
ByLayer
 10
0.3098
 20
1.2730000000000001
 30
0.0
 11
0.3107
 21
1.2749000000000001
 31
0.0
  0
LINE
  5
CD
100
AcDbEntity
100
AcDbLine
  8
BLACK
 62
256
370
-1
  6
ByLayer
 10
0.3107
 20
1.2749000000000001
 30
0.0
 11
0.3126
 21
1.2758
 31
0.0
  0
LINE
  5
CE
100
AcDbEntity
100
AcDbLine
  8
BLACK
 62
256
370
-1
  6
ByLayer
 10
0.3126
 20
1.2758
 30
0.0
 11
0.3145
 21
1.2758
 31
0.0
  0
LINE
  5
CF
100
AcDbEntity
100
AcDbLine
  8
BLACK
 62
256
370
-1
  6
ByLayer
 10
0.3145
 20
1.2758
 30
0.0
 11
0.3164
 21
1.2663
 31
0.0
  0
LINE
  5
D0
100
AcDbEntity
100
AcDbLine
  8
BLACK
 62
256
370
-1
  6
ByLayer
 10
0.3231
 20
1.2844
 30
0.0
 11
0.3098
 21
1.2844
 31
0.0
  0
LINE
  5
D1
100
AcDbEntity
100
AcDbLine
  8
BLACK
 62
256
370
-1
  6
ByLayer
 10
0.3136
 20
1.2844
 30
0.0
 11
0.3117
 21
1.2853000000000001
 31
0.0
  0
LINE
  5
D2
100
AcDbEntity
100
AcDbLine
  8
BLACK
 62
256
370
-1
  6
ByLayer
 10
0.3117
 20
1.2853000000000001
 30
0.0
 11
0.3107
 21
1.2863
 31
0.0
  0
LINE
  5
D3
100
AcDbEntity
100
AcDbLine
  8
BLACK
 62
256
370
-1
  6
ByLayer
 10
0.3107
 20
1.2863
 30
0.0
 11
0.3098
 21
1.2882
 31
0.0
  0
LINE
  5
D4
100
AcDbEntity
100
AcDbLine
  8
BLACK
 62
256
370
-1
  6
ByLayer
 10
0.3098
 20
1.2882
 30
0.0
 11
0.3098
 21
1.2901
 31
0.0
  0
LINE
  5
D5
100
AcDbEntity
100
AcDbLine
  8
BLACK
 62
256
370
-1
  6
ByLayer
 10
0.305
 20
1.3110000000000002
 30
0.0
 11
0.304
 21
1.3120000000000001
 31
0.0
  0
LINE
  5
D6
100
AcDbEntity
100
AcDbLine
  8
BLACK
 62
256
370
-1
  6
ByLayer
 10
0.304
 20
1.3120000000000001
 30
0.0
 11
0.3031
 21
1.3139000000000001
 31
0.0
  0
LINE
  5
D7
100
AcDbEntity
100
AcDbLine
  8
BLACK
 62
256
370
-1
  6
ByLayer
 10
0.3031
 20
1.3139000000000001
 30
0.0
 11
0.3031
 21
1.3186
 31
0.0
  0
LINE
  5
D8
100
AcDbEntity
100
AcDbLine
  8
BLACK
 62
256
370
-1
  6
ByLayer
 10
0.3031
 20
1.3186
 30
0.0
 11
0.304
 21
1.3205
 31
0.0
  0
LINE
  5
D9
100
AcDbEntity
100
AcDbLine
  8
BLACK
 62
256
370
-1
  6
ByLayer
 10
0.304
 20
1.3205
 30
0.0
 11
0.305
 21
1.3215000000000001
 31
0.0
  0
LINE
  5
DA
100
AcDbEntity
100
AcDbLine
  8
BLACK
 62
256
370
-1
  6
ByLayer
 10
0.305
 20
1.3215000000000001
 30
0.0
 11
0.3069
 21
1.3224
 31
0.0
  0
LINE
  5
DB
100
AcDbEntity
100
AcDbLine
  8
BLACK
 62
256
370
-1
  6
ByLayer
 10
0.3069
 20
1.3224
 30
0.0
 11
0.3088
 21
1.3224
 31
0.0
  0
LINE
  5
DC
100
AcDbEntity
100
AcDbLine
  8
BLACK
 62
256
370
-1
  6
ByLayer
 10
0.3088
 20
1.3224
 30
0.0
 11
0.3117
 21
1.3215000000000001
 31
0.0
  0
LINE
  5
DD
100
AcDbEntity
100
AcDbLine
  8
BLACK
 62
256
370
-1
  6
ByLayer
 10
0.3117
 20
1.3215000000000001
 30
0.0
 11
0.3231
 21
1.3101
 31
0.0
  0
LINE
  5
DE
100
AcDbEntity
100
AcDbLine
  8
BLACK
 62
256
370
-1
  6
ByLayer
 10
0.3231
 20
1.3101
 30
0.0
 11
0.3231
 21
1.3224
 31
0.0
  0
LINE
  5
DF
100
AcDbEntity
100
AcDbLine
  8
BLACK
 62
256
370
-1
  6
ByLayer
 10
0.3212
 20
1.331
 30
0.0
 11
0.3221
 21
1.3319000000000001
 31
0.0
  0
LINE
  5
E0
100
AcDbEntity
100
AcDbLine
  8
BLACK
 62
256
370
-1
  6
ByLayer
 10
0.3221
 20
1.3319000000000001
 30
0.0
 11
0.3231
 21
1.331
 31
0.0
  0
LINE
  5
E1
100
AcDbEntity
100
AcDbLine
  8
BLACK
 62
256
370
-1
  6
ByLayer
 10
0.3231
 20
1.331
 30
0.0
 11
0.3221
 21
1.3300000000000001
 31
0.0
  0
LINE
  5
E2
100
AcDbEntity
100
AcDbLine
  8
BLACK
 62
256
370
-1
  6
ByLayer
 10
0.3221
 20
1.3300000000000001
 30
0.0
 11
0.3212
 21
1.331
 31
0.0
  0
LINE
  5
E3
100
AcDbEntity
100
AcDbLine
  8
BLACK
 62
256
370
-1
  6
ByLayer
 10
0.3212
 20
1.331
 30
0.0
 11
0.3231
 21
1.331
 31
0.0
  0
LINE
  5
E4
100
AcDbEntity
100
AcDbLine
  8
BLACK
 62
256
370
-1
  6
ByLayer
 10
0.3031
 20
1.3443000000000001
 30
0.0
 11
0.3031
 21
1.3462000000000001
 31
0.0
  0
LINE
  5
E5
100
AcDbEntity
100
AcDbLine
  8
BLACK
 62
256
370
-1
  6
ByLayer
 10
0.3031
 20
1.3462000000000001
 30
0.0
 11
0.304
 21
1.3481000000000001
 31
0.0
  0
LINE
  5
E6
100
AcDbEntity
100
AcDbLine
  8
BLACK
 62
256
370
-1
  6
ByLayer
 10
0.304
 20
1.3481000000000001
 30
0.0
 11
0.305
 21
1.349
 31
0.0
  0
LINE
  5
E7
100
AcDbEntity
100
AcDbLine
  8
BLACK
 62
256
370
-1
  6
ByLayer
 10
0.305
 20
1.349
 30
0.0
 11
0.3069
 21
1.3500000000000001
 31
0.0
  0
LINE
  5
E8
100
AcDbEntity
100
AcDbLine
  8
BLACK
 62
256
370
-1
  6
ByLayer
 10
0.3069
 20
1.3500000000000001
 30
0.0
 11
0.3107
 21
1.3509
 31
0.0
  0
LINE
  5
E9
100
AcDbEntity
100
AcDbLine
  8
BLACK
 62
256
370
-1
  6
ByLayer
 10
0.3107
 20
1.3509
 30
0.0
 11
0.3155
 21
1.3509
 31
0.0
  0
LINE
  5
EA
100
AcDbEntity
100
AcDbLine
  8
BLACK
 62
256
370
-1
  6
ByLayer
 10
0.3155
 20
1.3509
 30
0.0
 11
0.3193
 21
1.3500000000000001
 31
0.0
  0
LINE
  5
EB
100
AcDbEntity
100
AcDbLine
  8
BLACK
 62
256
370
-1
  6
ByLayer
 10
0.3193
 20
1.3500000000000001
 30
0.0
 11
0.3212
 21
1.349
 31
0.0
  0
LINE
  5
EC
100
AcDbEntity
100
AcDbLine
  8
BLACK
 62
256
370
-1
  6
ByLayer
 10
0.3212
 20
1.349
 30
0.0
 11
0.3221
 21
1.3481000000000001
 31
0.0
  0
LINE
  5
ED
100
AcDbEntity
100
AcDbLine
  8
BLACK
 62
256
370
-1
  6
ByLayer
 10
0.3221
 20
1.3481000000000001
 30
0.0
 11
0.3231
 21
1.3462000000000001
 31
0.0
  0
LINE
  5
EE
100
AcDbEntity
100
AcDbLine
  8
BLACK
 62
256
370
-1
  6
ByLayer
 10
0.3231
 20
1.3462000000000001
 30
0.0
 11
0.3231
 21
1.3443000000000001
 31
0.0
  0
LINE
  5
EF
100
AcDbEntity
100
AcDbLine
  8
BLACK
 62
256
370
-1
  6
ByLayer
 10
0.3231
 20
1.3443000000000001
 30
0.0
 11
0.3221
 21
1.3424
 31
0.0
  0
LINE
  5
F0
100
AcDbEntity
100
AcDbLine
  8
BLACK
 62
256
370
-1
  6
ByLayer
 10
0.3221
 20
1.3424
 30
0.0
 11
0.3212
 21
1.3414000000000001
 31
0.0
  0
LINE
  5
F1
100
AcDbEntity
100
AcDbLine
  8
BLACK
 62
256
370
-1
  6
ByLayer
 10
0.3212
 20
1.3414000000000001
 30
0.0
 11
0.3193
 21
1.3405
 31
0.0
  0
LINE
  5
F2
100
AcDbEntity
100
AcDbLine
  8
BLACK
 62
256
370
-1
  6
ByLayer
 10
0.3193
 20
1.3405
 30
0.0
 11
0.3155
 21
1.3395000000000001
 31
0.0
  0
LINE
  5
F3
100
AcDbEntity
100
AcDbLine
  8
BLACK
 62
256
370
-1
  6
ByLayer
 10
0.3155
 20
1.3395000000000001
 30
0.0
 11
0.3107
 21
1.3395000000000001
 31
0.0
  0
LINE
  5
F4
100
AcDbEntity
100
AcDbLine
  8
BLACK
 62
256
370
-1
  6
ByLayer
 10
0.3107
 20
1.3395000000000001
 30
0.0
 11
0.3069
 21
1.3405
 31
0.0
  0
LINE
  5
F5
100
AcDbEntity
100
AcDbLine
  8
BLACK
 62
256
370
-1
  6
ByLayer
 10
0.3069
 20
1.3405
 30
0.0
 11
0.305
 21
1.3414000000000001
 31
0.0
  0
LINE
  5
F6
100
AcDbEntity
100
AcDbLine
  8
BLACK
 62
256
370
-1
  6
ByLayer
 10
0.305
 20
1.3414000000000001
 30
0.0
 11
0.304
 21
1.3424
 31
0.0
  0
LINE
  5
F7
100
AcDbEntity
100
AcDbLine
  8
BLACK
 62
256
370
-1
  6
ByLayer
 10
0.304
 20
1.3424
 30
0.0
 11
0.3031
 21
1.3443000000000001
 31
0.0
  0
LINE
  5
F8
100
AcDbEntity
100
AcDbLine
  8
BLACK
 62
256
370
-1
  6
ByLayer
 10
0.0
 20
1.5
 30
0.0
 11
0.0
 21
0.0
 31
0.0
  0
LINE
  5
F9
100
AcDbEntity
100
AcDbLine
  8
BLACK
 62
256
370
-1
  6
ByLayer
 10
0.75
 20
1.5
 30
0.0
 11
0.0
 21
1.5
 31
0.0
  0
LINE
  5
FA
100
AcDbEntity
100
AcDbLine
  8
BLACK
 62
256
370
-1
  6
ByLayer
 10
0.75
 20
0.0
 30
0.0
 11
0.75
 21
1.5
 31
0.0
  0
LINE
  5
FB
100
AcDbEntity
100
AcDbLine
  8
BLACK
 62
256
370
-1
  6
ByLayer
 10
0.0
 20
0.0
 30
0.0
 11
0.75
 21
0.0
 31
0.0
  0
ARC
  5
FC
100
AcDbEntity
  8
BLACK
 62
256
370
-1
  6
ByLayer
100
AcDbCircle
 10
0.375
 20
1.0840000000000001
 30
0.0
 40
0.05
100
AcDbArc
 50
90.0
 51
180.0
  0
ARC
  5
FD
100
AcDbEntity
  8
BLACK
 62
256
370
-1
  6
ByLayer
100
AcDbCircle
 10
0.375
 20
1.0840000000000001
 30
0.0
 40
0.05
100
AcDbArc
 50
0.0
 51
90.0
  0
LINE
  5
FE
100
AcDbEntity
100
AcDbLine
  8
BLACK
 62
256
370
-1
  6
ByLayer
 10
0.475
 20
1.0840000000000001
 30
0.0
 11
0.475
 21
1.484
 31
0.0
  0
LINE
  5
FF
100
AcDbEntity
100
AcDbLine
  8
BLACK
 62
256
370
-1
  6
ByLayer
 10
0.475
 20
1.484
 30
0.0
 11
0.275
 21
1.484
 31
0.0
  0
LINE
  5
100
100
AcDbEntity
100
AcDbLine
  8
BLACK
 62
256
370
-1
  6
ByLayer
 10
0.275
 20
1.484
 30
0.0
 11
0.275
 21
1.0840000000000001
 31
0.0
  0
LINE
  5
101
100
AcDbEntity
100
AcDbLine
  8
BLACK
 62
256
370
-1
  6
ByLayer
 10
0.275
 20
1.0840000000000001
 30
0.0
 11
0.475
 21
1.0840000000000001
 31
0.0
  0
LINE
  5
102
100
AcDbEntity
100
AcDbLine
  8
BLACK
 62
256
370
-1
  6
ByLayer
 10
0.73
 20
0.45
 30
0.0
 11
0.63
 21
0.45
 31
0.0
  0
LINE
  5
103
100
AcDbEntity
100
AcDbLine
  8
BLACK
 62
256
370
-1
  6
ByLayer
 10
0.63
 20
0.45
 30
0.0
 11
0.63
 21
0.65
 31
0.0
  0
LINE
  5
104
100
AcDbEntity
100
AcDbLine
  8
BLACK
 62
256
370
-1
  6
ByLayer
 10
0.63
 20
0.65
 30
0.0
 11
0.73
 21
0.65
 31
0.0
  0
LINE
  5
105
100
AcDbEntity
100
AcDbLine
  8
BLACK
 62
256
370
-1
  6
ByLayer
 10
0.73
 20
0.65
 30
0.0
 11
0.73
 21
0.45
 31
0.0
  0
LINE
  5
106
100
AcDbEntity
100
AcDbLine
  8
BLACK
 62
256
370
-1
  6
ByLayer
 10
0.73
 20
0.75
 30
0.0
 11
0.63
 21
0.75
 31
0.0
  0
LINE
  5
107
100
AcDbEntity
100
AcDbLine
  8
BLACK
 62
256
370
-1
  6
ByLayer
 10
0.63
 20
0.75
 30
0.0
 11
0.63
 21
0.9500000000000001
 31
0.0
  0
LINE
  5
108
100
AcDbEntity
100
AcDbLine
  8
BLACK
 62
256
370
-1
  6
ByLayer
 10
0.63
 20
0.9500000000000001
 30
0.0
 11
0.73
 21
0.9500000000000001
 31
0.0
  0
LINE
  5
109
100
AcDbEntity
100
AcDbLine
  8
BLACK
 62
256
370
-1
  6
ByLayer
 10
0.73
 20
0.9500000000000001
 30
0.0
 11
0.73
 21
0.75
 31
0.0
  0
LINE
  5
10A
100
AcDbEntity
100
AcDbLine
  8
BLACK
 62
256
370
-1
  6
ByLayer
 10
0.73
 20
1.05
 30
0.0
 11
0.63
 21
1.05
 31
0.0
  0
LINE
  5
10B
100
AcDbEntity
100
AcDbLine
  8
BLACK
 62
256
370
-1
  6
ByLayer
 10
0.63
 20
1.05
 30
0.0
 11
0.63
 21
1.25
 31
0.0
  0
LINE
  5
10C
100
AcDbEntity
100
AcDbLine
  8
BLACK
 62
256
370
-1
  6
ByLayer
 10
0.63
 20
1.25
 30
0.0
 11
0.73
 21
1.25
 31
0.0
  0
LINE
  5
10D
100
AcDbEntity
100
AcDbLine
  8
BLACK
 62
256
370
-1
  6
ByLayer
 10
0.73
 20
1.25
 30
0.0
 11
0.73
 21
1.05
 31
0.0
  0
CIRCLE
  5
10E
100
AcDbEntity
100
AcDbCircle
  8
BLACK
 62
256
370
-1
  6
ByLayer
 10
0.055
 20
0.545
 30
0.0
 40
0.005
  0
LINE
  5
10F
100
AcDbEntity
100
AcDbLine
  8
BLACK
 62
256
370
-1
  6
ByLayer
 10
0.055
 20
0.5
 30
0.0
 11
0.055
 21
0.54
 31
0.0
  0
LINE
  5
110
100
AcDbEntity
100
AcDbLine
  8
BLACK
 62
256
370
-1
  6
ByLayer
 10
0.055
 20
0.54
 30
0.0
 11
0.115
 21
0.54
 31
0.0
  0
LINE
  5
111
100
AcDbEntity
100
AcDbLine
  8
BLACK
 62
256
370
-1
  6
ByLayer
 10
0.115
 20
0.54
 30
0.0
 11
0.115
 21
0.5
 31
0.0
  0
LINE
  5
112
100
AcDbEntity
100
AcDbLine
  8
BLACK
 62
256
370
-1
  6
ByLayer
 10
0.115
 20
0.46
 30
0.0
 11
0.115
 21
0.42
 31
0.0
  0
LINE
  5
113
100
AcDbEntity
100
AcDbLine
  8
BLACK
 62
256
370
-1
  6
ByLayer
 10
0.115
 20
0.42
 30
0.0
 11
0.055
 21
0.42
 31
0.0
  0
LINE
  5
114
100
AcDbEntity
100
AcDbLine
  8
BLACK
 62
256
370
-1
  6
ByLayer
 10
0.055
 20
0.42
 30
0.0
 11
0.055
 21
0.46
 31
0.0
  0
CIRCLE
  5
115
100
AcDbEntity
100
AcDbCircle
  8
BLACK
 62
256
370
-1
  6
ByLayer
 10
0.055
 20
1.2150000000000001
 30
0.0
 40
0.005
  0
LINE
  5
116
100
AcDbEntity
100
AcDbLine
  8
BLACK
 62
256
370
-1
  6
ByLayer
 10
0.055
 20
1.1700000000000002
 30
0.0
 11
0.055
 21
1.21
 31
0.0
  0
LINE
  5
117
100
AcDbEntity
100
AcDbLine
  8
BLACK
 62
256
370
-1
  6
ByLayer
 10
0.055
 20
1.21
 30
0.0
 11
0.115
 21
1.21
 31
0.0
  0
LINE
  5
118
100
AcDbEntity
100
AcDbLine
  8
BLACK
 62
256
370
-1
  6
ByLayer
 10
0.115
 20
1.21
 30
0.0
 11
0.115
 21
1.1700000000000002
 31
0.0
  0
LINE
  5
119
100
AcDbEntity
100
AcDbLine
  8
BLACK
 62
256
370
-1
  6
ByLayer
 10
0.115
 20
1.1300000000000001
 30
0.0
 11
0.115
 21
1.0900000000000001
 31
0.0
  0
LINE
  5
11A
100
AcDbEntity
100
AcDbLine
  8
BLACK
 62
256
370
-1
  6
ByLayer
 10
0.115
 20
1.0900000000000001
 30
0.0
 11
0.055
 21
1.0900000000000001
 31
0.0
  0
LINE
  5
11B
100
AcDbEntity
100
AcDbLine
  8
BLACK
 62
256
370
-1
  6
ByLayer
 10
0.055
 20
1.0900000000000001
 30
0.0
 11
0.055
 21
1.1300000000000001
 31
0.0
  0
CIRCLE
  5
11C
100
AcDbEntity
100
AcDbCircle
  8
BLACK
 62
256
370
-1
  6
ByLayer
 10
0.16
 20
0.9800000000000001
 30
0.0
 40
0.005
  0
LINE
  5
11D
100
AcDbEntity
100
AcDbLine
  8
BLACK
 62
256
370
-1
  6
ByLayer
 10
0.205
 20
0.9800000000000001
 30
0.0
 11
0.165
 21
0.9800000000000001
 31
0.0
  0
LINE
  5
11E
100
AcDbEntity
100
AcDbLine
  8
BLACK
 62
256
370
-1
  6
ByLayer
 10
0.165
 20
0.9800000000000001
 30
0.0
 11
0.165
 21
1.04
 31
0.0
  0
LINE
  5
11F
100
AcDbEntity
100
AcDbLine
  8
BLACK
 62
256
370
-1
  6
ByLayer
 10
0.165
 20
1.04
 30
0.0
 11
0.205
 21
1.04
 31
0.0
  0
LINE
  5
120
100
AcDbEntity
100
AcDbLine
  8
BLACK
 62
256
370
-1
  6
ByLayer
 10
0.245
 20
1.04
 30
0.0
 11
0.285
 21
1.04
 31
0.0
  0
LINE
  5
121
100
AcDbEntity
100
AcDbLine
  8
BLACK
 62
256
370
-1
  6
ByLayer
 10
0.285
 20
1.04
 30
0.0
 11
0.285
 21
0.9800000000000001
 31
0.0
  0
LINE
  5
122
100
AcDbEntity
100
AcDbLine
  8
BLACK
 62
256
370
-1
  6
ByLayer
 10
0.285
 20
0.9800000000000001
 30
0.0
 11
0.245
 21
0.9800000000000001
 31
0.0
  0
CIRCLE
  5
123
100
AcDbEntity
100
AcDbCircle
  8
BLACK
 62
256
370
-1
  6
ByLayer
 10
0.46
 20
0.9800000000000001
 30
0.0
 40
0.005
  0
LINE
  5
124
100
AcDbEntity
100
AcDbLine
  8
BLACK
 62
256
370
-1
  6
ByLayer
 10
0.505
 20
0.9800000000000001
 30
0.0
 11
0.465
 21
0.9800000000000001
 31
0.0
  0
LINE
  5
125
100
AcDbEntity
100
AcDbLine
  8
BLACK
 62
256
370
-1
  6
ByLayer
 10
0.465
 20
0.9800000000000001
 30
0.0
 11
0.465
 21
1.04
 31
0.0
  0
LINE
  5
126
100
AcDbEntity
100
AcDbLine
  8
BLACK
 62
256
370
-1
  6
ByLayer
 10
0.465
 20
1.04
 30
0.0
 11
0.505
 21
1.04
 31
0.0
  0
LINE
  5
127
100
AcDbEntity
100
AcDbLine
  8
BLACK
 62
256
370
-1
  6
ByLayer
 10
0.545
 20
1.04
 30
0.0
 11
0.585
 21
1.04
 31
0.0
  0
LINE
  5
128
100
AcDbEntity
100
AcDbLine
  8
BLACK
 62
256
370
-1
  6
ByLayer
 10
0.585
 20
1.04
 30
0.0
 11
0.585
 21
0.9800000000000001
 31
0.0
  0
LINE
  5
129
100
AcDbEntity
100
AcDbLine
  8
BLACK
 62
256
370
-1
  6
ByLayer
 10
0.585
 20
0.9800000000000001
 30
0.0
 11
0.545
 21
0.9800000000000001
 31
0.0
  0
CIRCLE
  5
12A
100
AcDbEntity
100
AcDbCircle
  8
BLACK
 62
256
370
-1
  6
ByLayer
 10
0.375
 20
0.606
 30
0.0
 40
0.225
  0
CIRCLE
  5
12B
100
AcDbEntity
100
AcDbCircle
  8
BLACK
 62
256
370
-1
  6
ByLayer
 10
0.115
 20
0.7150000000000001
 30
0.0
 40
0.005
  0
LINE
  5
12C
100
AcDbEntity
100
AcDbLine
  8
BLACK
 62
256
370
-1
  6
ByLayer
 10
0.115
 20
0.76
 30
0.0
 11
0.115
 21
0.7200000000000001
 31
0.0
  0
LINE
  5
12D
100
AcDbEntity
100
AcDbLine
  8
BLACK
 62
256
370
-1
  6
ByLayer
 10
0.115
 20
0.7200000000000001
 30
0.0
 11
0.055
 21
0.7200000000000001
 31
0.0
  0
LINE
  5
12E
100
AcDbEntity
100
AcDbLine
  8
BLACK
 62
256
370
-1
  6
ByLayer
 10
0.055
 20
0.7200000000000001
 30
0.0
 11
0.055
 21
0.76
 31
0.0
  0
LINE
  5
12F
100
AcDbEntity
100
AcDbLine
  8
BLACK
 62
256
370
-1
  6
ByLayer
 10
0.055
 20
0.8
 30
0.0
 11
0.055
 21
0.8400000000000001
 31
0.0
  0
LINE
  5
130
100
AcDbEntity
100
AcDbLine
  8
BLACK
 62
256
370
-1
  6
ByLayer
 10
0.055
 20
0.8400000000000001
 30
0.0
 11
0.115
 21
0.8400000000000001
 31
0.0
  0
LINE
  5
131
100
AcDbEntity
100
AcDbLine
  8
BLACK
 62
256
370
-1
  6
ByLayer
 10
0.115
 20
0.8400000000000001
 30
0.0
 11
0.115
 21
0.8
 31
0.0
  0
CIRCLE
  5
132
100
AcDbEntity
100
AcDbCircle
  8
BLACK
 62
256
370
-1
  6
ByLayer
 10
0.115
 20
0.925
 30
0.0
 40
0.005
  0
LINE
  5
133
100
AcDbEntity
100
AcDbLine
  8
BLACK
 62
256
370
-1
  6
ByLayer
 10
0.115
 20
0.9700000000000001
 30
0.0
 11
0.115
 21
0.93
 31
0.0
  0
LINE
  5
134
100
AcDbEntity
100
AcDbLine
  8
BLACK
 62
256
370
-1
  6
ByLayer
 10
0.115
 20
0.93
 30
0.0
 11
0.055
 21
0.93
 31
0.0
  0
LINE
  5
135
100
AcDbEntity
100
AcDbLine
  8
BLACK
 62
256
370
-1
  6
ByLayer
 10
0.055
 20
0.93
 30
0.0
 11
0.055
 21
0.9700000000000001
 31
0.0
  0
LINE
  5
136
100
AcDbEntity
100
AcDbLine
  8
BLACK
 62
256
370
-1
  6
ByLayer
 10
0.055
 20
1.01
 30
0.0
 11
0.055
 21
1.05
 31
0.0
  0
LINE
  5
137
100
AcDbEntity
100
AcDbLine
  8
BLACK
 62
256
370
-1
  6
ByLayer
 10
0.055
 20
1.05
 30
0.0
 11
0.115
 21
1.05
 31
0.0
  0
LINE
  5
138
100
AcDbEntity
100
AcDbLine
  8
BLACK
 62
256
370
-1
  6
ByLayer
 10
0.115
 20
1.05
 30
0.0
 11
0.115
 21
1.01
 31
0.0
  0
CIRCLE
  5
139
100
AcDbEntity
100
AcDbCircle
  8
BLACK
 62
256
370
-1
  6
ByLayer
 10
0.31
 20
0.89
 30
0.0
 40
0.005
  0
LINE
  5
13A
100
AcDbEntity
100
AcDbLine
  8
BLACK
 62
256
370
-1
  6
ByLayer
 10
0.355
 20
0.89
 30
0.0
 11
0.315
 21
0.89
 31
0.0
  0
LINE
  5
13B
100
AcDbEntity
100
AcDbLine
  8
BLACK
 62
256
370
-1
  6
ByLayer
 10
0.315
 20
0.89
 30
0.0
 11
0.315
 21
0.9500000000000001
 31
0.0
  0
LINE
  5
13C
100
AcDbEntity
100
AcDbLine
  8
BLACK
 62
256
370
-1
  6
ByLayer
 10
0.315
 20
0.9500000000000001
 30
0.0
 11
0.355
 21
0.9500000000000001
 31
0.0
  0
LINE
  5
13D
100
AcDbEntity
100
AcDbLine
  8
BLACK
 62
256
370
-1
  6
ByLayer
 10
0.395
 20
0.9500000000000001
 30
0.0
 11
0.435
 21
0.9500000000000001
 31
0.0
  0
LINE
  5
13E
100
AcDbEntity
100
AcDbLine
  8
BLACK
 62
256
370
-1
  6
ByLayer
 10
0.435
 20
0.9500000000000001
 30
0.0
 11
0.435
 21
0.89
 31
0.0
  0
LINE
  5
13F
100
AcDbEntity
100
AcDbLine
  8
BLACK
 62
256
370
-1
  6
ByLayer
 10
0.435
 20
0.89
 30
0.0
 11
0.395
 21
0.89
 31
0.0
  0
LINE
  5
140
100
AcDbEntity
100
AcDbLine
  8
BLACK
 62
256
370
-1
  6
ByLayer
 10
0.7
 20
0.016
 30
0.0
 11
0.7
 21
0.366
 31
0.0
  0
LINE
  5
141
100
AcDbEntity
100
AcDbLine
  8
BLACK
 62
256
370
-1
  6
ByLayer
 10
0.7
 20
0.366
 30
0.0
 11
0.05
 21
0.366
 31
0.0
  0
LINE
  5
142
100
AcDbEntity
100
AcDbLine
  8
BLACK
 62
256
370
-1
  6
ByLayer
 10
0.05
 20
0.366
 30
0.0
 11
0.05
 21
0.016
 31
0.0
  0
LINE
  5
143
100
AcDbEntity
100
AcDbLine
  8
BLACK
 62
256
370
-1
  6
ByLayer
 10
0.7
 20
0.016
 30
0.0
 11
0.05
 21
0.016
 31
0.0
  0
LINE
  5
144
100
AcDbEntity
100
AcDbLine
  8
BLACK
 62
256
370
-1
  6
ByLayer
 10
0.3445
 20
1.0578000000000001
 30
0.0
 11
0.3445
 21
1.0254000000000001
 31
0.0
  0
LINE
  5
145
100
AcDbEntity
100
AcDbLine
  8
BLACK
 62
256
370
-1
  6
ByLayer
 10
0.3445
 20
1.0254000000000001
 30
0.0
 11
0.3464
 21
1.0216000000000001
 31
0.0
  0
LINE
  5
146
100
AcDbEntity
100
AcDbLine
  8
BLACK
 62
256
370
-1
  6
ByLayer
 10
0.3464
 20
1.0216000000000001
 30
0.0
 11
0.3483
 21
1.0197000000000001
 31
0.0
  0
LINE
  5
147
100
AcDbEntity
100
AcDbLine
  8
BLACK
 62
256
370
-1
  6
ByLayer
 10
0.3483
 20
1.0197000000000001
 30
0.0
 11
0.3521
 21
1.0178
 31
0.0
  0
LINE
  5
148
100
AcDbEntity
100
AcDbLine
  8
BLACK
 62
256
370
-1
  6
ByLayer
 10
0.3521
 20
1.0178
 30
0.0
 11
0.3598
 21
1.0178
 31
0.0
  0
LINE
  5
149
100
AcDbEntity
100
AcDbLine
  8
BLACK
 62
256
370
-1
  6
ByLayer
 10
0.3598
 20
1.0178
 30
0.0
 11
0.3636
 21
1.0197000000000001
 31
0.0
  0
LINE
  5
14A
100
AcDbEntity
100
AcDbLine
  8
BLACK
 62
256
370
-1
  6
ByLayer
 10
0.3636
 20
1.0197000000000001
 30
0.0
 11
0.3655
 21
1.0216000000000001
 31
0.0
  0
LINE
  5
14B
100
AcDbEntity
100
AcDbLine
  8
BLACK
 62
256
370
-1
  6
ByLayer
 10
0.3655
 20
1.0216000000000001
 30
0.0
 11
0.3674
 21
1.0254000000000001
 31
0.0
  0
LINE
  5
14C
100
AcDbEntity
100
AcDbLine
  8
BLACK
 62
256
370
-1
  6
ByLayer
 10
0.3674
 20
1.0254000000000001
 30
0.0
 11
0.3674
 21
1.0578000000000001
 31
0.0
  0
LINE
  5
14D
100
AcDbEntity
100
AcDbLine
  8
BLACK
 62
256
370
-1
  6
ByLayer
 10
0.4074
 20
1.0178
 30
0.0
 11
0.3845
 21
1.0178
 31
0.0
  0
LINE
  5
14E
100
AcDbEntity
100
AcDbLine
  8
BLACK
 62
256
370
-1
  6
ByLayer
 10
0.3959
 20
1.0178
 30
0.0
 11
0.3959
 21
1.0578000000000001
 31
0.0
  0
LINE
  5
14F
100
AcDbEntity
100
AcDbLine
  8
BLACK
 62
256
370
-1
  6
ByLayer
 10
0.3959
 20
1.0578000000000001
 30
0.0
 11
0.3921
 21
1.0521
 31
0.0
  0
LINE
  5
150
100
AcDbEntity
100
AcDbLine
  8
BLACK
 62
256
370
-1
  6
ByLayer
 10
0.3921
 20
1.0521
 30
0.0
 11
0.3883
 21
1.0483
 31
0.0
  0
LINE
  5
151
100
AcDbEntity
100
AcDbLine
  8
BLACK
 62
256
370
-1
  6
ByLayer
 10
0.3883
 20
1.0483
 30
0.0
 11
0.3845
 21
1.0464
 31
0.0
  0
LINE
  5
152
100
AcDbEntity
100
AcDbLine
  8
BLACK
 62
256
370
-1
  6
ByLayer
 10
0.3512
 20
1.2238
 30
0.0
 11
0.3512
 21
1.2315
 31
0.0
  0
LINE
  5
153
100
AcDbEntity
100
AcDbLine
  8
BLACK
 62
256
370
-1
  6
ByLayer
 10
0.3512
 20
1.2315
 30
0.0
 11
0.3531
 21
1.2353000000000001
 31
0.0
  0
LINE
  5
154
100
AcDbEntity
100
AcDbLine
  8
BLACK
 62
256
370
-1
  6
ByLayer
 10
0.3531
 20
1.2353000000000001
 30
0.0
 11
0.3569
 21
1.2391000000000001
 31
0.0
  0
LINE
  5
155
100
AcDbEntity
100
AcDbLine
  8
BLACK
 62
256
370
-1
  6
ByLayer
 10
0.3569
 20
1.2391000000000001
 30
0.0
 11
0.3645
 21
1.2410000000000001
 31
0.0
  0
LINE
  5
156
100
AcDbEntity
100
AcDbLine
  8
BLACK
 62
256
370
-1
  6
ByLayer
 10
0.3645
 20
1.2410000000000001
 30
0.0
 11
0.3779
 21
1.2410000000000001
 31
0.0
  0
LINE
  5
157
100
AcDbEntity
100
AcDbLine
  8
BLACK
 62
256
370
-1
  6
ByLayer
 10
0.3779
 20
1.2410000000000001
 30
0.0
 11
0.3855
 21
1.2391000000000001
 31
0.0
  0
LINE
  5
158
100
AcDbEntity
100
AcDbLine
  8
BLACK
 62
256
370
-1
  6
ByLayer
 10
0.3855
 20
1.2391000000000001
 30
0.0
 11
0.3893
 21
1.2353000000000001
 31
0.0
  0
LINE
  5
159
100
AcDbEntity
100
AcDbLine
  8
BLACK
 62
256
370
-1
  6
ByLayer
 10
0.3893
 20
1.2353000000000001
 30
0.0
 11
0.3912
 21
1.2315
 31
0.0
  0
LINE
  5
15A
100
AcDbEntity
100
AcDbLine
  8
BLACK
 62
256
370
-1
  6
ByLayer
 10
0.3912
 20
1.2315
 30
0.0
 11
0.3912
 21
1.2238
 31
0.0
  0
LINE
  5
15B
100
AcDbEntity
100
AcDbLine
  8
BLACK
 62
256
370
-1
  6
ByLayer
 10
0.3912
 20
1.2238
 30
0.0
 11
0.3893
 21
1.22
 31
0.0
  0
LINE
  5
15C
100
AcDbEntity
100
AcDbLine
  8
BLACK
 62
256
370
-1
  6
ByLayer
 10
0.3893
 20
1.22
 30
0.0
 11
0.3855
 21
1.2161999999999999
 31
0.0
  0
LINE
  5
15D
100
AcDbEntity
100
AcDbLine
  8
BLACK
 62
256
370
-1
  6
ByLayer
 10
0.3855
 20
1.2161999999999999
 30
0.0
 11
0.3779
 21
1.2143000000000002
 31
0.0
  0
LINE
  5
15E
100
AcDbEntity
100
AcDbLine
  8
BLACK
 62
256
370
-1
  6
ByLayer
 10
0.3779
 20
1.2143000000000002
 30
0.0
 11
0.3645
 21
1.2143000000000002
 31
0.0
  0
LINE
  5
15F
100
AcDbEntity
100
AcDbLine
  8
BLACK
 62
256
370
-1
  6
ByLayer
 10
0.3645
 20
1.2143000000000002
 30
0.0
 11
0.3569
 21
1.2161999999999999
 31
0.0
  0
LINE
  5
160
100
AcDbEntity
100
AcDbLine
  8
BLACK
 62
256
370
-1
  6
ByLayer
 10
0.3569
 20
1.2161999999999999
 30
0.0
 11
0.3531
 21
1.22
 31
0.0
  0
LINE
  5
161
100
AcDbEntity
100
AcDbLine
  8
BLACK
 62
256
370
-1
  6
ByLayer
 10
0.3531
 20
1.22
 30
0.0
 11
0.3512
 21
1.2238
 31
0.0
  0
LINE
  5
162
100
AcDbEntity
100
AcDbLine
  8
BLACK
 62
256
370
-1
  6
ByLayer
 10
0.3912
 20
1.2581
 30
0.0
 11
0.3512
 21
1.2581
 31
0.0
  0
LINE
  5
163
100
AcDbEntity
100
AcDbLine
  8
BLACK
 62
256
370
-1
  6
ByLayer
 10
0.3512
 20
1.2581
 30
0.0
 11
0.3512
 21
1.2734000000000001
 31
0.0
  0
LINE
  5
164
100
AcDbEntity
100
AcDbLine
  8
BLACK
 62
256
370
-1
  6
ByLayer
 10
0.3512
 20
1.2734000000000001
 30
0.0
 11
0.3531
 21
1.2772000000000001
 31
0.0
  0
LINE
  5
165
100
AcDbEntity
100
AcDbLine
  8
BLACK
 62
256
370
-1
  6
ByLayer
 10
0.3531
 20
1.2772000000000001
 30
0.0
 11
0.355
 21
1.2791000000000001
 31
0.0
  0
LINE
  5
166
100
AcDbEntity
100
AcDbLine
  8
BLACK
 62
256
370
-1
  6
ByLayer
 10
0.355
 20
1.2791000000000001
 30
0.0
 11
0.3588
 21
1.2810000000000001
 31
0.0
  0
LINE
  5
167
100
AcDbEntity
100
AcDbLine
  8
BLACK
 62
256
370
-1
  6
ByLayer
 10
0.3588
 20
1.2810000000000001
 30
0.0
 11
0.3645
 21
1.2810000000000001
 31
0.0
  0
LINE
  5
168
100
AcDbEntity
100
AcDbLine
  8
BLACK
 62
256
370
-1
  6
ByLayer
 10
0.3645
 20
1.2810000000000001
 30
0.0
 11
0.3683
 21
1.2791000000000001
 31
0.0
  0
LINE
  5
169
100
AcDbEntity
100
AcDbLine
  8
BLACK
 62
256
370
-1
  6
ByLayer
 10
0.3683
 20
1.2791000000000001
 30
0.0
 11
0.3702
 21
1.2772000000000001
 31
0.0
  0
LINE
  5
16A
100
AcDbEntity
100
AcDbLine
  8
BLACK
 62
256
370
-1
  6
ByLayer
 10
0.3702
 20
1.2772000000000001
 30
0.0
 11
0.3721
 21
1.2734000000000001
 31
0.0
  0
LINE
  5
16B
100
AcDbEntity
100
AcDbLine
  8
BLACK
 62
256
370
-1
  6
ByLayer
 10
0.3721
 20
1.2734000000000001
 30
0.0
 11
0.3721
 21
1.2581
 31
0.0
  0
LINE
  5
16C
100
AcDbEntity
100
AcDbLine
  8
BLACK
 62
256
370
-1
  6
ByLayer
 10
0.3512
 20
1.2924
 30
0.0
 11
0.3512
 21
1.3153000000000001
 31
0.0
  0
LINE
  5
16D
100
AcDbEntity
100
AcDbLine
  8
BLACK
 62
256
370
-1
  6
ByLayer
 10
0.3912
 20
1.3038000000000001
 30
0.0
 11
0.3512
 21
1.3038000000000001
 31
0.0
  0
LINE
  5
16E
100
AcDbEntity
100
AcDbLine
  8
BLACK
 62
256
370
-1
  6
ByLayer
 10
0.3912
 20
1.3496000000000001
 30
0.0
 11
0.3912
 21
1.3267
 31
0.0
  0
LINE
  5
16F
100
AcDbEntity
100
AcDbLine
  8
BLACK
 62
256
370
-1
  6
ByLayer
 10
0.3912
 20
1.3381000000000001
 30
0.0
 11
0.3512
 21
1.3381000000000001
 31
0.0
  0
LINE
  5
170
100
AcDbEntity
100
AcDbLine
  8
BLACK
 62
256
370
-1
  6
ByLayer
 10
0.3512
 20
1.3381000000000001
 30
0.0
 11
0.3569
 21
1.3343
 31
0.0
  0
LINE
  5
171
100
AcDbEntity
100
AcDbLine
  8
BLACK
 62
256
370
-1
  6
ByLayer
 10
0.3569
 20
1.3343
 30
0.0
 11
0.3607
 21
1.3305
 31
0.0
  0
LINE
  5
172
100
AcDbEntity
100
AcDbLine
  8
BLACK
 62
256
370
-1
  6
ByLayer
 10
0.3607
 20
1.3305
 30
0.0
 11
0.3626
 21
1.3267
 31
0.0
  0
LINE
  5
173
100
AcDbEntity
100
AcDbLine
  8
BLACK
 62
256
370
-1
  6
ByLayer
 10
0.3512
 20
1.3743000000000001
 30
0.0
 11
0.3512
 21
1.3782000000000001
 31
0.0
  0
LINE
  5
174
100
AcDbEntity
100
AcDbLine
  8
BLACK
 62
256
370
-1
  6
ByLayer
 10
0.3512
 20
1.3782000000000001
 30
0.0
 11
0.3531
 21
1.3820000000000001
 31
0.0
  0
LINE
  5
175
100
AcDbEntity
100
AcDbLine
  8
BLACK
 62
256
370
-1
  6
ByLayer
 10
0.3531
 20
1.3820000000000001
 30
0.0
 11
0.355
 21
1.3839000000000001
 31
0.0
  0
LINE
  5
176
100
AcDbEntity
100
AcDbLine
  8
BLACK
 62
256
370
-1
  6
ByLayer
 10
0.355
 20
1.3839000000000001
 30
0.0
 11
0.3588
 21
1.3858000000000001
 31
0.0
  0
LINE
  5
177
100
AcDbEntity
100
AcDbLine
  8
BLACK
 62
256
370
-1
  6
ByLayer
 10
0.3588
 20
1.3858000000000001
 30
0.0
 11
0.3664
 21
1.3877000000000002
 31
0.0
  0
LINE
  5
178
100
AcDbEntity
100
AcDbLine
  8
BLACK
 62
256
370
-1
  6
ByLayer
 10
0.3664
 20
1.3877000000000002
 30
0.0
 11
0.376
 21
1.3877000000000002
 31
0.0
  0
LINE
  5
179
100
AcDbEntity
100
AcDbLine
  8
BLACK
 62
256
370
-1
  6
ByLayer
 10
0.376
 20
1.3877000000000002
 30
0.0
 11
0.3836
 21
1.3858000000000001
 31
0.0
  0
LINE
  5
17A
100
AcDbEntity
100
AcDbLine
  8
BLACK
 62
256
370
-1
  6
ByLayer
 10
0.3836
 20
1.3858000000000001
 30
0.0
 11
0.3874
 21
1.3839000000000001
 31
0.0
  0
LINE
  5
17B
100
AcDbEntity
100
AcDbLine
  8
BLACK
 62
256
370
-1
  6
ByLayer
 10
0.3874
 20
1.3839000000000001
 30
0.0
 11
0.3893
 21
1.3820000000000001
 31
0.0
  0
LINE
  5
17C
100
AcDbEntity
100
AcDbLine
  8
BLACK
 62
256
370
-1
  6
ByLayer
 10
0.3893
 20
1.3820000000000001
 30
0.0
 11
0.3912
 21
1.3782000000000001
 31
0.0
  0
LINE
  5
17D
100
AcDbEntity
100
AcDbLine
  8
BLACK
 62
256
370
-1
  6
ByLayer
 10
0.3912
 20
1.3782000000000001
 30
0.0
 11
0.3912
 21
1.3743000000000001
 31
0.0
  0
LINE
  5
17E
100
AcDbEntity
100
AcDbLine
  8
BLACK
 62
256
370
-1
  6
ByLayer
 10
0.3912
 20
1.3743000000000001
 30
0.0
 11
0.3893
 21
1.3705000000000001
 31
0.0
  0
LINE
  5
17F
100
AcDbEntity
100
AcDbLine
  8
BLACK
 62
256
370
-1
  6
ByLayer
 10
0.3893
 20
1.3705000000000001
 30
0.0
 11
0.3874
 21
1.3686
 31
0.0
  0
LINE
  5
180
100
AcDbEntity
100
AcDbLine
  8
BLACK
 62
256
370
-1
  6
ByLayer
 10
0.3874
 20
1.3686
 30
0.0
 11
0.3836
 21
1.3667
 31
0.0
  0
LINE
  5
181
100
AcDbEntity
100
AcDbLine
  8
BLACK
 62
256
370
-1
  6
ByLayer
 10
0.3836
 20
1.3667
 30
0.0
 11
0.376
 21
1.3648
 31
0.0
  0
LINE
  5
182
100
AcDbEntity
100
AcDbLine
  8
BLACK
 62
256
370
-1
  6
ByLayer
 10
0.376
 20
1.3648
 30
0.0
 11
0.3664
 21
1.3648
 31
0.0
  0
LINE
  5
183
100
AcDbEntity
100
AcDbLine
  8
BLACK
 62
256
370
-1
  6
ByLayer
 10
0.3664
 20
1.3648
 30
0.0
 11
0.3588
 21
1.3667
 31
0.0
  0
LINE
  5
184
100
AcDbEntity
100
AcDbLine
  8
BLACK
 62
256
370
-1
  6
ByLayer
 10
0.3588
 20
1.3667
 30
0.0
 11
0.355
 21
1.3686
 31
0.0
  0
LINE
  5
185
100
AcDbEntity
100
AcDbLine
  8
BLACK
 62
256
370
-1
  6
ByLayer
 10
0.355
 20
1.3686
 30
0.0
 11
0.3531
 21
1.3705000000000001
 31
0.0
  0
LINE
  5
186
100
AcDbEntity
100
AcDbLine
  8
BLACK
 62
256
370
-1
  6
ByLayer
 10
0.3531
 20
1.3705000000000001
 30
0.0
 11
0.3512
 21
1.3743000000000001
 31
0.0
  0
LINE
  5
187
100
AcDbEntity
100
AcDbLine
  8
BLACK
 62
256
370
-1
  6
ByLayer
 10
0.3912
 20
1.4258000000000002
 30
0.0
 11
0.3912
 21
1.4029
 31
0.0
  0
LINE
  5
188
100
AcDbEntity
100
AcDbLine
  8
BLACK
 62
256
370
-1
  6
ByLayer
 10
0.3912
 20
1.4143000000000001
 30
0.0
 11
0.3512
 21
1.4143000000000001
 31
0.0
  0
LINE
  5
189
100
AcDbEntity
100
AcDbLine
  8
BLACK
 62
256
370
-1
  6
ByLayer
 10
0.3512
 20
1.4143000000000001
 30
0.0
 11
0.3569
 21
1.4105000000000001
 31
0.0
  0
LINE
  5
18A
100
AcDbEntity
100
AcDbLine
  8
BLACK
 62
256
370
-1
  6
ByLayer
 10
0.3569
 20
1.4105000000000001
 30
0.0
 11
0.3607
 21
1.4067000000000001
 31
0.0
  0
LINE
  5
18B
100
AcDbEntity
100
AcDbLine
  8
BLACK
 62
256
370
-1
  6
ByLayer
 10
0.3607
 20
1.4067000000000001
 30
0.0
 11
0.3626
 21
1.4029
 31
0.0
  0
LINE
  5
18C
100
AcDbEntity
100
AcDbLine
  8
BLACK
 62
256
370
-1
  6
ByLayer
 10
0.6622
 20
0.4364
 30
0.0
 11
0.6593
 21
0.4379
 31
0.0
  0
LINE
  5
18D
100
AcDbEntity
100
AcDbLine
  8
BLACK
 62
256
370
-1
  6
ByLayer
 10
0.6593
 20
0.4379
 30
0.0
 11
0.655
 21
0.4379
 31
0.0
  0
LINE
  5
18E
100
AcDbEntity
100
AcDbLine
  8
BLACK
 62
256
370
-1
  6
ByLayer
 10
0.655
 20
0.4379
 30
0.0
 11
0.6507000000000001
 21
0.4364
 31
0.0
  0
LINE
  5
18F
100
AcDbEntity
100
AcDbLine
  8
BLACK
 62
256
370
-1
  6
ByLayer
 10
0.6507000000000001
 20
0.4364
 30
0.0
 11
0.6478999999999999
 21
0.4336
 31
0.0
  0
LINE
  5
190
100
AcDbEntity
100
AcDbLine
  8
BLACK
 62
256
370
-1
  6
ByLayer
 10
0.6478999999999999
 20
0.4336
 30
0.0
 11
0.6464
 21
0.4307
 31
0.0
  0
LINE
  5
191
100
AcDbEntity
100
AcDbLine
  8
BLACK
 62
256
370
-1
  6
ByLayer
 10
0.6464
 20
0.4307
 30
0.0
 11
0.645
 21
0.425
 31
0.0
  0
LINE
  5
192
100
AcDbEntity
100
AcDbLine
  8
BLACK
 62
256
370
-1
  6
ByLayer
 10
0.645
 20
0.425
 30
0.0
 11
0.645
 21
0.4207
 31
0.0
  0
LINE
  5
193
100
AcDbEntity
100
AcDbLine
  8
BLACK
 62
256
370
-1
  6
ByLayer
 10
0.645
 20
0.4207
 30
0.0
 11
0.6464
 21
0.415
 31
0.0
  0
LINE
  5
194
100
AcDbEntity
100
AcDbLine
  8
BLACK
 62
256
370
-1
  6
ByLayer
 10
0.6464
 20
0.415
 30
0.0
 11
0.6478999999999999
 21
0.4121
 31
0.0
  0
LINE
  5
195
100
AcDbEntity
100
AcDbLine
  8
BLACK
 62
256
370
-1
  6
ByLayer
 10
0.6478999999999999
 20
0.4121
 30
0.0
 11
0.6507000000000001
 21
0.4093
 31
0.0
  0
LINE
  5
196
100
AcDbEntity
100
AcDbLine
  8
BLACK
 62
256
370
-1
  6
ByLayer
 10
0.6507000000000001
 20
0.4093
 30
0.0
 11
0.655
 21
0.4079
 31
0.0
  0
LINE
  5
197
100
AcDbEntity
100
AcDbLine
  8
BLACK
 62
256
370
-1
  6
ByLayer
 10
0.655
 20
0.4079
 30
0.0
 11
0.6578999999999999
 21
0.4079
 31
0.0
  0
LINE
  5
198
100
AcDbEntity
100
AcDbLine
  8
BLACK
 62
256
370
-1
  6
ByLayer
 10
0.6578999999999999
 20
0.4079
 30
0.0
 11
0.6622
 21
0.4093
 31
0.0
  0
LINE
  5
199
100
AcDbEntity
100
AcDbLine
  8
BLACK
 62
256
370
-1
  6
ByLayer
 10
0.6622
 20
0.4093
 30
0.0
 11
0.6636
 21
0.4107
 31
0.0
  0
LINE
  5
19A
100
AcDbEntity
100
AcDbLine
  8
BLACK
 62
256
370
-1
  6
ByLayer
 10
0.6636
 20
0.4107
 30
0.0
 11
0.6636
 21
0.4207
 31
0.0
  0
LINE
  5
19B
100
AcDbEntity
100
AcDbLine
  8
BLACK
 62
256
370
-1
  6
ByLayer
 10
0.6636
 20
0.4207
 30
0.0
 11
0.6578999999999999
 21
0.4207
 31
0.0
  0
LINE
  5
19C
100
AcDbEntity
100
AcDbLine
  8
BLACK
 62
256
370
-1
  6
ByLayer
 10
0.6764
 20
0.4079
 30
0.0
 11
0.6764
 21
0.4379
 31
0.0
  0
LINE
  5
19D
100
AcDbEntity
100
AcDbLine
  8
BLACK
 62
256
370
-1
  6
ByLayer
 10
0.6764
 20
0.4379
 30
0.0
 11
0.6936
 21
0.4079
 31
0.0
  0
LINE
  5
19E
100
AcDbEntity
100
AcDbLine
  8
BLACK
 62
256
370
-1
  6
ByLayer
 10
0.6936
 20
0.4079
 30
0.0
 11
0.6936
 21
0.4379
 31
0.0
  0
LINE
  5
19F
100
AcDbEntity
100
AcDbLine
  8
BLACK
 62
256
370
-1
  6
ByLayer
 10
0.7078
 20
0.4079
 30
0.0
 11
0.7078
 21
0.4379
 31
0.0
  0
LINE
  5
1A0
100
AcDbEntity
100
AcDbLine
  8
BLACK
 62
256
370
-1
  6
ByLayer
 10
0.7078
 20
0.4379
 30
0.0
 11
0.7150000000000001
 21
0.4379
 31
0.0
  0
LINE
  5
1A1
100
AcDbEntity
100
AcDbLine
  8
BLACK
 62
256
370
-1
  6
ByLayer
 10
0.7150000000000001
 20
0.4379
 30
0.0
 11
0.7193000000000001
 21
0.4364
 31
0.0
  0
LINE
  5
1A2
100
AcDbEntity
100
AcDbLine
  8
BLACK
 62
256
370
-1
  6
ByLayer
 10
0.7193000000000001
 20
0.4364
 30
0.0
 11
0.7221
 21
0.4336
 31
0.0
  0
LINE
  5
1A3
100
AcDbEntity
100
AcDbLine
  8
BLACK
 62
256
370
-1
  6
ByLayer
 10
0.7221
 20
0.4336
 30
0.0
 11
0.7236
 21
0.4307
 31
0.0
  0
LINE
  5
1A4
100
AcDbEntity
100
AcDbLine
  8
BLACK
 62
256
370
-1
  6
ByLayer
 10
0.7236
 20
0.4307
 30
0.0
 11
0.725
 21
0.425
 31
0.0
  0
LINE
  5
1A5
100
AcDbEntity
100
AcDbLine
  8
BLACK
 62
256
370
-1
  6
ByLayer
 10
0.725
 20
0.425
 30
0.0
 11
0.725
 21
0.4207
 31
0.0
  0
LINE
  5
1A6
100
AcDbEntity
100
AcDbLine
  8
BLACK
 62
256
370
-1
  6
ByLayer
 10
0.725
 20
0.4207
 30
0.0
 11
0.7236
 21
0.415
 31
0.0
  0
LINE
  5
1A7
100
AcDbEntity
100
AcDbLine
  8
BLACK
 62
256
370
-1
  6
ByLayer
 10
0.7236
 20
0.415
 30
0.0
 11
0.7221
 21
0.4121
 31
0.0
  0
LINE
  5
1A8
100
AcDbEntity
100
AcDbLine
  8
BLACK
 62
256
370
-1
  6
ByLayer
 10
0.7221
 20
0.4121
 30
0.0
 11
0.7193000000000001
 21
0.4093
 31
0.0
  0
LINE
  5
1A9
100
AcDbEntity
100
AcDbLine
  8
BLACK
 62
256
370
-1
  6
ByLayer
 10
0.7193000000000001
 20
0.4093
 30
0.0
 11
0.7150000000000001
 21
0.4079
 31
0.0
  0
LINE
  5
1AA
100
AcDbEntity
100
AcDbLine
  8
BLACK
 62
256
370
-1
  6
ByLayer
 10
0.7150000000000001
 20
0.4079
 30
0.0
 11
0.7078
 21
0.4079
 31
0.0
  0
LINE
  5
1AB
100
AcDbEntity
100
AcDbLine
  8
BLACK
 62
256
370
-1
  6
ByLayer
 10
0.6507000000000001
 20
0.7379
 30
0.0
 11
0.6507000000000001
 21
0.7136
 31
0.0
  0
LINE
  5
1AC
100
AcDbEntity
100
AcDbLine
  8
BLACK
 62
256
370
-1
  6
ByLayer
 10
0.6507000000000001
 20
0.7136
 30
0.0
 11
0.6522
 21
0.7107
 31
0.0
  0
LINE
  5
1AD
100
AcDbEntity
100
AcDbLine
  8
BLACK
 62
256
370
-1
  6
ByLayer
 10
0.6522
 20
0.7107
 30
0.0
 11
0.6536
 21
0.7093
 31
0.0
  0
LINE
  5
1AE
100
AcDbEntity
100
AcDbLine
  8
BLACK
 62
256
370
-1
  6
ByLayer
 10
0.6536
 20
0.7093
 30
0.0
 11
0.6565
 21
0.7079000000000001
 31
0.0
  0
LINE
  5
1AF
100
AcDbEntity
100
AcDbLine
  8
BLACK
 62
256
370
-1
  6
ByLayer
 10
0.6565
 20
0.7079000000000001
 30
0.0
 11
0.6622
 21
0.7079000000000001
 31
0.0
  0
LINE
  5
1B0
100
AcDbEntity
100
AcDbLine
  8
BLACK
 62
256
370
-1
  6
ByLayer
 10
0.6622
 20
0.7079000000000001
 30
0.0
 11
0.665
 21
0.7093
 31
0.0
  0
LINE
  5
1B1
100
AcDbEntity
100
AcDbLine
  8
BLACK
 62
256
370
-1
  6
ByLayer
 10
0.665
 20
0.7093
 30
0.0
 11
0.6665
 21
0.7107
 31
0.0
  0
LINE
  5
1B2
100
AcDbEntity
100
AcDbLine
  8
BLACK
 62
256
370
-1
  6
ByLayer
 10
0.6665
 20
0.7107
 30
0.0
 11
0.6678999999999999
 21
0.7136
 31
0.0
  0
LINE
  5
1B3
100
AcDbEntity
100
AcDbLine
  8
BLACK
 62
256
370
-1
  6
ByLayer
 10
0.6678999999999999
 20
0.7136
 30
0.0
 11
0.6678999999999999
 21
0.7379
 31
0.0
  0
LINE
  5
1B4
100
AcDbEntity
100
AcDbLine
  8
BLACK
 62
256
370
-1
  6
ByLayer
 10
0.6807000000000001
 20
0.7164
 30
0.0
 11
0.6950000000000001
 21
0.7164
 31
0.0
  0
LINE
  5
1B5
100
AcDbEntity
100
AcDbLine
  8
BLACK
 62
256
370
-1
  6
ByLayer
 10
0.6778999999999999
 20
0.7079000000000001
 30
0.0
 11
0.6879
 21
0.7379
 31
0.0
  0
LINE
  5
1B6
100
AcDbEntity
100
AcDbLine
  8
BLACK
 62
256
370
-1
  6
ByLayer
 10
0.6879
 20
0.7379
 30
0.0
 11
0.6979
 21
0.7079000000000001
 31
0.0
  0
LINE
  5
1B7
100
AcDbEntity
100
AcDbLine
  8
BLACK
 62
256
370
-1
  6
ByLayer
 10
0.7178
 20
0.7236
 30
0.0
 11
0.7078
 21
0.7236
 31
0.0
  0
LINE
  5
1B8
100
AcDbEntity
100
AcDbLine
  8
BLACK
 62
256
370
-1
  6
ByLayer
 10
0.7078
 20
0.7079000000000001
 30
0.0
 11
0.7078
 21
0.7379
 31
0.0
  0
LINE
  5
1B9
100
AcDbEntity
100
AcDbLine
  8
BLACK
 62
256
370
-1
  6
ByLayer
 10
0.7078
 20
0.7379
 30
0.0
 11
0.7221
 21
0.7379
 31
0.0
  0
LINE
  5
1BA
100
AcDbEntity
100
AcDbLine
  8
BLACK
 62
256
370
-1
  6
ByLayer
 10
0.6557999999999999
 20
1.0379
 30
0.0
 11
0.6615
 21
1.0379
 31
0.0
  0
LINE
  5
1BB
100
AcDbEntity
100
AcDbLine
  8
BLACK
 62
256
370
-1
  6
ByLayer
 10
0.6615
 20
1.0379
 30
0.0
 11
0.6643
 21
1.0364
 31
0.0
  0
LINE
  5
1BC
100
AcDbEntity
100
AcDbLine
  8
BLACK
 62
256
370
-1
  6
ByLayer
 10
0.6643
 20
1.0364
 30
0.0
 11
0.6672
 21
1.0336000000000001
 31
0.0
  0
LINE
  5
1BD
100
AcDbEntity
100
AcDbLine
  8
BLACK
 62
256
370
-1
  6
ByLayer
 10
0.6672
 20
1.0336000000000001
 30
0.0
 11
0.6686000000000001
 21
1.0279
 31
0.0
  0
LINE
  5
1BE
100
AcDbEntity
100
AcDbLine
  8
BLACK
 62
256
370
-1
  6
ByLayer
 10
0.6686000000000001
 20
1.0279
 30
0.0
 11
0.6686000000000001
 21
1.0179
 31
0.0
  0
LINE
  5
1BF
100
AcDbEntity
100
AcDbLine
  8
BLACK
 62
256
370
-1
  6
ByLayer
 10
0.6686000000000001
 20
1.0179
 30
0.0
 11
0.6672
 21
1.0121
 31
0.0
  0
LINE
  5
1C0
100
AcDbEntity
100
AcDbLine
  8
BLACK
 62
256
370
-1
  6
ByLayer
 10
0.6672
 20
1.0121
 30
0.0
 11
0.6643
 21
1.0093000000000001
 31
0.0
  0
LINE
  5
1C1
100
AcDbEntity
100
AcDbLine
  8
BLACK
 62
256
370
-1
  6
ByLayer
 10
0.6643
 20
1.0093000000000001
 30
0.0
 11
0.6615
 21
1.0079
 31
0.0
  0
LINE
  5
1C2
100
AcDbEntity
100
AcDbLine
  8
BLACK
 62
256
370
-1
  6
ByLayer
 10
0.6615
 20
1.0079
 30
0.0
 11
0.6557999999999999
 21
1.0079
 31
0.0
  0
LINE
  5
1C3
100
AcDbEntity
100
AcDbLine
  8
BLACK
 62
256
370
-1
  6
ByLayer
 10
0.6557999999999999
 20
1.0079
 30
0.0
 11
0.6529
 21
1.0093000000000001
 31
0.0
  0
LINE
  5
1C4
100
AcDbEntity
100
AcDbLine
  8
BLACK
 62
256
370
-1
  6
ByLayer
 10
0.6529
 20
1.0093000000000001
 30
0.0
 11
0.65
 21
1.0121
 31
0.0
  0
LINE
  5
1C5
100
AcDbEntity
100
AcDbLine
  8
BLACK
 62
256
370
-1
  6
ByLayer
 10
0.65
 20
1.0121
 30
0.0
 11
0.6486000000000001
 21
1.0179
 31
0.0
  0
LINE
  5
1C6
100
AcDbEntity
100
AcDbLine
  8
BLACK
 62
256
370
-1
  6
ByLayer
 10
0.6486000000000001
 20
1.0179
 30
0.0
 11
0.6486000000000001
 21
1.0279
 31
0.0
  0
LINE
  5
1C7
100
AcDbEntity
100
AcDbLine
  8
BLACK
 62
256
370
-1
  6
ByLayer
 10
0.6486000000000001
 20
1.0279
 30
0.0
 11
0.65
 21
1.0336000000000001
 31
0.0
  0
LINE
  5
1C8
100
AcDbEntity
100
AcDbLine
  8
BLACK
 62
256
370
-1
  6
ByLayer
 10
0.65
 20
1.0336000000000001
 30
0.0
 11
0.6529
 21
1.0364
 31
0.0
  0
LINE
  5
1C9
100
AcDbEntity
100
AcDbLine
  8
BLACK
 62
256
370
-1
  6
ByLayer
 10
0.6529
 20
1.0364
 30
0.0
 11
0.6557999999999999
 21
1.0379
 31
0.0
  0
LINE
  5
1CA
100
AcDbEntity
100
AcDbLine
  8
BLACK
 62
256
370
-1
  6
ByLayer
 10
0.6814
 20
1.0079
 30
0.0
 11
0.6814
 21
1.0379
 31
0.0
  0
LINE
  5
1CB
100
AcDbEntity
100
AcDbLine
  8
BLACK
 62
256
370
-1
  6
ByLayer
 10
0.6814
 20
1.0379
 30
0.0
 11
0.6929000000000001
 21
1.0379
 31
0.0
  0
LINE
  5
1CC
100
AcDbEntity
100
AcDbLine
  8
BLACK
 62
256
370
-1
  6
ByLayer
 10
0.6929000000000001
 20
1.0379
 30
0.0
 11
0.6957
 21
1.0364
 31
0.0
  0
LINE
  5
1CD
100
AcDbEntity
100
AcDbLine
  8
BLACK
 62
256
370
-1
  6
ByLayer
 10
0.6957
 20
1.0364
 30
0.0
 11
0.6972
 21
1.0350000000000001
 31
0.0
  0
LINE
  5
1CE
100
AcDbEntity
100
AcDbLine
  8
BLACK
 62
256
370
-1
  6
ByLayer
 10
0.6972
 20
1.0350000000000001
 30
0.0
 11
0.6986
 21
1.0321
 31
0.0
  0
LINE
  5
1CF
100
AcDbEntity
100
AcDbLine
  8
BLACK
 62
256
370
-1
  6
ByLayer
 10
0.6986
 20
1.0321
 30
0.0
 11
0.6986
 21
1.0279
 31
0.0
  0
LINE
  5
1D0
100
AcDbEntity
100
AcDbLine
  8
BLACK
 62
256
370
-1
  6
ByLayer
 10
0.6986
 20
1.0279
 30
0.0
 11
0.6972
 21
1.0250000000000001
 31
0.0
  0
LINE
  5
1D1
100
AcDbEntity
100
AcDbLine
  8
BLACK
 62
256
370
-1
  6
ByLayer
 10
0.6972
 20
1.0250000000000001
 30
0.0
 11
0.6957
 21
1.0236000000000001
 31
0.0
  0
LINE
  5
1D2
100
AcDbEntity
100
AcDbLine
  8
BLACK
 62
256
370
-1
  6
ByLayer
 10
0.6957
 20
1.0236000000000001
 30
0.0
 11
0.6929000000000001
 21
1.0221
 31
0.0
  0
LINE
  5
1D3
100
AcDbEntity
100
AcDbLine
  8
BLACK
 62
256
370
-1
  6
ByLayer
 10
0.6929000000000001
 20
1.0221
 30
0.0
 11
0.6814
 21
1.0221
 31
0.0
  0
LINE
  5
1D4
100
AcDbEntity
100
AcDbLine
  8
BLACK
 62
256
370
-1
  6
ByLayer
 10
0.7072000000000001
 20
1.0379
 30
0.0
 11
0.7242999999999999
 21
1.0379
 31
0.0
  0
LINE
  5
1D5
100
AcDbEntity
100
AcDbLine
  8
BLACK
 62
256
370
-1
  6
ByLayer
 10
0.7157
 20
1.0079
 30
0.0
 11
0.7157
 21
1.0379
 31
0.0
  0
LINE
  5
1D6
100
AcDbEntity
100
AcDbLine
  8
BLACK
 62
256
370
-1
  6
ByLayer
 10
0.1601
 20
0.4508
 30
0.0
 11
0.1482
 21
0.4425
 31
0.0
  0
LINE
  5
1D7
100
AcDbEntity
100
AcDbLine
  8
BLACK
 62
256
370
-1
  6
ByLayer
 10
0.1601
 20
0.4366
 30
0.0
 11
0.1351
 21
0.4366
 31
0.0
  0
LINE
  5
1D8
100
AcDbEntity
100
AcDbLine
  8
BLACK
 62
256
370
-1
  6
ByLayer
 10
0.1351
 20
0.4366
 30
0.0
 11
0.1351
 21
0.4461
 31
0.0
  0
LINE
  5
1D9
100
AcDbEntity
100
AcDbLine
  8
BLACK
 62
256
370
-1
  6
ByLayer
 10
0.1351
 20
0.4461
 30
0.0
 11
0.1363
 21
0.4485
 31
0.0
  0
LINE
  5
1DA
100
AcDbEntity
100
AcDbLine
  8
BLACK
 62
256
370
-1
  6
ByLayer
 10
0.1363
 20
0.4485
 30
0.0
 11
0.1375
 21
0.4496
 31
0.0
  0
LINE
  5
1DB
100
AcDbEntity
100
AcDbLine
  8
BLACK
 62
256
370
-1
  6
ByLayer
 10
0.1375
 20
0.4496
 30
0.0
 11
0.1399
 21
0.4508
 31
0.0
  0
LINE
  5
1DC
100
AcDbEntity
100
AcDbLine
  8
BLACK
 62
256
370
-1
  6
ByLayer
 10
0.1399
 20
0.4508
 30
0.0
 11
0.1435
 21
0.4508
 31
0.0
  0
LINE
  5
1DD
100
AcDbEntity
100
AcDbLine
  8
BLACK
 62
256
370
-1
  6
ByLayer
 10
0.1435
 20
0.4508
 30
0.0
 11
0.1458
 21
0.4496
 31
0.0
  0
LINE
  5
1DE
100
AcDbEntity
100
AcDbLine
  8
BLACK
 62
256
370
-1
  6
ByLayer
 10
0.1458
 20
0.4496
 30
0.0
 11
0.147
 21
0.4485
 31
0.0
  0
LINE
  5
1DF
100
AcDbEntity
100
AcDbLine
  8
BLACK
 62
256
370
-1
  6
ByLayer
 10
0.147
 20
0.4485
 30
0.0
 11
0.1482
 21
0.4461
 31
0.0
  0
LINE
  5
1E0
100
AcDbEntity
100
AcDbLine
  8
BLACK
 62
256
370
-1
  6
ByLayer
 10
0.1482
 20
0.4461
 30
0.0
 11
0.1482
 21
0.4366
 31
0.0
  0
LINE
  5
1E1
100
AcDbEntity
100
AcDbLine
  8
BLACK
 62
256
370
-1
  6
ByLayer
 10
0.1351
 20
0.4735
 30
0.0
 11
0.1351
 21
0.4616
 31
0.0
  0
LINE
  5
1E2
100
AcDbEntity
100
AcDbLine
  8
BLACK
 62
256
370
-1
  6
ByLayer
 10
0.1351
 20
0.4616
 30
0.0
 11
0.147
 21
0.4604
 31
0.0
  0
LINE
  5
1E3
100
AcDbEntity
100
AcDbLine
  8
BLACK
 62
256
370
-1
  6
ByLayer
 10
0.147
 20
0.4604
 30
0.0
 11
0.1458
 21
0.4616
 31
0.0
  0
LINE
  5
1E4
100
AcDbEntity
100
AcDbLine
  8
BLACK
 62
256
370
-1
  6
ByLayer
 10
0.1458
 20
0.4616
 30
0.0
 11
0.1446
 21
0.4639
 31
0.0
  0
LINE
  5
1E5
100
AcDbEntity
100
AcDbLine
  8
BLACK
 62
256
370
-1
  6
ByLayer
 10
0.1446
 20
0.4639
 30
0.0
 11
0.1446
 21
0.4699
 31
0.0
  0
LINE
  5
1E6
100
AcDbEntity
100
AcDbLine
  8
BLACK
 62
256
370
-1
  6
ByLayer
 10
0.1446
 20
0.4699
 30
0.0
 11
0.1458
 21
0.4723
 31
0.0
  0
LINE
  5
1E7
100
AcDbEntity
100
AcDbLine
  8
BLACK
 62
256
370
-1
  6
ByLayer
 10
0.1458
 20
0.4723
 30
0.0
 11
0.147
 21
0.4735
 31
0.0
  0
LINE
  5
1E8
100
AcDbEntity
100
AcDbLine
  8
BLACK
 62
256
370
-1
  6
ByLayer
 10
0.147
 20
0.4735
 30
0.0
 11
0.1494
 21
0.4746
 31
0.0
  0
LINE
  5
1E9
100
AcDbEntity
100
AcDbLine
  8
BLACK
 62
256
370
-1
  6
ByLayer
 10
0.1494
 20
0.4746
 30
0.0
 11
0.1554
 21
0.4746
 31
0.0
  0
LINE
  5
1EA
100
AcDbEntity
100
AcDbLine
  8
BLACK
 62
256
370
-1
  6
ByLayer
 10
0.1554
 20
0.4746
 30
0.0
 11
0.1577
 21
0.4735
 31
0.0
  0
LINE
  5
1EB
100
AcDbEntity
100
AcDbLine
  8
BLACK
 62
256
370
-1
  6
ByLayer
 10
0.1577
 20
0.4735
 30
0.0
 11
0.1589
 21
0.4723
 31
0.0
  0
LINE
  5
1EC
100
AcDbEntity
100
AcDbLine
  8
BLACK
 62
256
370
-1
  6
ByLayer
 10
0.1589
 20
0.4723
 30
0.0
 11
0.1601
 21
0.4699
 31
0.0
  0
LINE
  5
1ED
100
AcDbEntity
100
AcDbLine
  8
BLACK
 62
256
370
-1
  6
ByLayer
 10
0.1601
 20
0.4699
 30
0.0
 11
0.1601
 21
0.4639
 31
0.0
  0
LINE
  5
1EE
100
AcDbEntity
100
AcDbLine
  8
BLACK
 62
256
370
-1
  6
ByLayer
 10
0.1601
 20
0.4639
 30
0.0
 11
0.1589
 21
0.4616
 31
0.0
  0
LINE
  5
1EF
100
AcDbEntity
100
AcDbLine
  8
BLACK
 62
256
370
-1
  6
ByLayer
 10
0.1589
 20
0.4616
 30
0.0
 11
0.1577
 21
0.4604
 31
0.0
  0
LINE
  5
1F0
100
AcDbEntity
100
AcDbLine
  8
BLACK
 62
256
370
-1
  6
ByLayer
 10
0.0401
 20
0.4802
 30
0.0
 11
0.0401
 21
0.466
 31
0.0
  0
LINE
  5
1F1
100
AcDbEntity
100
AcDbLine
  8
BLACK
 62
256
370
-1
  6
ByLayer
 10
0.0401
 20
0.4731
 30
0.0
 11
0.0151
 21
0.4731
 31
0.0
  0
LINE
  5
1F2
100
AcDbEntity
100
AcDbLine
  8
BLACK
 62
256
370
-1
  6
ByLayer
 10
0.0151
 20
0.4731
 30
0.0
 11
0.0187
 21
0.4707
 31
0.0
  0
LINE
  5
1F3
100
AcDbEntity
100
AcDbLine
  8
BLACK
 62
256
370
-1
  6
ByLayer
 10
0.0187
 20
0.4707
 30
0.0
 11
0.0211
 21
0.4683
 31
0.0
  0
LINE
  5
1F4
100
AcDbEntity
100
AcDbLine
  8
BLACK
 62
256
370
-1
  6
ByLayer
 10
0.0211
 20
0.4683
 30
0.0
 11
0.0223
 21
0.466
 31
0.0
  0
LINE
  5
1F5
100
AcDbEntity
100
AcDbLine
  8
BLACK
 62
256
370
-1
  6
ByLayer
 10
0.0151
 20
0.4957
 30
0.0
 11
0.0151
 21
0.4981
 31
0.0
  0
LINE
  5
1F6
100
AcDbEntity
100
AcDbLine
  8
BLACK
 62
256
370
-1
  6
ByLayer
 10
0.0151
 20
0.4981
 30
0.0
 11
0.0163
 21
0.5005000000000001
 31
0.0
  0
LINE
  5
1F7
100
AcDbEntity
100
AcDbLine
  8
BLACK
 62
256
370
-1
  6
ByLayer
 10
0.0163
 20
0.5005000000000001
 30
0.0
 11
0.0175
 21
0.5017
 31
0.0
  0
LINE
  5
1F8
100
AcDbEntity
100
AcDbLine
  8
BLACK
 62
256
370
-1
  6
ByLayer
 10
0.0175
 20
0.5017
 30
0.0
 11
0.0199
 21
0.5029
 31
0.0
  0
LINE
  5
1F9
100
AcDbEntity
100
AcDbLine
  8
BLACK
 62
256
370
-1
  6
ByLayer
 10
0.0199
 20
0.5029
 30
0.0
 11
0.0246
 21
0.504
 31
0.0
  0
LINE
  5
1FA
100
AcDbEntity
100
AcDbLine
  8
BLACK
 62
256
370
-1
  6
ByLayer
 10
0.0246
 20
0.504
 30
0.0
 11
0.0306
 21
0.504
 31
0.0
  0
LINE
  5
1FB
100
AcDbEntity
100
AcDbLine
  8
BLACK
 62
256
370
-1
  6
ByLayer
 10
0.0306
 20
0.504
 30
0.0
 11
0.0354
 21
0.5029
 31
0.0
  0
LINE
  5
1FC
100
AcDbEntity
100
AcDbLine
  8
BLACK
 62
256
370
-1
  6
ByLayer
 10
0.0354
 20
0.5029
 30
0.0
 11
0.0377
 21
0.5017
 31
0.0
  0
LINE
  5
1FD
100
AcDbEntity
100
AcDbLine
  8
BLACK
 62
256
370
-1
  6
ByLayer
 10
0.0377
 20
0.5017
 30
0.0
 11
0.0389
 21
0.5005000000000001
 31
0.0
  0
LINE
  5
1FE
100
AcDbEntity
100
AcDbLine
  8
BLACK
 62
256
370
-1
  6
ByLayer
 10
0.0389
 20
0.5005000000000001
 30
0.0
 11
0.0401
 21
0.4981
 31
0.0
  0
LINE
  5
1FF
100
AcDbEntity
100
AcDbLine
  8
BLACK
 62
256
370
-1
  6
ByLayer
 10
0.0401
 20
0.4981
 30
0.0
 11
0.0401
 21
0.4957
 31
0.0
  0
LINE
  5
200
100
AcDbEntity
100
AcDbLine
  8
BLACK
 62
256
370
-1
  6
ByLayer
 10
0.0401
 20
0.4957
 30
0.0
 11
0.0389
 21
0.4933
 31
0.0
  0
LINE
  5
201
100
AcDbEntity
100
AcDbLine
  8
BLACK
 62
256
370
-1
  6
ByLayer
 10
0.0389
 20
0.4933
 30
0.0
 11
0.0377
 21
0.4921
 31
0.0
  0
LINE
  5
202
100
AcDbEntity
100
AcDbLine
  8
BLACK
 62
256
370
-1
  6
ByLayer
 10
0.0377
 20
0.4921
 30
0.0
 11
0.0354
 21
0.491
 31
0.0
  0
LINE
  5
203
100
AcDbEntity
100
AcDbLine
  8
BLACK
 62
256
370
-1
  6
ByLayer
 10
0.0354
 20
0.491
 30
0.0
 11
0.0306
 21
0.4898
 31
0.0
  0
LINE
  5
204
100
AcDbEntity
100
AcDbLine
  8
BLACK
 62
256
370
-1
  6
ByLayer
 10
0.0306
 20
0.4898
 30
0.0
 11
0.0246
 21
0.4898
 31
0.0
  0
LINE
  5
205
100
AcDbEntity
100
AcDbLine
  8
BLACK
 62
256
370
-1
  6
ByLayer
 10
0.0246
 20
0.4898
 30
0.0
 11
0.0199
 21
0.491
 31
0.0
  0
LINE
  5
206
100
AcDbEntity
100
AcDbLine
  8
BLACK
 62
256
370
-1
  6
ByLayer
 10
0.0199
 20
0.491
 30
0.0
 11
0.0175
 21
0.4921
 31
0.0
  0
LINE
  5
207
100
AcDbEntity
100
AcDbLine
  8
BLACK
 62
256
370
-1
  6
ByLayer
 10
0.0175
 20
0.4921
 30
0.0
 11
0.0163
 21
0.4933
 31
0.0
  0
LINE
  5
208
100
AcDbEntity
100
AcDbLine
  8
BLACK
 62
256
370
-1
  6
ByLayer
 10
0.0163
 20
0.4933
 30
0.0
 11
0.0151
 21
0.4957
 31
0.0
  0
LINE
  5
209
100
AcDbEntity
100
AcDbLine
  8
BLACK
 62
256
370
-1
  6
ByLayer
 10
0.1551
 20
1.1558000000000002
 30
0.0
 11
0.1432
 21
1.1475
 31
0.0
  0
LINE
  5
20A
100
AcDbEntity
100
AcDbLine
  8
BLACK
 62
256
370
-1
  6
ByLayer
 10
0.1551
 20
1.1415999999999999
 30
0.0
 11
0.1301
 21
1.1415999999999999
 31
0.0
  0
LINE
  5
20B
100
AcDbEntity
100
AcDbLine
  8
BLACK
 62
256
370
-1
  6
ByLayer
 10
0.1301
 20
1.1415999999999999
 30
0.0
 11
0.1301
 21
1.1511
 31
0.0
  0
LINE
  5
20C
100
AcDbEntity
100
AcDbLine
  8
BLACK
 62
256
370
-1
  6
ByLayer
 10
0.1301
 20
1.1511
 30
0.0
 11
0.1313
 21
1.1535
 31
0.0
  0
LINE
  5
20D
100
AcDbEntity
100
AcDbLine
  8
BLACK
 62
256
370
-1
  6
ByLayer
 10
0.1313
 20
1.1535
 30
0.0
 11
0.1325
 21
1.1546000000000001
 31
0.0
  0
LINE
  5
20E
100
AcDbEntity
100
AcDbLine
  8
BLACK
 62
256
370
-1
  6
ByLayer
 10
0.1325
 20
1.1546000000000001
 30
0.0
 11
0.1349
 21
1.1558000000000002
 31
0.0
  0
LINE
  5
20F
100
AcDbEntity
100
AcDbLine
  8
BLACK
 62
256
370
-1
  6
ByLayer
 10
0.1349
 20
1.1558000000000002
 30
0.0
 11
0.1385
 21
1.1558000000000002
 31
0.0
  0
LINE
  5
210
100
AcDbEntity
100
AcDbLine
  8
BLACK
 62
256
370
-1
  6
ByLayer
 10
0.1385
 20
1.1558000000000002
 30
0.0
 11
0.1408
 21
1.1546000000000001
 31
0.0
  0
LINE
  5
211
100
AcDbEntity
100
AcDbLine
  8
BLACK
 62
256
370
-1
  6
ByLayer
 10
0.1408
 20
1.1546000000000001
 30
0.0
 11
0.142
 21
1.1535
 31
0.0
  0
LINE
  5
212
100
AcDbEntity
100
AcDbLine
  8
BLACK
 62
256
370
-1
  6
ByLayer
 10
0.142
 20
1.1535
 30
0.0
 11
0.1432
 21
1.1511
 31
0.0
  0
LINE
  5
213
100
AcDbEntity
100
AcDbLine
  8
BLACK
 62
256
370
-1
  6
ByLayer
 10
0.1432
 20
1.1511
 30
0.0
 11
0.1432
 21
1.1415999999999999
 31
0.0
  0
LINE
  5
214
100
AcDbEntity
100
AcDbLine
  8
BLACK
 62
256
370
-1
  6
ByLayer
 10
0.1551
 20
1.1796
 30
0.0
 11
0.1551
 21
1.1654
 31
0.0
  0
LINE
  5
215
100
AcDbEntity
100
AcDbLine
  8
BLACK
 62
256
370
-1
  6
ByLayer
 10
0.1551
 20
1.1725000000000001
 30
0.0
 11
0.1301
 21
1.1725000000000001
 31
0.0
  0
LINE
  5
216
100
AcDbEntity
100
AcDbLine
  8
BLACK
 62
256
370
-1
  6
ByLayer
 10
0.1301
 20
1.1725000000000001
 30
0.0
 11
0.1337
 21
1.1701000000000001
 31
0.0
  0
LINE
  5
217
100
AcDbEntity
100
AcDbLine
  8
BLACK
 62
256
370
-1
  6
ByLayer
 10
0.1337
 20
1.1701000000000001
 30
0.0
 11
0.1361
 21
1.1677
 31
0.0
  0
LINE
  5
218
100
AcDbEntity
100
AcDbLine
  8
BLACK
 62
256
370
-1
  6
ByLayer
 10
0.1361
 20
1.1677
 30
0.0
 11
0.1373
 21
1.1654
 31
0.0
  0
LINE
  5
219
100
AcDbEntity
100
AcDbLine
  8
BLACK
 62
256
370
-1
  6
ByLayer
 10
0.0151
 20
1.1324000000000001
 30
0.0
 11
0.0151
 21
1.1478000000000002
 31
0.0
  0
LINE
  5
21A
100
AcDbEntity
100
AcDbLine
  8
BLACK
 62
256
370
-1
  6
ByLayer
 10
0.0151
 20
1.1478000000000002
 30
0.0
 11
0.0246
 21
1.1395
 31
0.0
  0
LINE
  5
21B
100
AcDbEntity
100
AcDbLine
  8
BLACK
 62
256
370
-1
  6
ByLayer
 10
0.0246
 20
1.1395
 30
0.0
 11
0.0246
 21
1.1431
 31
0.0
  0
LINE
  5
21C
100
AcDbEntity
100
AcDbLine
  8
BLACK
 62
256
370
-1
  6
ByLayer
 10
0.0246
 20
1.1431
 30
0.0
 11
0.0258
 21
1.1455
 31
0.0
  0
LINE
  5
21D
100
AcDbEntity
100
AcDbLine
  8
BLACK
 62
256
370
-1
  6
ByLayer
 10
0.0258
 20
1.1455
 30
0.0
 11
0.027
 21
1.1467000000000001
 31
0.0
  0
LINE
  5
21E
100
AcDbEntity
100
AcDbLine
  8
BLACK
 62
256
370
-1
  6
ByLayer
 10
0.027
 20
1.1467000000000001
 30
0.0
 11
0.0294
 21
1.1478000000000002
 31
0.0
  0
LINE
  5
21F
100
AcDbEntity
100
AcDbLine
  8
BLACK
 62
256
370
-1
  6
ByLayer
 10
0.0294
 20
1.1478000000000002
 30
0.0
 11
0.0354
 21
1.1478000000000002
 31
0.0
  0
LINE
  5
220
100
AcDbEntity
100
AcDbLine
  8
BLACK
 62
256
370
-1
  6
ByLayer
 10
0.0354
 20
1.1478000000000002
 30
0.0
 11
0.0377
 21
1.1467000000000001
 31
0.0
  0
LINE
  5
221
100
AcDbEntity
100
AcDbLine
  8
BLACK
 62
256
370
-1
  6
ByLayer
 10
0.0377
 20
1.1467000000000001
 30
0.0
 11
0.0389
 21
1.1455
 31
0.0
  0
LINE
  5
222
100
AcDbEntity
100
AcDbLine
  8
BLACK
 62
256
370
-1
  6
ByLayer
 10
0.0389
 20
1.1455
 30
0.0
 11
0.0401
 21
1.1431
 31
0.0
  0
LINE
  5
223
100
AcDbEntity
100
AcDbLine
  8
BLACK
 62
256
370
-1
  6
ByLayer
 10
0.0401
 20
1.1431
 30
0.0
 11
0.0401
 21
1.1359000000000001
 31
0.0
  0
LINE
  5
224
100
AcDbEntity
100
AcDbLine
  8
BLACK
 62
256
370
-1
  6
ByLayer
 10
0.0401
 20
1.1359000000000001
 30
0.0
 11
0.0389
 21
1.1336000000000002
 31
0.0
  0
LINE
  5
225
100
AcDbEntity
100
AcDbLine
  8
BLACK
 62
256
370
-1
  6
ByLayer
 10
0.0389
 20
1.1336000000000002
 30
0.0
 11
0.0377
 21
1.1324000000000001
 31
0.0
  0
LINE
  5
226
100
AcDbEntity
100
AcDbLine
  8
BLACK
 62
256
370
-1
  6
ByLayer
 10
0.0401
 20
1.1586000000000001
 30
0.0
 11
0.0151
 21
1.1586000000000001
 31
0.0
  0
LINE
  5
227
100
AcDbEntity
100
AcDbLine
  8
BLACK
 62
256
370
-1
  6
ByLayer
 10
0.0151
 20
1.1586000000000001
 30
0.0
 11
0.033
 21
1.1669
 31
0.0
  0
LINE
  5
228
100
AcDbEntity
100
AcDbLine
  8
BLACK
 62
256
370
-1
  6
ByLayer
 10
0.033
 20
1.1669
 30
0.0
 11
0.0151
 21
1.1752
 31
0.0
  0
LINE
  5
229
100
AcDbEntity
100
AcDbLine
  8
BLACK
 62
256
370
-1
  6
ByLayer
 10
0.0151
 20
1.1752
 30
0.0
 11
0.0401
 21
1.1752
 31
0.0
  0
LINE
  5
22A
100
AcDbEntity
100
AcDbLine
  8
BLACK
 62
256
370
-1
  6
ByLayer
 10
0.2258
 20
1.0523
 30
0.0
 11
0.2246
 21
1.0511000000000001
 31
0.0
  0
LINE
  5
22B
100
AcDbEntity
100
AcDbLine
  8
BLACK
 62
256
370
-1
  6
ByLayer
 10
0.2246
 20
1.0511000000000001
 30
0.0
 11
0.2211
 21
1.0499000000000001
 31
0.0
  0
LINE
  5
22C
100
AcDbEntity
100
AcDbLine
  8
BLACK
 62
256
370
-1
  6
ByLayer
 10
0.2211
 20
1.0499000000000001
 30
0.0
 11
0.2187
 21
1.0499000000000001
 31
0.0
  0
LINE
  5
22D
100
AcDbEntity
100
AcDbLine
  8
BLACK
 62
256
370
-1
  6
ByLayer
 10
0.2187
 20
1.0499000000000001
 30
0.0
 11
0.2151
 21
1.0511000000000001
 31
0.0
  0
LINE
  5
22E
100
AcDbEntity
100
AcDbLine
  8
BLACK
 62
256
370
-1
  6
ByLayer
 10
0.2151
 20
1.0511000000000001
 30
0.0
 11
0.2127
 21
1.0535000000000001
 31
0.0
  0
LINE
  5
22F
100
AcDbEntity
100
AcDbLine
  8
BLACK
 62
256
370
-1
  6
ByLayer
 10
0.2127
 20
1.0535000000000001
 30
0.0
 11
0.2116
 21
1.0558000000000001
 31
0.0
  0
LINE
  5
230
100
AcDbEntity
100
AcDbLine
  8
BLACK
 62
256
370
-1
  6
ByLayer
 10
0.2116
 20
1.0558000000000001
 30
0.0
 11
0.2104
 21
1.0606
 31
0.0
  0
LINE
  5
231
100
AcDbEntity
100
AcDbLine
  8
BLACK
 62
256
370
-1
  6
ByLayer
 10
0.2104
 20
1.0606
 30
0.0
 11
0.2104
 21
1.0642
 31
0.0
  0
LINE
  5
232
100
AcDbEntity
100
AcDbLine
  8
BLACK
 62
256
370
-1
  6
ByLayer
 10
0.2104
 20
1.0642
 30
0.0
 11
0.2116
 21
1.0689
 31
0.0
  0
LINE
  5
233
100
AcDbEntity
100
AcDbLine
  8
BLACK
 62
256
370
-1
  6
ByLayer
 10
0.2116
 20
1.0689
 30
0.0
 11
0.2127
 21
1.0713000000000001
 31
0.0
  0
LINE
  5
234
100
AcDbEntity
100
AcDbLine
  8
BLACK
 62
256
370
-1
  6
ByLayer
 10
0.2127
 20
1.0713000000000001
 30
0.0
 11
0.2151
 21
1.0737000000000001
 31
0.0
  0
LINE
  5
235
100
AcDbEntity
100
AcDbLine
  8
BLACK
 62
256
370
-1
  6
ByLayer
 10
0.2151
 20
1.0737000000000001
 30
0.0
 11
0.2187
 21
1.0749
 31
0.0
  0
LINE
  5
236
100
AcDbEntity
100
AcDbLine
  8
BLACK
 62
256
370
-1
  6
ByLayer
 10
0.2187
 20
1.0749
 30
0.0
 11
0.2211
 21
1.0749
 31
0.0
  0
LINE
  5
237
100
AcDbEntity
100
AcDbLine
  8
BLACK
 62
256
370
-1
  6
ByLayer
 10
0.2211
 20
1.0749
 30
0.0
 11
0.2246
 21
1.0737000000000001
 31
0.0
  0
LINE
  5
238
100
AcDbEntity
100
AcDbLine
  8
BLACK
 62
256
370
-1
  6
ByLayer
 10
0.2246
 20
1.0737000000000001
 30
0.0
 11
0.2258
 21
1.0725
 31
0.0
  0
LINE
  5
239
100
AcDbEntity
100
AcDbLine
  8
BLACK
 62
256
370
-1
  6
ByLayer
 10
0.2354
 20
1.0725
 30
0.0
 11
0.2366
 21
1.0737000000000001
 31
0.0
  0
LINE
  5
23A
100
AcDbEntity
100
AcDbLine
  8
BLACK
 62
256
370
-1
  6
ByLayer
 10
0.2366
 20
1.0737000000000001
 30
0.0
 11
0.2389
 21
1.0749
 31
0.0
  0
LINE
  5
23B
100
AcDbEntity
100
AcDbLine
  8
BLACK
 62
256
370
-1
  6
ByLayer
 10
0.2389
 20
1.0749
 30
0.0
 11
0.2449
 21
1.0749
 31
0.0
  0
LINE
  5
23C
100
AcDbEntity
100
AcDbLine
  8
BLACK
 62
256
370
-1
  6
ByLayer
 10
0.2449
 20
1.0749
 30
0.0
 11
0.2473
 21
1.0737000000000001
 31
0.0
  0
LINE
  5
23D
100
AcDbEntity
100
AcDbLine
  8
BLACK
 62
256
370
-1
  6
ByLayer
 10
0.2473
 20
1.0737000000000001
 30
0.0
 11
0.2485
 21
1.0725
 31
0.0
  0
LINE
  5
23E
100
AcDbEntity
100
AcDbLine
  8
BLACK
 62
256
370
-1
  6
ByLayer
 10
0.2485
 20
1.0725
 30
0.0
 11
0.2496
 21
1.0701000000000001
 31
0.0
  0
LINE
  5
23F
100
AcDbEntity
100
AcDbLine
  8
BLACK
 62
256
370
-1
  6
ByLayer
 10
0.2496
 20
1.0701000000000001
 30
0.0
 11
0.2496
 21
1.0677000000000001
 31
0.0
  0
LINE
  5
240
100
AcDbEntity
100
AcDbLine
  8
BLACK
 62
256
370
-1
  6
ByLayer
 10
0.2496
 20
1.0677000000000001
 30
0.0
 11
0.2485
 21
1.0642
 31
0.0
  0
LINE
  5
241
100
AcDbEntity
100
AcDbLine
  8
BLACK
 62
256
370
-1
  6
ByLayer
 10
0.2485
 20
1.0642
 30
0.0
 11
0.2342
 21
1.0499000000000001
 31
0.0
  0
LINE
  5
242
100
AcDbEntity
100
AcDbLine
  8
BLACK
 62
256
370
-1
  6
ByLayer
 10
0.2342
 20
1.0499000000000001
 30
0.0
 11
0.2496
 21
1.0499000000000001
 31
0.0
  0
LINE
  5
243
100
AcDbEntity
100
AcDbLine
  8
BLACK
 62
256
370
-1
  6
ByLayer
 10
0.189
 20
0.9699000000000001
 30
0.0
 11
0.1914
 21
0.9699000000000001
 31
0.0
  0
LINE
  5
244
100
AcDbEntity
100
AcDbLine
  8
BLACK
 62
256
370
-1
  6
ByLayer
 10
0.1914
 20
0.9699000000000001
 30
0.0
 11
0.1938
 21
0.9687
 31
0.0
  0
LINE
  5
245
100
AcDbEntity
100
AcDbLine
  8
BLACK
 62
256
370
-1
  6
ByLayer
 10
0.1938
 20
0.9687
 30
0.0
 11
0.195
 21
0.9675
 31
0.0
  0
LINE
  5
246
100
AcDbEntity
100
AcDbLine
  8
BLACK
 62
256
370
-1
  6
ByLayer
 10
0.195
 20
0.9675
 30
0.0
 11
0.1962
 21
0.9651000000000001
 31
0.0
  0
LINE
  5
247
100
AcDbEntity
100
AcDbLine
  8
BLACK
 62
256
370
-1
  6
ByLayer
 10
0.1962
 20
0.9651000000000001
 30
0.0
 11
0.1973
 21
0.9604
 31
0.0
  0
LINE
  5
248
100
AcDbEntity
100
AcDbLine
  8
BLACK
 62
256
370
-1
  6
ByLayer
 10
0.1973
 20
0.9604
 30
0.0
 11
0.1973
 21
0.9544
 31
0.0
  0
LINE
  5
249
100
AcDbEntity
100
AcDbLine
  8
BLACK
 62
256
370
-1
  6
ByLayer
 10
0.1973
 20
0.9544
 30
0.0
 11
0.1962
 21
0.9496
 31
0.0
  0
LINE
  5
24A
100
AcDbEntity
100
AcDbLine
  8
BLACK
 62
256
370
-1
  6
ByLayer
 10
0.1962
 20
0.9496
 30
0.0
 11
0.195
 21
0.9473
 31
0.0
  0
LINE
  5
24B
100
AcDbEntity
100
AcDbLine
  8
BLACK
 62
256
370
-1
  6
ByLayer
 10
0.195
 20
0.9473
 30
0.0
 11
0.1938
 21
0.9461000000000001
 31
0.0
  0
LINE
  5
24C
100
AcDbEntity
100
AcDbLine
  8
BLACK
 62
256
370
-1
  6
ByLayer
 10
0.1938
 20
0.9461000000000001
 30
0.0
 11
0.1914
 21
0.9449000000000001
 31
0.0
  0
LINE
  5
24D
100
AcDbEntity
100
AcDbLine
  8
BLACK
 62
256
370
-1
  6
ByLayer
 10
0.1914
 20
0.9449000000000001
 30
0.0
 11
0.189
 21
0.9449000000000001
 31
0.0
  0
LINE
  5
24E
100
AcDbEntity
100
AcDbLine
  8
BLACK
 62
256
370
-1
  6
ByLayer
 10
0.189
 20
0.9449000000000001
 30
0.0
 11
0.1866
 21
0.9461000000000001
 31
0.0
  0
LINE
  5
24F
100
AcDbEntity
100
AcDbLine
  8
BLACK
 62
256
370
-1
  6
ByLayer
 10
0.1866
 20
0.9461000000000001
 30
0.0
 11
0.1854
 21
0.9473
 31
0.0
  0
LINE
  5
250
100
AcDbEntity
100
AcDbLine
  8
BLACK
 62
256
370
-1
  6
ByLayer
 10
0.1854
 20
0.9473
 30
0.0
 11
0.1843
 21
0.9496
 31
0.0
  0
LINE
  5
251
100
AcDbEntity
100
AcDbLine
  8
BLACK
 62
256
370
-1
  6
ByLayer
 10
0.1843
 20
0.9496
 30
0.0
 11
0.1831
 21
0.9544
 31
0.0
  0
LINE
  5
252
100
AcDbEntity
100
AcDbLine
  8
BLACK
 62
256
370
-1
  6
ByLayer
 10
0.1831
 20
0.9544
 30
0.0
 11
0.1831
 21
0.9604
 31
0.0
  0
LINE
  5
253
100
AcDbEntity
100
AcDbLine
  8
BLACK
 62
256
370
-1
  6
ByLayer
 10
0.1831
 20
0.9604
 30
0.0
 11
0.1843
 21
0.9651000000000001
 31
0.0
  0
LINE
  5
254
100
AcDbEntity
100
AcDbLine
  8
BLACK
 62
256
370
-1
  6
ByLayer
 10
0.1843
 20
0.9651000000000001
 30
0.0
 11
0.1854
 21
0.9675
 31
0.0
  0
LINE
  5
255
100
AcDbEntity
100
AcDbLine
  8
BLACK
 62
256
370
-1
  6
ByLayer
 10
0.1854
 20
0.9675
 30
0.0
 11
0.1866
 21
0.9687
 31
0.0
  0
LINE
  5
256
100
AcDbEntity
100
AcDbLine
  8
BLACK
 62
256
370
-1
  6
ByLayer
 10
0.1866
 20
0.9687
 30
0.0
 11
0.189
 21
0.9699000000000001
 31
0.0
  0
LINE
  5
257
100
AcDbEntity
100
AcDbLine
  8
BLACK
 62
256
370
-1
  6
ByLayer
 10
0.2081
 20
0.9473
 30
0.0
 11
0.2092
 21
0.9461000000000001
 31
0.0
  0
LINE
  5
258
100
AcDbEntity
100
AcDbLine
  8
BLACK
 62
256
370
-1
  6
ByLayer
 10
0.2092
 20
0.9461000000000001
 30
0.0
 11
0.2081
 21
0.9449000000000001
 31
0.0
  0
LINE
  5
259
100
AcDbEntity
100
AcDbLine
  8
BLACK
 62
256
370
-1
  6
ByLayer
 10
0.2081
 20
0.9449000000000001
 30
0.0
 11
0.2069
 21
0.9461000000000001
 31
0.0
  0
LINE
  5
25A
100
AcDbEntity
100
AcDbLine
  8
BLACK
 62
256
370
-1
  6
ByLayer
 10
0.2069
 20
0.9461000000000001
 30
0.0
 11
0.2081
 21
0.9473
 31
0.0
  0
LINE
  5
25B
100
AcDbEntity
100
AcDbLine
  8
BLACK
 62
256
370
-1
  6
ByLayer
 10
0.2081
 20
0.9473
 30
0.0
 11
0.2081
 21
0.9449000000000001
 31
0.0
  0
LINE
  5
25C
100
AcDbEntity
100
AcDbLine
  8
BLACK
 62
256
370
-1
  6
ByLayer
 10
0.233
 20
0.9449000000000001
 30
0.0
 11
0.2188
 21
0.9449000000000001
 31
0.0
  0
LINE
  5
25D
100
AcDbEntity
100
AcDbLine
  8
BLACK
 62
256
370
-1
  6
ByLayer
 10
0.2259
 20
0.9449000000000001
 30
0.0
 11
0.2259
 21
0.9699000000000001
 31
0.0
  0
LINE
  5
25E
100
AcDbEntity
100
AcDbLine
  8
BLACK
 62
256
370
-1
  6
ByLayer
 10
0.2259
 20
0.9699000000000001
 30
0.0
 11
0.2235
 21
0.9663
 31
0.0
  0
LINE
  5
25F
100
AcDbEntity
100
AcDbLine
  8
BLACK
 62
256
370
-1
  6
ByLayer
 10
0.2235
 20
0.9663
 30
0.0
 11
0.2211
 21
0.9639000000000001
 31
0.0
  0
LINE
  5
260
100
AcDbEntity
100
AcDbLine
  8
BLACK
 62
256
370
-1
  6
ByLayer
 10
0.2211
 20
0.9639000000000001
 30
0.0
 11
0.2188
 21
0.9627
 31
0.0
  0
LINE
  5
261
100
AcDbEntity
100
AcDbLine
  8
BLACK
 62
256
370
-1
  6
ByLayer
 10
0.2545
 20
0.9615
 30
0.0
 11
0.2545
 21
0.9449000000000001
 31
0.0
  0
LINE
  5
262
100
AcDbEntity
100
AcDbLine
  8
BLACK
 62
256
370
-1
  6
ByLayer
 10
0.2438
 20
0.9615
 30
0.0
 11
0.2438
 21
0.9485
 31
0.0
  0
LINE
  5
263
100
AcDbEntity
100
AcDbLine
  8
BLACK
 62
256
370
-1
  6
ByLayer
 10
0.2438
 20
0.9485
 30
0.0
 11
0.2449
 21
0.9461000000000001
 31
0.0
  0
LINE
  5
264
100
AcDbEntity
100
AcDbLine
  8
BLACK
 62
256
370
-1
  6
ByLayer
 10
0.2449
 20
0.9461000000000001
 30
0.0
 11
0.2473
 21
0.9449000000000001
 31
0.0
  0
LINE
  5
265
100
AcDbEntity
100
AcDbLine
  8
BLACK
 62
256
370
-1
  6
ByLayer
 10
0.2473
 20
0.9449000000000001
 30
0.0
 11
0.2509
 21
0.9449000000000001
 31
0.0
  0
LINE
  5
266
100
AcDbEntity
100
AcDbLine
  8
BLACK
 62
256
370
-1
  6
ByLayer
 10
0.2509
 20
0.9449000000000001
 30
0.0
 11
0.2533
 21
0.9461000000000001
 31
0.0
  0
LINE
  5
267
100
AcDbEntity
100
AcDbLine
  8
BLACK
 62
256
370
-1
  6
ByLayer
 10
0.2533
 20
0.9461000000000001
 30
0.0
 11
0.2545
 21
0.9473
 31
0.0
  0
LINE
  5
268
100
AcDbEntity
100
AcDbLine
  8
BLACK
 62
256
370
-1
  6
ByLayer
 10
0.2747
 20
0.9580000000000001
 30
0.0
 11
0.2664
 21
0.9580000000000001
 31
0.0
  0
LINE
  5
269
100
AcDbEntity
100
AcDbLine
  8
BLACK
 62
256
370
-1
  6
ByLayer
 10
0.2664
 20
0.9449000000000001
 30
0.0
 11
0.2664
 21
0.9699000000000001
 31
0.0
  0
LINE
  5
26A
100
AcDbEntity
100
AcDbLine
  8
BLACK
 62
256
370
-1
  6
ByLayer
 10
0.2664
 20
0.9699000000000001
 30
0.0
 11
0.2783
 21
0.9699000000000001
 31
0.0
  0
LINE
  5
26B
100
AcDbEntity
100
AcDbLine
  8
BLACK
 62
256
370
-1
  6
ByLayer
 10
0.5258
 20
1.0523
 30
0.0
 11
0.5246
 21
1.0511000000000001
 31
0.0
  0
LINE
  5
26C
100
AcDbEntity
100
AcDbLine
  8
BLACK
 62
256
370
-1
  6
ByLayer
 10
0.5246
 20
1.0511000000000001
 30
0.0
 11
0.5211
 21
1.0499000000000001
 31
0.0
  0
LINE
  5
26D
100
AcDbEntity
100
AcDbLine
  8
BLACK
 62
256
370
-1
  6
ByLayer
 10
0.5211
 20
1.0499000000000001
 30
0.0
 11
0.5186999999999999
 21
1.0499000000000001
 31
0.0
  0
LINE
  5
26E
100
AcDbEntity
100
AcDbLine
  8
BLACK
 62
256
370
-1
  6
ByLayer
 10
0.5186999999999999
 20
1.0499000000000001
 30
0.0
 11
0.5151
 21
1.0511000000000001
 31
0.0
  0
LINE
  5
26F
100
AcDbEntity
100
AcDbLine
  8
BLACK
 62
256
370
-1
  6
ByLayer
 10
0.5151
 20
1.0511000000000001
 30
0.0
 11
0.5126999999999999
 21
1.0535000000000001
 31
0.0
  0
LINE
  5
270
100
AcDbEntity
100
AcDbLine
  8
BLACK
 62
256
370
-1
  6
ByLayer
 10
0.5126999999999999
 20
1.0535000000000001
 30
0.0
 11
0.5116000000000001
 21
1.0558000000000001
 31
0.0
  0
LINE
  5
271
100
AcDbEntity
100
AcDbLine
  8
BLACK
 62
256
370
-1
  6
ByLayer
 10
0.5116000000000001
 20
1.0558000000000001
 30
0.0
 11
0.5104
 21
1.0606
 31
0.0
  0
LINE
  5
272
100
AcDbEntity
100
AcDbLine
  8
BLACK
 62
256
370
-1
  6
ByLayer
 10
0.5104
 20
1.0606
 30
0.0
 11
0.5104
 21
1.0642
 31
0.0
  0
LINE
  5
273
100
AcDbEntity
100
AcDbLine
  8
BLACK
 62
256
370
-1
  6
ByLayer
 10
0.5104
 20
1.0642
 30
0.0
 11
0.5116000000000001
 21
1.0689
 31
0.0
  0
LINE
  5
274
100
AcDbEntity
100
AcDbLine
  8
BLACK
 62
256
370
-1
  6
ByLayer
 10
0.5116000000000001
 20
1.0689
 30
0.0
 11
0.5126999999999999
 21
1.0713000000000001
 31
0.0
  0
LINE
  5
275
100
AcDbEntity
100
AcDbLine
  8
BLACK
 62
256
370
-1
  6
ByLayer
 10
0.5126999999999999
 20
1.0713000000000001
 30
0.0
 11
0.5151
 21
1.0737000000000001
 31
0.0
  0
LINE
  5
276
100
AcDbEntity
100
AcDbLine
  8
BLACK
 62
256
370
-1
  6
ByLayer
 10
0.5151
 20
1.0737000000000001
 30
0.0
 11
0.5186999999999999
 21
1.0749
 31
0.0
  0
LINE
  5
277
100
AcDbEntity
100
AcDbLine
  8
BLACK
 62
256
370
-1
  6
ByLayer
 10
0.5186999999999999
 20
1.0749
 30
0.0
 11
0.5211
 21
1.0749
 31
0.0
  0
LINE
  5
278
100
AcDbEntity
100
AcDbLine
  8
BLACK
 62
256
370
-1
  6
ByLayer
 10
0.5211
 20
1.0749
 30
0.0
 11
0.5246
 21
1.0737000000000001
 31
0.0
  0
LINE
  5
279
100
AcDbEntity
100
AcDbLine
  8
BLACK
 62
256
370
-1
  6
ByLayer
 10
0.5246
 20
1.0737000000000001
 30
0.0
 11
0.5258
 21
1.0725
 31
0.0
  0
LINE
  5
27A
100
AcDbEntity
100
AcDbLine
  8
BLACK
 62
256
370
-1
  6
ByLayer
 10
0.5496
 20
1.0499000000000001
 30
0.0
 11
0.5354
 21
1.0499000000000001
 31
0.0
  0
LINE
  5
27B
100
AcDbEntity
100
AcDbLine
  8
BLACK
 62
256
370
-1
  6
ByLayer
 10
0.5425
 20
1.0499000000000001
 30
0.0
 11
0.5425
 21
1.0749
 31
0.0
  0
LINE
  5
27C
100
AcDbEntity
100
AcDbLine
  8
BLACK
 62
256
370
-1
  6
ByLayer
 10
0.5425
 20
1.0749
 30
0.0
 11
0.5401
 21
1.0713000000000001
 31
0.0
  0
LINE
  5
27D
100
AcDbEntity
100
AcDbLine
  8
BLACK
 62
256
370
-1
  6
ByLayer
 10
0.5401
 20
1.0713000000000001
 30
0.0
 11
0.5377000000000001
 21
1.0689
 31
0.0
  0
LINE
  5
27E
100
AcDbEntity
100
AcDbLine
  8
BLACK
 62
256
370
-1
  6
ByLayer
 10
0.5377000000000001
 20
1.0689
 30
0.0
 11
0.5354
 21
1.0677000000000001
 31
0.0
  0
LINE
  5
27F
100
AcDbEntity
100
AcDbLine
  8
BLACK
 62
256
370
-1
  6
ByLayer
 10
0.489
 20
0.9699000000000001
 30
0.0
 11
0.4914
 21
0.9699000000000001
 31
0.0
  0
LINE
  5
280
100
AcDbEntity
100
AcDbLine
  8
BLACK
 62
256
370
-1
  6
ByLayer
 10
0.4914
 20
0.9699000000000001
 30
0.0
 11
0.4938
 21
0.9687
 31
0.0
  0
LINE
  5
281
100
AcDbEntity
100
AcDbLine
  8
BLACK
 62
256
370
-1
  6
ByLayer
 10
0.4938
 20
0.9687
 30
0.0
 11
0.495
 21
0.9675
 31
0.0
  0
LINE
  5
282
100
AcDbEntity
100
AcDbLine
  8
BLACK
 62
256
370
-1
  6
ByLayer
 10
0.495
 20
0.9675
 30
0.0
 11
0.4962
 21
0.9651000000000001
 31
0.0
  0
LINE
  5
283
100
AcDbEntity
100
AcDbLine
  8
BLACK
 62
256
370
-1
  6
ByLayer
 10
0.4962
 20
0.9651000000000001
 30
0.0
 11
0.4973
 21
0.9604
 31
0.0
  0
LINE
  5
284
100
AcDbEntity
100
AcDbLine
  8
BLACK
 62
256
370
-1
  6
ByLayer
 10
0.4973
 20
0.9604
 30
0.0
 11
0.4973
 21
0.9544
 31
0.0
  0
LINE
  5
285
100
AcDbEntity
100
AcDbLine
  8
BLACK
 62
256
370
-1
  6
ByLayer
 10
0.4973
 20
0.9544
 30
0.0
 11
0.4962
 21
0.9496
 31
0.0
  0
LINE
  5
286
100
AcDbEntity
100
AcDbLine
  8
BLACK
 62
256
370
-1
  6
ByLayer
 10
0.4962
 20
0.9496
 30
0.0
 11
0.495
 21
0.9473
 31
0.0
  0
LINE
  5
287
100
AcDbEntity
100
AcDbLine
  8
BLACK
 62
256
370
-1
  6
ByLayer
 10
0.495
 20
0.9473
 30
0.0
 11
0.4938
 21
0.9461000000000001
 31
0.0
  0
LINE
  5
288
100
AcDbEntity
100
AcDbLine
  8
BLACK
 62
256
370
-1
  6
ByLayer
 10
0.4938
 20
0.9461000000000001
 30
0.0
 11
0.4914
 21
0.9449000000000001
 31
0.0
  0
LINE
  5
289
100
AcDbEntity
100
AcDbLine
  8
BLACK
 62
256
370
-1
  6
ByLayer
 10
0.4914
 20
0.9449000000000001
 30
0.0
 11
0.489
 21
0.9449000000000001
 31
0.0
  0
LINE
  5
28A
100
AcDbEntity
100
AcDbLine
  8
BLACK
 62
256
370
-1
  6
ByLayer
 10
0.489
 20
0.9449000000000001
 30
0.0
 11
0.4866
 21
0.9461000000000001
 31
0.0
  0
LINE
  5
28B
100
AcDbEntity
100
AcDbLine
  8
BLACK
 62
256
370
-1
  6
ByLayer
 10
0.4866
 20
0.9461000000000001
 30
0.0
 11
0.4854
 21
0.9473
 31
0.0
  0
LINE
  5
28C
100
AcDbEntity
100
AcDbLine
  8
BLACK
 62
256
370
-1
  6
ByLayer
 10
0.4854
 20
0.9473
 30
0.0
 11
0.4843
 21
0.9496
 31
0.0
  0
LINE
  5
28D
100
AcDbEntity
100
AcDbLine
  8
BLACK
 62
256
370
-1
  6
ByLayer
 10
0.4843
 20
0.9496
 30
0.0
 11
0.4831
 21
0.9544
 31
0.0
  0
LINE
  5
28E
100
AcDbEntity
100
AcDbLine
  8
BLACK
 62
256
370
-1
  6
ByLayer
 10
0.4831
 20
0.9544
 30
0.0
 11
0.4831
 21
0.9604
 31
0.0
  0
LINE
  5
28F
100
AcDbEntity
100
AcDbLine
  8
BLACK
 62
256
370
-1
  6
ByLayer
 10
0.4831
 20
0.9604
 30
0.0
 11
0.4843
 21
0.9651000000000001
 31
0.0
  0
LINE
  5
290
100
AcDbEntity
100
AcDbLine
  8
BLACK
 62
256
370
-1
  6
ByLayer
 10
0.4843
 20
0.9651000000000001
 30
0.0
 11
0.4854
 21
0.9675
 31
0.0
  0
LINE
  5
291
100
AcDbEntity
100
AcDbLine
  8
BLACK
 62
256
370
-1
  6
ByLayer
 10
0.4854
 20
0.9675
 30
0.0
 11
0.4866
 21
0.9687
 31
0.0
  0
LINE
  5
292
100
AcDbEntity
100
AcDbLine
  8
BLACK
 62
256
370
-1
  6
ByLayer
 10
0.4866
 20
0.9687
 30
0.0
 11
0.489
 21
0.9699000000000001
 31
0.0
  0
LINE
  5
293
100
AcDbEntity
100
AcDbLine
  8
BLACK
 62
256
370
-1
  6
ByLayer
 10
0.5081
 20
0.9473
 30
0.0
 11
0.5092
 21
0.9461000000000001
 31
0.0
  0
LINE
  5
294
100
AcDbEntity
100
AcDbLine
  8
BLACK
 62
256
370
-1
  6
ByLayer
 10
0.5092
 20
0.9461000000000001
 30
0.0
 11
0.5081
 21
0.9449000000000001
 31
0.0
  0
LINE
  5
295
100
AcDbEntity
100
AcDbLine
  8
BLACK
 62
256
370
-1
  6
ByLayer
 10
0.5081
 20
0.9449000000000001
 30
0.0
 11
0.5069
 21
0.9461000000000001
 31
0.0
  0
LINE
  5
296
100
AcDbEntity
100
AcDbLine
  8
BLACK
 62
256
370
-1
  6
ByLayer
 10
0.5069
 20
0.9461000000000001
 30
0.0
 11
0.5081
 21
0.9473
 31
0.0
  0
LINE
  5
297
100
AcDbEntity
100
AcDbLine
  8
BLACK
 62
256
370
-1
  6
ByLayer
 10
0.5081
 20
0.9473
 30
0.0
 11
0.5081
 21
0.9449000000000001
 31
0.0
  0
LINE
  5
298
100
AcDbEntity
100
AcDbLine
  8
BLACK
 62
256
370
-1
  6
ByLayer
 10
0.533
 20
0.9449000000000001
 30
0.0
 11
0.5188
 21
0.9449000000000001
 31
0.0
  0
LINE
  5
299
100
AcDbEntity
100
AcDbLine
  8
BLACK
 62
256
370
-1
  6
ByLayer
 10
0.5259
 20
0.9449000000000001
 30
0.0
 11
0.5259
 21
0.9699000000000001
 31
0.0
  0
LINE
  5
29A
100
AcDbEntity
100
AcDbLine
  8
BLACK
 62
256
370
-1
  6
ByLayer
 10
0.5259
 20
0.9699000000000001
 30
0.0
 11
0.5235
 21
0.9663
 31
0.0
  0
LINE
  5
29B
100
AcDbEntity
100
AcDbLine
  8
BLACK
 62
256
370
-1
  6
ByLayer
 10
0.5235
 20
0.9663
 30
0.0
 11
0.5211
 21
0.9639000000000001
 31
0.0
  0
LINE
  5
29C
100
AcDbEntity
100
AcDbLine
  8
BLACK
 62
256
370
-1
  6
ByLayer
 10
0.5211
 20
0.9639000000000001
 30
0.0
 11
0.5188
 21
0.9627
 31
0.0
  0
LINE
  5
29D
100
AcDbEntity
100
AcDbLine
  8
BLACK
 62
256
370
-1
  6
ByLayer
 10
0.5545
 20
0.9615
 30
0.0
 11
0.5545
 21
0.9449000000000001
 31
0.0
  0
LINE
  5
29E
100
AcDbEntity
100
AcDbLine
  8
BLACK
 62
256
370
-1
  6
ByLayer
 10
0.5438000000000001
 20
0.9615
 30
0.0
 11
0.5438000000000001
 21
0.9485
 31
0.0
  0
LINE
  5
29F
100
AcDbEntity
100
AcDbLine
  8
BLACK
 62
256
370
-1
  6
ByLayer
 10
0.5438000000000001
 20
0.9485
 30
0.0
 11
0.5448999999999999
 21
0.9461000000000001
 31
0.0
  0
LINE
  5
2A0
100
AcDbEntity
100
AcDbLine
  8
BLACK
 62
256
370
-1
  6
ByLayer
 10
0.5448999999999999
 20
0.9461000000000001
 30
0.0
 11
0.5473
 21
0.9449000000000001
 31
0.0
  0
LINE
  5
2A1
100
AcDbEntity
100
AcDbLine
  8
BLACK
 62
256
370
-1
  6
ByLayer
 10
0.5473
 20
0.9449000000000001
 30
0.0
 11
0.5508999999999999
 21
0.9449000000000001
 31
0.0
  0
LINE
  5
2A2
100
AcDbEntity
100
AcDbLine
  8
BLACK
 62
256
370
-1
  6
ByLayer
 10
0.5508999999999999
 20
0.9449000000000001
 30
0.0
 11
0.5533
 21
0.9461000000000001
 31
0.0
  0
LINE
  5
2A3
100
AcDbEntity
100
AcDbLine
  8
BLACK
 62
256
370
-1
  6
ByLayer
 10
0.5533
 20
0.9461000000000001
 30
0.0
 11
0.5545
 21
0.9473
 31
0.0
  0
LINE
  5
2A4
100
AcDbEntity
100
AcDbLine
  8
BLACK
 62
256
370
-1
  6
ByLayer
 10
0.5747
 20
0.9580000000000001
 30
0.0
 11
0.5664
 21
0.9580000000000001
 31
0.0
  0
LINE
  5
2A5
100
AcDbEntity
100
AcDbLine
  8
BLACK
 62
256
370
-1
  6
ByLayer
 10
0.5664
 20
0.9449000000000001
 30
0.0
 11
0.5664
 21
0.9699000000000001
 31
0.0
  0
LINE
  5
2A6
100
AcDbEntity
100
AcDbLine
  8
BLACK
 62
256
370
-1
  6
ByLayer
 10
0.5664
 20
0.9699000000000001
 30
0.0
 11
0.5783
 21
0.9699000000000001
 31
0.0
  0
LINE
  5
2A7
100
AcDbEntity
100
AcDbLine
  8
BLACK
 62
256
370
-1
  6
ByLayer
 10
0.3393
 20
0.6817000000000001
 30
0.0
 11
0.305
 21
0.6817000000000001
 31
0.0
  0
LINE
  5
2A8
100
AcDbEntity
100
AcDbLine
  8
BLACK
 62
256
370
-1
  6
ByLayer
 10
0.3222
 20
0.6817000000000001
 30
0.0
 11
0.3222
 21
0.7417
 31
0.0
  0
LINE
  5
2A9
100
AcDbEntity
100
AcDbLine
  8
BLACK
 62
256
370
-1
  6
ByLayer
 10
0.3222
 20
0.7417
 30
0.0
 11
0.3165
 21
0.7331000000000001
 31
0.0
  0
LINE
  5
2AA
100
AcDbEntity
100
AcDbLine
  8
BLACK
 62
256
370
-1
  6
ByLayer
 10
0.3165
 20
0.7331000000000001
 30
0.0
 11
0.3107
 21
0.7274
 31
0.0
  0
LINE
  5
2AB
100
AcDbEntity
100
AcDbLine
  8
BLACK
 62
256
370
-1
  6
ByLayer
 10
0.3107
 20
0.7274
 30
0.0
 11
0.305
 21
0.7246
 31
0.0
  0
LINE
  5
2AC
100
AcDbEntity
100
AcDbLine
  8
BLACK
 62
256
370
-1
  6
ByLayer
 10
0.3764
 20
0.7417
 30
0.0
 11
0.3821
 21
0.7417
 31
0.0
  0
LINE
  5
2AD
100
AcDbEntity
100
AcDbLine
  8
BLACK
 62
256
370
-1
  6
ByLayer
 10
0.3821
 20
0.7417
 30
0.0
 11
0.3878
 21
0.7389
 31
0.0
  0
LINE
  5
2AE
100
AcDbEntity
100
AcDbLine
  8
BLACK
 62
256
370
-1
  6
ByLayer
 10
0.3878
 20
0.7389
 30
0.0
 11
0.3907
 21
0.736
 31
0.0
  0
LINE
  5
2AF
100
AcDbEntity
100
AcDbLine
  8
BLACK
 62
256
370
-1
  6
ByLayer
 10
0.3907
 20
0.736
 30
0.0
 11
0.3936
 21
0.7303000000000001
 31
0.0
  0
LINE
  5
2B0
100
AcDbEntity
100
AcDbLine
  8
BLACK
 62
256
370
-1
  6
ByLayer
 10
0.3936
 20
0.7303000000000001
 30
0.0
 11
0.3964
 21
0.7189
 31
0.0
  0
LINE
  5
2B1
100
AcDbEntity
100
AcDbLine
  8
BLACK
 62
256
370
-1
  6
ByLayer
 10
0.3964
 20
0.7189
 30
0.0
 11
0.3964
 21
0.7046
 31
0.0
  0
LINE
  5
2B2
100
AcDbEntity
100
AcDbLine
  8
BLACK
 62
256
370
-1
  6
ByLayer
 10
0.3964
 20
0.7046
 30
0.0
 11
0.3936
 21
0.6931
 31
0.0
  0
LINE
  5
2B3
100
AcDbEntity
100
AcDbLine
  8
BLACK
 62
256
370
-1
  6
ByLayer
 10
0.3936
 20
0.6931
 30
0.0
 11
0.3907
 21
0.6874
 31
0.0
  0
LINE
  5
2B4
100
AcDbEntity
100
AcDbLine
  8
BLACK
 62
256
370
-1
  6
ByLayer
 10
0.3907
 20
0.6874
 30
0.0
 11
0.3878
 21
0.6846
 31
0.0
  0
LINE
  5
2B5
100
AcDbEntity
100
AcDbLine
  8
BLACK
 62
256
370
-1
  6
ByLayer
 10
0.3878
 20
0.6846
 30
0.0
 11
0.3821
 21
0.6817000000000001
 31
0.0
  0
LINE
  5
2B6
100
AcDbEntity
100
AcDbLine
  8
BLACK
 62
256
370
-1
  6
ByLayer
 10
0.3821
 20
0.6817000000000001
 30
0.0
 11
0.3764
 21
0.6817000000000001
 31
0.0
  0
LINE
  5
2B7
100
AcDbEntity
100
AcDbLine
  8
BLACK
 62
256
370
-1
  6
ByLayer
 10
0.3764
 20
0.6817000000000001
 30
0.0
 11
0.3707
 21
0.6846
 31
0.0
  0
LINE
  5
2B8
100
AcDbEntity
100
AcDbLine
  8
BLACK
 62
256
370
-1
  6
ByLayer
 10
0.3707
 20
0.6846
 30
0.0
 11
0.3678
 21
0.6874
 31
0.0
  0
LINE
  5
2B9
100
AcDbEntity
100
AcDbLine
  8
BLACK
 62
256
370
-1
  6
ByLayer
 10
0.3678
 20
0.6874
 30
0.0
 11
0.365
 21
0.6931
 31
0.0
  0
LINE
  5
2BA
100
AcDbEntity
100
AcDbLine
  8
BLACK
 62
256
370
-1
  6
ByLayer
 10
0.365
 20
0.6931
 30
0.0
 11
0.3621
 21
0.7046
 31
0.0
  0
LINE
  5
2BB
100
AcDbEntity
100
AcDbLine
  8
BLACK
 62
256
370
-1
  6
ByLayer
 10
0.3621
 20
0.7046
 30
0.0
 11
0.3621
 21
0.7189
 31
0.0
  0
LINE
  5
2BC
100
AcDbEntity
100
AcDbLine
  8
BLACK
 62
256
370
-1
  6
ByLayer
 10
0.3621
 20
0.7189
 30
0.0
 11
0.365
 21
0.7303000000000001
 31
0.0
  0
LINE
  5
2BD
100
AcDbEntity
100
AcDbLine
  8
BLACK
 62
256
370
-1
  6
ByLayer
 10
0.365
 20
0.7303000000000001
 30
0.0
 11
0.3678
 21
0.736
 31
0.0
  0
LINE
  5
2BE
100
AcDbEntity
100
AcDbLine
  8
BLACK
 62
256
370
-1
  6
ByLayer
 10
0.3678
 20
0.736
 30
0.0
 11
0.3707
 21
0.7389
 31
0.0
  0
LINE
  5
2BF
100
AcDbEntity
100
AcDbLine
  8
BLACK
 62
256
370
-1
  6
ByLayer
 10
0.3707
 20
0.7389
 30
0.0
 11
0.3764
 21
0.7417
 31
0.0
  0
LINE
  5
2C0
100
AcDbEntity
100
AcDbLine
  8
BLACK
 62
256
370
-1
  6
ByLayer
 10
0.4221
 20
0.6817000000000001
 30
0.0
 11
0.4221
 21
0.7417
 31
0.0
  0
LINE
  5
2C1
100
AcDbEntity
100
AcDbLine
  8
BLACK
 62
256
370
-1
  6
ByLayer
 10
0.4278
 20
0.7046
 30
0.0
 11
0.4449
 21
0.6817000000000001
 31
0.0
  0
LINE
  5
2C2
100
AcDbEntity
100
AcDbLine
  8
BLACK
 62
256
370
-1
  6
ByLayer
 10
0.4449
 20
0.7217
 30
0.0
 11
0.4221
 21
0.6989000000000001
 31
0.0
  0
LINE
  5
2C3
100
AcDbEntity
100
AcDbLine
  8
BLACK
 62
256
370
-1
  6
ByLayer
 10
0.1601
 20
0.7808
 30
0.0
 11
0.1482
 21
0.7725000000000001
 31
0.0
  0
LINE
  5
2C4
100
AcDbEntity
100
AcDbLine
  8
BLACK
 62
256
370
-1
  6
ByLayer
 10
0.1601
 20
0.7666000000000001
 30
0.0
 11
0.1351
 21
0.7666000000000001
 31
0.0
  0
LINE
  5
2C5
100
AcDbEntity
100
AcDbLine
  8
BLACK
 62
256
370
-1
  6
ByLayer
 10
0.1351
 20
0.7666000000000001
 30
0.0
 11
0.1351
 21
0.7761
 31
0.0
  0
LINE
  5
2C6
100
AcDbEntity
100
AcDbLine
  8
BLACK
 62
256
370
-1
  6
ByLayer
 10
0.1351
 20
0.7761
 30
0.0
 11
0.1363
 21
0.7785000000000001
 31
0.0
  0
LINE
  5
2C7
100
AcDbEntity
100
AcDbLine
  8
BLACK
 62
256
370
-1
  6
ByLayer
 10
0.1363
 20
0.7785000000000001
 30
0.0
 11
0.1375
 21
0.7796000000000001
 31
0.0
  0
LINE
  5
2C8
100
AcDbEntity
100
AcDbLine
  8
BLACK
 62
256
370
-1
  6
ByLayer
 10
0.1375
 20
0.7796000000000001
 30
0.0
 11
0.1399
 21
0.7808
 31
0.0
  0
LINE
  5
2C9
100
AcDbEntity
100
AcDbLine
  8
BLACK
 62
256
370
-1
  6
ByLayer
 10
0.1399
 20
0.7808
 30
0.0
 11
0.1435
 21
0.7808
 31
0.0
  0
LINE
  5
2CA
100
AcDbEntity
100
AcDbLine
  8
BLACK
 62
256
370
-1
  6
ByLayer
 10
0.1435
 20
0.7808
 30
0.0
 11
0.1458
 21
0.7796000000000001
 31
0.0
  0
LINE
  5
2CB
100
AcDbEntity
100
AcDbLine
  8
BLACK
 62
256
370
-1
  6
ByLayer
 10
0.1458
 20
0.7796000000000001
 30
0.0
 11
0.147
 21
0.7785000000000001
 31
0.0
  0
LINE
  5
2CC
100
AcDbEntity
100
AcDbLine
  8
BLACK
 62
256
370
-1
  6
ByLayer
 10
0.147
 20
0.7785000000000001
 30
0.0
 11
0.1482
 21
0.7761
 31
0.0
  0
LINE
  5
2CD
100
AcDbEntity
100
AcDbLine
  8
BLACK
 62
256
370
-1
  6
ByLayer
 10
0.1482
 20
0.7761
 30
0.0
 11
0.1482
 21
0.7666000000000001
 31
0.0
  0
LINE
  5
2CE
100
AcDbEntity
100
AcDbLine
  8
BLACK
 62
256
370
-1
  6
ByLayer
 10
0.1351
 20
0.7892
 30
0.0
 11
0.1351
 21
0.8058000000000001
 31
0.0
  0
LINE
  5
2CF
100
AcDbEntity
100
AcDbLine
  8
BLACK
 62
256
370
-1
  6
ByLayer
 10
0.1351
 20
0.8058000000000001
 30
0.0
 11
0.1601
 21
0.7951
 31
0.0
  0
LINE
  5
2D0
100
AcDbEntity
100
AcDbLine
  8
BLACK
 62
256
370
-1
  6
ByLayer
 10
0.0151
 20
0.7562
 30
0.0
 11
0.0151
 21
0.7443000000000001
 31
0.0
  0
LINE
  5
2D1
100
AcDbEntity
100
AcDbLine
  8
BLACK
 62
256
370
-1
  6
ByLayer
 10
0.0151
 20
0.7443000000000001
 30
0.0
 11
0.027
 21
0.7431
 31
0.0
  0
LINE
  5
2D2
100
AcDbEntity
100
AcDbLine
  8
BLACK
 62
256
370
-1
  6
ByLayer
 10
0.027
 20
0.7431
 30
0.0
 11
0.0258
 21
0.7443000000000001
 31
0.0
  0
LINE
  5
2D3
100
AcDbEntity
100
AcDbLine
  8
BLACK
 62
256
370
-1
  6
ByLayer
 10
0.0258
 20
0.7443000000000001
 30
0.0
 11
0.0246
 21
0.7466
 31
0.0
  0
LINE
  5
2D4
100
AcDbEntity
100
AcDbLine
  8
BLACK
 62
256
370
-1
  6
ByLayer
 10
0.0246
 20
0.7466
 30
0.0
 11
0.0246
 21
0.7526
 31
0.0
  0
LINE
  5
2D5
100
AcDbEntity
100
AcDbLine
  8
BLACK
 62
256
370
-1
  6
ByLayer
 10
0.0246
 20
0.7526
 30
0.0
 11
0.0258
 21
0.755
 31
0.0
  0
LINE
  5
2D6
100
AcDbEntity
100
AcDbLine
  8
BLACK
 62
256
370
-1
  6
ByLayer
 10
0.0258
 20
0.755
 30
0.0
 11
0.027
 21
0.7562
 31
0.0
  0
LINE
  5
2D7
100
AcDbEntity
100
AcDbLine
  8
BLACK
 62
256
370
-1
  6
ByLayer
 10
0.027
 20
0.7562
 30
0.0
 11
0.0294
 21
0.7573000000000001
 31
0.0
  0
LINE
  5
2D8
100
AcDbEntity
100
AcDbLine
  8
BLACK
 62
256
370
-1
  6
ByLayer
 10
0.0294
 20
0.7573000000000001
 30
0.0
 11
0.0354
 21
0.7573000000000001
 31
0.0
  0
LINE
  5
2D9
100
AcDbEntity
100
AcDbLine
  8
BLACK
 62
256
370
-1
  6
ByLayer
 10
0.0354
 20
0.7573000000000001
 30
0.0
 11
0.0377
 21
0.7562
 31
0.0
  0
LINE
  5
2DA
100
AcDbEntity
100
AcDbLine
  8
BLACK
 62
256
370
-1
  6
ByLayer
 10
0.0377
 20
0.7562
 30
0.0
 11
0.0389
 21
0.755
 31
0.0
  0
LINE
  5
2DB
100
AcDbEntity
100
AcDbLine
  8
BLACK
 62
256
370
-1
  6
ByLayer
 10
0.0389
 20
0.755
 30
0.0
 11
0.0401
 21
0.7526
 31
0.0
  0
LINE
  5
2DC
100
AcDbEntity
100
AcDbLine
  8
BLACK
 62
256
370
-1
  6
ByLayer
 10
0.0401
 20
0.7526
 30
0.0
 11
0.0401
 21
0.7466
 31
0.0
  0
LINE
  5
2DD
100
AcDbEntity
100
AcDbLine
  8
BLACK
 62
256
370
-1
  6
ByLayer
 10
0.0401
 20
0.7466
 30
0.0
 11
0.0389
 21
0.7443000000000001
 31
0.0
  0
LINE
  5
2DE
100
AcDbEntity
100
AcDbLine
  8
BLACK
 62
256
370
-1
  6
ByLayer
 10
0.0389
 20
0.7443000000000001
 30
0.0
 11
0.0377
 21
0.7431
 31
0.0
  0
LINE
  5
2DF
100
AcDbEntity
100
AcDbLine
  8
BLACK
 62
256
370
-1
  6
ByLayer
 10
0.0377
 20
0.7681
 30
0.0
 11
0.0389
 21
0.7692
 31
0.0
  0
LINE
  5
2E0
100
AcDbEntity
100
AcDbLine
  8
BLACK
 62
256
370
-1
  6
ByLayer
 10
0.0389
 20
0.7692
 30
0.0
 11
0.0401
 21
0.7681
 31
0.0
  0
LINE
  5
2E1
100
AcDbEntity
100
AcDbLine
  8
BLACK
 62
256
370
-1
  6
ByLayer
 10
0.0401
 20
0.7681
 30
0.0
 11
0.0389
 21
0.7669
 31
0.0
  0
LINE
  5
2E2
100
AcDbEntity
100
AcDbLine
  8
BLACK
 62
256
370
-1
  6
ByLayer
 10
0.0389
 20
0.7669
 30
0.0
 11
0.0377
 21
0.7681
 31
0.0
  0
LINE
  5
2E3
100
AcDbEntity
100
AcDbLine
  8
BLACK
 62
256
370
-1
  6
ByLayer
 10
0.0377
 20
0.7681
 30
0.0
 11
0.0401
 21
0.7681
 31
0.0
  0
LINE
  5
2E4
100
AcDbEntity
100
AcDbLine
  8
BLACK
 62
256
370
-1
  6
ByLayer
 10
0.0235
 20
0.7907000000000001
 30
0.0
 11
0.0401
 21
0.7907000000000001
 31
0.0
  0
LINE
  5
2E5
100
AcDbEntity
100
AcDbLine
  8
BLACK
 62
256
370
-1
  6
ByLayer
 10
0.0139
 20
0.7847000000000001
 30
0.0
 11
0.0318
 21
0.7788
 31
0.0
  0
LINE
  5
2E6
100
AcDbEntity
100
AcDbLine
  8
BLACK
 62
256
370
-1
  6
ByLayer
 10
0.0318
 20
0.7788
 30
0.0
 11
0.0318
 21
0.7942
 31
0.0
  0
LINE
  5
2E7
100
AcDbEntity
100
AcDbLine
  8
BLACK
 62
256
370
-1
  6
ByLayer
 10
0.0401
 20
0.8049000000000001
 30
0.0
 11
0.0401
 21
0.8097000000000001
 31
0.0
  0
LINE
  5
2E8
100
AcDbEntity
100
AcDbLine
  8
BLACK
 62
256
370
-1
  6
ByLayer
 10
0.0401
 20
0.8097000000000001
 30
0.0
 11
0.0389
 21
0.8121
 31
0.0
  0
LINE
  5
2E9
100
AcDbEntity
100
AcDbLine
  8
BLACK
 62
256
370
-1
  6
ByLayer
 10
0.0389
 20
0.8121
 30
0.0
 11
0.0377
 21
0.8133
 31
0.0
  0
LINE
  5
2EA
100
AcDbEntity
100
AcDbLine
  8
BLACK
 62
256
370
-1
  6
ByLayer
 10
0.0377
 20
0.8133
 30
0.0
 11
0.0342
 21
0.8157000000000001
 31
0.0
  0
LINE
  5
2EB
100
AcDbEntity
100
AcDbLine
  8
BLACK
 62
256
370
-1
  6
ByLayer
 10
0.0342
 20
0.8157000000000001
 30
0.0
 11
0.0294
 21
0.8168000000000001
 31
0.0
  0
LINE
  5
2EC
100
AcDbEntity
100
AcDbLine
  8
BLACK
 62
256
370
-1
  6
ByLayer
 10
0.0294
 20
0.8168000000000001
 30
0.0
 11
0.0199
 21
0.8168000000000001
 31
0.0
  0
LINE
  5
2ED
100
AcDbEntity
100
AcDbLine
  8
BLACK
 62
256
370
-1
  6
ByLayer
 10
0.0199
 20
0.8168000000000001
 30
0.0
 11
0.0175
 21
0.8157000000000001
 31
0.0
  0
LINE
  5
2EE
100
AcDbEntity
100
AcDbLine
  8
BLACK
 62
256
370
-1
  6
ByLayer
 10
0.0175
 20
0.8157000000000001
 30
0.0
 11
0.0163
 21
0.8145
 31
0.0
  0
LINE
  5
2EF
100
AcDbEntity
100
AcDbLine
  8
BLACK
 62
256
370
-1
  6
ByLayer
 10
0.0163
 20
0.8145
 30
0.0
 11
0.0151
 21
0.8121
 31
0.0
  0
LINE
  5
2F0
100
AcDbEntity
100
AcDbLine
  8
BLACK
 62
256
370
-1
  6
ByLayer
 10
0.0151
 20
0.8121
 30
0.0
 11
0.0151
 21
0.8073
 31
0.0
  0
LINE
  5
2F1
100
AcDbEntity
100
AcDbLine
  8
BLACK
 62
256
370
-1
  6
ByLayer
 10
0.0151
 20
0.8073
 30
0.0
 11
0.0163
 21
0.8049000000000001
 31
0.0
  0
LINE
  5
2F2
100
AcDbEntity
100
AcDbLine
  8
BLACK
 62
256
370
-1
  6
ByLayer
 10
0.0163
 20
0.8049000000000001
 30
0.0
 11
0.0175
 21
0.8038000000000001
 31
0.0
  0
LINE
  5
2F3
100
AcDbEntity
100
AcDbLine
  8
BLACK
 62
256
370
-1
  6
ByLayer
 10
0.0175
 20
0.8038000000000001
 30
0.0
 11
0.0199
 21
0.8026000000000001
 31
0.0
  0
LINE
  5
2F4
100
AcDbEntity
100
AcDbLine
  8
BLACK
 62
256
370
-1
  6
ByLayer
 10
0.0199
 20
0.8026000000000001
 30
0.0
 11
0.0258
 21
0.8026000000000001
 31
0.0
  0
LINE
  5
2F5
100
AcDbEntity
100
AcDbLine
  8
BLACK
 62
256
370
-1
  6
ByLayer
 10
0.0258
 20
0.8026000000000001
 30
0.0
 11
0.0282
 21
0.8038000000000001
 31
0.0
  0
LINE
  5
2F6
100
AcDbEntity
100
AcDbLine
  8
BLACK
 62
256
370
-1
  6
ByLayer
 10
0.0282
 20
0.8038000000000001
 30
0.0
 11
0.0294
 21
0.8049000000000001
 31
0.0
  0
LINE
  5
2F7
100
AcDbEntity
100
AcDbLine
  8
BLACK
 62
256
370
-1
  6
ByLayer
 10
0.0294
 20
0.8049000000000001
 30
0.0
 11
0.0306
 21
0.8073
 31
0.0
  0
LINE
  5
2F8
100
AcDbEntity
100
AcDbLine
  8
BLACK
 62
256
370
-1
  6
ByLayer
 10
0.0306
 20
0.8073
 30
0.0
 11
0.0306
 21
0.8121
 31
0.0
  0
LINE
  5
2F9
100
AcDbEntity
100
AcDbLine
  8
BLACK
 62
256
370
-1
  6
ByLayer
 10
0.0306
 20
0.8121
 30
0.0
 11
0.0294
 21
0.8145
 31
0.0
  0
LINE
  5
2FA
100
AcDbEntity
100
AcDbLine
  8
BLACK
 62
256
370
-1
  6
ByLayer
 10
0.0294
 20
0.8145
 30
0.0
 11
0.0282
 21
0.8157000000000001
 31
0.0
  0
LINE
  5
2FB
100
AcDbEntity
100
AcDbLine
  8
BLACK
 62
256
370
-1
  6
ByLayer
 10
0.0282
 20
0.8157000000000001
 30
0.0
 11
0.0258
 21
0.8168000000000001
 31
0.0
  0
LINE
  5
2FC
100
AcDbEntity
100
AcDbLine
  8
BLACK
 62
256
370
-1
  6
ByLayer
 10
0.0401
 20
0.8276
 30
0.0
 11
0.0151
 21
0.8276
 31
0.0
  0
LINE
  5
2FD
100
AcDbEntity
100
AcDbLine
  8
BLACK
 62
256
370
-1
  6
ByLayer
 10
0.0306
 20
0.8299000000000001
 30
0.0
 11
0.0401
 21
0.8371000000000001
 31
0.0
  0
LINE
  5
2FE
100
AcDbEntity
100
AcDbLine
  8
BLACK
 62
256
370
-1
  6
ByLayer
 10
0.0235
 20
0.8371000000000001
 30
0.0
 11
0.033
 21
0.8276
 31
0.0
  0
LINE
  5
2FF
100
AcDbEntity
100
AcDbLine
  8
BLACK
 62
256
370
-1
  6
ByLayer
 10
0.0858
 20
0.8899
 30
0.0
 11
0.0775
 21
0.9018
 31
0.0
  0
LINE
  5
300
100
AcDbEntity
100
AcDbLine
  8
BLACK
 62
256
370
-1
  6
ByLayer
 10
0.0716
 20
0.8899
 30
0.0
 11
0.0716
 21
0.9149
 31
0.0
  0
LINE
  5
301
100
AcDbEntity
100
AcDbLine
  8
BLACK
 62
256
370
-1
  6
ByLayer
 10
0.0716
 20
0.9149
 30
0.0
 11
0.0811
 21
0.9149
 31
0.0
  0
LINE
  5
302
100
AcDbEntity
100
AcDbLine
  8
BLACK
 62
256
370
-1
  6
ByLayer
 10
0.0811
 20
0.9149
 30
0.0
 11
0.0835
 21
0.9137000000000001
 31
0.0
  0
LINE
  5
303
100
AcDbEntity
100
AcDbLine
  8
BLACK
 62
256
370
-1
  6
ByLayer
 10
0.0835
 20
0.9137000000000001
 30
0.0
 11
0.0846
 21
0.9125000000000001
 31
0.0
  0
LINE
  5
304
100
AcDbEntity
100
AcDbLine
  8
BLACK
 62
256
370
-1
  6
ByLayer
 10
0.0846
 20
0.9125000000000001
 30
0.0
 11
0.0858
 21
0.9101
 31
0.0
  0
LINE
  5
305
100
AcDbEntity
100
AcDbLine
  8
BLACK
 62
256
370
-1
  6
ByLayer
 10
0.0858
 20
0.9101
 30
0.0
 11
0.0858
 21
0.9065000000000001
 31
0.0
  0
LINE
  5
306
100
AcDbEntity
100
AcDbLine
  8
BLACK
 62
256
370
-1
  6
ByLayer
 10
0.0858
 20
0.9065000000000001
 30
0.0
 11
0.0846
 21
0.9042
 31
0.0
  0
LINE
  5
307
100
AcDbEntity
100
AcDbLine
  8
BLACK
 62
256
370
-1
  6
ByLayer
 10
0.0846
 20
0.9042
 30
0.0
 11
0.0835
 21
0.903
 31
0.0
  0
LINE
  5
308
100
AcDbEntity
100
AcDbLine
  8
BLACK
 62
256
370
-1
  6
ByLayer
 10
0.0835
 20
0.903
 30
0.0
 11
0.0811
 21
0.9018
 31
0.0
  0
LINE
  5
309
100
AcDbEntity
100
AcDbLine
  8
BLACK
 62
256
370
-1
  6
ByLayer
 10
0.0811
 20
0.9018
 30
0.0
 11
0.0716
 21
0.9018
 31
0.0
  0
LINE
  5
30A
100
AcDbEntity
100
AcDbLine
  8
BLACK
 62
256
370
-1
  6
ByLayer
 10
0.1073
 20
0.9149
 30
0.0
 11
0.1025
 21
0.9149
 31
0.0
  0
LINE
  5
30B
100
AcDbEntity
100
AcDbLine
  8
BLACK
 62
256
370
-1
  6
ByLayer
 10
0.1025
 20
0.9149
 30
0.0
 11
0.1001
 21
0.9137000000000001
 31
0.0
  0
LINE
  5
30C
100
AcDbEntity
100
AcDbLine
  8
BLACK
 62
256
370
-1
  6
ByLayer
 10
0.1001
 20
0.9137000000000001
 30
0.0
 11
0.0989
 21
0.9125000000000001
 31
0.0
  0
LINE
  5
30D
100
AcDbEntity
100
AcDbLine
  8
BLACK
 62
256
370
-1
  6
ByLayer
 10
0.0989
 20
0.9125000000000001
 30
0.0
 11
0.0966
 21
0.9089
 31
0.0
  0
LINE
  5
30E
100
AcDbEntity
100
AcDbLine
  8
BLACK
 62
256
370
-1
  6
ByLayer
 10
0.0966
 20
0.9089
 30
0.0
 11
0.0954
 21
0.9042
 31
0.0
  0
LINE
  5
30F
100
AcDbEntity
100
AcDbLine
  8
BLACK
 62
256
370
-1
  6
ByLayer
 10
0.0954
 20
0.9042
 30
0.0
 11
0.0954
 21
0.8946000000000001
 31
0.0
  0
LINE
  5
310
100
AcDbEntity
100
AcDbLine
  8
BLACK
 62
256
370
-1
  6
ByLayer
 10
0.0954
 20
0.8946000000000001
 30
0.0
 11
0.0966
 21
0.8923000000000001
 31
0.0
  0
LINE
  5
311
100
AcDbEntity
100
AcDbLine
  8
BLACK
 62
256
370
-1
  6
ByLayer
 10
0.0966
 20
0.8923000000000001
 30
0.0
 11
0.0977
 21
0.8911
 31
0.0
  0
LINE
  5
312
100
AcDbEntity
100
AcDbLine
  8
BLACK
 62
256
370
-1
  6
ByLayer
 10
0.0977
 20
0.8911
 30
0.0
 11
0.1001
 21
0.8899
 31
0.0
  0
LINE
  5
313
100
AcDbEntity
100
AcDbLine
  8
BLACK
 62
256
370
-1
  6
ByLayer
 10
0.1001
 20
0.8899
 30
0.0
 11
0.1049
 21
0.8899
 31
0.0
  0
LINE
  5
314
100
AcDbEntity
100
AcDbLine
  8
BLACK
 62
256
370
-1
  6
ByLayer
 10
0.1049
 20
0.8899
 30
0.0
 11
0.1073
 21
0.8911
 31
0.0
  0
LINE
  5
315
100
AcDbEntity
100
AcDbLine
  8
BLACK
 62
256
370
-1
  6
ByLayer
 10
0.1073
 20
0.8911
 30
0.0
 11
0.1085
 21
0.8923000000000001
 31
0.0
  0
LINE
  5
316
100
AcDbEntity
100
AcDbLine
  8
BLACK
 62
256
370
-1
  6
ByLayer
 10
0.1085
 20
0.8923000000000001
 30
0.0
 11
0.1096
 21
0.8946000000000001
 31
0.0
  0
LINE
  5
317
100
AcDbEntity
100
AcDbLine
  8
BLACK
 62
256
370
-1
  6
ByLayer
 10
0.1096
 20
0.8946000000000001
 30
0.0
 11
0.1096
 21
0.9006000000000001
 31
0.0
  0
LINE
  5
318
100
AcDbEntity
100
AcDbLine
  8
BLACK
 62
256
370
-1
  6
ByLayer
 10
0.1096
 20
0.9006000000000001
 30
0.0
 11
0.1085
 21
0.903
 31
0.0
  0
LINE
  5
319
100
AcDbEntity
100
AcDbLine
  8
BLACK
 62
256
370
-1
  6
ByLayer
 10
0.1085
 20
0.903
 30
0.0
 11
0.1073
 21
0.9042
 31
0.0
  0
LINE
  5
31A
100
AcDbEntity
100
AcDbLine
  8
BLACK
 62
256
370
-1
  6
ByLayer
 10
0.1073
 20
0.9042
 30
0.0
 11
0.1049
 21
0.9054000000000001
 31
0.0
  0
LINE
  5
31B
100
AcDbEntity
100
AcDbLine
  8
BLACK
 62
256
370
-1
  6
ByLayer
 10
0.1049
 20
0.9054000000000001
 30
0.0
 11
0.1001
 21
0.9054000000000001
 31
0.0
  0
LINE
  5
31C
100
AcDbEntity
100
AcDbLine
  8
BLACK
 62
256
370
-1
  6
ByLayer
 10
0.1001
 20
0.9054000000000001
 30
0.0
 11
0.0977
 21
0.9042
 31
0.0
  0
LINE
  5
31D
100
AcDbEntity
100
AcDbLine
  8
BLACK
 62
256
370
-1
  6
ByLayer
 10
0.0977
 20
0.9042
 30
0.0
 11
0.0966
 21
0.903
 31
0.0
  0
LINE
  5
31E
100
AcDbEntity
100
AcDbLine
  8
BLACK
 62
256
370
-1
  6
ByLayer
 10
0.0966
 20
0.903
 30
0.0
 11
0.0954
 21
0.9006000000000001
 31
0.0
  0
LINE
  5
31F
100
AcDbEntity
100
AcDbLine
  8
BLACK
 62
256
370
-1
  6
ByLayer
 10
0.0151
 20
0.9790000000000001
 30
0.0
 11
0.0151
 21
0.9671000000000001
 31
0.0
  0
LINE
  5
320
100
AcDbEntity
100
AcDbLine
  8
BLACK
 62
256
370
-1
  6
ByLayer
 10
0.0151
 20
0.9671000000000001
 30
0.0
 11
0.027
 21
0.9659000000000001
 31
0.0
  0
LINE
  5
321
100
AcDbEntity
100
AcDbLine
  8
BLACK
 62
256
370
-1
  6
ByLayer
 10
0.027
 20
0.9659000000000001
 30
0.0
 11
0.0258
 21
0.9671000000000001
 31
0.0
  0
LINE
  5
322
100
AcDbEntity
100
AcDbLine
  8
BLACK
 62
256
370
-1
  6
ByLayer
 10
0.0258
 20
0.9671000000000001
 30
0.0
 11
0.0246
 21
0.9694
 31
0.0
  0
LINE
  5
323
100
AcDbEntity
100
AcDbLine
  8
BLACK
 62
256
370
-1
  6
ByLayer
 10
0.0246
 20
0.9694
 30
0.0
 11
0.0246
 21
0.9754
 31
0.0
  0
LINE
  5
324
100
AcDbEntity
100
AcDbLine
  8
BLACK
 62
256
370
-1
  6
ByLayer
 10
0.0246
 20
0.9754
 30
0.0
 11
0.0258
 21
0.9778
 31
0.0
  0
LINE
  5
325
100
AcDbEntity
100
AcDbLine
  8
BLACK
 62
256
370
-1
  6
ByLayer
 10
0.0258
 20
0.9778
 30
0.0
 11
0.027
 21
0.9790000000000001
 31
0.0
  0
LINE
  5
326
100
AcDbEntity
100
AcDbLine
  8
BLACK
 62
256
370
-1
  6
ByLayer
 10
0.027
 20
0.9790000000000001
 30
0.0
 11
0.0294
 21
0.9801000000000001
 31
0.0
  0
LINE
  5
327
100
AcDbEntity
100
AcDbLine
  8
BLACK
 62
256
370
-1
  6
ByLayer
 10
0.0294
 20
0.9801000000000001
 30
0.0
 11
0.0354
 21
0.9801000000000001
 31
0.0
  0
LINE
  5
328
100
AcDbEntity
100
AcDbLine
  8
BLACK
 62
256
370
-1
  6
ByLayer
 10
0.0354
 20
0.9801000000000001
 30
0.0
 11
0.0377
 21
0.9790000000000001
 31
0.0
  0
LINE
  5
329
100
AcDbEntity
100
AcDbLine
  8
BLACK
 62
256
370
-1
  6
ByLayer
 10
0.0377
 20
0.9790000000000001
 30
0.0
 11
0.0389
 21
0.9778
 31
0.0
  0
LINE
  5
32A
100
AcDbEntity
100
AcDbLine
  8
BLACK
 62
256
370
-1
  6
ByLayer
 10
0.0389
 20
0.9778
 30
0.0
 11
0.0401
 21
0.9754
 31
0.0
  0
LINE
  5
32B
100
AcDbEntity
100
AcDbLine
  8
BLACK
 62
256
370
-1
  6
ByLayer
 10
0.0401
 20
0.9754
 30
0.0
 11
0.0401
 21
0.9694
 31
0.0
  0
LINE
  5
32C
100
AcDbEntity
100
AcDbLine
  8
BLACK
 62
256
370
-1
  6
ByLayer
 10
0.0401
 20
0.9694
 30
0.0
 11
0.0389
 21
0.9671000000000001
 31
0.0
  0
LINE
  5
32D
100
AcDbEntity
100
AcDbLine
  8
BLACK
 62
256
370
-1
  6
ByLayer
 10
0.0389
 20
0.9671000000000001
 30
0.0
 11
0.0377
 21
0.9659000000000001
 31
0.0
  0
LINE
  5
32E
100
AcDbEntity
100
AcDbLine
  8
BLACK
 62
256
370
-1
  6
ByLayer
 10
0.0151
 20
0.9956
 30
0.0
 11
0.0151
 21
0.998
 31
0.0
  0
LINE
  5
32F
100
AcDbEntity
100
AcDbLine
  8
BLACK
 62
256
370
-1
  6
ByLayer
 10
0.0151
 20
0.998
 30
0.0
 11
0.0163
 21
1.0004
 31
0.0
  0
LINE
  5
330
100
AcDbEntity
100
AcDbLine
  8
BLACK
 62
256
370
-1
  6
ByLayer
 10
0.0163
 20
1.0004
 30
0.0
 11
0.0175
 21
1.0016
 31
0.0
  0
LINE
  5
331
100
AcDbEntity
100
AcDbLine
  8
BLACK
 62
256
370
-1
  6
ByLayer
 10
0.0175
 20
1.0016
 30
0.0
 11
0.0199
 21
1.0028000000000001
 31
0.0
  0
LINE
  5
332
100
AcDbEntity
100
AcDbLine
  8
BLACK
 62
256
370
-1
  6
ByLayer
 10
0.0199
 20
1.0028000000000001
 30
0.0
 11
0.0246
 21
1.0039
 31
0.0
  0
LINE
  5
333
100
AcDbEntity
100
AcDbLine
  8
BLACK
 62
256
370
-1
  6
ByLayer
 10
0.0246
 20
1.0039
 30
0.0
 11
0.0306
 21
1.0039
 31
0.0
  0
LINE
  5
334
100
AcDbEntity
100
AcDbLine
  8
BLACK
 62
256
370
-1
  6
ByLayer
 10
0.0306
 20
1.0039
 30
0.0
 11
0.0354
 21
1.0028000000000001
 31
0.0
  0
LINE
  5
335
100
AcDbEntity
100
AcDbLine
  8
BLACK
 62
256
370
-1
  6
ByLayer
 10
0.0354
 20
1.0028000000000001
 30
0.0
 11
0.0377
 21
1.0016
 31
0.0
  0
LINE
  5
336
100
AcDbEntity
100
AcDbLine
  8
BLACK
 62
256
370
-1
  6
ByLayer
 10
0.0377
 20
1.0016
 30
0.0
 11
0.0389
 21
1.0004
 31
0.0
  0
LINE
  5
337
100
AcDbEntity
100
AcDbLine
  8
BLACK
 62
256
370
-1
  6
ByLayer
 10
0.0389
 20
1.0004
 30
0.0
 11
0.0401
 21
0.998
 31
0.0
  0
LINE
  5
338
100
AcDbEntity
100
AcDbLine
  8
BLACK
 62
256
370
-1
  6
ByLayer
 10
0.0401
 20
0.998
 30
0.0
 11
0.0401
 21
0.9956
 31
0.0
  0
LINE
  5
339
100
AcDbEntity
100
AcDbLine
  8
BLACK
 62
256
370
-1
  6
ByLayer
 10
0.0401
 20
0.9956
 30
0.0
 11
0.0389
 21
0.9932000000000001
 31
0.0
  0
LINE
  5
33A
100
AcDbEntity
100
AcDbLine
  8
BLACK
 62
256
370
-1
  6
ByLayer
 10
0.0389
 20
0.9932000000000001
 30
0.0
 11
0.0377
 21
0.992
 31
0.0
  0
LINE
  5
33B
100
AcDbEntity
100
AcDbLine
  8
BLACK
 62
256
370
-1
  6
ByLayer
 10
0.0377
 20
0.992
 30
0.0
 11
0.0354
 21
0.9909
 31
0.0
  0
LINE
  5
33C
100
AcDbEntity
100
AcDbLine
  8
BLACK
 62
256
370
-1
  6
ByLayer
 10
0.0354
 20
0.9909
 30
0.0
 11
0.0306
 21
0.9897
 31
0.0
  0
LINE
  5
33D
100
AcDbEntity
100
AcDbLine
  8
BLACK
 62
256
370
-1
  6
ByLayer
 10
0.0306
 20
0.9897
 30
0.0
 11
0.0246
 21
0.9897
 31
0.0
  0
LINE
  5
33E
100
AcDbEntity
100
AcDbLine
  8
BLACK
 62
256
370
-1
  6
ByLayer
 10
0.0246
 20
0.9897
 30
0.0
 11
0.0199
 21
0.9909
 31
0.0
  0
LINE
  5
33F
100
AcDbEntity
100
AcDbLine
  8
BLACK
 62
256
370
-1
  6
ByLayer
 10
0.0199
 20
0.9909
 30
0.0
 11
0.0175
 21
0.992
 31
0.0
  0
LINE
  5
340
100
AcDbEntity
100
AcDbLine
  8
BLACK
 62
256
370
-1
  6
ByLayer
 10
0.0175
 20
0.992
 30
0.0
 11
0.0163
 21
0.9932000000000001
 31
0.0
  0
LINE
  5
341
100
AcDbEntity
100
AcDbLine
  8
BLACK
 62
256
370
-1
  6
ByLayer
 10
0.0163
 20
0.9932000000000001
 30
0.0
 11
0.0151
 21
0.9956
 31
0.0
  0
LINE
  5
342
100
AcDbEntity
100
AcDbLine
  8
BLACK
 62
256
370
-1
  6
ByLayer
 10
0.0401
 20
1.0147000000000002
 30
0.0
 11
0.0151
 21
1.0147000000000002
 31
0.0
  0
LINE
  5
343
100
AcDbEntity
100
AcDbLine
  8
BLACK
 62
256
370
-1
  6
ByLayer
 10
0.0306
 20
1.0170000000000001
 30
0.0
 11
0.0401
 21
1.0242
 31
0.0
  0
LINE
  5
344
100
AcDbEntity
100
AcDbLine
  8
BLACK
 62
256
370
-1
  6
ByLayer
 10
0.0235
 20
1.0242
 30
0.0
 11
0.033
 21
1.0147000000000002
 31
0.0
  0
LINE
  5
345
100
AcDbEntity
100
AcDbLine
  8
BLACK
 62
256
370
-1
  6
ByLayer
 10
0.3708
 20
0.9699000000000001
 30
0.0
 11
0.3625
 21
0.9818
 31
0.0
  0
LINE
  5
346
100
AcDbEntity
100
AcDbLine
  8
BLACK
 62
256
370
-1
  6
ByLayer
 10
0.3566
 20
0.9699000000000001
 30
0.0
 11
0.3566
 21
0.9949
 31
0.0
  0
LINE
  5
347
100
AcDbEntity
100
AcDbLine
  8
BLACK
 62
256
370
-1
  6
ByLayer
 10
0.3566
 20
0.9949
 30
0.0
 11
0.3661
 21
0.9949
 31
0.0
  0
LINE
  5
348
100
AcDbEntity
100
AcDbLine
  8
BLACK
 62
256
370
-1
  6
ByLayer
 10
0.3661
 20
0.9949
 30
0.0
 11
0.3685
 21
0.9937
 31
0.0
  0
LINE
  5
349
100
AcDbEntity
100
AcDbLine
  8
BLACK
 62
256
370
-1
  6
ByLayer
 10
0.3685
 20
0.9937
 30
0.0
 11
0.3696
 21
0.9925
 31
0.0
  0
LINE
  5
34A
100
AcDbEntity
100
AcDbLine
  8
BLACK
 62
256
370
-1
  6
ByLayer
 10
0.3696
 20
0.9925
 30
0.0
 11
0.3708
 21
0.9901000000000001
 31
0.0
  0
LINE
  5
34B
100
AcDbEntity
100
AcDbLine
  8
BLACK
 62
256
370
-1
  6
ByLayer
 10
0.3708
 20
0.9901000000000001
 30
0.0
 11
0.3708
 21
0.9865
 31
0.0
  0
LINE
  5
34C
100
AcDbEntity
100
AcDbLine
  8
BLACK
 62
256
370
-1
  6
ByLayer
 10
0.3708
 20
0.9865
 30
0.0
 11
0.3696
 21
0.9842000000000001
 31
0.0
  0
LINE
  5
34D
100
AcDbEntity
100
AcDbLine
  8
BLACK
 62
256
370
-1
  6
ByLayer
 10
0.3696
 20
0.9842000000000001
 30
0.0
 11
0.3685
 21
0.9830000000000001
 31
0.0
  0
LINE
  5
34E
100
AcDbEntity
100
AcDbLine
  8
BLACK
 62
256
370
-1
  6
ByLayer
 10
0.3685
 20
0.9830000000000001
 30
0.0
 11
0.3661
 21
0.9818
 31
0.0
  0
LINE
  5
34F
100
AcDbEntity
100
AcDbLine
  8
BLACK
 62
256
370
-1
  6
ByLayer
 10
0.3661
 20
0.9818
 30
0.0
 11
0.3566
 21
0.9818
 31
0.0
  0
LINE
  5
350
100
AcDbEntity
100
AcDbLine
  8
BLACK
 62
256
370
-1
  6
ByLayer
 10
0.3851
 20
0.9842000000000001
 30
0.0
 11
0.3827
 21
0.9854000000000001
 31
0.0
  0
LINE
  5
351
100
AcDbEntity
100
AcDbLine
  8
BLACK
 62
256
370
-1
  6
ByLayer
 10
0.3827
 20
0.9854000000000001
 30
0.0
 11
0.3816
 21
0.9865
 31
0.0
  0
LINE
  5
352
100
AcDbEntity
100
AcDbLine
  8
BLACK
 62
256
370
-1
  6
ByLayer
 10
0.3816
 20
0.9865
 30
0.0
 11
0.3804
 21
0.9889
 31
0.0
  0
LINE
  5
353
100
AcDbEntity
100
AcDbLine
  8
BLACK
 62
256
370
-1
  6
ByLayer
 10
0.3804
 20
0.9889
 30
0.0
 11
0.3804
 21
0.9901000000000001
 31
0.0
  0
LINE
  5
354
100
AcDbEntity
100
AcDbLine
  8
BLACK
 62
256
370
-1
  6
ByLayer
 10
0.3804
 20
0.9901000000000001
 30
0.0
 11
0.3816
 21
0.9925
 31
0.0
  0
LINE
  5
355
100
AcDbEntity
100
AcDbLine
  8
BLACK
 62
256
370
-1
  6
ByLayer
 10
0.3816
 20
0.9925
 30
0.0
 11
0.3827
 21
0.9937
 31
0.0
  0
LINE
  5
356
100
AcDbEntity
100
AcDbLine
  8
BLACK
 62
256
370
-1
  6
ByLayer
 10
0.3827
 20
0.9937
 30
0.0
 11
0.3851
 21
0.9949
 31
0.0
  0
LINE
  5
357
100
AcDbEntity
100
AcDbLine
  8
BLACK
 62
256
370
-1
  6
ByLayer
 10
0.3851
 20
0.9949
 30
0.0
 11
0.3899
 21
0.9949
 31
0.0
  0
LINE
  5
358
100
AcDbEntity
100
AcDbLine
  8
BLACK
 62
256
370
-1
  6
ByLayer
 10
0.3899
 20
0.9949
 30
0.0
 11
0.3923
 21
0.9937
 31
0.0
  0
LINE
  5
359
100
AcDbEntity
100
AcDbLine
  8
BLACK
 62
256
370
-1
  6
ByLayer
 10
0.3923
 20
0.9937
 30
0.0
 11
0.3935
 21
0.9925
 31
0.0
  0
LINE
  5
35A
100
AcDbEntity
100
AcDbLine
  8
BLACK
 62
256
370
-1
  6
ByLayer
 10
0.3935
 20
0.9925
 30
0.0
 11
0.3946
 21
0.9901000000000001
 31
0.0
  0
LINE
  5
35B
100
AcDbEntity
100
AcDbLine
  8
BLACK
 62
256
370
-1
  6
ByLayer
 10
0.3946
 20
0.9901000000000001
 30
0.0
 11
0.3946
 21
0.9889
 31
0.0
  0
LINE
  5
35C
100
AcDbEntity
100
AcDbLine
  8
BLACK
 62
256
370
-1
  6
ByLayer
 10
0.3946
 20
0.9889
 30
0.0
 11
0.3935
 21
0.9865
 31
0.0
  0
LINE
  5
35D
100
AcDbEntity
100
AcDbLine
  8
BLACK
 62
256
370
-1
  6
ByLayer
 10
0.3935
 20
0.9865
 30
0.0
 11
0.3923
 21
0.9854000000000001
 31
0.0
  0
LINE
  5
35E
100
AcDbEntity
100
AcDbLine
  8
BLACK
 62
256
370
-1
  6
ByLayer
 10
0.3923
 20
0.9854000000000001
 30
0.0
 11
0.3899
 21
0.9842000000000001
 31
0.0
  0
LINE
  5
35F
100
AcDbEntity
100
AcDbLine
  8
BLACK
 62
256
370
-1
  6
ByLayer
 10
0.3899
 20
0.9842000000000001
 30
0.0
 11
0.3851
 21
0.9842000000000001
 31
0.0
  0
LINE
  5
360
100
AcDbEntity
100
AcDbLine
  8
BLACK
 62
256
370
-1
  6
ByLayer
 10
0.3851
 20
0.9842000000000001
 30
0.0
 11
0.3827
 21
0.9830000000000001
 31
0.0
  0
LINE
  5
361
100
AcDbEntity
100
AcDbLine
  8
BLACK
 62
256
370
-1
  6
ByLayer
 10
0.3827
 20
0.9830000000000001
 30
0.0
 11
0.3816
 21
0.9818
 31
0.0
  0
LINE
  5
362
100
AcDbEntity
100
AcDbLine
  8
BLACK
 62
256
370
-1
  6
ByLayer
 10
0.3816
 20
0.9818
 30
0.0
 11
0.3804
 21
0.9794
 31
0.0
  0
LINE
  5
363
100
AcDbEntity
100
AcDbLine
  8
BLACK
 62
256
370
-1
  6
ByLayer
 10
0.3804
 20
0.9794
 30
0.0
 11
0.3804
 21
0.9746
 31
0.0
  0
LINE
  5
364
100
AcDbEntity
100
AcDbLine
  8
BLACK
 62
256
370
-1
  6
ByLayer
 10
0.3804
 20
0.9746
 30
0.0
 11
0.3816
 21
0.9723000000000001
 31
0.0
  0
LINE
  5
365
100
AcDbEntity
100
AcDbLine
  8
BLACK
 62
256
370
-1
  6
ByLayer
 10
0.3816
 20
0.9723000000000001
 30
0.0
 11
0.3827
 21
0.9711000000000001
 31
0.0
  0
LINE
  5
366
100
AcDbEntity
100
AcDbLine
  8
BLACK
 62
256
370
-1
  6
ByLayer
 10
0.3827
 20
0.9711000000000001
 30
0.0
 11
0.3851
 21
0.9699000000000001
 31
0.0
  0
LINE
  5
367
100
AcDbEntity
100
AcDbLine
  8
BLACK
 62
256
370
-1
  6
ByLayer
 10
0.3851
 20
0.9699000000000001
 30
0.0
 11
0.3899
 21
0.9699000000000001
 31
0.0
  0
LINE
  5
368
100
AcDbEntity
100
AcDbLine
  8
BLACK
 62
256
370
-1
  6
ByLayer
 10
0.3899
 20
0.9699000000000001
 30
0.0
 11
0.3923
 21
0.9711000000000001
 31
0.0
  0
LINE
  5
369
100
AcDbEntity
100
AcDbLine
  8
BLACK
 62
256
370
-1
  6
ByLayer
 10
0.3923
 20
0.9711000000000001
 30
0.0
 11
0.3935
 21
0.9723000000000001
 31
0.0
  0
LINE
  5
36A
100
AcDbEntity
100
AcDbLine
  8
BLACK
 62
256
370
-1
  6
ByLayer
 10
0.3935
 20
0.9723000000000001
 30
0.0
 11
0.3946
 21
0.9746
 31
0.0
  0
LINE
  5
36B
100
AcDbEntity
100
AcDbLine
  8
BLACK
 62
256
370
-1
  6
ByLayer
 10
0.3946
 20
0.9746
 30
0.0
 11
0.3946
 21
0.9794
 31
0.0
  0
LINE
  5
36C
100
AcDbEntity
100
AcDbLine
  8
BLACK
 62
256
370
-1
  6
ByLayer
 10
0.3946
 20
0.9794
 30
0.0
 11
0.3935
 21
0.9818
 31
0.0
  0
LINE
  5
36D
100
AcDbEntity
100
AcDbLine
  8
BLACK
 62
256
370
-1
  6
ByLayer
 10
0.3935
 20
0.9818
 30
0.0
 11
0.3923
 21
0.9830000000000001
 31
0.0
  0
LINE
  5
36E
100
AcDbEntity
100
AcDbLine
  8
BLACK
 62
256
370
-1
  6
ByLayer
 10
0.3923
 20
0.9830000000000001
 30
0.0
 11
0.3899
 21
0.9842000000000001
 31
0.0
  0
LINE
  5
36F
100
AcDbEntity
100
AcDbLine
  8
BLACK
 62
256
370
-1
  6
ByLayer
 10
0.3709
 20
0.8749
 30
0.0
 11
0.359
 21
0.8749
 31
0.0
  0
LINE
  5
370
100
AcDbEntity
100
AcDbLine
  8
BLACK
 62
256
370
-1
  6
ByLayer
 10
0.359
 20
0.8749
 30
0.0
 11
0.3578
 21
0.863
 31
0.0
  0
LINE
  5
371
100
AcDbEntity
100
AcDbLine
  8
BLACK
 62
256
370
-1
  6
ByLayer
 10
0.3578
 20
0.863
 30
0.0
 11
0.359
 21
0.8642000000000001
 31
0.0
  0
LINE
  5
372
100
AcDbEntity
100
AcDbLine
  8
BLACK
 62
256
370
-1
  6
ByLayer
 10
0.359
 20
0.8642000000000001
 30
0.0
 11
0.3613
 21
0.8654000000000001
 31
0.0
  0
LINE
  5
373
100
AcDbEntity
100
AcDbLine
  8
BLACK
 62
256
370
-1
  6
ByLayer
 10
0.3613
 20
0.8654000000000001
 30
0.0
 11
0.3673
 21
0.8654000000000001
 31
0.0
  0
LINE
  5
374
100
AcDbEntity
100
AcDbLine
  8
BLACK
 62
256
370
-1
  6
ByLayer
 10
0.3673
 20
0.8654000000000001
 30
0.0
 11
0.3697
 21
0.8642000000000001
 31
0.0
  0
LINE
  5
375
100
AcDbEntity
100
AcDbLine
  8
BLACK
 62
256
370
-1
  6
ByLayer
 10
0.3697
 20
0.8642000000000001
 30
0.0
 11
0.3709
 21
0.863
 31
0.0
  0
LINE
  5
376
100
AcDbEntity
100
AcDbLine
  8
BLACK
 62
256
370
-1
  6
ByLayer
 10
0.3709
 20
0.863
 30
0.0
 11
0.372
 21
0.8606
 31
0.0
  0
LINE
  5
377
100
AcDbEntity
100
AcDbLine
  8
BLACK
 62
256
370
-1
  6
ByLayer
 10
0.372
 20
0.8606
 30
0.0
 11
0.372
 21
0.8546
 31
0.0
  0
LINE
  5
378
100
AcDbEntity
100
AcDbLine
  8
BLACK
 62
256
370
-1
  6
ByLayer
 10
0.372
 20
0.8546
 30
0.0
 11
0.3709
 21
0.8523000000000001
 31
0.0
  0
LINE
  5
379
100
AcDbEntity
100
AcDbLine
  8
BLACK
 62
256
370
-1
  6
ByLayer
 10
0.3709
 20
0.8523000000000001
 30
0.0
 11
0.3697
 21
0.8511000000000001
 31
0.0
  0
LINE
  5
37A
100
AcDbEntity
100
AcDbLine
  8
BLACK
 62
256
370
-1
  6
ByLayer
 10
0.3697
 20
0.8511000000000001
 30
0.0
 11
0.3673
 21
0.8499
 31
0.0
  0
LINE
  5
37B
100
AcDbEntity
100
AcDbLine
  8
BLACK
 62
256
370
-1
  6
ByLayer
 10
0.3673
 20
0.8499
 30
0.0
 11
0.3613
 21
0.8499
 31
0.0
  0
LINE
  5
37C
100
AcDbEntity
100
AcDbLine
  8
BLACK
 62
256
370
-1
  6
ByLayer
 10
0.3613
 20
0.8499
 30
0.0
 11
0.359
 21
0.8511000000000001
 31
0.0
  0
LINE
  5
37D
100
AcDbEntity
100
AcDbLine
  8
BLACK
 62
256
370
-1
  6
ByLayer
 10
0.359
 20
0.8511000000000001
 30
0.0
 11
0.3578
 21
0.8523000000000001
 31
0.0
  0
LINE
  5
37E
100
AcDbEntity
100
AcDbLine
  8
BLACK
 62
256
370
-1
  6
ByLayer
 10
0.3828
 20
0.8499
 30
0.0
 11
0.3828
 21
0.8749
 31
0.0
  0
LINE
  5
37F
100
AcDbEntity
100
AcDbLine
  8
BLACK
 62
256
370
-1
  6
ByLayer
 10
0.3851
 20
0.8594000000000001
 30
0.0
 11
0.3923
 21
0.8499
 31
0.0
  0
LINE
  5
380
100
AcDbEntity
100
AcDbLine
  8
BLACK
 62
256
370
-1
  6
ByLayer
 10
0.3923
 20
0.8665
 30
0.0
 11
0.3828
 21
0.8570000000000001
 31
0.0
  0
LINE
  5
381
100
AcDbEntity
100
AcDbLine
  8
BLACK
 62
256
370
-1
  6
ByLayer
 10
0.355
 20
0.3157
 30
0.0
 11
0.355
 21
0.2729
 31
0.0
  0
LINE
  5
382
100
AcDbEntity
100
AcDbLine
  8
BLACK
 62
256
370
-1
  6
ByLayer
 10
0.355
 20
0.2729
 30
0.0
 11
0.3522
 21
0.2643
 31
0.0
  0
LINE
  5
383
100
AcDbEntity
100
AcDbLine
  8
BLACK
 62
256
370
-1
  6
ByLayer
 10
0.3522
 20
0.2643
 30
0.0
 11
0.3465
 21
0.2586
 31
0.0
  0
LINE
  5
384
100
AcDbEntity
100
AcDbLine
  8
BLACK
 62
256
370
-1
  6
ByLayer
 10
0.3465
 20
0.2586
 30
0.0
 11
0.3379
 21
0.2557
 31
0.0
  0
LINE
  5
385
100
AcDbEntity
100
AcDbLine
  8
BLACK
 62
256
370
-1
  6
ByLayer
 10
0.3379
 20
0.2557
 30
0.0
 11
0.3322
 21
0.2557
 31
0.0
  0
LINE
  5
386
100
AcDbEntity
100
AcDbLine
  8
BLACK
 62
256
370
-1
  6
ByLayer
 10
0.415
 20
0.2557
 30
0.0
 11
0.3807
 21
0.2557
 31
0.0
  0
LINE
  5
387
100
AcDbEntity
100
AcDbLine
  8
BLACK
 62
256
370
-1
  6
ByLayer
 10
0.3979
 20
0.2557
 30
0.0
 11
0.3979
 21
0.3157
 31
0.0
  0
LINE
  5
388
100
AcDbEntity
100
AcDbLine
  8
BLACK
 62
256
370
-1
  6
ByLayer
 10
0.3979
 20
0.3157
 30
0.0
 11
0.3922
 21
0.3071
 31
0.0
  0
LINE
  5
389
100
AcDbEntity
100
AcDbLine
  8
BLACK
 62
256
370
-1
  6
ByLayer
 10
0.3922
 20
0.3071
 30
0.0
 11
0.3864
 21
0.3014
 31
0.0
  0
LINE
  5
38A
100
AcDbEntity
100
AcDbLine
  8
BLACK
 62
256
370
-1
  6
ByLayer
 10
0.3864
 20
0.3014
 30
0.0
 11
0.3807
 21
0.2986
 31
0.0
  0
LINE
  5
38B
100
AcDbEntity
100
AcDbLine
  8
BLACK
 62
256
370
-1
  6
ByLayer
 10
0.5467
 20
0.2548
 30
0.0
 11
0.5715
 21
0.2548
 31
0.0
  0
LINE
  5
38C
100
AcDbEntity
100
AcDbLine
  8
BLACK
 62
256
370
-1
  6
ByLayer
 10
0.5715
 20
0.2548
 30
0.0
 11
0.5581
 21
0.2396
 31
0.0
  0
LINE
  5
38D
100
AcDbEntity
100
AcDbLine
  8
BLACK
 62
256
370
-1
  6
ByLayer
 10
0.5581
 20
0.2396
 30
0.0
 11
0.5639000000000001
 21
0.2396
 31
0.0
  0
LINE
  5
38E
100
AcDbEntity
100
AcDbLine
  8
BLACK
 62
256
370
-1
  6
ByLayer
 10
0.5639000000000001
 20
0.2396
 30
0.0
 11
0.5677
 21
0.2377
 31
0.0
  0
LINE
  5
38F
100
AcDbEntity
100
AcDbLine
  8
BLACK
 62
256
370
-1
  6
ByLayer
 10
0.5677
 20
0.2377
 30
0.0
 11
0.5696
 21
0.2358
 31
0.0
  0
LINE
  5
390
100
AcDbEntity
100
AcDbLine
  8
BLACK
 62
256
370
-1
  6
ByLayer
 10
0.5696
 20
0.2358
 30
0.0
 11
0.5715
 21
0.232
 31
0.0
  0
LINE
  5
391
100
AcDbEntity
100
AcDbLine
  8
BLACK
 62
256
370
-1
  6
ByLayer
 10
0.5715
 20
0.232
 30
0.0
 11
0.5715
 21
0.2224
 31
0.0
  0
LINE
  5
392
100
AcDbEntity
100
AcDbLine
  8
BLACK
 62
256
370
-1
  6
ByLayer
 10
0.5715
 20
0.2224
 30
0.0
 11
0.5696
 21
0.2186
 31
0.0
  0
LINE
  5
393
100
AcDbEntity
100
AcDbLine
  8
BLACK
 62
256
370
-1
  6
ByLayer
 10
0.5696
 20
0.2186
 30
0.0
 11
0.5677
 21
0.2167
 31
0.0
  0
LINE
  5
394
100
AcDbEntity
100
AcDbLine
  8
BLACK
 62
256
370
-1
  6
ByLayer
 10
0.5677
 20
0.2167
 30
0.0
 11
0.5639000000000001
 21
0.2148
 31
0.0
  0
LINE
  5
395
100
AcDbEntity
100
AcDbLine
  8
BLACK
 62
256
370
-1
  6
ByLayer
 10
0.5639000000000001
 20
0.2148
 30
0.0
 11
0.5524
 21
0.2148
 31
0.0
  0
LINE
  5
396
100
AcDbEntity
100
AcDbLine
  8
BLACK
 62
256
370
-1
  6
ByLayer
 10
0.5524
 20
0.2148
 30
0.0
 11
0.5486
 21
0.2167
 31
0.0
  0
LINE
  5
397
100
AcDbEntity
100
AcDbLine
  8
BLACK
 62
256
370
-1
  6
ByLayer
 10
0.5486
 20
0.2167
 30
0.0
 11
0.5467
 21
0.2186
 31
0.0
  0
LINE
  5
398
100
AcDbEntity
100
AcDbLine
  8
BLACK
 62
256
370
-1
  6
ByLayer
 10
0.4965
 20
0.2148
 30
0.0
 11
0.4736
 21
0.2148
 31
0.0
  0
LINE
  5
399
100
AcDbEntity
100
AcDbLine
  8
BLACK
 62
256
370
-1
  6
ByLayer
 10
0.485
 20
0.2148
 30
0.0
 11
0.485
 21
0.2548
 31
0.0
  0
LINE
  5
39A
100
AcDbEntity
100
AcDbLine
  8
BLACK
 62
256
370
-1
  6
ByLayer
 10
0.485
 20
0.2548
 30
0.0
 11
0.4812
 21
0.2491
 31
0.0
  0
LINE
  5
39B
100
AcDbEntity
100
AcDbLine
  8
BLACK
 62
256
370
-1
  6
ByLayer
 10
0.4812
 20
0.2491
 30
0.0
 11
0.4774
 21
0.2453
 31
0.0
  0
LINE
  5
39C
100
AcDbEntity
100
AcDbLine
  8
BLACK
 62
256
370
-1
  6
ByLayer
 10
0.4774
 20
0.2453
 30
0.0
 11
0.4736
 21
0.2434
 31
0.0
  0
LINE
  5
39D
100
AcDbEntity
100
AcDbLine
  8
BLACK
 62
256
370
-1
  6
ByLayer
 10
0.2636
 20
0.251
 30
0.0
 11
0.2655
 21
0.2529
 31
0.0
  0
LINE
  5
39E
100
AcDbEntity
100
AcDbLine
  8
BLACK
 62
256
370
-1
  6
ByLayer
 10
0.2655
 20
0.2529
 30
0.0
 11
0.2693
 21
0.2548
 31
0.0
  0
LINE
  5
39F
100
AcDbEntity
100
AcDbLine
  8
BLACK
 62
256
370
-1
  6
ByLayer
 10
0.2693
 20
0.2548
 30
0.0
 11
0.2789
 21
0.2548
 31
0.0
  0
LINE
  5
3A0
100
AcDbEntity
100
AcDbLine
  8
BLACK
 62
256
370
-1
  6
ByLayer
 10
0.2789
 20
0.2548
 30
0.0
 11
0.2827
 21
0.2529
 31
0.0
  0
LINE
  5
3A1
100
AcDbEntity
100
AcDbLine
  8
BLACK
 62
256
370
-1
  6
ByLayer
 10
0.2827
 20
0.2529
 30
0.0
 11
0.2846
 21
0.251
 31
0.0
  0
LINE
  5
3A2
100
AcDbEntity
100
AcDbLine
  8
BLACK
 62
256
370
-1
  6
ByLayer
 10
0.2846
 20
0.251
 30
0.0
 11
0.2865
 21
0.2472
 31
0.0
  0
LINE
  5
3A3
100
AcDbEntity
100
AcDbLine
  8
BLACK
 62
256
370
-1
  6
ByLayer
 10
0.2865
 20
0.2472
 30
0.0
 11
0.2865
 21
0.2434
 31
0.0
  0
LINE
  5
3A4
100
AcDbEntity
100
AcDbLine
  8
BLACK
 62
256
370
-1
  6
ByLayer
 10
0.2865
 20
0.2434
 30
0.0
 11
0.2846
 21
0.2377
 31
0.0
  0
LINE
  5
3A5
100
AcDbEntity
100
AcDbLine
  8
BLACK
 62
256
370
-1
  6
ByLayer
 10
0.2846
 20
0.2377
 30
0.0
 11
0.2617
 21
0.2148
 31
0.0
  0
LINE
  5
3A6
100
AcDbEntity
100
AcDbLine
  8
BLACK
 62
256
370
-1
  6
ByLayer
 10
0.2617
 20
0.2148
 30
0.0
 11
0.2865
 21
0.2148
 31
0.0
  0
LINE
  5
3A7
100
AcDbEntity
100
AcDbLine
  8
BLACK
 62
256
370
-1
  6
ByLayer
 10
0.2077
 20
0.2415
 30
0.0
 11
0.2077
 21
0.2148
 31
0.0
  0
LINE
  5
3A8
100
AcDbEntity
100
AcDbLine
  8
BLACK
 62
256
370
-1
  6
ByLayer
 10
0.1981
 20
0.2567
 30
0.0
 11
0.1886
 21
0.2281
 31
0.0
  0
LINE
  5
3A9
100
AcDbEntity
100
AcDbLine
  8
BLACK
 62
256
370
-1
  6
ByLayer
 10
0.1886
 20
0.2281
 30
0.0
 11
0.2134
 21
0.2281
 31
0.0
  0
ENDSEC
  0
SECTION
  2
OBJECTS
  0
DICTIONARY
  5
C
100
AcDbDictionary
280
0
281
1
  3
ACAD_GROUP
350
D
  3
ACAD_LAYOUT
350
1A
  3
ACAD_MLINESTYLE
350
17
  3
ACAD_PLOTSETTINGS
350
19
  3
ACAD_PLOTSTYLENAME
350
E
  3
AcDbVariableDictionary
350
3AA
  0
DICTIONARY
  5
D
100
AcDbDictionary
280
0
281
1
  0
ACDBDICTIONARYWDFLT
  5
E
100
AcDbDictionary
281
1
  3
Normal
350
F
100
AcDbDictionaryWithDefault
340
F
  0
ACDBPLACEHOLDER
  5
F
  0
DICTIONARY
  5
17
100
AcDbDictionary
280
0
281
1
  3
Standard
350
18
  0
MLINESTYLE
  5
18
100
AcDbMlineStyle
  2
STANDARD
 70
0
  3

 62
256
 51
90.0
 52
90.0
 71
2
 49
0.5
 62
256
  6
BYLAYER
 49
-0.5
 62
256
  6
BYLAYER
  0
DICTIONARY
  5
19
100
AcDbDictionary
280
0
281
1
  0
DICTIONARY
  5
1A
100
AcDbDictionary
281
1
  3
Layout1
350
1E
  3
Layout2
350
26
  3
Model
350
22
  0
LAYOUT
  5
1E
100
AcDbPlotSettings
  1

  2
C:\Program Files\AutoCAD 2002\plotters\DWF ePlot (optimized for plotting).pc3
  4

  6

 40
0.0
 41
0.0
 42
0.0
 43
0.0
 44
0.0
 45
0.0
 46
0.0
 47
0.0
 48
0.0
 49
0.0
140
0.0
141
0.0
142
1.0
143
1.0
 70
688
 72
0
 73
0
 74
5
  7

 75
16
147
1.0
148
0.0
149
0.0
100
AcDbLayout
  1
Layout1
 70
1
 71
1
 10
0.0
 20
0.0
 11
420.0
 21
297.0
 12
0.0
 22
0.0
 32
0.0
 14
100000000000000000000.0
 24
100000000000000000000.0
 34
100000000000000000000.0
 15
-100000000000000000000.0
 25
-100000000000000000000.0
 35
-100000000000000000000.0
146
0.0
 13
0.0
 23
0.0
 33
0.0
 16
1.0
 26
0.0
 36
0.0
 17
0.0
 27
1.0
 37
0.0
 76
0
330
1B
  0
LAYOUT
  5
22
100
AcDbPlotSettings
  1

  2
C:\Program Files\AutoCAD 2002\plotters\DWF ePlot (optimized for plotting).pc3
  4

  6

 40
0.0
 41
0.0
 42
0.0
 43
0.0
 44
0.0
 45
0.0
 46
0.0
 47
0.0
 48
0.0
 49
0.0
140
0.0
141
0.0
142
1.0
143
1.0
 70
1712
 72
0
 73
0
 74
0
  7

 75
0
147
1.0
148
0.0
149
0.0
100
AcDbLayout
  1
Model
 70
1
 71
0
 10
0.0
 20
0.0
 11
12.0
 21
9.0
 12
0.0
 22
0.0
 32
0.0
 14
0.0
 24
0.0
 34
0.0
 15
0.0
 25
0.0
 35
0.0
146
0.0
 13
0.0
 23
0.0
 33
0.0
 16
1.0
 26
0.0
 36
0.0
 17
0.0
 27
1.0
 37
0.0
 76
0
330
1F
  0
LAYOUT
  5
26
100
AcDbPlotSettings
  1

  2
C:\Program Files\AutoCAD 2002\plotters\DWF ePlot (optimized for plotting).pc3
  4

  6

 40
0.0
 41
0.0
 42
0.0
 43
0.0
 44
0.0
 45
0.0
 46
0.0
 47
0.0
 48
0.0
 49
0.0
140
0.0
141
0.0
142
1.0
143
1.0
 70
688
 72
0
 73
0
 74
5
  7

 75
16
147
1.0
148
0.0
149
0.0
100
AcDbLayout
  1
Layout2
 70
1
 71
2
 10
0.0
 20
0.0
 11
12.0
 21
9.0
 12
0.0
 22
0.0
 32
0.0
 14
0.0
 24
0.0
 34
0.0
 15
0.0
 25
0.0
 35
0.0
146
0.0
 13
0.0
 23
0.0
 33
0.0
 16
1.0
 26
0.0
 36
0.0
 17
0.0
 27
1.0
 37
0.0
 76
0
330
23
  0
DICTIONARY
  5
3AA
100
AcDbDictionary
281
1
  3
DIMASSOC
350
3AC
  3
HIDETEXT
350
3AB
  0
DICTIONARYVAR
  5
3AB
100
DictionaryVariables
280
0
  1
2
  0
DICTIONARYVAR
  5
3AC
100
DictionaryVariables
280
0
  1
1
  0
ENDSEC
  0
EOF
