999
dxflib 2.2.0.0
  0
SECTION
  2
HEADER
  9
$ACADVER
  1
AC1015
  9
$HANDSEED
  5
FFFF
  9
$SPLINESEGS
 70
8
  9
$DIMEXE
 40
1.25
  9
$ANGBASE
 50
0.0
  9
$DIMLUNIT
 70
2
  9
$GRIDMODE
 70
1
  9
$INSUNITS
 70
1
  9
$DIMADEC
 70
2
  9
$DIMASZ
 40
2.5
  9
$DIMGAP
 40
0.625
  9
$DIMTXT
 40
2.5
  9
$GRIDUNIT
 10
0.0
 20
0.0
  9
$ANGDIR
 70
0
  9
$DIMEXO
 40
0.625
  9
$LUPREC
 70
4
  9
$DIMAUNIT
 70
0
  9
$AUPREC
 70
2
  9
$PLIMMIN
 10
0.0
 20
0.0
  9
$LUNITS
 70
2
  9
$PLIMMAX
 10
8.2677165354330722
 20
11.6929133858267722
  9
$DIMSTYLE
  2
Standard
  9
$AUNITS
 70
0
  0
ENDSEC
  0
SECTION
  2
TABLES
  0
TABLE
  2
VPORT
  5
8
100
AcDbSymbolTable
 70
1
  0
VPORT
  5
30
100
AcDbSymbolTableRecord
100
AcDbViewportTableRecord
  2
*Active
 70
0
 10
0.0
 20
0.0
 11
1.0
 21
1.0
 12
286.3055555555554861
 22
148.5
 13
0.0
 23
0.0
 14
10.0
 24
10.0
 15
10.0
 25
10.0
 16
0.0
 26
0.0
 36
1.0
 17
0.0
 27
0.0
 37
0.0
 40
297.0
 41
1.92798353909465
 42
50.0
 43
0.0
 44
0.0
 50
0.0
 51
0.0
 71
0
 72
100
 73
1
 74
3
 75
1
 76
1
 77
0
 78
0
281
0
 65
1
110
0.0
120
0.0
130
0.0
111
1.0
121
0.0
131
0.0
112
0.0
122
1.0
132
0.0
 79
0
146
0.0
  0
ENDTAB
  0
TABLE
  2
LTYPE
  5
5
100
AcDbSymbolTable
 70
21
  0
LTYPE
  5
14
100
AcDbSymbolTableRecord
100
AcDbLinetypeTableRecord
  2
ByBlock
 70
0
  3

 72
65
 73
0
 40
0.0
  0
LTYPE
  5
15
100
AcDbSymbolTableRecord
100
AcDbLinetypeTableRecord
  2
ByLayer
 70
0
  3

 72
65
 73
0
 40
0.0
  0
LTYPE
  5
16
100
AcDbSymbolTableRecord
100
AcDbLinetypeTableRecord
  2
CONTINUOUS
 70
0
  3
Solid line
 72
65
 73
0
 40
0.0
  0
LTYPE
  5
31
100
AcDbSymbolTableRecord
100
AcDbLinetypeTableRecord
  2
DOT
 70
0
  3
Dot . . . . . . . . . . . . . . . . . . . . . .
 72
65
 73
2
 40
6.3499999999999996
 49
0.0
 74
0
 49
-6.3499999999999996
 74
0
  0
LTYPE
  5
32
100
AcDbSymbolTableRecord
100
AcDbLinetypeTableRecord
  2
DOT2
 70
0
  3
Dot (.5x) .....................................
 72
65
 73
2
 40
3.1749999999999998
 49
0.0
 74
0
 49
-3.1749999999999998
 74
0
  0
LTYPE
  5
33
100
AcDbSymbolTableRecord
100
AcDbLinetypeTableRecord
  2
DOTX2
 70
0
  3
Dot (2x) .  .  .  .  .  .  .  .  .  .  .  .  .
 72
65
 73
2
 40
12.6999999999999993
 49
0.0
 74
0
 49
-12.6999999999999993
 74
0
  0
LTYPE
  5
34
100
AcDbSymbolTableRecord
100
AcDbLinetypeTableRecord
  2
DASHED
 70
0
  3
Dashed __ __ __ __ __ __ __ __ __ __ __ __ __ _
 72
65
 73
2
 40
19.0500000000000007
 49
12.6999999999999993
 74
0
 49
-6.3499999999999996
 74
0
  0
LTYPE
  5
35
100
AcDbSymbolTableRecord
100
AcDbLinetypeTableRecord
  2
DASHED2
 70
0
  3
Dashed (.5x) _ _ _ _ _ _ _ _ _ _ _ _ _ _ _ _ _
 72
65
 73
2
 40
9.5250000000000004
 49
6.3499999999999996
 74
0
 49
-3.1749999999999998
 74
0
  0
LTYPE
  5
36
100
AcDbSymbolTableRecord
100
AcDbLinetypeTableRecord
  2
DASHEDX2
 70
0
  3
Dashed (2x) ____  ____  ____  ____  ____  ___
 72
65
 73
2
 40
38.1000000000000014
 49
25.3999999999999986
 74
0
 49
-12.6999999999999993
 74
0
  0
LTYPE
  5
37
100
AcDbSymbolTableRecord
100
AcDbLinetypeTableRecord
  2
DASHDOT
 70
0
  3
Dash dot __ . __ . __ . __ . __ . __ . __ . __
 72
65
 73
4
 40
25.3999999999999986
 49
12.6999999999999993
 74
0
 49
-6.3499999999999996
 74
0
 49
0.0
 74
0
 49
-6.3499999999999996
 74
0
  0
LTYPE
  5
38
100
AcDbSymbolTableRecord
100
AcDbLinetypeTableRecord
  2
DASHDOT2
 70
0
  3
Dash dot (.5x) _._._._._._._._._._._._._._._.
 72
65
 73
4
 40
12.6999999999999993
 49
6.3499999999999996
 74
0
 49
-3.1749999999999998
 74
0
 49
0.0
 74
0
 49
-3.1749999999999998
 74
0
  0
LTYPE
  5
39
100
AcDbSymbolTableRecord
100
AcDbLinetypeTableRecord
  2
DASHDOTX2
 70
0
  3
Dash dot (2x) ____  .  ____  .  ____  .  ___
 72
65
 73
4
 40
50.7999999999999972
 49
25.3999999999999986
 74
0
 49
-12.6999999999999993
 74
0
 49
0.0
 74
0
 49
-12.6999999999999993
 74
0
  0
LTYPE
  5
3A
100
AcDbSymbolTableRecord
100
AcDbLinetypeTableRecord
  2
DIVIDE
 70
0
  3
Divide ____ . . ____ . . ____ . . ____ . . ____
 72
65
 73
6
 40
31.75
 49
12.6999999999999993
 74
0
 49
-6.3499999999999996
 74
0
 49
0.0
 74
0
 49
-6.3499999999999996
 74
0
 49
0.0
 74
0
 49
-6.3499999999999996
 74
0
  0
LTYPE
  5
3B
100
AcDbSymbolTableRecord
100
AcDbLinetypeTableRecord
  2
DIVIDE2
 70
0
  3
Divide (.5x) __..__..__..__..__..__..__..__.._
 72
65
 73
6
 40
15.875
 49
6.3499999999999996
 74
0
 49
-3.1749999999999998
 74
0
 49
0.0
 74
0
 49
-3.1749999999999998
 74
0
 49
0.0
 74
0
 49
-3.1749999999999998
 74
0
  0
LTYPE
  5
3C
100
AcDbSymbolTableRecord
100
AcDbLinetypeTableRecord
  2
DIVIDEX2
 70
0
  3
Divide (2x) ________  .  .  ________  .  .  _
 72
65
 73
6
 40
63.5
 49
25.3999999999999986
 74
0
 49
-12.6999999999999993
 74
0
 49
0.0
 74
0
 49
-12.6999999999999993
 74
0
 49
0.0
 74
0
 49
-12.6999999999999993
 74
0
  0
LTYPE
  5
3D
100
AcDbSymbolTableRecord
100
AcDbLinetypeTableRecord
  2
CENTER
 70
0
  3
Center ____ _ ____ _ ____ _ ____ _ ____ _ ____
 72
65
 73
4
 40
50.7999999999999972
 49
31.75
 74
0
 49
-6.3499999999999996
 74
0
 49
6.3499999999999996
 74
0
 49
-6.3499999999999996
 74
0
  0
LTYPE
  5
3E
100
AcDbSymbolTableRecord
100
AcDbLinetypeTableRecord
  2
CENTER2
 70
0
  3
Center (.5x) ___ _ ___ _ ___ _ ___ _ ___ _ ___
 72
65
 73
4
 40
28.5749999999999993
 49
19.0500000000000007
 74
0
 49
-3.1749999999999998
 74
0
 49
3.1749999999999998
 74
0
 49
-3.1749999999999998
 74
0
  0
LTYPE
  5
3F
100
AcDbSymbolTableRecord
100
AcDbLinetypeTableRecord
  2
CENTERX2
 70
0
  3
Center (2x) ________  __  ________  __  _____
 72
65
 73
4
 40
101.5999999999999943
 49
63.5
 74
0
 49
-12.6999999999999993
 74
0
 49
12.6999999999999993
 74
0
 49
-12.6999999999999993
 74
0
  0
LTYPE
  5
40
100
AcDbSymbolTableRecord
100
AcDbLinetypeTableRecord
  2
BORDER
 70
0
  3
Border __ __ . __ __ . __ __ . __ __ . __ __ .
 72
65
 73
6
 40
44.4500000000000028
 49
12.6999999999999993
 74
0
 49
-6.3499999999999996
 74
0
 49
12.6999999999999993
 74
0
 49
-6.3499999999999996
 74
0
 49
0.0
 74
0
 49
-6.3499999999999996
 74
0
  0
LTYPE
  5
41
100
AcDbSymbolTableRecord
100
AcDbLinetypeTableRecord
  2
BORDER2
 70
0
  3
Border (.5x) __.__.__.__.__.__.__.__.__.__.__.
 72
65
 73
6
 40
22.2250000000000014
 49
6.3499999999999996
 74
0
 49
-3.1749999999999998
 74
0
 49
6.3499999999999996
 74
0
 49
-3.1749999999999998
 74
0
 49
0.0
 74
0
 49
-3.1749999999999998
 74
0
  0
LTYPE
  5
42
100
AcDbSymbolTableRecord
100
AcDbLinetypeTableRecord
  2
BORDERX2
 70
0
  3
Border (2x) ____  ____  .  ____  ____  .  ___
 72
65
 73
6
 40
88.9000000000000057
 49
25.3999999999999986
 74
0
 49
-12.6999999999999993
 74
0
 49
25.3999999999999986
 74
0
 49
-12.6999999999999993
 74
0
 49
0.0
 74
0
 49
-12.6999999999999993
 74
0
  0
ENDTAB
  0
TABLE
  2
LAYER
  5
2
100
AcDbSymbolTable
 70
25
  0
LAYER
  5
10
100
AcDbSymbolTableRecord
100
AcDbLayerTableRecord
  2
0
 70
0
 62
7
  6
CONTINUOUS
370
0
390
F
  0
LAYER
  5
43
100
AcDbSymbolTableRecord
100
AcDbLayerTableRecord
  2
BLACK
 70
0
 62
1
  6
CONTINUOUS
390
F
  0
LAYER
  5
44
100
AcDbSymbolTableRecord
100
AcDbLayerTableRecord
  2
BLUE
 70
0
 62
2
  6
CONTINUOUS
390
F
  0
LAYER
  5
45
100
AcDbSymbolTableRecord
100
AcDbLayerTableRecord
  2
GREEN
 70
0
 62
3
  6
CONTINUOUS
390
F
  0
LAYER
  5
46
100
AcDbSymbolTableRecord
100
AcDbLayerTableRecord
  2
CYAN
 70
0
 62
4
  6
CONTINUOUS
390
F
  0
LAYER
  5
47
100
AcDbSymbolTableRecord
100
AcDbLayerTableRecord
  2
RED
 70
0
 62
5
  6
CONTINUOUS
390
F
  0
LAYER
  5
48
100
AcDbSymbolTableRecord
100
AcDbLayerTableRecord
  2
MAGENTA
 70
0
 62
6
  6
CONTINUOUS
390
F
  0
LAYER
  5
49
100
AcDbSymbolTableRecord
100
AcDbLayerTableRecord
  2
BROWN
 70
0
 62
7
  6
CONTINUOUS
390
F
  0
LAYER
  5
4A
100
AcDbSymbolTableRecord
100
AcDbLayerTableRecord
  2
GRAY
 70
0
 62
8
  6
CONTINUOUS
390
F
  0
LAYER
  5
4B
100
AcDbSymbolTableRecord
100
AcDbLayerTableRecord
  2
DARKGRAY
 70
0
 62
9
  6
CONTINUOUS
390
F
  0
LAYER
  5
4C
100
AcDbSymbolTableRecord
100
AcDbLayerTableRecord
  2
LIGHTBLUE
 70
0
 62
1
  6
CONTINUOUS
390
F
  0
LAYER
  5
4D
100
AcDbSymbolTableRecord
100
AcDbLayerTableRecord
  2
LIGHTGREEN
 70
0
 62
11
  6
CONTINUOUS
390
F
  0
LAYER
  5
4E
100
AcDbSymbolTableRecord
100
AcDbLayerTableRecord
  2
LIGHTCYAN
 70
0
 62
12
  6
CONTINUOUS
390
F
  0
LAYER
  5
4F
100
AcDbSymbolTableRecord
100
AcDbLayerTableRecord
  2
LIGHTRED
 70
0
 62
13
  6
CONTINUOUS
390
F
  0
LAYER
  5
50
100
AcDbSymbolTableRecord
100
AcDbLayerTableRecord
  2
LIGHTMAGENTA
 70
0
 62
14
  6
CONTINUOUS
390
F
  0
LAYER
  5
51
100
AcDbSymbolTableRecord
100
AcDbLayerTableRecord
  2
YELLOW
 70
0
 62
15
  6
CONTINUOUS
390
F
  0
LAYER
  5
52
100
AcDbSymbolTableRecord
100
AcDbLayerTableRecord
  2
WHITE
 70
0
 62
16
  6
CONTINUOUS
390
F
  0
LAYER
  5
53
100
AcDbSymbolTableRecord
100
AcDbLayerTableRecord
  2
DARKDARKGRAY
 70
0
 62
17
  6
CONTINUOUS
390
F
  0
LAYER
  5
54
100
AcDbSymbolTableRecord
100
AcDbLayerTableRecord
  2
DARKBLUE
 70
0
 62
18
  6
CONTINUOUS
390
F
  0
LAYER
  5
55
100
AcDbSymbolTableRecord
100
AcDbLayerTableRecord
  2
DARKGREEN
 70
0
 62
19
  6
CONTINUOUS
390
F
  0
LAYER
  5
56
100
AcDbSymbolTableRecord
100
AcDbLayerTableRecord
  2
DARKCYAN
 70
0
 62
20
  6
CONTINUOUS
390
F
  0
LAYER
  5
57
100
AcDbSymbolTableRecord
100
AcDbLayerTableRecord
  2
DARKRED
 70
0
 62
21
  6
CONTINUOUS
390
F
  0
LAYER
  5
58
100
AcDbSymbolTableRecord
100
AcDbLayerTableRecord
  2
DARKMAGENTA
 70
0
 62
22
  6
CONTINUOUS
390
F
  0
LAYER
  5
59
100
AcDbSymbolTableRecord
100
AcDbLayerTableRecord
  2
DARKBROWN
 70
0
 62
23
  6
CONTINUOUS
390
F
  0
LAYER
  5
5A
100
AcDbSymbolTableRecord
100
AcDbLayerTableRecord
  2
LIGHTYELLOW
 70
0
 62
24
  6
CONTINUOUS
390
F
  0
ENDTAB
  0
TABLE
  2
STYLE
  5
3
100
AcDbSymbolTable
 70
1
  0
STYLE
  5
11
100
AcDbSymbolTableRecord
100
AcDbTextStyleTableRecord
  2
Standard
 70
0
 40
0.0
 41
0.75
 50
0.0
 71
0
 42
2.5
  3
txt
  4

  0
ENDTAB
  0
TABLE
  2
VIEW
  5
6
100
AcDbSymbolTable
 70
0
  0
ENDTAB
  0
TABLE
  2
UCS
  5
7
100
AcDbSymbolTable
 70
0
  0
ENDTAB
  0
TABLE
  2
APPID
  5
9
100
AcDbSymbolTable
 70
1
  0
APPID
  5
12
100
AcDbSymbolTableRecord
100
AcDbRegAppTableRecord
  2
ACAD
 70
0
  0
ENDTAB
  0
TABLE
  2
DIMSTYLE
  5
A
100
AcDbSymbolTable
 70
1
100
AcDbDimStyleTable
 71
0
  0
DIMSTYLE
105
27
100
AcDbSymbolTableRecord
100
AcDbDimStyleTableRecord
  2
Standard
 41
2.5
 42
0.625
 43
3.75
 44
1.25
 70
0
 73
0
 74
0
 77
1
 78
8
140
2.5
141
2.5
143
0.03937007874016
147
0.625
171
3
172
1
271
2
272
2
274
3
278
44
283
0
284
8
340
11
  0
ENDTAB
  0
TABLE
  2
BLOCK_RECORD
  5
1
100
AcDbSymbolTable
 70
1
  0
BLOCK_RECORD
  5
1F
100
AcDbSymbolTableRecord
100
AcDbBlockTableRecord
  2
*Model_Space
340
22
  0
BLOCK_RECORD
  5
1B
100
AcDbSymbolTableRecord
100
AcDbBlockTableRecord
  2
*Paper_Space
340
1E
  0
BLOCK_RECORD
  5
23
100
AcDbSymbolTableRecord
100
AcDbBlockTableRecord
  2
*Paper_Space0
340
26
  0
ENDTAB
  0
ENDSEC
  0
SECTION
  2
BLOCKS
  0
BLOCK
  5
20
100
AcDbEntity
  8
0
100
AcDbBlockBegin
  2
*Model_Space
 70
0
 10
0.0
 20
0.0
 30
0.0
  3
*Model_Space
  1

  0
ENDBLK
  5
21
100
AcDbEntity
  8
0
100
AcDbBlockEnd
  0
BLOCK
  5
1C
100
AcDbEntity
 67
1
  8
0
100
AcDbBlockBegin
  2
*Paper_Space
 70
0
 10
0.0
 20
0.0
 30
0.0
  3
*Paper_Space
  1

  0
ENDBLK
  5
1D
100
AcDbEntity
 67
1
  8
0
100
AcDbBlockEnd
  0
BLOCK
  5
24
100
AcDbEntity
  8
0
100
AcDbBlockBegin
  2
*Paper_Space0
 70
0
 10
0.0
 20
0.0
 30
0.0
  3
*Paper_Space0
  1

  0
ENDBLK
  5
25
100
AcDbEntity
  8
0
100
AcDbBlockEnd
  0
ENDSEC
  0
SECTION
  2
ENTITIES
  0
LINE
  5
5B
100
AcDbEntity
100
AcDbLine
  8
BLACK
 62
256
370
-1
  6
ByLayer
 10
0.0
 20
2.5
 30
0.0
 11
0.0
 21
0.0
 31
0.0
  0
LINE
  5
5C
100
AcDbEntity
100
AcDbLine
  8
BLACK
 62
256
370
-1
  6
ByLayer
 10
1.25
 20
2.5
 30
0.0
 11
0.0
 21
2.5
 31
0.0
  0
LINE
  5
5D
100
AcDbEntity
100
AcDbLine
  8
BLACK
 62
256
370
-1
  6
ByLayer
 10
1.25
 20
0.0
 30
0.0
 11
1.25
 21
2.5
 31
0.0
  0
LINE
  5
5E
100
AcDbEntity
100
AcDbLine
  8
BLACK
 62
256
370
-1
  6
ByLayer
 10
0.0
 20
0.0
 30
0.0
 11
1.25
 21
0.0
 31
0.0
  0
LINE
  5
5F
100
AcDbEntity
100
AcDbLine
  8
BLACK
 62
256
370
-1
  6
ByLayer
 10
1.1643000000000001
 20
0.361
 30
0.0
 11
1.2071000000000001
 21
0.361
 31
0.0
  0
LINE
  5
60
100
AcDbEntity
100
AcDbLine
  8
BLACK
 62
256
370
-1
  6
ByLayer
 10
1.2071000000000001
 20
0.361
 30
0.0
 11
1.2157
 21
0.359
 31
0.0
  0
LINE
  5
61
100
AcDbEntity
100
AcDbLine
  8
BLACK
 62
256
370
-1
  6
ByLayer
 10
1.2157
 20
0.359
 30
0.0
 11
1.2214
 21
0.3552
 31
0.0
  0
LINE
  5
62
100
AcDbEntity
100
AcDbLine
  8
BLACK
 62
256
370
-1
  6
ByLayer
 10
1.2214
 20
0.3552
 30
0.0
 11
1.2243000000000002
 21
0.3495
 31
0.0
  0
LINE
  5
63
100
AcDbEntity
100
AcDbLine
  8
BLACK
 62
256
370
-1
  6
ByLayer
 10
1.2243000000000002
 20
0.3495
 30
0.0
 11
1.2243000000000002
 21
0.3457
 31
0.0
  0
LINE
  5
64
100
AcDbEntity
100
AcDbLine
  8
BLACK
 62
256
370
-1
  6
ByLayer
 10
1.1843000000000001
 20
0.3972
 30
0.0
 11
1.2243000000000002
 21
0.3972
 31
0.0
  0
LINE
  5
65
100
AcDbEntity
100
AcDbLine
  8
BLACK
 62
256
370
-1
  6
ByLayer
 10
1.1843000000000001
 20
0.38
 30
0.0
 11
1.2157
 21
0.38
 31
0.0
  0
LINE
  5
66
100
AcDbEntity
100
AcDbLine
  8
BLACK
 62
256
370
-1
  6
ByLayer
 10
1.2157
 20
0.38
 30
0.0
 11
1.2214
 21
0.3819
 31
0.0
  0
LINE
  5
67
100
AcDbEntity
100
AcDbLine
  8
BLACK
 62
256
370
-1
  6
ByLayer
 10
1.2214
 20
0.3819
 30
0.0
 11
1.2243000000000002
 21
0.3857
 31
0.0
  0
LINE
  5
68
100
AcDbEntity
100
AcDbLine
  8
BLACK
 62
256
370
-1
  6
ByLayer
 10
1.2243000000000002
 20
0.3857
 30
0.0
 11
1.2243000000000002
 21
0.3915
 31
0.0
  0
LINE
  5
69
100
AcDbEntity
100
AcDbLine
  8
BLACK
 62
256
370
-1
  6
ByLayer
 10
1.2243000000000002
 20
0.3915
 30
0.0
 11
1.2214
 21
0.3953
 31
0.0
  0
LINE
  5
6A
100
AcDbEntity
100
AcDbLine
  8
BLACK
 62
256
370
-1
  6
ByLayer
 10
1.2214
 20
0.3953
 30
0.0
 11
1.2186000000000001
 21
0.3972
 31
0.0
  0
LINE
  5
6B
100
AcDbEntity
100
AcDbLine
  8
BLACK
 62
256
370
-1
  6
ByLayer
 10
1.1843000000000001
 20
0.4162
 30
0.0
 11
1.2243000000000002
 21
0.4162
 31
0.0
  0
LINE
  5
6C
100
AcDbEntity
100
AcDbLine
  8
BLACK
 62
256
370
-1
  6
ByLayer
 10
1.1899999999999999
 20
0.4162
 30
0.0
 11
1.1871
 21
0.4181
 31
0.0
  0
LINE
  5
6D
100
AcDbEntity
100
AcDbLine
  8
BLACK
 62
256
370
-1
  6
ByLayer
 10
1.1871
 20
0.4181
 30
0.0
 11
1.1843000000000001
 21
0.4219
 31
0.0
  0
LINE
  5
6E
100
AcDbEntity
100
AcDbLine
  8
BLACK
 62
256
370
-1
  6
ByLayer
 10
1.1843000000000001
 20
0.4219
 30
0.0
 11
1.1843000000000001
 21
0.4277
 31
0.0
  0
LINE
  5
6F
100
AcDbEntity
100
AcDbLine
  8
BLACK
 62
256
370
-1
  6
ByLayer
 10
1.1843000000000001
 20
0.4277
 30
0.0
 11
1.1871
 21
0.4315
 31
0.0
  0
LINE
  5
70
100
AcDbEntity
100
AcDbLine
  8
BLACK
 62
256
370
-1
  6
ByLayer
 10
1.1871
 20
0.4315
 30
0.0
 11
1.1929000000000001
 21
0.4334
 31
0.0
  0
LINE
  5
71
100
AcDbEntity
100
AcDbLine
  8
BLACK
 62
256
370
-1
  6
ByLayer
 10
1.1929000000000001
 20
0.4334
 30
0.0
 11
1.2243000000000002
 21
0.4334
 31
0.0
  0
LINE
  5
72
100
AcDbEntity
100
AcDbLine
  8
BLACK
 62
256
370
-1
  6
ByLayer
 10
1.2214
 20
0.4677
 30
0.0
 11
1.2243000000000002
 21
0.4639
 31
0.0
  0
LINE
  5
73
100
AcDbEntity
100
AcDbLine
  8
BLACK
 62
256
370
-1
  6
ByLayer
 10
1.2243000000000002
 20
0.4639
 30
0.0
 11
1.2243000000000002
 21
0.4562
 31
0.0
  0
LINE
  5
74
100
AcDbEntity
100
AcDbLine
  8
BLACK
 62
256
370
-1
  6
ByLayer
 10
1.2243000000000002
 20
0.4562
 30
0.0
 11
1.2214
 21
0.4524
 31
0.0
  0
LINE
  5
75
100
AcDbEntity
100
AcDbLine
  8
BLACK
 62
256
370
-1
  6
ByLayer
 10
1.2214
 20
0.4524
 30
0.0
 11
1.2157
 21
0.4505
 31
0.0
  0
LINE
  5
76
100
AcDbEntity
100
AcDbLine
  8
BLACK
 62
256
370
-1
  6
ByLayer
 10
1.2157
 20
0.4505
 30
0.0
 11
1.1929000000000001
 21
0.4505
 31
0.0
  0
LINE
  5
77
100
AcDbEntity
100
AcDbLine
  8
BLACK
 62
256
370
-1
  6
ByLayer
 10
1.1929000000000001
 20
0.4505
 30
0.0
 11
1.1871
 21
0.4524
 31
0.0
  0
LINE
  5
78
100
AcDbEntity
100
AcDbLine
  8
BLACK
 62
256
370
-1
  6
ByLayer
 10
1.1871
 20
0.4524
 30
0.0
 11
1.1843000000000001
 21
0.4562
 31
0.0
  0
LINE
  5
79
100
AcDbEntity
100
AcDbLine
  8
BLACK
 62
256
370
-1
  6
ByLayer
 10
1.1843000000000001
 20
0.4562
 30
0.0
 11
1.1843000000000001
 21
0.4639
 31
0.0
  0
LINE
  5
7A
100
AcDbEntity
100
AcDbLine
  8
BLACK
 62
256
370
-1
  6
ByLayer
 10
1.1843000000000001
 20
0.4639
 30
0.0
 11
1.1871
 21
0.4677
 31
0.0
  0
LINE
  5
7B
100
AcDbEntity
100
AcDbLine
  8
BLACK
 62
256
370
-1
  6
ByLayer
 10
1.1871
 20
0.4677
 30
0.0
 11
1.1929000000000001
 21
0.4696
 31
0.0
  0
LINE
  5
7C
100
AcDbEntity
100
AcDbLine
  8
BLACK
 62
256
370
-1
  6
ByLayer
 10
1.1929000000000001
 20
0.4696
 30
0.0
 11
1.1986000000000001
 21
0.4696
 31
0.0
  0
LINE
  5
7D
100
AcDbEntity
100
AcDbLine
  8
BLACK
 62
256
370
-1
  6
ByLayer
 10
1.1986000000000001
 20
0.4696
 30
0.0
 11
1.2043000000000001
 21
0.4505
 31
0.0
  0
LINE
  5
7E
100
AcDbEntity
100
AcDbLine
  8
BLACK
 62
256
370
-1
  6
ByLayer
 10
1.1700000000000002
 20
0.5153
 30
0.0
 11
1.1671
 21
0.5172
 31
0.0
  0
LINE
  5
7F
100
AcDbEntity
100
AcDbLine
  8
BLACK
 62
256
370
-1
  6
ByLayer
 10
1.1671
 20
0.5172
 30
0.0
 11
1.1643000000000001
 21
0.521
 31
0.0
  0
LINE
  5
80
100
AcDbEntity
100
AcDbLine
  8
BLACK
 62
256
370
-1
  6
ByLayer
 10
1.1643000000000001
 20
0.521
 30
0.0
 11
1.1643000000000001
 21
0.5306000000000001
 31
0.0
  0
LINE
  5
81
100
AcDbEntity
100
AcDbLine
  8
BLACK
 62
256
370
-1
  6
ByLayer
 10
1.1643000000000001
 20
0.5306000000000001
 30
0.0
 11
1.1671
 21
0.5344
 31
0.0
  0
LINE
  5
82
100
AcDbEntity
100
AcDbLine
  8
BLACK
 62
256
370
-1
  6
ByLayer
 10
1.1671
 20
0.5344
 30
0.0
 11
1.1700000000000002
 21
0.5363
 31
0.0
  0
LINE
  5
83
100
AcDbEntity
100
AcDbLine
  8
BLACK
 62
256
370
-1
  6
ByLayer
 10
1.1700000000000002
 20
0.5363
 30
0.0
 11
1.1757
 21
0.5382
 31
0.0
  0
LINE
  5
84
100
AcDbEntity
100
AcDbLine
  8
BLACK
 62
256
370
-1
  6
ByLayer
 10
1.1757
 20
0.5382
 30
0.0
 11
1.1814
 21
0.5382
 31
0.0
  0
LINE
  5
85
100
AcDbEntity
100
AcDbLine
  8
BLACK
 62
256
370
-1
  6
ByLayer
 10
1.1814
 20
0.5382
 30
0.0
 11
1.1899999999999999
 21
0.5363
 31
0.0
  0
LINE
  5
86
100
AcDbEntity
100
AcDbLine
  8
BLACK
 62
256
370
-1
  6
ByLayer
 10
1.1899999999999999
 20
0.5363
 30
0.0
 11
1.2243000000000002
 21
0.5134000000000001
 31
0.0
  0
LINE
  5
87
100
AcDbEntity
100
AcDbLine
  8
BLACK
 62
256
370
-1
  6
ByLayer
 10
1.2243000000000002
 20
0.5134000000000001
 30
0.0
 11
1.2243000000000002
 21
0.5382
 31
0.0
  0
LINE
  5
88
100
AcDbEntity
100
AcDbLine
  8
BLACK
 62
256
370
-1
  6
ByLayer
 10
1.1643000000000001
 20
0.5629000000000001
 30
0.0
 11
1.1643000000000001
 21
0.5668000000000001
 31
0.0
  0
LINE
  5
89
100
AcDbEntity
100
AcDbLine
  8
BLACK
 62
256
370
-1
  6
ByLayer
 10
1.1643000000000001
 20
0.5668000000000001
 30
0.0
 11
1.1671
 21
0.5706
 31
0.0
  0
LINE
  5
8A
100
AcDbEntity
100
AcDbLine
  8
BLACK
 62
256
370
-1
  6
ByLayer
 10
1.1671
 20
0.5706
 30
0.0
 11
1.1700000000000002
 21
0.5725
 31
0.0
  0
LINE
  5
8B
100
AcDbEntity
100
AcDbLine
  8
BLACK
 62
256
370
-1
  6
ByLayer
 10
1.1700000000000002
 20
0.5725
 30
0.0
 11
1.1757
 21
0.5744
 31
0.0
  0
LINE
  5
8C
100
AcDbEntity
100
AcDbLine
  8
BLACK
 62
256
370
-1
  6
ByLayer
 10
1.1757
 20
0.5744
 30
0.0
 11
1.1871
 21
0.5763
 31
0.0
  0
LINE
  5
8D
100
AcDbEntity
100
AcDbLine
  8
BLACK
 62
256
370
-1
  6
ByLayer
 10
1.1871
 20
0.5763
 30
0.0
 11
1.2014
 21
0.5763
 31
0.0
  0
LINE
  5
8E
100
AcDbEntity
100
AcDbLine
  8
BLACK
 62
256
370
-1
  6
ByLayer
 10
1.2014
 20
0.5763
 30
0.0
 11
1.2129000000000001
 21
0.5744
 31
0.0
  0
LINE
  5
8F
100
AcDbEntity
100
AcDbLine
  8
BLACK
 62
256
370
-1
  6
ByLayer
 10
1.2129000000000001
 20
0.5744
 30
0.0
 11
1.2186000000000001
 21
0.5725
 31
0.0
  0
LINE
  5
90
100
AcDbEntity
100
AcDbLine
  8
BLACK
 62
256
370
-1
  6
ByLayer
 10
1.2186000000000001
 20
0.5725
 30
0.0
 11
1.2214
 21
0.5706
 31
0.0
  0
LINE
  5
91
100
AcDbEntity
100
AcDbLine
  8
BLACK
 62
256
370
-1
  6
ByLayer
 10
1.2214
 20
0.5706
 30
0.0
 11
1.2243000000000002
 21
0.5668000000000001
 31
0.0
  0
LINE
  5
92
100
AcDbEntity
100
AcDbLine
  8
BLACK
 62
256
370
-1
  6
ByLayer
 10
1.2243000000000002
 20
0.5668000000000001
 30
0.0
 11
1.2243000000000002
 21
0.5629000000000001
 31
0.0
  0
LINE
  5
93
100
AcDbEntity
100
AcDbLine
  8
BLACK
 62
256
370
-1
  6
ByLayer
 10
1.2243000000000002
 20
0.5629000000000001
 30
0.0
 11
1.2214
 21
0.5591
 31
0.0
  0
LINE
  5
94
100
AcDbEntity
100
AcDbLine
  8
BLACK
 62
256
370
-1
  6
ByLayer
 10
1.2214
 20
0.5591
 30
0.0
 11
1.2186000000000001
 21
0.5572
 31
0.0
  0
LINE
  5
95
100
AcDbEntity
100
AcDbLine
  8
BLACK
 62
256
370
-1
  6
ByLayer
 10
1.2186000000000001
 20
0.5572
 30
0.0
 11
1.2129000000000001
 21
0.5553
 31
0.0
  0
LINE
  5
96
100
AcDbEntity
100
AcDbLine
  8
BLACK
 62
256
370
-1
  6
ByLayer
 10
1.2129000000000001
 20
0.5553
 30
0.0
 11
1.2014
 21
0.5534
 31
0.0
  0
LINE
  5
97
100
AcDbEntity
100
AcDbLine
  8
BLACK
 62
256
370
-1
  6
ByLayer
 10
1.2014
 20
0.5534
 30
0.0
 11
1.1871
 21
0.5534
 31
0.0
  0
LINE
  5
98
100
AcDbEntity
100
AcDbLine
  8
BLACK
 62
256
370
-1
  6
ByLayer
 10
1.1871
 20
0.5534
 30
0.0
 11
1.1757
 21
0.5553
 31
0.0
  0
LINE
  5
99
100
AcDbEntity
100
AcDbLine
  8
BLACK
 62
256
370
-1
  6
ByLayer
 10
1.1757
 20
0.5553
 30
0.0
 11
1.1700000000000002
 21
0.5572
 31
0.0
  0
LINE
  5
9A
100
AcDbEntity
100
AcDbLine
  8
BLACK
 62
256
370
-1
  6
ByLayer
 10
1.1700000000000002
 20
0.5572
 30
0.0
 11
1.1671
 21
0.5591
 31
0.0
  0
LINE
  5
9B
100
AcDbEntity
100
AcDbLine
  8
BLACK
 62
256
370
-1
  6
ByLayer
 10
1.1671
 20
0.5591
 30
0.0
 11
1.1643000000000001
 21
0.5629000000000001
 31
0.0
  0
LINE
  5
9C
100
AcDbEntity
100
AcDbLine
  8
BLACK
 62
256
370
-1
  6
ByLayer
 10
1.2243000000000002
 20
0.6144000000000001
 30
0.0
 11
1.2243000000000002
 21
0.5915
 31
0.0
  0
LINE
  5
9D
100
AcDbEntity
100
AcDbLine
  8
BLACK
 62
256
370
-1
  6
ByLayer
 10
1.2243000000000002
 20
0.6029
 30
0.0
 11
1.1643000000000001
 21
0.6029
 31
0.0
  0
LINE
  5
9E
100
AcDbEntity
100
AcDbLine
  8
BLACK
 62
256
370
-1
  6
ByLayer
 10
1.1643000000000001
 20
0.6029
 30
0.0
 11
1.1729000000000001
 21
0.5991000000000001
 31
0.0
  0
LINE
  5
9F
100
AcDbEntity
100
AcDbLine
  8
BLACK
 62
256
370
-1
  6
ByLayer
 10
1.1729000000000001
 20
0.5991000000000001
 30
0.0
 11
1.1786000000000001
 21
0.5953000000000001
 31
0.0
  0
LINE
  5
A0
100
AcDbEntity
100
AcDbLine
  8
BLACK
 62
256
370
-1
  6
ByLayer
 10
1.1786000000000001
 20
0.5953000000000001
 30
0.0
 11
1.1814
 21
0.5915
 31
0.0
  0
LINE
  5
A1
100
AcDbEntity
100
AcDbLine
  8
BLACK
 62
256
370
-1
  6
ByLayer
 10
1.2243000000000002
 20
0.6525000000000001
 30
0.0
 11
1.2243000000000002
 21
0.6296
 31
0.0
  0
LINE
  5
A2
100
AcDbEntity
100
AcDbLine
  8
BLACK
 62
256
370
-1
  6
ByLayer
 10
1.2243000000000002
 20
0.641
 30
0.0
 11
1.1643000000000001
 21
0.641
 31
0.0
  0
LINE
  5
A3
100
AcDbEntity
100
AcDbLine
  8
BLACK
 62
256
370
-1
  6
ByLayer
 10
1.1643000000000001
 20
0.641
 30
0.0
 11
1.1729000000000001
 21
0.6372
 31
0.0
  0
LINE
  5
A4
100
AcDbEntity
100
AcDbLine
  8
BLACK
 62
256
370
-1
  6
ByLayer
 10
1.1729000000000001
 20
0.6372
 30
0.0
 11
1.1786000000000001
 21
0.6334000000000001
 31
0.0
  0
LINE
  5
A5
100
AcDbEntity
100
AcDbLine
  8
BLACK
 62
256
370
-1
  6
ByLayer
 10
1.1786000000000001
 20
0.6334000000000001
 30
0.0
 11
1.1814
 21
0.6296
 31
0.0
  0
LINE
  5
A6
100
AcDbEntity
100
AcDbLine
  8
BLACK
 62
256
370
-1
  6
ByLayer
 10
0.0393
 20
0.3943
 30
0.0
 11
0.0993
 21
0.4076
 31
0.0
  0
LINE
  5
A7
100
AcDbEntity
100
AcDbLine
  8
BLACK
 62
256
370
-1
  6
ByLayer
 10
0.0993
 20
0.4076
 30
0.0
 11
0.0393
 21
0.421
 31
0.0
  0
LINE
  5
A8
100
AcDbEntity
100
AcDbLine
  8
BLACK
 62
256
370
-1
  6
ByLayer
 10
0.0964
 20
0.4496
 30
0.0
 11
0.0993
 21
0.4458
 31
0.0
  0
LINE
  5
A9
100
AcDbEntity
100
AcDbLine
  8
BLACK
 62
256
370
-1
  6
ByLayer
 10
0.0993
 20
0.4458
 30
0.0
 11
0.0993
 21
0.4381
 31
0.0
  0
LINE
  5
AA
100
AcDbEntity
100
AcDbLine
  8
BLACK
 62
256
370
-1
  6
ByLayer
 10
0.0993
 20
0.4381
 30
0.0
 11
0.0964
 21
0.4343
 31
0.0
  0
LINE
  5
AB
100
AcDbEntity
100
AcDbLine
  8
BLACK
 62
256
370
-1
  6
ByLayer
 10
0.0964
 20
0.4343
 30
0.0
 11
0.0907
 21
0.4324
 31
0.0
  0
LINE
  5
AC
100
AcDbEntity
100
AcDbLine
  8
BLACK
 62
256
370
-1
  6
ByLayer
 10
0.0907
 20
0.4324
 30
0.0
 11
0.0679
 21
0.4324
 31
0.0
  0
LINE
  5
AD
100
AcDbEntity
100
AcDbLine
  8
BLACK
 62
256
370
-1
  6
ByLayer
 10
0.0679
 20
0.4324
 30
0.0
 11
0.0621
 21
0.4343
 31
0.0
  0
LINE
  5
AE
100
AcDbEntity
100
AcDbLine
  8
BLACK
 62
256
370
-1
  6
ByLayer
 10
0.0621
 20
0.4343
 30
0.0
 11
0.0593
 21
0.4381
 31
0.0
  0
LINE
  5
AF
100
AcDbEntity
100
AcDbLine
  8
BLACK
 62
256
370
-1
  6
ByLayer
 10
0.0593
 20
0.4381
 30
0.0
 11
0.0593
 21
0.4458
 31
0.0
  0
LINE
  5
B0
100
AcDbEntity
100
AcDbLine
  8
BLACK
 62
256
370
-1
  6
ByLayer
 10
0.0593
 20
0.4458
 30
0.0
 11
0.0621
 21
0.4496
 31
0.0
  0
LINE
  5
B1
100
AcDbEntity
100
AcDbLine
  8
BLACK
 62
256
370
-1
  6
ByLayer
 10
0.0621
 20
0.4496
 30
0.0
 11
0.0679
 21
0.4515
 31
0.0
  0
LINE
  5
B2
100
AcDbEntity
100
AcDbLine
  8
BLACK
 62
256
370
-1
  6
ByLayer
 10
0.0679
 20
0.4515
 30
0.0
 11
0.0736
 21
0.4515
 31
0.0
  0
LINE
  5
B3
100
AcDbEntity
100
AcDbLine
  8
BLACK
 62
256
370
-1
  6
ByLayer
 10
0.0736
 20
0.4515
 30
0.0
 11
0.0793
 21
0.4324
 31
0.0
  0
LINE
  5
B4
100
AcDbEntity
100
AcDbLine
  8
BLACK
 62
256
370
-1
  6
ByLayer
 10
0.0993
 20
0.4686
 30
0.0
 11
0.0593
 21
0.4686
 31
0.0
  0
LINE
  5
B5
100
AcDbEntity
100
AcDbLine
  8
BLACK
 62
256
370
-1
  6
ByLayer
 10
0.0707
 20
0.4686
 30
0.0
 11
0.065
 21
0.4705
 31
0.0
  0
LINE
  5
B6
100
AcDbEntity
100
AcDbLine
  8
BLACK
 62
256
370
-1
  6
ByLayer
 10
0.065
 20
0.4705
 30
0.0
 11
0.0621
 21
0.4724
 31
0.0
  0
LINE
  5
B7
100
AcDbEntity
100
AcDbLine
  8
BLACK
 62
256
370
-1
  6
ByLayer
 10
0.0621
 20
0.4724
 30
0.0
 11
0.0593
 21
0.4762
 31
0.0
  0
LINE
  5
B8
100
AcDbEntity
100
AcDbLine
  8
BLACK
 62
256
370
-1
  6
ByLayer
 10
0.0593
 20
0.4762
 30
0.0
 11
0.0593
 21
0.4801
 31
0.0
  0
LINE
  5
B9
100
AcDbEntity
100
AcDbLine
  8
BLACK
 62
256
370
-1
  6
ByLayer
 10
0.045
 20
0.522
 30
0.0
 11
0.0421
 21
0.5239
 31
0.0
  0
LINE
  5
BA
100
AcDbEntity
100
AcDbLine
  8
BLACK
 62
256
370
-1
  6
ByLayer
 10
0.0421
 20
0.5239
 30
0.0
 11
0.0393
 21
0.5277000000000001
 31
0.0
  0
LINE
  5
BB
100
AcDbEntity
100
AcDbLine
  8
BLACK
 62
256
370
-1
  6
ByLayer
 10
0.0393
 20
0.5277000000000001
 30
0.0
 11
0.0393
 21
0.5373
 31
0.0
  0
LINE
  5
BC
100
AcDbEntity
100
AcDbLine
  8
BLACK
 62
256
370
-1
  6
ByLayer
 10
0.0393
 20
0.5373
 30
0.0
 11
0.0421
 21
0.5411
 31
0.0
  0
LINE
  5
BD
100
AcDbEntity
100
AcDbLine
  8
BLACK
 62
256
370
-1
  6
ByLayer
 10
0.0421
 20
0.5411
 30
0.0
 11
0.045
 21
0.543
 31
0.0
  0
LINE
  5
BE
100
AcDbEntity
100
AcDbLine
  8
BLACK
 62
256
370
-1
  6
ByLayer
 10
0.045
 20
0.543
 30
0.0
 11
0.0507
 21
0.5449000000000001
 31
0.0
  0
LINE
  5
BF
100
AcDbEntity
100
AcDbLine
  8
BLACK
 62
256
370
-1
  6
ByLayer
 10
0.0507
 20
0.5449000000000001
 30
0.0
 11
0.0564
 21
0.5449000000000001
 31
0.0
  0
LINE
  5
C0
100
AcDbEntity
100
AcDbLine
  8
BLACK
 62
256
370
-1
  6
ByLayer
 10
0.0564
 20
0.5449000000000001
 30
0.0
 11
0.065
 21
0.543
 31
0.0
  0
LINE
  5
C1
100
AcDbEntity
100
AcDbLine
  8
BLACK
 62
256
370
-1
  6
ByLayer
 10
0.065
 20
0.543
 30
0.0
 11
0.0993
 21
0.5201
 31
0.0
  0
LINE
  5
C2
100
AcDbEntity
100
AcDbLine
  8
BLACK
 62
256
370
-1
  6
ByLayer
 10
0.0993
 20
0.5201
 30
0.0
 11
0.0993
 21
0.5449000000000001
 31
0.0
  0
LINE
  5
C3
100
AcDbEntity
100
AcDbLine
  8
BLACK
 62
256
370
-1
  6
ByLayer
 10
0.0936
 20
0.5620000000000001
 30
0.0
 11
0.0964
 21
0.5639000000000001
 31
0.0
  0
LINE
  5
C4
100
AcDbEntity
100
AcDbLine
  8
BLACK
 62
256
370
-1
  6
ByLayer
 10
0.0964
 20
0.5639000000000001
 30
0.0
 11
0.0993
 21
0.5620000000000001
 31
0.0
  0
LINE
  5
C5
100
AcDbEntity
100
AcDbLine
  8
BLACK
 62
256
370
-1
  6
ByLayer
 10
0.0993
 20
0.5620000000000001
 30
0.0
 11
0.0964
 21
0.5601
 31
0.0
  0
LINE
  5
C6
100
AcDbEntity
100
AcDbLine
  8
BLACK
 62
256
370
-1
  6
ByLayer
 10
0.0964
 20
0.5601
 30
0.0
 11
0.0936
 21
0.5620000000000001
 31
0.0
  0
LINE
  5
C7
100
AcDbEntity
100
AcDbLine
  8
BLACK
 62
256
370
-1
  6
ByLayer
 10
0.0936
 20
0.5620000000000001
 30
0.0
 11
0.0993
 21
0.5620000000000001
 31
0.0
  0
LINE
  5
C8
100
AcDbEntity
100
AcDbLine
  8
BLACK
 62
256
370
-1
  6
ByLayer
 10
0.0993
 20
0.602
 30
0.0
 11
0.0993
 21
0.5791000000000001
 31
0.0
  0
LINE
  5
C9
100
AcDbEntity
100
AcDbLine
  8
BLACK
 62
256
370
-1
  6
ByLayer
 10
0.0993
 20
0.5905
 30
0.0
 11
0.0393
 21
0.5905
 31
0.0
  0
LINE
  5
CA
100
AcDbEntity
100
AcDbLine
  8
BLACK
 62
256
370
-1
  6
ByLayer
 10
0.0393
 20
0.5905
 30
0.0
 11
0.0479
 21
0.5867
 31
0.0
  0
LINE
  5
CB
100
AcDbEntity
100
AcDbLine
  8
BLACK
 62
256
370
-1
  6
ByLayer
 10
0.0479
 20
0.5867
 30
0.0
 11
0.0536
 21
0.5829
 31
0.0
  0
LINE
  5
CC
100
AcDbEntity
100
AcDbLine
  8
BLACK
 62
256
370
-1
  6
ByLayer
 10
0.0536
 20
0.5829
 30
0.0
 11
0.0564
 21
0.5791000000000001
 31
0.0
  0
LINE
  5
CD
100
AcDbEntity
100
AcDbLine
  8
BLACK
 62
256
370
-1
  6
ByLayer
 10
0.2136
 20
0.4426
 30
0.0
 11
0.2136
 21
0.5226000000000001
 31
0.0
  0
LINE
  5
CE
100
AcDbEntity
100
AcDbLine
  8
BLACK
 62
256
370
-1
  6
ByLayer
 10
0.2136
 20
0.5226000000000001
 30
0.0
 11
0.2364
 21
0.5226000000000001
 31
0.0
  0
LINE
  5
CF
100
AcDbEntity
100
AcDbLine
  8
BLACK
 62
256
370
-1
  6
ByLayer
 10
0.2364
 20
0.5226000000000001
 30
0.0
 11
0.2422
 21
0.5188
 31
0.0
  0
LINE
  5
D0
100
AcDbEntity
100
AcDbLine
  8
BLACK
 62
256
370
-1
  6
ByLayer
 10
0.2422
 20
0.5188
 30
0.0
 11
0.245
 21
0.515
 31
0.0
  0
LINE
  5
D1
100
AcDbEntity
100
AcDbLine
  8
BLACK
 62
256
370
-1
  6
ByLayer
 10
0.245
 20
0.515
 30
0.0
 11
0.2479
 21
0.5074000000000001
 31
0.0
  0
LINE
  5
D2
100
AcDbEntity
100
AcDbLine
  8
BLACK
 62
256
370
-1
  6
ByLayer
 10
0.2479
 20
0.5074000000000001
 30
0.0
 11
0.2479
 21
0.496
 31
0.0
  0
LINE
  5
D3
100
AcDbEntity
100
AcDbLine
  8
BLACK
 62
256
370
-1
  6
ByLayer
 10
0.2479
 20
0.496
 30
0.0
 11
0.245
 21
0.4883
 31
0.0
  0
LINE
  5
D4
100
AcDbEntity
100
AcDbLine
  8
BLACK
 62
256
370
-1
  6
ByLayer
 10
0.245
 20
0.4883
 30
0.0
 11
0.2422
 21
0.4845
 31
0.0
  0
LINE
  5
D5
100
AcDbEntity
100
AcDbLine
  8
BLACK
 62
256
370
-1
  6
ByLayer
 10
0.2422
 20
0.4845
 30
0.0
 11
0.2364
 21
0.4807
 31
0.0
  0
LINE
  5
D6
100
AcDbEntity
100
AcDbLine
  8
BLACK
 62
256
370
-1
  6
ByLayer
 10
0.2364
 20
0.4807
 30
0.0
 11
0.2136
 21
0.4807
 31
0.0
  0
LINE
  5
D7
100
AcDbEntity
100
AcDbLine
  8
BLACK
 62
256
370
-1
  6
ByLayer
 10
0.2822
 20
0.4426
 30
0.0
 11
0.2764
 21
0.4464
 31
0.0
  0
LINE
  5
D8
100
AcDbEntity
100
AcDbLine
  8
BLACK
 62
256
370
-1
  6
ByLayer
 10
0.2764
 20
0.4464
 30
0.0
 11
0.2736
 21
0.4502
 31
0.0
  0
LINE
  5
D9
100
AcDbEntity
100
AcDbLine
  8
BLACK
 62
256
370
-1
  6
ByLayer
 10
0.2736
 20
0.4502
 30
0.0
 11
0.2707
 21
0.4579
 31
0.0
  0
LINE
  5
DA
100
AcDbEntity
100
AcDbLine
  8
BLACK
 62
256
370
-1
  6
ByLayer
 10
0.2707
 20
0.4579
 30
0.0
 11
0.2707
 21
0.4807
 31
0.0
  0
LINE
  5
DB
100
AcDbEntity
100
AcDbLine
  8
BLACK
 62
256
370
-1
  6
ByLayer
 10
0.2707
 20
0.4807
 30
0.0
 11
0.2736
 21
0.4883
 31
0.0
  0
LINE
  5
DC
100
AcDbEntity
100
AcDbLine
  8
BLACK
 62
256
370
-1
  6
ByLayer
 10
0.2736
 20
0.4883
 30
0.0
 11
0.2764
 21
0.4921
 31
0.0
  0
LINE
  5
DD
100
AcDbEntity
100
AcDbLine
  8
BLACK
 62
256
370
-1
  6
ByLayer
 10
0.2764
 20
0.4921
 30
0.0
 11
0.2822
 21
0.496
 31
0.0
  0
LINE
  5
DE
100
AcDbEntity
100
AcDbLine
  8
BLACK
 62
256
370
-1
  6
ByLayer
 10
0.2822
 20
0.496
 30
0.0
 11
0.2907
 21
0.496
 31
0.0
  0
LINE
  5
DF
100
AcDbEntity
100
AcDbLine
  8
BLACK
 62
256
370
-1
  6
ByLayer
 10
0.2907
 20
0.496
 30
0.0
 11
0.2964
 21
0.4921
 31
0.0
  0
LINE
  5
E0
100
AcDbEntity
100
AcDbLine
  8
BLACK
 62
256
370
-1
  6
ByLayer
 10
0.2964
 20
0.4921
 30
0.0
 11
0.2993
 21
0.4883
 31
0.0
  0
LINE
  5
E1
100
AcDbEntity
100
AcDbLine
  8
BLACK
 62
256
370
-1
  6
ByLayer
 10
0.2993
 20
0.4883
 30
0.0
 11
0.3022
 21
0.4807
 31
0.0
  0
LINE
  5
E2
100
AcDbEntity
100
AcDbLine
  8
BLACK
 62
256
370
-1
  6
ByLayer
 10
0.3022
 20
0.4807
 30
0.0
 11
0.3022
 21
0.4579
 31
0.0
  0
LINE
  5
E3
100
AcDbEntity
100
AcDbLine
  8
BLACK
 62
256
370
-1
  6
ByLayer
 10
0.3022
 20
0.4579
 30
0.0
 11
0.2993
 21
0.4502
 31
0.0
  0
LINE
  5
E4
100
AcDbEntity
100
AcDbLine
  8
BLACK
 62
256
370
-1
  6
ByLayer
 10
0.2993
 20
0.4502
 30
0.0
 11
0.2964
 21
0.4464
 31
0.0
  0
LINE
  5
E5
100
AcDbEntity
100
AcDbLine
  8
BLACK
 62
256
370
-1
  6
ByLayer
 10
0.2964
 20
0.4464
 30
0.0
 11
0.2907
 21
0.4426
 31
0.0
  0
LINE
  5
E6
100
AcDbEntity
100
AcDbLine
  8
BLACK
 62
256
370
-1
  6
ByLayer
 10
0.2907
 20
0.4426
 30
0.0
 11
0.2822
 21
0.4426
 31
0.0
  0
LINE
  5
E7
100
AcDbEntity
100
AcDbLine
  8
BLACK
 62
256
370
-1
  6
ByLayer
 10
0.3222
 20
0.496
 30
0.0
 11
0.3336
 21
0.4426
 31
0.0
  0
LINE
  5
E8
100
AcDbEntity
100
AcDbLine
  8
BLACK
 62
256
370
-1
  6
ByLayer
 10
0.3336
 20
0.4426
 30
0.0
 11
0.345
 21
0.4807
 31
0.0
  0
LINE
  5
E9
100
AcDbEntity
100
AcDbLine
  8
BLACK
 62
256
370
-1
  6
ByLayer
 10
0.345
 20
0.4807
 30
0.0
 11
0.3565
 21
0.4426
 31
0.0
  0
LINE
  5
EA
100
AcDbEntity
100
AcDbLine
  8
BLACK
 62
256
370
-1
  6
ByLayer
 10
0.3565
 20
0.4426
 30
0.0
 11
0.3679
 21
0.496
 31
0.0
  0
LINE
  5
EB
100
AcDbEntity
100
AcDbLine
  8
BLACK
 62
256
370
-1
  6
ByLayer
 10
0.4136
 20
0.4464
 30
0.0
 11
0.4079
 21
0.4426
 31
0.0
  0
LINE
  5
EC
100
AcDbEntity
100
AcDbLine
  8
BLACK
 62
256
370
-1
  6
ByLayer
 10
0.4079
 20
0.4426
 30
0.0
 11
0.3965
 21
0.4426
 31
0.0
  0
LINE
  5
ED
100
AcDbEntity
100
AcDbLine
  8
BLACK
 62
256
370
-1
  6
ByLayer
 10
0.3965
 20
0.4426
 30
0.0
 11
0.3908
 21
0.4464
 31
0.0
  0
LINE
  5
EE
100
AcDbEntity
100
AcDbLine
  8
BLACK
 62
256
370
-1
  6
ByLayer
 10
0.3908
 20
0.4464
 30
0.0
 11
0.3879
 21
0.454
 31
0.0
  0
LINE
  5
EF
100
AcDbEntity
100
AcDbLine
  8
BLACK
 62
256
370
-1
  6
ByLayer
 10
0.3879
 20
0.454
 30
0.0
 11
0.3879
 21
0.4845
 31
0.0
  0
LINE
  5
F0
100
AcDbEntity
100
AcDbLine
  8
BLACK
 62
256
370
-1
  6
ByLayer
 10
0.3879
 20
0.4845
 30
0.0
 11
0.3908
 21
0.4921
 31
0.0
  0
LINE
  5
F1
100
AcDbEntity
100
AcDbLine
  8
BLACK
 62
256
370
-1
  6
ByLayer
 10
0.3908
 20
0.4921
 30
0.0
 11
0.3965
 21
0.496
 31
0.0
  0
LINE
  5
F2
100
AcDbEntity
100
AcDbLine
  8
BLACK
 62
256
370
-1
  6
ByLayer
 10
0.3965
 20
0.496
 30
0.0
 11
0.4079
 21
0.496
 31
0.0
  0
LINE
  5
F3
100
AcDbEntity
100
AcDbLine
  8
BLACK
 62
256
370
-1
  6
ByLayer
 10
0.4079
 20
0.496
 30
0.0
 11
0.4136
 21
0.4921
 31
0.0
  0
LINE
  5
F4
100
AcDbEntity
100
AcDbLine
  8
BLACK
 62
256
370
-1
  6
ByLayer
 10
0.4136
 20
0.4921
 30
0.0
 11
0.4165
 21
0.4845
 31
0.0
  0
LINE
  5
F5
100
AcDbEntity
100
AcDbLine
  8
BLACK
 62
256
370
-1
  6
ByLayer
 10
0.4165
 20
0.4845
 30
0.0
 11
0.4165
 21
0.4769
 31
0.0
  0
LINE
  5
F6
100
AcDbEntity
100
AcDbLine
  8
BLACK
 62
256
370
-1
  6
ByLayer
 10
0.4165
 20
0.4769
 30
0.0
 11
0.3879
 21
0.4693
 31
0.0
  0
LINE
  5
F7
100
AcDbEntity
100
AcDbLine
  8
BLACK
 62
256
370
-1
  6
ByLayer
 10
0.4422
 20
0.4426
 30
0.0
 11
0.4422
 21
0.496
 31
0.0
  0
LINE
  5
F8
100
AcDbEntity
100
AcDbLine
  8
BLACK
 62
256
370
-1
  6
ByLayer
 10
0.4422
 20
0.4807
 30
0.0
 11
0.445
 21
0.4883
 31
0.0
  0
LINE
  5
F9
100
AcDbEntity
100
AcDbLine
  8
BLACK
 62
256
370
-1
  6
ByLayer
 10
0.445
 20
0.4883
 30
0.0
 11
0.4479
 21
0.4921
 31
0.0
  0
LINE
  5
FA
100
AcDbEntity
100
AcDbLine
  8
BLACK
 62
256
370
-1
  6
ByLayer
 10
0.4479
 20
0.4921
 30
0.0
 11
0.4536
 21
0.496
 31
0.0
  0
LINE
  5
FB
100
AcDbEntity
100
AcDbLine
  8
BLACK
 62
256
370
-1
  6
ByLayer
 10
0.4536
 20
0.496
 30
0.0
 11
0.4593
 21
0.496
 31
0.0
  0
LINE
  5
FC
100
AcDbEntity
100
AcDbLine
  8
BLACK
 62
256
370
-1
  6
ByLayer
 10
0.4764
 20
0.4464
 30
0.0
 11
0.485
 21
0.4426
 31
0.0
  0
LINE
  5
FD
100
AcDbEntity
100
AcDbLine
  8
BLACK
 62
256
370
-1
  6
ByLayer
 10
0.485
 20
0.4426
 30
0.0
 11
0.4993
 21
0.4426
 31
0.0
  0
LINE
  5
FE
100
AcDbEntity
100
AcDbLine
  8
BLACK
 62
256
370
-1
  6
ByLayer
 10
0.4993
 20
0.4426
 30
0.0
 11
0.505
 21
0.4464
 31
0.0
  0
LINE
  5
FF
100
AcDbEntity
100
AcDbLine
  8
BLACK
 62
256
370
-1
  6
ByLayer
 10
0.505
 20
0.4464
 30
0.0
 11
0.5079
 21
0.4502
 31
0.0
  0
LINE
  5
100
100
AcDbEntity
100
AcDbLine
  8
BLACK
 62
256
370
-1
  6
ByLayer
 10
0.5079
 20
0.4502
 30
0.0
 11
0.5107
 21
0.4579
 31
0.0
  0
LINE
  5
101
100
AcDbEntity
100
AcDbLine
  8
BLACK
 62
256
370
-1
  6
ByLayer
 10
0.5107
 20
0.4579
 30
0.0
 11
0.5107
 21
0.4655
 31
0.0
  0
LINE
  5
102
100
AcDbEntity
100
AcDbLine
  8
BLACK
 62
256
370
-1
  6
ByLayer
 10
0.5107
 20
0.4655
 30
0.0
 11
0.5079
 21
0.4731
 31
0.0
  0
LINE
  5
103
100
AcDbEntity
100
AcDbLine
  8
BLACK
 62
256
370
-1
  6
ByLayer
 10
0.5079
 20
0.4731
 30
0.0
 11
0.505
 21
0.4769
 31
0.0
  0
LINE
  5
104
100
AcDbEntity
100
AcDbLine
  8
BLACK
 62
256
370
-1
  6
ByLayer
 10
0.505
 20
0.4769
 30
0.0
 11
0.4993
 21
0.4807
 31
0.0
  0
LINE
  5
105
100
AcDbEntity
100
AcDbLine
  8
BLACK
 62
256
370
-1
  6
ByLayer
 10
0.4993
 20
0.4807
 30
0.0
 11
0.4879
 21
0.4845
 31
0.0
  0
LINE
  5
106
100
AcDbEntity
100
AcDbLine
  8
BLACK
 62
256
370
-1
  6
ByLayer
 10
0.4879
 20
0.4845
 30
0.0
 11
0.4821
 21
0.4883
 31
0.0
  0
LINE
  5
107
100
AcDbEntity
100
AcDbLine
  8
BLACK
 62
256
370
-1
  6
ByLayer
 10
0.4821
 20
0.4883
 30
0.0
 11
0.4793
 21
0.4921
 31
0.0
  0
LINE
  5
108
100
AcDbEntity
100
AcDbLine
  8
BLACK
 62
256
370
-1
  6
ByLayer
 10
0.4793
 20
0.4921
 30
0.0
 11
0.4764
 21
0.4998
 31
0.0
  0
LINE
  5
109
100
AcDbEntity
100
AcDbLine
  8
BLACK
 62
256
370
-1
  6
ByLayer
 10
0.4764
 20
0.4998
 30
0.0
 11
0.4764
 21
0.5074000000000001
 31
0.0
  0
LINE
  5
10A
100
AcDbEntity
100
AcDbLine
  8
BLACK
 62
256
370
-1
  6
ByLayer
 10
0.4764
 20
0.5074000000000001
 30
0.0
 11
0.4793
 21
0.515
 31
0.0
  0
LINE
  5
10B
100
AcDbEntity
100
AcDbLine
  8
BLACK
 62
256
370
-1
  6
ByLayer
 10
0.4793
 20
0.515
 30
0.0
 11
0.4821
 21
0.5188
 31
0.0
  0
LINE
  5
10C
100
AcDbEntity
100
AcDbLine
  8
BLACK
 62
256
370
-1
  6
ByLayer
 10
0.4821
 20
0.5188
 30
0.0
 11
0.4879
 21
0.5226000000000001
 31
0.0
  0
LINE
  5
10D
100
AcDbEntity
100
AcDbLine
  8
BLACK
 62
256
370
-1
  6
ByLayer
 10
0.4879
 20
0.5226000000000001
 30
0.0
 11
0.5021
 21
0.5226000000000001
 31
0.0
  0
LINE
  5
10E
100
AcDbEntity
100
AcDbLine
  8
BLACK
 62
256
370
-1
  6
ByLayer
 10
0.5021
 20
0.5226000000000001
 30
0.0
 11
0.5107
 21
0.5188
 31
0.0
  0
LINE
  5
10F
100
AcDbEntity
100
AcDbLine
  8
BLACK
 62
256
370
-1
  6
ByLayer
 10
0.5364
 20
0.4426
 30
0.0
 11
0.5364
 21
0.496
 31
0.0
  0
LINE
  5
110
100
AcDbEntity
100
AcDbLine
  8
BLACK
 62
256
370
-1
  6
ByLayer
 10
0.5364
 20
0.5226000000000001
 30
0.0
 11
0.5335
 21
0.5188
 31
0.0
  0
LINE
  5
111
100
AcDbEntity
100
AcDbLine
  8
BLACK
 62
256
370
-1
  6
ByLayer
 10
0.5335
 20
0.5188
 30
0.0
 11
0.5364
 21
0.515
 31
0.0
  0
LINE
  5
112
100
AcDbEntity
100
AcDbLine
  8
BLACK
 62
256
370
-1
  6
ByLayer
 10
0.5364
 20
0.515
 30
0.0
 11
0.5392
 21
0.5188
 31
0.0
  0
LINE
  5
113
100
AcDbEntity
100
AcDbLine
  8
BLACK
 62
256
370
-1
  6
ByLayer
 10
0.5392
 20
0.5188
 30
0.0
 11
0.5364
 21
0.5226000000000001
 31
0.0
  0
LINE
  5
114
100
AcDbEntity
100
AcDbLine
  8
BLACK
 62
256
370
-1
  6
ByLayer
 10
0.5364
 20
0.5226000000000001
 30
0.0
 11
0.5364
 21
0.515
 31
0.0
  0
LINE
  5
115
100
AcDbEntity
100
AcDbLine
  8
BLACK
 62
256
370
-1
  6
ByLayer
 10
0.5907
 20
0.496
 30
0.0
 11
0.5907
 21
0.4312
 31
0.0
  0
LINE
  5
116
100
AcDbEntity
100
AcDbLine
  8
BLACK
 62
256
370
-1
  6
ByLayer
 10
0.5907
 20
0.4312
 30
0.0
 11
0.5878
 21
0.4236
 31
0.0
  0
LINE
  5
117
100
AcDbEntity
100
AcDbLine
  8
BLACK
 62
256
370
-1
  6
ByLayer
 10
0.5878
 20
0.4236
 30
0.0
 11
0.5850000000000001
 21
0.4198
 31
0.0
  0
LINE
  5
118
100
AcDbEntity
100
AcDbLine
  8
BLACK
 62
256
370
-1
  6
ByLayer
 10
0.5850000000000001
 20
0.4198
 30
0.0
 11
0.5793
 21
0.416
 31
0.0
  0
LINE
  5
119
100
AcDbEntity
100
AcDbLine
  8
BLACK
 62
256
370
-1
  6
ByLayer
 10
0.5793
 20
0.416
 30
0.0
 11
0.5707
 21
0.416
 31
0.0
  0
LINE
  5
11A
100
AcDbEntity
100
AcDbLine
  8
BLACK
 62
256
370
-1
  6
ByLayer
 10
0.5707
 20
0.416
 30
0.0
 11
0.5650000000000001
 21
0.4198
 31
0.0
  0
LINE
  5
11B
100
AcDbEntity
100
AcDbLine
  8
BLACK
 62
256
370
-1
  6
ByLayer
 10
0.5907
 20
0.4464
 30
0.0
 11
0.5850000000000001
 21
0.4426
 31
0.0
  0
LINE
  5
11C
100
AcDbEntity
100
AcDbLine
  8
BLACK
 62
256
370
-1
  6
ByLayer
 10
0.5850000000000001
 20
0.4426
 30
0.0
 11
0.5736
 21
0.4426
 31
0.0
  0
LINE
  5
11D
100
AcDbEntity
100
AcDbLine
  8
BLACK
 62
256
370
-1
  6
ByLayer
 10
0.5736
 20
0.4426
 30
0.0
 11
0.5678000000000001
 21
0.4464
 31
0.0
  0
LINE
  5
11E
100
AcDbEntity
100
AcDbLine
  8
BLACK
 62
256
370
-1
  6
ByLayer
 10
0.5678000000000001
 20
0.4464
 30
0.0
 11
0.5650000000000001
 21
0.4502
 31
0.0
  0
LINE
  5
11F
100
AcDbEntity
100
AcDbLine
  8
BLACK
 62
256
370
-1
  6
ByLayer
 10
0.5650000000000001
 20
0.4502
 30
0.0
 11
0.5621
 21
0.4579
 31
0.0
  0
LINE
  5
120
100
AcDbEntity
100
AcDbLine
  8
BLACK
 62
256
370
-1
  6
ByLayer
 10
0.5621
 20
0.4579
 30
0.0
 11
0.5621
 21
0.4807
 31
0.0
  0
LINE
  5
121
100
AcDbEntity
100
AcDbLine
  8
BLACK
 62
256
370
-1
  6
ByLayer
 10
0.5621
 20
0.4807
 30
0.0
 11
0.5650000000000001
 21
0.4883
 31
0.0
  0
LINE
  5
122
100
AcDbEntity
100
AcDbLine
  8
BLACK
 62
256
370
-1
  6
ByLayer
 10
0.5650000000000001
 20
0.4883
 30
0.0
 11
0.5678000000000001
 21
0.4921
 31
0.0
  0
LINE
  5
123
100
AcDbEntity
100
AcDbLine
  8
BLACK
 62
256
370
-1
  6
ByLayer
 10
0.5678000000000001
 20
0.4921
 30
0.0
 11
0.5736
 21
0.496
 31
0.0
  0
LINE
  5
124
100
AcDbEntity
100
AcDbLine
  8
BLACK
 62
256
370
-1
  6
ByLayer
 10
0.5736
 20
0.496
 30
0.0
 11
0.5850000000000001
 21
0.496
 31
0.0
  0
LINE
  5
125
100
AcDbEntity
100
AcDbLine
  8
BLACK
 62
256
370
-1
  6
ByLayer
 10
0.5850000000000001
 20
0.496
 30
0.0
 11
0.5907
 21
0.4921
 31
0.0
  0
LINE
  5
126
100
AcDbEntity
100
AcDbLine
  8
BLACK
 62
256
370
-1
  6
ByLayer
 10
0.6193000000000001
 20
0.496
 30
0.0
 11
0.6193000000000001
 21
0.4426
 31
0.0
  0
LINE
  5
127
100
AcDbEntity
100
AcDbLine
  8
BLACK
 62
256
370
-1
  6
ByLayer
 10
0.6193000000000001
 20
0.4883
 30
0.0
 11
0.6221
 21
0.4921
 31
0.0
  0
LINE
  5
128
100
AcDbEntity
100
AcDbLine
  8
BLACK
 62
256
370
-1
  6
ByLayer
 10
0.6221
 20
0.4921
 30
0.0
 11
0.6279
 21
0.496
 31
0.0
  0
LINE
  5
129
100
AcDbEntity
100
AcDbLine
  8
BLACK
 62
256
370
-1
  6
ByLayer
 10
0.6279
 20
0.496
 30
0.0
 11
0.6364000000000001
 21
0.496
 31
0.0
  0
LINE
  5
12A
100
AcDbEntity
100
AcDbLine
  8
BLACK
 62
256
370
-1
  6
ByLayer
 10
0.6364000000000001
 20
0.496
 30
0.0
 11
0.6421
 21
0.4921
 31
0.0
  0
LINE
  5
12B
100
AcDbEntity
100
AcDbLine
  8
BLACK
 62
256
370
-1
  6
ByLayer
 10
0.6421
 20
0.4921
 30
0.0
 11
0.645
 21
0.4845
 31
0.0
  0
LINE
  5
12C
100
AcDbEntity
100
AcDbLine
  8
BLACK
 62
256
370
-1
  6
ByLayer
 10
0.645
 20
0.4845
 30
0.0
 11
0.645
 21
0.4426
 31
0.0
  0
LINE
  5
12D
100
AcDbEntity
100
AcDbLine
  8
BLACK
 62
256
370
-1
  6
ByLayer
 10
0.6993
 20
0.4426
 30
0.0
 11
0.6993
 21
0.4845
 31
0.0
  0
LINE
  5
12E
100
AcDbEntity
100
AcDbLine
  8
BLACK
 62
256
370
-1
  6
ByLayer
 10
0.6993
 20
0.4845
 30
0.0
 11
0.6964
 21
0.4921
 31
0.0
  0
LINE
  5
12F
100
AcDbEntity
100
AcDbLine
  8
BLACK
 62
256
370
-1
  6
ByLayer
 10
0.6964
 20
0.4921
 30
0.0
 11
0.6907
 21
0.496
 31
0.0
  0
LINE
  5
130
100
AcDbEntity
100
AcDbLine
  8
BLACK
 62
256
370
-1
  6
ByLayer
 10
0.6907
 20
0.496
 30
0.0
 11
0.6793
 21
0.496
 31
0.0
  0
LINE
  5
131
100
AcDbEntity
100
AcDbLine
  8
BLACK
 62
256
370
-1
  6
ByLayer
 10
0.6793
 20
0.496
 30
0.0
 11
0.6736000000000001
 21
0.4921
 31
0.0
  0
LINE
  5
132
100
AcDbEntity
100
AcDbLine
  8
BLACK
 62
256
370
-1
  6
ByLayer
 10
0.6993
 20
0.4464
 30
0.0
 11
0.6936
 21
0.4426
 31
0.0
  0
LINE
  5
133
100
AcDbEntity
100
AcDbLine
  8
BLACK
 62
256
370
-1
  6
ByLayer
 10
0.6936
 20
0.4426
 30
0.0
 11
0.6793
 21
0.4426
 31
0.0
  0
LINE
  5
134
100
AcDbEntity
100
AcDbLine
  8
BLACK
 62
256
370
-1
  6
ByLayer
 10
0.6793
 20
0.4426
 30
0.0
 11
0.6736000000000001
 21
0.4464
 31
0.0
  0
LINE
  5
135
100
AcDbEntity
100
AcDbLine
  8
BLACK
 62
256
370
-1
  6
ByLayer
 10
0.6736000000000001
 20
0.4464
 30
0.0
 11
0.6707000000000001
 21
0.454
 31
0.0
  0
LINE
  5
136
100
AcDbEntity
100
AcDbLine
  8
BLACK
 62
256
370
-1
  6
ByLayer
 10
0.6707000000000001
 20
0.454
 30
0.0
 11
0.6707000000000001
 21
0.4617
 31
0.0
  0
LINE
  5
137
100
AcDbEntity
100
AcDbLine
  8
BLACK
 62
256
370
-1
  6
ByLayer
 10
0.6707000000000001
 20
0.4617
 30
0.0
 11
0.6736000000000001
 21
0.4693
 31
0.0
  0
LINE
  5
138
100
AcDbEntity
100
AcDbLine
  8
BLACK
 62
256
370
-1
  6
ByLayer
 10
0.6736000000000001
 20
0.4693
 30
0.0
 11
0.6793
 21
0.4731
 31
0.0
  0
LINE
  5
139
100
AcDbEntity
100
AcDbLine
  8
BLACK
 62
256
370
-1
  6
ByLayer
 10
0.6793
 20
0.4731
 30
0.0
 11
0.6936
 21
0.4731
 31
0.0
  0
LINE
  5
13A
100
AcDbEntity
100
AcDbLine
  8
BLACK
 62
256
370
-1
  6
ByLayer
 10
0.6936
 20
0.4731
 30
0.0
 11
0.6993
 21
0.4769
 31
0.0
  0
LINE
  5
13B
100
AcDbEntity
100
AcDbLine
  8
BLACK
 62
256
370
-1
  6
ByLayer
 10
0.7365
 20
0.4426
 30
0.0
 11
0.7307
 21
0.4464
 31
0.0
  0
LINE
  5
13C
100
AcDbEntity
100
AcDbLine
  8
BLACK
 62
256
370
-1
  6
ByLayer
 10
0.7307
 20
0.4464
 30
0.0
 11
0.7279
 21
0.454
 31
0.0
  0
LINE
  5
13D
100
AcDbEntity
100
AcDbLine
  8
BLACK
 62
256
370
-1
  6
ByLayer
 10
0.7279
 20
0.454
 30
0.0
 11
0.7279
 21
0.5226000000000001
 31
0.0
  0
LINE
  5
13E
100
AcDbEntity
100
AcDbLine
  8
BLACK
 62
256
370
-1
  6
ByLayer
 10
0.8250000000000001
 20
0.4845
 30
0.0
 11
0.8336
 21
0.4807
 31
0.0
  0
LINE
  5
13F
100
AcDbEntity
100
AcDbLine
  8
BLACK
 62
256
370
-1
  6
ByLayer
 10
0.8336
 20
0.4807
 30
0.0
 11
0.8364
 21
0.4769
 31
0.0
  0
LINE
  5
140
100
AcDbEntity
100
AcDbLine
  8
BLACK
 62
256
370
-1
  6
ByLayer
 10
0.8364
 20
0.4769
 30
0.0
 11
0.8393
 21
0.4693
 31
0.0
  0
LINE
  5
141
100
AcDbEntity
100
AcDbLine
  8
BLACK
 62
256
370
-1
  6
ByLayer
 10
0.8393
 20
0.4693
 30
0.0
 11
0.8393
 21
0.4579
 31
0.0
  0
LINE
  5
142
100
AcDbEntity
100
AcDbLine
  8
BLACK
 62
256
370
-1
  6
ByLayer
 10
0.8393
 20
0.4579
 30
0.0
 11
0.8364
 21
0.4502
 31
0.0
  0
LINE
  5
143
100
AcDbEntity
100
AcDbLine
  8
BLACK
 62
256
370
-1
  6
ByLayer
 10
0.8364
 20
0.4502
 30
0.0
 11
0.8336
 21
0.4464
 31
0.0
  0
LINE
  5
144
100
AcDbEntity
100
AcDbLine
  8
BLACK
 62
256
370
-1
  6
ByLayer
 10
0.8336
 20
0.4464
 30
0.0
 11
0.8278000000000001
 21
0.4426
 31
0.0
  0
LINE
  5
145
100
AcDbEntity
100
AcDbLine
  8
BLACK
 62
256
370
-1
  6
ByLayer
 10
0.8278000000000001
 20
0.4426
 30
0.0
 11
0.805
 21
0.4426
 31
0.0
  0
LINE
  5
146
100
AcDbEntity
100
AcDbLine
  8
BLACK
 62
256
370
-1
  6
ByLayer
 10
0.805
 20
0.4426
 30
0.0
 11
0.805
 21
0.5226000000000001
 31
0.0
  0
LINE
  5
147
100
AcDbEntity
100
AcDbLine
  8
BLACK
 62
256
370
-1
  6
ByLayer
 10
0.805
 20
0.5226000000000001
 30
0.0
 11
0.8250000000000001
 21
0.5226000000000001
 31
0.0
  0
LINE
  5
148
100
AcDbEntity
100
AcDbLine
  8
BLACK
 62
256
370
-1
  6
ByLayer
 10
0.8250000000000001
 20
0.5226000000000001
 30
0.0
 11
0.8307
 21
0.5188
 31
0.0
  0
LINE
  5
149
100
AcDbEntity
100
AcDbLine
  8
BLACK
 62
256
370
-1
  6
ByLayer
 10
0.8307
 20
0.5188
 30
0.0
 11
0.8336
 21
0.515
 31
0.0
  0
LINE
  5
14A
100
AcDbEntity
100
AcDbLine
  8
BLACK
 62
256
370
-1
  6
ByLayer
 10
0.8336
 20
0.515
 30
0.0
 11
0.8364
 21
0.5074000000000001
 31
0.0
  0
LINE
  5
14B
100
AcDbEntity
100
AcDbLine
  8
BLACK
 62
256
370
-1
  6
ByLayer
 10
0.8364
 20
0.5074000000000001
 30
0.0
 11
0.8364
 21
0.4998
 31
0.0
  0
LINE
  5
14C
100
AcDbEntity
100
AcDbLine
  8
BLACK
 62
256
370
-1
  6
ByLayer
 10
0.8364
 20
0.4998
 30
0.0
 11
0.8336
 21
0.4921
 31
0.0
  0
LINE
  5
14D
100
AcDbEntity
100
AcDbLine
  8
BLACK
 62
256
370
-1
  6
ByLayer
 10
0.8336
 20
0.4921
 30
0.0
 11
0.8307
 21
0.4883
 31
0.0
  0
LINE
  5
14E
100
AcDbEntity
100
AcDbLine
  8
BLACK
 62
256
370
-1
  6
ByLayer
 10
0.8307
 20
0.4883
 30
0.0
 11
0.8250000000000001
 21
0.4845
 31
0.0
  0
LINE
  5
14F
100
AcDbEntity
100
AcDbLine
  8
BLACK
 62
256
370
-1
  6
ByLayer
 10
0.8250000000000001
 20
0.4845
 30
0.0
 11
0.805
 21
0.4845
 31
0.0
  0
LINE
  5
150
100
AcDbEntity
100
AcDbLine
  8
BLACK
 62
256
370
-1
  6
ByLayer
 10
0.8736
 20
0.4426
 30
0.0
 11
0.8678
 21
0.4464
 31
0.0
  0
LINE
  5
151
100
AcDbEntity
100
AcDbLine
  8
BLACK
 62
256
370
-1
  6
ByLayer
 10
0.8678
 20
0.4464
 30
0.0
 11
0.865
 21
0.4502
 31
0.0
  0
LINE
  5
152
100
AcDbEntity
100
AcDbLine
  8
BLACK
 62
256
370
-1
  6
ByLayer
 10
0.865
 20
0.4502
 30
0.0
 11
0.8621000000000001
 21
0.4579
 31
0.0
  0
LINE
  5
153
100
AcDbEntity
100
AcDbLine
  8
BLACK
 62
256
370
-1
  6
ByLayer
 10
0.8621000000000001
 20
0.4579
 30
0.0
 11
0.8621000000000001
 21
0.4807
 31
0.0
  0
LINE
  5
154
100
AcDbEntity
100
AcDbLine
  8
BLACK
 62
256
370
-1
  6
ByLayer
 10
0.8621000000000001
 20
0.4807
 30
0.0
 11
0.865
 21
0.4883
 31
0.0
  0
LINE
  5
155
100
AcDbEntity
100
AcDbLine
  8
BLACK
 62
256
370
-1
  6
ByLayer
 10
0.865
 20
0.4883
 30
0.0
 11
0.8678
 21
0.4921
 31
0.0
  0
LINE
  5
156
100
AcDbEntity
100
AcDbLine
  8
BLACK
 62
256
370
-1
  6
ByLayer
 10
0.8678
 20
0.4921
 30
0.0
 11
0.8736
 21
0.496
 31
0.0
  0
LINE
  5
157
100
AcDbEntity
100
AcDbLine
  8
BLACK
 62
256
370
-1
  6
ByLayer
 10
0.8736
 20
0.496
 30
0.0
 11
0.8821
 21
0.496
 31
0.0
  0
LINE
  5
158
100
AcDbEntity
100
AcDbLine
  8
BLACK
 62
256
370
-1
  6
ByLayer
 10
0.8821
 20
0.496
 30
0.0
 11
0.8878
 21
0.4921
 31
0.0
  0
LINE
  5
159
100
AcDbEntity
100
AcDbLine
  8
BLACK
 62
256
370
-1
  6
ByLayer
 10
0.8878
 20
0.4921
 30
0.0
 11
0.8907
 21
0.4883
 31
0.0
  0
LINE
  5
15A
100
AcDbEntity
100
AcDbLine
  8
BLACK
 62
256
370
-1
  6
ByLayer
 10
0.8907
 20
0.4883
 30
0.0
 11
0.8936000000000001
 21
0.4807
 31
0.0
  0
LINE
  5
15B
100
AcDbEntity
100
AcDbLine
  8
BLACK
 62
256
370
-1
  6
ByLayer
 10
0.8936000000000001
 20
0.4807
 30
0.0
 11
0.8936000000000001
 21
0.4579
 31
0.0
  0
LINE
  5
15C
100
AcDbEntity
100
AcDbLine
  8
BLACK
 62
256
370
-1
  6
ByLayer
 10
0.8936000000000001
 20
0.4579
 30
0.0
 11
0.8907
 21
0.4502
 31
0.0
  0
LINE
  5
15D
100
AcDbEntity
100
AcDbLine
  8
BLACK
 62
256
370
-1
  6
ByLayer
 10
0.8907
 20
0.4502
 30
0.0
 11
0.8878
 21
0.4464
 31
0.0
  0
LINE
  5
15E
100
AcDbEntity
100
AcDbLine
  8
BLACK
 62
256
370
-1
  6
ByLayer
 10
0.8878
 20
0.4464
 30
0.0
 11
0.8821
 21
0.4426
 31
0.0
  0
LINE
  5
15F
100
AcDbEntity
100
AcDbLine
  8
BLACK
 62
256
370
-1
  6
ByLayer
 10
0.8821
 20
0.4426
 30
0.0
 11
0.8736
 21
0.4426
 31
0.0
  0
LINE
  5
160
100
AcDbEntity
100
AcDbLine
  8
BLACK
 62
256
370
-1
  6
ByLayer
 10
0.9450000000000001
 20
0.4426
 30
0.0
 11
0.9450000000000001
 21
0.4845
 31
0.0
  0
LINE
  5
161
100
AcDbEntity
100
AcDbLine
  8
BLACK
 62
256
370
-1
  6
ByLayer
 10
0.9450000000000001
 20
0.4845
 30
0.0
 11
0.9421
 21
0.4921
 31
0.0
  0
LINE
  5
162
100
AcDbEntity
100
AcDbLine
  8
BLACK
 62
256
370
-1
  6
ByLayer
 10
0.9421
 20
0.4921
 30
0.0
 11
0.9364
 21
0.496
 31
0.0
  0
LINE
  5
163
100
AcDbEntity
100
AcDbLine
  8
BLACK
 62
256
370
-1
  6
ByLayer
 10
0.9364
 20
0.496
 30
0.0
 11
0.925
 21
0.496
 31
0.0
  0
LINE
  5
164
100
AcDbEntity
100
AcDbLine
  8
BLACK
 62
256
370
-1
  6
ByLayer
 10
0.925
 20
0.496
 30
0.0
 11
0.9193
 21
0.4921
 31
0.0
  0
LINE
  5
165
100
AcDbEntity
100
AcDbLine
  8
BLACK
 62
256
370
-1
  6
ByLayer
 10
0.9450000000000001
 20
0.4464
 30
0.0
 11
0.9393
 21
0.4426
 31
0.0
  0
LINE
  5
166
100
AcDbEntity
100
AcDbLine
  8
BLACK
 62
256
370
-1
  6
ByLayer
 10
0.9393
 20
0.4426
 30
0.0
 11
0.925
 21
0.4426
 31
0.0
  0
LINE
  5
167
100
AcDbEntity
100
AcDbLine
  8
BLACK
 62
256
370
-1
  6
ByLayer
 10
0.925
 20
0.4426
 30
0.0
 11
0.9193
 21
0.4464
 31
0.0
  0
LINE
  5
168
100
AcDbEntity
100
AcDbLine
  8
BLACK
 62
256
370
-1
  6
ByLayer
 10
0.9193
 20
0.4464
 30
0.0
 11
0.9164
 21
0.454
 31
0.0
  0
LINE
  5
169
100
AcDbEntity
100
AcDbLine
  8
BLACK
 62
256
370
-1
  6
ByLayer
 10
0.9164
 20
0.454
 30
0.0
 11
0.9164
 21
0.4617
 31
0.0
  0
LINE
  5
16A
100
AcDbEntity
100
AcDbLine
  8
BLACK
 62
256
370
-1
  6
ByLayer
 10
0.9164
 20
0.4617
 30
0.0
 11
0.9193
 21
0.4693
 31
0.0
  0
LINE
  5
16B
100
AcDbEntity
100
AcDbLine
  8
BLACK
 62
256
370
-1
  6
ByLayer
 10
0.9193
 20
0.4693
 30
0.0
 11
0.925
 21
0.4731
 31
0.0
  0
LINE
  5
16C
100
AcDbEntity
100
AcDbLine
  8
BLACK
 62
256
370
-1
  6
ByLayer
 10
0.925
 20
0.4731
 30
0.0
 11
0.9393
 21
0.4731
 31
0.0
  0
LINE
  5
16D
100
AcDbEntity
100
AcDbLine
  8
BLACK
 62
256
370
-1
  6
ByLayer
 10
0.9393
 20
0.4731
 30
0.0
 11
0.9450000000000001
 21
0.4769
 31
0.0
  0
LINE
  5
16E
100
AcDbEntity
100
AcDbLine
  8
BLACK
 62
256
370
-1
  6
ByLayer
 10
0.9736
 20
0.4426
 30
0.0
 11
0.9736
 21
0.496
 31
0.0
  0
LINE
  5
16F
100
AcDbEntity
100
AcDbLine
  8
BLACK
 62
256
370
-1
  6
ByLayer
 10
0.9736
 20
0.4807
 30
0.0
 11
0.9764
 21
0.4883
 31
0.0
  0
LINE
  5
170
100
AcDbEntity
100
AcDbLine
  8
BLACK
 62
256
370
-1
  6
ByLayer
 10
0.9764
 20
0.4883
 30
0.0
 11
0.9793000000000001
 21
0.4921
 31
0.0
  0
LINE
  5
171
100
AcDbEntity
100
AcDbLine
  8
BLACK
 62
256
370
-1
  6
ByLayer
 10
0.9793000000000001
 20
0.4921
 30
0.0
 11
0.9850000000000001
 21
0.496
 31
0.0
  0
LINE
  5
172
100
AcDbEntity
100
AcDbLine
  8
BLACK
 62
256
370
-1
  6
ByLayer
 10
0.9850000000000001
 20
0.496
 30
0.0
 11
0.9907
 21
0.496
 31
0.0
  0
LINE
  5
173
100
AcDbEntity
100
AcDbLine
  8
BLACK
 62
256
370
-1
  6
ByLayer
 10
1.0364
 20
0.4426
 30
0.0
 11
1.0364
 21
0.5226000000000001
 31
0.0
  0
LINE
  5
174
100
AcDbEntity
100
AcDbLine
  8
BLACK
 62
256
370
-1
  6
ByLayer
 10
1.0364
 20
0.4464
 30
0.0
 11
1.0306999999999999
 21
0.4426
 31
0.0
  0
LINE
  5
175
100
AcDbEntity
100
AcDbLine
  8
BLACK
 62
256
370
-1
  6
ByLayer
 10
1.0306999999999999
 20
0.4426
 30
0.0
 11
1.0193000000000001
 21
0.4426
 31
0.0
  0
LINE
  5
176
100
AcDbEntity
100
AcDbLine
  8
BLACK
 62
256
370
-1
  6
ByLayer
 10
1.0193000000000001
 20
0.4426
 30
0.0
 11
1.0135000000000001
 21
0.4464
 31
0.0
  0
LINE
  5
177
100
AcDbEntity
100
AcDbLine
  8
BLACK
 62
256
370
-1
  6
ByLayer
 10
1.0135000000000001
 20
0.4464
 30
0.0
 11
1.0107000000000002
 21
0.4502
 31
0.0
  0
LINE
  5
178
100
AcDbEntity
100
AcDbLine
  8
BLACK
 62
256
370
-1
  6
ByLayer
 10
1.0107000000000002
 20
0.4502
 30
0.0
 11
1.0078
 21
0.4579
 31
0.0
  0
LINE
  5
179
100
AcDbEntity
100
AcDbLine
  8
BLACK
 62
256
370
-1
  6
ByLayer
 10
1.0078
 20
0.4579
 30
0.0
 11
1.0078
 21
0.4807
 31
0.0
  0
LINE
  5
17A
100
AcDbEntity
100
AcDbLine
  8
BLACK
 62
256
370
-1
  6
ByLayer
 10
1.0078
 20
0.4807
 30
0.0
 11
1.0107000000000002
 21
0.4883
 31
0.0
  0
LINE
  5
17B
100
AcDbEntity
100
AcDbLine
  8
BLACK
 62
256
370
-1
  6
ByLayer
 10
1.0107000000000002
 20
0.4883
 30
0.0
 11
1.0135000000000001
 21
0.4921
 31
0.0
  0
LINE
  5
17C
100
AcDbEntity
100
AcDbLine
  8
BLACK
 62
256
370
-1
  6
ByLayer
 10
1.0135000000000001
 20
0.4921
 30
0.0
 11
1.0193000000000001
 21
0.496
 31
0.0
  0
LINE
  5
17D
100
AcDbEntity
100
AcDbLine
  8
BLACK
 62
256
370
-1
  6
ByLayer
 10
1.0193000000000001
 20
0.496
 30
0.0
 11
1.0306999999999999
 21
0.496
 31
0.0
  0
LINE
  5
17E
100
AcDbEntity
100
AcDbLine
  8
BLACK
 62
256
370
-1
  6
ByLayer
 10
1.0306999999999999
 20
0.496
 30
0.0
 11
1.0364
 21
0.4921
 31
0.0
  0
LINE
  5
17F
100
AcDbEntity
100
AcDbLine
  8
BLACK
 62
256
370
-1
  6
ByLayer
 10
1.2250000000000001
 20
2.4500000000000002
 30
0.0
 11
1.2250000000000001
 21
1.8500000000000001
 31
0.0
  0
LINE
  5
180
100
AcDbEntity
100
AcDbLine
  8
BLACK
 62
256
370
-1
  6
ByLayer
 10
0.625
 20
2.4500000000000002
 30
0.0
 11
0.625
 21
1.8500000000000001
 31
0.0
  0
LINE
  5
181
100
AcDbEntity
100
AcDbLine
  8
BLACK
 62
256
370
-1
  6
ByLayer
 10
0.7250000000000001
 20
2.4500000000000002
 30
0.0
 11
0.7250000000000001
 21
2.48
 31
0.0
  0
LINE
  5
182
100
AcDbEntity
100
AcDbLine
  8
BLACK
 62
256
370
-1
  6
ByLayer
 10
0.7250000000000001
 20
2.48
 30
0.0
 11
1.125
 21
2.48
 31
0.0
  0
LINE
  5
183
100
AcDbEntity
100
AcDbLine
  8
BLACK
 62
256
370
-1
  6
ByLayer
 10
1.125
 20
2.48
 30
0.0
 11
1.125
 21
2.4500000000000002
 31
0.0
  0
LINE
  5
184
100
AcDbEntity
100
AcDbLine
  8
BLACK
 62
256
370
-1
  6
ByLayer
 10
0.625
 20
2.0500000000000003
 30
0.0
 11
1.2250000000000001
 21
2.0500000000000003
 31
0.0
  0
LINE
  5
185
100
AcDbEntity
100
AcDbLine
  8
BLACK
 62
256
370
-1
  6
ByLayer
 10
0.625
 20
2.4500000000000002
 30
0.0
 11
1.2250000000000001
 21
2.4500000000000002
 31
0.0
  0
LINE
  5
186
100
AcDbEntity
100
AcDbLine
  8
BLACK
 62
256
370
-1
  6
ByLayer
 10
0.625
 20
1.8500000000000001
 30
0.0
 11
1.2250000000000001
 21
1.8500000000000001
 31
0.0
  0
LINE
  5
187
100
AcDbEntity
100
AcDbLine
  8
BLACK
 62
256
370
-1
  6
ByLayer
 10
0.9500000000000001
 20
0.025
 30
0.0
 11
0.9500000000000001
 21
0.375
 31
0.0
  0
LINE
  5
188
100
AcDbEntity
100
AcDbLine
  8
BLACK
 62
256
370
-1
  6
ByLayer
 10
0.9500000000000001
 20
0.375
 30
0.0
 11
0.3
 21
0.375
 31
0.0
  0
LINE
  5
189
100
AcDbEntity
100
AcDbLine
  8
BLACK
 62
256
370
-1
  6
ByLayer
 10
0.3
 20
0.375
 30
0.0
 11
0.3
 21
0.025
 31
0.0
  0
LINE
  5
18A
100
AcDbEntity
100
AcDbLine
  8
BLACK
 62
256
370
-1
  6
ByLayer
 10
0.9500000000000001
 20
0.025
 30
0.0
 11
0.3
 21
0.025
 31
0.0
  0
LINE
  5
18B
100
AcDbEntity
100
AcDbLine
  8
BLACK
 62
256
370
-1
  6
ByLayer
 10
0.0937
 20
1.9500000000000002
 30
0.0
 11
0.0228
 21
1.9500000000000002
 31
0.0
  0
LINE
  5
18C
100
AcDbEntity
100
AcDbLine
  8
BLACK
 62
256
370
-1
  6
ByLayer
 10
0.0228
 20
1.9500000000000002
 30
0.0
 11
0.0228
 21
2.4933000000000001
 31
0.0
  0
LINE
  5
18D
100
AcDbEntity
100
AcDbLine
  8
BLACK
 62
256
370
-1
  6
ByLayer
 10
0.0228
 20
2.4933000000000001
 30
0.0
 11
0.3732
 21
2.4933000000000001
 31
0.0
  0
LINE
  5
18E
100
AcDbEntity
100
AcDbLine
  8
BLACK
 62
256
370
-1
  6
ByLayer
 10
0.3732
 20
2.4933000000000001
 30
0.0
 11
0.3772
 21
2.4933000000000001
 31
0.0
  0
LINE
  5
18F
100
AcDbEntity
100
AcDbLine
  8
BLACK
 62
256
370
-1
  6
ByLayer
 10
0.3772
 20
2.4933000000000001
 30
0.0
 11
0.3772
 21
1.9500000000000002
 31
0.0
  0
LINE
  5
190
100
AcDbEntity
100
AcDbLine
  8
BLACK
 62
256
370
-1
  6
ByLayer
 10
0.3772
 20
1.9500000000000002
 30
0.0
 11
0.3063
 21
1.9500000000000002
 31
0.0
  0
LINE
  5
191
100
AcDbEntity
100
AcDbLine
  8
BLACK
 62
256
370
-1
  6
ByLayer
 10
0.225
 20
1.8
 30
0.0
 11
0.225
 21
0.55
 31
0.0
  0
LINE
  5
192
100
AcDbEntity
100
AcDbLine
  8
BLACK
 62
256
370
-1
  6
ByLayer
 10
0.225
 20
0.55
 30
0.0
 11
1.0250000000000001
 21
0.55
 31
0.0
  0
LINE
  5
193
100
AcDbEntity
100
AcDbLine
  8
BLACK
 62
256
370
-1
  6
ByLayer
 10
1.0250000000000001
 20
0.55
 30
0.0
 11
1.0250000000000001
 21
1.8
 31
0.0
  0
LINE
  5
194
100
AcDbEntity
100
AcDbLine
  8
BLACK
 62
256
370
-1
  6
ByLayer
 10
1.0250000000000001
 20
1.8
 30
0.0
 11
0.225
 21
1.8
 31
0.0
  0
CIRCLE
  5
195
100
AcDbEntity
100
AcDbCircle
  8
BLACK
 62
256
370
-1
  6
ByLayer
 10
1.125
 20
1.25
 30
0.0
 40
0.09
  0
CIRCLE
  5
196
100
AcDbEntity
100
AcDbCircle
  8
BLACK
 62
256
370
-1
  6
ByLayer
 10
0.125
 20
0.25
 30
0.0
 40
0.09
  0
CIRCLE
  5
197
100
AcDbEntity
100
AcDbCircle
  8
BLACK
 62
256
370
-1
  6
ByLayer
 10
1.125
 20
0.25
 30
0.0
 40
0.09
  0
CIRCLE
  5
198
100
AcDbEntity
100
AcDbCircle
  8
BLACK
 62
256
370
-1
  6
ByLayer
 10
0.125
 20
1.25
 30
0.0
 40
0.09
  0
CIRCLE
  5
199
100
AcDbEntity
100
AcDbCircle
  8
BLACK
 62
256
370
-1
  6
ByLayer
 10
1.125
 20
1.75
 30
0.0
 40
0.09
  0
CIRCLE
  5
19A
100
AcDbEntity
100
AcDbCircle
  8
BLACK
 62
256
370
-1
  6
ByLayer
 10
0.5
 20
2.25
 30
0.0
 40
0.09
  0
CIRCLE
  5
19B
100
AcDbEntity
100
AcDbCircle
  8
BLACK
 62
256
370
-1
  6
ByLayer
 10
0.125
 20
1.75
 30
0.0
 40
0.09
  0
LINE
  5
19C
100
AcDbEntity
100
AcDbLine
  8
BLACK
 62
256
370
-1
  6
ByLayer
 10
0.5912000000000001
 20
1.8455000000000001
 30
0.0
 11
0.5512
 21
1.8455000000000001
 31
0.0
  0
LINE
  5
19D
100
AcDbEntity
100
AcDbLine
  8
BLACK
 62
256
370
-1
  6
ByLayer
 10
0.5512
 20
1.8455000000000001
 30
0.0
 11
0.5512
 21
1.8608
 31
0.0
  0
LINE
  5
19E
100
AcDbEntity
100
AcDbLine
  8
BLACK
 62
256
370
-1
  6
ByLayer
 10
0.5512
 20
1.8608
 30
0.0
 11
0.5531
 21
1.8646
 31
0.0
  0
LINE
  5
19F
100
AcDbEntity
100
AcDbLine
  8
BLACK
 62
256
370
-1
  6
ByLayer
 10
0.5531
 20
1.8646
 30
0.0
 11
0.555
 21
1.8665
 31
0.0
  0
LINE
  5
1A0
100
AcDbEntity
100
AcDbLine
  8
BLACK
 62
256
370
-1
  6
ByLayer
 10
0.555
 20
1.8665
 30
0.0
 11
0.5588000000000001
 21
1.8684000000000001
 31
0.0
  0
LINE
  5
1A1
100
AcDbEntity
100
AcDbLine
  8
BLACK
 62
256
370
-1
  6
ByLayer
 10
0.5588000000000001
 20
1.8684000000000001
 30
0.0
 11
0.5645
 21
1.8684000000000001
 31
0.0
  0
LINE
  5
1A2
100
AcDbEntity
100
AcDbLine
  8
BLACK
 62
256
370
-1
  6
ByLayer
 10
0.5645
 20
1.8684000000000001
 30
0.0
 11
0.5683
 21
1.8665
 31
0.0
  0
LINE
  5
1A3
100
AcDbEntity
100
AcDbLine
  8
BLACK
 62
256
370
-1
  6
ByLayer
 10
0.5683
 20
1.8665
 30
0.0
 11
0.5702
 21
1.8646
 31
0.0
  0
LINE
  5
1A4
100
AcDbEntity
100
AcDbLine
  8
BLACK
 62
256
370
-1
  6
ByLayer
 10
0.5702
 20
1.8646
 30
0.0
 11
0.5721000000000001
 21
1.8608
 31
0.0
  0
LINE
  5
1A5
100
AcDbEntity
100
AcDbLine
  8
BLACK
 62
256
370
-1
  6
ByLayer
 10
0.5721000000000001
 20
1.8608
 30
0.0
 11
0.5721000000000001
 21
1.8455000000000001
 31
0.0
  0
LINE
  5
1A6
100
AcDbEntity
100
AcDbLine
  8
BLACK
 62
256
370
-1
  6
ByLayer
 10
0.555
 20
1.8836000000000002
 30
0.0
 11
0.5531
 21
1.8855000000000002
 31
0.0
  0
LINE
  5
1A7
100
AcDbEntity
100
AcDbLine
  8
BLACK
 62
256
370
-1
  6
ByLayer
 10
0.5531
 20
1.8855000000000002
 30
0.0
 11
0.5512
 21
1.8893000000000002
 31
0.0
  0
LINE
  5
1A8
100
AcDbEntity
100
AcDbLine
  8
BLACK
 62
256
370
-1
  6
ByLayer
 10
0.5512
 20
1.8893000000000002
 30
0.0
 11
0.5512
 21
1.8989
 31
0.0
  0
LINE
  5
1A9
100
AcDbEntity
100
AcDbLine
  8
BLACK
 62
256
370
-1
  6
ByLayer
 10
0.5512
 20
1.8989
 30
0.0
 11
0.5531
 21
1.9027000000000001
 31
0.0
  0
LINE
  5
1AA
100
AcDbEntity
100
AcDbLine
  8
BLACK
 62
256
370
-1
  6
ByLayer
 10
0.5531
 20
1.9027000000000001
 30
0.0
 11
0.555
 21
1.9046000000000001
 31
0.0
  0
LINE
  5
1AB
100
AcDbEntity
100
AcDbLine
  8
BLACK
 62
256
370
-1
  6
ByLayer
 10
0.555
 20
1.9046000000000001
 30
0.0
 11
0.5588000000000001
 21
1.9065000000000001
 31
0.0
  0
LINE
  5
1AC
100
AcDbEntity
100
AcDbLine
  8
BLACK
 62
256
370
-1
  6
ByLayer
 10
0.5588000000000001
 20
1.9065000000000001
 30
0.0
 11
0.5626
 21
1.9065000000000001
 31
0.0
  0
LINE
  5
1AD
100
AcDbEntity
100
AcDbLine
  8
BLACK
 62
256
370
-1
  6
ByLayer
 10
0.5626
 20
1.9065000000000001
 30
0.0
 11
0.5683
 21
1.9046000000000001
 31
0.0
  0
LINE
  5
1AE
100
AcDbEntity
100
AcDbLine
  8
BLACK
 62
256
370
-1
  6
ByLayer
 10
0.5683
 20
1.9046000000000001
 30
0.0
 11
0.5912000000000001
 21
1.8817000000000002
 31
0.0
  0
LINE
  5
1AF
100
AcDbEntity
100
AcDbLine
  8
BLACK
 62
256
370
-1
  6
ByLayer
 10
0.5912000000000001
 20
1.8817000000000002
 30
0.0
 11
0.5912000000000001
 21
1.9065000000000001
 31
0.0
  0
LINE
  5
1B0
100
AcDbEntity
100
AcDbLine
  8
BLACK
 62
256
370
-1
  6
ByLayer
 10
0.897
 20
2.2448000000000001
 30
0.0
 11
0.9027000000000001
 21
2.2429000000000001
 31
0.0
  0
LINE
  5
1B1
100
AcDbEntity
100
AcDbLine
  8
BLACK
 62
256
370
-1
  6
ByLayer
 10
0.9027000000000001
 20
2.2429000000000001
 30
0.0
 11
0.9046000000000001
 21
2.2410000000000001
 31
0.0
  0
LINE
  5
1B2
100
AcDbEntity
100
AcDbLine
  8
BLACK
 62
256
370
-1
  6
ByLayer
 10
0.9046000000000001
 20
2.2410000000000001
 30
0.0
 11
0.9065000000000001
 21
2.2371000000000003
 31
0.0
  0
LINE
  5
1B3
100
AcDbEntity
100
AcDbLine
  8
BLACK
 62
256
370
-1
  6
ByLayer
 10
0.9065000000000001
 20
2.2371000000000003
 30
0.0
 11
0.9065000000000001
 21
2.2314000000000003
 31
0.0
  0
LINE
  5
1B4
100
AcDbEntity
100
AcDbLine
  8
BLACK
 62
256
370
-1
  6
ByLayer
 10
0.9065000000000001
 20
2.2314000000000003
 30
0.0
 11
0.9046000000000001
 21
2.2276000000000002
 31
0.0
  0
LINE
  5
1B5
100
AcDbEntity
100
AcDbLine
  8
BLACK
 62
256
370
-1
  6
ByLayer
 10
0.9046000000000001
 20
2.2276000000000002
 30
0.0
 11
0.9027000000000001
 21
2.2257000000000002
 31
0.0
  0
LINE
  5
1B6
100
AcDbEntity
100
AcDbLine
  8
BLACK
 62
256
370
-1
  6
ByLayer
 10
0.9027000000000001
 20
2.2257000000000002
 30
0.0
 11
0.8989
 21
2.2238000000000002
 31
0.0
  0
LINE
  5
1B7
100
AcDbEntity
100
AcDbLine
  8
BLACK
 62
256
370
-1
  6
ByLayer
 10
0.8989
 20
2.2238000000000002
 30
0.0
 11
0.8836000000000001
 21
2.2238000000000002
 31
0.0
  0
LINE
  5
1B8
100
AcDbEntity
100
AcDbLine
  8
BLACK
 62
256
370
-1
  6
ByLayer
 10
0.8836000000000001
 20
2.2238000000000002
 30
0.0
 11
0.8836000000000001
 21
2.2638000000000003
 31
0.0
  0
LINE
  5
1B9
100
AcDbEntity
100
AcDbLine
  8
BLACK
 62
256
370
-1
  6
ByLayer
 10
0.8836000000000001
 20
2.2638000000000003
 30
0.0
 11
0.897
 21
2.2638000000000003
 31
0.0
  0
LINE
  5
1BA
100
AcDbEntity
100
AcDbLine
  8
BLACK
 62
256
370
-1
  6
ByLayer
 10
0.897
 20
2.2638000000000003
 30
0.0
 11
0.9008
 21
2.2619000000000002
 31
0.0
  0
LINE
  5
1BB
100
AcDbEntity
100
AcDbLine
  8
BLACK
 62
256
370
-1
  6
ByLayer
 10
0.9008
 20
2.2619000000000002
 30
0.0
 11
0.9027000000000001
 21
2.2600000000000002
 31
0.0
  0
LINE
  5
1BC
100
AcDbEntity
100
AcDbLine
  8
BLACK
 62
256
370
-1
  6
ByLayer
 10
0.9027000000000001
 20
2.2600000000000002
 30
0.0
 11
0.9046000000000001
 21
2.2562000000000002
 31
0.0
  0
LINE
  5
1BD
100
AcDbEntity
100
AcDbLine
  8
BLACK
 62
256
370
-1
  6
ByLayer
 10
0.9046000000000001
 20
2.2562000000000002
 30
0.0
 11
0.9046000000000001
 21
2.2524000000000002
 31
0.0
  0
LINE
  5
1BE
100
AcDbEntity
100
AcDbLine
  8
BLACK
 62
256
370
-1
  6
ByLayer
 10
0.9046000000000001
 20
2.2524000000000002
 30
0.0
 11
0.9027000000000001
 21
2.2486000000000002
 31
0.0
  0
LINE
  5
1BF
100
AcDbEntity
100
AcDbLine
  8
BLACK
 62
256
370
-1
  6
ByLayer
 10
0.9027000000000001
 20
2.2486000000000002
 30
0.0
 11
0.9008
 21
2.2467000000000001
 31
0.0
  0
LINE
  5
1C0
100
AcDbEntity
100
AcDbLine
  8
BLACK
 62
256
370
-1
  6
ByLayer
 10
0.9008
 20
2.2467000000000001
 30
0.0
 11
0.897
 21
2.2448000000000001
 31
0.0
  0
LINE
  5
1C1
100
AcDbEntity
100
AcDbLine
  8
BLACK
 62
256
370
-1
  6
ByLayer
 10
0.897
 20
2.2448000000000001
 30
0.0
 11
0.8836000000000001
 21
2.2448000000000001
 31
0.0
  0
LINE
  5
1C2
100
AcDbEntity
100
AcDbLine
  8
BLACK
 62
256
370
-1
  6
ByLayer
 10
0.9236000000000001
 20
2.2238000000000002
 30
0.0
 11
0.9236000000000001
 21
2.2638000000000003
 31
0.0
  0
LINE
  5
1C3
100
AcDbEntity
100
AcDbLine
  8
BLACK
 62
256
370
-1
  6
ByLayer
 10
0.9236000000000001
 20
2.2638000000000003
 30
0.0
 11
0.9465
 21
2.2238000000000002
 31
0.0
  0
LINE
  5
1C4
100
AcDbEntity
100
AcDbLine
  8
BLACK
 62
256
370
-1
  6
ByLayer
 10
0.9465
 20
2.2238000000000002
 30
0.0
 11
0.9465
 21
2.2638000000000003
 31
0.0
  0
LINE
  5
1C5
100
AcDbEntity
100
AcDbLine
  8
BLACK
 62
256
370
-1
  6
ByLayer
 10
0.9884000000000001
 20
2.2276000000000002
 30
0.0
 11
0.9865
 21
2.2257000000000002
 31
0.0
  0
LINE
  5
1C6
100
AcDbEntity
100
AcDbLine
  8
BLACK
 62
256
370
-1
  6
ByLayer
 10
0.9865
 20
2.2257000000000002
 30
0.0
 11
0.9808
 21
2.2238000000000002
 31
0.0
  0
LINE
  5
1C7
100
AcDbEntity
100
AcDbLine
  8
BLACK
 62
256
370
-1
  6
ByLayer
 10
0.9808
 20
2.2238000000000002
 30
0.0
 11
0.9770000000000001
 21
2.2238000000000002
 31
0.0
  0
LINE
  5
1C8
100
AcDbEntity
100
AcDbLine
  8
BLACK
 62
256
370
-1
  6
ByLayer
 10
0.9770000000000001
 20
2.2238000000000002
 30
0.0
 11
0.9712000000000001
 21
2.2257000000000002
 31
0.0
  0
LINE
  5
1C9
100
AcDbEntity
100
AcDbLine
  8
BLACK
 62
256
370
-1
  6
ByLayer
 10
0.9712000000000001
 20
2.2257000000000002
 30
0.0
 11
0.9674
 21
2.2295000000000003
 31
0.0
  0
LINE
  5
1CA
100
AcDbEntity
100
AcDbLine
  8
BLACK
 62
256
370
-1
  6
ByLayer
 10
0.9674
 20
2.2295000000000003
 30
0.0
 11
0.9655
 21
2.2333000000000003
 31
0.0
  0
LINE
  5
1CB
100
AcDbEntity
100
AcDbLine
  8
BLACK
 62
256
370
-1
  6
ByLayer
 10
0.9655
 20
2.2333000000000003
 30
0.0
 11
0.9636
 21
2.2410000000000001
 31
0.0
  0
LINE
  5
1CC
100
AcDbEntity
100
AcDbLine
  8
BLACK
 62
256
370
-1
  6
ByLayer
 10
0.9636
 20
2.2410000000000001
 30
0.0
 11
0.9636
 21
2.2467000000000001
 31
0.0
  0
LINE
  5
1CD
100
AcDbEntity
100
AcDbLine
  8
BLACK
 62
256
370
-1
  6
ByLayer
 10
0.9636
 20
2.2467000000000001
 30
0.0
 11
0.9655
 21
2.2543000000000002
 31
0.0
  0
LINE
  5
1CE
100
AcDbEntity
100
AcDbLine
  8
BLACK
 62
256
370
-1
  6
ByLayer
 10
0.9655
 20
2.2543000000000002
 30
0.0
 11
0.9674
 21
2.2581000000000002
 31
0.0
  0
LINE
  5
1CF
100
AcDbEntity
100
AcDbLine
  8
BLACK
 62
256
370
-1
  6
ByLayer
 10
0.9674
 20
2.2581000000000002
 30
0.0
 11
0.9712000000000001
 21
2.2619000000000002
 31
0.0
  0
LINE
  5
1D0
100
AcDbEntity
100
AcDbLine
  8
BLACK
 62
256
370
-1
  6
ByLayer
 10
0.9712000000000001
 20
2.2619000000000002
 30
0.0
 11
0.9770000000000001
 21
2.2638000000000003
 31
0.0
  0
LINE
  5
1D1
100
AcDbEntity
100
AcDbLine
  8
BLACK
 62
256
370
-1
  6
ByLayer
 10
0.9770000000000001
 20
2.2638000000000003
 30
0.0
 11
0.9808
 21
2.2638000000000003
 31
0.0
  0
LINE
  5
1D2
100
AcDbEntity
100
AcDbLine
  8
BLACK
 62
256
370
-1
  6
ByLayer
 10
0.9808
 20
2.2638000000000003
 30
0.0
 11
0.9865
 21
2.2619000000000002
 31
0.0
  0
LINE
  5
1D3
100
AcDbEntity
100
AcDbLine
  8
BLACK
 62
256
370
-1
  6
ByLayer
 10
0.9865
 20
2.2619000000000002
 30
0.0
 11
0.9884000000000001
 21
2.2600000000000002
 31
0.0
  0
LINE
  5
1D4
100
AcDbEntity
100
AcDbLine
  8
BLACK
 62
256
370
-1
  6
ByLayer
 10
0.2662
 20
0.2955
 30
0.0
 11
0.2262
 21
0.2955
 31
0.0
  0
LINE
  5
1D5
100
AcDbEntity
100
AcDbLine
  8
BLACK
 62
256
370
-1
  6
ByLayer
 10
0.2262
 20
0.2955
 30
0.0
 11
0.2262
 21
0.3108
 31
0.0
  0
LINE
  5
1D6
100
AcDbEntity
100
AcDbLine
  8
BLACK
 62
256
370
-1
  6
ByLayer
 10
0.2262
 20
0.3108
 30
0.0
 11
0.2281
 21
0.3146
 31
0.0
  0
LINE
  5
1D7
100
AcDbEntity
100
AcDbLine
  8
BLACK
 62
256
370
-1
  6
ByLayer
 10
0.2281
 20
0.3146
 30
0.0
 11
0.23
 21
0.3165
 31
0.0
  0
LINE
  5
1D8
100
AcDbEntity
100
AcDbLine
  8
BLACK
 62
256
370
-1
  6
ByLayer
 10
0.23
 20
0.3165
 30
0.0
 11
0.2338
 21
0.3184
 31
0.0
  0
LINE
  5
1D9
100
AcDbEntity
100
AcDbLine
  8
BLACK
 62
256
370
-1
  6
ByLayer
 10
0.2338
 20
0.3184
 30
0.0
 11
0.2395
 21
0.3184
 31
0.0
  0
LINE
  5
1DA
100
AcDbEntity
100
AcDbLine
  8
BLACK
 62
256
370
-1
  6
ByLayer
 10
0.2395
 20
0.3184
 30
0.0
 11
0.2433
 21
0.3165
 31
0.0
  0
LINE
  5
1DB
100
AcDbEntity
100
AcDbLine
  8
BLACK
 62
256
370
-1
  6
ByLayer
 10
0.2433
 20
0.3165
 30
0.0
 11
0.2452
 21
0.3146
 31
0.0
  0
LINE
  5
1DC
100
AcDbEntity
100
AcDbLine
  8
BLACK
 62
256
370
-1
  6
ByLayer
 10
0.2452
 20
0.3146
 30
0.0
 11
0.2471
 21
0.3108
 31
0.0
  0
LINE
  5
1DD
100
AcDbEntity
100
AcDbLine
  8
BLACK
 62
256
370
-1
  6
ByLayer
 10
0.2471
 20
0.3108
 30
0.0
 11
0.2471
 21
0.2955
 31
0.0
  0
LINE
  5
1DE
100
AcDbEntity
100
AcDbLine
  8
BLACK
 62
256
370
-1
  6
ByLayer
 10
0.2662
 20
0.3565
 30
0.0
 11
0.2662
 21
0.3336
 31
0.0
  0
LINE
  5
1DF
100
AcDbEntity
100
AcDbLine
  8
BLACK
 62
256
370
-1
  6
ByLayer
 10
0.2662
 20
0.345
 30
0.0
 11
0.2262
 21
0.345
 31
0.0
  0
LINE
  5
1E0
100
AcDbEntity
100
AcDbLine
  8
BLACK
 62
256
370
-1
  6
ByLayer
 10
0.2262
 20
0.345
 30
0.0
 11
0.2319
 21
0.3412
 31
0.0
  0
LINE
  5
1E1
100
AcDbEntity
100
AcDbLine
  8
BLACK
 62
256
370
-1
  6
ByLayer
 10
0.2319
 20
0.3412
 30
0.0
 11
0.2357
 21
0.3374
 31
0.0
  0
LINE
  5
1E2
100
AcDbEntity
100
AcDbLine
  8
BLACK
 62
256
370
-1
  6
ByLayer
 10
0.2357
 20
0.3374
 30
0.0
 11
0.2376
 21
0.3336
 31
0.0
  0
LINE
  5
1E3
100
AcDbEntity
100
AcDbLine
  8
BLACK
 62
256
370
-1
  6
ByLayer
 10
0.7967000000000001
 20
0.2638
 30
0.0
 11
0.8215
 21
0.2638
 31
0.0
  0
LINE
  5
1E4
100
AcDbEntity
100
AcDbLine
  8
BLACK
 62
256
370
-1
  6
ByLayer
 10
0.8215
 20
0.2638
 30
0.0
 11
0.8081
 21
0.2486
 31
0.0
  0
LINE
  5
1E5
100
AcDbEntity
100
AcDbLine
  8
BLACK
 62
256
370
-1
  6
ByLayer
 10
0.8081
 20
0.2486
 30
0.0
 11
0.8139000000000001
 21
0.2486
 31
0.0
  0
LINE
  5
1E6
100
AcDbEntity
100
AcDbLine
  8
BLACK
 62
256
370
-1
  6
ByLayer
 10
0.8139000000000001
 20
0.2486
 30
0.0
 11
0.8177000000000001
 21
0.2467
 31
0.0
  0
LINE
  5
1E7
100
AcDbEntity
100
AcDbLine
  8
BLACK
 62
256
370
-1
  6
ByLayer
 10
0.8177000000000001
 20
0.2467
 30
0.0
 11
0.8196
 21
0.2448
 31
0.0
  0
LINE
  5
1E8
100
AcDbEntity
100
AcDbLine
  8
BLACK
 62
256
370
-1
  6
ByLayer
 10
0.8196
 20
0.2448
 30
0.0
 11
0.8215
 21
0.241
 31
0.0
  0
LINE
  5
1E9
100
AcDbEntity
100
AcDbLine
  8
BLACK
 62
256
370
-1
  6
ByLayer
 10
0.8215
 20
0.241
 30
0.0
 11
0.8215
 21
0.2314
 31
0.0
  0
LINE
  5
1EA
100
AcDbEntity
100
AcDbLine
  8
BLACK
 62
256
370
-1
  6
ByLayer
 10
0.8215
 20
0.2314
 30
0.0
 11
0.8196
 21
0.2276
 31
0.0
  0
LINE
  5
1EB
100
AcDbEntity
100
AcDbLine
  8
BLACK
 62
256
370
-1
  6
ByLayer
 10
0.8196
 20
0.2276
 30
0.0
 11
0.8177000000000001
 21
0.2257
 31
0.0
  0
LINE
  5
1EC
100
AcDbEntity
100
AcDbLine
  8
BLACK
 62
256
370
-1
  6
ByLayer
 10
0.8177000000000001
 20
0.2257
 30
0.0
 11
0.8139000000000001
 21
0.2238
 31
0.0
  0
LINE
  5
1ED
100
AcDbEntity
100
AcDbLine
  8
BLACK
 62
256
370
-1
  6
ByLayer
 10
0.8139000000000001
 20
0.2238
 30
0.0
 11
0.8024
 21
0.2238
 31
0.0
  0
LINE
  5
1EE
100
AcDbEntity
100
AcDbLine
  8
BLACK
 62
256
370
-1
  6
ByLayer
 10
0.8024
 20
0.2238
 30
0.0
 11
0.7986000000000001
 21
0.2257
 31
0.0
  0
LINE
  5
1EF
100
AcDbEntity
100
AcDbLine
  8
BLACK
 62
256
370
-1
  6
ByLayer
 10
0.7986000000000001
 20
0.2257
 30
0.0
 11
0.7967000000000001
 21
0.2276
 31
0.0
  0
LINE
  5
1F0
100
AcDbEntity
100
AcDbLine
  8
BLACK
 62
256
370
-1
  6
ByLayer
 10
0.7465000000000001
 20
0.2238
 30
0.0
 11
0.7236
 21
0.2238
 31
0.0
  0
LINE
  5
1F1
100
AcDbEntity
100
AcDbLine
  8
BLACK
 62
256
370
-1
  6
ByLayer
 10
0.735
 20
0.2238
 30
0.0
 11
0.735
 21
0.2638
 31
0.0
  0
LINE
  5
1F2
100
AcDbEntity
100
AcDbLine
  8
BLACK
 62
256
370
-1
  6
ByLayer
 10
0.735
 20
0.2638
 30
0.0
 11
0.7312000000000001
 21
0.2581
 31
0.0
  0
LINE
  5
1F3
100
AcDbEntity
100
AcDbLine
  8
BLACK
 62
256
370
-1
  6
ByLayer
 10
0.7312000000000001
 20
0.2581
 30
0.0
 11
0.7274
 21
0.2543
 31
0.0
  0
LINE
  5
1F4
100
AcDbEntity
100
AcDbLine
  8
BLACK
 62
256
370
-1
  6
ByLayer
 10
0.7274
 20
0.2543
 30
0.0
 11
0.7236
 21
0.2524
 31
0.0
  0
LINE
  5
1F5
100
AcDbEntity
100
AcDbLine
  8
BLACK
 62
256
370
-1
  6
ByLayer
 10
0.5136000000000001
 20
0.26
 30
0.0
 11
0.5155000000000001
 21
0.2619
 31
0.0
  0
LINE
  5
1F6
100
AcDbEntity
100
AcDbLine
  8
BLACK
 62
256
370
-1
  6
ByLayer
 10
0.5155000000000001
 20
0.2619
 30
0.0
 11
0.5193
 21
0.2638
 31
0.0
  0
LINE
  5
1F7
100
AcDbEntity
100
AcDbLine
  8
BLACK
 62
256
370
-1
  6
ByLayer
 10
0.5193
 20
0.2638
 30
0.0
 11
0.5289
 21
0.2638
 31
0.0
  0
LINE
  5
1F8
100
AcDbEntity
100
AcDbLine
  8
BLACK
 62
256
370
-1
  6
ByLayer
 10
0.5289
 20
0.2638
 30
0.0
 11
0.5327000000000001
 21
0.2619
 31
0.0
  0
LINE
  5
1F9
100
AcDbEntity
100
AcDbLine
  8
BLACK
 62
256
370
-1
  6
ByLayer
 10
0.5327000000000001
 20
0.2619
 30
0.0
 11
0.5346000000000001
 21
0.26
 31
0.0
  0
LINE
  5
1FA
100
AcDbEntity
100
AcDbLine
  8
BLACK
 62
256
370
-1
  6
ByLayer
 10
0.5346000000000001
 20
0.26
 30
0.0
 11
0.5365
 21
0.2562
 31
0.0
  0
LINE
  5
1FB
100
AcDbEntity
100
AcDbLine
  8
BLACK
 62
256
370
-1
  6
ByLayer
 10
0.5365
 20
0.2562
 30
0.0
 11
0.5365
 21
0.2524
 31
0.0
  0
LINE
  5
1FC
100
AcDbEntity
100
AcDbLine
  8
BLACK
 62
256
370
-1
  6
ByLayer
 10
0.5365
 20
0.2524
 30
0.0
 11
0.5346000000000001
 21
0.2467
 31
0.0
  0
LINE
  5
1FD
100
AcDbEntity
100
AcDbLine
  8
BLACK
 62
256
370
-1
  6
ByLayer
 10
0.5346000000000001
 20
0.2467
 30
0.0
 11
0.5117
 21
0.2238
 31
0.0
  0
LINE
  5
1FE
100
AcDbEntity
100
AcDbLine
  8
BLACK
 62
256
370
-1
  6
ByLayer
 10
0.5117
 20
0.2238
 30
0.0
 11
0.5365
 21
0.2238
 31
0.0
  0
LINE
  5
1FF
100
AcDbEntity
100
AcDbLine
  8
BLACK
 62
256
370
-1
  6
ByLayer
 10
0.4577
 20
0.2505
 30
0.0
 11
0.4577
 21
0.2238
 31
0.0
  0
LINE
  5
200
100
AcDbEntity
100
AcDbLine
  8
BLACK
 62
256
370
-1
  6
ByLayer
 10
0.4481
 20
0.2657
 30
0.0
 11
0.4386
 21
0.2371
 31
0.0
  0
LINE
  5
201
100
AcDbEntity
100
AcDbLine
  8
BLACK
 62
256
370
-1
  6
ByLayer
 10
0.4386
 20
0.2371
 30
0.0
 11
0.4634
 21
0.2371
 31
0.0
  0
LINE
  5
202
100
AcDbEntity
100
AcDbLine
  8
BLACK
 62
256
370
-1
  6
ByLayer
 10
0.4412
 20
2.3955000000000002
 30
0.0
 11
0.4012
 21
2.3955000000000002
 31
0.0
  0
LINE
  5
203
100
AcDbEntity
100
AcDbLine
  8
BLACK
 62
256
370
-1
  6
ByLayer
 10
0.4012
 20
2.3955000000000002
 30
0.0
 11
0.4012
 21
2.4108000000000001
 31
0.0
  0
LINE
  5
204
100
AcDbEntity
100
AcDbLine
  8
BLACK
 62
256
370
-1
  6
ByLayer
 10
0.4012
 20
2.4108000000000001
 30
0.0
 11
0.4031
 21
2.4146000000000001
 31
0.0
  0
LINE
  5
205
100
AcDbEntity
100
AcDbLine
  8
BLACK
 62
256
370
-1
  6
ByLayer
 10
0.4031
 20
2.4146000000000001
 30
0.0
 11
0.405
 21
2.4165000000000001
 31
0.0
  0
LINE
  5
206
100
AcDbEntity
100
AcDbLine
  8
BLACK
 62
256
370
-1
  6
ByLayer
 10
0.405
 20
2.4165000000000001
 30
0.0
 11
0.4088
 21
2.4184000000000001
 31
0.0
  0
LINE
  5
207
100
AcDbEntity
100
AcDbLine
  8
BLACK
 62
256
370
-1
  6
ByLayer
 10
0.4088
 20
2.4184000000000001
 30
0.0
 11
0.4145
 21
2.4184000000000001
 31
0.0
  0
LINE
  5
208
100
AcDbEntity
100
AcDbLine
  8
BLACK
 62
256
370
-1
  6
ByLayer
 10
0.4145
 20
2.4184000000000001
 30
0.0
 11
0.4183
 21
2.4165000000000001
 31
0.0
  0
LINE
  5
209
100
AcDbEntity
100
AcDbLine
  8
BLACK
 62
256
370
-1
  6
ByLayer
 10
0.4183
 20
2.4165000000000001
 30
0.0
 11
0.4202
 21
2.4146000000000001
 31
0.0
  0
LINE
  5
20A
100
AcDbEntity
100
AcDbLine
  8
BLACK
 62
256
370
-1
  6
ByLayer
 10
0.4202
 20
2.4146000000000001
 30
0.0
 11
0.4221
 21
2.4108000000000001
 31
0.0
  0
LINE
  5
20B
100
AcDbEntity
100
AcDbLine
  8
BLACK
 62
256
370
-1
  6
ByLayer
 10
0.4221
 20
2.4108000000000001
 30
0.0
 11
0.4221
 21
2.3955000000000002
 31
0.0
  0
LINE
  5
20C
100
AcDbEntity
100
AcDbLine
  8
BLACK
 62
256
370
-1
  6
ByLayer
 10
0.4012
 20
2.4317000000000002
 30
0.0
 11
0.4012
 21
2.4565000000000001
 31
0.0
  0
LINE
  5
20D
100
AcDbEntity
100
AcDbLine
  8
BLACK
 62
256
370
-1
  6
ByLayer
 10
0.4012
 20
2.4565000000000001
 30
0.0
 11
0.4164
 21
2.4431000000000003
 31
0.0
  0
LINE
  5
20E
100
AcDbEntity
100
AcDbLine
  8
BLACK
 62
256
370
-1
  6
ByLayer
 10
0.4164
 20
2.4431000000000003
 30
0.0
 11
0.4164
 21
2.4489000000000001
 31
0.0
  0
LINE
  5
20F
100
AcDbEntity
100
AcDbLine
  8
BLACK
 62
256
370
-1
  6
ByLayer
 10
0.4164
 20
2.4489000000000001
 30
0.0
 11
0.4183
 21
2.4527000000000001
 31
0.0
  0
LINE
  5
210
100
AcDbEntity
100
AcDbLine
  8
BLACK
 62
256
370
-1
  6
ByLayer
 10
0.4183
 20
2.4527000000000001
 30
0.0
 11
0.4202
 21
2.4546000000000001
 31
0.0
  0
LINE
  5
211
100
AcDbEntity
100
AcDbLine
  8
BLACK
 62
256
370
-1
  6
ByLayer
 10
0.4202
 20
2.4546000000000001
 30
0.0
 11
0.424
 21
2.4565000000000001
 31
0.0
  0
LINE
  5
212
100
AcDbEntity
100
AcDbLine
  8
BLACK
 62
256
370
-1
  6
ByLayer
 10
0.424
 20
2.4565000000000001
 30
0.0
 11
0.4336
 21
2.4565000000000001
 31
0.0
  0
LINE
  5
213
100
AcDbEntity
100
AcDbLine
  8
BLACK
 62
256
370
-1
  6
ByLayer
 10
0.4336
 20
2.4565000000000001
 30
0.0
 11
0.4374
 21
2.4546000000000001
 31
0.0
  0
LINE
  5
214
100
AcDbEntity
100
AcDbLine
  8
BLACK
 62
256
370
-1
  6
ByLayer
 10
0.4374
 20
2.4546000000000001
 30
0.0
 11
0.4393
 21
2.4527000000000001
 31
0.0
  0
LINE
  5
215
100
AcDbEntity
100
AcDbLine
  8
BLACK
 62
256
370
-1
  6
ByLayer
 10
0.4393
 20
2.4527000000000001
 30
0.0
 11
0.4412
 21
2.4489000000000001
 31
0.0
  0
LINE
  5
216
100
AcDbEntity
100
AcDbLine
  8
BLACK
 62
256
370
-1
  6
ByLayer
 10
0.4412
 20
2.4489000000000001
 30
0.0
 11
0.4412
 21
2.4374000000000002
 31
0.0
  0
LINE
  5
217
100
AcDbEntity
100
AcDbLine
  8
BLACK
 62
256
370
-1
  6
ByLayer
 10
0.4412
 20
2.4374000000000002
 30
0.0
 11
0.4393
 21
2.4336000000000002
 31
0.0
  0
LINE
  5
218
100
AcDbEntity
100
AcDbLine
  8
BLACK
 62
256
370
-1
  6
ByLayer
 10
0.4393
 20
2.4336000000000002
 30
0.0
 11
0.4374
 21
2.4317000000000002
 31
0.0
  0
LINE
  5
219
100
AcDbEntity
100
AcDbLine
  8
BLACK
 62
256
370
-1
  6
ByLayer
 10
0.4412
 20
1.8474000000000002
 30
0.0
 11
0.4412
 21
1.855
 31
0.0
  0
LINE
  5
21A
100
AcDbEntity
100
AcDbLine
  8
BLACK
 62
256
370
-1
  6
ByLayer
 10
0.4412
 20
1.855
 30
0.0
 11
0.4393
 21
1.8589
 31
0.0
  0
LINE
  5
21B
100
AcDbEntity
100
AcDbLine
  8
BLACK
 62
256
370
-1
  6
ByLayer
 10
0.4393
 20
1.8589
 30
0.0
 11
0.4374
 21
1.8608
 31
0.0
  0
LINE
  5
21C
100
AcDbEntity
100
AcDbLine
  8
BLACK
 62
256
370
-1
  6
ByLayer
 10
0.4374
 20
1.8608
 30
0.0
 11
0.4317
 21
1.8646
 31
0.0
  0
LINE
  5
21D
100
AcDbEntity
100
AcDbLine
  8
BLACK
 62
256
370
-1
  6
ByLayer
 10
0.4317
 20
1.8646
 30
0.0
 11
0.424
 21
1.8665
 31
0.0
  0
LINE
  5
21E
100
AcDbEntity
100
AcDbLine
  8
BLACK
 62
256
370
-1
  6
ByLayer
 10
0.424
 20
1.8665
 30
0.0
 11
0.4088
 21
1.8665
 31
0.0
  0
LINE
  5
21F
100
AcDbEntity
100
AcDbLine
  8
BLACK
 62
256
370
-1
  6
ByLayer
 10
0.4088
 20
1.8665
 30
0.0
 11
0.405
 21
1.8646
 31
0.0
  0
LINE
  5
220
100
AcDbEntity
100
AcDbLine
  8
BLACK
 62
256
370
-1
  6
ByLayer
 10
0.405
 20
1.8646
 30
0.0
 11
0.4031
 21
1.8627
 31
0.0
  0
LINE
  5
221
100
AcDbEntity
100
AcDbLine
  8
BLACK
 62
256
370
-1
  6
ByLayer
 10
0.4031
 20
1.8627
 30
0.0
 11
0.4012
 21
1.8589
 31
0.0
  0
LINE
  5
222
100
AcDbEntity
100
AcDbLine
  8
BLACK
 62
256
370
-1
  6
ByLayer
 10
0.4012
 20
1.8589
 30
0.0
 11
0.4012
 21
1.8512000000000002
 31
0.0
  0
LINE
  5
223
100
AcDbEntity
100
AcDbLine
  8
BLACK
 62
256
370
-1
  6
ByLayer
 10
0.4012
 20
1.8512000000000002
 30
0.0
 11
0.4031
 21
1.8474000000000002
 31
0.0
  0
LINE
  5
224
100
AcDbEntity
100
AcDbLine
  8
BLACK
 62
256
370
-1
  6
ByLayer
 10
0.4031
 20
1.8474000000000002
 30
0.0
 11
0.405
 21
1.8455000000000001
 31
0.0
  0
LINE
  5
225
100
AcDbEntity
100
AcDbLine
  8
BLACK
 62
256
370
-1
  6
ByLayer
 10
0.405
 20
1.8455000000000001
 30
0.0
 11
0.4088
 21
1.8436000000000001
 31
0.0
  0
LINE
  5
226
100
AcDbEntity
100
AcDbLine
  8
BLACK
 62
256
370
-1
  6
ByLayer
 10
0.4088
 20
1.8436000000000001
 30
0.0
 11
0.4183
 21
1.8436000000000001
 31
0.0
  0
LINE
  5
227
100
AcDbEntity
100
AcDbLine
  8
BLACK
 62
256
370
-1
  6
ByLayer
 10
0.4183
 20
1.8436000000000001
 30
0.0
 11
0.4221
 21
1.8455000000000001
 31
0.0
  0
LINE
  5
228
100
AcDbEntity
100
AcDbLine
  8
BLACK
 62
256
370
-1
  6
ByLayer
 10
0.4221
 20
1.8455000000000001
 30
0.0
 11
0.424
 21
1.8474000000000002
 31
0.0
  0
LINE
  5
229
100
AcDbEntity
100
AcDbLine
  8
BLACK
 62
256
370
-1
  6
ByLayer
 10
0.424
 20
1.8474000000000002
 30
0.0
 11
0.426
 21
1.8512000000000002
 31
0.0
  0
LINE
  5
22A
100
AcDbEntity
100
AcDbLine
  8
BLACK
 62
256
370
-1
  6
ByLayer
 10
0.426
 20
1.8512000000000002
 30
0.0
 11
0.426
 21
1.8589
 31
0.0
  0
LINE
  5
22B
100
AcDbEntity
100
AcDbLine
  8
BLACK
 62
256
370
-1
  6
ByLayer
 10
0.426
 20
1.8589
 30
0.0
 11
0.424
 21
1.8627
 31
0.0
  0
LINE
  5
22C
100
AcDbEntity
100
AcDbLine
  8
BLACK
 62
256
370
-1
  6
ByLayer
 10
0.424
 20
1.8627
 30
0.0
 11
0.4221
 21
1.8646
 31
0.0
  0
LINE
  5
22D
100
AcDbEntity
100
AcDbLine
  8
BLACK
 62
256
370
-1
  6
ByLayer
 10
0.4221
 20
1.8646
 30
0.0
 11
0.4183
 21
1.8665
 31
0.0
  0
LINE
  5
22E
100
AcDbEntity
100
AcDbLine
  8
BLACK
 62
256
370
-1
  6
ByLayer
 10
0.426
 20
1.8836000000000002
 30
0.0
 11
0.426
 21
1.9141000000000001
 31
0.0
  0
LINE
  5
22F
100
AcDbEntity
100
AcDbLine
  8
BLACK
 62
256
370
-1
  6
ByLayer
 10
0.4412
 20
1.9541000000000002
 30
0.0
 11
0.4412
 21
1.9312
 31
0.0
  0
LINE
  5
230
100
AcDbEntity
100
AcDbLine
  8
BLACK
 62
256
370
-1
  6
ByLayer
 10
0.4412
 20
1.9426000000000001
 30
0.0
 11
0.4012
 21
1.9426000000000001
 31
0.0
  0
LINE
  5
231
100
AcDbEntity
100
AcDbLine
  8
BLACK
 62
256
370
-1
  6
ByLayer
 10
0.4012
 20
1.9426000000000001
 30
0.0
 11
0.4069
 21
1.9388000000000001
 31
0.0
  0
LINE
  5
232
100
AcDbEntity
100
AcDbLine
  8
BLACK
 62
256
370
-1
  6
ByLayer
 10
0.4069
 20
1.9388000000000001
 30
0.0
 11
0.4107
 21
1.9350000000000001
 31
0.0
  0
LINE
  5
233
100
AcDbEntity
100
AcDbLine
  8
BLACK
 62
256
370
-1
  6
ByLayer
 10
0.4107
 20
1.9350000000000001
 30
0.0
 11
0.4126
 21
1.9312
 31
0.0
  0
LINE
  5
234
100
AcDbEntity
100
AcDbLine
  8
BLACK
 62
256
370
-1
  6
ByLayer
 10
0.4183
 20
1.9769000000000001
 30
0.0
 11
0.4164
 21
1.9731000000000001
 31
0.0
  0
LINE
  5
235
100
AcDbEntity
100
AcDbLine
  8
BLACK
 62
256
370
-1
  6
ByLayer
 10
0.4164
 20
1.9731000000000001
 30
0.0
 11
0.4145
 21
1.9712000000000001
 31
0.0
  0
LINE
  5
236
100
AcDbEntity
100
AcDbLine
  8
BLACK
 62
256
370
-1
  6
ByLayer
 10
0.4145
 20
1.9712000000000001
 30
0.0
 11
0.4107
 21
1.9693000000000001
 31
0.0
  0
LINE
  5
237
100
AcDbEntity
100
AcDbLine
  8
BLACK
 62
256
370
-1
  6
ByLayer
 10
0.4107
 20
1.9693000000000001
 30
0.0
 11
0.4088
 21
1.9693000000000001
 31
0.0
  0
LINE
  5
238
100
AcDbEntity
100
AcDbLine
  8
BLACK
 62
256
370
-1
  6
ByLayer
 10
0.4088
 20
1.9693000000000001
 30
0.0
 11
0.405
 21
1.9712000000000001
 31
0.0
  0
LINE
  5
239
100
AcDbEntity
100
AcDbLine
  8
BLACK
 62
256
370
-1
  6
ByLayer
 10
0.405
 20
1.9712000000000001
 30
0.0
 11
0.4031
 21
1.9731000000000001
 31
0.0
  0
LINE
  5
23A
100
AcDbEntity
100
AcDbLine
  8
BLACK
 62
256
370
-1
  6
ByLayer
 10
0.4031
 20
1.9731000000000001
 30
0.0
 11
0.4012
 21
1.9769000000000001
 31
0.0
  0
LINE
  5
23B
100
AcDbEntity
100
AcDbLine
  8
BLACK
 62
256
370
-1
  6
ByLayer
 10
0.4012
 20
1.9769000000000001
 30
0.0
 11
0.4012
 21
1.9846000000000001
 31
0.0
  0
LINE
  5
23C
100
AcDbEntity
100
AcDbLine
  8
BLACK
 62
256
370
-1
  6
ByLayer
 10
0.4012
 20
1.9846000000000001
 30
0.0
 11
0.4031
 21
1.9884000000000002
 31
0.0
  0
LINE
  5
23D
100
AcDbEntity
100
AcDbLine
  8
BLACK
 62
256
370
-1
  6
ByLayer
 10
0.4031
 20
1.9884000000000002
 30
0.0
 11
0.405
 21
1.9903000000000002
 31
0.0
  0
LINE
  5
23E
100
AcDbEntity
100
AcDbLine
  8
BLACK
 62
256
370
-1
  6
ByLayer
 10
0.405
 20
1.9903000000000002
 30
0.0
 11
0.4088
 21
1.9922000000000002
 31
0.0
  0
LINE
  5
23F
100
AcDbEntity
100
AcDbLine
  8
BLACK
 62
256
370
-1
  6
ByLayer
 10
0.4088
 20
1.9922000000000002
 30
0.0
 11
0.4107
 21
1.9922000000000002
 31
0.0
  0
LINE
  5
240
100
AcDbEntity
100
AcDbLine
  8
BLACK
 62
256
370
-1
  6
ByLayer
 10
0.4107
 20
1.9922000000000002
 30
0.0
 11
0.4145
 21
1.9903000000000002
 31
0.0
  0
LINE
  5
241
100
AcDbEntity
100
AcDbLine
  8
BLACK
 62
256
370
-1
  6
ByLayer
 10
0.4145
 20
1.9903000000000002
 30
0.0
 11
0.4164
 21
1.9884000000000002
 31
0.0
  0
LINE
  5
242
100
AcDbEntity
100
AcDbLine
  8
BLACK
 62
256
370
-1
  6
ByLayer
 10
0.4164
 20
1.9884000000000002
 30
0.0
 11
0.4183
 21
1.9846000000000001
 31
0.0
  0
LINE
  5
243
100
AcDbEntity
100
AcDbLine
  8
BLACK
 62
256
370
-1
  6
ByLayer
 10
0.4183
 20
1.9846000000000001
 30
0.0
 11
0.4183
 21
1.9769000000000001
 31
0.0
  0
LINE
  5
244
100
AcDbEntity
100
AcDbLine
  8
BLACK
 62
256
370
-1
  6
ByLayer
 10
0.4183
 20
1.9769000000000001
 30
0.0
 11
0.4202
 21
1.9731000000000001
 31
0.0
  0
LINE
  5
245
100
AcDbEntity
100
AcDbLine
  8
BLACK
 62
256
370
-1
  6
ByLayer
 10
0.4202
 20
1.9731000000000001
 30
0.0
 11
0.4221
 21
1.9712000000000001
 31
0.0
  0
LINE
  5
246
100
AcDbEntity
100
AcDbLine
  8
BLACK
 62
256
370
-1
  6
ByLayer
 10
0.4221
 20
1.9712000000000001
 30
0.0
 11
0.426
 21
1.9693000000000001
 31
0.0
  0
LINE
  5
247
100
AcDbEntity
100
AcDbLine
  8
BLACK
 62
256
370
-1
  6
ByLayer
 10
0.426
 20
1.9693000000000001
 30
0.0
 11
0.4336
 21
1.9693000000000001
 31
0.0
  0
LINE
  5
248
100
AcDbEntity
100
AcDbLine
  8
BLACK
 62
256
370
-1
  6
ByLayer
 10
0.4336
 20
1.9693000000000001
 30
0.0
 11
0.4374
 21
1.9712000000000001
 31
0.0
  0
LINE
  5
249
100
AcDbEntity
100
AcDbLine
  8
BLACK
 62
256
370
-1
  6
ByLayer
 10
0.4374
 20
1.9712000000000001
 30
0.0
 11
0.4393
 21
1.9731000000000001
 31
0.0
  0
LINE
  5
24A
100
AcDbEntity
100
AcDbLine
  8
BLACK
 62
256
370
-1
  6
ByLayer
 10
0.4393
 20
1.9731000000000001
 30
0.0
 11
0.4412
 21
1.9769000000000001
 31
0.0
  0
LINE
  5
24B
100
AcDbEntity
100
AcDbLine
  8
BLACK
 62
256
370
-1
  6
ByLayer
 10
0.4412
 20
1.9769000000000001
 30
0.0
 11
0.4412
 21
1.9846000000000001
 31
0.0
  0
LINE
  5
24C
100
AcDbEntity
100
AcDbLine
  8
BLACK
 62
256
370
-1
  6
ByLayer
 10
0.4412
 20
1.9846000000000001
 30
0.0
 11
0.4393
 21
1.9884000000000002
 31
0.0
  0
LINE
  5
24D
100
AcDbEntity
100
AcDbLine
  8
BLACK
 62
256
370
-1
  6
ByLayer
 10
0.4393
 20
1.9884000000000002
 30
0.0
 11
0.4374
 21
1.9903000000000002
 31
0.0
  0
LINE
  5
24E
100
AcDbEntity
100
AcDbLine
  8
BLACK
 62
256
370
-1
  6
ByLayer
 10
0.4374
 20
1.9903000000000002
 30
0.0
 11
0.4336
 21
1.9922000000000002
 31
0.0
  0
LINE
  5
24F
100
AcDbEntity
100
AcDbLine
  8
BLACK
 62
256
370
-1
  6
ByLayer
 10
0.4336
 20
1.9922000000000002
 30
0.0
 11
0.426
 21
1.9922000000000002
 31
0.0
  0
LINE
  5
250
100
AcDbEntity
100
AcDbLine
  8
BLACK
 62
256
370
-1
  6
ByLayer
 10
0.426
 20
1.9922000000000002
 30
0.0
 11
0.4221
 21
1.9903000000000002
 31
0.0
  0
LINE
  5
251
100
AcDbEntity
100
AcDbLine
  8
BLACK
 62
256
370
-1
  6
ByLayer
 10
0.4221
 20
1.9903000000000002
 30
0.0
 11
0.4202
 21
1.9884000000000002
 31
0.0
  0
LINE
  5
252
100
AcDbEntity
100
AcDbLine
  8
BLACK
 62
256
370
-1
  6
ByLayer
 10
0.4202
 20
1.9884000000000002
 30
0.0
 11
0.4183
 21
1.9846000000000001
 31
0.0
  0
LINE
  5
253
100
AcDbEntity
100
AcDbLine
  8
BLACK
 62
256
370
-1
  6
ByLayer
 10
0.4012
 20
2.0036
 30
0.0
 11
0.4412
 21
2.0169000000000001
 31
0.0
  0
LINE
  5
254
100
AcDbEntity
100
AcDbLine
  8
BLACK
 62
256
370
-1
  6
ByLayer
 10
0.4412
 20
2.0169000000000001
 30
0.0
 11
0.4012
 21
2.0303
 31
0.0
  0
LINE
  5
255
100
AcDbEntity
100
AcDbLine
  8
BLACK
 62
256
370
-1
  6
ByLayer
 10
0.4412
 20
2.0436000000000001
 30
0.0
 11
0.4012
 21
2.0436000000000001
 31
0.0
  0
LINE
  5
256
100
AcDbEntity
100
AcDbLine
  8
BLACK
 62
256
370
-1
  6
ByLayer
 10
0.4012
 20
2.0436000000000001
 30
0.0
 11
0.4012
 21
2.0531000000000001
 31
0.0
  0
LINE
  5
257
100
AcDbEntity
100
AcDbLine
  8
BLACK
 62
256
370
-1
  6
ByLayer
 10
0.4012
 20
2.0531000000000001
 30
0.0
 11
0.4031
 21
2.0589
 31
0.0
  0
LINE
  5
258
100
AcDbEntity
100
AcDbLine
  8
BLACK
 62
256
370
-1
  6
ByLayer
 10
0.4031
 20
2.0589
 30
0.0
 11
0.4069
 21
2.0627
 31
0.0
  0
LINE
  5
259
100
AcDbEntity
100
AcDbLine
  8
BLACK
 62
256
370
-1
  6
ByLayer
 10
0.4069
 20
2.0627
 30
0.0
 11
0.4107
 21
2.0646
 31
0.0
  0
LINE
  5
25A
100
AcDbEntity
100
AcDbLine
  8
BLACK
 62
256
370
-1
  6
ByLayer
 10
0.4107
 20
2.0646
 30
0.0
 11
0.4183
 21
2.0665
 31
0.0
  0
LINE
  5
25B
100
AcDbEntity
100
AcDbLine
  8
BLACK
 62
256
370
-1
  6
ByLayer
 10
0.4183
 20
2.0665
 30
0.0
 11
0.424
 21
2.0665
 31
0.0
  0
LINE
  5
25C
100
AcDbEntity
100
AcDbLine
  8
BLACK
 62
256
370
-1
  6
ByLayer
 10
0.424
 20
2.0665
 30
0.0
 11
0.4317
 21
2.0646
 31
0.0
  0
LINE
  5
25D
100
AcDbEntity
100
AcDbLine
  8
BLACK
 62
256
370
-1
  6
ByLayer
 10
0.4317
 20
2.0646
 30
0.0
 11
0.4355
 21
2.0627
 31
0.0
  0
LINE
  5
25E
100
AcDbEntity
100
AcDbLine
  8
BLACK
 62
256
370
-1
  6
ByLayer
 10
0.4355
 20
2.0627
 30
0.0
 11
0.4393
 21
2.0589
 31
0.0
  0
LINE
  5
25F
100
AcDbEntity
100
AcDbLine
  8
BLACK
 62
256
370
-1
  6
ByLayer
 10
0.4393
 20
2.0589
 30
0.0
 11
0.4412
 21
2.0531000000000001
 31
0.0
  0
LINE
  5
260
100
AcDbEntity
100
AcDbLine
  8
BLACK
 62
256
370
-1
  6
ByLayer
 10
0.4412
 20
2.0531000000000001
 30
0.0
 11
0.4412
 21
2.0436000000000001
 31
0.0
  0
LINE
  5
261
100
AcDbEntity
100
AcDbLine
  8
BLACK
 62
256
370
-1
  6
ByLayer
 10
0.4374
 20
2.1065
 30
0.0
 11
0.4393
 21
2.1046
 31
0.0
  0
LINE
  5
262
100
AcDbEntity
100
AcDbLine
  8
BLACK
 62
256
370
-1
  6
ByLayer
 10
0.4393
 20
2.1046
 30
0.0
 11
0.4412
 21
2.0989
 31
0.0
  0
LINE
  5
263
100
AcDbEntity
100
AcDbLine
  8
BLACK
 62
256
370
-1
  6
ByLayer
 10
0.4412
 20
2.0989
 30
0.0
 11
0.4412
 21
2.0951
 31
0.0
  0
LINE
  5
264
100
AcDbEntity
100
AcDbLine
  8
BLACK
 62
256
370
-1
  6
ByLayer
 10
0.4412
 20
2.0951
 30
0.0
 11
0.4393
 21
2.0893000000000002
 31
0.0
  0
LINE
  5
265
100
AcDbEntity
100
AcDbLine
  8
BLACK
 62
256
370
-1
  6
ByLayer
 10
0.4393
 20
2.0893000000000002
 30
0.0
 11
0.4355
 21
2.0855000000000001
 31
0.0
  0
LINE
  5
266
100
AcDbEntity
100
AcDbLine
  8
BLACK
 62
256
370
-1
  6
ByLayer
 10
0.4355
 20
2.0855000000000001
 30
0.0
 11
0.4317
 21
2.0836000000000001
 31
0.0
  0
LINE
  5
267
100
AcDbEntity
100
AcDbLine
  8
BLACK
 62
256
370
-1
  6
ByLayer
 10
0.4317
 20
2.0836000000000001
 30
0.0
 11
0.424
 21
2.0817000000000001
 31
0.0
  0
LINE
  5
268
100
AcDbEntity
100
AcDbLine
  8
BLACK
 62
256
370
-1
  6
ByLayer
 10
0.424
 20
2.0817000000000001
 30
0.0
 11
0.4183
 21
2.0817000000000001
 31
0.0
  0
LINE
  5
269
100
AcDbEntity
100
AcDbLine
  8
BLACK
 62
256
370
-1
  6
ByLayer
 10
0.4183
 20
2.0817000000000001
 30
0.0
 11
0.4107
 21
2.0836000000000001
 31
0.0
  0
LINE
  5
26A
100
AcDbEntity
100
AcDbLine
  8
BLACK
 62
256
370
-1
  6
ByLayer
 10
0.4107
 20
2.0836000000000001
 30
0.0
 11
0.4069
 21
2.0855000000000001
 31
0.0
  0
LINE
  5
26B
100
AcDbEntity
100
AcDbLine
  8
BLACK
 62
256
370
-1
  6
ByLayer
 10
0.4069
 20
2.0855000000000001
 30
0.0
 11
0.4031
 21
2.0893000000000002
 31
0.0
  0
LINE
  5
26C
100
AcDbEntity
100
AcDbLine
  8
BLACK
 62
256
370
-1
  6
ByLayer
 10
0.4031
 20
2.0893000000000002
 30
0.0
 11
0.4012
 21
2.0951
 31
0.0
  0
LINE
  5
26D
100
AcDbEntity
100
AcDbLine
  8
BLACK
 62
256
370
-1
  6
ByLayer
 10
0.4012
 20
2.0951
 30
0.0
 11
0.4012
 21
2.0989
 31
0.0
  0
LINE
  5
26E
100
AcDbEntity
100
AcDbLine
  8
BLACK
 62
256
370
-1
  6
ByLayer
 10
0.4012
 20
2.0989
 30
0.0
 11
0.4031
 21
2.1046
 31
0.0
  0
LINE
  5
26F
100
AcDbEntity
100
AcDbLine
  8
BLACK
 62
256
370
-1
  6
ByLayer
 10
0.4031
 20
2.1046
 30
0.0
 11
0.405
 21
2.1065
 31
0.0
  0
LINE
  5
270
100
AcDbEntity
100
AcDbLine
  8
BLACK
 62
256
370
-1
  6
ByLayer
 10
1.1243000000000001
 20
0.5758
 30
0.0
 11
1.0643
 21
0.5758
 31
0.0
  0
LINE
  5
271
100
AcDbEntity
100
AcDbLine
  8
BLACK
 62
256
370
-1
  6
ByLayer
 10
1.0643
 20
0.5758
 30
0.0
 11
1.0643
 21
0.5901000000000001
 31
0.0
  0
LINE
  5
272
100
AcDbEntity
100
AcDbLine
  8
BLACK
 62
256
370
-1
  6
ByLayer
 10
1.0643
 20
0.5901000000000001
 30
0.0
 11
1.0671000000000002
 21
0.5986
 31
0.0
  0
LINE
  5
273
100
AcDbEntity
100
AcDbLine
  8
BLACK
 62
256
370
-1
  6
ByLayer
 10
1.0671000000000002
 20
0.5986
 30
0.0
 11
1.0729
 21
0.6044
 31
0.0
  0
LINE
  5
274
100
AcDbEntity
100
AcDbLine
  8
BLACK
 62
256
370
-1
  6
ByLayer
 10
1.0729
 20
0.6044
 30
0.0
 11
1.0786
 21
0.6072000000000001
 31
0.0
  0
LINE
  5
275
100
AcDbEntity
100
AcDbLine
  8
BLACK
 62
256
370
-1
  6
ByLayer
 10
1.0786
 20
0.6072000000000001
 30
0.0
 11
1.0900000000000001
 21
0.6101
 31
0.0
  0
LINE
  5
276
100
AcDbEntity
100
AcDbLine
  8
BLACK
 62
256
370
-1
  6
ByLayer
 10
1.0900000000000001
 20
0.6101
 30
0.0
 11
1.0986
 21
0.6101
 31
0.0
  0
LINE
  5
277
100
AcDbEntity
100
AcDbLine
  8
BLACK
 62
256
370
-1
  6
ByLayer
 10
1.0986
 20
0.6101
 30
0.0
 11
1.1100000000000001
 21
0.6072000000000001
 31
0.0
  0
LINE
  5
278
100
AcDbEntity
100
AcDbLine
  8
BLACK
 62
256
370
-1
  6
ByLayer
 10
1.1100000000000001
 20
0.6072000000000001
 30
0.0
 11
1.1157000000000001
 21
0.6044
 31
0.0
  0
LINE
  5
279
100
AcDbEntity
100
AcDbLine
  8
BLACK
 62
256
370
-1
  6
ByLayer
 10
1.1157000000000001
 20
0.6044
 30
0.0
 11
1.1214
 21
0.5986
 31
0.0
  0
LINE
  5
27A
100
AcDbEntity
100
AcDbLine
  8
BLACK
 62
256
370
-1
  6
ByLayer
 10
1.1214
 20
0.5986
 30
0.0
 11
1.1243000000000001
 21
0.5901000000000001
 31
0.0
  0
LINE
  5
27B
100
AcDbEntity
100
AcDbLine
  8
BLACK
 62
256
370
-1
  6
ByLayer
 10
1.1243000000000001
 20
0.5901000000000001
 30
0.0
 11
1.1243000000000001
 21
0.5758
 31
0.0
  0
LINE
  5
27C
100
AcDbEntity
100
AcDbLine
  8
BLACK
 62
256
370
-1
  6
ByLayer
 10
1.1186
 20
0.6701
 30
0.0
 11
1.1214
 21
0.6672
 31
0.0
  0
LINE
  5
27D
100
AcDbEntity
100
AcDbLine
  8
BLACK
 62
256
370
-1
  6
ByLayer
 10
1.1214
 20
0.6672
 30
0.0
 11
1.1243000000000001
 21
0.6586000000000001
 31
0.0
  0
LINE
  5
27E
100
AcDbEntity
100
AcDbLine
  8
BLACK
 62
256
370
-1
  6
ByLayer
 10
1.1243000000000001
 20
0.6586000000000001
 30
0.0
 11
1.1243000000000001
 21
0.6529
 31
0.0
  0
LINE
  5
27F
100
AcDbEntity
100
AcDbLine
  8
BLACK
 62
256
370
-1
  6
ByLayer
 10
1.1243000000000001
 20
0.6529
 30
0.0
 11
1.1214
 21
0.6444000000000001
 31
0.0
  0
LINE
  5
280
100
AcDbEntity
100
AcDbLine
  8
BLACK
 62
256
370
-1
  6
ByLayer
 10
1.1214
 20
0.6444000000000001
 30
0.0
 11
1.1157000000000001
 21
0.6386000000000001
 31
0.0
  0
LINE
  5
281
100
AcDbEntity
100
AcDbLine
  8
BLACK
 62
256
370
-1
  6
ByLayer
 10
1.1157000000000001
 20
0.6386000000000001
 30
0.0
 11
1.1100000000000001
 21
0.6358
 31
0.0
  0
LINE
  5
282
100
AcDbEntity
100
AcDbLine
  8
BLACK
 62
256
370
-1
  6
ByLayer
 10
1.1100000000000001
 20
0.6358
 30
0.0
 11
1.0986
 21
0.6329
 31
0.0
  0
LINE
  5
283
100
AcDbEntity
100
AcDbLine
  8
BLACK
 62
256
370
-1
  6
ByLayer
 10
1.0986
 20
0.6329
 30
0.0
 11
1.0900000000000001
 21
0.6329
 31
0.0
  0
LINE
  5
284
100
AcDbEntity
100
AcDbLine
  8
BLACK
 62
256
370
-1
  6
ByLayer
 10
1.0900000000000001
 20
0.6329
 30
0.0
 11
1.0786
 21
0.6358
 31
0.0
  0
LINE
  5
285
100
AcDbEntity
100
AcDbLine
  8
BLACK
 62
256
370
-1
  6
ByLayer
 10
1.0786
 20
0.6358
 30
0.0
 11
1.0729
 21
0.6386000000000001
 31
0.0
  0
LINE
  5
286
100
AcDbEntity
100
AcDbLine
  8
BLACK
 62
256
370
-1
  6
ByLayer
 10
1.0729
 20
0.6386000000000001
 30
0.0
 11
1.0671000000000002
 21
0.6444000000000001
 31
0.0
  0
LINE
  5
287
100
AcDbEntity
100
AcDbLine
  8
BLACK
 62
256
370
-1
  6
ByLayer
 10
1.0671000000000002
 20
0.6444000000000001
 30
0.0
 11
1.0643
 21
0.6529
 31
0.0
  0
LINE
  5
288
100
AcDbEntity
100
AcDbLine
  8
BLACK
 62
256
370
-1
  6
ByLayer
 10
1.0643
 20
0.6529
 30
0.0
 11
1.0643
 21
0.6586000000000001
 31
0.0
  0
LINE
  5
289
100
AcDbEntity
100
AcDbLine
  8
BLACK
 62
256
370
-1
  6
ByLayer
 10
1.0643
 20
0.6586000000000001
 30
0.0
 11
1.0671000000000002
 21
0.6672
 31
0.0
  0
LINE
  5
28A
100
AcDbEntity
100
AcDbLine
  8
BLACK
 62
256
370
-1
  6
ByLayer
 10
1.0671000000000002
 20
0.6672
 30
0.0
 11
1.0700000000000001
 21
0.6701
 31
0.0
  0
LINE
  5
28B
100
AcDbEntity
100
AcDbLine
  8
BLACK
 62
256
370
-1
  6
ByLayer
 10
1.1243000000000001
 20
0.7272000000000001
 30
0.0
 11
1.1243000000000001
 21
0.6929000000000001
 31
0.0
  0
LINE
  5
28C
100
AcDbEntity
100
AcDbLine
  8
BLACK
 62
256
370
-1
  6
ByLayer
 10
1.1243000000000001
 20
0.7101000000000001
 30
0.0
 11
1.0643
 21
0.7101000000000001
 31
0.0
  0
LINE
  5
28D
100
AcDbEntity
100
AcDbLine
  8
BLACK
 62
256
370
-1
  6
ByLayer
 10
1.0643
 20
0.7101000000000001
 30
0.0
 11
1.0729
 21
0.7044
 31
0.0
  0
LINE
  5
28E
100
AcDbEntity
100
AcDbLine
  8
BLACK
 62
256
370
-1
  6
ByLayer
 10
1.0729
 20
0.7044
 30
0.0
 11
1.0786
 21
0.6986
 31
0.0
  0
LINE
  5
28F
100
AcDbEntity
100
AcDbLine
  8
BLACK
 62
256
370
-1
  6
ByLayer
 10
1.0786
 20
0.6986
 30
0.0
 11
1.0814000000000001
 21
0.6929000000000001
 31
0.0
  0
LINE
  5
290
100
AcDbEntity
100
AcDbLine
  8
BLACK
 62
256
370
-1
  6
ByLayer
 10
0.1993
 20
0.5629000000000001
 30
0.0
 11
0.1393
 21
0.5629000000000001
 31
0.0
  0
LINE
  5
291
100
AcDbEntity
100
AcDbLine
  8
BLACK
 62
256
370
-1
  6
ByLayer
 10
0.1393
 20
0.5629000000000001
 30
0.0
 11
0.1393
 21
0.5772
 31
0.0
  0
LINE
  5
292
100
AcDbEntity
100
AcDbLine
  8
BLACK
 62
256
370
-1
  6
ByLayer
 10
0.1393
 20
0.5772
 30
0.0
 11
0.1421
 21
0.5857
 31
0.0
  0
LINE
  5
293
100
AcDbEntity
100
AcDbLine
  8
BLACK
 62
256
370
-1
  6
ByLayer
 10
0.1421
 20
0.5857
 30
0.0
 11
0.1479
 21
0.5915
 31
0.0
  0
LINE
  5
294
100
AcDbEntity
100
AcDbLine
  8
BLACK
 62
256
370
-1
  6
ByLayer
 10
0.1479
 20
0.5915
 30
0.0
 11
0.1536
 21
0.5943000000000001
 31
0.0
  0
LINE
  5
295
100
AcDbEntity
100
AcDbLine
  8
BLACK
 62
256
370
-1
  6
ByLayer
 10
0.1536
 20
0.5943000000000001
 30
0.0
 11
0.165
 21
0.5972000000000001
 31
0.0
  0
LINE
  5
296
100
AcDbEntity
100
AcDbLine
  8
BLACK
 62
256
370
-1
  6
ByLayer
 10
0.165
 20
0.5972000000000001
 30
0.0
 11
0.1736
 21
0.5972000000000001
 31
0.0
  0
LINE
  5
297
100
AcDbEntity
100
AcDbLine
  8
BLACK
 62
256
370
-1
  6
ByLayer
 10
0.1736
 20
0.5972000000000001
 30
0.0
 11
0.185
 21
0.5943000000000001
 31
0.0
  0
LINE
  5
298
100
AcDbEntity
100
AcDbLine
  8
BLACK
 62
256
370
-1
  6
ByLayer
 10
0.185
 20
0.5943000000000001
 30
0.0
 11
0.1907
 21
0.5915
 31
0.0
  0
LINE
  5
299
100
AcDbEntity
100
AcDbLine
  8
BLACK
 62
256
370
-1
  6
ByLayer
 10
0.1907
 20
0.5915
 30
0.0
 11
0.1964
 21
0.5857
 31
0.0
  0
LINE
  5
29A
100
AcDbEntity
100
AcDbLine
  8
BLACK
 62
256
370
-1
  6
ByLayer
 10
0.1964
 20
0.5857
 30
0.0
 11
0.1993
 21
0.5772
 31
0.0
  0
LINE
  5
29B
100
AcDbEntity
100
AcDbLine
  8
BLACK
 62
256
370
-1
  6
ByLayer
 10
0.1993
 20
0.5772
 30
0.0
 11
0.1993
 21
0.5629000000000001
 31
0.0
  0
LINE
  5
29C
100
AcDbEntity
100
AcDbLine
  8
BLACK
 62
256
370
-1
  6
ByLayer
 10
0.1936
 20
0.6572
 30
0.0
 11
0.1964
 21
0.6543
 31
0.0
  0
LINE
  5
29D
100
AcDbEntity
100
AcDbLine
  8
BLACK
 62
256
370
-1
  6
ByLayer
 10
0.1964
 20
0.6543
 30
0.0
 11
0.1993
 21
0.6457000000000001
 31
0.0
  0
LINE
  5
29E
100
AcDbEntity
100
AcDbLine
  8
BLACK
 62
256
370
-1
  6
ByLayer
 10
0.1993
 20
0.6457000000000001
 30
0.0
 11
0.1993
 21
0.64
 31
0.0
  0
LINE
  5
29F
100
AcDbEntity
100
AcDbLine
  8
BLACK
 62
256
370
-1
  6
ByLayer
 10
0.1993
 20
0.64
 30
0.0
 11
0.1964
 21
0.6315000000000001
 31
0.0
  0
LINE
  5
2A0
100
AcDbEntity
100
AcDbLine
  8
BLACK
 62
256
370
-1
  6
ByLayer
 10
0.1964
 20
0.6315000000000001
 30
0.0
 11
0.1907
 21
0.6257
 31
0.0
  0
LINE
  5
2A1
100
AcDbEntity
100
AcDbLine
  8
BLACK
 62
256
370
-1
  6
ByLayer
 10
0.1907
 20
0.6257
 30
0.0
 11
0.185
 21
0.6229
 31
0.0
  0
LINE
  5
2A2
100
AcDbEntity
100
AcDbLine
  8
BLACK
 62
256
370
-1
  6
ByLayer
 10
0.185
 20
0.6229
 30
0.0
 11
0.1736
 21
0.62
 31
0.0
  0
LINE
  5
2A3
100
AcDbEntity
100
AcDbLine
  8
BLACK
 62
256
370
-1
  6
ByLayer
 10
0.1736
 20
0.62
 30
0.0
 11
0.165
 21
0.62
 31
0.0
  0
LINE
  5
2A4
100
AcDbEntity
100
AcDbLine
  8
BLACK
 62
256
370
-1
  6
ByLayer
 10
0.165
 20
0.62
 30
0.0
 11
0.1536
 21
0.6229
 31
0.0
  0
LINE
  5
2A5
100
AcDbEntity
100
AcDbLine
  8
BLACK
 62
256
370
-1
  6
ByLayer
 10
0.1536
 20
0.6229
 30
0.0
 11
0.1479
 21
0.6257
 31
0.0
  0
LINE
  5
2A6
100
AcDbEntity
100
AcDbLine
  8
BLACK
 62
256
370
-1
  6
ByLayer
 10
0.1479
 20
0.6257
 30
0.0
 11
0.1421
 21
0.6315000000000001
 31
0.0
  0
LINE
  5
2A7
100
AcDbEntity
100
AcDbLine
  8
BLACK
 62
256
370
-1
  6
ByLayer
 10
0.1421
 20
0.6315000000000001
 30
0.0
 11
0.1393
 21
0.64
 31
0.0
  0
LINE
  5
2A8
100
AcDbEntity
100
AcDbLine
  8
BLACK
 62
256
370
-1
  6
ByLayer
 10
0.1393
 20
0.64
 30
0.0
 11
0.1393
 21
0.6457000000000001
 31
0.0
  0
LINE
  5
2A9
100
AcDbEntity
100
AcDbLine
  8
BLACK
 62
256
370
-1
  6
ByLayer
 10
0.1393
 20
0.6457000000000001
 30
0.0
 11
0.1421
 21
0.6543
 31
0.0
  0
LINE
  5
2AA
100
AcDbEntity
100
AcDbLine
  8
BLACK
 62
256
370
-1
  6
ByLayer
 10
0.1421
 20
0.6543
 30
0.0
 11
0.145
 21
0.6572
 31
0.0
  0
LINE
  5
2AB
100
AcDbEntity
100
AcDbLine
  8
BLACK
 62
256
370
-1
  6
ByLayer
 10
0.1393
 20
0.6772
 30
0.0
 11
0.1993
 21
0.6915
 31
0.0
  0
LINE
  5
2AC
100
AcDbEntity
100
AcDbLine
  8
BLACK
 62
256
370
-1
  6
ByLayer
 10
0.1993
 20
0.6915
 30
0.0
 11
0.1564
 21
0.7029000000000001
 31
0.0
  0
LINE
  5
2AD
100
AcDbEntity
100
AcDbLine
  8
BLACK
 62
256
370
-1
  6
ByLayer
 10
0.1564
 20
0.7029000000000001
 30
0.0
 11
0.1993
 21
0.7143
 31
0.0
  0
LINE
  5
2AE
100
AcDbEntity
100
AcDbLine
  8
BLACK
 62
256
370
-1
  6
ByLayer
 10
0.1993
 20
0.7143
 30
0.0
 11
0.1393
 21
0.7286
 31
0.0
  0
LINE
  5
2AF
100
AcDbEntity
100
AcDbLine
  8
BLACK
 62
256
370
-1
  6
ByLayer
 10
0.1393
 20
0.7629
 30
0.0
 11
0.1393
 21
0.7686000000000001
 31
0.0
  0
LINE
  5
2B0
100
AcDbEntity
100
AcDbLine
  8
BLACK
 62
256
370
-1
  6
ByLayer
 10
0.1393
 20
0.7686000000000001
 30
0.0
 11
0.1421
 21
0.7743
 31
0.0
  0
LINE
  5
2B1
100
AcDbEntity
100
AcDbLine
  8
BLACK
 62
256
370
-1
  6
ByLayer
 10
0.1421
 20
0.7743
 30
0.0
 11
0.145
 21
0.7772
 31
0.0
  0
LINE
  5
2B2
100
AcDbEntity
100
AcDbLine
  8
BLACK
 62
256
370
-1
  6
ByLayer
 10
0.145
 20
0.7772
 30
0.0
 11
0.1507
 21
0.7801
 31
0.0
  0
LINE
  5
2B3
100
AcDbEntity
100
AcDbLine
  8
BLACK
 62
256
370
-1
  6
ByLayer
 10
0.1507
 20
0.7801
 30
0.0
 11
0.1621
 21
0.7829
 31
0.0
  0
LINE
  5
2B4
100
AcDbEntity
100
AcDbLine
  8
BLACK
 62
256
370
-1
  6
ByLayer
 10
0.1621
 20
0.7829
 30
0.0
 11
0.1764
 21
0.7829
 31
0.0
  0
LINE
  5
2B5
100
AcDbEntity
100
AcDbLine
  8
BLACK
 62
256
370
-1
  6
ByLayer
 10
0.1764
 20
0.7829
 30
0.0
 11
0.1879
 21
0.7801
 31
0.0
  0
LINE
  5
2B6
100
AcDbEntity
100
AcDbLine
  8
BLACK
 62
256
370
-1
  6
ByLayer
 10
0.1879
 20
0.7801
 30
0.0
 11
0.1936
 21
0.7772
 31
0.0
  0
LINE
  5
2B7
100
AcDbEntity
100
AcDbLine
  8
BLACK
 62
256
370
-1
  6
ByLayer
 10
0.1936
 20
0.7772
 30
0.0
 11
0.1964
 21
0.7743
 31
0.0
  0
LINE
  5
2B8
100
AcDbEntity
100
AcDbLine
  8
BLACK
 62
256
370
-1
  6
ByLayer
 10
0.1964
 20
0.7743
 30
0.0
 11
0.1993
 21
0.7686000000000001
 31
0.0
  0
LINE
  5
2B9
100
AcDbEntity
100
AcDbLine
  8
BLACK
 62
256
370
-1
  6
ByLayer
 10
0.1993
 20
0.7686000000000001
 30
0.0
 11
0.1993
 21
0.7629
 31
0.0
  0
LINE
  5
2BA
100
AcDbEntity
100
AcDbLine
  8
BLACK
 62
256
370
-1
  6
ByLayer
 10
0.1993
 20
0.7629
 30
0.0
 11
0.1964
 21
0.7572
 31
0.0
  0
LINE
  5
2BB
100
AcDbEntity
100
AcDbLine
  8
BLACK
 62
256
370
-1
  6
ByLayer
 10
0.1964
 20
0.7572
 30
0.0
 11
0.1936
 21
0.7543000000000001
 31
0.0
  0
LINE
  5
2BC
100
AcDbEntity
100
AcDbLine
  8
BLACK
 62
256
370
-1
  6
ByLayer
 10
0.1936
 20
0.7543000000000001
 30
0.0
 11
0.1879
 21
0.7515000000000001
 31
0.0
  0
LINE
  5
2BD
100
AcDbEntity
100
AcDbLine
  8
BLACK
 62
256
370
-1
  6
ByLayer
 10
0.1879
 20
0.7515000000000001
 30
0.0
 11
0.1764
 21
0.7486
 31
0.0
  0
LINE
  5
2BE
100
AcDbEntity
100
AcDbLine
  8
BLACK
 62
256
370
-1
  6
ByLayer
 10
0.1764
 20
0.7486
 30
0.0
 11
0.1621
 21
0.7486
 31
0.0
  0
LINE
  5
2BF
100
AcDbEntity
100
AcDbLine
  8
BLACK
 62
256
370
-1
  6
ByLayer
 10
0.1621
 20
0.7486
 30
0.0
 11
0.1507
 21
0.7515000000000001
 31
0.0
  0
LINE
  5
2C0
100
AcDbEntity
100
AcDbLine
  8
BLACK
 62
256
370
-1
  6
ByLayer
 10
0.1507
 20
0.7515000000000001
 30
0.0
 11
0.145
 21
0.7543000000000001
 31
0.0
  0
LINE
  5
2C1
100
AcDbEntity
100
AcDbLine
  8
BLACK
 62
256
370
-1
  6
ByLayer
 10
0.145
 20
0.7543000000000001
 30
0.0
 11
0.1421
 21
0.7572
 31
0.0
  0
LINE
  5
2C2
100
AcDbEntity
100
AcDbLine
  8
BLACK
 62
256
370
-1
  6
ByLayer
 10
0.1421
 20
0.7572
 30
0.0
 11
0.1393
 21
0.7629
 31
0.0
  0
LINE
  5
2C3
100
AcDbEntity
100
AcDbLine
  8
BLACK
 62
256
370
-1
  6
ByLayer
 10
0.165
 20
0.8172
 30
0.0
 11
0.1621
 21
0.8114
 31
0.0
  0
LINE
  5
2C4
100
AcDbEntity
100
AcDbLine
  8
BLACK
 62
256
370
-1
  6
ByLayer
 10
0.1621
 20
0.8114
 30
0.0
 11
0.1593
 21
0.8086
 31
0.0
  0
LINE
  5
2C5
100
AcDbEntity
100
AcDbLine
  8
BLACK
 62
256
370
-1
  6
ByLayer
 10
0.1593
 20
0.8086
 30
0.0
 11
0.1536
 21
0.8057000000000001
 31
0.0
  0
LINE
  5
2C6
100
AcDbEntity
100
AcDbLine
  8
BLACK
 62
256
370
-1
  6
ByLayer
 10
0.1536
 20
0.8057000000000001
 30
0.0
 11
0.1507
 21
0.8057000000000001
 31
0.0
  0
LINE
  5
2C7
100
AcDbEntity
100
AcDbLine
  8
BLACK
 62
256
370
-1
  6
ByLayer
 10
0.1507
 20
0.8057000000000001
 30
0.0
 11
0.145
 21
0.8086
 31
0.0
  0
LINE
  5
2C8
100
AcDbEntity
100
AcDbLine
  8
BLACK
 62
256
370
-1
  6
ByLayer
 10
0.145
 20
0.8086
 30
0.0
 11
0.1421
 21
0.8114
 31
0.0
  0
LINE
  5
2C9
100
AcDbEntity
100
AcDbLine
  8
BLACK
 62
256
370
-1
  6
ByLayer
 10
0.1421
 20
0.8114
 30
0.0
 11
0.1393
 21
0.8172
 31
0.0
  0
LINE
  5
2CA
100
AcDbEntity
100
AcDbLine
  8
BLACK
 62
256
370
-1
  6
ByLayer
 10
0.1393
 20
0.8172
 30
0.0
 11
0.1393
 21
0.8286
 31
0.0
  0
LINE
  5
2CB
100
AcDbEntity
100
AcDbLine
  8
BLACK
 62
256
370
-1
  6
ByLayer
 10
0.1393
 20
0.8286
 30
0.0
 11
0.1421
 21
0.8343
 31
0.0
  0
LINE
  5
2CC
100
AcDbEntity
100
AcDbLine
  8
BLACK
 62
256
370
-1
  6
ByLayer
 10
0.1421
 20
0.8343
 30
0.0
 11
0.145
 21
0.8372000000000001
 31
0.0
  0
LINE
  5
2CD
100
AcDbEntity
100
AcDbLine
  8
BLACK
 62
256
370
-1
  6
ByLayer
 10
0.145
 20
0.8372000000000001
 30
0.0
 11
0.1507
 21
0.8400000000000001
 31
0.0
  0
LINE
  5
2CE
100
AcDbEntity
100
AcDbLine
  8
BLACK
 62
256
370
-1
  6
ByLayer
 10
0.1507
 20
0.8400000000000001
 30
0.0
 11
0.1536
 21
0.8400000000000001
 31
0.0
  0
LINE
  5
2CF
100
AcDbEntity
100
AcDbLine
  8
BLACK
 62
256
370
-1
  6
ByLayer
 10
0.1536
 20
0.8400000000000001
 30
0.0
 11
0.1593
 21
0.8372000000000001
 31
0.0
  0
LINE
  5
2D0
100
AcDbEntity
100
AcDbLine
  8
BLACK
 62
256
370
-1
  6
ByLayer
 10
0.1593
 20
0.8372000000000001
 30
0.0
 11
0.1621
 21
0.8343
 31
0.0
  0
LINE
  5
2D1
100
AcDbEntity
100
AcDbLine
  8
BLACK
 62
256
370
-1
  6
ByLayer
 10
0.1621
 20
0.8343
 30
0.0
 11
0.165
 21
0.8286
 31
0.0
  0
LINE
  5
2D2
100
AcDbEntity
100
AcDbLine
  8
BLACK
 62
256
370
-1
  6
ByLayer
 10
0.165
 20
0.8286
 30
0.0
 11
0.165
 21
0.8172
 31
0.0
  0
LINE
  5
2D3
100
AcDbEntity
100
AcDbLine
  8
BLACK
 62
256
370
-1
  6
ByLayer
 10
0.165
 20
0.8172
 30
0.0
 11
0.1679
 21
0.8114
 31
0.0
  0
LINE
  5
2D4
100
AcDbEntity
100
AcDbLine
  8
BLACK
 62
256
370
-1
  6
ByLayer
 10
0.1679
 20
0.8114
 30
0.0
 11
0.1707
 21
0.8086
 31
0.0
  0
LINE
  5
2D5
100
AcDbEntity
100
AcDbLine
  8
BLACK
 62
256
370
-1
  6
ByLayer
 10
0.1707
 20
0.8086
 30
0.0
 11
0.1764
 21
0.8057000000000001
 31
0.0
  0
LINE
  5
2D6
100
AcDbEntity
100
AcDbLine
  8
BLACK
 62
256
370
-1
  6
ByLayer
 10
0.1764
 20
0.8057000000000001
 30
0.0
 11
0.1879
 21
0.8057000000000001
 31
0.0
  0
LINE
  5
2D7
100
AcDbEntity
100
AcDbLine
  8
BLACK
 62
256
370
-1
  6
ByLayer
 10
0.1879
 20
0.8057000000000001
 30
0.0
 11
0.1936
 21
0.8086
 31
0.0
  0
LINE
  5
2D8
100
AcDbEntity
100
AcDbLine
  8
BLACK
 62
256
370
-1
  6
ByLayer
 10
0.1936
 20
0.8086
 30
0.0
 11
0.1964
 21
0.8114
 31
0.0
  0
LINE
  5
2D9
100
AcDbEntity
100
AcDbLine
  8
BLACK
 62
256
370
-1
  6
ByLayer
 10
0.1964
 20
0.8114
 30
0.0
 11
0.1993
 21
0.8172
 31
0.0
  0
LINE
  5
2DA
100
AcDbEntity
100
AcDbLine
  8
BLACK
 62
256
370
-1
  6
ByLayer
 10
0.1993
 20
0.8172
 30
0.0
 11
0.1993
 21
0.8286
 31
0.0
  0
LINE
  5
2DB
100
AcDbEntity
100
AcDbLine
  8
BLACK
 62
256
370
-1
  6
ByLayer
 10
0.1993
 20
0.8286
 30
0.0
 11
0.1964
 21
0.8343
 31
0.0
  0
LINE
  5
2DC
100
AcDbEntity
100
AcDbLine
  8
BLACK
 62
256
370
-1
  6
ByLayer
 10
0.1964
 20
0.8343
 30
0.0
 11
0.1936
 21
0.8372000000000001
 31
0.0
  0
LINE
  5
2DD
100
AcDbEntity
100
AcDbLine
  8
BLACK
 62
256
370
-1
  6
ByLayer
 10
0.1936
 20
0.8372000000000001
 30
0.0
 11
0.1879
 21
0.8400000000000001
 31
0.0
  0
LINE
  5
2DE
100
AcDbEntity
100
AcDbLine
  8
BLACK
 62
256
370
-1
  6
ByLayer
 10
0.1879
 20
0.8400000000000001
 30
0.0
 11
0.1764
 21
0.8400000000000001
 31
0.0
  0
LINE
  5
2DF
100
AcDbEntity
100
AcDbLine
  8
BLACK
 62
256
370
-1
  6
ByLayer
 10
0.1764
 20
0.8400000000000001
 30
0.0
 11
0.1707
 21
0.8372000000000001
 31
0.0
  0
LINE
  5
2E0
100
AcDbEntity
100
AcDbLine
  8
BLACK
 62
256
370
-1
  6
ByLayer
 10
0.1707
 20
0.8372000000000001
 30
0.0
 11
0.1679
 21
0.8343
 31
0.0
  0
LINE
  5
2E1
100
AcDbEntity
100
AcDbLine
  8
BLACK
 62
256
370
-1
  6
ByLayer
 10
0.1679
 20
0.8343
 30
0.0
 11
0.165
 21
0.8286
 31
0.0
  0
LINE
  5
2E2
100
AcDbEntity
100
AcDbLine
  8
BLACK
 62
256
370
-1
  6
ByLayer
 10
0.6893
 20
0.7488
 30
0.0
 11
0.7026
 21
0.7088
 31
0.0
  0
LINE
  5
2E3
100
AcDbEntity
100
AcDbLine
  8
BLACK
 62
256
370
-1
  6
ByLayer
 10
0.7026
 20
0.7088
 30
0.0
 11
0.7160000000000001
 21
0.7488
 31
0.0
  0
LINE
  5
2E4
100
AcDbEntity
100
AcDbLine
  8
BLACK
 62
256
370
-1
  6
ByLayer
 10
0.735
 20
0.7088
 30
0.0
 11
0.7312000000000001
 21
0.7107
 31
0.0
  0
LINE
  5
2E5
100
AcDbEntity
100
AcDbLine
  8
BLACK
 62
256
370
-1
  6
ByLayer
 10
0.7312000000000001
 20
0.7107
 30
0.0
 11
0.7293000000000001
 21
0.7126
 31
0.0
  0
LINE
  5
2E6
100
AcDbEntity
100
AcDbLine
  8
BLACK
 62
256
370
-1
  6
ByLayer
 10
0.7293000000000001
 20
0.7126
 30
0.0
 11
0.7274
 21
0.7164
 31
0.0
  0
LINE
  5
2E7
100
AcDbEntity
100
AcDbLine
  8
BLACK
 62
256
370
-1
  6
ByLayer
 10
0.7274
 20
0.7164
 30
0.0
 11
0.7274
 21
0.7279
 31
0.0
  0
LINE
  5
2E8
100
AcDbEntity
100
AcDbLine
  8
BLACK
 62
256
370
-1
  6
ByLayer
 10
0.7274
 20
0.7279
 30
0.0
 11
0.7293000000000001
 21
0.7317
 31
0.0
  0
LINE
  5
2E9
100
AcDbEntity
100
AcDbLine
  8
BLACK
 62
256
370
-1
  6
ByLayer
 10
0.7293000000000001
 20
0.7317
 30
0.0
 11
0.7312000000000001
 21
0.7336
 31
0.0
  0
LINE
  5
2EA
100
AcDbEntity
100
AcDbLine
  8
BLACK
 62
256
370
-1
  6
ByLayer
 10
0.7312000000000001
 20
0.7336
 30
0.0
 11
0.735
 21
0.7355
 31
0.0
  0
LINE
  5
2EB
100
AcDbEntity
100
AcDbLine
  8
BLACK
 62
256
370
-1
  6
ByLayer
 10
0.735
 20
0.7355
 30
0.0
 11
0.7408
 21
0.7355
 31
0.0
  0
LINE
  5
2EC
100
AcDbEntity
100
AcDbLine
  8
BLACK
 62
256
370
-1
  6
ByLayer
 10
0.7408
 20
0.7355
 30
0.0
 11
0.7446
 21
0.7336
 31
0.0
  0
LINE
  5
2ED
100
AcDbEntity
100
AcDbLine
  8
BLACK
 62
256
370
-1
  6
ByLayer
 10
0.7446
 20
0.7336
 30
0.0
 11
0.7465000000000001
 21
0.7317
 31
0.0
  0
LINE
  5
2EE
100
AcDbEntity
100
AcDbLine
  8
BLACK
 62
256
370
-1
  6
ByLayer
 10
0.7465000000000001
 20
0.7317
 30
0.0
 11
0.7484000000000001
 21
0.7279
 31
0.0
  0
LINE
  5
2EF
100
AcDbEntity
100
AcDbLine
  8
BLACK
 62
256
370
-1
  6
ByLayer
 10
0.7484000000000001
 20
0.7279
 30
0.0
 11
0.7484000000000001
 21
0.7164
 31
0.0
  0
LINE
  5
2F0
100
AcDbEntity
100
AcDbLine
  8
BLACK
 62
256
370
-1
  6
ByLayer
 10
0.7484000000000001
 20
0.7164
 30
0.0
 11
0.7465000000000001
 21
0.7126
 31
0.0
  0
LINE
  5
2F1
100
AcDbEntity
100
AcDbLine
  8
BLACK
 62
256
370
-1
  6
ByLayer
 10
0.7465000000000001
 20
0.7126
 30
0.0
 11
0.7446
 21
0.7107
 31
0.0
  0
LINE
  5
2F2
100
AcDbEntity
100
AcDbLine
  8
BLACK
 62
256
370
-1
  6
ByLayer
 10
0.7446
 20
0.7107
 30
0.0
 11
0.7408
 21
0.7088
 31
0.0
  0
LINE
  5
2F3
100
AcDbEntity
100
AcDbLine
  8
BLACK
 62
256
370
-1
  6
ByLayer
 10
0.7408
 20
0.7088
 30
0.0
 11
0.735
 21
0.7088
 31
0.0
  0
LINE
  5
2F4
100
AcDbEntity
100
AcDbLine
  8
BLACK
 62
256
370
-1
  6
ByLayer
 10
0.7827000000000001
 20
0.7355
 30
0.0
 11
0.7827000000000001
 21
0.7088
 31
0.0
  0
LINE
  5
2F5
100
AcDbEntity
100
AcDbLine
  8
BLACK
 62
256
370
-1
  6
ByLayer
 10
0.7655000000000001
 20
0.7355
 30
0.0
 11
0.7655000000000001
 21
0.7145
 31
0.0
  0
LINE
  5
2F6
100
AcDbEntity
100
AcDbLine
  8
BLACK
 62
256
370
-1
  6
ByLayer
 10
0.7655000000000001
 20
0.7145
 30
0.0
 11
0.7674000000000001
 21
0.7107
 31
0.0
  0
LINE
  5
2F7
100
AcDbEntity
100
AcDbLine
  8
BLACK
 62
256
370
-1
  6
ByLayer
 10
0.7674000000000001
 20
0.7107
 30
0.0
 11
0.7712
 21
0.7088
 31
0.0
  0
LINE
  5
2F8
100
AcDbEntity
100
AcDbLine
  8
BLACK
 62
256
370
-1
  6
ByLayer
 10
0.7712
 20
0.7088
 30
0.0
 11
0.777
 21
0.7088
 31
0.0
  0
LINE
  5
2F9
100
AcDbEntity
100
AcDbLine
  8
BLACK
 62
256
370
-1
  6
ByLayer
 10
0.777
 20
0.7088
 30
0.0
 11
0.7808
 21
0.7107
 31
0.0
  0
LINE
  5
2FA
100
AcDbEntity
100
AcDbLine
  8
BLACK
 62
256
370
-1
  6
ByLayer
 10
0.7808
 20
0.7107
 30
0.0
 11
0.7827000000000001
 21
0.7126
 31
0.0
  0
LINE
  5
2FB
100
AcDbEntity
100
AcDbLine
  8
BLACK
 62
256
370
-1
  6
ByLayer
 10
0.796
 20
0.7355
 30
0.0
 11
0.8112
 21
0.7355
 31
0.0
  0
LINE
  5
2FC
100
AcDbEntity
100
AcDbLine
  8
BLACK
 62
256
370
-1
  6
ByLayer
 10
0.8017000000000001
 20
0.7488
 30
0.0
 11
0.8017000000000001
 21
0.7145
 31
0.0
  0
LINE
  5
2FD
100
AcDbEntity
100
AcDbLine
  8
BLACK
 62
256
370
-1
  6
ByLayer
 10
0.8017000000000001
 20
0.7145
 30
0.0
 11
0.8036000000000001
 21
0.7107
 31
0.0
  0
LINE
  5
2FE
100
AcDbEntity
100
AcDbLine
  8
BLACK
 62
256
370
-1
  6
ByLayer
 10
0.8036000000000001
 20
0.7107
 30
0.0
 11
0.8074
 21
0.7088
 31
0.0
  0
LINE
  5
2FF
100
AcDbEntity
100
AcDbLine
  8
BLACK
 62
256
370
-1
  6
ByLayer
 10
0.8074
 20
0.7088
 30
0.0
 11
0.8112
 21
0.7088
 31
0.0
  0
LINE
  5
300
100
AcDbEntity
100
AcDbLine
  8
BLACK
 62
256
370
-1
  6
ByLayer
 10
0.8246
 20
0.7240000000000001
 30
0.0
 11
0.8551000000000001
 21
0.7240000000000001
 31
0.0
  0
LINE
  5
301
100
AcDbEntity
100
AcDbLine
  8
BLACK
 62
256
370
-1
  6
ByLayer
 10
0.8399000000000001
 20
0.7088
 30
0.0
 11
0.8399000000000001
 21
0.7393000000000001
 31
0.0
  0
LINE
  5
302
100
AcDbEntity
100
AcDbLine
  8
BLACK
 62
256
370
-1
  6
ByLayer
 10
0.4143
 20
0.7488
 30
0.0
 11
0.4276
 21
0.7088
 31
0.0
  0
LINE
  5
303
100
AcDbEntity
100
AcDbLine
  8
BLACK
 62
256
370
-1
  6
ByLayer
 10
0.4276
 20
0.7088
 30
0.0
 11
0.441
 21
0.7488
 31
0.0
  0
LINE
  5
304
100
AcDbEntity
100
AcDbLine
  8
BLACK
 62
256
370
-1
  6
ByLayer
 10
0.46
 20
0.7088
 30
0.0
 11
0.4562
 21
0.7107
 31
0.0
  0
LINE
  5
305
100
AcDbEntity
100
AcDbLine
  8
BLACK
 62
256
370
-1
  6
ByLayer
 10
0.4562
 20
0.7107
 30
0.0
 11
0.4543
 21
0.7126
 31
0.0
  0
LINE
  5
306
100
AcDbEntity
100
AcDbLine
  8
BLACK
 62
256
370
-1
  6
ByLayer
 10
0.4543
 20
0.7126
 30
0.0
 11
0.4524
 21
0.7164
 31
0.0
  0
LINE
  5
307
100
AcDbEntity
100
AcDbLine
  8
BLACK
 62
256
370
-1
  6
ByLayer
 10
0.4524
 20
0.7164
 30
0.0
 11
0.4524
 21
0.7279
 31
0.0
  0
LINE
  5
308
100
AcDbEntity
100
AcDbLine
  8
BLACK
 62
256
370
-1
  6
ByLayer
 10
0.4524
 20
0.7279
 30
0.0
 11
0.4543
 21
0.7317
 31
0.0
  0
LINE
  5
309
100
AcDbEntity
100
AcDbLine
  8
BLACK
 62
256
370
-1
  6
ByLayer
 10
0.4543
 20
0.7317
 30
0.0
 11
0.4562
 21
0.7336
 31
0.0
  0
LINE
  5
30A
100
AcDbEntity
100
AcDbLine
  8
BLACK
 62
256
370
-1
  6
ByLayer
 10
0.4562
 20
0.7336
 30
0.0
 11
0.46
 21
0.7355
 31
0.0
  0
LINE
  5
30B
100
AcDbEntity
100
AcDbLine
  8
BLACK
 62
256
370
-1
  6
ByLayer
 10
0.46
 20
0.7355
 30
0.0
 11
0.4658
 21
0.7355
 31
0.0
  0
LINE
  5
30C
100
AcDbEntity
100
AcDbLine
  8
BLACK
 62
256
370
-1
  6
ByLayer
 10
0.4658
 20
0.7355
 30
0.0
 11
0.4696
 21
0.7336
 31
0.0
  0
LINE
  5
30D
100
AcDbEntity
100
AcDbLine
  8
BLACK
 62
256
370
-1
  6
ByLayer
 10
0.4696
 20
0.7336
 30
0.0
 11
0.4715
 21
0.7317
 31
0.0
  0
LINE
  5
30E
100
AcDbEntity
100
AcDbLine
  8
BLACK
 62
256
370
-1
  6
ByLayer
 10
0.4715
 20
0.7317
 30
0.0
 11
0.4734
 21
0.7279
 31
0.0
  0
LINE
  5
30F
100
AcDbEntity
100
AcDbLine
  8
BLACK
 62
256
370
-1
  6
ByLayer
 10
0.4734
 20
0.7279
 30
0.0
 11
0.4734
 21
0.7164
 31
0.0
  0
LINE
  5
310
100
AcDbEntity
100
AcDbLine
  8
BLACK
 62
256
370
-1
  6
ByLayer
 10
0.4734
 20
0.7164
 30
0.0
 11
0.4715
 21
0.7126
 31
0.0
  0
LINE
  5
311
100
AcDbEntity
100
AcDbLine
  8
BLACK
 62
256
370
-1
  6
ByLayer
 10
0.4715
 20
0.7126
 30
0.0
 11
0.4696
 21
0.7107
 31
0.0
  0
LINE
  5
312
100
AcDbEntity
100
AcDbLine
  8
BLACK
 62
256
370
-1
  6
ByLayer
 10
0.4696
 20
0.7107
 30
0.0
 11
0.4658
 21
0.7088
 31
0.0
  0
LINE
  5
313
100
AcDbEntity
100
AcDbLine
  8
BLACK
 62
256
370
-1
  6
ByLayer
 10
0.4658
 20
0.7088
 30
0.0
 11
0.46
 21
0.7088
 31
0.0
  0
LINE
  5
314
100
AcDbEntity
100
AcDbLine
  8
BLACK
 62
256
370
-1
  6
ByLayer
 10
0.5077
 20
0.7355
 30
0.0
 11
0.5077
 21
0.7088
 31
0.0
  0
LINE
  5
315
100
AcDbEntity
100
AcDbLine
  8
BLACK
 62
256
370
-1
  6
ByLayer
 10
0.4905
 20
0.7355
 30
0.0
 11
0.4905
 21
0.7145
 31
0.0
  0
LINE
  5
316
100
AcDbEntity
100
AcDbLine
  8
BLACK
 62
256
370
-1
  6
ByLayer
 10
0.4905
 20
0.7145
 30
0.0
 11
0.4924
 21
0.7107
 31
0.0
  0
LINE
  5
317
100
AcDbEntity
100
AcDbLine
  8
BLACK
 62
256
370
-1
  6
ByLayer
 10
0.4924
 20
0.7107
 30
0.0
 11
0.4962
 21
0.7088
 31
0.0
  0
LINE
  5
318
100
AcDbEntity
100
AcDbLine
  8
BLACK
 62
256
370
-1
  6
ByLayer
 10
0.4962
 20
0.7088
 30
0.0
 11
0.502
 21
0.7088
 31
0.0
  0
LINE
  5
319
100
AcDbEntity
100
AcDbLine
  8
BLACK
 62
256
370
-1
  6
ByLayer
 10
0.502
 20
0.7088
 30
0.0
 11
0.5058
 21
0.7107
 31
0.0
  0
LINE
  5
31A
100
AcDbEntity
100
AcDbLine
  8
BLACK
 62
256
370
-1
  6
ByLayer
 10
0.5058
 20
0.7107
 30
0.0
 11
0.5077
 21
0.7126
 31
0.0
  0
LINE
  5
31B
100
AcDbEntity
100
AcDbLine
  8
BLACK
 62
256
370
-1
  6
ByLayer
 10
0.521
 20
0.7355
 30
0.0
 11
0.5362
 21
0.7355
 31
0.0
  0
LINE
  5
31C
100
AcDbEntity
100
AcDbLine
  8
BLACK
 62
256
370
-1
  6
ByLayer
 10
0.5267000000000001
 20
0.7488
 30
0.0
 11
0.5267000000000001
 21
0.7145
 31
0.0
  0
LINE
  5
31D
100
AcDbEntity
100
AcDbLine
  8
BLACK
 62
256
370
-1
  6
ByLayer
 10
0.5267000000000001
 20
0.7145
 30
0.0
 11
0.5286000000000001
 21
0.7107
 31
0.0
  0
LINE
  5
31E
100
AcDbEntity
100
AcDbLine
  8
BLACK
 62
256
370
-1
  6
ByLayer
 10
0.5286000000000001
 20
0.7107
 30
0.0
 11
0.5324
 21
0.7088
 31
0.0
  0
LINE
  5
31F
100
AcDbEntity
100
AcDbLine
  8
BLACK
 62
256
370
-1
  6
ByLayer
 10
0.5324
 20
0.7088
 30
0.0
 11
0.5362
 21
0.7088
 31
0.0
  0
LINE
  5
320
100
AcDbEntity
100
AcDbLine
  8
BLACK
 62
256
370
-1
  6
ByLayer
 10
0.5496
 20
0.7240000000000001
 30
0.0
 11
0.5801000000000001
 21
0.7240000000000001
 31
0.0
  0
LINE
  5
321
100
AcDbEntity
100
AcDbLine
  8
BLACK
 62
256
370
-1
  6
ByLayer
 10
0.7436
 20
0.9126000000000001
 30
0.0
 11
0.7417
 21
0.9107000000000001
 31
0.0
  0
LINE
  5
322
100
AcDbEntity
100
AcDbLine
  8
BLACK
 62
256
370
-1
  6
ByLayer
 10
0.7417
 20
0.9107000000000001
 30
0.0
 11
0.736
 21
0.9088000000000001
 31
0.0
  0
LINE
  5
323
100
AcDbEntity
100
AcDbLine
  8
BLACK
 62
256
370
-1
  6
ByLayer
 10
0.736
 20
0.9088000000000001
 30
0.0
 11
0.7322000000000001
 21
0.9088000000000001
 31
0.0
  0
LINE
  5
324
100
AcDbEntity
100
AcDbLine
  8
BLACK
 62
256
370
-1
  6
ByLayer
 10
0.7322000000000001
 20
0.9088000000000001
 30
0.0
 11
0.7264
 21
0.9107000000000001
 31
0.0
  0
LINE
  5
325
100
AcDbEntity
100
AcDbLine
  8
BLACK
 62
256
370
-1
  6
ByLayer
 10
0.7264
 20
0.9107000000000001
 30
0.0
 11
0.7226
 21
0.9145000000000001
 31
0.0
  0
LINE
  5
326
100
AcDbEntity
100
AcDbLine
  8
BLACK
 62
256
370
-1
  6
ByLayer
 10
0.7226
 20
0.9145000000000001
 30
0.0
 11
0.7207
 21
0.9183
 31
0.0
  0
LINE
  5
327
100
AcDbEntity
100
AcDbLine
  8
BLACK
 62
256
370
-1
  6
ByLayer
 10
0.7207
 20
0.9183
 30
0.0
 11
0.7188
 21
0.926
 31
0.0
  0
LINE
  5
328
100
AcDbEntity
100
AcDbLine
  8
BLACK
 62
256
370
-1
  6
ByLayer
 10
0.7188
 20
0.926
 30
0.0
 11
0.7188
 21
0.9317000000000001
 31
0.0
  0
LINE
  5
329
100
AcDbEntity
100
AcDbLine
  8
BLACK
 62
256
370
-1
  6
ByLayer
 10
0.7188
 20
0.9317000000000001
 30
0.0
 11
0.7207
 21
0.9393
 31
0.0
  0
LINE
  5
32A
100
AcDbEntity
100
AcDbLine
  8
BLACK
 62
256
370
-1
  6
ByLayer
 10
0.7207
 20
0.9393
 30
0.0
 11
0.7226
 21
0.9431
 31
0.0
  0
LINE
  5
32B
100
AcDbEntity
100
AcDbLine
  8
BLACK
 62
256
370
-1
  6
ByLayer
 10
0.7226
 20
0.9431
 30
0.0
 11
0.7264
 21
0.9469000000000001
 31
0.0
  0
LINE
  5
32C
100
AcDbEntity
100
AcDbLine
  8
BLACK
 62
256
370
-1
  6
ByLayer
 10
0.7264
 20
0.9469000000000001
 30
0.0
 11
0.7322000000000001
 21
0.9488000000000001
 31
0.0
  0
LINE
  5
32D
100
AcDbEntity
100
AcDbLine
  8
BLACK
 62
256
370
-1
  6
ByLayer
 10
0.7322000000000001
 20
0.9488000000000001
 30
0.0
 11
0.736
 21
0.9488000000000001
 31
0.0
  0
LINE
  5
32E
100
AcDbEntity
100
AcDbLine
  8
BLACK
 62
256
370
-1
  6
ByLayer
 10
0.736
 20
0.9488000000000001
 30
0.0
 11
0.7417
 21
0.9469000000000001
 31
0.0
  0
LINE
  5
32F
100
AcDbEntity
100
AcDbLine
  8
BLACK
 62
256
370
-1
  6
ByLayer
 10
0.7417
 20
0.9469000000000001
 30
0.0
 11
0.7436
 21
0.9450000000000001
 31
0.0
  0
LINE
  5
330
100
AcDbEntity
100
AcDbLine
  8
BLACK
 62
256
370
-1
  6
ByLayer
 10
0.7683
 20
0.9488000000000001
 30
0.0
 11
0.776
 21
0.9488000000000001
 31
0.0
  0
LINE
  5
331
100
AcDbEntity
100
AcDbLine
  8
BLACK
 62
256
370
-1
  6
ByLayer
 10
0.776
 20
0.9488000000000001
 30
0.0
 11
0.7798
 21
0.9469000000000001
 31
0.0
  0
LINE
  5
332
100
AcDbEntity
100
AcDbLine
  8
BLACK
 62
256
370
-1
  6
ByLayer
 10
0.7798
 20
0.9469000000000001
 30
0.0
 11
0.7836000000000001
 21
0.9431
 31
0.0
  0
LINE
  5
333
100
AcDbEntity
100
AcDbLine
  8
BLACK
 62
256
370
-1
  6
ByLayer
 10
0.7836000000000001
 20
0.9431
 30
0.0
 11
0.7855000000000001
 21
0.9355
 31
0.0
  0
LINE
  5
334
100
AcDbEntity
100
AcDbLine
  8
BLACK
 62
256
370
-1
  6
ByLayer
 10
0.7855000000000001
 20
0.9355
 30
0.0
 11
0.7855000000000001
 21
0.9221
 31
0.0
  0
LINE
  5
335
100
AcDbEntity
100
AcDbLine
  8
BLACK
 62
256
370
-1
  6
ByLayer
 10
0.7855000000000001
 20
0.9221
 30
0.0
 11
0.7836000000000001
 21
0.9145000000000001
 31
0.0
  0
LINE
  5
336
100
AcDbEntity
100
AcDbLine
  8
BLACK
 62
256
370
-1
  6
ByLayer
 10
0.7836000000000001
 20
0.9145000000000001
 30
0.0
 11
0.7798
 21
0.9107000000000001
 31
0.0
  0
LINE
  5
337
100
AcDbEntity
100
AcDbLine
  8
BLACK
 62
256
370
-1
  6
ByLayer
 10
0.7798
 20
0.9107000000000001
 30
0.0
 11
0.776
 21
0.9088000000000001
 31
0.0
  0
LINE
  5
338
100
AcDbEntity
100
AcDbLine
  8
BLACK
 62
256
370
-1
  6
ByLayer
 10
0.776
 20
0.9088000000000001
 30
0.0
 11
0.7683
 21
0.9088000000000001
 31
0.0
  0
LINE
  5
339
100
AcDbEntity
100
AcDbLine
  8
BLACK
 62
256
370
-1
  6
ByLayer
 10
0.7683
 20
0.9088000000000001
 30
0.0
 11
0.7645000000000001
 21
0.9107000000000001
 31
0.0
  0
LINE
  5
33A
100
AcDbEntity
100
AcDbLine
  8
BLACK
 62
256
370
-1
  6
ByLayer
 10
0.7645000000000001
 20
0.9107000000000001
 30
0.0
 11
0.7607
 21
0.9145000000000001
 31
0.0
  0
LINE
  5
33B
100
AcDbEntity
100
AcDbLine
  8
BLACK
 62
256
370
-1
  6
ByLayer
 10
0.7607
 20
0.9145000000000001
 30
0.0
 11
0.7588
 21
0.9221
 31
0.0
  0
LINE
  5
33C
100
AcDbEntity
100
AcDbLine
  8
BLACK
 62
256
370
-1
  6
ByLayer
 10
0.7588
 20
0.9221
 30
0.0
 11
0.7588
 21
0.9355
 31
0.0
  0
LINE
  5
33D
100
AcDbEntity
100
AcDbLine
  8
BLACK
 62
256
370
-1
  6
ByLayer
 10
0.7588
 20
0.9355
 30
0.0
 11
0.7607
 21
0.9431
 31
0.0
  0
LINE
  5
33E
100
AcDbEntity
100
AcDbLine
  8
BLACK
 62
256
370
-1
  6
ByLayer
 10
0.7607
 20
0.9431
 30
0.0
 11
0.7645000000000001
 21
0.9469000000000001
 31
0.0
  0
LINE
  5
33F
100
AcDbEntity
100
AcDbLine
  8
BLACK
 62
256
370
-1
  6
ByLayer
 10
0.7645000000000001
 20
0.9469000000000001
 30
0.0
 11
0.7683
 21
0.9488000000000001
 31
0.0
  0
LINE
  5
340
100
AcDbEntity
100
AcDbLine
  8
BLACK
 62
256
370
-1
  6
ByLayer
 10
0.8026000000000001
 20
0.9088000000000001
 30
0.0
 11
0.8026000000000001
 21
0.9488000000000001
 31
0.0
  0
LINE
  5
341
100
AcDbEntity
100
AcDbLine
  8
BLACK
 62
256
370
-1
  6
ByLayer
 10
0.8026000000000001
 20
0.9488000000000001
 30
0.0
 11
0.8160000000000001
 21
0.9202
 31
0.0
  0
LINE
  5
342
100
AcDbEntity
100
AcDbLine
  8
BLACK
 62
256
370
-1
  6
ByLayer
 10
0.8160000000000001
 20
0.9202
 30
0.0
 11
0.8293
 21
0.9488000000000001
 31
0.0
  0
LINE
  5
343
100
AcDbEntity
100
AcDbLine
  8
BLACK
 62
256
370
-1
  6
ByLayer
 10
0.8293
 20
0.9488000000000001
 30
0.0
 11
0.8293
 21
0.9088000000000001
 31
0.0
  0
LINE
  5
344
100
AcDbEntity
100
AcDbLine
  8
BLACK
 62
256
370
-1
  6
ByLayer
 10
0.4436
 20
0.9126000000000001
 30
0.0
 11
0.4417
 21
0.9107000000000001
 31
0.0
  0
LINE
  5
345
100
AcDbEntity
100
AcDbLine
  8
BLACK
 62
256
370
-1
  6
ByLayer
 10
0.4417
 20
0.9107000000000001
 30
0.0
 11
0.436
 21
0.9088000000000001
 31
0.0
  0
LINE
  5
346
100
AcDbEntity
100
AcDbLine
  8
BLACK
 62
256
370
-1
  6
ByLayer
 10
0.436
 20
0.9088000000000001
 30
0.0
 11
0.4322
 21
0.9088000000000001
 31
0.0
  0
LINE
  5
347
100
AcDbEntity
100
AcDbLine
  8
BLACK
 62
256
370
-1
  6
ByLayer
 10
0.4322
 20
0.9088000000000001
 30
0.0
 11
0.4264
 21
0.9107000000000001
 31
0.0
  0
LINE
  5
348
100
AcDbEntity
100
AcDbLine
  8
BLACK
 62
256
370
-1
  6
ByLayer
 10
0.4264
 20
0.9107000000000001
 30
0.0
 11
0.4226
 21
0.9145000000000001
 31
0.0
  0
LINE
  5
349
100
AcDbEntity
100
AcDbLine
  8
BLACK
 62
256
370
-1
  6
ByLayer
 10
0.4226
 20
0.9145000000000001
 30
0.0
 11
0.4207
 21
0.9183
 31
0.0
  0
LINE
  5
34A
100
AcDbEntity
100
AcDbLine
  8
BLACK
 62
256
370
-1
  6
ByLayer
 10
0.4207
 20
0.9183
 30
0.0
 11
0.4188
 21
0.926
 31
0.0
  0
LINE
  5
34B
100
AcDbEntity
100
AcDbLine
  8
BLACK
 62
256
370
-1
  6
ByLayer
 10
0.4188
 20
0.926
 30
0.0
 11
0.4188
 21
0.9317000000000001
 31
0.0
  0
LINE
  5
34C
100
AcDbEntity
100
AcDbLine
  8
BLACK
 62
256
370
-1
  6
ByLayer
 10
0.4188
 20
0.9317000000000001
 30
0.0
 11
0.4207
 21
0.9393
 31
0.0
  0
LINE
  5
34D
100
AcDbEntity
100
AcDbLine
  8
BLACK
 62
256
370
-1
  6
ByLayer
 10
0.4207
 20
0.9393
 30
0.0
 11
0.4226
 21
0.9431
 31
0.0
  0
LINE
  5
34E
100
AcDbEntity
100
AcDbLine
  8
BLACK
 62
256
370
-1
  6
ByLayer
 10
0.4226
 20
0.9431
 30
0.0
 11
0.4264
 21
0.9469000000000001
 31
0.0
  0
LINE
  5
34F
100
AcDbEntity
100
AcDbLine
  8
BLACK
 62
256
370
-1
  6
ByLayer
 10
0.4264
 20
0.9469000000000001
 30
0.0
 11
0.4322
 21
0.9488000000000001
 31
0.0
  0
LINE
  5
350
100
AcDbEntity
100
AcDbLine
  8
BLACK
 62
256
370
-1
  6
ByLayer
 10
0.4322
 20
0.9488000000000001
 30
0.0
 11
0.436
 21
0.9488000000000001
 31
0.0
  0
LINE
  5
351
100
AcDbEntity
100
AcDbLine
  8
BLACK
 62
256
370
-1
  6
ByLayer
 10
0.436
 20
0.9488000000000001
 30
0.0
 11
0.4417
 21
0.9469000000000001
 31
0.0
  0
LINE
  5
352
100
AcDbEntity
100
AcDbLine
  8
BLACK
 62
256
370
-1
  6
ByLayer
 10
0.4417
 20
0.9469000000000001
 30
0.0
 11
0.4436
 21
0.9450000000000001
 31
0.0
  0
LINE
  5
353
100
AcDbEntity
100
AcDbLine
  8
BLACK
 62
256
370
-1
  6
ByLayer
 10
0.4683
 20
0.9488000000000001
 30
0.0
 11
0.476
 21
0.9488000000000001
 31
0.0
  0
LINE
  5
354
100
AcDbEntity
100
AcDbLine
  8
BLACK
 62
256
370
-1
  6
ByLayer
 10
0.476
 20
0.9488000000000001
 30
0.0
 11
0.4798
 21
0.9469000000000001
 31
0.0
  0
LINE
  5
355
100
AcDbEntity
100
AcDbLine
  8
BLACK
 62
256
370
-1
  6
ByLayer
 10
0.4798
 20
0.9469000000000001
 30
0.0
 11
0.4836
 21
0.9431
 31
0.0
  0
LINE
  5
356
100
AcDbEntity
100
AcDbLine
  8
BLACK
 62
256
370
-1
  6
ByLayer
 10
0.4836
 20
0.9431
 30
0.0
 11
0.4855
 21
0.9355
 31
0.0
  0
LINE
  5
357
100
AcDbEntity
100
AcDbLine
  8
BLACK
 62
256
370
-1
  6
ByLayer
 10
0.4855
 20
0.9355
 30
0.0
 11
0.4855
 21
0.9221
 31
0.0
  0
LINE
  5
358
100
AcDbEntity
100
AcDbLine
  8
BLACK
 62
256
370
-1
  6
ByLayer
 10
0.4855
 20
0.9221
 30
0.0
 11
0.4836
 21
0.9145000000000001
 31
0.0
  0
LINE
  5
359
100
AcDbEntity
100
AcDbLine
  8
BLACK
 62
256
370
-1
  6
ByLayer
 10
0.4836
 20
0.9145000000000001
 30
0.0
 11
0.4798
 21
0.9107000000000001
 31
0.0
  0
LINE
  5
35A
100
AcDbEntity
100
AcDbLine
  8
BLACK
 62
256
370
-1
  6
ByLayer
 10
0.4798
 20
0.9107000000000001
 30
0.0
 11
0.476
 21
0.9088000000000001
 31
0.0
  0
LINE
  5
35B
100
AcDbEntity
100
AcDbLine
  8
BLACK
 62
256
370
-1
  6
ByLayer
 10
0.476
 20
0.9088000000000001
 30
0.0
 11
0.4683
 21
0.9088000000000001
 31
0.0
  0
LINE
  5
35C
100
AcDbEntity
100
AcDbLine
  8
BLACK
 62
256
370
-1
  6
ByLayer
 10
0.4683
 20
0.9088000000000001
 30
0.0
 11
0.4645
 21
0.9107000000000001
 31
0.0
  0
LINE
  5
35D
100
AcDbEntity
100
AcDbLine
  8
BLACK
 62
256
370
-1
  6
ByLayer
 10
0.4645
 20
0.9107000000000001
 30
0.0
 11
0.4607
 21
0.9145000000000001
 31
0.0
  0
LINE
  5
35E
100
AcDbEntity
100
AcDbLine
  8
BLACK
 62
256
370
-1
  6
ByLayer
 10
0.4607
 20
0.9145000000000001
 30
0.0
 11
0.4588
 21
0.9221
 31
0.0
  0
LINE
  5
35F
100
AcDbEntity
100
AcDbLine
  8
BLACK
 62
256
370
-1
  6
ByLayer
 10
0.4588
 20
0.9221
 30
0.0
 11
0.4588
 21
0.9355
 31
0.0
  0
LINE
  5
360
100
AcDbEntity
100
AcDbLine
  8
BLACK
 62
256
370
-1
  6
ByLayer
 10
0.4588
 20
0.9355
 30
0.0
 11
0.4607
 21
0.9431
 31
0.0
  0
LINE
  5
361
100
AcDbEntity
100
AcDbLine
  8
BLACK
 62
256
370
-1
  6
ByLayer
 10
0.4607
 20
0.9431
 30
0.0
 11
0.4645
 21
0.9469000000000001
 31
0.0
  0
LINE
  5
362
100
AcDbEntity
100
AcDbLine
  8
BLACK
 62
256
370
-1
  6
ByLayer
 10
0.4645
 20
0.9469000000000001
 30
0.0
 11
0.4683
 21
0.9488000000000001
 31
0.0
  0
LINE
  5
363
100
AcDbEntity
100
AcDbLine
  8
BLACK
 62
256
370
-1
  6
ByLayer
 10
0.5026
 20
0.9088000000000001
 30
0.0
 11
0.5026
 21
0.9488000000000001
 31
0.0
  0
LINE
  5
364
100
AcDbEntity
100
AcDbLine
  8
BLACK
 62
256
370
-1
  6
ByLayer
 10
0.5026
 20
0.9488000000000001
 30
0.0
 11
0.516
 21
0.9202
 31
0.0
  0
LINE
  5
365
100
AcDbEntity
100
AcDbLine
  8
BLACK
 62
256
370
-1
  6
ByLayer
 10
0.516
 20
0.9202
 30
0.0
 11
0.5293
 21
0.9488000000000001
 31
0.0
  0
LINE
  5
366
100
AcDbEntity
100
AcDbLine
  8
BLACK
 62
256
370
-1
  6
ByLayer
 10
0.5293
 20
0.9488000000000001
 30
0.0
 11
0.5293
 21
0.9088000000000001
 31
0.0
  0
LINE
  5
367
100
AcDbEntity
100
AcDbLine
  8
BLACK
 62
256
370
-1
  6
ByLayer
 10
0.4093
 20
1.5988
 30
0.0
 11
0.4226
 21
1.5588000000000002
 31
0.0
  0
LINE
  5
368
100
AcDbEntity
100
AcDbLine
  8
BLACK
 62
256
370
-1
  6
ByLayer
 10
0.4226
 20
1.5588000000000002
 30
0.0
 11
0.436
 21
1.5988
 31
0.0
  0
LINE
  5
369
100
AcDbEntity
100
AcDbLine
  8
BLACK
 62
256
370
-1
  6
ByLayer
 10
0.4493
 20
1.5588000000000002
 30
0.0
 11
0.4493
 21
1.5855000000000001
 31
0.0
  0
LINE
  5
36A
100
AcDbEntity
100
AcDbLine
  8
BLACK
 62
256
370
-1
  6
ByLayer
 10
0.4493
 20
1.5988
 30
0.0
 11
0.4474
 21
1.5969
 31
0.0
  0
LINE
  5
36B
100
AcDbEntity
100
AcDbLine
  8
BLACK
 62
256
370
-1
  6
ByLayer
 10
0.4474
 20
1.5969
 30
0.0
 11
0.4493
 21
1.595
 31
0.0
  0
LINE
  5
36C
100
AcDbEntity
100
AcDbLine
  8
BLACK
 62
256
370
-1
  6
ByLayer
 10
0.4493
 20
1.595
 30
0.0
 11
0.4512
 21
1.5969
 31
0.0
  0
LINE
  5
36D
100
AcDbEntity
100
AcDbLine
  8
BLACK
 62
256
370
-1
  6
ByLayer
 10
0.4512
 20
1.5969
 30
0.0
 11
0.4493
 21
1.5988
 31
0.0
  0
LINE
  5
36E
100
AcDbEntity
100
AcDbLine
  8
BLACK
 62
256
370
-1
  6
ByLayer
 10
0.4493
 20
1.5988
 30
0.0
 11
0.4493
 21
1.595
 31
0.0
  0
LINE
  5
36F
100
AcDbEntity
100
AcDbLine
  8
BLACK
 62
256
370
-1
  6
ByLayer
 10
0.4683
 20
1.5855000000000001
 30
0.0
 11
0.4683
 21
1.5588000000000002
 31
0.0
  0
LINE
  5
370
100
AcDbEntity
100
AcDbLine
  8
BLACK
 62
256
370
-1
  6
ByLayer
 10
0.4683
 20
1.5817000000000001
 30
0.0
 11
0.4702
 21
1.5836000000000001
 31
0.0
  0
LINE
  5
371
100
AcDbEntity
100
AcDbLine
  8
BLACK
 62
256
370
-1
  6
ByLayer
 10
0.4702
 20
1.5836000000000001
 30
0.0
 11
0.474
 21
1.5855000000000001
 31
0.0
  0
LINE
  5
372
100
AcDbEntity
100
AcDbLine
  8
BLACK
 62
256
370
-1
  6
ByLayer
 10
0.474
 20
1.5855000000000001
 30
0.0
 11
0.4798
 21
1.5855000000000001
 31
0.0
  0
LINE
  5
373
100
AcDbEntity
100
AcDbLine
  8
BLACK
 62
256
370
-1
  6
ByLayer
 10
0.4798
 20
1.5855000000000001
 30
0.0
 11
0.4836
 21
1.5836000000000001
 31
0.0
  0
LINE
  5
374
100
AcDbEntity
100
AcDbLine
  8
BLACK
 62
256
370
-1
  6
ByLayer
 10
0.4836
 20
1.5836000000000001
 30
0.0
 11
0.4855
 21
1.5798000000000001
 31
0.0
  0
LINE
  5
375
100
AcDbEntity
100
AcDbLine
  8
BLACK
 62
256
370
-1
  6
ByLayer
 10
0.4855
 20
1.5798000000000001
 30
0.0
 11
0.4855
 21
1.5588000000000002
 31
0.0
  0
LINE
  5
376
100
AcDbEntity
100
AcDbLine
  8
BLACK
 62
256
370
-1
  6
ByLayer
 10
0.5045000000000001
 20
1.5740000000000001
 30
0.0
 11
0.535
 21
1.5740000000000001
 31
0.0
  0
LINE
  5
377
100
AcDbEntity
100
AcDbLine
  8
BLACK
 62
256
370
-1
  6
ByLayer
 10
0.7343000000000001
 20
1.5988
 30
0.0
 11
0.7476
 21
1.5588000000000002
 31
0.0
  0
LINE
  5
378
100
AcDbEntity
100
AcDbLine
  8
BLACK
 62
256
370
-1
  6
ByLayer
 10
0.7476
 20
1.5588000000000002
 30
0.0
 11
0.761
 21
1.5988
 31
0.0
  0
LINE
  5
379
100
AcDbEntity
100
AcDbLine
  8
BLACK
 62
256
370
-1
  6
ByLayer
 10
0.7743
 20
1.5588000000000002
 30
0.0
 11
0.7743
 21
1.5855000000000001
 31
0.0
  0
LINE
  5
37A
100
AcDbEntity
100
AcDbLine
  8
BLACK
 62
256
370
-1
  6
ByLayer
 10
0.7743
 20
1.5988
 30
0.0
 11
0.7724000000000001
 21
1.5969
 31
0.0
  0
LINE
  5
37B
100
AcDbEntity
100
AcDbLine
  8
BLACK
 62
256
370
-1
  6
ByLayer
 10
0.7724000000000001
 20
1.5969
 30
0.0
 11
0.7743
 21
1.595
 31
0.0
  0
LINE
  5
37C
100
AcDbEntity
100
AcDbLine
  8
BLACK
 62
256
370
-1
  6
ByLayer
 10
0.7743
 20
1.595
 30
0.0
 11
0.7762
 21
1.5969
 31
0.0
  0
LINE
  5
37D
100
AcDbEntity
100
AcDbLine
  8
BLACK
 62
256
370
-1
  6
ByLayer
 10
0.7762
 20
1.5969
 30
0.0
 11
0.7743
 21
1.5988
 31
0.0
  0
LINE
  5
37E
100
AcDbEntity
100
AcDbLine
  8
BLACK
 62
256
370
-1
  6
ByLayer
 10
0.7743
 20
1.5988
 30
0.0
 11
0.7743
 21
1.595
 31
0.0
  0
LINE
  5
37F
100
AcDbEntity
100
AcDbLine
  8
BLACK
 62
256
370
-1
  6
ByLayer
 10
0.7933
 20
1.5855000000000001
 30
0.0
 11
0.7933
 21
1.5588000000000002
 31
0.0
  0
LINE
  5
380
100
AcDbEntity
100
AcDbLine
  8
BLACK
 62
256
370
-1
  6
ByLayer
 10
0.7933
 20
1.5817000000000001
 30
0.0
 11
0.7952
 21
1.5836000000000001
 31
0.0
  0
LINE
  5
381
100
AcDbEntity
100
AcDbLine
  8
BLACK
 62
256
370
-1
  6
ByLayer
 10
0.7952
 20
1.5836000000000001
 30
0.0
 11
0.799
 21
1.5855000000000001
 31
0.0
  0
LINE
  5
382
100
AcDbEntity
100
AcDbLine
  8
BLACK
 62
256
370
-1
  6
ByLayer
 10
0.799
 20
1.5855000000000001
 30
0.0
 11
0.8048000000000001
 21
1.5855000000000001
 31
0.0
  0
LINE
  5
383
100
AcDbEntity
100
AcDbLine
  8
BLACK
 62
256
370
-1
  6
ByLayer
 10
0.8048000000000001
 20
1.5855000000000001
 30
0.0
 11
0.8086
 21
1.5836000000000001
 31
0.0
  0
LINE
  5
384
100
AcDbEntity
100
AcDbLine
  8
BLACK
 62
256
370
-1
  6
ByLayer
 10
0.8086
 20
1.5836000000000001
 30
0.0
 11
0.8105
 21
1.5798000000000001
 31
0.0
  0
LINE
  5
385
100
AcDbEntity
100
AcDbLine
  8
BLACK
 62
256
370
-1
  6
ByLayer
 10
0.8105
 20
1.5798000000000001
 30
0.0
 11
0.8105
 21
1.5588000000000002
 31
0.0
  0
LINE
  5
386
100
AcDbEntity
100
AcDbLine
  8
BLACK
 62
256
370
-1
  6
ByLayer
 10
0.8295
 20
1.5740000000000001
 30
0.0
 11
0.86
 21
1.5740000000000001
 31
0.0
  0
LINE
  5
387
100
AcDbEntity
100
AcDbLine
  8
BLACK
 62
256
370
-1
  6
ByLayer
 10
0.8448
 20
1.5588000000000002
 30
0.0
 11
0.8448
 21
1.5893000000000002
 31
0.0
  0
ENDSEC
  0
SECTION
  2
OBJECTS
  0
DICTIONARY
  5
C
100
AcDbDictionary
280
0
281
1
  3
ACAD_GROUP
350
D
  3
ACAD_LAYOUT
350
1A
  3
ACAD_MLINESTYLE
350
17
  3
ACAD_PLOTSETTINGS
350
19
  3
ACAD_PLOTSTYLENAME
350
E
  3
AcDbVariableDictionary
350
388
  0
DICTIONARY
  5
D
100
AcDbDictionary
280
0
281
1
  0
ACDBDICTIONARYWDFLT
  5
E
100
AcDbDictionary
281
1
  3
Normal
350
F
100
AcDbDictionaryWithDefault
340
F
  0
ACDBPLACEHOLDER
  5
F
  0
DICTIONARY
  5
17
100
AcDbDictionary
280
0
281
1
  3
Standard
350
18
  0
MLINESTYLE
  5
18
100
AcDbMlineStyle
  2
STANDARD
 70
0
  3

 62
256
 51
90.0
 52
90.0
 71
2
 49
0.5
 62
256
  6
BYLAYER
 49
-0.5
 62
256
  6
BYLAYER
  0
DICTIONARY
  5
19
100
AcDbDictionary
280
0
281
1
  0
DICTIONARY
  5
1A
100
AcDbDictionary
281
1
  3
Layout1
350
1E
  3
Layout2
350
26
  3
Model
350
22
  0
LAYOUT
  5
1E
100
AcDbPlotSettings
  1

  2
C:\Program Files\AutoCAD 2002\plotters\DWF ePlot (optimized for plotting).pc3
  4

  6

 40
0.0
 41
0.0
 42
0.0
 43
0.0
 44
0.0
 45
0.0
 46
0.0
 47
0.0
 48
0.0
 49
0.0
140
0.0
141
0.0
142
1.0
143
1.0
 70
688
 72
0
 73
0
 74
5
  7

 75
16
147
1.0
148
0.0
149
0.0
100
AcDbLayout
  1
Layout1
 70
1
 71
1
 10
0.0
 20
0.0
 11
420.0
 21
297.0
 12
0.0
 22
0.0
 32
0.0
 14
100000000000000000000.0
 24
100000000000000000000.0
 34
100000000000000000000.0
 15
-100000000000000000000.0
 25
-100000000000000000000.0
 35
-100000000000000000000.0
146
0.0
 13
0.0
 23
0.0
 33
0.0
 16
1.0
 26
0.0
 36
0.0
 17
0.0
 27
1.0
 37
0.0
 76
0
330
1B
  0
LAYOUT
  5
22
100
AcDbPlotSettings
  1

  2
C:\Program Files\AutoCAD 2002\plotters\DWF ePlot (optimized for plotting).pc3
  4

  6

 40
0.0
 41
0.0
 42
0.0
 43
0.0
 44
0.0
 45
0.0
 46
0.0
 47
0.0
 48
0.0
 49
0.0
140
0.0
141
0.0
142
1.0
143
1.0
 70
1712
 72
0
 73
0
 74
0
  7

 75
0
147
1.0
148
0.0
149
0.0
100
AcDbLayout
  1
Model
 70
1
 71
0
 10
0.0
 20
0.0
 11
12.0
 21
9.0
 12
0.0
 22
0.0
 32
0.0
 14
0.0
 24
0.0
 34
0.0
 15
0.0
 25
0.0
 35
0.0
146
0.0
 13
0.0
 23
0.0
 33
0.0
 16
1.0
 26
0.0
 36
0.0
 17
0.0
 27
1.0
 37
0.0
 76
0
330
1F
  0
LAYOUT
  5
26
100
AcDbPlotSettings
  1

  2
C:\Program Files\AutoCAD 2002\plotters\DWF ePlot (optimized for plotting).pc3
  4

  6

 40
0.0
 41
0.0
 42
0.0
 43
0.0
 44
0.0
 45
0.0
 46
0.0
 47
0.0
 48
0.0
 49
0.0
140
0.0
141
0.0
142
1.0
143
1.0
 70
688
 72
0
 73
0
 74
5
  7

 75
16
147
1.0
148
0.0
149
0.0
100
AcDbLayout
  1
Layout2
 70
1
 71
2
 10
0.0
 20
0.0
 11
12.0
 21
9.0
 12
0.0
 22
0.0
 32
0.0
 14
0.0
 24
0.0
 34
0.0
 15
0.0
 25
0.0
 35
0.0
146
0.0
 13
0.0
 23
0.0
 33
0.0
 16
1.0
 26
0.0
 36
0.0
 17
0.0
 27
1.0
 37
0.0
 76
0
330
23
  0
DICTIONARY
  5
388
100
AcDbDictionary
281
1
  3
DIMASSOC
350
38A
  3
HIDETEXT
350
389
  0
DICTIONARYVAR
  5
389
100
DictionaryVariables
280
0
  1
2
  0
DICTIONARYVAR
  5
38A
100
DictionaryVariables
280
0
  1
1
  0
ENDSEC
  0
EOF
