G04 (created by PCBnew (20090216-final)) date Mon 26 Oct 2009 16:49:24 PDT*
G01*
G70*
G90*
%MOIN*%
G04 Gerber Fmt 3.4, Leading zero omitted, Abs format*
%FSLAX34Y34*%
G04 APERTURE LIST*
%ADD10C,0.009000*%
%ADD11R,0.060000X0.060000*%
%ADD12C,0.060000*%
%ADD13R,0.035000X0.055000*%
%ADD14R,0.060000X0.025000*%
%ADD15C,0.122000*%
%ADD16C,0.066000*%
%ADD17R,0.066000X0.066000*%
%ADD18C,0.107000*%
%ADD19C,0.056000*%
%ADD20R,0.056000X0.056000*%
%ADD21C,0.045000*%
%ADD22C,0.018000*%
%ADD23C,0.010000*%
G04 APERTURE END LIST*
G54D10*
X51250Y-35000D02*
X51250Y-50000D01*
X58750Y-35000D02*
X51250Y-35000D01*
X58750Y-50000D02*
X58750Y-35000D01*
X51250Y-50000D02*
X58750Y-50000D01*
G54D11*
X56500Y-38660D03*
G54D12*
X56500Y-37660D03*
X56500Y-36660D03*
X56500Y-35660D03*
X53500Y-35660D03*
X53500Y-36660D03*
X53500Y-37660D03*
X53500Y-38660D03*
X58050Y-45000D03*
X58050Y-44000D03*
X58050Y-42000D03*
X58050Y-41000D03*
X58050Y-39000D03*
X58050Y-38000D03*
G54D13*
X55375Y-37950D03*
X54625Y-37950D03*
X55375Y-36050D03*
X54625Y-36050D03*
X52575Y-43800D03*
X51825Y-43800D03*
G54D14*
X57000Y-39530D03*
X57000Y-40030D03*
X57000Y-40530D03*
X57000Y-41030D03*
X57000Y-41530D03*
X57000Y-42030D03*
X57000Y-42530D03*
X57000Y-43030D03*
X53000Y-43030D03*
X53000Y-42530D03*
X53000Y-42030D03*
X53000Y-41530D03*
X53000Y-41030D03*
X53000Y-40530D03*
X53000Y-40030D03*
X53000Y-39530D03*
G54D15*
X52188Y-36150D03*
X57813Y-36150D03*
G54D13*
X56875Y-45300D03*
X56125Y-45300D03*
X53875Y-45300D03*
X53125Y-45300D03*
G54D16*
X55000Y-44940D03*
X56000Y-43940D03*
G54D17*
X54000Y-43940D03*
G54D18*
X52480Y-48930D03*
X57520Y-48930D03*
G54D19*
X53230Y-47010D03*
X56770Y-47010D03*
X53935Y-47010D03*
G54D20*
X56065Y-47010D03*
G54D18*
X55000Y-48660D03*
G54D21*
X55920Y-40560D03*
X55805Y-38488D03*
X55468Y-42030D03*
X57651Y-42874D03*
X57309Y-37702D03*
X53658Y-40757D03*
X52726Y-37895D03*
X54418Y-42623D03*
X52123Y-41030D03*
G54D22*
X56065Y-47010D02*
X55592Y-47010D01*
X53875Y-45300D02*
X54263Y-45300D01*
X55592Y-46629D02*
X54263Y-45300D01*
X55592Y-47010D02*
X55592Y-46629D01*
X56390Y-39153D02*
X53513Y-42030D01*
X56500Y-39153D02*
X56390Y-39153D01*
X56500Y-38660D02*
X56500Y-39153D01*
X53000Y-42030D02*
X53513Y-42030D01*
X56770Y-45945D02*
X56770Y-47010D01*
X56125Y-45300D02*
X56770Y-45945D01*
X55483Y-40560D02*
X53513Y-42530D01*
X55920Y-40560D02*
X55483Y-40560D01*
X53000Y-42530D02*
X53513Y-42530D01*
X58050Y-37813D02*
X58050Y-38000D01*
X56993Y-36756D02*
X58050Y-37813D01*
X56993Y-36385D02*
X56993Y-36756D01*
X56768Y-36160D02*
X56993Y-36385D01*
X56302Y-36160D02*
X56768Y-36160D01*
X55703Y-35561D02*
X56302Y-36160D01*
X53599Y-35561D02*
X55703Y-35561D01*
X53500Y-35660D02*
X53599Y-35561D01*
X53500Y-37660D02*
X53500Y-36660D01*
X57000Y-40030D02*
X57513Y-40030D01*
X57513Y-38787D02*
X57513Y-40030D01*
X56892Y-38166D02*
X57513Y-38787D01*
X56033Y-38166D02*
X56892Y-38166D01*
X55805Y-38394D02*
X56033Y-38166D01*
X55805Y-38488D02*
X55805Y-38394D01*
X52969Y-39191D02*
X53500Y-38660D01*
X52613Y-39191D02*
X52969Y-39191D01*
X52487Y-39317D02*
X52613Y-39191D01*
X52487Y-40030D02*
X52487Y-39317D01*
X53000Y-40030D02*
X52487Y-40030D01*
X53000Y-40030D02*
X53513Y-40030D01*
X53607Y-40124D02*
X53513Y-40030D01*
X54169Y-40124D02*
X53607Y-40124D01*
X54169Y-40124D02*
X55805Y-38488D01*
X53000Y-41530D02*
X53513Y-41530D01*
X54169Y-40874D02*
X53513Y-41530D01*
X54169Y-40124D02*
X54169Y-40874D01*
X57263Y-47223D02*
X57263Y-45300D01*
X56863Y-47623D02*
X57263Y-47223D01*
X54548Y-47623D02*
X56863Y-47623D01*
X53935Y-47010D02*
X54548Y-47623D01*
X56875Y-45300D02*
X57263Y-45300D01*
X57563Y-45000D02*
X57263Y-45300D01*
X58050Y-45000D02*
X57563Y-45000D01*
X53125Y-46200D02*
X53935Y-47010D01*
X53125Y-45300D02*
X53125Y-46200D01*
X52737Y-44712D02*
X51825Y-43800D01*
X52737Y-45300D02*
X52737Y-44712D01*
X53125Y-45300D02*
X52737Y-45300D01*
X57404Y-42530D02*
X57000Y-42530D01*
X57934Y-42000D02*
X57404Y-42530D01*
X58050Y-42000D02*
X57934Y-42000D01*
X56388Y-42530D02*
X57000Y-42530D01*
X55000Y-43918D02*
X56388Y-42530D01*
X55000Y-44940D02*
X55000Y-43918D01*
X57000Y-42030D02*
X55468Y-42030D01*
X53795Y-39530D02*
X55375Y-37950D01*
X53000Y-39530D02*
X53795Y-39530D01*
X57513Y-43012D02*
X57651Y-42874D01*
X57513Y-43030D02*
X57513Y-43012D01*
X57000Y-43030D02*
X57513Y-43030D01*
X56767Y-37160D02*
X57309Y-37702D01*
X55415Y-37160D02*
X56767Y-37160D01*
X54625Y-37950D02*
X55415Y-37160D01*
X53000Y-43030D02*
X52487Y-43030D01*
X53994Y-37431D02*
X55375Y-36050D01*
X53994Y-38109D02*
X53994Y-37431D01*
X53943Y-38160D02*
X53994Y-38109D01*
X53260Y-38160D02*
X53943Y-38160D01*
X53026Y-38394D02*
X53260Y-38160D01*
X52775Y-38394D02*
X53026Y-38394D01*
X51544Y-39625D02*
X52775Y-38394D01*
X51544Y-42087D02*
X51544Y-39625D01*
X52487Y-43030D02*
X51544Y-42087D01*
X53513Y-40612D02*
X53658Y-40757D01*
X53513Y-40530D02*
X53513Y-40612D01*
X53000Y-40530D02*
X53513Y-40530D01*
X54625Y-36050D02*
X54237Y-36050D01*
X52998Y-37623D02*
X52726Y-37895D01*
X52998Y-36211D02*
X52998Y-37623D01*
X53049Y-36160D02*
X52998Y-36211D01*
X54127Y-36160D02*
X53049Y-36160D01*
X54237Y-36050D02*
X54127Y-36160D01*
X54418Y-42489D02*
X54418Y-42623D01*
X55377Y-41530D02*
X54418Y-42489D01*
X57000Y-41530D02*
X55377Y-41530D01*
X53045Y-43800D02*
X52575Y-43800D01*
X53526Y-43319D02*
X53045Y-43800D01*
X53526Y-42918D02*
X53526Y-43319D01*
X55414Y-41030D02*
X53526Y-42918D01*
X57000Y-41030D02*
X55414Y-41030D01*
X53000Y-41030D02*
X52123Y-41030D01*
G54D23*
X53348Y-36740D02*
X53349Y-36740D01*
X53429Y-36660D02*
X53571Y-36660D01*
X53427Y-36660D02*
X53428Y-36660D01*
X53509Y-36580D02*
X53509Y-36580D01*
X53589Y-36500D02*
X53589Y-36500D01*
X53516Y-37747D02*
X53654Y-37747D01*
X53341Y-37747D02*
X53342Y-37747D01*
X53436Y-37667D02*
X53578Y-37667D01*
X53420Y-37667D02*
X53421Y-37667D01*
X53502Y-37587D02*
X53502Y-37587D01*
X53498Y-37587D02*
X53498Y-37587D01*
X53582Y-37507D02*
X53582Y-37507D01*
X53418Y-37507D02*
X53418Y-37507D01*
X53338Y-37427D02*
X53338Y-37427D01*
X57526Y-40800D02*
X57539Y-40800D01*
X57542Y-40720D02*
X57572Y-40720D01*
X58466Y-40640D02*
X58505Y-40640D01*
X57549Y-40640D02*
X57634Y-40640D01*
X56395Y-40640D02*
X56451Y-40640D01*
X58386Y-40560D02*
X58505Y-40560D01*
X57549Y-40560D02*
X57714Y-40560D01*
X56395Y-40560D02*
X56451Y-40560D01*
X58229Y-40480D02*
X58505Y-40480D01*
X57549Y-40480D02*
X57872Y-40480D01*
X56395Y-40480D02*
X56451Y-40480D01*
X57549Y-40400D02*
X58505Y-40400D01*
X56368Y-40400D02*
X56451Y-40400D01*
X57534Y-40320D02*
X58505Y-40320D01*
X56335Y-40320D02*
X56466Y-40320D01*
X57534Y-40240D02*
X58505Y-40240D01*
X56272Y-40240D02*
X56465Y-40240D01*
X57549Y-40160D02*
X58505Y-40160D01*
X56192Y-40160D02*
X56450Y-40160D01*
X57488Y-40080D02*
X58505Y-40080D01*
X56950Y-40080D02*
X57050Y-40080D01*
X55943Y-40080D02*
X56512Y-40080D01*
X56023Y-40000D02*
X58505Y-40000D01*
X57548Y-39920D02*
X58505Y-39920D01*
X56103Y-39920D02*
X56452Y-39920D01*
X57543Y-39840D02*
X58505Y-39840D01*
X56183Y-39840D02*
X56458Y-39840D01*
X57525Y-39760D02*
X58505Y-39760D01*
X56263Y-39760D02*
X56474Y-39760D01*
X57549Y-39680D02*
X58505Y-39680D01*
X56343Y-39680D02*
X56451Y-39680D01*
X57549Y-39600D02*
X58505Y-39600D01*
X56423Y-39600D02*
X56451Y-39600D01*
X58228Y-39520D02*
X58505Y-39520D01*
X57549Y-39520D02*
X57871Y-39520D01*
X58386Y-39440D02*
X58505Y-39440D01*
X57549Y-39440D02*
X57714Y-39440D01*
X58466Y-39360D02*
X58505Y-39360D01*
X57549Y-39360D02*
X57634Y-39360D01*
X57518Y-39280D02*
X57572Y-39280D01*
X57447Y-39200D02*
X57538Y-39200D01*
X56991Y-39120D02*
X57505Y-39120D01*
X57036Y-39040D02*
X57501Y-39040D01*
X57049Y-38960D02*
X57501Y-38960D01*
X57049Y-38880D02*
X57506Y-38880D01*
X57049Y-38800D02*
X57539Y-38800D01*
X57049Y-38720D02*
X57573Y-38720D01*
X57049Y-38640D02*
X57634Y-38640D01*
X57049Y-38560D02*
X57714Y-38560D01*
X57049Y-38480D02*
X57776Y-38480D01*
X57049Y-38400D02*
X57674Y-38400D01*
X57049Y-38320D02*
X57594Y-38320D01*
X57020Y-38240D02*
X57555Y-38240D01*
X57443Y-38160D02*
X57521Y-38160D01*
X56952Y-38160D02*
X57173Y-38160D01*
X56855Y-38080D02*
X57015Y-38080D01*
X56935Y-38000D02*
X56935Y-38000D01*
X54095Y-40940D02*
X54121Y-40940D01*
X54129Y-40860D02*
X54201Y-40860D01*
X54133Y-40780D02*
X54281Y-40780D01*
X54133Y-40700D02*
X54361Y-40700D01*
X54116Y-40620D02*
X54441Y-40620D01*
X52373Y-40620D02*
X52451Y-40620D01*
X54083Y-40540D02*
X54521Y-40540D01*
X51884Y-40540D02*
X52451Y-40540D01*
X54033Y-40460D02*
X54601Y-40460D01*
X51884Y-40460D02*
X52451Y-40460D01*
X53953Y-40380D02*
X54681Y-40380D01*
X51884Y-40380D02*
X52451Y-40380D01*
X53796Y-40300D02*
X54761Y-40300D01*
X51884Y-40300D02*
X52474Y-40300D01*
X53649Y-40220D02*
X54841Y-40220D01*
X51884Y-40220D02*
X52457Y-40220D01*
X53548Y-40140D02*
X54921Y-40140D01*
X51884Y-40140D02*
X52452Y-40140D01*
X51884Y-40060D02*
X55001Y-40060D01*
X51884Y-39980D02*
X55081Y-39980D01*
X53550Y-39900D02*
X55161Y-39900D01*
X51884Y-39900D02*
X52451Y-39900D01*
X53960Y-39820D02*
X55241Y-39820D01*
X51884Y-39820D02*
X52466Y-39820D01*
X54065Y-39740D02*
X55321Y-39740D01*
X51909Y-39740D02*
X52465Y-39740D01*
X54145Y-39660D02*
X55401Y-39660D01*
X51989Y-39660D02*
X52451Y-39660D01*
X54225Y-39580D02*
X55481Y-39580D01*
X52069Y-39580D02*
X52451Y-39580D01*
X54305Y-39500D02*
X55561Y-39500D01*
X52149Y-39500D02*
X52451Y-39500D01*
X54385Y-39420D02*
X55641Y-39420D01*
X52229Y-39420D02*
X52451Y-39420D01*
X54465Y-39340D02*
X55721Y-39340D01*
X52309Y-39340D02*
X52458Y-39340D01*
X54545Y-39260D02*
X55801Y-39260D01*
X52389Y-39260D02*
X52493Y-39260D01*
X54625Y-39180D02*
X55881Y-39180D01*
X52469Y-39180D02*
X52593Y-39180D01*
X54705Y-39100D02*
X55961Y-39100D01*
X52549Y-39100D02*
X53209Y-39100D01*
X54785Y-39020D02*
X55955Y-39020D01*
X53789Y-39020D02*
X53789Y-39020D01*
X52629Y-39020D02*
X53211Y-39020D01*
X54865Y-38940D02*
X55951Y-38940D01*
X53851Y-38940D02*
X53851Y-38940D01*
X53709Y-38940D02*
X53709Y-38940D01*
X53149Y-38940D02*
X53291Y-38940D01*
X52709Y-38940D02*
X53027Y-38940D01*
X54945Y-38860D02*
X55951Y-38860D01*
X53771Y-38860D02*
X53771Y-38860D01*
X53629Y-38860D02*
X53629Y-38860D01*
X53229Y-38860D02*
X53371Y-38860D01*
X52789Y-38860D02*
X52994Y-38860D01*
X55025Y-38780D02*
X55951Y-38780D01*
X53691Y-38780D02*
X53691Y-38780D01*
X53549Y-38780D02*
X53549Y-38780D01*
X53309Y-38780D02*
X53451Y-38780D01*
X52869Y-38780D02*
X52967Y-38780D01*
X55105Y-38700D02*
X55951Y-38700D01*
X53611Y-38700D02*
X53611Y-38700D01*
X53389Y-38700D02*
X53531Y-38700D01*
X55185Y-38620D02*
X55951Y-38620D01*
X53469Y-38620D02*
X53611Y-38620D01*
X53389Y-38620D02*
X53389Y-38620D01*
X55265Y-38540D02*
X55951Y-38540D01*
X53549Y-38540D02*
X53691Y-38540D01*
X55632Y-38460D02*
X55951Y-38460D01*
X55747Y-38380D02*
X55951Y-38380D01*
X55788Y-38300D02*
X55956Y-38300D01*
X55799Y-38220D02*
X55989Y-38220D01*
X55799Y-38140D02*
X56081Y-38140D01*
X55799Y-38060D02*
X56124Y-38060D01*
X55799Y-37980D02*
X56044Y-37980D01*
X55799Y-37900D02*
X56005Y-37900D01*
X55799Y-37820D02*
X55972Y-37820D01*
X55799Y-37740D02*
X55951Y-37740D01*
X55799Y-37660D02*
X55951Y-37660D01*
X55780Y-37580D02*
X55951Y-37580D01*
X55727Y-37500D02*
X55972Y-37500D01*
X52394Y-42456D02*
X52451Y-42456D01*
X52314Y-42376D02*
X52451Y-42376D01*
X52234Y-42296D02*
X52476Y-42296D01*
X52154Y-42216D02*
X52455Y-42216D01*
X52074Y-42136D02*
X52451Y-42136D01*
X51994Y-42056D02*
X52451Y-42056D01*
X51914Y-41976D02*
X52451Y-41976D01*
X51884Y-41896D02*
X52451Y-41896D01*
X51884Y-41816D02*
X52468Y-41816D01*
X51884Y-41736D02*
X52463Y-41736D01*
X51884Y-41656D02*
X52450Y-41656D01*
X51884Y-41576D02*
X53485Y-41576D01*
X52238Y-41496D02*
X53565Y-41496D01*
X51884Y-41496D02*
X52006Y-41496D01*
X53550Y-41416D02*
X53645Y-41416D01*
X52408Y-41416D02*
X52450Y-41416D01*
X53541Y-41336D02*
X53725Y-41336D01*
X53526Y-41256D02*
X53805Y-41256D01*
X53885Y-41176D02*
X53885Y-41176D01*
X51495Y-49750D02*
X58505Y-49750D01*
X57784Y-49670D02*
X58505Y-49670D01*
X52744Y-49670D02*
X57255Y-49670D01*
X51495Y-49670D02*
X52215Y-49670D01*
X57970Y-49590D02*
X58505Y-49590D01*
X52930Y-49590D02*
X57070Y-49590D01*
X51495Y-49590D02*
X52030Y-49590D01*
X58050Y-49510D02*
X58505Y-49510D01*
X53010Y-49510D02*
X56990Y-49510D01*
X51495Y-49510D02*
X51950Y-49510D01*
X58130Y-49430D02*
X58505Y-49430D01*
X55191Y-49430D02*
X56910Y-49430D01*
X53090Y-49430D02*
X54807Y-49430D01*
X51495Y-49430D02*
X51870Y-49430D01*
X58195Y-49350D02*
X58505Y-49350D01*
X55385Y-49350D02*
X56844Y-49350D01*
X53155Y-49350D02*
X54615Y-49350D01*
X51495Y-49350D02*
X51804Y-49350D01*
X58228Y-49270D02*
X58505Y-49270D01*
X55500Y-49270D02*
X56811Y-49270D01*
X53188Y-49270D02*
X54500Y-49270D01*
X51495Y-49270D02*
X51771Y-49270D01*
X58262Y-49190D02*
X58505Y-49190D01*
X55580Y-49190D02*
X56778Y-49190D01*
X53222Y-49190D02*
X54420Y-49190D01*
X51495Y-49190D02*
X51738Y-49190D01*
X58295Y-49110D02*
X58505Y-49110D01*
X55660Y-49110D02*
X56745Y-49110D01*
X53255Y-49110D02*
X54340Y-49110D01*
X51495Y-49110D02*
X51705Y-49110D01*
X58305Y-49030D02*
X58505Y-49030D01*
X55696Y-49030D02*
X56735Y-49030D01*
X53265Y-49030D02*
X54303Y-49030D01*
X51495Y-49030D02*
X51695Y-49030D01*
X58305Y-48950D02*
X58505Y-48950D01*
X55729Y-48950D02*
X56735Y-48950D01*
X53265Y-48950D02*
X54270Y-48950D01*
X51495Y-48950D02*
X51695Y-48950D01*
X58305Y-48870D02*
X58505Y-48870D01*
X55762Y-48870D02*
X56735Y-48870D01*
X53265Y-48870D02*
X54237Y-48870D01*
X51495Y-48870D02*
X51695Y-48870D01*
X58305Y-48790D02*
X58505Y-48790D01*
X55785Y-48790D02*
X56735Y-48790D01*
X53265Y-48790D02*
X54215Y-48790D01*
X51495Y-48790D02*
X51695Y-48790D01*
X58279Y-48710D02*
X58505Y-48710D01*
X55785Y-48710D02*
X56762Y-48710D01*
X53239Y-48710D02*
X54215Y-48710D01*
X51495Y-48710D02*
X51722Y-48710D01*
X58246Y-48630D02*
X58505Y-48630D01*
X55785Y-48630D02*
X56795Y-48630D01*
X53206Y-48630D02*
X54215Y-48630D01*
X51495Y-48630D02*
X51755Y-48630D01*
X58213Y-48550D02*
X58505Y-48550D01*
X55785Y-48550D02*
X56828Y-48550D01*
X53173Y-48550D02*
X54215Y-48550D01*
X51495Y-48550D02*
X51788Y-48550D01*
X58171Y-48470D02*
X58505Y-48470D01*
X55771Y-48470D02*
X56870Y-48470D01*
X53130Y-48470D02*
X54229Y-48470D01*
X51495Y-48470D02*
X51830Y-48470D01*
X58091Y-48390D02*
X58505Y-48390D01*
X55738Y-48390D02*
X56950Y-48390D01*
X53050Y-48390D02*
X54262Y-48390D01*
X51495Y-48390D02*
X51910Y-48390D01*
X58011Y-48310D02*
X58505Y-48310D01*
X55705Y-48310D02*
X57030Y-48310D01*
X52970Y-48310D02*
X54296Y-48310D01*
X51495Y-48310D02*
X51990Y-48310D01*
X57881Y-48230D02*
X58505Y-48230D01*
X55672Y-48230D02*
X57159Y-48230D01*
X52841Y-48230D02*
X54329Y-48230D01*
X51495Y-48230D02*
X52119Y-48230D01*
X57689Y-48150D02*
X58505Y-48150D01*
X55600Y-48150D02*
X57353Y-48150D01*
X52649Y-48150D02*
X54400Y-48150D01*
X51495Y-48150D02*
X52313Y-48150D01*
X55520Y-48070D02*
X58505Y-48070D01*
X51495Y-48070D02*
X54480Y-48070D01*
X55433Y-47990D02*
X58505Y-47990D01*
X51495Y-47990D02*
X54566Y-47990D01*
X55241Y-47910D02*
X58505Y-47910D01*
X51495Y-47910D02*
X54760Y-47910D01*
X51495Y-47830D02*
X58505Y-47830D01*
X51495Y-47750D02*
X58505Y-47750D01*
X51495Y-47670D02*
X58505Y-47670D01*
X51495Y-47590D02*
X58505Y-47590D01*
X56947Y-47510D02*
X58505Y-47510D01*
X56464Y-47510D02*
X56591Y-47510D01*
X54098Y-47510D02*
X55665Y-47510D01*
X53407Y-47510D02*
X53792Y-47510D01*
X51495Y-47510D02*
X53051Y-47510D01*
X57099Y-47430D02*
X58505Y-47430D01*
X54213Y-47430D02*
X55573Y-47430D01*
X53558Y-47430D02*
X53656Y-47430D01*
X51495Y-47430D02*
X52900Y-47430D01*
X57179Y-47350D02*
X58505Y-47350D01*
X54204Y-47350D02*
X55540Y-47350D01*
X51495Y-47350D02*
X52820Y-47350D01*
X57236Y-47270D02*
X58505Y-47270D01*
X54394Y-47270D02*
X55381Y-47270D01*
X54124Y-47270D02*
X54266Y-47270D01*
X51495Y-47270D02*
X52764Y-47270D01*
X57269Y-47190D02*
X58505Y-47190D01*
X54422Y-47190D02*
X55311Y-47190D01*
X54044Y-47190D02*
X54186Y-47190D01*
X51495Y-47190D02*
X52731Y-47190D01*
X57300Y-47110D02*
X58505Y-47110D01*
X54449Y-47110D02*
X55272Y-47110D01*
X53964Y-47110D02*
X54106Y-47110D01*
X51495Y-47110D02*
X52700Y-47110D01*
X57300Y-47030D02*
X58505Y-47030D01*
X54457Y-47030D02*
X55256Y-47030D01*
X53884Y-47030D02*
X54026Y-47030D01*
X51495Y-47030D02*
X52700Y-47030D01*
X57300Y-46950D02*
X58505Y-46950D01*
X54452Y-46950D02*
X55252Y-46950D01*
X53924Y-46950D02*
X54066Y-46950D01*
X51495Y-46950D02*
X52700Y-46950D01*
X57286Y-46870D02*
X58505Y-46870D01*
X54445Y-46870D02*
X55252Y-46870D01*
X54004Y-46870D02*
X54146Y-46870D01*
X51495Y-46870D02*
X52715Y-46870D01*
X57253Y-46790D02*
X58505Y-46790D01*
X54412Y-46790D02*
X55252Y-46790D01*
X54084Y-46790D02*
X54226Y-46790D01*
X51495Y-46790D02*
X52748Y-46790D01*
X57219Y-46710D02*
X58505Y-46710D01*
X54164Y-46710D02*
X55192Y-46710D01*
X51495Y-46710D02*
X52781Y-46710D01*
X57140Y-46630D02*
X58505Y-46630D01*
X54224Y-46630D02*
X55112Y-46630D01*
X53626Y-46630D02*
X53647Y-46630D01*
X53600Y-46630D02*
X53624Y-46630D01*
X51495Y-46630D02*
X52861Y-46630D01*
X57110Y-46550D02*
X58505Y-46550D01*
X54193Y-46550D02*
X55032Y-46550D01*
X53505Y-46550D02*
X53676Y-46550D01*
X51495Y-46550D02*
X52957Y-46550D01*
X57110Y-46470D02*
X58505Y-46470D01*
X55887Y-46470D02*
X56430Y-46470D01*
X51495Y-46470D02*
X54952Y-46470D01*
X57110Y-46390D02*
X58505Y-46390D01*
X55834Y-46390D02*
X56430Y-46390D01*
X51495Y-46390D02*
X54872Y-46390D01*
X57110Y-46310D02*
X58505Y-46310D01*
X55754Y-46310D02*
X56430Y-46310D01*
X51495Y-46310D02*
X54792Y-46310D01*
X57110Y-46230D02*
X58505Y-46230D01*
X55674Y-46230D02*
X56430Y-46230D01*
X51495Y-46230D02*
X54712Y-46230D01*
X57110Y-46150D02*
X58505Y-46150D01*
X55594Y-46150D02*
X56430Y-46150D01*
X51495Y-46150D02*
X54632Y-46150D01*
X57110Y-46070D02*
X58505Y-46070D01*
X55514Y-46070D02*
X56414Y-46070D01*
X51495Y-46070D02*
X54552Y-46070D01*
X57110Y-45990D02*
X58505Y-45990D01*
X55434Y-45990D02*
X56334Y-45990D01*
X51495Y-45990D02*
X54472Y-45990D01*
X57103Y-45910D02*
X58505Y-45910D01*
X55354Y-45910D02*
X56254Y-45910D01*
X51495Y-45910D02*
X54392Y-45910D01*
X57087Y-45830D02*
X58505Y-45830D01*
X55274Y-45830D02*
X56174Y-45830D01*
X51495Y-45830D02*
X54312Y-45830D01*
X57227Y-45750D02*
X58505Y-45750D01*
X55194Y-45750D02*
X55773Y-45750D01*
X54226Y-45750D02*
X54232Y-45750D01*
X53477Y-45750D02*
X53523Y-45750D01*
X53075Y-45750D02*
X53175Y-45750D01*
X51495Y-45750D02*
X52773Y-45750D01*
X57280Y-45670D02*
X58505Y-45670D01*
X55114Y-45670D02*
X55720Y-45670D01*
X53075Y-45670D02*
X53175Y-45670D01*
X51495Y-45670D02*
X52719Y-45670D01*
X57299Y-45590D02*
X58505Y-45590D01*
X56896Y-45590D02*
X56925Y-45590D01*
X55034Y-45590D02*
X55701Y-45590D01*
X53075Y-45590D02*
X53175Y-45590D01*
X51495Y-45590D02*
X52700Y-45590D01*
X58237Y-45510D02*
X58505Y-45510D01*
X57299Y-45510D02*
X57877Y-45510D01*
X56825Y-45510D02*
X56925Y-45510D01*
X55139Y-45510D02*
X55701Y-45510D01*
X53075Y-45510D02*
X53175Y-45510D01*
X51495Y-45510D02*
X52700Y-45510D01*
X58343Y-45430D02*
X58505Y-45430D01*
X57299Y-45430D02*
X57756Y-45430D01*
X56825Y-45430D02*
X56925Y-45430D01*
X55330Y-45430D02*
X55701Y-45430D01*
X53075Y-45430D02*
X53175Y-45430D01*
X51495Y-45430D02*
X52700Y-45430D01*
X58330Y-45350D02*
X58505Y-45350D01*
X57238Y-45350D02*
X57771Y-45350D01*
X56825Y-45350D02*
X56925Y-45350D01*
X55410Y-45350D02*
X55701Y-45350D01*
X53075Y-45350D02*
X53175Y-45350D01*
X51495Y-45350D02*
X52762Y-45350D01*
X58250Y-45270D02*
X58390Y-45270D01*
X57709Y-45270D02*
X57851Y-45270D01*
X56577Y-45270D02*
X57573Y-45270D01*
X55490Y-45270D02*
X55701Y-45270D01*
X51495Y-45270D02*
X53175Y-45270D01*
X58170Y-45190D02*
X58310Y-45190D01*
X57789Y-45190D02*
X57931Y-45190D01*
X57298Y-45190D02*
X57540Y-45190D01*
X56825Y-45190D02*
X56925Y-45190D01*
X55524Y-45190D02*
X55701Y-45190D01*
X53075Y-45190D02*
X53175Y-45190D01*
X51495Y-45190D02*
X52702Y-45190D01*
X58090Y-45110D02*
X58230Y-45110D01*
X57869Y-45110D02*
X58011Y-45110D01*
X57300Y-45110D02*
X57516Y-45110D01*
X56825Y-45110D02*
X56925Y-45110D01*
X55557Y-45110D02*
X55701Y-45110D01*
X53075Y-45110D02*
X53175Y-45110D01*
X51495Y-45110D02*
X52701Y-45110D01*
X57949Y-45030D02*
X58150Y-45030D01*
X57300Y-45030D02*
X57512Y-45030D01*
X56825Y-45030D02*
X56925Y-45030D01*
X55580Y-45030D02*
X55701Y-45030D01*
X53075Y-45030D02*
X53175Y-45030D01*
X51495Y-45030D02*
X52701Y-45030D01*
X57930Y-44950D02*
X58171Y-44950D01*
X57289Y-44950D02*
X57508Y-44950D01*
X56825Y-44950D02*
X56925Y-44950D01*
X55580Y-44950D02*
X55712Y-44950D01*
X54289Y-44950D02*
X54420Y-44950D01*
X53075Y-44950D02*
X53175Y-44950D01*
X51495Y-44950D02*
X52712Y-44950D01*
X58109Y-44870D02*
X58251Y-44870D01*
X57850Y-44870D02*
X57990Y-44870D01*
X57247Y-44870D02*
X57525Y-44870D01*
X56825Y-44870D02*
X56925Y-44870D01*
X56497Y-44870D02*
X56502Y-44870D01*
X55580Y-44870D02*
X55753Y-44870D01*
X54247Y-44870D02*
X54420Y-44870D01*
X53497Y-44870D02*
X53503Y-44870D01*
X53075Y-44870D02*
X53175Y-44870D01*
X51495Y-44870D02*
X52753Y-44870D01*
X58189Y-44790D02*
X58331Y-44790D01*
X57770Y-44790D02*
X57910Y-44790D01*
X57133Y-44790D02*
X57554Y-44790D01*
X56778Y-44790D02*
X56972Y-44790D01*
X56384Y-44790D02*
X56618Y-44790D01*
X55566Y-44790D02*
X55868Y-44790D01*
X54134Y-44790D02*
X54435Y-44790D01*
X53383Y-44790D02*
X53618Y-44790D01*
X53028Y-44790D02*
X53222Y-44790D01*
X51495Y-44790D02*
X52868Y-44790D01*
X58491Y-44710D02*
X58505Y-44710D01*
X58269Y-44710D02*
X58411Y-44710D01*
X57690Y-44710D02*
X57830Y-44710D01*
X55533Y-44710D02*
X57610Y-44710D01*
X51495Y-44710D02*
X54468Y-44710D01*
X58349Y-44630D02*
X58505Y-44630D01*
X55500Y-44630D02*
X57750Y-44630D01*
X51495Y-44630D02*
X54502Y-44630D01*
X58338Y-44550D02*
X58505Y-44550D01*
X55430Y-44550D02*
X57763Y-44550D01*
X51495Y-44550D02*
X54570Y-44550D01*
X58331Y-44470D02*
X58505Y-44470D01*
X56236Y-44470D02*
X57768Y-44470D01*
X55350Y-44470D02*
X55764Y-44470D01*
X54482Y-44470D02*
X54650Y-44470D01*
X51495Y-44470D02*
X53518Y-44470D01*
X58354Y-44390D02*
X58505Y-44390D01*
X56370Y-44390D02*
X57745Y-44390D01*
X55340Y-44390D02*
X55630Y-44390D01*
X54549Y-44390D02*
X54660Y-44390D01*
X51495Y-44390D02*
X53450Y-44390D01*
X58290Y-44310D02*
X58505Y-44310D01*
X56450Y-44310D02*
X57811Y-44310D01*
X55340Y-44310D02*
X55550Y-44310D01*
X54579Y-44310D02*
X54660Y-44310D01*
X52832Y-44310D02*
X53421Y-44310D01*
X52082Y-44310D02*
X52316Y-44310D01*
X51728Y-44310D02*
X51922Y-44310D01*
X51495Y-44310D02*
X51567Y-44310D01*
X58210Y-44230D02*
X58350Y-44230D01*
X57749Y-44230D02*
X57891Y-44230D01*
X56507Y-44230D02*
X57557Y-44230D01*
X55340Y-44230D02*
X55492Y-44230D01*
X54579Y-44230D02*
X54660Y-44230D01*
X52947Y-44230D02*
X53421Y-44230D01*
X52197Y-44230D02*
X52203Y-44230D01*
X51775Y-44230D02*
X51875Y-44230D01*
X58130Y-44150D02*
X58270Y-44150D01*
X57829Y-44150D02*
X57971Y-44150D01*
X56540Y-44150D02*
X57524Y-44150D01*
X55340Y-44150D02*
X55459Y-44150D01*
X54579Y-44150D02*
X54660Y-44150D01*
X52987Y-44150D02*
X53421Y-44150D01*
X51775Y-44150D02*
X51875Y-44150D01*
X57909Y-44070D02*
X58190Y-44070D01*
X56574Y-44070D02*
X57514Y-44070D01*
X55340Y-44070D02*
X55426Y-44070D01*
X54579Y-44070D02*
X54660Y-44070D01*
X53240Y-44070D02*
X53421Y-44070D01*
X51775Y-44070D02*
X51875Y-44070D01*
X57970Y-43990D02*
X58131Y-43990D01*
X56580Y-43990D02*
X57510Y-43990D01*
X55408Y-43990D02*
X55420Y-43990D01*
X54579Y-43990D02*
X54660Y-43990D01*
X53335Y-43990D02*
X53421Y-43990D01*
X51775Y-43990D02*
X51875Y-43990D01*
X58069Y-43910D02*
X58211Y-43910D01*
X57890Y-43910D02*
X58030Y-43910D01*
X56580Y-43910D02*
X57511Y-43910D01*
X54579Y-43910D02*
X54662Y-43910D01*
X53415Y-43910D02*
X53421Y-43910D01*
X51775Y-43910D02*
X51875Y-43910D01*
X58149Y-43830D02*
X58291Y-43830D01*
X57810Y-43830D02*
X57950Y-43830D01*
X56580Y-43830D02*
X57539Y-43830D01*
X54579Y-43830D02*
X54678Y-43830D01*
X51775Y-43830D02*
X51875Y-43830D01*
X58229Y-43750D02*
X58371Y-43750D01*
X57730Y-43750D02*
X57870Y-43750D01*
X56550Y-43750D02*
X57568Y-43750D01*
X54579Y-43750D02*
X54712Y-43750D01*
X51775Y-43750D02*
X51875Y-43750D01*
X58309Y-43670D02*
X58505Y-43670D01*
X56516Y-43670D02*
X57790Y-43670D01*
X54579Y-43670D02*
X54768Y-43670D01*
X51775Y-43670D02*
X51875Y-43670D01*
X58349Y-43590D02*
X58505Y-43590D01*
X56470Y-43590D02*
X57752Y-43590D01*
X54579Y-43590D02*
X54848Y-43590D01*
X51775Y-43590D02*
X51875Y-43590D01*
X58280Y-43510D02*
X58505Y-43510D01*
X56390Y-43510D02*
X57814Y-43510D01*
X54558Y-43510D02*
X54928Y-43510D01*
X51775Y-43510D02*
X51875Y-43510D01*
X56284Y-43430D02*
X58505Y-43430D01*
X54502Y-43430D02*
X55008Y-43430D01*
X51775Y-43430D02*
X51875Y-43430D01*
X57612Y-43350D02*
X58505Y-43350D01*
X56048Y-43350D02*
X56543Y-43350D01*
X53859Y-43350D02*
X55088Y-43350D01*
X52177Y-43350D02*
X52222Y-43350D01*
X51775Y-43350D02*
X51875Y-43350D01*
X57926Y-43270D02*
X58505Y-43270D01*
X56128Y-43270D02*
X56478Y-43270D01*
X53866Y-43270D02*
X55168Y-43270D01*
X51495Y-43270D02*
X52246Y-43270D01*
X58006Y-43190D02*
X58505Y-43190D01*
X56208Y-43190D02*
X56451Y-43190D01*
X53866Y-43190D02*
X55248Y-43190D01*
X51495Y-43190D02*
X52166Y-43190D01*
X58066Y-43110D02*
X58505Y-43110D01*
X56288Y-43110D02*
X56451Y-43110D01*
X53866Y-43110D02*
X55328Y-43110D01*
X51495Y-43110D02*
X52086Y-43110D01*
X58100Y-43030D02*
X58505Y-43030D01*
X56368Y-43030D02*
X56451Y-43030D01*
X54677Y-43030D02*
X55408Y-43030D01*
X53893Y-43030D02*
X54160Y-43030D01*
X51495Y-43030D02*
X52006Y-43030D01*
X58126Y-42950D02*
X58505Y-42950D01*
X56448Y-42950D02*
X56451Y-42950D01*
X54762Y-42950D02*
X55487Y-42950D01*
X53973Y-42950D02*
X54073Y-42950D01*
X51495Y-42950D02*
X51926Y-42950D01*
X58126Y-42870D02*
X58505Y-42870D01*
X54829Y-42870D02*
X55567Y-42870D01*
X51495Y-42870D02*
X51846Y-42870D01*
X58126Y-42790D02*
X58505Y-42790D01*
X54862Y-42790D02*
X55647Y-42790D01*
X51495Y-42790D02*
X51766Y-42790D01*
X58098Y-42710D02*
X58505Y-42710D01*
X54893Y-42710D02*
X55727Y-42710D01*
X51495Y-42710D02*
X51686Y-42710D01*
X58065Y-42630D02*
X58505Y-42630D01*
X54893Y-42630D02*
X55807Y-42630D01*
X51495Y-42630D02*
X51606Y-42630D01*
X57999Y-42550D02*
X58505Y-42550D01*
X54893Y-42550D02*
X55887Y-42550D01*
X51495Y-42550D02*
X51526Y-42550D01*
X58348Y-42470D02*
X58505Y-42470D01*
X55647Y-42470D02*
X55967Y-42470D01*
X54916Y-42470D02*
X55289Y-42470D01*
X58436Y-42390D02*
X58505Y-42390D01*
X55779Y-42390D02*
X56047Y-42390D01*
X54996Y-42390D02*
X55156Y-42390D01*
X55076Y-42310D02*
X55076Y-42310D01*
X58505Y-49755D02*
X58505Y-45285D01*
X58505Y-45285D02*
X58428Y-45308D01*
X58428Y-45308D02*
X58121Y-45000D01*
X58121Y-45000D02*
X58428Y-44692D01*
X58428Y-44692D02*
X58505Y-44714D01*
X58505Y-44714D02*
X58505Y-44285D01*
X58505Y-44285D02*
X58428Y-44308D01*
X58428Y-44308D02*
X58121Y-44000D01*
X58121Y-44000D02*
X58428Y-43692D01*
X58428Y-43692D02*
X58505Y-43714D01*
X58505Y-43714D02*
X58505Y-42321D01*
X58505Y-42321D02*
X58361Y-42465D01*
X58361Y-42465D02*
X58159Y-42549D01*
X58159Y-42549D02*
X57997Y-42549D01*
X57997Y-42549D02*
X58054Y-42605D01*
X58054Y-42605D02*
X58126Y-42780D01*
X58126Y-42780D02*
X58126Y-42969D01*
X58126Y-42969D02*
X58053Y-43143D01*
X58053Y-43143D02*
X57920Y-43277D01*
X57920Y-43277D02*
X57745Y-43349D01*
X57745Y-43349D02*
X57617Y-43349D01*
X57617Y-43349D02*
X57513Y-43370D01*
X57513Y-43370D02*
X57431Y-43370D01*
X57431Y-43370D02*
X57349Y-43404D01*
X57349Y-43404D02*
X56650Y-43404D01*
X56650Y-43404D02*
X56559Y-43366D01*
X56559Y-43366D02*
X56489Y-43296D01*
X56489Y-43296D02*
X56451Y-43204D01*
X56451Y-43204D02*
X56451Y-42947D01*
X56451Y-42947D02*
X56038Y-43360D01*
X56038Y-43360D02*
X56116Y-43360D01*
X56116Y-43360D02*
X56329Y-43449D01*
X56329Y-43449D02*
X56492Y-43612D01*
X56492Y-43612D02*
X56580Y-43825D01*
X56580Y-43825D02*
X56580Y-44056D01*
X56580Y-44056D02*
X56491Y-44269D01*
X56491Y-44269D02*
X56328Y-44432D01*
X56328Y-44432D02*
X56115Y-44520D01*
X56115Y-44520D02*
X55884Y-44520D01*
X55884Y-44520D02*
X55671Y-44431D01*
X55671Y-44431D02*
X55508Y-44268D01*
X55508Y-44268D02*
X55420Y-44055D01*
X55420Y-44055D02*
X55420Y-43978D01*
X55420Y-43978D02*
X55340Y-44058D01*
X55340Y-44058D02*
X55340Y-44460D01*
X55340Y-44460D02*
X55492Y-44612D01*
X55492Y-44612D02*
X55580Y-44825D01*
X55580Y-44825D02*
X55580Y-45056D01*
X55580Y-45056D02*
X55491Y-45269D01*
X55491Y-45269D02*
X55328Y-45432D01*
X55328Y-45432D02*
X55115Y-45520D01*
X55115Y-45520D02*
X54963Y-45520D01*
X54963Y-45520D02*
X55832Y-46388D01*
X55832Y-46388D02*
X55894Y-46481D01*
X55894Y-46481D02*
X56395Y-46481D01*
X56395Y-46481D02*
X56430Y-46495D01*
X56430Y-46495D02*
X56430Y-46085D01*
X56430Y-46085D02*
X56168Y-45824D01*
X56168Y-45824D02*
X55900Y-45824D01*
X55900Y-45824D02*
X55809Y-45786D01*
X55809Y-45786D02*
X55739Y-45716D01*
X55739Y-45716D02*
X55701Y-45624D01*
X55701Y-45624D02*
X55701Y-44975D01*
X55701Y-44975D02*
X55739Y-44884D01*
X55739Y-44884D02*
X55809Y-44814D01*
X55809Y-44814D02*
X55901Y-44776D01*
X55901Y-44776D02*
X56350Y-44776D01*
X56350Y-44776D02*
X56441Y-44814D01*
X56441Y-44814D02*
X56499Y-44872D01*
X56499Y-44872D02*
X56559Y-44814D01*
X56559Y-44814D02*
X56651Y-44776D01*
X56651Y-44776D02*
X56763Y-44775D01*
X56763Y-44775D02*
X56825Y-44837D01*
X56825Y-44837D02*
X56825Y-45250D01*
X56825Y-45250D02*
X56556Y-45250D01*
X56556Y-45250D02*
X56656Y-45349D01*
X56656Y-45349D02*
X56825Y-45350D01*
X56825Y-45350D02*
X56825Y-45519D01*
X56825Y-45519D02*
X56925Y-45619D01*
X56925Y-45619D02*
X56925Y-45350D01*
X56925Y-45350D02*
X56925Y-45250D01*
X56925Y-45250D02*
X56925Y-44837D01*
X56925Y-44837D02*
X56987Y-44775D01*
X56987Y-44775D02*
X57099Y-44776D01*
X57099Y-44776D02*
X57191Y-44814D01*
X57191Y-44814D02*
X57261Y-44884D01*
X57261Y-44884D02*
X57299Y-44975D01*
X57299Y-44975D02*
X57300Y-45188D01*
X57300Y-45188D02*
X57238Y-45250D01*
X57238Y-45250D02*
X56925Y-45250D01*
X56925Y-45250D02*
X56925Y-45350D01*
X56925Y-45350D02*
X57238Y-45350D01*
X57238Y-45350D02*
X57300Y-45412D01*
X57300Y-45412D02*
X57299Y-45625D01*
X57299Y-45625D02*
X57261Y-45716D01*
X57261Y-45716D02*
X57191Y-45786D01*
X57191Y-45786D02*
X57099Y-45824D01*
X57099Y-45824D02*
X57085Y-45824D01*
X57085Y-45824D02*
X57110Y-45945D01*
X57110Y-45945D02*
X57110Y-46600D01*
X57110Y-46600D02*
X57219Y-46710D01*
X57219Y-46710D02*
X57300Y-46905D01*
X57300Y-46905D02*
X57300Y-47116D01*
X57300Y-47116D02*
X57219Y-47311D01*
X57219Y-47311D02*
X57070Y-47459D01*
X57070Y-47459D02*
X56875Y-47540D01*
X56875Y-47540D02*
X56664Y-47540D01*
X56664Y-47540D02*
X56510Y-47476D01*
X56510Y-47476D02*
X56486Y-47501D01*
X56486Y-47501D02*
X56394Y-47539D01*
X56394Y-47539D02*
X55735Y-47539D01*
X55735Y-47539D02*
X55644Y-47501D01*
X55644Y-47501D02*
X55574Y-47431D01*
X55574Y-47431D02*
X55536Y-47338D01*
X55536Y-47338D02*
X55462Y-47324D01*
X55462Y-47324D02*
X55352Y-47250D01*
X55352Y-47250D02*
X55278Y-47140D01*
X55278Y-47140D02*
X55252Y-47010D01*
X55252Y-47010D02*
X55252Y-46769D01*
X55252Y-46769D02*
X54229Y-45747D01*
X54229Y-45747D02*
X54191Y-45786D01*
X54191Y-45786D02*
X54099Y-45824D01*
X54099Y-45824D02*
X53650Y-45824D01*
X53650Y-45824D02*
X53559Y-45786D01*
X53559Y-45786D02*
X53500Y-45727D01*
X53500Y-45727D02*
X53441Y-45786D01*
X53441Y-45786D02*
X53349Y-45824D01*
X53349Y-45824D02*
X53237Y-45825D01*
X53237Y-45825D02*
X53175Y-45763D01*
X53175Y-45763D02*
X53175Y-45350D01*
X53175Y-45350D02*
X53175Y-45250D01*
X53175Y-45250D02*
X53175Y-44837D01*
X53175Y-44837D02*
X53237Y-44775D01*
X53237Y-44775D02*
X53349Y-44776D01*
X53349Y-44776D02*
X53441Y-44814D01*
X53441Y-44814D02*
X53500Y-44873D01*
X53500Y-44873D02*
X53559Y-44814D01*
X53559Y-44814D02*
X53651Y-44776D01*
X53651Y-44776D02*
X54100Y-44776D01*
X54100Y-44776D02*
X54191Y-44814D01*
X54191Y-44814D02*
X54261Y-44884D01*
X54261Y-44884D02*
X54295Y-44966D01*
X54295Y-44966D02*
X54393Y-44986D01*
X54393Y-44986D02*
X54420Y-45004D01*
X54420Y-45004D02*
X54420Y-44824D01*
X54420Y-44824D02*
X54509Y-44611D01*
X54509Y-44611D02*
X54660Y-44460D01*
X54660Y-44460D02*
X54660Y-43918D01*
X54660Y-43918D02*
X54686Y-43788D01*
X54686Y-43788D02*
X54760Y-43678D01*
X54760Y-43678D02*
X56067Y-42369D01*
X56067Y-42369D02*
X55799Y-42370D01*
X55799Y-42370D02*
X55737Y-42433D01*
X55737Y-42433D02*
X55562Y-42505D01*
X55562Y-42505D02*
X55373Y-42505D01*
X55373Y-42505D02*
X55199Y-42432D01*
X55199Y-42432D02*
X55076Y-42310D01*
X55076Y-42310D02*
X54882Y-42504D01*
X54882Y-42504D02*
X54893Y-42529D01*
X54893Y-42529D02*
X54893Y-42718D01*
X54893Y-42718D02*
X54820Y-42892D01*
X54820Y-42892D02*
X54687Y-43026D01*
X54687Y-43026D02*
X54512Y-43098D01*
X54512Y-43098D02*
X54323Y-43098D01*
X54323Y-43098D02*
X54149Y-43025D01*
X54149Y-43025D02*
X54023Y-42900D01*
X54023Y-42900D02*
X53866Y-43058D01*
X53866Y-43058D02*
X53866Y-43319D01*
X53866Y-43319D02*
X53857Y-43361D01*
X53857Y-43361D02*
X54380Y-43361D01*
X54380Y-43361D02*
X54471Y-43399D01*
X54471Y-43399D02*
X54541Y-43469D01*
X54541Y-43469D02*
X54579Y-43561D01*
X54579Y-43561D02*
X54579Y-44320D01*
X54579Y-44320D02*
X54541Y-44411D01*
X54541Y-44411D02*
X54471Y-44481D01*
X54471Y-44481D02*
X54379Y-44519D01*
X54379Y-44519D02*
X53620Y-44519D01*
X53620Y-44519D02*
X53529Y-44481D01*
X53529Y-44481D02*
X53459Y-44411D01*
X53459Y-44411D02*
X53421Y-44319D01*
X53421Y-44319D02*
X53421Y-43904D01*
X53421Y-43904D02*
X53285Y-44040D01*
X53285Y-44040D02*
X53175Y-44114D01*
X53175Y-44114D02*
X53045Y-44140D01*
X53045Y-44140D02*
X52992Y-44140D01*
X52992Y-44140D02*
X52961Y-44216D01*
X52961Y-44216D02*
X52891Y-44286D01*
X52891Y-44286D02*
X52799Y-44324D01*
X52799Y-44324D02*
X52350Y-44324D01*
X52350Y-44324D02*
X52259Y-44286D01*
X52259Y-44286D02*
X52200Y-44227D01*
X52200Y-44227D02*
X52141Y-44286D01*
X52141Y-44286D02*
X52049Y-44324D01*
X52049Y-44324D02*
X51937Y-44325D01*
X51937Y-44325D02*
X51875Y-44263D01*
X51875Y-44263D02*
X51875Y-43850D01*
X51875Y-43850D02*
X51875Y-43750D01*
X51875Y-43750D02*
X51875Y-43337D01*
X51875Y-43337D02*
X51937Y-43275D01*
X51937Y-43275D02*
X52049Y-43276D01*
X52049Y-43276D02*
X52141Y-43314D01*
X52141Y-43314D02*
X52199Y-43372D01*
X52199Y-43372D02*
X52259Y-43314D01*
X52259Y-43314D02*
X52291Y-43300D01*
X52291Y-43300D02*
X52246Y-43270D01*
X52246Y-43270D02*
X51495Y-42518D01*
X51495Y-42518D02*
X51495Y-43328D01*
X51495Y-43328D02*
X51509Y-43314D01*
X51509Y-43314D02*
X51601Y-43276D01*
X51601Y-43276D02*
X51713Y-43275D01*
X51713Y-43275D02*
X51775Y-43337D01*
X51775Y-43337D02*
X51775Y-43750D01*
X51775Y-43750D02*
X51775Y-43850D01*
X51775Y-43850D02*
X51775Y-44263D01*
X51775Y-44263D02*
X51713Y-44325D01*
X51713Y-44325D02*
X51601Y-44324D01*
X51601Y-44324D02*
X51509Y-44286D01*
X51509Y-44286D02*
X51495Y-44272D01*
X51495Y-44272D02*
X51495Y-49755D01*
X51495Y-49755D02*
X52323Y-49755D01*
X52323Y-49755D02*
X52323Y-49715D01*
X52323Y-49715D02*
X52035Y-49595D01*
X52035Y-49595D02*
X51814Y-49374D01*
X51814Y-49374D02*
X51695Y-49085D01*
X51695Y-49085D02*
X51695Y-48773D01*
X51695Y-48773D02*
X51815Y-48485D01*
X51815Y-48485D02*
X52036Y-48264D01*
X52036Y-48264D02*
X52325Y-48145D01*
X52325Y-48145D02*
X52637Y-48145D01*
X52637Y-48145D02*
X52925Y-48265D01*
X52925Y-48265D02*
X53124Y-48464D01*
X53124Y-48464D02*
X53124Y-47540D01*
X53124Y-47540D02*
X52929Y-47459D01*
X52929Y-47459D02*
X52781Y-47310D01*
X52781Y-47310D02*
X52700Y-47115D01*
X52700Y-47115D02*
X52700Y-46904D01*
X52700Y-46904D02*
X52781Y-46709D01*
X52781Y-46709D02*
X52930Y-46561D01*
X52930Y-46561D02*
X53013Y-46526D01*
X53013Y-46526D02*
X53013Y-45825D01*
X53013Y-45825D02*
X52901Y-45824D01*
X52901Y-45824D02*
X52809Y-45786D01*
X52809Y-45786D02*
X52739Y-45716D01*
X52739Y-45716D02*
X52701Y-45625D01*
X52701Y-45625D02*
X52700Y-45412D01*
X52700Y-45412D02*
X52762Y-45350D01*
X52762Y-45350D02*
X52762Y-45250D01*
X52762Y-45250D02*
X52700Y-45188D01*
X52700Y-45188D02*
X52701Y-44975D01*
X52701Y-44975D02*
X52739Y-44884D01*
X52739Y-44884D02*
X52809Y-44814D01*
X52809Y-44814D02*
X52901Y-44776D01*
X52901Y-44776D02*
X53013Y-44775D01*
X53013Y-44775D02*
X53075Y-44837D01*
X53075Y-44837D02*
X53075Y-45250D01*
X53075Y-45250D02*
X52762Y-45250D01*
X52762Y-45250D02*
X52762Y-45350D01*
X52762Y-45350D02*
X53075Y-45350D01*
X53075Y-45350D02*
X53075Y-45763D01*
X53075Y-45763D02*
X53013Y-45825D01*
X53013Y-45825D02*
X53013Y-46526D01*
X53013Y-46526D02*
X53125Y-46480D01*
X53125Y-46480D02*
X53336Y-46480D01*
X53336Y-46480D02*
X53531Y-46561D01*
X53531Y-46561D02*
X53611Y-46642D01*
X53611Y-46642D02*
X53625Y-46629D01*
X53625Y-46629D02*
X53642Y-46646D01*
X53642Y-46646D02*
X53666Y-46554D01*
X53666Y-46554D02*
X53803Y-46497D01*
X53803Y-46497D02*
X54009Y-46486D01*
X54009Y-46486D02*
X54204Y-46554D01*
X54204Y-46554D02*
X54228Y-46646D01*
X54228Y-46646D02*
X53935Y-46939D01*
X53935Y-46939D02*
X53864Y-47010D01*
X53864Y-47010D02*
X53935Y-47081D01*
X53935Y-47081D02*
X54228Y-47374D01*
X54228Y-47374D02*
X54204Y-47466D01*
X54204Y-47466D02*
X54067Y-47523D01*
X54067Y-47523D02*
X53861Y-47534D01*
X53861Y-47534D02*
X53666Y-47466D01*
X53666Y-47466D02*
X53642Y-47374D01*
X53642Y-47374D02*
X53625Y-47391D01*
X53625Y-47391D02*
X53611Y-47377D01*
X53611Y-47377D02*
X53530Y-47459D01*
X53530Y-47459D02*
X53335Y-47540D01*
X53335Y-47540D02*
X53124Y-47540D01*
X53124Y-47540D02*
X53124Y-48464D01*
X53124Y-48464D02*
X53146Y-48486D01*
X53146Y-48486D02*
X53265Y-48775D01*
X53265Y-48775D02*
X53265Y-49087D01*
X53265Y-49087D02*
X53145Y-49375D01*
X53145Y-49375D02*
X52924Y-49596D01*
X52924Y-49596D02*
X52635Y-49715D01*
X52635Y-49715D02*
X52323Y-49715D01*
X52323Y-49715D02*
X52323Y-49755D01*
X52323Y-49755D02*
X53861Y-49755D01*
X53861Y-49755D02*
X54843Y-49755D01*
X54843Y-49755D02*
X54843Y-49445D01*
X54843Y-49445D02*
X54555Y-49325D01*
X54555Y-49325D02*
X54334Y-49104D01*
X54334Y-49104D02*
X54215Y-48815D01*
X54215Y-48815D02*
X54215Y-48503D01*
X54215Y-48503D02*
X54299Y-48301D01*
X54299Y-48301D02*
X54299Y-47303D01*
X54299Y-47303D02*
X54006Y-47010D01*
X54006Y-47010D02*
X54299Y-46717D01*
X54299Y-46717D02*
X54391Y-46741D01*
X54391Y-46741D02*
X54448Y-46878D01*
X54448Y-46878D02*
X54459Y-47084D01*
X54459Y-47084D02*
X54391Y-47279D01*
X54391Y-47279D02*
X54299Y-47303D01*
X54299Y-47303D02*
X54299Y-48301D01*
X54299Y-48301D02*
X54335Y-48215D01*
X54335Y-48215D02*
X54556Y-47994D01*
X54556Y-47994D02*
X54845Y-47875D01*
X54845Y-47875D02*
X55157Y-47875D01*
X55157Y-47875D02*
X55445Y-47995D01*
X55445Y-47995D02*
X55666Y-48216D01*
X55666Y-48216D02*
X55785Y-48505D01*
X55785Y-48505D02*
X55785Y-48817D01*
X55785Y-48817D02*
X55665Y-49105D01*
X55665Y-49105D02*
X55444Y-49326D01*
X55444Y-49326D02*
X55155Y-49445D01*
X55155Y-49445D02*
X54843Y-49445D01*
X54843Y-49445D02*
X54843Y-49755D01*
X54843Y-49755D02*
X57363Y-49755D01*
X57363Y-49755D02*
X57363Y-49715D01*
X57363Y-49715D02*
X57075Y-49595D01*
X57075Y-49595D02*
X56854Y-49374D01*
X56854Y-49374D02*
X56735Y-49085D01*
X56735Y-49085D02*
X56735Y-48773D01*
X56735Y-48773D02*
X56855Y-48485D01*
X56855Y-48485D02*
X57076Y-48264D01*
X57076Y-48264D02*
X57365Y-48145D01*
X57365Y-48145D02*
X57672Y-48145D01*
X57672Y-48145D02*
X57672Y-45308D01*
X57672Y-45308D02*
X57578Y-45281D01*
X57578Y-45281D02*
X57518Y-45134D01*
X57518Y-45134D02*
X57507Y-44921D01*
X57507Y-44921D02*
X57578Y-44719D01*
X57578Y-44719D02*
X57672Y-44692D01*
X57672Y-44692D02*
X57672Y-44308D01*
X57672Y-44308D02*
X57578Y-44281D01*
X57578Y-44281D02*
X57518Y-44134D01*
X57518Y-44134D02*
X57507Y-43921D01*
X57507Y-43921D02*
X57578Y-43719D01*
X57578Y-43719D02*
X57672Y-43692D01*
X57672Y-43692D02*
X57979Y-44000D01*
X57979Y-44000D02*
X57672Y-44308D01*
X57672Y-44308D02*
X57672Y-44692D01*
X57672Y-44692D02*
X57979Y-45000D01*
X57979Y-45000D02*
X57672Y-45308D01*
X57672Y-45308D02*
X57672Y-48145D01*
X57672Y-48145D02*
X57677Y-48145D01*
X57677Y-48145D02*
X57965Y-48265D01*
X57965Y-48265D02*
X57971Y-48270D01*
X57971Y-48270D02*
X57971Y-45543D01*
X57971Y-45543D02*
X57769Y-45472D01*
X57769Y-45472D02*
X57742Y-45378D01*
X57742Y-45378D02*
X58050Y-45071D01*
X58050Y-45071D02*
X58050Y-44929D01*
X58050Y-44929D02*
X57742Y-44622D01*
X57742Y-44622D02*
X57769Y-44528D01*
X57769Y-44528D02*
X57842Y-44497D01*
X57842Y-44497D02*
X57769Y-44472D01*
X57769Y-44472D02*
X57742Y-44378D01*
X57742Y-44378D02*
X58050Y-44071D01*
X58050Y-44071D02*
X58050Y-43929D01*
X58050Y-43929D02*
X57742Y-43622D01*
X57742Y-43622D02*
X57769Y-43528D01*
X57769Y-43528D02*
X57916Y-43468D01*
X57916Y-43468D02*
X58129Y-43457D01*
X58129Y-43457D02*
X58331Y-43528D01*
X58331Y-43528D02*
X58358Y-43622D01*
X58358Y-43622D02*
X58050Y-43929D01*
X58050Y-43929D02*
X58050Y-44071D01*
X58050Y-44071D02*
X58358Y-44378D01*
X58358Y-44378D02*
X58331Y-44472D01*
X58331Y-44472D02*
X58257Y-44502D01*
X58257Y-44502D02*
X58331Y-44528D01*
X58331Y-44528D02*
X58358Y-44622D01*
X58358Y-44622D02*
X58050Y-44929D01*
X58050Y-44929D02*
X58050Y-45071D01*
X58050Y-45071D02*
X58358Y-45378D01*
X58358Y-45378D02*
X58331Y-45472D01*
X58331Y-45472D02*
X58184Y-45532D01*
X58184Y-45532D02*
X57971Y-45543D01*
X57971Y-45543D02*
X57971Y-48270D01*
X57971Y-48270D02*
X58186Y-48486D01*
X58186Y-48486D02*
X58305Y-48775D01*
X58305Y-48775D02*
X58305Y-49087D01*
X58305Y-49087D02*
X58185Y-49375D01*
X58185Y-49375D02*
X57964Y-49596D01*
X57964Y-49596D02*
X57675Y-49715D01*
X57675Y-49715D02*
X57363Y-49715D01*
X57363Y-49715D02*
X57363Y-49755D01*
X57363Y-49755D02*
X58505Y-49755D01*
X52451Y-42513D02*
X52451Y-42355D01*
X52451Y-42355D02*
X52482Y-42279D01*
X52482Y-42279D02*
X52451Y-42204D01*
X52451Y-42204D02*
X52451Y-41855D01*
X52451Y-41855D02*
X52482Y-41780D01*
X52482Y-41780D02*
X52451Y-41705D01*
X52451Y-41705D02*
X52450Y-41642D01*
X52450Y-41642D02*
X52512Y-41580D01*
X52512Y-41580D02*
X52950Y-41580D01*
X52950Y-41580D02*
X52950Y-41656D01*
X52950Y-41656D02*
X53050Y-41656D01*
X53050Y-41656D02*
X53050Y-41580D01*
X53050Y-41580D02*
X53481Y-41580D01*
X53481Y-41580D02*
X53885Y-41176D01*
X53885Y-41176D02*
X53752Y-41232D01*
X53752Y-41232D02*
X53563Y-41232D01*
X53563Y-41232D02*
X53541Y-41222D01*
X53541Y-41222D02*
X53517Y-41279D01*
X53517Y-41279D02*
X53549Y-41355D01*
X53549Y-41355D02*
X53550Y-41418D01*
X53550Y-41418D02*
X53488Y-41480D01*
X53488Y-41480D02*
X53050Y-41480D01*
X53050Y-41480D02*
X52950Y-41480D01*
X52950Y-41480D02*
X52512Y-41480D01*
X52512Y-41480D02*
X52450Y-41418D01*
X52450Y-41418D02*
X52450Y-41373D01*
X52450Y-41373D02*
X52392Y-41433D01*
X52392Y-41433D02*
X52217Y-41505D01*
X52217Y-41505D02*
X52028Y-41505D01*
X52028Y-41505D02*
X51884Y-41444D01*
X51884Y-41444D02*
X51884Y-41946D01*
X51884Y-41946D02*
X52451Y-42513D01*
X54076Y-40985D02*
X55980Y-39081D01*
X55980Y-39081D02*
X55951Y-39009D01*
X55951Y-39009D02*
X55951Y-38310D01*
X55951Y-38310D02*
X55989Y-38219D01*
X55989Y-38219D02*
X56059Y-38149D01*
X56059Y-38149D02*
X56151Y-38111D01*
X56151Y-38111D02*
X56175Y-38111D01*
X56175Y-38111D02*
X56035Y-37971D01*
X56035Y-37971D02*
X55951Y-37769D01*
X55951Y-37769D02*
X55951Y-37551D01*
X55951Y-37551D02*
X55972Y-37500D01*
X55972Y-37500D02*
X55727Y-37500D01*
X55727Y-37500D02*
X55761Y-37534D01*
X55761Y-37534D02*
X55799Y-37626D01*
X55799Y-37626D02*
X55799Y-38275D01*
X55799Y-38275D02*
X55761Y-38366D01*
X55761Y-38366D02*
X55691Y-38436D01*
X55691Y-38436D02*
X55599Y-38474D01*
X55599Y-38474D02*
X55331Y-38474D01*
X55331Y-38474D02*
X54035Y-39770D01*
X54035Y-39770D02*
X53925Y-39844D01*
X53925Y-39844D02*
X53795Y-39870D01*
X53795Y-39870D02*
X53549Y-39870D01*
X53549Y-39870D02*
X53550Y-39918D01*
X53550Y-39918D02*
X53488Y-39980D01*
X53488Y-39980D02*
X53050Y-39980D01*
X53050Y-39980D02*
X52950Y-39980D01*
X52950Y-39980D02*
X52512Y-39980D01*
X52512Y-39980D02*
X52450Y-39918D01*
X52450Y-39918D02*
X52451Y-39855D01*
X52451Y-39855D02*
X52482Y-39779D01*
X52482Y-39779D02*
X52451Y-39704D01*
X52451Y-39704D02*
X52451Y-39355D01*
X52451Y-39355D02*
X52489Y-39264D01*
X52489Y-39264D02*
X52559Y-39194D01*
X52559Y-39194D02*
X52651Y-39156D01*
X52651Y-39156D02*
X53287Y-39156D01*
X53287Y-39156D02*
X53219Y-39132D01*
X53219Y-39132D02*
X53192Y-39038D01*
X53192Y-39038D02*
X53500Y-38731D01*
X53500Y-38731D02*
X53806Y-39037D01*
X53806Y-39037D02*
X53806Y-39036D01*
X53806Y-39036D02*
X53500Y-38731D01*
X53500Y-38731D02*
X53571Y-38660D01*
X53571Y-38660D02*
X53876Y-38966D01*
X53876Y-38966D02*
X53877Y-38966D01*
X53877Y-38966D02*
X53571Y-38660D01*
X53571Y-38660D02*
X53730Y-38500D01*
X53730Y-38500D02*
X53589Y-38500D01*
X53589Y-38500D02*
X53500Y-38589D01*
X53500Y-38589D02*
X53429Y-38660D01*
X53429Y-38660D02*
X53334Y-38564D01*
X53334Y-38564D02*
X53334Y-38565D01*
X53334Y-38565D02*
X53429Y-38660D01*
X53429Y-38660D02*
X53122Y-38968D01*
X53122Y-38968D02*
X53028Y-38941D01*
X53028Y-38941D02*
X52968Y-38794D01*
X52968Y-38794D02*
X52964Y-38734D01*
X52964Y-38734D02*
X52915Y-38734D01*
X52915Y-38734D02*
X51884Y-39765D01*
X51884Y-39765D02*
X51884Y-40614D01*
X51884Y-40614D02*
X52029Y-40555D01*
X52029Y-40555D02*
X52218Y-40555D01*
X52218Y-40555D02*
X52392Y-40628D01*
X52392Y-40628D02*
X52451Y-40686D01*
X52451Y-40686D02*
X52451Y-40355D01*
X52451Y-40355D02*
X52482Y-40280D01*
X52482Y-40280D02*
X52451Y-40205D01*
X52451Y-40205D02*
X52450Y-40142D01*
X52450Y-40142D02*
X52512Y-40080D01*
X52512Y-40080D02*
X52950Y-40080D01*
X52950Y-40080D02*
X53050Y-40080D01*
X53050Y-40080D02*
X53488Y-40080D01*
X53488Y-40080D02*
X53550Y-40142D01*
X53550Y-40142D02*
X53549Y-40197D01*
X53549Y-40197D02*
X53643Y-40216D01*
X53643Y-40216D02*
X53741Y-40282D01*
X53741Y-40282D02*
X53753Y-40282D01*
X53753Y-40282D02*
X53927Y-40355D01*
X53927Y-40355D02*
X54061Y-40488D01*
X54061Y-40488D02*
X54133Y-40663D01*
X54133Y-40663D02*
X54133Y-40852D01*
X54133Y-40852D02*
X54076Y-40985D01*
X57532Y-40815D02*
X57585Y-40689D01*
X57585Y-40689D02*
X57739Y-40535D01*
X57739Y-40535D02*
X57941Y-40451D01*
X57941Y-40451D02*
X58159Y-40451D01*
X58159Y-40451D02*
X58361Y-40535D01*
X58361Y-40535D02*
X58505Y-40679D01*
X58505Y-40679D02*
X58505Y-39321D01*
X58505Y-39321D02*
X58361Y-39465D01*
X58361Y-39465D02*
X58159Y-39549D01*
X58159Y-39549D02*
X57941Y-39549D01*
X57941Y-39549D02*
X57739Y-39465D01*
X57739Y-39465D02*
X57585Y-39311D01*
X57585Y-39311D02*
X57501Y-39109D01*
X57501Y-39109D02*
X57501Y-38891D01*
X57501Y-38891D02*
X57585Y-38689D01*
X57585Y-38689D02*
X57739Y-38535D01*
X57739Y-38535D02*
X57823Y-38499D01*
X57823Y-38499D02*
X57739Y-38465D01*
X57739Y-38465D02*
X57585Y-38311D01*
X57585Y-38311D02*
X57510Y-38132D01*
X57510Y-38132D02*
X57403Y-38177D01*
X57403Y-38177D02*
X57214Y-38177D01*
X57214Y-38177D02*
X57040Y-38104D01*
X57040Y-38104D02*
X56935Y-38000D01*
X56935Y-38000D02*
X56824Y-38111D01*
X56824Y-38111D02*
X56850Y-38111D01*
X56850Y-38111D02*
X56941Y-38149D01*
X56941Y-38149D02*
X57011Y-38219D01*
X57011Y-38219D02*
X57049Y-38311D01*
X57049Y-38311D02*
X57049Y-39010D01*
X57049Y-39010D02*
X57011Y-39101D01*
X57011Y-39101D02*
X56955Y-39156D01*
X56955Y-39156D02*
X57350Y-39156D01*
X57350Y-39156D02*
X57441Y-39194D01*
X57441Y-39194D02*
X57511Y-39264D01*
X57511Y-39264D02*
X57549Y-39356D01*
X57549Y-39356D02*
X57549Y-39705D01*
X57549Y-39705D02*
X57517Y-39779D01*
X57517Y-39779D02*
X57549Y-39855D01*
X57549Y-39855D02*
X57550Y-39918D01*
X57550Y-39918D02*
X57488Y-39980D01*
X57488Y-39980D02*
X57050Y-39980D01*
X57050Y-39980D02*
X56950Y-39980D01*
X56950Y-39980D02*
X56512Y-39980D01*
X56512Y-39980D02*
X56450Y-39918D01*
X56450Y-39918D02*
X56451Y-39855D01*
X56451Y-39855D02*
X56482Y-39779D01*
X56482Y-39779D02*
X56451Y-39704D01*
X56451Y-39704D02*
X56451Y-39572D01*
X56451Y-39572D02*
X55938Y-40085D01*
X55938Y-40085D02*
X56015Y-40085D01*
X56015Y-40085D02*
X56189Y-40158D01*
X56189Y-40158D02*
X56323Y-40291D01*
X56323Y-40291D02*
X56395Y-40466D01*
X56395Y-40466D02*
X56395Y-40655D01*
X56395Y-40655D02*
X56380Y-40690D01*
X56380Y-40690D02*
X56451Y-40690D01*
X56451Y-40690D02*
X56451Y-40355D01*
X56451Y-40355D02*
X56482Y-40279D01*
X56482Y-40279D02*
X56451Y-40205D01*
X56451Y-40205D02*
X56450Y-40142D01*
X56450Y-40142D02*
X56512Y-40080D01*
X56512Y-40080D02*
X56950Y-40080D01*
X56950Y-40080D02*
X56950Y-40156D01*
X56950Y-40156D02*
X57050Y-40156D01*
X57050Y-40156D02*
X57050Y-40080D01*
X57050Y-40080D02*
X57488Y-40080D01*
X57488Y-40080D02*
X57550Y-40142D01*
X57550Y-40142D02*
X57549Y-40205D01*
X57549Y-40205D02*
X57517Y-40280D01*
X57517Y-40280D02*
X57549Y-40356D01*
X57549Y-40356D02*
X57549Y-40705D01*
X57549Y-40705D02*
X57517Y-40780D01*
X57517Y-40780D02*
X57532Y-40815D01*
X53654Y-37820D02*
X53654Y-37743D01*
X53654Y-37743D02*
X53571Y-37660D01*
X53571Y-37660D02*
X53500Y-37589D01*
X53500Y-37589D02*
X53654Y-37435D01*
X53654Y-37435D02*
X53654Y-37435D01*
X53654Y-37435D02*
X53500Y-37589D01*
X53500Y-37589D02*
X53338Y-37427D01*
X53338Y-37427D02*
X53338Y-37427D01*
X53338Y-37427D02*
X53500Y-37589D01*
X53500Y-37589D02*
X53428Y-37659D01*
X53428Y-37659D02*
X53269Y-37820D01*
X53269Y-37820D02*
X53269Y-37820D01*
X53269Y-37820D02*
X53428Y-37659D01*
X53428Y-37659D02*
X53500Y-37731D01*
X53500Y-37731D02*
X53589Y-37820D01*
X53589Y-37820D02*
X53654Y-37820D01*
X53338Y-36751D02*
X53428Y-36659D01*
X53428Y-36659D02*
X53500Y-36731D01*
X53500Y-36731D02*
X53571Y-36660D01*
X53571Y-36660D02*
X53500Y-36589D01*
X53500Y-36589D02*
X53589Y-36500D01*
X53589Y-36500D02*
X53589Y-36500D01*
X53589Y-36500D02*
X53500Y-36589D01*
X53500Y-36589D02*
X53428Y-36659D01*
X53428Y-36659D02*
X53338Y-36751D01*
M02*
