M48
;DRILL file {PCBnew (20090216-final)} date Tue 06 Oct 2009 17:03:41 PDT
;FORMAT={2:4/ absolute / inch / suppress trailing zeros}
R,T
VER,1
FMAT,2
INCH,LZ
TCST,OFF
ICI,OFF
ATC,ON
T1C0.035
T2C0.043
T3C0.079
T4C0.087
T5C0.122
%
M47
G05
M72
T1
X05673Y-04947
X057435Y-04947
X0585Y-0405
X0585Y-0415
X059565Y-04947
X06027Y-04947
T2
X0575Y-0312
X0575Y-0322
X0585Y-0312
X0585Y-0322
X0595Y-0312
X0595Y-0322
T3
X0565Y-0395
X0605Y-0395
X0605Y-0435
T4
X05598Y-05139
X0585Y-05112
X06102Y-05139
T5
X0545Y-0315
X0545Y-0515
X0625Y-0315
X0625Y-0515
T0
M30
