G04 (created by PCBnew (20090216-final)) date Tue 06 Oct 2009 17:03:36 PDT*
G01*
G70*
G90*
%MOIN*%
G04 Gerber Fmt 3.4, Leading zero omitted, Abs format*
%FSLAX34Y34*%
G04 APERTURE LIST*
%ADD10C,0.009000*%
%ADD11C,0.073000*%
%ADD12R,0.073000X0.073000*%
%ADD13C,0.053000*%
%ADD14C,0.120000*%
%ADD15R,0.065000X0.065000*%
%ADD16C,0.065000*%
%ADD17C,0.107000*%
%ADD18C,0.056000*%
%ADD19R,0.056000X0.056000*%
%ADD20C,0.122000*%
%ADD21C,0.018000*%
%ADD22C,0.010000*%
%ADD23R,0.040000X0.020000*%
%ADD24R,0.055000X0.035000*%
%ADD25R,0.027500X0.035000*%
%ADD26C,0.012000*%
%ADD27C,0.009000*%
%ADD28C,0.015000*%
%ADD29C,0.005000*%
%ADD30C,0.079000*%
%ADD31R,0.079000X0.079000*%
%ADD32C,0.059000*%
%ADD33C,0.126000*%
%ADD34R,0.071000X0.071000*%
%ADD35C,0.071000*%
%ADD36C,0.113000*%
%ADD37C,0.062000*%
%ADD38R,0.062000X0.062000*%
%ADD39C,0.128000*%
%ADD40R,0.046000X0.026000*%
%ADD41R,0.061000X0.041000*%
%ADD42R,0.033500X0.041000*%
G04 APERTURE END LIST*
G54D10*
X63500Y-30500D02*
X53500Y-30500D01*
X63500Y-52500D02*
X63500Y-30500D01*
X53500Y-52500D02*
X63500Y-52500D01*
X53500Y-30500D02*
X53500Y-52500D01*
G54D30*
X58500Y-32200D03*
X57500Y-32200D03*
G54D31*
X59500Y-32200D03*
G54D32*
X59500Y-31200D03*
X58500Y-31200D03*
X57500Y-31200D03*
G54D33*
X60500Y-39500D03*
X60500Y-43500D03*
G54D34*
X58500Y-41500D03*
G54D35*
X58500Y-40500D03*
G54D33*
X56500Y-39500D03*
G54D40*
X57370Y-45850D03*
X57370Y-46350D03*
X57370Y-46850D03*
X57370Y-47350D03*
X59630Y-47350D03*
X59630Y-46850D03*
X59630Y-46350D03*
X59630Y-45850D03*
G54D36*
X55980Y-51390D03*
X61020Y-51390D03*
G54D37*
X56730Y-49470D03*
X60270Y-49470D03*
X57435Y-49470D03*
G54D38*
X59565Y-49470D03*
G54D36*
X58500Y-51120D03*
G54D41*
X56000Y-34225D03*
X56000Y-34975D03*
X61000Y-34225D03*
X61000Y-34975D03*
X56000Y-46225D03*
X56000Y-46975D03*
X54300Y-47325D03*
X54300Y-48075D03*
X61000Y-46225D03*
X61000Y-46975D03*
X62700Y-47325D03*
X62700Y-48075D03*
G54D42*
X56000Y-36525D03*
G54D41*
X56000Y-37275D03*
G54D42*
X61000Y-36525D03*
G54D41*
X61000Y-37275D03*
G54D39*
X54500Y-31500D03*
X54500Y-51500D03*
X62500Y-51500D03*
X62500Y-31500D03*
M02*
