G04 (created by PCBnew (20090216-final)) date Tue 06 Oct 2009 17:03:36 PDT*
G01*
G70*
G90*
%MOIN*%
G04 Gerber Fmt 3.4, Leading zero omitted, Abs format*
%FSLAX34Y34*%
G04 APERTURE LIST*
%ADD10C,0.009000*%
%ADD11C,0.073000*%
%ADD12R,0.073000X0.073000*%
%ADD13C,0.053000*%
%ADD14C,0.120000*%
%ADD15R,0.065000X0.065000*%
%ADD16C,0.065000*%
%ADD17C,0.107000*%
%ADD18C,0.056000*%
%ADD19R,0.056000X0.056000*%
%ADD20C,0.122000*%
%ADD21C,0.018000*%
%ADD22C,0.010000*%
%ADD23R,0.040000X0.020000*%
%ADD24R,0.055000X0.035000*%
%ADD25R,0.027500X0.035000*%
%ADD26C,0.012000*%
%ADD27C,0.009000*%
%ADD28C,0.015000*%
%ADD29C,0.005000*%
%ADD30C,0.079000*%
%ADD31R,0.079000X0.079000*%
%ADD32C,0.059000*%
%ADD33C,0.126000*%
%ADD34R,0.071000X0.071000*%
%ADD35C,0.071000*%
%ADD36C,0.113000*%
%ADD37C,0.062000*%
%ADD38R,0.062000X0.062000*%
%ADD39C,0.128000*%
%ADD40R,0.046000X0.026000*%
%ADD41R,0.061000X0.041000*%
%ADD42R,0.033500X0.041000*%
G04 APERTURE END LIST*
G54D10*
X63500Y-30500D02*
X53500Y-30500D01*
X63500Y-52500D02*
X63500Y-30500D01*
X53500Y-52500D02*
X63500Y-52500D01*
X53500Y-30500D02*
X53500Y-52500D01*
G54D11*
X58500Y-32200D03*
X57500Y-32200D03*
G54D12*
X59500Y-32200D03*
G54D13*
X59500Y-31200D03*
X58500Y-31200D03*
X57500Y-31200D03*
G54D14*
X60500Y-39500D03*
X60500Y-43500D03*
G54D15*
X58500Y-41500D03*
G54D16*
X58500Y-40500D03*
G54D14*
X56500Y-39500D03*
G54D17*
X55980Y-51390D03*
X61020Y-51390D03*
G54D18*
X56730Y-49470D03*
X60270Y-49470D03*
X57435Y-49470D03*
G54D19*
X59565Y-49470D03*
G54D17*
X58500Y-51120D03*
G54D20*
X54500Y-31500D03*
X54500Y-51500D03*
X62500Y-51500D03*
X62500Y-31500D03*
G54D21*
X57435Y-49935D02*
X55980Y-51390D01*
X57435Y-49470D02*
X57435Y-49935D01*
G54D22*
X55030Y-52185D02*
X61970Y-52185D01*
X61345Y-52105D02*
X61890Y-52105D01*
X56274Y-52105D02*
X60695Y-52105D01*
X55110Y-52105D02*
X55693Y-52105D01*
X61495Y-52025D02*
X61810Y-52025D01*
X56412Y-52025D02*
X60545Y-52025D01*
X55190Y-52025D02*
X55547Y-52025D01*
X61575Y-51945D02*
X61754Y-51945D01*
X56449Y-51945D02*
X60465Y-51945D01*
X55245Y-51945D02*
X55510Y-51945D01*
X61655Y-51865D02*
X61721Y-51865D01*
X58752Y-51865D02*
X60385Y-51865D01*
X56384Y-51865D02*
X58247Y-51865D01*
X55278Y-51865D02*
X55576Y-51865D01*
X58945Y-51785D02*
X60333Y-51785D01*
X56652Y-51785D02*
X58055Y-51785D01*
X56304Y-51785D02*
X56446Y-51785D01*
X55514Y-51785D02*
X55656Y-51785D01*
X59025Y-51705D02*
X60300Y-51705D01*
X56683Y-51705D02*
X57975Y-51705D01*
X56224Y-51705D02*
X56366Y-51705D01*
X55594Y-51705D02*
X55736Y-51705D01*
X59105Y-51625D02*
X60267Y-51625D01*
X56714Y-51625D02*
X57895Y-51625D01*
X56144Y-51625D02*
X56286Y-51625D01*
X55674Y-51625D02*
X55816Y-51625D01*
X59173Y-51545D02*
X60235Y-51545D01*
X56745Y-51545D02*
X57826Y-51545D01*
X56064Y-51545D02*
X56206Y-51545D01*
X55754Y-51545D02*
X55896Y-51545D01*
X59206Y-51465D02*
X60235Y-51465D01*
X56753Y-51465D02*
X57793Y-51465D01*
X55984Y-51465D02*
X56126Y-51465D01*
X55834Y-51465D02*
X55976Y-51465D01*
X59240Y-51385D02*
X60235Y-51385D01*
X56751Y-51385D02*
X57760Y-51385D01*
X55904Y-51385D02*
X56056Y-51385D01*
X59273Y-51305D02*
X60235Y-51305D01*
X56749Y-51305D02*
X57727Y-51305D01*
X55994Y-51305D02*
X56136Y-51305D01*
X55824Y-51305D02*
X55966Y-51305D01*
X59285Y-51225D02*
X60239Y-51225D01*
X56747Y-51225D02*
X57715Y-51225D01*
X56074Y-51225D02*
X56216Y-51225D01*
X55744Y-51225D02*
X55886Y-51225D01*
X59285Y-51145D02*
X60272Y-51145D01*
X56716Y-51145D02*
X57715Y-51145D01*
X56154Y-51145D02*
X56296Y-51145D01*
X55664Y-51145D02*
X55806Y-51145D01*
X63251Y-51065D02*
X63255Y-51065D01*
X61735Y-51065D02*
X61750Y-51065D01*
X59285Y-51065D02*
X60305Y-51065D01*
X56683Y-51065D02*
X57715Y-51065D01*
X56234Y-51065D02*
X56376Y-51065D01*
X55584Y-51065D02*
X55726Y-51065D01*
X55250Y-51065D02*
X55280Y-51065D01*
X53745Y-51065D02*
X53751Y-51065D01*
X63200Y-50985D02*
X63255Y-50985D01*
X61702Y-50985D02*
X61800Y-50985D01*
X59285Y-50985D02*
X60339Y-50985D01*
X56650Y-50985D02*
X57715Y-50985D01*
X56314Y-50985D02*
X56456Y-50985D01*
X55504Y-50985D02*
X55646Y-50985D01*
X55200Y-50985D02*
X55312Y-50985D01*
X53745Y-50985D02*
X53800Y-50985D01*
X63120Y-50905D02*
X63255Y-50905D01*
X61645Y-50905D02*
X61880Y-50905D01*
X59261Y-50905D02*
X60395Y-50905D01*
X56394Y-50905D02*
X57740Y-50905D01*
X55120Y-50905D02*
X55566Y-50905D01*
X53745Y-50905D02*
X53880Y-50905D01*
X63040Y-50825D02*
X63255Y-50825D01*
X61565Y-50825D02*
X61960Y-50825D01*
X59228Y-50825D02*
X60475Y-50825D01*
X56445Y-50825D02*
X57773Y-50825D01*
X55040Y-50825D02*
X55516Y-50825D01*
X53745Y-50825D02*
X53960Y-50825D01*
X62923Y-50745D02*
X63255Y-50745D01*
X61485Y-50745D02*
X62078Y-50745D01*
X59195Y-50745D02*
X60555Y-50745D01*
X56409Y-50745D02*
X57806Y-50745D01*
X54923Y-50745D02*
X55552Y-50745D01*
X53745Y-50745D02*
X54078Y-50745D01*
X62730Y-50665D02*
X63255Y-50665D01*
X61321Y-50665D02*
X62272Y-50665D01*
X59155Y-50665D02*
X60720Y-50665D01*
X56241Y-50665D02*
X57845Y-50665D01*
X54730Y-50665D02*
X55710Y-50665D01*
X53745Y-50665D02*
X54272Y-50665D01*
X59075Y-50585D02*
X63255Y-50585D01*
X53745Y-50585D02*
X57925Y-50585D01*
X58995Y-50505D02*
X63255Y-50505D01*
X53745Y-50505D02*
X58005Y-50505D01*
X58873Y-50425D02*
X63255Y-50425D01*
X53745Y-50425D02*
X58125Y-50425D01*
X58681Y-50345D02*
X63255Y-50345D01*
X53745Y-50345D02*
X58321Y-50345D01*
X53745Y-50265D02*
X63255Y-50265D01*
X53745Y-50185D02*
X63255Y-50185D01*
X53745Y-50105D02*
X63255Y-50105D01*
X53745Y-50025D02*
X63255Y-50025D01*
X60507Y-49945D02*
X63255Y-49945D01*
X60001Y-49945D02*
X60031Y-49945D01*
X57658Y-49945D02*
X59128Y-49945D01*
X56967Y-49945D02*
X57220Y-49945D01*
X53745Y-49945D02*
X56491Y-49945D01*
X60624Y-49865D02*
X63255Y-49865D01*
X57719Y-49865D02*
X59063Y-49865D01*
X57083Y-49865D02*
X57150Y-49865D01*
X53745Y-49865D02*
X56375Y-49865D01*
X60704Y-49785D02*
X63255Y-49785D01*
X57679Y-49785D02*
X59036Y-49785D01*
X53745Y-49785D02*
X56295Y-49785D01*
X60746Y-49705D02*
X63255Y-49705D01*
X57902Y-49705D02*
X59036Y-49705D01*
X57599Y-49705D02*
X57741Y-49705D01*
X53745Y-49705D02*
X56254Y-49705D01*
X60779Y-49625D02*
X63255Y-49625D01*
X57930Y-49625D02*
X59036Y-49625D01*
X57519Y-49625D02*
X57661Y-49625D01*
X53745Y-49625D02*
X56220Y-49625D01*
X60800Y-49545D02*
X63255Y-49545D01*
X57958Y-49545D02*
X59036Y-49545D01*
X57439Y-49545D02*
X57581Y-49545D01*
X53745Y-49545D02*
X56200Y-49545D01*
X60800Y-49465D02*
X63255Y-49465D01*
X57955Y-49465D02*
X59036Y-49465D01*
X57369Y-49465D02*
X57511Y-49465D01*
X53745Y-49465D02*
X56200Y-49465D01*
X60800Y-49385D02*
X63255Y-49385D01*
X57951Y-49385D02*
X59036Y-49385D01*
X57449Y-49385D02*
X57591Y-49385D01*
X53745Y-49385D02*
X56200Y-49385D01*
X60776Y-49305D02*
X63255Y-49305D01*
X57935Y-49305D02*
X59036Y-49305D01*
X57529Y-49305D02*
X57671Y-49305D01*
X53745Y-49305D02*
X56225Y-49305D01*
X60742Y-49225D02*
X63255Y-49225D01*
X57901Y-49225D02*
X59036Y-49225D01*
X57609Y-49225D02*
X57751Y-49225D01*
X53745Y-49225D02*
X56258Y-49225D01*
X60695Y-49145D02*
X63255Y-49145D01*
X57689Y-49145D02*
X59036Y-49145D01*
X53745Y-49145D02*
X56305Y-49145D01*
X60615Y-49065D02*
X63255Y-49065D01*
X57718Y-49065D02*
X59068Y-49065D01*
X57075Y-49065D02*
X57153Y-49065D01*
X53745Y-49065D02*
X56386Y-49065D01*
X60485Y-48985D02*
X63255Y-48985D01*
X59992Y-48985D02*
X60055Y-48985D01*
X57621Y-48985D02*
X59138Y-48985D01*
X56945Y-48985D02*
X57236Y-48985D01*
X53745Y-48985D02*
X56517Y-48985D01*
X53745Y-48905D02*
X63255Y-48905D01*
X53745Y-48825D02*
X63255Y-48825D01*
X53745Y-48745D02*
X63255Y-48745D01*
X53745Y-48665D02*
X63255Y-48665D01*
X53745Y-48585D02*
X63255Y-48585D01*
X53745Y-48505D02*
X63255Y-48505D01*
X53745Y-48425D02*
X63255Y-48425D01*
X53745Y-48345D02*
X63255Y-48345D01*
X53745Y-48265D02*
X63255Y-48265D01*
X53745Y-48185D02*
X63255Y-48185D01*
X53745Y-48105D02*
X63255Y-48105D01*
X53745Y-48025D02*
X63255Y-48025D01*
X53745Y-47945D02*
X63255Y-47945D01*
X53745Y-47865D02*
X63255Y-47865D01*
X53745Y-47785D02*
X63255Y-47785D01*
X53745Y-47705D02*
X63255Y-47705D01*
X53745Y-47625D02*
X63255Y-47625D01*
X53745Y-47545D02*
X63255Y-47545D01*
X53745Y-47465D02*
X63255Y-47465D01*
X53745Y-47385D02*
X63255Y-47385D01*
X53745Y-47305D02*
X63255Y-47305D01*
X53745Y-47225D02*
X63255Y-47225D01*
X53745Y-47145D02*
X63255Y-47145D01*
X53745Y-47065D02*
X63255Y-47065D01*
X53745Y-46985D02*
X63255Y-46985D01*
X53745Y-46905D02*
X63255Y-46905D01*
X53745Y-46825D02*
X63255Y-46825D01*
X53745Y-46745D02*
X63255Y-46745D01*
X53745Y-46665D02*
X63255Y-46665D01*
X53745Y-46585D02*
X63255Y-46585D01*
X53745Y-46505D02*
X63255Y-46505D01*
X53745Y-46425D02*
X63255Y-46425D01*
X53745Y-46345D02*
X63255Y-46345D01*
X53745Y-46265D02*
X63255Y-46265D01*
X53745Y-46185D02*
X63255Y-46185D01*
X53745Y-46105D02*
X63255Y-46105D01*
X53745Y-46025D02*
X63255Y-46025D01*
X53745Y-45945D02*
X63255Y-45945D01*
X53745Y-45865D02*
X63255Y-45865D01*
X53745Y-45785D02*
X63255Y-45785D01*
X53745Y-45705D02*
X63255Y-45705D01*
X53745Y-45625D02*
X63255Y-45625D01*
X53745Y-45545D02*
X63255Y-45545D01*
X53745Y-45465D02*
X63255Y-45465D01*
X53745Y-45385D02*
X63255Y-45385D01*
X53745Y-45305D02*
X63255Y-45305D01*
X53745Y-45225D02*
X63255Y-45225D01*
X53745Y-45145D02*
X63255Y-45145D01*
X53745Y-45065D02*
X63255Y-45065D01*
X53745Y-44985D02*
X63255Y-44985D01*
X53745Y-44905D02*
X63255Y-44905D01*
X53745Y-44825D02*
X63255Y-44825D01*
X53745Y-44745D02*
X63255Y-44745D01*
X53745Y-44665D02*
X63255Y-44665D01*
X53745Y-44585D02*
X63255Y-44585D01*
X53745Y-44505D02*
X63255Y-44505D01*
X53745Y-44425D02*
X63255Y-44425D01*
X60680Y-44345D02*
X63255Y-44345D01*
X53745Y-44345D02*
X60318Y-44345D01*
X60873Y-44265D02*
X63255Y-44265D01*
X53745Y-44265D02*
X60126Y-44265D01*
X61016Y-44185D02*
X63255Y-44185D01*
X53745Y-44185D02*
X59983Y-44185D01*
X61096Y-44105D02*
X63255Y-44105D01*
X53745Y-44105D02*
X59903Y-44105D01*
X61176Y-44025D02*
X63255Y-44025D01*
X53745Y-44025D02*
X59823Y-44025D01*
X61235Y-43945D02*
X63255Y-43945D01*
X53745Y-43945D02*
X59764Y-43945D01*
X61268Y-43865D02*
X63255Y-43865D01*
X53745Y-43865D02*
X59731Y-43865D01*
X61302Y-43785D02*
X63255Y-43785D01*
X53745Y-43785D02*
X59698Y-43785D01*
X61335Y-43705D02*
X63255Y-43705D01*
X53745Y-43705D02*
X59665Y-43705D01*
X61350Y-43625D02*
X63255Y-43625D01*
X53745Y-43625D02*
X59650Y-43625D01*
X61350Y-43545D02*
X63255Y-43545D01*
X53745Y-43545D02*
X59650Y-43545D01*
X61350Y-43465D02*
X63255Y-43465D01*
X53745Y-43465D02*
X59650Y-43465D01*
X61350Y-43385D02*
X63255Y-43385D01*
X53745Y-43385D02*
X59650Y-43385D01*
X61339Y-43305D02*
X63255Y-43305D01*
X53745Y-43305D02*
X59661Y-43305D01*
X61306Y-43225D02*
X63255Y-43225D01*
X53745Y-43225D02*
X59694Y-43225D01*
X61273Y-43145D02*
X63255Y-43145D01*
X53745Y-43145D02*
X59728Y-43145D01*
X61240Y-43065D02*
X63255Y-43065D01*
X53745Y-43065D02*
X59761Y-43065D01*
X61187Y-42985D02*
X63255Y-42985D01*
X53745Y-42985D02*
X59814Y-42985D01*
X61107Y-42905D02*
X63255Y-42905D01*
X53745Y-42905D02*
X59894Y-42905D01*
X61027Y-42825D02*
X63255Y-42825D01*
X53745Y-42825D02*
X59974Y-42825D01*
X60898Y-42745D02*
X63255Y-42745D01*
X53745Y-42745D02*
X60102Y-42745D01*
X60706Y-42665D02*
X63255Y-42665D01*
X53745Y-42665D02*
X60294Y-42665D01*
X53745Y-42585D02*
X63255Y-42585D01*
X53745Y-42505D02*
X63255Y-42505D01*
X53745Y-42425D02*
X63255Y-42425D01*
X53745Y-42345D02*
X63255Y-42345D01*
X53745Y-42265D02*
X63255Y-42265D01*
X53745Y-42185D02*
X63255Y-42185D01*
X53745Y-42105D02*
X63255Y-42105D01*
X58977Y-42025D02*
X63255Y-42025D01*
X53745Y-42025D02*
X58023Y-42025D01*
X59044Y-41945D02*
X63255Y-41945D01*
X53745Y-41945D02*
X57955Y-41945D01*
X59074Y-41865D02*
X63255Y-41865D01*
X53745Y-41865D02*
X57926Y-41865D01*
X59074Y-41785D02*
X63255Y-41785D01*
X53745Y-41785D02*
X57926Y-41785D01*
X59074Y-41705D02*
X63255Y-41705D01*
X53745Y-41705D02*
X57926Y-41705D01*
X59074Y-41625D02*
X63255Y-41625D01*
X53745Y-41625D02*
X57926Y-41625D01*
X59074Y-41545D02*
X63255Y-41545D01*
X53745Y-41545D02*
X57926Y-41545D01*
X59074Y-41465D02*
X63255Y-41465D01*
X53745Y-41465D02*
X57926Y-41465D01*
X59074Y-41385D02*
X63255Y-41385D01*
X53745Y-41385D02*
X57926Y-41385D01*
X59074Y-41305D02*
X63255Y-41305D01*
X53745Y-41305D02*
X57926Y-41305D01*
X59074Y-41225D02*
X63255Y-41225D01*
X53745Y-41225D02*
X57926Y-41225D01*
X59074Y-41145D02*
X63255Y-41145D01*
X53745Y-41145D02*
X57926Y-41145D01*
X59049Y-41065D02*
X63255Y-41065D01*
X53745Y-41065D02*
X57952Y-41065D01*
X58987Y-40985D02*
X63255Y-40985D01*
X53745Y-40985D02*
X58013Y-40985D01*
X58822Y-40905D02*
X63255Y-40905D01*
X53745Y-40905D02*
X58177Y-40905D01*
X58754Y-40825D02*
X63255Y-40825D01*
X53745Y-40825D02*
X58246Y-40825D01*
X59010Y-40745D02*
X63255Y-40745D01*
X58674Y-40745D02*
X58816Y-40745D01*
X58184Y-40745D02*
X58326Y-40745D01*
X53745Y-40745D02*
X57987Y-40745D01*
X59038Y-40665D02*
X63255Y-40665D01*
X58594Y-40665D02*
X58736Y-40665D01*
X58264Y-40665D02*
X58406Y-40665D01*
X53745Y-40665D02*
X57954Y-40665D01*
X59067Y-40585D02*
X63255Y-40585D01*
X58514Y-40585D02*
X58656Y-40585D01*
X58344Y-40585D02*
X58486Y-40585D01*
X53745Y-40585D02*
X57941Y-40585D01*
X59064Y-40505D02*
X63255Y-40505D01*
X58424Y-40505D02*
X58576Y-40505D01*
X53745Y-40505D02*
X57936Y-40505D01*
X59060Y-40425D02*
X63255Y-40425D01*
X58504Y-40425D02*
X58646Y-40425D01*
X58354Y-40425D02*
X58496Y-40425D01*
X53745Y-40425D02*
X57932Y-40425D01*
X60680Y-40345D02*
X63255Y-40345D01*
X59050Y-40345D02*
X60318Y-40345D01*
X58584Y-40345D02*
X58726Y-40345D01*
X58274Y-40345D02*
X58416Y-40345D01*
X56680Y-40345D02*
X57958Y-40345D01*
X53745Y-40345D02*
X56318Y-40345D01*
X60873Y-40265D02*
X63255Y-40265D01*
X59017Y-40265D02*
X60126Y-40265D01*
X58664Y-40265D02*
X58806Y-40265D01*
X58194Y-40265D02*
X58336Y-40265D01*
X56873Y-40265D02*
X57987Y-40265D01*
X53745Y-40265D02*
X56126Y-40265D01*
X61016Y-40185D02*
X63255Y-40185D01*
X58930Y-40185D02*
X59983Y-40185D01*
X58744Y-40185D02*
X58886Y-40185D01*
X58114Y-40185D02*
X58256Y-40185D01*
X57016Y-40185D02*
X58071Y-40185D01*
X53745Y-40185D02*
X55983Y-40185D01*
X61096Y-40105D02*
X63255Y-40105D01*
X58824Y-40105D02*
X59903Y-40105D01*
X57096Y-40105D02*
X58176Y-40105D01*
X53745Y-40105D02*
X55903Y-40105D01*
X61176Y-40025D02*
X63255Y-40025D01*
X58802Y-40025D02*
X59823Y-40025D01*
X57176Y-40025D02*
X58199Y-40025D01*
X53745Y-40025D02*
X55823Y-40025D01*
X61235Y-39945D02*
X63255Y-39945D01*
X58621Y-39945D02*
X59764Y-39945D01*
X57235Y-39945D02*
X58359Y-39945D01*
X53745Y-39945D02*
X55764Y-39945D01*
X61268Y-39865D02*
X63255Y-39865D01*
X57268Y-39865D02*
X59731Y-39865D01*
X53745Y-39865D02*
X55731Y-39865D01*
X61302Y-39785D02*
X63255Y-39785D01*
X57302Y-39785D02*
X59698Y-39785D01*
X53745Y-39785D02*
X55698Y-39785D01*
X61335Y-39705D02*
X63255Y-39705D01*
X57335Y-39705D02*
X59665Y-39705D01*
X53745Y-39705D02*
X55665Y-39705D01*
X61350Y-39625D02*
X63255Y-39625D01*
X57350Y-39625D02*
X59650Y-39625D01*
X53745Y-39625D02*
X55650Y-39625D01*
X61350Y-39545D02*
X63255Y-39545D01*
X57350Y-39545D02*
X59650Y-39545D01*
X53745Y-39545D02*
X55650Y-39545D01*
X61350Y-39465D02*
X63255Y-39465D01*
X57350Y-39465D02*
X59650Y-39465D01*
X53745Y-39465D02*
X55650Y-39465D01*
X61350Y-39385D02*
X63255Y-39385D01*
X57350Y-39385D02*
X59650Y-39385D01*
X53745Y-39385D02*
X55650Y-39385D01*
X61339Y-39305D02*
X63255Y-39305D01*
X57339Y-39305D02*
X59661Y-39305D01*
X53745Y-39305D02*
X55661Y-39305D01*
X61306Y-39225D02*
X63255Y-39225D01*
X57306Y-39225D02*
X59694Y-39225D01*
X53745Y-39225D02*
X55694Y-39225D01*
X61273Y-39145D02*
X63255Y-39145D01*
X57273Y-39145D02*
X59728Y-39145D01*
X53745Y-39145D02*
X55728Y-39145D01*
X61240Y-39065D02*
X63255Y-39065D01*
X57240Y-39065D02*
X59761Y-39065D01*
X53745Y-39065D02*
X55761Y-39065D01*
X61187Y-38985D02*
X63255Y-38985D01*
X57187Y-38985D02*
X59814Y-38985D01*
X53745Y-38985D02*
X55814Y-38985D01*
X61107Y-38905D02*
X63255Y-38905D01*
X57107Y-38905D02*
X59894Y-38905D01*
X53745Y-38905D02*
X55894Y-38905D01*
X61027Y-38825D02*
X63255Y-38825D01*
X57027Y-38825D02*
X59974Y-38825D01*
X53745Y-38825D02*
X55974Y-38825D01*
X60898Y-38745D02*
X63255Y-38745D01*
X56898Y-38745D02*
X60103Y-38745D01*
X53745Y-38745D02*
X56103Y-38745D01*
X60706Y-38665D02*
X63255Y-38665D01*
X56706Y-38665D02*
X60296Y-38665D01*
X53745Y-38665D02*
X56296Y-38665D01*
X53745Y-38585D02*
X63255Y-38585D01*
X53745Y-38505D02*
X63255Y-38505D01*
X53745Y-38425D02*
X63255Y-38425D01*
X53745Y-38345D02*
X63255Y-38345D01*
X53745Y-38265D02*
X63255Y-38265D01*
X53745Y-38185D02*
X63255Y-38185D01*
X53745Y-38105D02*
X63255Y-38105D01*
X53745Y-38025D02*
X63255Y-38025D01*
X53745Y-37945D02*
X63255Y-37945D01*
X53745Y-37865D02*
X63255Y-37865D01*
X53745Y-37785D02*
X63255Y-37785D01*
X53745Y-37705D02*
X63255Y-37705D01*
X53745Y-37625D02*
X63255Y-37625D01*
X53745Y-37545D02*
X63255Y-37545D01*
X53745Y-37465D02*
X63255Y-37465D01*
X53745Y-37385D02*
X63255Y-37385D01*
X53745Y-37305D02*
X63255Y-37305D01*
X53745Y-37225D02*
X63255Y-37225D01*
X53745Y-37145D02*
X63255Y-37145D01*
X53745Y-37065D02*
X63255Y-37065D01*
X53745Y-36985D02*
X63255Y-36985D01*
X53745Y-36905D02*
X63255Y-36905D01*
X53745Y-36825D02*
X63255Y-36825D01*
X53745Y-36745D02*
X63255Y-36745D01*
X53745Y-36665D02*
X63255Y-36665D01*
X53745Y-36585D02*
X63255Y-36585D01*
X53745Y-36505D02*
X63255Y-36505D01*
X53745Y-36425D02*
X63255Y-36425D01*
X53745Y-36345D02*
X63255Y-36345D01*
X53745Y-36265D02*
X63255Y-36265D01*
X53745Y-36185D02*
X63255Y-36185D01*
X53745Y-36105D02*
X63255Y-36105D01*
X53745Y-36025D02*
X63255Y-36025D01*
X53745Y-35945D02*
X63255Y-35945D01*
X53745Y-35865D02*
X63255Y-35865D01*
X53745Y-35785D02*
X63255Y-35785D01*
X53745Y-35705D02*
X63255Y-35705D01*
X53745Y-35625D02*
X63255Y-35625D01*
X53745Y-35545D02*
X63255Y-35545D01*
X53745Y-35465D02*
X63255Y-35465D01*
X53745Y-35385D02*
X63255Y-35385D01*
X53745Y-35305D02*
X63255Y-35305D01*
X53745Y-35225D02*
X63255Y-35225D01*
X53745Y-35145D02*
X63255Y-35145D01*
X53745Y-35065D02*
X63255Y-35065D01*
X53745Y-34985D02*
X63255Y-34985D01*
X53745Y-34905D02*
X63255Y-34905D01*
X53745Y-34825D02*
X63255Y-34825D01*
X53745Y-34745D02*
X63255Y-34745D01*
X53745Y-34665D02*
X63255Y-34665D01*
X53745Y-34585D02*
X63255Y-34585D01*
X53745Y-34505D02*
X63255Y-34505D01*
X53745Y-34425D02*
X63255Y-34425D01*
X53745Y-34345D02*
X63255Y-34345D01*
X53745Y-34265D02*
X63255Y-34265D01*
X53745Y-34185D02*
X63255Y-34185D01*
X53745Y-34105D02*
X63255Y-34105D01*
X53745Y-34025D02*
X63255Y-34025D01*
X53745Y-33945D02*
X63255Y-33945D01*
X53745Y-33865D02*
X63255Y-33865D01*
X53745Y-33785D02*
X63255Y-33785D01*
X53745Y-33705D02*
X63255Y-33705D01*
X53745Y-33625D02*
X63255Y-33625D01*
X53745Y-33545D02*
X63255Y-33545D01*
X53745Y-33465D02*
X63255Y-33465D01*
X53745Y-33385D02*
X63255Y-33385D01*
X53745Y-33305D02*
X63255Y-33305D01*
X53745Y-33225D02*
X63255Y-33225D01*
X53745Y-33145D02*
X63255Y-33145D01*
X53745Y-33065D02*
X63255Y-33065D01*
X53745Y-32985D02*
X63255Y-32985D01*
X53745Y-32905D02*
X63255Y-32905D01*
X53745Y-32825D02*
X63255Y-32825D01*
X60037Y-32745D02*
X63255Y-32745D01*
X58771Y-32745D02*
X58963Y-32745D01*
X57790Y-32745D02*
X58234Y-32745D01*
X53745Y-32745D02*
X57208Y-32745D01*
X60093Y-32665D02*
X63255Y-32665D01*
X58839Y-32665D02*
X58907Y-32665D01*
X57904Y-32665D02*
X58159Y-32665D01*
X53745Y-32665D02*
X57095Y-32665D01*
X60114Y-32585D02*
X63255Y-32585D01*
X57984Y-32585D02*
X58186Y-32585D01*
X53745Y-32585D02*
X57015Y-32585D01*
X60114Y-32505D02*
X63255Y-32505D01*
X58124Y-32505D02*
X58266Y-32505D01*
X53745Y-32505D02*
X56961Y-32505D01*
X60114Y-32425D02*
X63255Y-32425D01*
X58204Y-32425D02*
X58346Y-32425D01*
X53745Y-32425D02*
X56927Y-32425D01*
X62704Y-32345D02*
X63255Y-32345D01*
X60114Y-32345D02*
X62294Y-32345D01*
X58284Y-32345D02*
X58426Y-32345D01*
X54704Y-32345D02*
X56894Y-32345D01*
X53745Y-32345D02*
X54294Y-32345D01*
X62898Y-32265D02*
X63255Y-32265D01*
X60114Y-32265D02*
X62101Y-32265D01*
X58364Y-32265D02*
X58506Y-32265D01*
X54898Y-32265D02*
X56885Y-32265D01*
X53745Y-32265D02*
X54101Y-32265D01*
X63030Y-32185D02*
X63255Y-32185D01*
X60114Y-32185D02*
X61970Y-32185D01*
X58415Y-32185D02*
X58556Y-32185D01*
X55030Y-32185D02*
X56885Y-32185D01*
X53745Y-32185D02*
X53970Y-32185D01*
X63110Y-32105D02*
X63255Y-32105D01*
X60114Y-32105D02*
X61890Y-32105D01*
X58335Y-32105D02*
X58475Y-32105D01*
X55110Y-32105D02*
X56885Y-32105D01*
X53745Y-32105D02*
X53890Y-32105D01*
X63190Y-32025D02*
X63255Y-32025D01*
X60114Y-32025D02*
X61810Y-32025D01*
X58255Y-32025D02*
X58395Y-32025D01*
X55190Y-32025D02*
X56907Y-32025D01*
X53745Y-32025D02*
X53810Y-32025D01*
X63245Y-31945D02*
X63255Y-31945D01*
X60114Y-31945D02*
X61754Y-31945D01*
X58175Y-31945D02*
X58315Y-31945D01*
X55245Y-31945D02*
X56940Y-31945D01*
X53745Y-31945D02*
X53754Y-31945D01*
X60114Y-31865D02*
X61721Y-31865D01*
X58095Y-31865D02*
X58235Y-31865D01*
X55278Y-31865D02*
X56974Y-31865D01*
X60114Y-31785D02*
X61688Y-31785D01*
X57955Y-31785D02*
X58155Y-31785D01*
X55312Y-31785D02*
X57046Y-31785D01*
X60081Y-31705D02*
X61655Y-31705D01*
X57875Y-31705D02*
X58170Y-31705D01*
X55345Y-31705D02*
X57126Y-31705D01*
X60007Y-31625D02*
X61641Y-31625D01*
X57803Y-31625D02*
X58197Y-31625D01*
X55359Y-31625D02*
X57197Y-31625D01*
X59883Y-31545D02*
X61641Y-31545D01*
X57883Y-31545D02*
X58117Y-31545D01*
X55359Y-31545D02*
X57117Y-31545D01*
X59947Y-31465D02*
X61641Y-31465D01*
X57947Y-31465D02*
X58052Y-31465D01*
X55359Y-31465D02*
X57052Y-31465D01*
X59980Y-31385D02*
X61641Y-31385D01*
X57980Y-31385D02*
X58019Y-31385D01*
X55359Y-31385D02*
X57019Y-31385D01*
X60014Y-31305D02*
X61651Y-31305D01*
X55349Y-31305D02*
X56986Y-31305D01*
X60015Y-31225D02*
X61684Y-31225D01*
X55316Y-31225D02*
X56985Y-31225D01*
X60015Y-31145D02*
X61718Y-31145D01*
X55283Y-31145D02*
X56985Y-31145D01*
X60002Y-31065D02*
X61751Y-31065D01*
X55250Y-31065D02*
X56999Y-31065D01*
X59969Y-30985D02*
X61800Y-30985D01*
X55200Y-30985D02*
X57032Y-30985D01*
X59933Y-30905D02*
X61880Y-30905D01*
X55120Y-30905D02*
X57067Y-30905D01*
X59853Y-30825D02*
X61960Y-30825D01*
X55040Y-30825D02*
X57147Y-30825D01*
X59746Y-30745D02*
X62077Y-30745D01*
X54922Y-30745D02*
X57252Y-30745D01*
X62077Y-52255D02*
X62013Y-52228D01*
X62013Y-52228D02*
X61771Y-51986D01*
X61771Y-51986D02*
X61697Y-51806D01*
X61697Y-51806D02*
X61685Y-51835D01*
X61685Y-51835D02*
X61464Y-52056D01*
X61464Y-52056D02*
X61175Y-52175D01*
X61175Y-52175D02*
X60863Y-52175D01*
X60863Y-52175D02*
X60575Y-52055D01*
X60575Y-52055D02*
X60354Y-51834D01*
X60354Y-51834D02*
X60235Y-51545D01*
X60235Y-51545D02*
X60235Y-51233D01*
X60235Y-51233D02*
X60355Y-50945D01*
X60355Y-50945D02*
X60576Y-50724D01*
X60576Y-50724D02*
X60865Y-50605D01*
X60865Y-50605D02*
X61177Y-50605D01*
X61177Y-50605D02*
X61465Y-50725D01*
X61465Y-50725D02*
X61686Y-50946D01*
X61686Y-50946D02*
X61742Y-51083D01*
X61742Y-51083D02*
X61772Y-51013D01*
X61772Y-51013D02*
X62014Y-50771D01*
X62014Y-50771D02*
X62330Y-50641D01*
X62330Y-50641D02*
X62672Y-50641D01*
X62672Y-50641D02*
X62987Y-50772D01*
X62987Y-50772D02*
X63229Y-51014D01*
X63229Y-51014D02*
X63255Y-51077D01*
X63255Y-51077D02*
X63255Y-31922D01*
X63255Y-31922D02*
X63228Y-31987D01*
X63228Y-31987D02*
X62986Y-32229D01*
X62986Y-32229D02*
X62670Y-32359D01*
X62670Y-32359D02*
X62328Y-32359D01*
X62328Y-32359D02*
X62013Y-32228D01*
X62013Y-32228D02*
X61771Y-31986D01*
X61771Y-31986D02*
X61641Y-31670D01*
X61641Y-31670D02*
X61641Y-31328D01*
X61641Y-31328D02*
X61772Y-31013D01*
X61772Y-31013D02*
X62014Y-30771D01*
X62014Y-30771D02*
X62077Y-30745D01*
X62077Y-30745D02*
X59746Y-30745D01*
X59746Y-30745D02*
X59792Y-30764D01*
X59792Y-30764D02*
X59937Y-30909D01*
X59937Y-30909D02*
X60015Y-31098D01*
X60015Y-31098D02*
X60015Y-31303D01*
X60015Y-31303D02*
X59936Y-31492D01*
X59936Y-31492D02*
X59842Y-31586D01*
X59842Y-31586D02*
X59915Y-31586D01*
X59915Y-31586D02*
X60006Y-31624D01*
X60006Y-31624D02*
X60076Y-31694D01*
X60076Y-31694D02*
X60114Y-31786D01*
X60114Y-31786D02*
X60114Y-32615D01*
X60114Y-32615D02*
X60076Y-32706D01*
X60076Y-32706D02*
X60006Y-32776D01*
X60006Y-32776D02*
X59914Y-32814D01*
X59914Y-32814D02*
X59085Y-32814D01*
X59085Y-32814D02*
X58994Y-32776D01*
X58994Y-32776D02*
X58924Y-32706D01*
X58924Y-32706D02*
X58890Y-32624D01*
X58890Y-32624D02*
X58872Y-32643D01*
X58872Y-32643D02*
X58853Y-32624D01*
X58853Y-32624D02*
X58820Y-32725D01*
X58820Y-32725D02*
X58644Y-32797D01*
X58644Y-32797D02*
X58405Y-32807D01*
X58405Y-32807D02*
X58180Y-32725D01*
X58180Y-32725D02*
X58146Y-32624D01*
X58146Y-32624D02*
X58500Y-32271D01*
X58500Y-32271D02*
X58571Y-32200D01*
X58571Y-32200D02*
X58500Y-32129D01*
X58500Y-32129D02*
X58146Y-31776D01*
X58146Y-31776D02*
X58180Y-31675D01*
X58180Y-31675D02*
X58241Y-31649D01*
X58241Y-31649D02*
X58208Y-31636D01*
X58208Y-31636D02*
X58063Y-31491D01*
X58063Y-31491D02*
X58000Y-31338D01*
X58000Y-31338D02*
X57936Y-31492D01*
X57936Y-31492D02*
X57791Y-31637D01*
X57791Y-31637D02*
X57769Y-31645D01*
X57769Y-31645D02*
X57849Y-31679D01*
X57849Y-31679D02*
X58021Y-31852D01*
X58021Y-31852D02*
X58025Y-31862D01*
X58025Y-31862D02*
X58076Y-31846D01*
X58076Y-31846D02*
X58429Y-32200D01*
X58429Y-32200D02*
X58076Y-32554D01*
X58076Y-32554D02*
X58025Y-32537D01*
X58025Y-32537D02*
X58021Y-32549D01*
X58021Y-32549D02*
X57848Y-32721D01*
X57848Y-32721D02*
X57622Y-32815D01*
X57622Y-32815D02*
X57377Y-32815D01*
X57377Y-32815D02*
X57151Y-32721D01*
X57151Y-32721D02*
X56979Y-32548D01*
X56979Y-32548D02*
X56885Y-32322D01*
X56885Y-32322D02*
X56885Y-32077D01*
X56885Y-32077D02*
X56979Y-31851D01*
X56979Y-31851D02*
X57152Y-31679D01*
X57152Y-31679D02*
X57231Y-31645D01*
X57231Y-31645D02*
X57208Y-31636D01*
X57208Y-31636D02*
X57063Y-31491D01*
X57063Y-31491D02*
X56985Y-31302D01*
X56985Y-31302D02*
X56985Y-31097D01*
X56985Y-31097D02*
X57064Y-30908D01*
X57064Y-30908D02*
X57209Y-30763D01*
X57209Y-30763D02*
X57252Y-30745D01*
X57252Y-30745D02*
X54922Y-30745D01*
X54922Y-30745D02*
X54987Y-30772D01*
X54987Y-30772D02*
X55229Y-31014D01*
X55229Y-31014D02*
X55359Y-31330D01*
X55359Y-31330D02*
X55359Y-31672D01*
X55359Y-31672D02*
X55228Y-31987D01*
X55228Y-31987D02*
X54986Y-32229D01*
X54986Y-32229D02*
X54670Y-32359D01*
X54670Y-32359D02*
X54328Y-32359D01*
X54328Y-32359D02*
X54013Y-32228D01*
X54013Y-32228D02*
X53771Y-31986D01*
X53771Y-31986D02*
X53745Y-31922D01*
X53745Y-31922D02*
X53745Y-51077D01*
X53745Y-51077D02*
X53772Y-51013D01*
X53772Y-51013D02*
X54014Y-50771D01*
X54014Y-50771D02*
X54330Y-50641D01*
X54330Y-50641D02*
X54672Y-50641D01*
X54672Y-50641D02*
X54987Y-50772D01*
X54987Y-50772D02*
X55229Y-51014D01*
X55229Y-51014D02*
X55265Y-51102D01*
X55265Y-51102D02*
X55317Y-50970D01*
X55317Y-50970D02*
X55435Y-50916D01*
X55435Y-50916D02*
X55909Y-51390D01*
X55909Y-51390D02*
X55435Y-51864D01*
X55435Y-51864D02*
X55317Y-51810D01*
X55317Y-51810D02*
X55309Y-51791D01*
X55309Y-51791D02*
X55228Y-51987D01*
X55228Y-51987D02*
X54986Y-52229D01*
X54986Y-52229D02*
X54922Y-52255D01*
X54922Y-52255D02*
X55846Y-52255D01*
X55846Y-52255D02*
X55846Y-52164D01*
X55846Y-52164D02*
X55560Y-52053D01*
X55560Y-52053D02*
X55506Y-51935D01*
X55506Y-51935D02*
X55980Y-51461D01*
X55980Y-51461D02*
X55980Y-51319D01*
X55980Y-51319D02*
X55506Y-50845D01*
X55506Y-50845D02*
X55560Y-50727D01*
X55560Y-50727D02*
X55808Y-50624D01*
X55808Y-50624D02*
X56114Y-50616D01*
X56114Y-50616D02*
X56400Y-50727D01*
X56400Y-50727D02*
X56454Y-50845D01*
X56454Y-50845D02*
X55980Y-51319D01*
X55980Y-51319D02*
X55980Y-51461D01*
X55980Y-51461D02*
X56454Y-51935D01*
X56454Y-51935D02*
X56400Y-52053D01*
X56400Y-52053D02*
X56152Y-52156D01*
X56152Y-52156D02*
X55846Y-52164D01*
X55846Y-52164D02*
X55846Y-52255D01*
X55846Y-52255D02*
X56525Y-52255D01*
X56525Y-52255D02*
X56525Y-51864D01*
X56525Y-51864D02*
X56051Y-51390D01*
X56051Y-51390D02*
X56525Y-50916D01*
X56525Y-50916D02*
X56624Y-50961D01*
X56624Y-50961D02*
X56624Y-50000D01*
X56624Y-50000D02*
X56429Y-49919D01*
X56429Y-49919D02*
X56281Y-49770D01*
X56281Y-49770D02*
X56200Y-49575D01*
X56200Y-49575D02*
X56200Y-49364D01*
X56200Y-49364D02*
X56281Y-49169D01*
X56281Y-49169D02*
X56330Y-49120D01*
X56330Y-49120D02*
X56330Y-40350D01*
X56330Y-40350D02*
X56018Y-40220D01*
X56018Y-40220D02*
X55779Y-39980D01*
X55779Y-39980D02*
X55650Y-39668D01*
X55650Y-39668D02*
X55650Y-39330D01*
X55650Y-39330D02*
X55780Y-39018D01*
X55780Y-39018D02*
X56020Y-38779D01*
X56020Y-38779D02*
X56332Y-38650D01*
X56332Y-38650D02*
X56670Y-38650D01*
X56670Y-38650D02*
X56982Y-38780D01*
X56982Y-38780D02*
X57221Y-39020D01*
X57221Y-39020D02*
X57350Y-39332D01*
X57350Y-39332D02*
X57350Y-39670D01*
X57350Y-39670D02*
X57220Y-39982D01*
X57220Y-39982D02*
X56980Y-40221D01*
X56980Y-40221D02*
X56668Y-40350D01*
X56668Y-40350D02*
X56330Y-40350D01*
X56330Y-40350D02*
X56330Y-49120D01*
X56330Y-49120D02*
X56430Y-49021D01*
X56430Y-49021D02*
X56625Y-48940D01*
X56625Y-48940D02*
X56836Y-48940D01*
X56836Y-48940D02*
X57031Y-49021D01*
X57031Y-49021D02*
X57111Y-49102D01*
X57111Y-49102D02*
X57125Y-49089D01*
X57125Y-49089D02*
X57142Y-49106D01*
X57142Y-49106D02*
X57166Y-49014D01*
X57166Y-49014D02*
X57303Y-48957D01*
X57303Y-48957D02*
X57509Y-48946D01*
X57509Y-48946D02*
X57704Y-49014D01*
X57704Y-49014D02*
X57728Y-49106D01*
X57728Y-49106D02*
X57435Y-49399D01*
X57435Y-49399D02*
X57364Y-49470D01*
X57364Y-49470D02*
X57435Y-49541D01*
X57435Y-49541D02*
X57728Y-49834D01*
X57728Y-49834D02*
X57704Y-49926D01*
X57704Y-49926D02*
X57567Y-49983D01*
X57567Y-49983D02*
X57361Y-49994D01*
X57361Y-49994D02*
X57166Y-49926D01*
X57166Y-49926D02*
X57142Y-49834D01*
X57142Y-49834D02*
X57125Y-49851D01*
X57125Y-49851D02*
X57111Y-49837D01*
X57111Y-49837D02*
X57030Y-49919D01*
X57030Y-49919D02*
X56835Y-50000D01*
X56835Y-50000D02*
X56624Y-50000D01*
X56624Y-50000D02*
X56624Y-50961D01*
X56624Y-50961D02*
X56643Y-50970D01*
X56643Y-50970D02*
X56746Y-51218D01*
X56746Y-51218D02*
X56754Y-51524D01*
X56754Y-51524D02*
X56643Y-51810D01*
X56643Y-51810D02*
X56525Y-51864D01*
X56525Y-51864D02*
X56525Y-52255D01*
X56525Y-52255D02*
X57361Y-52255D01*
X57361Y-52255D02*
X58343Y-52255D01*
X58343Y-52255D02*
X58343Y-51905D01*
X58343Y-51905D02*
X58055Y-51785D01*
X58055Y-51785D02*
X57834Y-51564D01*
X57834Y-51564D02*
X57715Y-51275D01*
X57715Y-51275D02*
X57715Y-50963D01*
X57715Y-50963D02*
X57799Y-50761D01*
X57799Y-50761D02*
X57799Y-49763D01*
X57799Y-49763D02*
X57506Y-49470D01*
X57506Y-49470D02*
X57799Y-49177D01*
X57799Y-49177D02*
X57891Y-49201D01*
X57891Y-49201D02*
X57948Y-49338D01*
X57948Y-49338D02*
X57959Y-49544D01*
X57959Y-49544D02*
X57891Y-49739D01*
X57891Y-49739D02*
X57799Y-49763D01*
X57799Y-49763D02*
X57799Y-50761D01*
X57799Y-50761D02*
X57835Y-50675D01*
X57835Y-50675D02*
X58056Y-50454D01*
X58056Y-50454D02*
X58125Y-50425D01*
X58125Y-50425D02*
X58125Y-42074D01*
X58125Y-42074D02*
X58034Y-42036D01*
X58034Y-42036D02*
X57964Y-41966D01*
X57964Y-41966D02*
X57926Y-41874D01*
X57926Y-41874D02*
X57926Y-41125D01*
X57926Y-41125D02*
X57964Y-41034D01*
X57964Y-41034D02*
X58034Y-40964D01*
X58034Y-40964D02*
X58104Y-40935D01*
X58104Y-40935D02*
X58104Y-40825D01*
X58104Y-40825D02*
X58008Y-40796D01*
X58008Y-40796D02*
X57944Y-40639D01*
X57944Y-40639D02*
X57932Y-40416D01*
X57932Y-40416D02*
X58008Y-40204D01*
X58008Y-40204D02*
X58104Y-40175D01*
X58104Y-40175D02*
X58429Y-40500D01*
X58429Y-40500D02*
X58104Y-40825D01*
X58104Y-40825D02*
X58104Y-40935D01*
X58104Y-40935D02*
X58126Y-40926D01*
X58126Y-40926D02*
X58184Y-40926D01*
X58184Y-40926D02*
X58175Y-40896D01*
X58175Y-40896D02*
X58500Y-40571D01*
X58500Y-40571D02*
X58500Y-40429D01*
X58500Y-40429D02*
X58175Y-40104D01*
X58175Y-40104D02*
X58204Y-40008D01*
X58204Y-40008D02*
X58361Y-39944D01*
X58361Y-39944D02*
X58405Y-39941D01*
X58405Y-39941D02*
X58584Y-39932D01*
X58584Y-39932D02*
X58796Y-40008D01*
X58796Y-40008D02*
X58825Y-40104D01*
X58825Y-40104D02*
X58500Y-40429D01*
X58500Y-40429D02*
X58500Y-40571D01*
X58500Y-40571D02*
X58825Y-40896D01*
X58825Y-40896D02*
X58815Y-40926D01*
X58815Y-40926D02*
X58875Y-40926D01*
X58875Y-40926D02*
X58896Y-40934D01*
X58896Y-40934D02*
X58896Y-40825D01*
X58896Y-40825D02*
X58571Y-40500D01*
X58571Y-40500D02*
X58896Y-40175D01*
X58896Y-40175D02*
X58992Y-40204D01*
X58992Y-40204D02*
X59056Y-40361D01*
X59056Y-40361D02*
X59068Y-40584D01*
X59068Y-40584D02*
X58992Y-40796D01*
X58992Y-40796D02*
X58896Y-40825D01*
X58896Y-40825D02*
X58896Y-40934D01*
X58896Y-40934D02*
X58966Y-40964D01*
X58966Y-40964D02*
X59036Y-41034D01*
X59036Y-41034D02*
X59074Y-41126D01*
X59074Y-41126D02*
X59074Y-41875D01*
X59074Y-41875D02*
X59036Y-41966D01*
X59036Y-41966D02*
X58966Y-42036D01*
X58966Y-42036D02*
X58874Y-42074D01*
X58874Y-42074D02*
X58125Y-42074D01*
X58125Y-42074D02*
X58125Y-50425D01*
X58125Y-50425D02*
X58345Y-50335D01*
X58345Y-50335D02*
X58657Y-50335D01*
X58657Y-50335D02*
X58945Y-50455D01*
X58945Y-50455D02*
X59166Y-50676D01*
X59166Y-50676D02*
X59285Y-50965D01*
X59285Y-50965D02*
X59285Y-51277D01*
X59285Y-51277D02*
X59165Y-51565D01*
X59165Y-51565D02*
X58944Y-51786D01*
X58944Y-51786D02*
X58655Y-51905D01*
X58655Y-51905D02*
X58343Y-51905D01*
X58343Y-51905D02*
X58343Y-52255D01*
X58343Y-52255D02*
X60164Y-52255D01*
X60164Y-52255D02*
X60164Y-50000D01*
X60164Y-50000D02*
X60010Y-49936D01*
X60010Y-49936D02*
X59986Y-49961D01*
X59986Y-49961D02*
X59894Y-49999D01*
X59894Y-49999D02*
X59235Y-49999D01*
X59235Y-49999D02*
X59144Y-49961D01*
X59144Y-49961D02*
X59074Y-49891D01*
X59074Y-49891D02*
X59036Y-49799D01*
X59036Y-49799D02*
X59036Y-49140D01*
X59036Y-49140D02*
X59074Y-49049D01*
X59074Y-49049D02*
X59144Y-48979D01*
X59144Y-48979D02*
X59236Y-48941D01*
X59236Y-48941D02*
X59895Y-48941D01*
X59895Y-48941D02*
X59986Y-48979D01*
X59986Y-48979D02*
X60010Y-49003D01*
X60010Y-49003D02*
X60165Y-48940D01*
X60165Y-48940D02*
X60330Y-48940D01*
X60330Y-48940D02*
X60330Y-44350D01*
X60330Y-44350D02*
X60018Y-44220D01*
X60018Y-44220D02*
X59779Y-43980D01*
X59779Y-43980D02*
X59650Y-43668D01*
X59650Y-43668D02*
X59650Y-43330D01*
X59650Y-43330D02*
X59780Y-43018D01*
X59780Y-43018D02*
X60020Y-42779D01*
X60020Y-42779D02*
X60330Y-42650D01*
X60330Y-42650D02*
X60330Y-40350D01*
X60330Y-40350D02*
X60018Y-40220D01*
X60018Y-40220D02*
X59779Y-39980D01*
X59779Y-39980D02*
X59650Y-39668D01*
X59650Y-39668D02*
X59650Y-39330D01*
X59650Y-39330D02*
X59780Y-39018D01*
X59780Y-39018D02*
X60020Y-38779D01*
X60020Y-38779D02*
X60332Y-38650D01*
X60332Y-38650D02*
X60670Y-38650D01*
X60670Y-38650D02*
X60982Y-38780D01*
X60982Y-38780D02*
X61221Y-39020D01*
X61221Y-39020D02*
X61350Y-39332D01*
X61350Y-39332D02*
X61350Y-39670D01*
X61350Y-39670D02*
X61220Y-39982D01*
X61220Y-39982D02*
X60980Y-40221D01*
X60980Y-40221D02*
X60668Y-40350D01*
X60668Y-40350D02*
X60330Y-40350D01*
X60330Y-40350D02*
X60330Y-42650D01*
X60330Y-42650D02*
X60670Y-42650D01*
X60670Y-42650D02*
X60982Y-42780D01*
X60982Y-42780D02*
X61221Y-43020D01*
X61221Y-43020D02*
X61350Y-43332D01*
X61350Y-43332D02*
X61350Y-43670D01*
X61350Y-43670D02*
X61220Y-43982D01*
X61220Y-43982D02*
X60980Y-44221D01*
X60980Y-44221D02*
X60668Y-44350D01*
X60668Y-44350D02*
X60330Y-44350D01*
X60330Y-44350D02*
X60330Y-48940D01*
X60330Y-48940D02*
X60376Y-48940D01*
X60376Y-48940D02*
X60571Y-49021D01*
X60571Y-49021D02*
X60719Y-49170D01*
X60719Y-49170D02*
X60800Y-49365D01*
X60800Y-49365D02*
X60800Y-49576D01*
X60800Y-49576D02*
X60719Y-49771D01*
X60719Y-49771D02*
X60570Y-49919D01*
X60570Y-49919D02*
X60375Y-50000D01*
X60375Y-50000D02*
X60164Y-50000D01*
X60164Y-50000D02*
X60164Y-52255D01*
X60164Y-52255D02*
X62077Y-52255D01*
M02*
