G04 (created by PCBNEW-RS274X (2011-05-25)-stable) date Fri 04 Oct 2013 02:44:26 PM EDT*
G01*
G70*
G90*
%MOIN*%
G04 Gerber Fmt 3.4, Leading zero omitted, Abs format*
%FSLAX34Y34*%
G04 APERTURE LIST*
%ADD10C,0.006000*%
%ADD11C,0.009000*%
%ADD12C,0.107000*%
%ADD13C,0.056000*%
%ADD14R,0.056000X0.056000*%
%ADD15C,0.160000*%
%ADD16R,0.100000X0.050000*%
%ADD17C,0.060000*%
%ADD18R,0.050000X0.100000*%
%ADD19C,0.200000*%
%ADD20C,0.080000*%
%ADD21C,0.076000*%
%ADD22C,0.140000*%
%ADD23C,0.120000*%
%ADD24R,0.065000X0.065000*%
%ADD25C,0.065000*%
%ADD26C,0.073000*%
%ADD27R,0.073000X0.073000*%
%ADD28R,0.075000X0.170000*%
%ADD29C,0.135000*%
%ADD30R,0.060000X0.025000*%
%ADD31C,0.046000*%
%ADD32C,0.035000*%
%ADD33C,0.036000*%
%ADD34C,0.024000*%
%ADD35C,0.010000*%
G04 APERTURE END LIST*
G54D10*
G54D11*
X29500Y-30500D02*
X29500Y-53000D01*
X72000Y-30500D02*
X29500Y-30500D01*
X72000Y-53000D02*
X72000Y-30500D01*
X29500Y-53000D02*
X72000Y-53000D01*
G54D12*
X71090Y-44270D03*
X71090Y-39230D03*
G54D13*
X69170Y-43520D03*
X69170Y-39980D03*
X69170Y-42815D03*
G54D14*
X69170Y-40685D03*
G54D12*
X70820Y-41750D03*
G54D15*
X30750Y-51750D03*
X40750Y-51750D03*
X30750Y-31750D03*
G54D16*
X48250Y-45150D03*
X48250Y-46350D03*
X43750Y-46350D03*
X43750Y-45150D03*
G54D15*
X60750Y-51750D03*
X70750Y-31750D03*
X70750Y-51750D03*
G54D16*
X42000Y-46350D03*
X42000Y-45150D03*
X43750Y-48650D03*
X43750Y-49850D03*
G54D17*
X44500Y-42500D03*
X43500Y-42500D03*
X40500Y-42500D03*
X39500Y-42500D03*
X47500Y-42500D03*
X48500Y-42500D03*
X51500Y-42500D03*
X52500Y-42500D03*
X38500Y-33500D03*
X39500Y-33500D03*
X40500Y-33500D03*
X41500Y-33500D03*
X42500Y-33500D03*
X43500Y-33500D03*
X44500Y-33500D03*
X45500Y-33500D03*
X46500Y-33500D03*
X47500Y-33500D03*
X48500Y-33500D03*
X49500Y-33500D03*
G54D18*
X66650Y-43500D03*
X67850Y-43500D03*
G54D16*
X58500Y-46100D03*
X58500Y-44900D03*
G54D18*
X45400Y-47500D03*
X46600Y-47500D03*
G54D16*
X46000Y-48650D03*
X46000Y-49850D03*
X55000Y-46350D03*
X55000Y-45150D03*
X50000Y-45150D03*
X50000Y-46350D03*
X37000Y-45150D03*
X37000Y-46350D03*
G54D18*
X58350Y-39000D03*
X57150Y-39000D03*
X66650Y-40500D03*
X67850Y-40500D03*
G54D16*
X48250Y-49850D03*
X48250Y-48650D03*
G54D18*
X66650Y-42000D03*
X67850Y-42000D03*
G54D19*
X41670Y-48000D03*
X37330Y-48000D03*
G54D20*
X39500Y-44060D03*
X40980Y-44060D03*
X38020Y-44060D03*
G54D19*
X54670Y-48000D03*
X50330Y-48000D03*
G54D20*
X52500Y-44060D03*
X53980Y-44060D03*
X51020Y-44060D03*
G54D15*
X40750Y-31750D03*
G54D18*
X57150Y-34000D03*
X58350Y-34000D03*
X58350Y-36000D03*
X57150Y-36000D03*
X57150Y-42000D03*
X58350Y-42000D03*
G54D21*
X30930Y-41750D03*
G54D22*
X32110Y-41750D03*
G54D15*
X34470Y-41750D03*
G54D22*
X31720Y-39980D03*
X31720Y-43520D03*
G54D23*
X30750Y-38250D03*
X30750Y-34250D03*
G54D24*
X32750Y-36250D03*
G54D25*
X32750Y-37250D03*
G54D23*
X34750Y-38250D03*
X30750Y-49250D03*
X30750Y-45250D03*
G54D24*
X32750Y-47250D03*
G54D25*
X32750Y-48250D03*
G54D23*
X34750Y-49250D03*
G54D26*
X66750Y-50500D03*
X65750Y-50500D03*
G54D27*
X67750Y-50500D03*
G54D26*
X64750Y-50500D03*
X63750Y-50500D03*
G54D15*
X60750Y-31750D03*
G54D28*
X34950Y-45750D03*
X32050Y-45750D03*
G54D29*
X37000Y-39000D03*
X37000Y-37000D03*
X55000Y-34000D03*
X55000Y-36000D03*
X55000Y-39000D03*
X55000Y-42000D03*
G54D30*
X61300Y-41500D03*
X61300Y-41000D03*
X61300Y-40500D03*
X61300Y-40000D03*
X61300Y-39500D03*
X61300Y-39000D03*
X61300Y-38500D03*
X63700Y-38500D03*
X63700Y-39000D03*
X63700Y-39500D03*
X63700Y-40000D03*
X63700Y-40500D03*
X63700Y-41000D03*
X63700Y-41500D03*
G54D31*
X45923Y-45507D03*
X44305Y-48046D03*
X66045Y-39980D03*
X43455Y-47048D03*
X45817Y-50452D03*
X54855Y-49925D03*
G54D32*
X59669Y-47603D03*
X62755Y-37670D03*
X56559Y-44093D03*
G54D31*
X59399Y-44997D03*
G54D32*
X47131Y-47679D03*
X58024Y-45556D03*
X46600Y-46562D03*
G54D31*
X48103Y-44562D03*
X61991Y-40071D03*
X43647Y-49245D03*
X61991Y-46984D03*
G54D33*
X45923Y-46177D02*
X45923Y-45507D01*
X45400Y-46700D02*
X45923Y-46177D01*
X45400Y-47100D02*
X45400Y-46700D01*
X57150Y-42000D02*
X56600Y-42000D01*
X54916Y-41916D02*
X55000Y-42000D01*
X46916Y-41916D02*
X54916Y-41916D01*
X38500Y-33500D02*
X46916Y-41916D01*
X55000Y-42000D02*
X56600Y-42000D01*
X45400Y-47100D02*
X45400Y-47500D01*
X45400Y-47500D02*
X45400Y-48050D01*
X45396Y-48046D02*
X45400Y-48050D01*
X44305Y-48046D02*
X45396Y-48046D01*
X45450Y-48100D02*
X46000Y-48100D01*
X45400Y-48050D02*
X45450Y-48100D01*
X46000Y-48650D02*
X46000Y-48100D01*
X55000Y-36000D02*
X57150Y-36000D01*
X43750Y-46350D02*
X43750Y-46625D01*
X66650Y-40500D02*
X66100Y-40500D01*
X66100Y-40035D02*
X66045Y-39980D01*
X66100Y-40500D02*
X66100Y-40035D01*
X64320Y-39980D02*
X66045Y-39980D01*
X64300Y-40000D02*
X64320Y-39980D01*
X63700Y-40000D02*
X64300Y-40000D01*
X47923Y-50452D02*
X45817Y-50452D01*
X48250Y-50125D02*
X47923Y-50452D01*
X43455Y-46920D02*
X43455Y-47048D01*
X43750Y-46625D02*
X43455Y-46920D01*
X41115Y-49665D02*
X42966Y-49665D01*
X37800Y-46350D02*
X41115Y-49665D01*
X42966Y-47537D02*
X42966Y-49665D01*
X43455Y-47048D02*
X42966Y-47537D01*
X43067Y-50452D02*
X45817Y-50452D01*
X42966Y-50351D02*
X43067Y-50452D01*
X42966Y-49665D02*
X42966Y-50351D01*
X37000Y-46350D02*
X37800Y-46350D01*
X48250Y-49850D02*
X48250Y-49987D01*
X48250Y-49987D02*
X48250Y-50125D01*
X54793Y-49987D02*
X54855Y-49925D01*
X48250Y-49987D02*
X54793Y-49987D01*
G54D34*
X61300Y-41000D02*
X61570Y-41000D01*
X61570Y-41500D02*
X61570Y-41000D01*
X61300Y-41500D02*
X61435Y-41500D01*
X61435Y-41500D02*
X61570Y-41500D01*
X64080Y-47830D02*
X66750Y-50500D01*
X62141Y-47830D02*
X64080Y-47830D01*
X61435Y-47124D02*
X62141Y-47830D01*
X61435Y-41500D02*
X61435Y-47124D01*
X61300Y-38500D02*
X60760Y-38500D01*
X61300Y-39000D02*
X60760Y-39000D01*
X60760Y-38500D02*
X60760Y-39000D01*
X60110Y-47162D02*
X59669Y-47603D01*
X60110Y-39650D02*
X60110Y-47162D01*
X60760Y-39000D02*
X60110Y-39650D01*
X63700Y-39000D02*
X63160Y-39000D01*
X63700Y-38500D02*
X63160Y-38500D01*
X63160Y-39000D02*
X63160Y-38500D01*
X62755Y-38095D02*
X62755Y-37670D01*
X63160Y-38500D02*
X62755Y-38095D01*
X66650Y-42000D02*
X66650Y-43500D01*
X60760Y-39500D02*
X60760Y-40500D01*
X61300Y-40500D02*
X60760Y-40500D01*
X66650Y-42000D02*
X66650Y-41260D01*
X61300Y-39500D02*
X60760Y-39500D01*
X63160Y-39500D02*
X61300Y-39500D01*
X63700Y-39500D02*
X63160Y-39500D01*
X67055Y-41260D02*
X66650Y-41260D01*
X67124Y-41191D02*
X67055Y-41260D01*
X67124Y-39732D02*
X67124Y-41191D01*
X66892Y-39500D02*
X67124Y-39732D01*
X63700Y-39500D02*
X66892Y-39500D01*
X55902Y-43436D02*
X56559Y-44093D01*
X51905Y-43436D02*
X55902Y-43436D01*
X51836Y-43505D02*
X51905Y-43436D01*
X51836Y-44302D02*
X51836Y-43505D01*
X52684Y-45150D02*
X51836Y-44302D01*
X55000Y-45150D02*
X52684Y-45150D01*
X64048Y-48798D02*
X65750Y-50500D01*
X60053Y-48798D02*
X64048Y-48798D01*
X57361Y-46106D02*
X60053Y-48798D01*
X57361Y-44895D02*
X57361Y-46106D01*
X56559Y-44093D02*
X57361Y-44895D01*
X53246Y-44806D02*
X52500Y-44060D01*
X54182Y-44806D02*
X53246Y-44806D01*
X54437Y-44551D02*
X54182Y-44806D01*
X55472Y-44551D02*
X54437Y-44551D01*
X56641Y-45720D02*
X55472Y-44551D01*
X56641Y-45872D02*
X56641Y-45720D01*
X59927Y-49158D02*
X56641Y-45872D01*
X63408Y-49158D02*
X59927Y-49158D01*
X64750Y-50500D02*
X63408Y-49158D01*
X60783Y-50500D02*
X63750Y-50500D01*
X55910Y-45627D02*
X60783Y-50500D01*
X49344Y-45627D02*
X55910Y-45627D01*
X49275Y-45558D02*
X49344Y-45627D01*
X49275Y-44912D02*
X49275Y-45558D01*
X48135Y-43772D02*
X49275Y-44912D01*
X44772Y-43772D02*
X48135Y-43772D01*
X43500Y-42500D02*
X44772Y-43772D01*
X69150Y-43500D02*
X69170Y-43520D01*
X67850Y-43500D02*
X69150Y-43500D01*
G54D33*
X34470Y-44120D02*
X34470Y-41750D01*
X34950Y-44600D02*
X34470Y-44120D01*
X34950Y-45750D02*
X34950Y-44600D01*
X35647Y-40573D02*
X34470Y-41750D01*
X35647Y-38353D02*
X35647Y-40573D01*
X37000Y-37000D02*
X35647Y-38353D01*
X55000Y-39000D02*
X57150Y-39000D01*
X43750Y-49850D02*
X44550Y-49850D01*
X63700Y-40500D02*
X64300Y-40500D01*
X67850Y-42000D02*
X67300Y-42000D01*
X32050Y-45750D02*
X32388Y-45750D01*
X32141Y-45997D02*
X32388Y-45750D01*
X32141Y-47755D02*
X32141Y-45997D01*
X32636Y-48250D02*
X32141Y-47755D01*
X32750Y-48250D02*
X32636Y-48250D01*
X32896Y-42536D02*
X32110Y-41750D01*
X32896Y-45242D02*
X32896Y-42536D01*
X32388Y-45750D02*
X32896Y-45242D01*
X67750Y-44926D02*
X67750Y-50500D01*
X67108Y-44284D02*
X67750Y-44926D01*
X67300Y-44092D02*
X67108Y-44284D01*
X67300Y-42000D02*
X67300Y-44092D01*
X64300Y-42300D02*
X64300Y-40500D01*
X66284Y-44284D02*
X64300Y-42300D01*
X67108Y-44284D02*
X66284Y-44284D01*
X44550Y-49850D02*
X46000Y-49850D01*
X46000Y-49850D02*
X46000Y-49300D01*
X68400Y-42045D02*
X69170Y-42815D01*
X68400Y-42000D02*
X68400Y-42045D01*
X40500Y-32000D02*
X40750Y-31750D01*
X40500Y-33500D02*
X40500Y-32000D01*
X33508Y-34508D02*
X30750Y-31750D01*
X33508Y-36629D02*
X33508Y-34508D01*
X32887Y-37250D02*
X33508Y-36629D01*
X32750Y-37250D02*
X32887Y-37250D01*
X58350Y-36000D02*
X58350Y-34000D01*
X58350Y-34000D02*
X58900Y-34000D01*
X58350Y-36000D02*
X58900Y-36000D01*
X57150Y-39000D02*
X57150Y-39800D01*
X58900Y-33600D02*
X60750Y-31750D01*
X58900Y-34000D02*
X58900Y-33600D01*
X68504Y-33996D02*
X70750Y-31750D01*
X67850Y-33996D02*
X68504Y-33996D01*
X62996Y-33996D02*
X67850Y-33996D01*
X60750Y-31750D02*
X62996Y-33996D01*
X67850Y-42000D02*
X68067Y-42000D01*
X68067Y-42000D02*
X68400Y-42000D01*
X67850Y-40500D02*
X67850Y-33996D01*
X68067Y-41517D02*
X68067Y-42000D01*
X67850Y-41300D02*
X68067Y-41517D01*
X67850Y-40500D02*
X67850Y-41300D01*
X37000Y-39000D02*
X40500Y-42500D01*
X43750Y-45150D02*
X42950Y-45150D01*
X45084Y-43084D02*
X44500Y-42500D01*
X47916Y-43084D02*
X45084Y-43084D01*
X48500Y-42500D02*
X47916Y-43084D01*
X40676Y-42676D02*
X41938Y-42676D01*
X40500Y-42500D02*
X40676Y-42676D01*
X42850Y-41764D02*
X41938Y-42676D01*
X43764Y-41764D02*
X42850Y-41764D01*
X44500Y-42500D02*
X43764Y-41764D01*
X42950Y-43688D02*
X42950Y-45150D01*
X41938Y-42676D02*
X42950Y-43688D01*
X58500Y-44900D02*
X59300Y-44900D01*
X59397Y-44997D02*
X59399Y-44997D01*
X59300Y-44900D02*
X59397Y-44997D01*
X48072Y-49300D02*
X48250Y-49122D01*
X46000Y-49300D02*
X48072Y-49300D01*
X58500Y-44900D02*
X58500Y-44350D01*
X57156Y-39800D02*
X58197Y-40841D01*
X57150Y-39800D02*
X57156Y-39800D01*
X58900Y-40138D02*
X58900Y-36000D01*
X58197Y-40841D02*
X58900Y-40138D01*
X58350Y-40994D02*
X58350Y-42000D01*
X58197Y-40841D02*
X58350Y-40994D01*
X58334Y-42800D02*
X57642Y-43492D01*
X58350Y-42800D02*
X58334Y-42800D01*
X57145Y-42995D02*
X57642Y-43492D01*
X52995Y-42995D02*
X57145Y-42995D01*
X52500Y-42500D02*
X52995Y-42995D01*
X57642Y-43492D02*
X58500Y-44350D01*
X58350Y-42000D02*
X58350Y-42800D01*
X48250Y-46350D02*
X48250Y-46900D01*
X58284Y-49284D02*
X60750Y-51750D01*
X48412Y-49284D02*
X58284Y-49284D01*
X48250Y-49122D02*
X48412Y-49284D01*
X48250Y-49122D02*
X48250Y-48650D01*
X48250Y-48650D02*
X48250Y-46900D01*
G54D34*
X41580Y-44660D02*
X42000Y-44660D01*
X40980Y-44060D02*
X41580Y-44660D01*
X42000Y-45150D02*
X42000Y-44660D01*
X37420Y-44660D02*
X37000Y-44660D01*
X38020Y-44060D02*
X37420Y-44660D01*
X37000Y-45150D02*
X37000Y-44660D01*
X50420Y-44660D02*
X50000Y-44660D01*
X51020Y-44060D02*
X50420Y-44660D01*
X50000Y-45150D02*
X50000Y-44660D01*
X47090Y-47638D02*
X47131Y-47679D01*
X47090Y-47500D02*
X47090Y-47638D01*
X46600Y-47500D02*
X47090Y-47500D01*
X63160Y-41500D02*
X63160Y-41000D01*
X63700Y-41500D02*
X63160Y-41500D01*
X63700Y-41000D02*
X63160Y-41000D01*
X58078Y-45610D02*
X58500Y-45610D01*
X58024Y-45556D02*
X58078Y-45610D01*
X58500Y-46100D02*
X58500Y-45610D01*
X50000Y-46350D02*
X55000Y-46350D01*
X49260Y-46226D02*
X49260Y-46350D01*
X48910Y-45876D02*
X49260Y-46226D01*
X47286Y-45876D02*
X48910Y-45876D01*
X46600Y-46562D02*
X47286Y-45876D01*
X50000Y-46350D02*
X49260Y-46350D01*
G54D33*
X48141Y-44600D02*
X48103Y-44562D01*
X48250Y-44600D02*
X48141Y-44600D01*
X48250Y-45150D02*
X48250Y-44600D01*
X42000Y-46350D02*
X42800Y-46350D01*
X48250Y-45150D02*
X47450Y-45150D01*
X55000Y-34000D02*
X57150Y-34000D01*
X57800Y-35450D02*
X57800Y-39000D01*
X57150Y-34800D02*
X57800Y-35450D01*
X57150Y-34000D02*
X57150Y-34800D01*
X58350Y-39000D02*
X57800Y-39000D01*
X61300Y-40000D02*
X61900Y-40000D01*
X42800Y-45920D02*
X42800Y-46350D01*
X42904Y-45816D02*
X42800Y-45920D01*
X44968Y-45816D02*
X42904Y-45816D01*
X44968Y-45504D02*
X44968Y-45816D01*
X45478Y-44994D02*
X44968Y-45504D01*
X47294Y-44994D02*
X45478Y-44994D01*
X47450Y-45150D02*
X47294Y-44994D01*
X43750Y-47520D02*
X43750Y-48650D01*
X44968Y-46302D02*
X43750Y-47520D01*
X44968Y-45816D02*
X44968Y-46302D01*
X43750Y-48650D02*
X43750Y-49200D01*
X61991Y-40071D02*
X61991Y-46984D01*
X61971Y-40071D02*
X61900Y-40000D01*
X61991Y-40071D02*
X61971Y-40071D01*
X43692Y-49200D02*
X43647Y-49245D01*
X43750Y-49200D02*
X43692Y-49200D01*
G54D10*
G36*
X71705Y-52705D02*
X71137Y-52705D01*
X71326Y-52627D01*
X71412Y-52483D01*
X70750Y-51821D01*
X70679Y-51892D01*
X70679Y-51750D01*
X70017Y-51088D01*
X69873Y-51174D01*
X69720Y-51554D01*
X69723Y-51964D01*
X69873Y-52326D01*
X70017Y-52412D01*
X70679Y-51750D01*
X70679Y-51892D01*
X70088Y-52483D01*
X70174Y-52627D01*
X70367Y-52705D01*
X69700Y-52705D01*
X69700Y-43626D01*
X69700Y-43415D01*
X69700Y-40086D01*
X69700Y-39875D01*
X69619Y-39680D01*
X69471Y-39531D01*
X69276Y-39450D01*
X69065Y-39450D01*
X68870Y-39531D01*
X68721Y-39679D01*
X68640Y-39874D01*
X68640Y-40085D01*
X68703Y-40239D01*
X68679Y-40264D01*
X68641Y-40355D01*
X68641Y-40454D01*
X68641Y-41014D01*
X68679Y-41106D01*
X68749Y-41176D01*
X68840Y-41214D01*
X68939Y-41214D01*
X69499Y-41214D01*
X69591Y-41176D01*
X69661Y-41106D01*
X69699Y-41015D01*
X69699Y-40916D01*
X69699Y-40356D01*
X69661Y-40264D01*
X69636Y-40239D01*
X69700Y-40086D01*
X69700Y-43415D01*
X69694Y-43400D01*
X69619Y-43220D01*
X69573Y-43173D01*
X69622Y-43125D01*
X69590Y-43093D01*
X69626Y-43084D01*
X69694Y-42889D01*
X69683Y-42683D01*
X69626Y-42546D01*
X69534Y-42522D01*
X69463Y-42593D01*
X69463Y-42451D01*
X69439Y-42359D01*
X69244Y-42291D01*
X69038Y-42302D01*
X68901Y-42359D01*
X68877Y-42451D01*
X69170Y-42744D01*
X69463Y-42451D01*
X69463Y-42593D01*
X69276Y-42780D01*
X69241Y-42815D01*
X69170Y-42886D01*
X69099Y-42815D01*
X69064Y-42780D01*
X68806Y-42522D01*
X68714Y-42546D01*
X68646Y-42741D01*
X68657Y-42947D01*
X68714Y-43084D01*
X68749Y-43093D01*
X68718Y-43125D01*
X68723Y-43130D01*
X68350Y-43130D01*
X68350Y-42112D01*
X68350Y-41888D01*
X68349Y-41549D01*
X68349Y-41450D01*
X68311Y-41359D01*
X68241Y-41289D01*
X68149Y-41251D01*
X67962Y-41250D01*
X68149Y-41249D01*
X68241Y-41211D01*
X68311Y-41141D01*
X68349Y-41050D01*
X68349Y-40951D01*
X68350Y-40612D01*
X68350Y-40388D01*
X68349Y-40049D01*
X68349Y-39950D01*
X68311Y-39859D01*
X68241Y-39789D01*
X68149Y-39751D01*
X67962Y-39750D01*
X67900Y-39812D01*
X67900Y-40450D01*
X68288Y-40450D01*
X68350Y-40388D01*
X68350Y-40612D01*
X68288Y-40550D01*
X67900Y-40550D01*
X67900Y-41188D01*
X67962Y-41250D01*
X67900Y-41312D01*
X67900Y-41950D01*
X68288Y-41950D01*
X68350Y-41888D01*
X68350Y-42112D01*
X68288Y-42050D01*
X67900Y-42050D01*
X67900Y-42688D01*
X67962Y-42750D01*
X68149Y-42749D01*
X68241Y-42711D01*
X68311Y-42641D01*
X68349Y-42550D01*
X68349Y-42451D01*
X68350Y-42112D01*
X68350Y-43130D01*
X68349Y-43130D01*
X68349Y-42951D01*
X68311Y-42859D01*
X68241Y-42789D01*
X68150Y-42751D01*
X68051Y-42751D01*
X67800Y-42751D01*
X67800Y-42688D01*
X67800Y-42050D01*
X67800Y-41950D01*
X67800Y-41312D01*
X67738Y-41250D01*
X67800Y-41188D01*
X67800Y-40600D01*
X67800Y-40550D01*
X67800Y-40450D01*
X67800Y-40400D01*
X67800Y-39812D01*
X67738Y-39750D01*
X67551Y-39751D01*
X67494Y-39774D01*
X67494Y-39732D01*
X67466Y-39591D01*
X67466Y-39590D01*
X67386Y-39470D01*
X67154Y-39238D01*
X67034Y-39158D01*
X67009Y-39153D01*
X66892Y-39129D01*
X66887Y-39130D01*
X64249Y-39130D01*
X64249Y-39076D01*
X64249Y-38826D01*
X64217Y-38750D01*
X64249Y-38675D01*
X64249Y-38576D01*
X64249Y-38326D01*
X64211Y-38234D01*
X64141Y-38164D01*
X64050Y-38126D01*
X63951Y-38126D01*
X63351Y-38126D01*
X63341Y-38130D01*
X63313Y-38130D01*
X63125Y-37941D01*
X63125Y-37887D01*
X63180Y-37755D01*
X63180Y-37586D01*
X63116Y-37430D01*
X62996Y-37310D01*
X62840Y-37245D01*
X62671Y-37245D01*
X62515Y-37309D01*
X62395Y-37429D01*
X62330Y-37585D01*
X62330Y-37754D01*
X62385Y-37888D01*
X62385Y-38090D01*
X62384Y-38095D01*
X62408Y-38212D01*
X62413Y-38237D01*
X62493Y-38357D01*
X62790Y-38653D01*
X62790Y-39000D01*
X62815Y-39130D01*
X61849Y-39130D01*
X61849Y-39076D01*
X61849Y-38826D01*
X61817Y-38750D01*
X61849Y-38675D01*
X61849Y-38576D01*
X61849Y-38326D01*
X61811Y-38234D01*
X61780Y-38203D01*
X61780Y-31946D01*
X61777Y-31536D01*
X61627Y-31174D01*
X61483Y-31088D01*
X60821Y-31750D01*
X61483Y-32412D01*
X61627Y-32326D01*
X61780Y-31946D01*
X61780Y-38203D01*
X61741Y-38164D01*
X61650Y-38126D01*
X61551Y-38126D01*
X61412Y-38126D01*
X61412Y-32483D01*
X60750Y-31821D01*
X60679Y-31892D01*
X60679Y-31750D01*
X60017Y-31088D01*
X59873Y-31174D01*
X59720Y-31554D01*
X59723Y-31964D01*
X59873Y-32326D01*
X60017Y-32412D01*
X60679Y-31750D01*
X60679Y-31892D01*
X60088Y-32483D01*
X60174Y-32627D01*
X60554Y-32780D01*
X60964Y-32777D01*
X61326Y-32627D01*
X61412Y-32483D01*
X61412Y-38126D01*
X60951Y-38126D01*
X60941Y-38130D01*
X60760Y-38130D01*
X60618Y-38158D01*
X60498Y-38238D01*
X60418Y-38358D01*
X60390Y-38500D01*
X60390Y-38846D01*
X59848Y-39388D01*
X59768Y-39508D01*
X59763Y-39532D01*
X59739Y-39650D01*
X59740Y-39654D01*
X59740Y-47008D01*
X59560Y-47188D01*
X59429Y-47242D01*
X59309Y-47362D01*
X59259Y-47480D01*
X58378Y-46599D01*
X59049Y-46599D01*
X59141Y-46561D01*
X59211Y-46491D01*
X59249Y-46400D01*
X59249Y-46301D01*
X59249Y-45801D01*
X59211Y-45709D01*
X59141Y-45639D01*
X59050Y-45601D01*
X58951Y-45601D01*
X58868Y-45601D01*
X58842Y-45468D01*
X58796Y-45399D01*
X58951Y-45399D01*
X59050Y-45399D01*
X59141Y-45361D01*
X59211Y-45291D01*
X59249Y-45199D01*
X59250Y-45012D01*
X59250Y-44788D01*
X59249Y-44601D01*
X59211Y-44509D01*
X59141Y-44439D01*
X59050Y-44401D01*
X58951Y-44401D01*
X58850Y-44400D01*
X58850Y-42112D01*
X58850Y-41888D01*
X58850Y-36112D01*
X58850Y-35888D01*
X58850Y-34112D01*
X58850Y-33888D01*
X58849Y-33549D01*
X58849Y-33450D01*
X58811Y-33359D01*
X58741Y-33289D01*
X58649Y-33251D01*
X58462Y-33250D01*
X58400Y-33312D01*
X58400Y-33950D01*
X58788Y-33950D01*
X58850Y-33888D01*
X58850Y-34112D01*
X58788Y-34050D01*
X58400Y-34050D01*
X58400Y-34688D01*
X58462Y-34750D01*
X58649Y-34749D01*
X58741Y-34711D01*
X58811Y-34641D01*
X58849Y-34550D01*
X58849Y-34451D01*
X58850Y-34112D01*
X58850Y-35888D01*
X58849Y-35549D01*
X58849Y-35450D01*
X58811Y-35359D01*
X58741Y-35289D01*
X58649Y-35251D01*
X58462Y-35250D01*
X58400Y-35312D01*
X58400Y-35950D01*
X58788Y-35950D01*
X58850Y-35888D01*
X58850Y-36112D01*
X58788Y-36050D01*
X58400Y-36050D01*
X58400Y-36688D01*
X58462Y-36750D01*
X58649Y-36749D01*
X58741Y-36711D01*
X58811Y-36641D01*
X58849Y-36550D01*
X58849Y-36451D01*
X58850Y-36112D01*
X58850Y-41888D01*
X58849Y-41549D01*
X58849Y-41450D01*
X58849Y-39550D01*
X58849Y-39451D01*
X58849Y-38451D01*
X58811Y-38359D01*
X58741Y-38289D01*
X58650Y-38251D01*
X58551Y-38251D01*
X58230Y-38251D01*
X58230Y-36749D01*
X58238Y-36750D01*
X58300Y-36688D01*
X58300Y-36100D01*
X58300Y-36050D01*
X58300Y-35950D01*
X58300Y-35900D01*
X58300Y-35312D01*
X58300Y-34688D01*
X58300Y-34050D01*
X58300Y-33950D01*
X58300Y-33312D01*
X58238Y-33250D01*
X58051Y-33251D01*
X57959Y-33289D01*
X57889Y-33359D01*
X57851Y-33450D01*
X57851Y-33549D01*
X57850Y-33888D01*
X57912Y-33950D01*
X58300Y-33950D01*
X58300Y-34050D01*
X57912Y-34050D01*
X57850Y-34112D01*
X57851Y-34451D01*
X57851Y-34550D01*
X57889Y-34641D01*
X57959Y-34711D01*
X58051Y-34749D01*
X58238Y-34750D01*
X58300Y-34688D01*
X58300Y-35312D01*
X58238Y-35250D01*
X58173Y-35250D01*
X58104Y-35146D01*
X57605Y-34647D01*
X57611Y-34641D01*
X57649Y-34550D01*
X57649Y-34451D01*
X57649Y-33451D01*
X57611Y-33359D01*
X57541Y-33289D01*
X57450Y-33251D01*
X57351Y-33251D01*
X56851Y-33251D01*
X56759Y-33289D01*
X56689Y-33359D01*
X56651Y-33450D01*
X56651Y-33549D01*
X56651Y-33570D01*
X55823Y-33570D01*
X55785Y-33477D01*
X55525Y-33217D01*
X55185Y-33075D01*
X54817Y-33075D01*
X54477Y-33215D01*
X54217Y-33475D01*
X54075Y-33815D01*
X54075Y-34183D01*
X54215Y-34523D01*
X54475Y-34783D01*
X54815Y-34925D01*
X55183Y-34925D01*
X55523Y-34785D01*
X55783Y-34525D01*
X55822Y-34430D01*
X56651Y-34430D01*
X56651Y-34549D01*
X56689Y-34641D01*
X56720Y-34672D01*
X56720Y-34800D01*
X56753Y-34965D01*
X56846Y-35104D01*
X56993Y-35251D01*
X56851Y-35251D01*
X56759Y-35289D01*
X56689Y-35359D01*
X56651Y-35450D01*
X56651Y-35549D01*
X56651Y-35570D01*
X55823Y-35570D01*
X55785Y-35477D01*
X55525Y-35217D01*
X55185Y-35075D01*
X54817Y-35075D01*
X54477Y-35215D01*
X54217Y-35475D01*
X54075Y-35815D01*
X54075Y-36183D01*
X54215Y-36523D01*
X54475Y-36783D01*
X54815Y-36925D01*
X55183Y-36925D01*
X55523Y-36785D01*
X55783Y-36525D01*
X55822Y-36430D01*
X56651Y-36430D01*
X56651Y-36549D01*
X56689Y-36641D01*
X56759Y-36711D01*
X56850Y-36749D01*
X56949Y-36749D01*
X57370Y-36749D01*
X57370Y-38250D01*
X57262Y-38250D01*
X57200Y-38312D01*
X57200Y-38900D01*
X57200Y-38950D01*
X57200Y-39050D01*
X57200Y-39100D01*
X57200Y-39688D01*
X57262Y-39750D01*
X57449Y-39749D01*
X57541Y-39711D01*
X57611Y-39641D01*
X57649Y-39550D01*
X57649Y-39451D01*
X57649Y-39399D01*
X57800Y-39430D01*
X57851Y-39430D01*
X57851Y-39549D01*
X57889Y-39641D01*
X57959Y-39711D01*
X58050Y-39749D01*
X58149Y-39749D01*
X58649Y-39749D01*
X58741Y-39711D01*
X58811Y-39641D01*
X58849Y-39550D01*
X58849Y-41450D01*
X58811Y-41359D01*
X58741Y-41289D01*
X58649Y-41251D01*
X58462Y-41250D01*
X58400Y-41312D01*
X58400Y-41950D01*
X58788Y-41950D01*
X58850Y-41888D01*
X58850Y-42112D01*
X58788Y-42050D01*
X58400Y-42050D01*
X58400Y-42688D01*
X58462Y-42750D01*
X58649Y-42749D01*
X58741Y-42711D01*
X58811Y-42641D01*
X58849Y-42550D01*
X58849Y-42451D01*
X58850Y-42112D01*
X58850Y-44400D01*
X58612Y-44400D01*
X58550Y-44462D01*
X58550Y-44850D01*
X59188Y-44850D01*
X59250Y-44788D01*
X59250Y-45012D01*
X59188Y-44950D01*
X58600Y-44950D01*
X58550Y-44950D01*
X58450Y-44950D01*
X58450Y-44850D01*
X58450Y-44462D01*
X58388Y-44400D01*
X58300Y-44400D01*
X58300Y-42688D01*
X58300Y-42050D01*
X58300Y-41950D01*
X58300Y-41312D01*
X58238Y-41250D01*
X58051Y-41251D01*
X57959Y-41289D01*
X57889Y-41359D01*
X57851Y-41450D01*
X57851Y-41549D01*
X57850Y-41888D01*
X57912Y-41950D01*
X58300Y-41950D01*
X58300Y-42050D01*
X57912Y-42050D01*
X57850Y-42112D01*
X57851Y-42451D01*
X57851Y-42550D01*
X57889Y-42641D01*
X57959Y-42711D01*
X58051Y-42749D01*
X58238Y-42750D01*
X58300Y-42688D01*
X58300Y-44400D01*
X58049Y-44401D01*
X57950Y-44401D01*
X57859Y-44439D01*
X57789Y-44509D01*
X57751Y-44601D01*
X57750Y-44788D01*
X57812Y-44850D01*
X58450Y-44850D01*
X58450Y-44950D01*
X58400Y-44950D01*
X57812Y-44950D01*
X57750Y-45012D01*
X57751Y-45199D01*
X57759Y-45219D01*
X57731Y-45248D01*
X57731Y-44895D01*
X57703Y-44753D01*
X57649Y-44672D01*
X57649Y-42550D01*
X57649Y-42451D01*
X57649Y-41451D01*
X57611Y-41359D01*
X57541Y-41289D01*
X57450Y-41251D01*
X57351Y-41251D01*
X57100Y-41251D01*
X57100Y-39688D01*
X57100Y-39050D01*
X57100Y-38950D01*
X57100Y-38312D01*
X57038Y-38250D01*
X56851Y-38251D01*
X56759Y-38289D01*
X56689Y-38359D01*
X56651Y-38450D01*
X56651Y-38549D01*
X56650Y-38888D01*
X56712Y-38950D01*
X57100Y-38950D01*
X57100Y-39050D01*
X56712Y-39050D01*
X56650Y-39112D01*
X56651Y-39451D01*
X56651Y-39550D01*
X56689Y-39641D01*
X56759Y-39711D01*
X56851Y-39749D01*
X57038Y-39750D01*
X57100Y-39688D01*
X57100Y-41251D01*
X56851Y-41251D01*
X56759Y-41289D01*
X56689Y-41359D01*
X56651Y-41450D01*
X56651Y-41549D01*
X56651Y-41570D01*
X56600Y-41570D01*
X55909Y-41570D01*
X55909Y-39167D01*
X55904Y-38806D01*
X55776Y-38498D01*
X55644Y-38427D01*
X55573Y-38498D01*
X55573Y-38356D01*
X55502Y-38224D01*
X55167Y-38091D01*
X54806Y-38096D01*
X54498Y-38224D01*
X54427Y-38356D01*
X55000Y-38929D01*
X55573Y-38356D01*
X55573Y-38498D01*
X55071Y-39000D01*
X55644Y-39573D01*
X55776Y-39502D01*
X55909Y-39167D01*
X55909Y-41570D01*
X55823Y-41570D01*
X55785Y-41477D01*
X55573Y-41265D01*
X55573Y-39644D01*
X55000Y-39071D01*
X54929Y-39142D01*
X54929Y-39000D01*
X54356Y-38427D01*
X54224Y-38498D01*
X54091Y-38833D01*
X54096Y-39194D01*
X54224Y-39502D01*
X54356Y-39573D01*
X54929Y-39000D01*
X54929Y-39142D01*
X54427Y-39644D01*
X54498Y-39776D01*
X54833Y-39909D01*
X55194Y-39904D01*
X55502Y-39776D01*
X55573Y-39644D01*
X55573Y-41265D01*
X55525Y-41217D01*
X55185Y-41075D01*
X54817Y-41075D01*
X54477Y-41215D01*
X54217Y-41475D01*
X54212Y-41486D01*
X50049Y-41486D01*
X50049Y-33609D01*
X50049Y-33391D01*
X49965Y-33189D01*
X49811Y-33035D01*
X49609Y-32951D01*
X49391Y-32951D01*
X49189Y-33035D01*
X49035Y-33189D01*
X49000Y-33273D01*
X48965Y-33189D01*
X48811Y-33035D01*
X48609Y-32951D01*
X48391Y-32951D01*
X48189Y-33035D01*
X48035Y-33189D01*
X48000Y-33273D01*
X47965Y-33189D01*
X47811Y-33035D01*
X47609Y-32951D01*
X47391Y-32951D01*
X47189Y-33035D01*
X47035Y-33189D01*
X47000Y-33273D01*
X46965Y-33189D01*
X46811Y-33035D01*
X46609Y-32951D01*
X46391Y-32951D01*
X46189Y-33035D01*
X46035Y-33189D01*
X46000Y-33273D01*
X45965Y-33189D01*
X45811Y-33035D01*
X45609Y-32951D01*
X45391Y-32951D01*
X45189Y-33035D01*
X45035Y-33189D01*
X45000Y-33273D01*
X44965Y-33189D01*
X44811Y-33035D01*
X44609Y-32951D01*
X44391Y-32951D01*
X44189Y-33035D01*
X44035Y-33189D01*
X44000Y-33273D01*
X43965Y-33189D01*
X43811Y-33035D01*
X43609Y-32951D01*
X43391Y-32951D01*
X43189Y-33035D01*
X43035Y-33189D01*
X43000Y-33273D01*
X42965Y-33189D01*
X42811Y-33035D01*
X42609Y-32951D01*
X42391Y-32951D01*
X42189Y-33035D01*
X42035Y-33189D01*
X42000Y-33273D01*
X41965Y-33189D01*
X41811Y-33035D01*
X41780Y-33022D01*
X41780Y-31946D01*
X41777Y-31536D01*
X41627Y-31174D01*
X41483Y-31088D01*
X40821Y-31750D01*
X41483Y-32412D01*
X41627Y-32326D01*
X41780Y-31946D01*
X41780Y-33022D01*
X41609Y-32951D01*
X41412Y-32951D01*
X41412Y-32483D01*
X40750Y-31821D01*
X40679Y-31892D01*
X40679Y-31750D01*
X40017Y-31088D01*
X39873Y-31174D01*
X39720Y-31554D01*
X39723Y-31964D01*
X39873Y-32326D01*
X40017Y-32412D01*
X40679Y-31750D01*
X40679Y-31892D01*
X40088Y-32483D01*
X40174Y-32627D01*
X40554Y-32780D01*
X40964Y-32777D01*
X41326Y-32627D01*
X41412Y-32483D01*
X41412Y-32951D01*
X41391Y-32951D01*
X41189Y-33035D01*
X41035Y-33189D01*
X40997Y-33280D01*
X40972Y-33219D01*
X40878Y-33192D01*
X40808Y-33262D01*
X40808Y-33122D01*
X40781Y-33028D01*
X40579Y-32957D01*
X40366Y-32968D01*
X40219Y-33028D01*
X40192Y-33122D01*
X40500Y-33429D01*
X40808Y-33122D01*
X40808Y-33262D01*
X40571Y-33500D01*
X40878Y-33808D01*
X40972Y-33781D01*
X40995Y-33715D01*
X41035Y-33811D01*
X41189Y-33965D01*
X41391Y-34049D01*
X41609Y-34049D01*
X41811Y-33965D01*
X41965Y-33811D01*
X42000Y-33726D01*
X42035Y-33811D01*
X42189Y-33965D01*
X42391Y-34049D01*
X42609Y-34049D01*
X42811Y-33965D01*
X42965Y-33811D01*
X43000Y-33726D01*
X43035Y-33811D01*
X43189Y-33965D01*
X43391Y-34049D01*
X43609Y-34049D01*
X43811Y-33965D01*
X43965Y-33811D01*
X44000Y-33726D01*
X44035Y-33811D01*
X44189Y-33965D01*
X44391Y-34049D01*
X44609Y-34049D01*
X44811Y-33965D01*
X44965Y-33811D01*
X45000Y-33726D01*
X45035Y-33811D01*
X45189Y-33965D01*
X45391Y-34049D01*
X45609Y-34049D01*
X45811Y-33965D01*
X45965Y-33811D01*
X46000Y-33726D01*
X46035Y-33811D01*
X46189Y-33965D01*
X46391Y-34049D01*
X46609Y-34049D01*
X46811Y-33965D01*
X46965Y-33811D01*
X47000Y-33726D01*
X47035Y-33811D01*
X47189Y-33965D01*
X47391Y-34049D01*
X47609Y-34049D01*
X47811Y-33965D01*
X47965Y-33811D01*
X48000Y-33726D01*
X48035Y-33811D01*
X48189Y-33965D01*
X48391Y-34049D01*
X48609Y-34049D01*
X48811Y-33965D01*
X48965Y-33811D01*
X49000Y-33726D01*
X49035Y-33811D01*
X49189Y-33965D01*
X49391Y-34049D01*
X49609Y-34049D01*
X49811Y-33965D01*
X49965Y-33811D01*
X50049Y-33609D01*
X50049Y-41486D01*
X47094Y-41486D01*
X40808Y-35200D01*
X40808Y-33878D01*
X40500Y-33571D01*
X40192Y-33878D01*
X40219Y-33972D01*
X40421Y-34043D01*
X40634Y-34032D01*
X40781Y-33972D01*
X40808Y-33878D01*
X40808Y-35200D01*
X39642Y-34034D01*
X39811Y-33965D01*
X39965Y-33811D01*
X40002Y-33719D01*
X40028Y-33781D01*
X40122Y-33808D01*
X40429Y-33500D01*
X40122Y-33192D01*
X40028Y-33219D01*
X40004Y-33284D01*
X39965Y-33189D01*
X39811Y-33035D01*
X39609Y-32951D01*
X39391Y-32951D01*
X39189Y-33035D01*
X39035Y-33189D01*
X39000Y-33273D01*
X38965Y-33189D01*
X38811Y-33035D01*
X38609Y-32951D01*
X38391Y-32951D01*
X38189Y-33035D01*
X38035Y-33189D01*
X37951Y-33391D01*
X37951Y-33609D01*
X38035Y-33811D01*
X38189Y-33965D01*
X38391Y-34049D01*
X38441Y-34049D01*
X46612Y-42220D01*
X46751Y-42313D01*
X46752Y-42313D01*
X46916Y-42346D01*
X46969Y-42346D01*
X46951Y-42391D01*
X46951Y-42609D01*
X47035Y-42811D01*
X47189Y-42965D01*
X47391Y-43049D01*
X47609Y-43049D01*
X47811Y-42965D01*
X47965Y-42811D01*
X48002Y-42719D01*
X48028Y-42781D01*
X48122Y-42808D01*
X48394Y-42535D01*
X48429Y-42500D01*
X48500Y-42429D01*
X48571Y-42500D01*
X48606Y-42535D01*
X48878Y-42808D01*
X48972Y-42781D01*
X49043Y-42579D01*
X49032Y-42366D01*
X49023Y-42346D01*
X50969Y-42346D01*
X50951Y-42391D01*
X50951Y-42609D01*
X51035Y-42811D01*
X51189Y-42965D01*
X51391Y-43049D01*
X51609Y-43049D01*
X51811Y-42965D01*
X51965Y-42811D01*
X52002Y-42719D01*
X52028Y-42781D01*
X52122Y-42808D01*
X52394Y-42535D01*
X52429Y-42500D01*
X52500Y-42429D01*
X52571Y-42500D01*
X52606Y-42535D01*
X52878Y-42808D01*
X52972Y-42781D01*
X53043Y-42579D01*
X53032Y-42366D01*
X53023Y-42346D01*
X54142Y-42346D01*
X54215Y-42523D01*
X54475Y-42783D01*
X54815Y-42925D01*
X55183Y-42925D01*
X55523Y-42785D01*
X55783Y-42525D01*
X55822Y-42430D01*
X56600Y-42430D01*
X56651Y-42430D01*
X56651Y-42549D01*
X56689Y-42641D01*
X56759Y-42711D01*
X56850Y-42749D01*
X56949Y-42749D01*
X57449Y-42749D01*
X57541Y-42711D01*
X57611Y-42641D01*
X57649Y-42550D01*
X57649Y-44672D01*
X57623Y-44633D01*
X57620Y-44631D01*
X56973Y-43983D01*
X56920Y-43853D01*
X56800Y-43733D01*
X56668Y-43678D01*
X56164Y-43174D01*
X56044Y-43094D01*
X56019Y-43089D01*
X55902Y-43065D01*
X55897Y-43066D01*
X52808Y-43066D01*
X52808Y-42878D01*
X52500Y-42571D01*
X52192Y-42878D01*
X52219Y-42972D01*
X52421Y-43043D01*
X52634Y-43032D01*
X52781Y-42972D01*
X52808Y-42878D01*
X52808Y-43066D01*
X51905Y-43066D01*
X51763Y-43094D01*
X51643Y-43174D01*
X51641Y-43176D01*
X51574Y-43243D01*
X51494Y-43363D01*
X51489Y-43387D01*
X51465Y-43505D01*
X51466Y-43509D01*
X51466Y-43588D01*
X51388Y-43510D01*
X51149Y-43411D01*
X50891Y-43411D01*
X50652Y-43510D01*
X50470Y-43692D01*
X50371Y-43931D01*
X50371Y-44185D01*
X50266Y-44290D01*
X50000Y-44290D01*
X49858Y-44318D01*
X49738Y-44398D01*
X49658Y-44518D01*
X49631Y-44651D01*
X49537Y-44651D01*
X49537Y-44650D01*
X49534Y-44648D01*
X48808Y-43921D01*
X48808Y-42878D01*
X48500Y-42571D01*
X48192Y-42878D01*
X48219Y-42972D01*
X48421Y-43043D01*
X48634Y-43032D01*
X48781Y-42972D01*
X48808Y-42878D01*
X48808Y-43921D01*
X48397Y-43510D01*
X48277Y-43430D01*
X48252Y-43425D01*
X48135Y-43401D01*
X48130Y-43402D01*
X45043Y-43402D01*
X45043Y-42579D01*
X45032Y-42366D01*
X44972Y-42219D01*
X44878Y-42192D01*
X44808Y-42262D01*
X44808Y-42122D01*
X44781Y-42028D01*
X44579Y-41957D01*
X44366Y-41968D01*
X44219Y-42028D01*
X44192Y-42122D01*
X44500Y-42429D01*
X44808Y-42122D01*
X44808Y-42262D01*
X44571Y-42500D01*
X44878Y-42808D01*
X44972Y-42781D01*
X45043Y-42579D01*
X45043Y-43402D01*
X44925Y-43402D01*
X44559Y-43035D01*
X44634Y-43032D01*
X44781Y-42972D01*
X44808Y-42878D01*
X44535Y-42606D01*
X44500Y-42571D01*
X44429Y-42500D01*
X44394Y-42465D01*
X44122Y-42192D01*
X44028Y-42219D01*
X44004Y-42284D01*
X43965Y-42189D01*
X43811Y-42035D01*
X43609Y-41951D01*
X43391Y-41951D01*
X43189Y-42035D01*
X43035Y-42189D01*
X42951Y-42391D01*
X42951Y-42609D01*
X43035Y-42811D01*
X43189Y-42965D01*
X43391Y-43049D01*
X43525Y-43049D01*
X44508Y-44031D01*
X44510Y-44034D01*
X44630Y-44114D01*
X44771Y-44142D01*
X44771Y-44141D01*
X44772Y-44142D01*
X47863Y-44142D01*
X47832Y-44155D01*
X47696Y-44290D01*
X47623Y-44466D01*
X47623Y-44657D01*
X47632Y-44679D01*
X47609Y-44689D01*
X47603Y-44695D01*
X47598Y-44690D01*
X47459Y-44597D01*
X47294Y-44564D01*
X45478Y-44564D01*
X45313Y-44597D01*
X45174Y-44690D01*
X44664Y-45200D01*
X44571Y-45339D01*
X44561Y-45386D01*
X44499Y-45386D01*
X44500Y-45262D01*
X44500Y-45038D01*
X44499Y-44851D01*
X44461Y-44759D01*
X44391Y-44689D01*
X44300Y-44651D01*
X44201Y-44651D01*
X43862Y-44650D01*
X43800Y-44712D01*
X43800Y-45100D01*
X44438Y-45100D01*
X44500Y-45038D01*
X44500Y-45262D01*
X44438Y-45200D01*
X43850Y-45200D01*
X43800Y-45200D01*
X43700Y-45200D01*
X43700Y-45100D01*
X43700Y-44712D01*
X43638Y-44650D01*
X43299Y-44651D01*
X43200Y-44651D01*
X43109Y-44689D01*
X43039Y-44759D01*
X43001Y-44851D01*
X43000Y-45038D01*
X43062Y-45100D01*
X43700Y-45100D01*
X43700Y-45200D01*
X43650Y-45200D01*
X43062Y-45200D01*
X43000Y-45262D01*
X43000Y-45386D01*
X42904Y-45386D01*
X42749Y-45417D01*
X42749Y-45351D01*
X42749Y-44851D01*
X42711Y-44759D01*
X42641Y-44689D01*
X42550Y-44651D01*
X42451Y-44651D01*
X42368Y-44651D01*
X42342Y-44518D01*
X42262Y-44398D01*
X42142Y-44318D01*
X42000Y-44290D01*
X41733Y-44290D01*
X41629Y-44185D01*
X41629Y-43931D01*
X41530Y-43692D01*
X41348Y-43510D01*
X41109Y-43411D01*
X41043Y-43411D01*
X41043Y-42579D01*
X41032Y-42366D01*
X40972Y-42219D01*
X40878Y-42192D01*
X40808Y-42262D01*
X40808Y-42122D01*
X40781Y-42028D01*
X40579Y-41957D01*
X40366Y-41968D01*
X40219Y-42028D01*
X40192Y-42122D01*
X40500Y-42429D01*
X40808Y-42122D01*
X40808Y-42262D01*
X40571Y-42500D01*
X40878Y-42808D01*
X40972Y-42781D01*
X41043Y-42579D01*
X41043Y-43411D01*
X40851Y-43411D01*
X40808Y-43428D01*
X40808Y-42878D01*
X40500Y-42571D01*
X40429Y-42641D01*
X40429Y-42500D01*
X40122Y-42192D01*
X40028Y-42219D01*
X40004Y-42284D01*
X39965Y-42189D01*
X39811Y-42035D01*
X39609Y-41951D01*
X39391Y-41951D01*
X39189Y-42035D01*
X39035Y-42189D01*
X38951Y-42391D01*
X38951Y-42609D01*
X39035Y-42811D01*
X39189Y-42965D01*
X39391Y-43049D01*
X39609Y-43049D01*
X39811Y-42965D01*
X39965Y-42811D01*
X40002Y-42719D01*
X40028Y-42781D01*
X40122Y-42808D01*
X40429Y-42500D01*
X40429Y-42641D01*
X40192Y-42878D01*
X40219Y-42972D01*
X40421Y-43043D01*
X40634Y-43032D01*
X40781Y-42972D01*
X40808Y-42878D01*
X40808Y-43428D01*
X40612Y-43510D01*
X40430Y-43692D01*
X40331Y-43931D01*
X40331Y-44189D01*
X40430Y-44428D01*
X40612Y-44610D01*
X40851Y-44709D01*
X41105Y-44709D01*
X41251Y-44854D01*
X41251Y-44949D01*
X41251Y-45449D01*
X41289Y-45541D01*
X41359Y-45611D01*
X41450Y-45649D01*
X41549Y-45649D01*
X42473Y-45649D01*
X42403Y-45755D01*
X42383Y-45851D01*
X41451Y-45851D01*
X41359Y-45889D01*
X41289Y-45959D01*
X41251Y-46050D01*
X41251Y-46149D01*
X41251Y-46649D01*
X41289Y-46741D01*
X41334Y-46786D01*
X40963Y-46940D01*
X40611Y-47291D01*
X40421Y-47750D01*
X40420Y-48247D01*
X40500Y-48442D01*
X40149Y-48091D01*
X40149Y-44189D01*
X40149Y-43931D01*
X40050Y-43692D01*
X39868Y-43510D01*
X39629Y-43411D01*
X39371Y-43411D01*
X39132Y-43510D01*
X38950Y-43692D01*
X38851Y-43931D01*
X38851Y-44189D01*
X38950Y-44428D01*
X39132Y-44610D01*
X39371Y-44709D01*
X39629Y-44709D01*
X39868Y-44610D01*
X40050Y-44428D01*
X40149Y-44189D01*
X40149Y-48091D01*
X38669Y-46611D01*
X38669Y-44189D01*
X38669Y-43931D01*
X38570Y-43692D01*
X38388Y-43510D01*
X38149Y-43411D01*
X37925Y-43411D01*
X37925Y-37185D01*
X37925Y-36817D01*
X37785Y-36477D01*
X37525Y-36217D01*
X37185Y-36075D01*
X36817Y-36075D01*
X36477Y-36215D01*
X36217Y-36475D01*
X36075Y-36815D01*
X36075Y-37183D01*
X36114Y-37277D01*
X35515Y-37876D01*
X35471Y-37770D01*
X35232Y-37530D01*
X34920Y-37400D01*
X34582Y-37400D01*
X34270Y-37529D01*
X34030Y-37768D01*
X33900Y-38080D01*
X33900Y-38418D01*
X34029Y-38730D01*
X34268Y-38970D01*
X34580Y-39100D01*
X34918Y-39100D01*
X35217Y-38976D01*
X35217Y-40395D01*
X34843Y-40768D01*
X34680Y-40700D01*
X34262Y-40700D01*
X33876Y-40860D01*
X33580Y-41155D01*
X33420Y-41540D01*
X33420Y-41958D01*
X33580Y-42344D01*
X33875Y-42640D01*
X34040Y-42708D01*
X34040Y-44120D01*
X34073Y-44285D01*
X34166Y-44424D01*
X34432Y-44690D01*
X34364Y-44759D01*
X34326Y-44850D01*
X34326Y-44949D01*
X34326Y-46649D01*
X34364Y-46741D01*
X34434Y-46811D01*
X34525Y-46849D01*
X34624Y-46849D01*
X35374Y-46849D01*
X35466Y-46811D01*
X35536Y-46741D01*
X35574Y-46650D01*
X35574Y-46551D01*
X35574Y-44851D01*
X35536Y-44759D01*
X35466Y-44689D01*
X35380Y-44653D01*
X35380Y-44600D01*
X35379Y-44599D01*
X35347Y-44435D01*
X35254Y-44296D01*
X35253Y-44295D01*
X34900Y-43942D01*
X34900Y-42707D01*
X35064Y-42640D01*
X35360Y-42345D01*
X35520Y-41960D01*
X35520Y-41542D01*
X35451Y-41376D01*
X35951Y-40877D01*
X36044Y-40738D01*
X36044Y-40737D01*
X36077Y-40573D01*
X36077Y-38531D01*
X36721Y-37886D01*
X36815Y-37925D01*
X37183Y-37925D01*
X37523Y-37785D01*
X37783Y-37525D01*
X37925Y-37185D01*
X37925Y-43411D01*
X37909Y-43411D01*
X37909Y-39167D01*
X37904Y-38806D01*
X37776Y-38498D01*
X37644Y-38427D01*
X37573Y-38498D01*
X37573Y-38356D01*
X37502Y-38224D01*
X37167Y-38091D01*
X36806Y-38096D01*
X36498Y-38224D01*
X36427Y-38356D01*
X37000Y-38929D01*
X37573Y-38356D01*
X37573Y-38498D01*
X37071Y-39000D01*
X37644Y-39573D01*
X37776Y-39502D01*
X37909Y-39167D01*
X37909Y-43411D01*
X37891Y-43411D01*
X37652Y-43510D01*
X37573Y-43589D01*
X37573Y-39644D01*
X37000Y-39071D01*
X36929Y-39142D01*
X36929Y-39000D01*
X36356Y-38427D01*
X36224Y-38498D01*
X36091Y-38833D01*
X36096Y-39194D01*
X36224Y-39502D01*
X36356Y-39573D01*
X36929Y-39000D01*
X36929Y-39142D01*
X36427Y-39644D01*
X36498Y-39776D01*
X36833Y-39909D01*
X37194Y-39904D01*
X37502Y-39776D01*
X37573Y-39644D01*
X37573Y-43589D01*
X37470Y-43692D01*
X37371Y-43931D01*
X37371Y-44185D01*
X37266Y-44290D01*
X37000Y-44290D01*
X36858Y-44318D01*
X36738Y-44398D01*
X36658Y-44518D01*
X36631Y-44651D01*
X36451Y-44651D01*
X36359Y-44689D01*
X36289Y-44759D01*
X36251Y-44850D01*
X36251Y-44949D01*
X36251Y-45449D01*
X36289Y-45541D01*
X36359Y-45611D01*
X36450Y-45649D01*
X36549Y-45649D01*
X37549Y-45649D01*
X37641Y-45611D01*
X37711Y-45541D01*
X37749Y-45450D01*
X37749Y-45351D01*
X37749Y-44854D01*
X37894Y-44709D01*
X38149Y-44709D01*
X38388Y-44610D01*
X38570Y-44428D01*
X38669Y-44189D01*
X38669Y-46611D01*
X38104Y-46046D01*
X37965Y-45953D01*
X37800Y-45920D01*
X37672Y-45920D01*
X37641Y-45889D01*
X37550Y-45851D01*
X37451Y-45851D01*
X36451Y-45851D01*
X36359Y-45889D01*
X36289Y-45959D01*
X36251Y-46050D01*
X36251Y-46149D01*
X36251Y-46649D01*
X36289Y-46741D01*
X36359Y-46811D01*
X36450Y-46849D01*
X36549Y-46849D01*
X36843Y-46849D01*
X36623Y-46940D01*
X36271Y-47291D01*
X36081Y-47750D01*
X36080Y-48247D01*
X36270Y-48707D01*
X36621Y-49059D01*
X37080Y-49249D01*
X37577Y-49250D01*
X38037Y-49060D01*
X38389Y-48709D01*
X38579Y-48250D01*
X38580Y-47753D01*
X38569Y-47727D01*
X40811Y-49969D01*
X40950Y-50062D01*
X40951Y-50062D01*
X41115Y-50095D01*
X42536Y-50095D01*
X42536Y-50351D01*
X42569Y-50516D01*
X42662Y-50655D01*
X42762Y-50755D01*
X42763Y-50756D01*
X42902Y-50849D01*
X43066Y-50881D01*
X43067Y-50882D01*
X45600Y-50882D01*
X45721Y-50932D01*
X45912Y-50932D01*
X46032Y-50882D01*
X47923Y-50882D01*
X48087Y-50849D01*
X48088Y-50849D01*
X48227Y-50756D01*
X48554Y-50429D01*
X48561Y-50417D01*
X48562Y-50417D01*
X54793Y-50417D01*
X54852Y-50405D01*
X54853Y-50405D01*
X54950Y-50405D01*
X55126Y-50332D01*
X55262Y-50197D01*
X55335Y-50021D01*
X55335Y-49830D01*
X55262Y-49654D01*
X55127Y-49518D01*
X54951Y-49445D01*
X54760Y-49445D01*
X54584Y-49518D01*
X54544Y-49557D01*
X49000Y-49557D01*
X49000Y-48762D01*
X49000Y-48538D01*
X48999Y-48351D01*
X48961Y-48259D01*
X48891Y-48189D01*
X48800Y-48151D01*
X48701Y-48151D01*
X48362Y-48150D01*
X48300Y-48212D01*
X48300Y-48600D01*
X48938Y-48600D01*
X49000Y-48538D01*
X49000Y-48762D01*
X48938Y-48700D01*
X48300Y-48700D01*
X48300Y-49088D01*
X48362Y-49150D01*
X48701Y-49149D01*
X48800Y-49149D01*
X48891Y-49111D01*
X48961Y-49041D01*
X48999Y-48949D01*
X49000Y-48762D01*
X49000Y-49557D01*
X48999Y-49557D01*
X48999Y-49551D01*
X48961Y-49459D01*
X48891Y-49389D01*
X48800Y-49351D01*
X48701Y-49351D01*
X48200Y-49351D01*
X48200Y-49088D01*
X48200Y-48700D01*
X48200Y-48600D01*
X48200Y-48212D01*
X48200Y-46788D01*
X48200Y-46400D01*
X47562Y-46400D01*
X47500Y-46462D01*
X47501Y-46649D01*
X47539Y-46741D01*
X47609Y-46811D01*
X47700Y-46849D01*
X47799Y-46849D01*
X48138Y-46850D01*
X48200Y-46788D01*
X48200Y-48212D01*
X48138Y-48150D01*
X47799Y-48151D01*
X47700Y-48151D01*
X47609Y-48189D01*
X47539Y-48259D01*
X47501Y-48351D01*
X47500Y-48538D01*
X47562Y-48600D01*
X48200Y-48600D01*
X48200Y-48700D01*
X47562Y-48700D01*
X47500Y-48762D01*
X47501Y-48949D01*
X47539Y-49041D01*
X47609Y-49111D01*
X47700Y-49149D01*
X47799Y-49149D01*
X48138Y-49150D01*
X48200Y-49088D01*
X48200Y-49351D01*
X47701Y-49351D01*
X47609Y-49389D01*
X47539Y-49459D01*
X47501Y-49550D01*
X47501Y-49649D01*
X47501Y-50022D01*
X46749Y-50022D01*
X46750Y-49962D01*
X46750Y-49738D01*
X46749Y-49551D01*
X46711Y-49459D01*
X46641Y-49389D01*
X46550Y-49351D01*
X46451Y-49351D01*
X46112Y-49350D01*
X46050Y-49412D01*
X46050Y-49800D01*
X46688Y-49800D01*
X46750Y-49738D01*
X46750Y-49962D01*
X46688Y-49900D01*
X46100Y-49900D01*
X46050Y-49900D01*
X45950Y-49900D01*
X45950Y-49800D01*
X45950Y-49412D01*
X45888Y-49350D01*
X45549Y-49351D01*
X45450Y-49351D01*
X45359Y-49389D01*
X45289Y-49459D01*
X45251Y-49551D01*
X45250Y-49738D01*
X45312Y-49800D01*
X45950Y-49800D01*
X45950Y-49900D01*
X45900Y-49900D01*
X45312Y-49900D01*
X45250Y-49962D01*
X45250Y-50022D01*
X44499Y-50022D01*
X44500Y-49962D01*
X44438Y-49900D01*
X43850Y-49900D01*
X43800Y-49900D01*
X43700Y-49900D01*
X43700Y-49800D01*
X43800Y-49800D01*
X43850Y-49800D01*
X44438Y-49800D01*
X44500Y-49738D01*
X44499Y-49551D01*
X44461Y-49459D01*
X44391Y-49389D01*
X44300Y-49351D01*
X44201Y-49351D01*
X44149Y-49350D01*
X44180Y-49200D01*
X44180Y-49149D01*
X44299Y-49149D01*
X44391Y-49111D01*
X44461Y-49041D01*
X44499Y-48950D01*
X44499Y-48851D01*
X44499Y-48484D01*
X44520Y-48476D01*
X45251Y-48476D01*
X45251Y-48949D01*
X45289Y-49041D01*
X45359Y-49111D01*
X45450Y-49149D01*
X45549Y-49149D01*
X46549Y-49149D01*
X46641Y-49111D01*
X46711Y-49041D01*
X46749Y-48950D01*
X46749Y-48851D01*
X46749Y-48351D01*
X46711Y-48259D01*
X46701Y-48249D01*
X46899Y-48249D01*
X46991Y-48211D01*
X47061Y-48141D01*
X47076Y-48104D01*
X47215Y-48104D01*
X47371Y-48040D01*
X47491Y-47920D01*
X47556Y-47764D01*
X47556Y-47595D01*
X47492Y-47439D01*
X47437Y-47384D01*
X47432Y-47358D01*
X47352Y-47238D01*
X47232Y-47158D01*
X47099Y-47131D01*
X47099Y-46951D01*
X47061Y-46859D01*
X46991Y-46789D01*
X46969Y-46780D01*
X47015Y-46671D01*
X47440Y-46246D01*
X47508Y-46246D01*
X47562Y-46300D01*
X48150Y-46300D01*
X48200Y-46300D01*
X48300Y-46300D01*
X48300Y-46400D01*
X48300Y-46450D01*
X48300Y-46788D01*
X48362Y-46850D01*
X48701Y-46849D01*
X48800Y-46849D01*
X48891Y-46811D01*
X48961Y-46741D01*
X48999Y-46649D01*
X48999Y-46612D01*
X49118Y-46692D01*
X49260Y-46720D01*
X49280Y-46720D01*
X49289Y-46741D01*
X49359Y-46811D01*
X49450Y-46849D01*
X49549Y-46849D01*
X49843Y-46849D01*
X49623Y-46940D01*
X49271Y-47291D01*
X49081Y-47750D01*
X49080Y-48247D01*
X49270Y-48707D01*
X49621Y-49059D01*
X50080Y-49249D01*
X50577Y-49250D01*
X51037Y-49060D01*
X51389Y-48709D01*
X51579Y-48250D01*
X51580Y-47753D01*
X51390Y-47293D01*
X51039Y-46941D01*
X50665Y-46786D01*
X50711Y-46741D01*
X50719Y-46720D01*
X54280Y-46720D01*
X54289Y-46741D01*
X54334Y-46786D01*
X53963Y-46940D01*
X53611Y-47291D01*
X53421Y-47750D01*
X53420Y-48247D01*
X53610Y-48707D01*
X53961Y-49059D01*
X54420Y-49249D01*
X54917Y-49250D01*
X55377Y-49060D01*
X55729Y-48709D01*
X55919Y-48250D01*
X55920Y-47753D01*
X55730Y-47293D01*
X55379Y-46941D01*
X55156Y-46849D01*
X55549Y-46849D01*
X55641Y-46811D01*
X55711Y-46741D01*
X55749Y-46650D01*
X55749Y-46551D01*
X55749Y-46051D01*
X55726Y-45997D01*
X55756Y-45997D01*
X60498Y-50738D01*
X60174Y-50873D01*
X60088Y-51017D01*
X60750Y-51679D01*
X61412Y-51017D01*
X61326Y-50873D01*
X61318Y-50870D01*
X63250Y-50870D01*
X63401Y-51021D01*
X63627Y-51115D01*
X63872Y-51115D01*
X64098Y-51021D01*
X64250Y-50869D01*
X64401Y-51021D01*
X64627Y-51115D01*
X64872Y-51115D01*
X65098Y-51021D01*
X65250Y-50869D01*
X65401Y-51021D01*
X65627Y-51115D01*
X65872Y-51115D01*
X66098Y-51021D01*
X66250Y-50869D01*
X66401Y-51021D01*
X66627Y-51115D01*
X66872Y-51115D01*
X67098Y-51021D01*
X67156Y-50963D01*
X67174Y-51006D01*
X67244Y-51076D01*
X67336Y-51114D01*
X67638Y-51115D01*
X67700Y-51053D01*
X67700Y-50600D01*
X67700Y-50550D01*
X67700Y-50450D01*
X67700Y-50400D01*
X67700Y-49947D01*
X67638Y-49885D01*
X67336Y-49886D01*
X67244Y-49924D01*
X67174Y-49994D01*
X67156Y-50036D01*
X67099Y-49979D01*
X66873Y-49885D01*
X66658Y-49885D01*
X64342Y-47568D01*
X64249Y-47506D01*
X64249Y-41675D01*
X64249Y-41576D01*
X64249Y-41326D01*
X64217Y-41250D01*
X64249Y-41175D01*
X64249Y-41076D01*
X64249Y-40826D01*
X64217Y-40750D01*
X64249Y-40675D01*
X64249Y-40611D01*
X64188Y-40550D01*
X63800Y-40550D01*
X63750Y-40550D01*
X63650Y-40550D01*
X63600Y-40550D01*
X63212Y-40550D01*
X63151Y-40611D01*
X63151Y-40631D01*
X63018Y-40658D01*
X62898Y-40738D01*
X62818Y-40858D01*
X62790Y-41000D01*
X62790Y-41500D01*
X62818Y-41642D01*
X62898Y-41762D01*
X63018Y-41842D01*
X63160Y-41870D01*
X63340Y-41870D01*
X63350Y-41874D01*
X63449Y-41874D01*
X64049Y-41874D01*
X64141Y-41836D01*
X64211Y-41766D01*
X64249Y-41675D01*
X64249Y-47506D01*
X64222Y-47488D01*
X64197Y-47483D01*
X64080Y-47459D01*
X64075Y-47460D01*
X62294Y-47460D01*
X62236Y-47401D01*
X62262Y-47391D01*
X62398Y-47256D01*
X62471Y-47080D01*
X62471Y-46889D01*
X62421Y-46768D01*
X62421Y-40287D01*
X62471Y-40167D01*
X62471Y-39976D01*
X62427Y-39870D01*
X63151Y-39870D01*
X63151Y-39924D01*
X63151Y-40174D01*
X63182Y-40249D01*
X63151Y-40325D01*
X63151Y-40389D01*
X63212Y-40450D01*
X63600Y-40450D01*
X63650Y-40450D01*
X63750Y-40450D01*
X63800Y-40450D01*
X64188Y-40450D01*
X64208Y-40430D01*
X64300Y-40430D01*
X64399Y-40410D01*
X64400Y-40410D01*
X65670Y-40410D01*
X65670Y-40500D01*
X65703Y-40665D01*
X65796Y-40804D01*
X65935Y-40897D01*
X66100Y-40930D01*
X66151Y-40930D01*
X66151Y-41049D01*
X66189Y-41141D01*
X66259Y-41211D01*
X66287Y-41222D01*
X66280Y-41260D01*
X66280Y-41280D01*
X66259Y-41289D01*
X66189Y-41359D01*
X66151Y-41450D01*
X66151Y-41549D01*
X66151Y-42549D01*
X66189Y-42641D01*
X66259Y-42711D01*
X66280Y-42719D01*
X66280Y-42780D01*
X66259Y-42789D01*
X66189Y-42859D01*
X66151Y-42950D01*
X66151Y-43049D01*
X66151Y-44049D01*
X66189Y-44141D01*
X66259Y-44211D01*
X66350Y-44249D01*
X66449Y-44249D01*
X66949Y-44249D01*
X67041Y-44211D01*
X67111Y-44141D01*
X67149Y-44050D01*
X67149Y-43951D01*
X67149Y-42951D01*
X67111Y-42859D01*
X67041Y-42789D01*
X67020Y-42780D01*
X67020Y-42719D01*
X67041Y-42711D01*
X67111Y-42641D01*
X67149Y-42550D01*
X67149Y-42451D01*
X67149Y-41611D01*
X67172Y-41606D01*
X67196Y-41602D01*
X67197Y-41602D01*
X67317Y-41522D01*
X67351Y-41487D01*
X67351Y-41549D01*
X67350Y-41888D01*
X67412Y-41950D01*
X67800Y-41950D01*
X67800Y-42050D01*
X67412Y-42050D01*
X67350Y-42112D01*
X67351Y-42451D01*
X67351Y-42550D01*
X67389Y-42641D01*
X67459Y-42711D01*
X67551Y-42749D01*
X67738Y-42750D01*
X67800Y-42688D01*
X67800Y-42751D01*
X67551Y-42751D01*
X67459Y-42789D01*
X67389Y-42859D01*
X67351Y-42950D01*
X67351Y-43049D01*
X67351Y-44049D01*
X67389Y-44141D01*
X67459Y-44211D01*
X67550Y-44249D01*
X67649Y-44249D01*
X68149Y-44249D01*
X68241Y-44211D01*
X68311Y-44141D01*
X68349Y-44050D01*
X68349Y-43951D01*
X68349Y-43870D01*
X68770Y-43870D01*
X68869Y-43969D01*
X69064Y-44050D01*
X69275Y-44050D01*
X69470Y-43969D01*
X69619Y-43821D01*
X69700Y-43626D01*
X69700Y-52705D01*
X68365Y-52705D01*
X68365Y-50612D01*
X68365Y-50388D01*
X68364Y-50184D01*
X68364Y-50085D01*
X68326Y-49994D01*
X68256Y-49924D01*
X68164Y-49886D01*
X67862Y-49885D01*
X67800Y-49947D01*
X67800Y-50450D01*
X68303Y-50450D01*
X68365Y-50388D01*
X68365Y-50612D01*
X68303Y-50550D01*
X67800Y-50550D01*
X67800Y-51053D01*
X67862Y-51115D01*
X68164Y-51114D01*
X68256Y-51076D01*
X68326Y-51006D01*
X68364Y-50915D01*
X68364Y-50816D01*
X68365Y-50612D01*
X68365Y-52705D01*
X61780Y-52705D01*
X61780Y-51946D01*
X61777Y-51536D01*
X61627Y-51174D01*
X61483Y-51088D01*
X60821Y-51750D01*
X61483Y-52412D01*
X61627Y-52326D01*
X61780Y-51946D01*
X61780Y-52705D01*
X61137Y-52705D01*
X61326Y-52627D01*
X61412Y-52483D01*
X60750Y-51821D01*
X60679Y-51892D01*
X60679Y-51750D01*
X60017Y-51088D01*
X59873Y-51174D01*
X59720Y-51554D01*
X59723Y-51964D01*
X59873Y-52326D01*
X60017Y-52412D01*
X60679Y-51750D01*
X60679Y-51892D01*
X60088Y-52483D01*
X60174Y-52627D01*
X60367Y-52705D01*
X41780Y-52705D01*
X41780Y-51946D01*
X41777Y-51536D01*
X41627Y-51174D01*
X41483Y-51088D01*
X41412Y-51159D01*
X41412Y-51017D01*
X41326Y-50873D01*
X40946Y-50720D01*
X40536Y-50723D01*
X40174Y-50873D01*
X40088Y-51017D01*
X40750Y-51679D01*
X41412Y-51017D01*
X41412Y-51159D01*
X40821Y-51750D01*
X41483Y-52412D01*
X41627Y-52326D01*
X41780Y-51946D01*
X41780Y-52705D01*
X41137Y-52705D01*
X41326Y-52627D01*
X41412Y-52483D01*
X40750Y-51821D01*
X40679Y-51892D01*
X40679Y-51750D01*
X40017Y-51088D01*
X39873Y-51174D01*
X39720Y-51554D01*
X39723Y-51964D01*
X39873Y-52326D01*
X40017Y-52412D01*
X40679Y-51750D01*
X40679Y-51892D01*
X40088Y-52483D01*
X40174Y-52627D01*
X40367Y-52705D01*
X35600Y-52705D01*
X35600Y-49420D01*
X35600Y-49082D01*
X35471Y-48770D01*
X35232Y-48530D01*
X34920Y-48400D01*
X34582Y-48400D01*
X34270Y-48529D01*
X34030Y-48768D01*
X33900Y-49080D01*
X33900Y-49418D01*
X34029Y-49730D01*
X34268Y-49970D01*
X34580Y-50100D01*
X34918Y-50100D01*
X35230Y-49971D01*
X35470Y-49732D01*
X35600Y-49420D01*
X35600Y-52705D01*
X33324Y-52705D01*
X33324Y-47625D01*
X33324Y-47526D01*
X33324Y-46876D01*
X33324Y-36625D01*
X33324Y-36526D01*
X33324Y-35876D01*
X33286Y-35784D01*
X33216Y-35714D01*
X33125Y-35676D01*
X33026Y-35676D01*
X32376Y-35676D01*
X32284Y-35714D01*
X32214Y-35784D01*
X32176Y-35875D01*
X32176Y-35974D01*
X32176Y-36624D01*
X32214Y-36716D01*
X32284Y-36786D01*
X32375Y-36824D01*
X32434Y-36824D01*
X32425Y-36854D01*
X32750Y-37179D01*
X33075Y-36854D01*
X33065Y-36824D01*
X33124Y-36824D01*
X33216Y-36786D01*
X33286Y-36716D01*
X33324Y-36625D01*
X33324Y-46876D01*
X33318Y-46861D01*
X33318Y-37334D01*
X33306Y-37111D01*
X33242Y-36954D01*
X33146Y-36925D01*
X32821Y-37250D01*
X33146Y-37575D01*
X33242Y-37546D01*
X33318Y-37334D01*
X33318Y-46861D01*
X33286Y-46784D01*
X33216Y-46714D01*
X33125Y-46676D01*
X33075Y-46676D01*
X33075Y-37646D01*
X32750Y-37321D01*
X32679Y-37392D01*
X32679Y-37250D01*
X32354Y-36925D01*
X32258Y-36954D01*
X32182Y-37166D01*
X32194Y-37389D01*
X32258Y-37546D01*
X32354Y-37575D01*
X32679Y-37250D01*
X32679Y-37392D01*
X32425Y-37646D01*
X32454Y-37742D01*
X32666Y-37818D01*
X32889Y-37806D01*
X33046Y-37742D01*
X33075Y-37646D01*
X33075Y-46676D01*
X33044Y-46676D01*
X33044Y-41923D01*
X33040Y-41553D01*
X32907Y-41233D01*
X32772Y-41159D01*
X32701Y-41230D01*
X32701Y-41088D01*
X32627Y-40953D01*
X32283Y-40816D01*
X32181Y-40817D01*
X32257Y-40786D01*
X32525Y-40519D01*
X32670Y-40170D01*
X32670Y-39792D01*
X32526Y-39443D01*
X32259Y-39175D01*
X31910Y-39030D01*
X31780Y-39030D01*
X31780Y-31946D01*
X31777Y-31536D01*
X31627Y-31174D01*
X31483Y-31088D01*
X30821Y-31750D01*
X31483Y-32412D01*
X31627Y-32326D01*
X31780Y-31946D01*
X31780Y-39030D01*
X31600Y-39030D01*
X31600Y-38420D01*
X31600Y-38082D01*
X31600Y-34420D01*
X31600Y-34082D01*
X31471Y-33770D01*
X31412Y-33710D01*
X31412Y-32483D01*
X30750Y-31821D01*
X30088Y-32483D01*
X30174Y-32627D01*
X30554Y-32780D01*
X30964Y-32777D01*
X31326Y-32627D01*
X31412Y-32483D01*
X31412Y-33710D01*
X31232Y-33530D01*
X30920Y-33400D01*
X30582Y-33400D01*
X30270Y-33529D01*
X30030Y-33768D01*
X29900Y-34080D01*
X29900Y-34418D01*
X30029Y-34730D01*
X30268Y-34970D01*
X30580Y-35100D01*
X30918Y-35100D01*
X31230Y-34971D01*
X31470Y-34732D01*
X31600Y-34420D01*
X31600Y-38082D01*
X31471Y-37770D01*
X31232Y-37530D01*
X30920Y-37400D01*
X30582Y-37400D01*
X30270Y-37529D01*
X30030Y-37768D01*
X29900Y-38080D01*
X29900Y-38418D01*
X30029Y-38730D01*
X30268Y-38970D01*
X30580Y-39100D01*
X30918Y-39100D01*
X31230Y-38971D01*
X31470Y-38732D01*
X31600Y-38420D01*
X31600Y-39030D01*
X31532Y-39030D01*
X31183Y-39174D01*
X30915Y-39441D01*
X30770Y-39790D01*
X30770Y-40168D01*
X30914Y-40517D01*
X31181Y-40785D01*
X31530Y-40930D01*
X31648Y-40930D01*
X31593Y-40953D01*
X31519Y-41088D01*
X32110Y-41679D01*
X32701Y-41088D01*
X32701Y-41230D01*
X32181Y-41750D01*
X32772Y-42341D01*
X32907Y-42267D01*
X33044Y-41923D01*
X33044Y-46676D01*
X33026Y-46676D01*
X32701Y-46676D01*
X32701Y-42412D01*
X32110Y-41821D01*
X32039Y-41892D01*
X32039Y-41750D01*
X31448Y-41159D01*
X31313Y-41233D01*
X31310Y-41239D01*
X31287Y-41216D01*
X31056Y-41120D01*
X30805Y-41120D01*
X30573Y-41216D01*
X30396Y-41393D01*
X30300Y-41624D01*
X30300Y-41875D01*
X30396Y-42107D01*
X30573Y-42284D01*
X30804Y-42380D01*
X31055Y-42380D01*
X31287Y-42284D01*
X31310Y-42260D01*
X31313Y-42267D01*
X31448Y-42341D01*
X32039Y-41750D01*
X32039Y-41892D01*
X31519Y-42412D01*
X31593Y-42547D01*
X31650Y-42570D01*
X31532Y-42570D01*
X31183Y-42714D01*
X30915Y-42981D01*
X30770Y-43330D01*
X30770Y-43708D01*
X30914Y-44057D01*
X31181Y-44325D01*
X31530Y-44470D01*
X31908Y-44470D01*
X32257Y-44326D01*
X32525Y-44059D01*
X32670Y-43710D01*
X32670Y-43332D01*
X32526Y-42983D01*
X32259Y-42715D01*
X32178Y-42681D01*
X32307Y-42680D01*
X32627Y-42547D01*
X32701Y-42412D01*
X32701Y-46676D01*
X32663Y-46676D01*
X32674Y-46650D01*
X32674Y-46551D01*
X32675Y-45862D01*
X32675Y-45638D01*
X32674Y-44949D01*
X32674Y-44850D01*
X32636Y-44759D01*
X32566Y-44689D01*
X32474Y-44651D01*
X32162Y-44650D01*
X32100Y-44712D01*
X32100Y-45700D01*
X32613Y-45700D01*
X32675Y-45638D01*
X32675Y-45862D01*
X32613Y-45800D01*
X32100Y-45800D01*
X32100Y-46788D01*
X32162Y-46850D01*
X32186Y-46849D01*
X32176Y-46875D01*
X32176Y-46974D01*
X32176Y-47624D01*
X32214Y-47716D01*
X32284Y-47786D01*
X32375Y-47824D01*
X32434Y-47824D01*
X32425Y-47854D01*
X32750Y-48179D01*
X33075Y-47854D01*
X33065Y-47824D01*
X33124Y-47824D01*
X33216Y-47786D01*
X33286Y-47716D01*
X33324Y-47625D01*
X33324Y-52705D01*
X33318Y-52705D01*
X33318Y-48334D01*
X33306Y-48111D01*
X33242Y-47954D01*
X33146Y-47925D01*
X32821Y-48250D01*
X33146Y-48575D01*
X33242Y-48546D01*
X33318Y-48334D01*
X33318Y-52705D01*
X33075Y-52705D01*
X33075Y-48646D01*
X32750Y-48321D01*
X32679Y-48392D01*
X32679Y-48250D01*
X32354Y-47925D01*
X32258Y-47954D01*
X32182Y-48166D01*
X32194Y-48389D01*
X32258Y-48546D01*
X32354Y-48575D01*
X32679Y-48250D01*
X32679Y-48392D01*
X32425Y-48646D01*
X32454Y-48742D01*
X32666Y-48818D01*
X32889Y-48806D01*
X33046Y-48742D01*
X33075Y-48646D01*
X33075Y-52705D01*
X32000Y-52705D01*
X32000Y-46788D01*
X32000Y-45850D01*
X32000Y-45800D01*
X32000Y-45700D01*
X32000Y-45650D01*
X32000Y-44712D01*
X31938Y-44650D01*
X31626Y-44651D01*
X31534Y-44689D01*
X31464Y-44759D01*
X31462Y-44761D01*
X31232Y-44530D01*
X30920Y-44400D01*
X30582Y-44400D01*
X30270Y-44529D01*
X30030Y-44768D01*
X29900Y-45080D01*
X29900Y-45418D01*
X30029Y-45730D01*
X30268Y-45970D01*
X30580Y-46100D01*
X30918Y-46100D01*
X31230Y-45971D01*
X31425Y-45776D01*
X31425Y-45850D01*
X31437Y-45850D01*
X31425Y-45862D01*
X31426Y-46551D01*
X31426Y-46650D01*
X31464Y-46741D01*
X31534Y-46811D01*
X31626Y-46849D01*
X31938Y-46850D01*
X32000Y-46788D01*
X32000Y-52705D01*
X31780Y-52705D01*
X31780Y-51946D01*
X31777Y-51536D01*
X31627Y-51174D01*
X31600Y-51157D01*
X31600Y-49420D01*
X31600Y-49082D01*
X31471Y-48770D01*
X31232Y-48530D01*
X30920Y-48400D01*
X30582Y-48400D01*
X30270Y-48529D01*
X30030Y-48768D01*
X29900Y-49080D01*
X29900Y-49418D01*
X30029Y-49730D01*
X30268Y-49970D01*
X30580Y-50100D01*
X30918Y-50100D01*
X31230Y-49971D01*
X31470Y-49732D01*
X31600Y-49420D01*
X31600Y-51157D01*
X31483Y-51088D01*
X31412Y-51159D01*
X31412Y-51017D01*
X31326Y-50873D01*
X30946Y-50720D01*
X30536Y-50723D01*
X30174Y-50873D01*
X30088Y-51017D01*
X30750Y-51679D01*
X31412Y-51017D01*
X31412Y-51159D01*
X30821Y-51750D01*
X31483Y-52412D01*
X31627Y-52326D01*
X31780Y-51946D01*
X31780Y-52705D01*
X31137Y-52705D01*
X31326Y-52627D01*
X31412Y-52483D01*
X30750Y-51821D01*
X30088Y-52483D01*
X30174Y-52627D01*
X30367Y-52705D01*
X29795Y-52705D01*
X29795Y-52137D01*
X29873Y-52326D01*
X30017Y-52412D01*
X30679Y-51750D01*
X30017Y-51088D01*
X29873Y-51174D01*
X29795Y-51367D01*
X29795Y-32137D01*
X29873Y-32326D01*
X30017Y-32412D01*
X30679Y-31750D01*
X30017Y-31088D01*
X29873Y-31174D01*
X29795Y-31367D01*
X29795Y-30795D01*
X30362Y-30795D01*
X30174Y-30873D01*
X30088Y-31017D01*
X30750Y-31679D01*
X31412Y-31017D01*
X31326Y-30873D01*
X31132Y-30795D01*
X40362Y-30795D01*
X40174Y-30873D01*
X40088Y-31017D01*
X40750Y-31679D01*
X41412Y-31017D01*
X41326Y-30873D01*
X41132Y-30795D01*
X60362Y-30795D01*
X60174Y-30873D01*
X60088Y-31017D01*
X60750Y-31679D01*
X61412Y-31017D01*
X61326Y-30873D01*
X61132Y-30795D01*
X70362Y-30795D01*
X70174Y-30873D01*
X70088Y-31017D01*
X70750Y-31679D01*
X71412Y-31017D01*
X71326Y-30873D01*
X71132Y-30795D01*
X71705Y-30795D01*
X71705Y-31362D01*
X71627Y-31174D01*
X71483Y-31088D01*
X70821Y-31750D01*
X71483Y-32412D01*
X71627Y-32326D01*
X71705Y-32132D01*
X71705Y-38735D01*
X71535Y-38565D01*
X71412Y-38513D01*
X71412Y-32483D01*
X70750Y-31821D01*
X70679Y-31892D01*
X70679Y-31750D01*
X70017Y-31088D01*
X69873Y-31174D01*
X69720Y-31554D01*
X69723Y-31964D01*
X69873Y-32326D01*
X70017Y-32412D01*
X70679Y-31750D01*
X70679Y-31892D01*
X70088Y-32483D01*
X70174Y-32627D01*
X70554Y-32780D01*
X70964Y-32777D01*
X71326Y-32627D01*
X71412Y-32483D01*
X71412Y-38513D01*
X71247Y-38445D01*
X70935Y-38445D01*
X70646Y-38564D01*
X70425Y-38785D01*
X70305Y-39073D01*
X70305Y-39385D01*
X70424Y-39674D01*
X70645Y-39895D01*
X70933Y-40015D01*
X71245Y-40015D01*
X71534Y-39896D01*
X71705Y-39725D01*
X71705Y-43828D01*
X71635Y-43796D01*
X71605Y-43826D01*
X71605Y-41907D01*
X71605Y-41595D01*
X71486Y-41306D01*
X71265Y-41085D01*
X70977Y-40965D01*
X70665Y-40965D01*
X70376Y-41084D01*
X70155Y-41305D01*
X70035Y-41593D01*
X70035Y-41905D01*
X70154Y-42194D01*
X70375Y-42415D01*
X70663Y-42535D01*
X70975Y-42535D01*
X71264Y-42416D01*
X71485Y-42195D01*
X71605Y-41907D01*
X71605Y-43826D01*
X71564Y-43867D01*
X71564Y-43725D01*
X71510Y-43607D01*
X71224Y-43496D01*
X70918Y-43504D01*
X70670Y-43607D01*
X70616Y-43725D01*
X71090Y-44199D01*
X71564Y-43725D01*
X71564Y-43867D01*
X71161Y-44270D01*
X71635Y-44744D01*
X71705Y-44711D01*
X71705Y-51362D01*
X71627Y-51174D01*
X71564Y-51136D01*
X71564Y-44815D01*
X71090Y-44341D01*
X71019Y-44412D01*
X71019Y-44270D01*
X70545Y-43796D01*
X70427Y-43850D01*
X70316Y-44136D01*
X70324Y-44442D01*
X70427Y-44690D01*
X70545Y-44744D01*
X71019Y-44270D01*
X71019Y-44412D01*
X70616Y-44815D01*
X70670Y-44933D01*
X70956Y-45044D01*
X71262Y-45036D01*
X71510Y-44933D01*
X71564Y-44815D01*
X71564Y-51136D01*
X71483Y-51088D01*
X71412Y-51159D01*
X71412Y-51017D01*
X71326Y-50873D01*
X70946Y-50720D01*
X70536Y-50723D01*
X70174Y-50873D01*
X70088Y-51017D01*
X70750Y-51679D01*
X71412Y-51017D01*
X71412Y-51159D01*
X70821Y-51750D01*
X71483Y-52412D01*
X71627Y-52326D01*
X71705Y-52132D01*
X71705Y-52705D01*
X71705Y-52705D01*
G37*
G54D35*
X71705Y-52705D02*
X71137Y-52705D01*
X71326Y-52627D01*
X71412Y-52483D01*
X70750Y-51821D01*
X70679Y-51892D01*
X70679Y-51750D01*
X70017Y-51088D01*
X69873Y-51174D01*
X69720Y-51554D01*
X69723Y-51964D01*
X69873Y-52326D01*
X70017Y-52412D01*
X70679Y-51750D01*
X70679Y-51892D01*
X70088Y-52483D01*
X70174Y-52627D01*
X70367Y-52705D01*
X69700Y-52705D01*
X69700Y-43626D01*
X69700Y-43415D01*
X69700Y-40086D01*
X69700Y-39875D01*
X69619Y-39680D01*
X69471Y-39531D01*
X69276Y-39450D01*
X69065Y-39450D01*
X68870Y-39531D01*
X68721Y-39679D01*
X68640Y-39874D01*
X68640Y-40085D01*
X68703Y-40239D01*
X68679Y-40264D01*
X68641Y-40355D01*
X68641Y-40454D01*
X68641Y-41014D01*
X68679Y-41106D01*
X68749Y-41176D01*
X68840Y-41214D01*
X68939Y-41214D01*
X69499Y-41214D01*
X69591Y-41176D01*
X69661Y-41106D01*
X69699Y-41015D01*
X69699Y-40916D01*
X69699Y-40356D01*
X69661Y-40264D01*
X69636Y-40239D01*
X69700Y-40086D01*
X69700Y-43415D01*
X69694Y-43400D01*
X69619Y-43220D01*
X69573Y-43173D01*
X69622Y-43125D01*
X69590Y-43093D01*
X69626Y-43084D01*
X69694Y-42889D01*
X69683Y-42683D01*
X69626Y-42546D01*
X69534Y-42522D01*
X69463Y-42593D01*
X69463Y-42451D01*
X69439Y-42359D01*
X69244Y-42291D01*
X69038Y-42302D01*
X68901Y-42359D01*
X68877Y-42451D01*
X69170Y-42744D01*
X69463Y-42451D01*
X69463Y-42593D01*
X69276Y-42780D01*
X69241Y-42815D01*
X69170Y-42886D01*
X69099Y-42815D01*
X69064Y-42780D01*
X68806Y-42522D01*
X68714Y-42546D01*
X68646Y-42741D01*
X68657Y-42947D01*
X68714Y-43084D01*
X68749Y-43093D01*
X68718Y-43125D01*
X68723Y-43130D01*
X68350Y-43130D01*
X68350Y-42112D01*
X68350Y-41888D01*
X68349Y-41549D01*
X68349Y-41450D01*
X68311Y-41359D01*
X68241Y-41289D01*
X68149Y-41251D01*
X67962Y-41250D01*
X68149Y-41249D01*
X68241Y-41211D01*
X68311Y-41141D01*
X68349Y-41050D01*
X68349Y-40951D01*
X68350Y-40612D01*
X68350Y-40388D01*
X68349Y-40049D01*
X68349Y-39950D01*
X68311Y-39859D01*
X68241Y-39789D01*
X68149Y-39751D01*
X67962Y-39750D01*
X67900Y-39812D01*
X67900Y-40450D01*
X68288Y-40450D01*
X68350Y-40388D01*
X68350Y-40612D01*
X68288Y-40550D01*
X67900Y-40550D01*
X67900Y-41188D01*
X67962Y-41250D01*
X67900Y-41312D01*
X67900Y-41950D01*
X68288Y-41950D01*
X68350Y-41888D01*
X68350Y-42112D01*
X68288Y-42050D01*
X67900Y-42050D01*
X67900Y-42688D01*
X67962Y-42750D01*
X68149Y-42749D01*
X68241Y-42711D01*
X68311Y-42641D01*
X68349Y-42550D01*
X68349Y-42451D01*
X68350Y-42112D01*
X68350Y-43130D01*
X68349Y-43130D01*
X68349Y-42951D01*
X68311Y-42859D01*
X68241Y-42789D01*
X68150Y-42751D01*
X68051Y-42751D01*
X67800Y-42751D01*
X67800Y-42688D01*
X67800Y-42050D01*
X67800Y-41950D01*
X67800Y-41312D01*
X67738Y-41250D01*
X67800Y-41188D01*
X67800Y-40600D01*
X67800Y-40550D01*
X67800Y-40450D01*
X67800Y-40400D01*
X67800Y-39812D01*
X67738Y-39750D01*
X67551Y-39751D01*
X67494Y-39774D01*
X67494Y-39732D01*
X67466Y-39591D01*
X67466Y-39590D01*
X67386Y-39470D01*
X67154Y-39238D01*
X67034Y-39158D01*
X67009Y-39153D01*
X66892Y-39129D01*
X66887Y-39130D01*
X64249Y-39130D01*
X64249Y-39076D01*
X64249Y-38826D01*
X64217Y-38750D01*
X64249Y-38675D01*
X64249Y-38576D01*
X64249Y-38326D01*
X64211Y-38234D01*
X64141Y-38164D01*
X64050Y-38126D01*
X63951Y-38126D01*
X63351Y-38126D01*
X63341Y-38130D01*
X63313Y-38130D01*
X63125Y-37941D01*
X63125Y-37887D01*
X63180Y-37755D01*
X63180Y-37586D01*
X63116Y-37430D01*
X62996Y-37310D01*
X62840Y-37245D01*
X62671Y-37245D01*
X62515Y-37309D01*
X62395Y-37429D01*
X62330Y-37585D01*
X62330Y-37754D01*
X62385Y-37888D01*
X62385Y-38090D01*
X62384Y-38095D01*
X62408Y-38212D01*
X62413Y-38237D01*
X62493Y-38357D01*
X62790Y-38653D01*
X62790Y-39000D01*
X62815Y-39130D01*
X61849Y-39130D01*
X61849Y-39076D01*
X61849Y-38826D01*
X61817Y-38750D01*
X61849Y-38675D01*
X61849Y-38576D01*
X61849Y-38326D01*
X61811Y-38234D01*
X61780Y-38203D01*
X61780Y-31946D01*
X61777Y-31536D01*
X61627Y-31174D01*
X61483Y-31088D01*
X60821Y-31750D01*
X61483Y-32412D01*
X61627Y-32326D01*
X61780Y-31946D01*
X61780Y-38203D01*
X61741Y-38164D01*
X61650Y-38126D01*
X61551Y-38126D01*
X61412Y-38126D01*
X61412Y-32483D01*
X60750Y-31821D01*
X60679Y-31892D01*
X60679Y-31750D01*
X60017Y-31088D01*
X59873Y-31174D01*
X59720Y-31554D01*
X59723Y-31964D01*
X59873Y-32326D01*
X60017Y-32412D01*
X60679Y-31750D01*
X60679Y-31892D01*
X60088Y-32483D01*
X60174Y-32627D01*
X60554Y-32780D01*
X60964Y-32777D01*
X61326Y-32627D01*
X61412Y-32483D01*
X61412Y-38126D01*
X60951Y-38126D01*
X60941Y-38130D01*
X60760Y-38130D01*
X60618Y-38158D01*
X60498Y-38238D01*
X60418Y-38358D01*
X60390Y-38500D01*
X60390Y-38846D01*
X59848Y-39388D01*
X59768Y-39508D01*
X59763Y-39532D01*
X59739Y-39650D01*
X59740Y-39654D01*
X59740Y-47008D01*
X59560Y-47188D01*
X59429Y-47242D01*
X59309Y-47362D01*
X59259Y-47480D01*
X58378Y-46599D01*
X59049Y-46599D01*
X59141Y-46561D01*
X59211Y-46491D01*
X59249Y-46400D01*
X59249Y-46301D01*
X59249Y-45801D01*
X59211Y-45709D01*
X59141Y-45639D01*
X59050Y-45601D01*
X58951Y-45601D01*
X58868Y-45601D01*
X58842Y-45468D01*
X58796Y-45399D01*
X58951Y-45399D01*
X59050Y-45399D01*
X59141Y-45361D01*
X59211Y-45291D01*
X59249Y-45199D01*
X59250Y-45012D01*
X59250Y-44788D01*
X59249Y-44601D01*
X59211Y-44509D01*
X59141Y-44439D01*
X59050Y-44401D01*
X58951Y-44401D01*
X58850Y-44400D01*
X58850Y-42112D01*
X58850Y-41888D01*
X58850Y-36112D01*
X58850Y-35888D01*
X58850Y-34112D01*
X58850Y-33888D01*
X58849Y-33549D01*
X58849Y-33450D01*
X58811Y-33359D01*
X58741Y-33289D01*
X58649Y-33251D01*
X58462Y-33250D01*
X58400Y-33312D01*
X58400Y-33950D01*
X58788Y-33950D01*
X58850Y-33888D01*
X58850Y-34112D01*
X58788Y-34050D01*
X58400Y-34050D01*
X58400Y-34688D01*
X58462Y-34750D01*
X58649Y-34749D01*
X58741Y-34711D01*
X58811Y-34641D01*
X58849Y-34550D01*
X58849Y-34451D01*
X58850Y-34112D01*
X58850Y-35888D01*
X58849Y-35549D01*
X58849Y-35450D01*
X58811Y-35359D01*
X58741Y-35289D01*
X58649Y-35251D01*
X58462Y-35250D01*
X58400Y-35312D01*
X58400Y-35950D01*
X58788Y-35950D01*
X58850Y-35888D01*
X58850Y-36112D01*
X58788Y-36050D01*
X58400Y-36050D01*
X58400Y-36688D01*
X58462Y-36750D01*
X58649Y-36749D01*
X58741Y-36711D01*
X58811Y-36641D01*
X58849Y-36550D01*
X58849Y-36451D01*
X58850Y-36112D01*
X58850Y-41888D01*
X58849Y-41549D01*
X58849Y-41450D01*
X58849Y-39550D01*
X58849Y-39451D01*
X58849Y-38451D01*
X58811Y-38359D01*
X58741Y-38289D01*
X58650Y-38251D01*
X58551Y-38251D01*
X58230Y-38251D01*
X58230Y-36749D01*
X58238Y-36750D01*
X58300Y-36688D01*
X58300Y-36100D01*
X58300Y-36050D01*
X58300Y-35950D01*
X58300Y-35900D01*
X58300Y-35312D01*
X58300Y-34688D01*
X58300Y-34050D01*
X58300Y-33950D01*
X58300Y-33312D01*
X58238Y-33250D01*
X58051Y-33251D01*
X57959Y-33289D01*
X57889Y-33359D01*
X57851Y-33450D01*
X57851Y-33549D01*
X57850Y-33888D01*
X57912Y-33950D01*
X58300Y-33950D01*
X58300Y-34050D01*
X57912Y-34050D01*
X57850Y-34112D01*
X57851Y-34451D01*
X57851Y-34550D01*
X57889Y-34641D01*
X57959Y-34711D01*
X58051Y-34749D01*
X58238Y-34750D01*
X58300Y-34688D01*
X58300Y-35312D01*
X58238Y-35250D01*
X58173Y-35250D01*
X58104Y-35146D01*
X57605Y-34647D01*
X57611Y-34641D01*
X57649Y-34550D01*
X57649Y-34451D01*
X57649Y-33451D01*
X57611Y-33359D01*
X57541Y-33289D01*
X57450Y-33251D01*
X57351Y-33251D01*
X56851Y-33251D01*
X56759Y-33289D01*
X56689Y-33359D01*
X56651Y-33450D01*
X56651Y-33549D01*
X56651Y-33570D01*
X55823Y-33570D01*
X55785Y-33477D01*
X55525Y-33217D01*
X55185Y-33075D01*
X54817Y-33075D01*
X54477Y-33215D01*
X54217Y-33475D01*
X54075Y-33815D01*
X54075Y-34183D01*
X54215Y-34523D01*
X54475Y-34783D01*
X54815Y-34925D01*
X55183Y-34925D01*
X55523Y-34785D01*
X55783Y-34525D01*
X55822Y-34430D01*
X56651Y-34430D01*
X56651Y-34549D01*
X56689Y-34641D01*
X56720Y-34672D01*
X56720Y-34800D01*
X56753Y-34965D01*
X56846Y-35104D01*
X56993Y-35251D01*
X56851Y-35251D01*
X56759Y-35289D01*
X56689Y-35359D01*
X56651Y-35450D01*
X56651Y-35549D01*
X56651Y-35570D01*
X55823Y-35570D01*
X55785Y-35477D01*
X55525Y-35217D01*
X55185Y-35075D01*
X54817Y-35075D01*
X54477Y-35215D01*
X54217Y-35475D01*
X54075Y-35815D01*
X54075Y-36183D01*
X54215Y-36523D01*
X54475Y-36783D01*
X54815Y-36925D01*
X55183Y-36925D01*
X55523Y-36785D01*
X55783Y-36525D01*
X55822Y-36430D01*
X56651Y-36430D01*
X56651Y-36549D01*
X56689Y-36641D01*
X56759Y-36711D01*
X56850Y-36749D01*
X56949Y-36749D01*
X57370Y-36749D01*
X57370Y-38250D01*
X57262Y-38250D01*
X57200Y-38312D01*
X57200Y-38900D01*
X57200Y-38950D01*
X57200Y-39050D01*
X57200Y-39100D01*
X57200Y-39688D01*
X57262Y-39750D01*
X57449Y-39749D01*
X57541Y-39711D01*
X57611Y-39641D01*
X57649Y-39550D01*
X57649Y-39451D01*
X57649Y-39399D01*
X57800Y-39430D01*
X57851Y-39430D01*
X57851Y-39549D01*
X57889Y-39641D01*
X57959Y-39711D01*
X58050Y-39749D01*
X58149Y-39749D01*
X58649Y-39749D01*
X58741Y-39711D01*
X58811Y-39641D01*
X58849Y-39550D01*
X58849Y-41450D01*
X58811Y-41359D01*
X58741Y-41289D01*
X58649Y-41251D01*
X58462Y-41250D01*
X58400Y-41312D01*
X58400Y-41950D01*
X58788Y-41950D01*
X58850Y-41888D01*
X58850Y-42112D01*
X58788Y-42050D01*
X58400Y-42050D01*
X58400Y-42688D01*
X58462Y-42750D01*
X58649Y-42749D01*
X58741Y-42711D01*
X58811Y-42641D01*
X58849Y-42550D01*
X58849Y-42451D01*
X58850Y-42112D01*
X58850Y-44400D01*
X58612Y-44400D01*
X58550Y-44462D01*
X58550Y-44850D01*
X59188Y-44850D01*
X59250Y-44788D01*
X59250Y-45012D01*
X59188Y-44950D01*
X58600Y-44950D01*
X58550Y-44950D01*
X58450Y-44950D01*
X58450Y-44850D01*
X58450Y-44462D01*
X58388Y-44400D01*
X58300Y-44400D01*
X58300Y-42688D01*
X58300Y-42050D01*
X58300Y-41950D01*
X58300Y-41312D01*
X58238Y-41250D01*
X58051Y-41251D01*
X57959Y-41289D01*
X57889Y-41359D01*
X57851Y-41450D01*
X57851Y-41549D01*
X57850Y-41888D01*
X57912Y-41950D01*
X58300Y-41950D01*
X58300Y-42050D01*
X57912Y-42050D01*
X57850Y-42112D01*
X57851Y-42451D01*
X57851Y-42550D01*
X57889Y-42641D01*
X57959Y-42711D01*
X58051Y-42749D01*
X58238Y-42750D01*
X58300Y-42688D01*
X58300Y-44400D01*
X58049Y-44401D01*
X57950Y-44401D01*
X57859Y-44439D01*
X57789Y-44509D01*
X57751Y-44601D01*
X57750Y-44788D01*
X57812Y-44850D01*
X58450Y-44850D01*
X58450Y-44950D01*
X58400Y-44950D01*
X57812Y-44950D01*
X57750Y-45012D01*
X57751Y-45199D01*
X57759Y-45219D01*
X57731Y-45248D01*
X57731Y-44895D01*
X57703Y-44753D01*
X57649Y-44672D01*
X57649Y-42550D01*
X57649Y-42451D01*
X57649Y-41451D01*
X57611Y-41359D01*
X57541Y-41289D01*
X57450Y-41251D01*
X57351Y-41251D01*
X57100Y-41251D01*
X57100Y-39688D01*
X57100Y-39050D01*
X57100Y-38950D01*
X57100Y-38312D01*
X57038Y-38250D01*
X56851Y-38251D01*
X56759Y-38289D01*
X56689Y-38359D01*
X56651Y-38450D01*
X56651Y-38549D01*
X56650Y-38888D01*
X56712Y-38950D01*
X57100Y-38950D01*
X57100Y-39050D01*
X56712Y-39050D01*
X56650Y-39112D01*
X56651Y-39451D01*
X56651Y-39550D01*
X56689Y-39641D01*
X56759Y-39711D01*
X56851Y-39749D01*
X57038Y-39750D01*
X57100Y-39688D01*
X57100Y-41251D01*
X56851Y-41251D01*
X56759Y-41289D01*
X56689Y-41359D01*
X56651Y-41450D01*
X56651Y-41549D01*
X56651Y-41570D01*
X56600Y-41570D01*
X55909Y-41570D01*
X55909Y-39167D01*
X55904Y-38806D01*
X55776Y-38498D01*
X55644Y-38427D01*
X55573Y-38498D01*
X55573Y-38356D01*
X55502Y-38224D01*
X55167Y-38091D01*
X54806Y-38096D01*
X54498Y-38224D01*
X54427Y-38356D01*
X55000Y-38929D01*
X55573Y-38356D01*
X55573Y-38498D01*
X55071Y-39000D01*
X55644Y-39573D01*
X55776Y-39502D01*
X55909Y-39167D01*
X55909Y-41570D01*
X55823Y-41570D01*
X55785Y-41477D01*
X55573Y-41265D01*
X55573Y-39644D01*
X55000Y-39071D01*
X54929Y-39142D01*
X54929Y-39000D01*
X54356Y-38427D01*
X54224Y-38498D01*
X54091Y-38833D01*
X54096Y-39194D01*
X54224Y-39502D01*
X54356Y-39573D01*
X54929Y-39000D01*
X54929Y-39142D01*
X54427Y-39644D01*
X54498Y-39776D01*
X54833Y-39909D01*
X55194Y-39904D01*
X55502Y-39776D01*
X55573Y-39644D01*
X55573Y-41265D01*
X55525Y-41217D01*
X55185Y-41075D01*
X54817Y-41075D01*
X54477Y-41215D01*
X54217Y-41475D01*
X54212Y-41486D01*
X50049Y-41486D01*
X50049Y-33609D01*
X50049Y-33391D01*
X49965Y-33189D01*
X49811Y-33035D01*
X49609Y-32951D01*
X49391Y-32951D01*
X49189Y-33035D01*
X49035Y-33189D01*
X49000Y-33273D01*
X48965Y-33189D01*
X48811Y-33035D01*
X48609Y-32951D01*
X48391Y-32951D01*
X48189Y-33035D01*
X48035Y-33189D01*
X48000Y-33273D01*
X47965Y-33189D01*
X47811Y-33035D01*
X47609Y-32951D01*
X47391Y-32951D01*
X47189Y-33035D01*
X47035Y-33189D01*
X47000Y-33273D01*
X46965Y-33189D01*
X46811Y-33035D01*
X46609Y-32951D01*
X46391Y-32951D01*
X46189Y-33035D01*
X46035Y-33189D01*
X46000Y-33273D01*
X45965Y-33189D01*
X45811Y-33035D01*
X45609Y-32951D01*
X45391Y-32951D01*
X45189Y-33035D01*
X45035Y-33189D01*
X45000Y-33273D01*
X44965Y-33189D01*
X44811Y-33035D01*
X44609Y-32951D01*
X44391Y-32951D01*
X44189Y-33035D01*
X44035Y-33189D01*
X44000Y-33273D01*
X43965Y-33189D01*
X43811Y-33035D01*
X43609Y-32951D01*
X43391Y-32951D01*
X43189Y-33035D01*
X43035Y-33189D01*
X43000Y-33273D01*
X42965Y-33189D01*
X42811Y-33035D01*
X42609Y-32951D01*
X42391Y-32951D01*
X42189Y-33035D01*
X42035Y-33189D01*
X42000Y-33273D01*
X41965Y-33189D01*
X41811Y-33035D01*
X41780Y-33022D01*
X41780Y-31946D01*
X41777Y-31536D01*
X41627Y-31174D01*
X41483Y-31088D01*
X40821Y-31750D01*
X41483Y-32412D01*
X41627Y-32326D01*
X41780Y-31946D01*
X41780Y-33022D01*
X41609Y-32951D01*
X41412Y-32951D01*
X41412Y-32483D01*
X40750Y-31821D01*
X40679Y-31892D01*
X40679Y-31750D01*
X40017Y-31088D01*
X39873Y-31174D01*
X39720Y-31554D01*
X39723Y-31964D01*
X39873Y-32326D01*
X40017Y-32412D01*
X40679Y-31750D01*
X40679Y-31892D01*
X40088Y-32483D01*
X40174Y-32627D01*
X40554Y-32780D01*
X40964Y-32777D01*
X41326Y-32627D01*
X41412Y-32483D01*
X41412Y-32951D01*
X41391Y-32951D01*
X41189Y-33035D01*
X41035Y-33189D01*
X40997Y-33280D01*
X40972Y-33219D01*
X40878Y-33192D01*
X40808Y-33262D01*
X40808Y-33122D01*
X40781Y-33028D01*
X40579Y-32957D01*
X40366Y-32968D01*
X40219Y-33028D01*
X40192Y-33122D01*
X40500Y-33429D01*
X40808Y-33122D01*
X40808Y-33262D01*
X40571Y-33500D01*
X40878Y-33808D01*
X40972Y-33781D01*
X40995Y-33715D01*
X41035Y-33811D01*
X41189Y-33965D01*
X41391Y-34049D01*
X41609Y-34049D01*
X41811Y-33965D01*
X41965Y-33811D01*
X42000Y-33726D01*
X42035Y-33811D01*
X42189Y-33965D01*
X42391Y-34049D01*
X42609Y-34049D01*
X42811Y-33965D01*
X42965Y-33811D01*
X43000Y-33726D01*
X43035Y-33811D01*
X43189Y-33965D01*
X43391Y-34049D01*
X43609Y-34049D01*
X43811Y-33965D01*
X43965Y-33811D01*
X44000Y-33726D01*
X44035Y-33811D01*
X44189Y-33965D01*
X44391Y-34049D01*
X44609Y-34049D01*
X44811Y-33965D01*
X44965Y-33811D01*
X45000Y-33726D01*
X45035Y-33811D01*
X45189Y-33965D01*
X45391Y-34049D01*
X45609Y-34049D01*
X45811Y-33965D01*
X45965Y-33811D01*
X46000Y-33726D01*
X46035Y-33811D01*
X46189Y-33965D01*
X46391Y-34049D01*
X46609Y-34049D01*
X46811Y-33965D01*
X46965Y-33811D01*
X47000Y-33726D01*
X47035Y-33811D01*
X47189Y-33965D01*
X47391Y-34049D01*
X47609Y-34049D01*
X47811Y-33965D01*
X47965Y-33811D01*
X48000Y-33726D01*
X48035Y-33811D01*
X48189Y-33965D01*
X48391Y-34049D01*
X48609Y-34049D01*
X48811Y-33965D01*
X48965Y-33811D01*
X49000Y-33726D01*
X49035Y-33811D01*
X49189Y-33965D01*
X49391Y-34049D01*
X49609Y-34049D01*
X49811Y-33965D01*
X49965Y-33811D01*
X50049Y-33609D01*
X50049Y-41486D01*
X47094Y-41486D01*
X40808Y-35200D01*
X40808Y-33878D01*
X40500Y-33571D01*
X40192Y-33878D01*
X40219Y-33972D01*
X40421Y-34043D01*
X40634Y-34032D01*
X40781Y-33972D01*
X40808Y-33878D01*
X40808Y-35200D01*
X39642Y-34034D01*
X39811Y-33965D01*
X39965Y-33811D01*
X40002Y-33719D01*
X40028Y-33781D01*
X40122Y-33808D01*
X40429Y-33500D01*
X40122Y-33192D01*
X40028Y-33219D01*
X40004Y-33284D01*
X39965Y-33189D01*
X39811Y-33035D01*
X39609Y-32951D01*
X39391Y-32951D01*
X39189Y-33035D01*
X39035Y-33189D01*
X39000Y-33273D01*
X38965Y-33189D01*
X38811Y-33035D01*
X38609Y-32951D01*
X38391Y-32951D01*
X38189Y-33035D01*
X38035Y-33189D01*
X37951Y-33391D01*
X37951Y-33609D01*
X38035Y-33811D01*
X38189Y-33965D01*
X38391Y-34049D01*
X38441Y-34049D01*
X46612Y-42220D01*
X46751Y-42313D01*
X46752Y-42313D01*
X46916Y-42346D01*
X46969Y-42346D01*
X46951Y-42391D01*
X46951Y-42609D01*
X47035Y-42811D01*
X47189Y-42965D01*
X47391Y-43049D01*
X47609Y-43049D01*
X47811Y-42965D01*
X47965Y-42811D01*
X48002Y-42719D01*
X48028Y-42781D01*
X48122Y-42808D01*
X48394Y-42535D01*
X48429Y-42500D01*
X48500Y-42429D01*
X48571Y-42500D01*
X48606Y-42535D01*
X48878Y-42808D01*
X48972Y-42781D01*
X49043Y-42579D01*
X49032Y-42366D01*
X49023Y-42346D01*
X50969Y-42346D01*
X50951Y-42391D01*
X50951Y-42609D01*
X51035Y-42811D01*
X51189Y-42965D01*
X51391Y-43049D01*
X51609Y-43049D01*
X51811Y-42965D01*
X51965Y-42811D01*
X52002Y-42719D01*
X52028Y-42781D01*
X52122Y-42808D01*
X52394Y-42535D01*
X52429Y-42500D01*
X52500Y-42429D01*
X52571Y-42500D01*
X52606Y-42535D01*
X52878Y-42808D01*
X52972Y-42781D01*
X53043Y-42579D01*
X53032Y-42366D01*
X53023Y-42346D01*
X54142Y-42346D01*
X54215Y-42523D01*
X54475Y-42783D01*
X54815Y-42925D01*
X55183Y-42925D01*
X55523Y-42785D01*
X55783Y-42525D01*
X55822Y-42430D01*
X56600Y-42430D01*
X56651Y-42430D01*
X56651Y-42549D01*
X56689Y-42641D01*
X56759Y-42711D01*
X56850Y-42749D01*
X56949Y-42749D01*
X57449Y-42749D01*
X57541Y-42711D01*
X57611Y-42641D01*
X57649Y-42550D01*
X57649Y-44672D01*
X57623Y-44633D01*
X57620Y-44631D01*
X56973Y-43983D01*
X56920Y-43853D01*
X56800Y-43733D01*
X56668Y-43678D01*
X56164Y-43174D01*
X56044Y-43094D01*
X56019Y-43089D01*
X55902Y-43065D01*
X55897Y-43066D01*
X52808Y-43066D01*
X52808Y-42878D01*
X52500Y-42571D01*
X52192Y-42878D01*
X52219Y-42972D01*
X52421Y-43043D01*
X52634Y-43032D01*
X52781Y-42972D01*
X52808Y-42878D01*
X52808Y-43066D01*
X51905Y-43066D01*
X51763Y-43094D01*
X51643Y-43174D01*
X51641Y-43176D01*
X51574Y-43243D01*
X51494Y-43363D01*
X51489Y-43387D01*
X51465Y-43505D01*
X51466Y-43509D01*
X51466Y-43588D01*
X51388Y-43510D01*
X51149Y-43411D01*
X50891Y-43411D01*
X50652Y-43510D01*
X50470Y-43692D01*
X50371Y-43931D01*
X50371Y-44185D01*
X50266Y-44290D01*
X50000Y-44290D01*
X49858Y-44318D01*
X49738Y-44398D01*
X49658Y-44518D01*
X49631Y-44651D01*
X49537Y-44651D01*
X49537Y-44650D01*
X49534Y-44648D01*
X48808Y-43921D01*
X48808Y-42878D01*
X48500Y-42571D01*
X48192Y-42878D01*
X48219Y-42972D01*
X48421Y-43043D01*
X48634Y-43032D01*
X48781Y-42972D01*
X48808Y-42878D01*
X48808Y-43921D01*
X48397Y-43510D01*
X48277Y-43430D01*
X48252Y-43425D01*
X48135Y-43401D01*
X48130Y-43402D01*
X45043Y-43402D01*
X45043Y-42579D01*
X45032Y-42366D01*
X44972Y-42219D01*
X44878Y-42192D01*
X44808Y-42262D01*
X44808Y-42122D01*
X44781Y-42028D01*
X44579Y-41957D01*
X44366Y-41968D01*
X44219Y-42028D01*
X44192Y-42122D01*
X44500Y-42429D01*
X44808Y-42122D01*
X44808Y-42262D01*
X44571Y-42500D01*
X44878Y-42808D01*
X44972Y-42781D01*
X45043Y-42579D01*
X45043Y-43402D01*
X44925Y-43402D01*
X44559Y-43035D01*
X44634Y-43032D01*
X44781Y-42972D01*
X44808Y-42878D01*
X44535Y-42606D01*
X44500Y-42571D01*
X44429Y-42500D01*
X44394Y-42465D01*
X44122Y-42192D01*
X44028Y-42219D01*
X44004Y-42284D01*
X43965Y-42189D01*
X43811Y-42035D01*
X43609Y-41951D01*
X43391Y-41951D01*
X43189Y-42035D01*
X43035Y-42189D01*
X42951Y-42391D01*
X42951Y-42609D01*
X43035Y-42811D01*
X43189Y-42965D01*
X43391Y-43049D01*
X43525Y-43049D01*
X44508Y-44031D01*
X44510Y-44034D01*
X44630Y-44114D01*
X44771Y-44142D01*
X44771Y-44141D01*
X44772Y-44142D01*
X47863Y-44142D01*
X47832Y-44155D01*
X47696Y-44290D01*
X47623Y-44466D01*
X47623Y-44657D01*
X47632Y-44679D01*
X47609Y-44689D01*
X47603Y-44695D01*
X47598Y-44690D01*
X47459Y-44597D01*
X47294Y-44564D01*
X45478Y-44564D01*
X45313Y-44597D01*
X45174Y-44690D01*
X44664Y-45200D01*
X44571Y-45339D01*
X44561Y-45386D01*
X44499Y-45386D01*
X44500Y-45262D01*
X44500Y-45038D01*
X44499Y-44851D01*
X44461Y-44759D01*
X44391Y-44689D01*
X44300Y-44651D01*
X44201Y-44651D01*
X43862Y-44650D01*
X43800Y-44712D01*
X43800Y-45100D01*
X44438Y-45100D01*
X44500Y-45038D01*
X44500Y-45262D01*
X44438Y-45200D01*
X43850Y-45200D01*
X43800Y-45200D01*
X43700Y-45200D01*
X43700Y-45100D01*
X43700Y-44712D01*
X43638Y-44650D01*
X43299Y-44651D01*
X43200Y-44651D01*
X43109Y-44689D01*
X43039Y-44759D01*
X43001Y-44851D01*
X43000Y-45038D01*
X43062Y-45100D01*
X43700Y-45100D01*
X43700Y-45200D01*
X43650Y-45200D01*
X43062Y-45200D01*
X43000Y-45262D01*
X43000Y-45386D01*
X42904Y-45386D01*
X42749Y-45417D01*
X42749Y-45351D01*
X42749Y-44851D01*
X42711Y-44759D01*
X42641Y-44689D01*
X42550Y-44651D01*
X42451Y-44651D01*
X42368Y-44651D01*
X42342Y-44518D01*
X42262Y-44398D01*
X42142Y-44318D01*
X42000Y-44290D01*
X41733Y-44290D01*
X41629Y-44185D01*
X41629Y-43931D01*
X41530Y-43692D01*
X41348Y-43510D01*
X41109Y-43411D01*
X41043Y-43411D01*
X41043Y-42579D01*
X41032Y-42366D01*
X40972Y-42219D01*
X40878Y-42192D01*
X40808Y-42262D01*
X40808Y-42122D01*
X40781Y-42028D01*
X40579Y-41957D01*
X40366Y-41968D01*
X40219Y-42028D01*
X40192Y-42122D01*
X40500Y-42429D01*
X40808Y-42122D01*
X40808Y-42262D01*
X40571Y-42500D01*
X40878Y-42808D01*
X40972Y-42781D01*
X41043Y-42579D01*
X41043Y-43411D01*
X40851Y-43411D01*
X40808Y-43428D01*
X40808Y-42878D01*
X40500Y-42571D01*
X40429Y-42641D01*
X40429Y-42500D01*
X40122Y-42192D01*
X40028Y-42219D01*
X40004Y-42284D01*
X39965Y-42189D01*
X39811Y-42035D01*
X39609Y-41951D01*
X39391Y-41951D01*
X39189Y-42035D01*
X39035Y-42189D01*
X38951Y-42391D01*
X38951Y-42609D01*
X39035Y-42811D01*
X39189Y-42965D01*
X39391Y-43049D01*
X39609Y-43049D01*
X39811Y-42965D01*
X39965Y-42811D01*
X40002Y-42719D01*
X40028Y-42781D01*
X40122Y-42808D01*
X40429Y-42500D01*
X40429Y-42641D01*
X40192Y-42878D01*
X40219Y-42972D01*
X40421Y-43043D01*
X40634Y-43032D01*
X40781Y-42972D01*
X40808Y-42878D01*
X40808Y-43428D01*
X40612Y-43510D01*
X40430Y-43692D01*
X40331Y-43931D01*
X40331Y-44189D01*
X40430Y-44428D01*
X40612Y-44610D01*
X40851Y-44709D01*
X41105Y-44709D01*
X41251Y-44854D01*
X41251Y-44949D01*
X41251Y-45449D01*
X41289Y-45541D01*
X41359Y-45611D01*
X41450Y-45649D01*
X41549Y-45649D01*
X42473Y-45649D01*
X42403Y-45755D01*
X42383Y-45851D01*
X41451Y-45851D01*
X41359Y-45889D01*
X41289Y-45959D01*
X41251Y-46050D01*
X41251Y-46149D01*
X41251Y-46649D01*
X41289Y-46741D01*
X41334Y-46786D01*
X40963Y-46940D01*
X40611Y-47291D01*
X40421Y-47750D01*
X40420Y-48247D01*
X40500Y-48442D01*
X40149Y-48091D01*
X40149Y-44189D01*
X40149Y-43931D01*
X40050Y-43692D01*
X39868Y-43510D01*
X39629Y-43411D01*
X39371Y-43411D01*
X39132Y-43510D01*
X38950Y-43692D01*
X38851Y-43931D01*
X38851Y-44189D01*
X38950Y-44428D01*
X39132Y-44610D01*
X39371Y-44709D01*
X39629Y-44709D01*
X39868Y-44610D01*
X40050Y-44428D01*
X40149Y-44189D01*
X40149Y-48091D01*
X38669Y-46611D01*
X38669Y-44189D01*
X38669Y-43931D01*
X38570Y-43692D01*
X38388Y-43510D01*
X38149Y-43411D01*
X37925Y-43411D01*
X37925Y-37185D01*
X37925Y-36817D01*
X37785Y-36477D01*
X37525Y-36217D01*
X37185Y-36075D01*
X36817Y-36075D01*
X36477Y-36215D01*
X36217Y-36475D01*
X36075Y-36815D01*
X36075Y-37183D01*
X36114Y-37277D01*
X35515Y-37876D01*
X35471Y-37770D01*
X35232Y-37530D01*
X34920Y-37400D01*
X34582Y-37400D01*
X34270Y-37529D01*
X34030Y-37768D01*
X33900Y-38080D01*
X33900Y-38418D01*
X34029Y-38730D01*
X34268Y-38970D01*
X34580Y-39100D01*
X34918Y-39100D01*
X35217Y-38976D01*
X35217Y-40395D01*
X34843Y-40768D01*
X34680Y-40700D01*
X34262Y-40700D01*
X33876Y-40860D01*
X33580Y-41155D01*
X33420Y-41540D01*
X33420Y-41958D01*
X33580Y-42344D01*
X33875Y-42640D01*
X34040Y-42708D01*
X34040Y-44120D01*
X34073Y-44285D01*
X34166Y-44424D01*
X34432Y-44690D01*
X34364Y-44759D01*
X34326Y-44850D01*
X34326Y-44949D01*
X34326Y-46649D01*
X34364Y-46741D01*
X34434Y-46811D01*
X34525Y-46849D01*
X34624Y-46849D01*
X35374Y-46849D01*
X35466Y-46811D01*
X35536Y-46741D01*
X35574Y-46650D01*
X35574Y-46551D01*
X35574Y-44851D01*
X35536Y-44759D01*
X35466Y-44689D01*
X35380Y-44653D01*
X35380Y-44600D01*
X35379Y-44599D01*
X35347Y-44435D01*
X35254Y-44296D01*
X35253Y-44295D01*
X34900Y-43942D01*
X34900Y-42707D01*
X35064Y-42640D01*
X35360Y-42345D01*
X35520Y-41960D01*
X35520Y-41542D01*
X35451Y-41376D01*
X35951Y-40877D01*
X36044Y-40738D01*
X36044Y-40737D01*
X36077Y-40573D01*
X36077Y-38531D01*
X36721Y-37886D01*
X36815Y-37925D01*
X37183Y-37925D01*
X37523Y-37785D01*
X37783Y-37525D01*
X37925Y-37185D01*
X37925Y-43411D01*
X37909Y-43411D01*
X37909Y-39167D01*
X37904Y-38806D01*
X37776Y-38498D01*
X37644Y-38427D01*
X37573Y-38498D01*
X37573Y-38356D01*
X37502Y-38224D01*
X37167Y-38091D01*
X36806Y-38096D01*
X36498Y-38224D01*
X36427Y-38356D01*
X37000Y-38929D01*
X37573Y-38356D01*
X37573Y-38498D01*
X37071Y-39000D01*
X37644Y-39573D01*
X37776Y-39502D01*
X37909Y-39167D01*
X37909Y-43411D01*
X37891Y-43411D01*
X37652Y-43510D01*
X37573Y-43589D01*
X37573Y-39644D01*
X37000Y-39071D01*
X36929Y-39142D01*
X36929Y-39000D01*
X36356Y-38427D01*
X36224Y-38498D01*
X36091Y-38833D01*
X36096Y-39194D01*
X36224Y-39502D01*
X36356Y-39573D01*
X36929Y-39000D01*
X36929Y-39142D01*
X36427Y-39644D01*
X36498Y-39776D01*
X36833Y-39909D01*
X37194Y-39904D01*
X37502Y-39776D01*
X37573Y-39644D01*
X37573Y-43589D01*
X37470Y-43692D01*
X37371Y-43931D01*
X37371Y-44185D01*
X37266Y-44290D01*
X37000Y-44290D01*
X36858Y-44318D01*
X36738Y-44398D01*
X36658Y-44518D01*
X36631Y-44651D01*
X36451Y-44651D01*
X36359Y-44689D01*
X36289Y-44759D01*
X36251Y-44850D01*
X36251Y-44949D01*
X36251Y-45449D01*
X36289Y-45541D01*
X36359Y-45611D01*
X36450Y-45649D01*
X36549Y-45649D01*
X37549Y-45649D01*
X37641Y-45611D01*
X37711Y-45541D01*
X37749Y-45450D01*
X37749Y-45351D01*
X37749Y-44854D01*
X37894Y-44709D01*
X38149Y-44709D01*
X38388Y-44610D01*
X38570Y-44428D01*
X38669Y-44189D01*
X38669Y-46611D01*
X38104Y-46046D01*
X37965Y-45953D01*
X37800Y-45920D01*
X37672Y-45920D01*
X37641Y-45889D01*
X37550Y-45851D01*
X37451Y-45851D01*
X36451Y-45851D01*
X36359Y-45889D01*
X36289Y-45959D01*
X36251Y-46050D01*
X36251Y-46149D01*
X36251Y-46649D01*
X36289Y-46741D01*
X36359Y-46811D01*
X36450Y-46849D01*
X36549Y-46849D01*
X36843Y-46849D01*
X36623Y-46940D01*
X36271Y-47291D01*
X36081Y-47750D01*
X36080Y-48247D01*
X36270Y-48707D01*
X36621Y-49059D01*
X37080Y-49249D01*
X37577Y-49250D01*
X38037Y-49060D01*
X38389Y-48709D01*
X38579Y-48250D01*
X38580Y-47753D01*
X38569Y-47727D01*
X40811Y-49969D01*
X40950Y-50062D01*
X40951Y-50062D01*
X41115Y-50095D01*
X42536Y-50095D01*
X42536Y-50351D01*
X42569Y-50516D01*
X42662Y-50655D01*
X42762Y-50755D01*
X42763Y-50756D01*
X42902Y-50849D01*
X43066Y-50881D01*
X43067Y-50882D01*
X45600Y-50882D01*
X45721Y-50932D01*
X45912Y-50932D01*
X46032Y-50882D01*
X47923Y-50882D01*
X48087Y-50849D01*
X48088Y-50849D01*
X48227Y-50756D01*
X48554Y-50429D01*
X48561Y-50417D01*
X48562Y-50417D01*
X54793Y-50417D01*
X54852Y-50405D01*
X54853Y-50405D01*
X54950Y-50405D01*
X55126Y-50332D01*
X55262Y-50197D01*
X55335Y-50021D01*
X55335Y-49830D01*
X55262Y-49654D01*
X55127Y-49518D01*
X54951Y-49445D01*
X54760Y-49445D01*
X54584Y-49518D01*
X54544Y-49557D01*
X49000Y-49557D01*
X49000Y-48762D01*
X49000Y-48538D01*
X48999Y-48351D01*
X48961Y-48259D01*
X48891Y-48189D01*
X48800Y-48151D01*
X48701Y-48151D01*
X48362Y-48150D01*
X48300Y-48212D01*
X48300Y-48600D01*
X48938Y-48600D01*
X49000Y-48538D01*
X49000Y-48762D01*
X48938Y-48700D01*
X48300Y-48700D01*
X48300Y-49088D01*
X48362Y-49150D01*
X48701Y-49149D01*
X48800Y-49149D01*
X48891Y-49111D01*
X48961Y-49041D01*
X48999Y-48949D01*
X49000Y-48762D01*
X49000Y-49557D01*
X48999Y-49557D01*
X48999Y-49551D01*
X48961Y-49459D01*
X48891Y-49389D01*
X48800Y-49351D01*
X48701Y-49351D01*
X48200Y-49351D01*
X48200Y-49088D01*
X48200Y-48700D01*
X48200Y-48600D01*
X48200Y-48212D01*
X48200Y-46788D01*
X48200Y-46400D01*
X47562Y-46400D01*
X47500Y-46462D01*
X47501Y-46649D01*
X47539Y-46741D01*
X47609Y-46811D01*
X47700Y-46849D01*
X47799Y-46849D01*
X48138Y-46850D01*
X48200Y-46788D01*
X48200Y-48212D01*
X48138Y-48150D01*
X47799Y-48151D01*
X47700Y-48151D01*
X47609Y-48189D01*
X47539Y-48259D01*
X47501Y-48351D01*
X47500Y-48538D01*
X47562Y-48600D01*
X48200Y-48600D01*
X48200Y-48700D01*
X47562Y-48700D01*
X47500Y-48762D01*
X47501Y-48949D01*
X47539Y-49041D01*
X47609Y-49111D01*
X47700Y-49149D01*
X47799Y-49149D01*
X48138Y-49150D01*
X48200Y-49088D01*
X48200Y-49351D01*
X47701Y-49351D01*
X47609Y-49389D01*
X47539Y-49459D01*
X47501Y-49550D01*
X47501Y-49649D01*
X47501Y-50022D01*
X46749Y-50022D01*
X46750Y-49962D01*
X46750Y-49738D01*
X46749Y-49551D01*
X46711Y-49459D01*
X46641Y-49389D01*
X46550Y-49351D01*
X46451Y-49351D01*
X46112Y-49350D01*
X46050Y-49412D01*
X46050Y-49800D01*
X46688Y-49800D01*
X46750Y-49738D01*
X46750Y-49962D01*
X46688Y-49900D01*
X46100Y-49900D01*
X46050Y-49900D01*
X45950Y-49900D01*
X45950Y-49800D01*
X45950Y-49412D01*
X45888Y-49350D01*
X45549Y-49351D01*
X45450Y-49351D01*
X45359Y-49389D01*
X45289Y-49459D01*
X45251Y-49551D01*
X45250Y-49738D01*
X45312Y-49800D01*
X45950Y-49800D01*
X45950Y-49900D01*
X45900Y-49900D01*
X45312Y-49900D01*
X45250Y-49962D01*
X45250Y-50022D01*
X44499Y-50022D01*
X44500Y-49962D01*
X44438Y-49900D01*
X43850Y-49900D01*
X43800Y-49900D01*
X43700Y-49900D01*
X43700Y-49800D01*
X43800Y-49800D01*
X43850Y-49800D01*
X44438Y-49800D01*
X44500Y-49738D01*
X44499Y-49551D01*
X44461Y-49459D01*
X44391Y-49389D01*
X44300Y-49351D01*
X44201Y-49351D01*
X44149Y-49350D01*
X44180Y-49200D01*
X44180Y-49149D01*
X44299Y-49149D01*
X44391Y-49111D01*
X44461Y-49041D01*
X44499Y-48950D01*
X44499Y-48851D01*
X44499Y-48484D01*
X44520Y-48476D01*
X45251Y-48476D01*
X45251Y-48949D01*
X45289Y-49041D01*
X45359Y-49111D01*
X45450Y-49149D01*
X45549Y-49149D01*
X46549Y-49149D01*
X46641Y-49111D01*
X46711Y-49041D01*
X46749Y-48950D01*
X46749Y-48851D01*
X46749Y-48351D01*
X46711Y-48259D01*
X46701Y-48249D01*
X46899Y-48249D01*
X46991Y-48211D01*
X47061Y-48141D01*
X47076Y-48104D01*
X47215Y-48104D01*
X47371Y-48040D01*
X47491Y-47920D01*
X47556Y-47764D01*
X47556Y-47595D01*
X47492Y-47439D01*
X47437Y-47384D01*
X47432Y-47358D01*
X47352Y-47238D01*
X47232Y-47158D01*
X47099Y-47131D01*
X47099Y-46951D01*
X47061Y-46859D01*
X46991Y-46789D01*
X46969Y-46780D01*
X47015Y-46671D01*
X47440Y-46246D01*
X47508Y-46246D01*
X47562Y-46300D01*
X48150Y-46300D01*
X48200Y-46300D01*
X48300Y-46300D01*
X48300Y-46400D01*
X48300Y-46450D01*
X48300Y-46788D01*
X48362Y-46850D01*
X48701Y-46849D01*
X48800Y-46849D01*
X48891Y-46811D01*
X48961Y-46741D01*
X48999Y-46649D01*
X48999Y-46612D01*
X49118Y-46692D01*
X49260Y-46720D01*
X49280Y-46720D01*
X49289Y-46741D01*
X49359Y-46811D01*
X49450Y-46849D01*
X49549Y-46849D01*
X49843Y-46849D01*
X49623Y-46940D01*
X49271Y-47291D01*
X49081Y-47750D01*
X49080Y-48247D01*
X49270Y-48707D01*
X49621Y-49059D01*
X50080Y-49249D01*
X50577Y-49250D01*
X51037Y-49060D01*
X51389Y-48709D01*
X51579Y-48250D01*
X51580Y-47753D01*
X51390Y-47293D01*
X51039Y-46941D01*
X50665Y-46786D01*
X50711Y-46741D01*
X50719Y-46720D01*
X54280Y-46720D01*
X54289Y-46741D01*
X54334Y-46786D01*
X53963Y-46940D01*
X53611Y-47291D01*
X53421Y-47750D01*
X53420Y-48247D01*
X53610Y-48707D01*
X53961Y-49059D01*
X54420Y-49249D01*
X54917Y-49250D01*
X55377Y-49060D01*
X55729Y-48709D01*
X55919Y-48250D01*
X55920Y-47753D01*
X55730Y-47293D01*
X55379Y-46941D01*
X55156Y-46849D01*
X55549Y-46849D01*
X55641Y-46811D01*
X55711Y-46741D01*
X55749Y-46650D01*
X55749Y-46551D01*
X55749Y-46051D01*
X55726Y-45997D01*
X55756Y-45997D01*
X60498Y-50738D01*
X60174Y-50873D01*
X60088Y-51017D01*
X60750Y-51679D01*
X61412Y-51017D01*
X61326Y-50873D01*
X61318Y-50870D01*
X63250Y-50870D01*
X63401Y-51021D01*
X63627Y-51115D01*
X63872Y-51115D01*
X64098Y-51021D01*
X64250Y-50869D01*
X64401Y-51021D01*
X64627Y-51115D01*
X64872Y-51115D01*
X65098Y-51021D01*
X65250Y-50869D01*
X65401Y-51021D01*
X65627Y-51115D01*
X65872Y-51115D01*
X66098Y-51021D01*
X66250Y-50869D01*
X66401Y-51021D01*
X66627Y-51115D01*
X66872Y-51115D01*
X67098Y-51021D01*
X67156Y-50963D01*
X67174Y-51006D01*
X67244Y-51076D01*
X67336Y-51114D01*
X67638Y-51115D01*
X67700Y-51053D01*
X67700Y-50600D01*
X67700Y-50550D01*
X67700Y-50450D01*
X67700Y-50400D01*
X67700Y-49947D01*
X67638Y-49885D01*
X67336Y-49886D01*
X67244Y-49924D01*
X67174Y-49994D01*
X67156Y-50036D01*
X67099Y-49979D01*
X66873Y-49885D01*
X66658Y-49885D01*
X64342Y-47568D01*
X64249Y-47506D01*
X64249Y-41675D01*
X64249Y-41576D01*
X64249Y-41326D01*
X64217Y-41250D01*
X64249Y-41175D01*
X64249Y-41076D01*
X64249Y-40826D01*
X64217Y-40750D01*
X64249Y-40675D01*
X64249Y-40611D01*
X64188Y-40550D01*
X63800Y-40550D01*
X63750Y-40550D01*
X63650Y-40550D01*
X63600Y-40550D01*
X63212Y-40550D01*
X63151Y-40611D01*
X63151Y-40631D01*
X63018Y-40658D01*
X62898Y-40738D01*
X62818Y-40858D01*
X62790Y-41000D01*
X62790Y-41500D01*
X62818Y-41642D01*
X62898Y-41762D01*
X63018Y-41842D01*
X63160Y-41870D01*
X63340Y-41870D01*
X63350Y-41874D01*
X63449Y-41874D01*
X64049Y-41874D01*
X64141Y-41836D01*
X64211Y-41766D01*
X64249Y-41675D01*
X64249Y-47506D01*
X64222Y-47488D01*
X64197Y-47483D01*
X64080Y-47459D01*
X64075Y-47460D01*
X62294Y-47460D01*
X62236Y-47401D01*
X62262Y-47391D01*
X62398Y-47256D01*
X62471Y-47080D01*
X62471Y-46889D01*
X62421Y-46768D01*
X62421Y-40287D01*
X62471Y-40167D01*
X62471Y-39976D01*
X62427Y-39870D01*
X63151Y-39870D01*
X63151Y-39924D01*
X63151Y-40174D01*
X63182Y-40249D01*
X63151Y-40325D01*
X63151Y-40389D01*
X63212Y-40450D01*
X63600Y-40450D01*
X63650Y-40450D01*
X63750Y-40450D01*
X63800Y-40450D01*
X64188Y-40450D01*
X64208Y-40430D01*
X64300Y-40430D01*
X64399Y-40410D01*
X64400Y-40410D01*
X65670Y-40410D01*
X65670Y-40500D01*
X65703Y-40665D01*
X65796Y-40804D01*
X65935Y-40897D01*
X66100Y-40930D01*
X66151Y-40930D01*
X66151Y-41049D01*
X66189Y-41141D01*
X66259Y-41211D01*
X66287Y-41222D01*
X66280Y-41260D01*
X66280Y-41280D01*
X66259Y-41289D01*
X66189Y-41359D01*
X66151Y-41450D01*
X66151Y-41549D01*
X66151Y-42549D01*
X66189Y-42641D01*
X66259Y-42711D01*
X66280Y-42719D01*
X66280Y-42780D01*
X66259Y-42789D01*
X66189Y-42859D01*
X66151Y-42950D01*
X66151Y-43049D01*
X66151Y-44049D01*
X66189Y-44141D01*
X66259Y-44211D01*
X66350Y-44249D01*
X66449Y-44249D01*
X66949Y-44249D01*
X67041Y-44211D01*
X67111Y-44141D01*
X67149Y-44050D01*
X67149Y-43951D01*
X67149Y-42951D01*
X67111Y-42859D01*
X67041Y-42789D01*
X67020Y-42780D01*
X67020Y-42719D01*
X67041Y-42711D01*
X67111Y-42641D01*
X67149Y-42550D01*
X67149Y-42451D01*
X67149Y-41611D01*
X67172Y-41606D01*
X67196Y-41602D01*
X67197Y-41602D01*
X67317Y-41522D01*
X67351Y-41487D01*
X67351Y-41549D01*
X67350Y-41888D01*
X67412Y-41950D01*
X67800Y-41950D01*
X67800Y-42050D01*
X67412Y-42050D01*
X67350Y-42112D01*
X67351Y-42451D01*
X67351Y-42550D01*
X67389Y-42641D01*
X67459Y-42711D01*
X67551Y-42749D01*
X67738Y-42750D01*
X67800Y-42688D01*
X67800Y-42751D01*
X67551Y-42751D01*
X67459Y-42789D01*
X67389Y-42859D01*
X67351Y-42950D01*
X67351Y-43049D01*
X67351Y-44049D01*
X67389Y-44141D01*
X67459Y-44211D01*
X67550Y-44249D01*
X67649Y-44249D01*
X68149Y-44249D01*
X68241Y-44211D01*
X68311Y-44141D01*
X68349Y-44050D01*
X68349Y-43951D01*
X68349Y-43870D01*
X68770Y-43870D01*
X68869Y-43969D01*
X69064Y-44050D01*
X69275Y-44050D01*
X69470Y-43969D01*
X69619Y-43821D01*
X69700Y-43626D01*
X69700Y-52705D01*
X68365Y-52705D01*
X68365Y-50612D01*
X68365Y-50388D01*
X68364Y-50184D01*
X68364Y-50085D01*
X68326Y-49994D01*
X68256Y-49924D01*
X68164Y-49886D01*
X67862Y-49885D01*
X67800Y-49947D01*
X67800Y-50450D01*
X68303Y-50450D01*
X68365Y-50388D01*
X68365Y-50612D01*
X68303Y-50550D01*
X67800Y-50550D01*
X67800Y-51053D01*
X67862Y-51115D01*
X68164Y-51114D01*
X68256Y-51076D01*
X68326Y-51006D01*
X68364Y-50915D01*
X68364Y-50816D01*
X68365Y-50612D01*
X68365Y-52705D01*
X61780Y-52705D01*
X61780Y-51946D01*
X61777Y-51536D01*
X61627Y-51174D01*
X61483Y-51088D01*
X60821Y-51750D01*
X61483Y-52412D01*
X61627Y-52326D01*
X61780Y-51946D01*
X61780Y-52705D01*
X61137Y-52705D01*
X61326Y-52627D01*
X61412Y-52483D01*
X60750Y-51821D01*
X60679Y-51892D01*
X60679Y-51750D01*
X60017Y-51088D01*
X59873Y-51174D01*
X59720Y-51554D01*
X59723Y-51964D01*
X59873Y-52326D01*
X60017Y-52412D01*
X60679Y-51750D01*
X60679Y-51892D01*
X60088Y-52483D01*
X60174Y-52627D01*
X60367Y-52705D01*
X41780Y-52705D01*
X41780Y-51946D01*
X41777Y-51536D01*
X41627Y-51174D01*
X41483Y-51088D01*
X41412Y-51159D01*
X41412Y-51017D01*
X41326Y-50873D01*
X40946Y-50720D01*
X40536Y-50723D01*
X40174Y-50873D01*
X40088Y-51017D01*
X40750Y-51679D01*
X41412Y-51017D01*
X41412Y-51159D01*
X40821Y-51750D01*
X41483Y-52412D01*
X41627Y-52326D01*
X41780Y-51946D01*
X41780Y-52705D01*
X41137Y-52705D01*
X41326Y-52627D01*
X41412Y-52483D01*
X40750Y-51821D01*
X40679Y-51892D01*
X40679Y-51750D01*
X40017Y-51088D01*
X39873Y-51174D01*
X39720Y-51554D01*
X39723Y-51964D01*
X39873Y-52326D01*
X40017Y-52412D01*
X40679Y-51750D01*
X40679Y-51892D01*
X40088Y-52483D01*
X40174Y-52627D01*
X40367Y-52705D01*
X35600Y-52705D01*
X35600Y-49420D01*
X35600Y-49082D01*
X35471Y-48770D01*
X35232Y-48530D01*
X34920Y-48400D01*
X34582Y-48400D01*
X34270Y-48529D01*
X34030Y-48768D01*
X33900Y-49080D01*
X33900Y-49418D01*
X34029Y-49730D01*
X34268Y-49970D01*
X34580Y-50100D01*
X34918Y-50100D01*
X35230Y-49971D01*
X35470Y-49732D01*
X35600Y-49420D01*
X35600Y-52705D01*
X33324Y-52705D01*
X33324Y-47625D01*
X33324Y-47526D01*
X33324Y-46876D01*
X33324Y-36625D01*
X33324Y-36526D01*
X33324Y-35876D01*
X33286Y-35784D01*
X33216Y-35714D01*
X33125Y-35676D01*
X33026Y-35676D01*
X32376Y-35676D01*
X32284Y-35714D01*
X32214Y-35784D01*
X32176Y-35875D01*
X32176Y-35974D01*
X32176Y-36624D01*
X32214Y-36716D01*
X32284Y-36786D01*
X32375Y-36824D01*
X32434Y-36824D01*
X32425Y-36854D01*
X32750Y-37179D01*
X33075Y-36854D01*
X33065Y-36824D01*
X33124Y-36824D01*
X33216Y-36786D01*
X33286Y-36716D01*
X33324Y-36625D01*
X33324Y-46876D01*
X33318Y-46861D01*
X33318Y-37334D01*
X33306Y-37111D01*
X33242Y-36954D01*
X33146Y-36925D01*
X32821Y-37250D01*
X33146Y-37575D01*
X33242Y-37546D01*
X33318Y-37334D01*
X33318Y-46861D01*
X33286Y-46784D01*
X33216Y-46714D01*
X33125Y-46676D01*
X33075Y-46676D01*
X33075Y-37646D01*
X32750Y-37321D01*
X32679Y-37392D01*
X32679Y-37250D01*
X32354Y-36925D01*
X32258Y-36954D01*
X32182Y-37166D01*
X32194Y-37389D01*
X32258Y-37546D01*
X32354Y-37575D01*
X32679Y-37250D01*
X32679Y-37392D01*
X32425Y-37646D01*
X32454Y-37742D01*
X32666Y-37818D01*
X32889Y-37806D01*
X33046Y-37742D01*
X33075Y-37646D01*
X33075Y-46676D01*
X33044Y-46676D01*
X33044Y-41923D01*
X33040Y-41553D01*
X32907Y-41233D01*
X32772Y-41159D01*
X32701Y-41230D01*
X32701Y-41088D01*
X32627Y-40953D01*
X32283Y-40816D01*
X32181Y-40817D01*
X32257Y-40786D01*
X32525Y-40519D01*
X32670Y-40170D01*
X32670Y-39792D01*
X32526Y-39443D01*
X32259Y-39175D01*
X31910Y-39030D01*
X31780Y-39030D01*
X31780Y-31946D01*
X31777Y-31536D01*
X31627Y-31174D01*
X31483Y-31088D01*
X30821Y-31750D01*
X31483Y-32412D01*
X31627Y-32326D01*
X31780Y-31946D01*
X31780Y-39030D01*
X31600Y-39030D01*
X31600Y-38420D01*
X31600Y-38082D01*
X31600Y-34420D01*
X31600Y-34082D01*
X31471Y-33770D01*
X31412Y-33710D01*
X31412Y-32483D01*
X30750Y-31821D01*
X30088Y-32483D01*
X30174Y-32627D01*
X30554Y-32780D01*
X30964Y-32777D01*
X31326Y-32627D01*
X31412Y-32483D01*
X31412Y-33710D01*
X31232Y-33530D01*
X30920Y-33400D01*
X30582Y-33400D01*
X30270Y-33529D01*
X30030Y-33768D01*
X29900Y-34080D01*
X29900Y-34418D01*
X30029Y-34730D01*
X30268Y-34970D01*
X30580Y-35100D01*
X30918Y-35100D01*
X31230Y-34971D01*
X31470Y-34732D01*
X31600Y-34420D01*
X31600Y-38082D01*
X31471Y-37770D01*
X31232Y-37530D01*
X30920Y-37400D01*
X30582Y-37400D01*
X30270Y-37529D01*
X30030Y-37768D01*
X29900Y-38080D01*
X29900Y-38418D01*
X30029Y-38730D01*
X30268Y-38970D01*
X30580Y-39100D01*
X30918Y-39100D01*
X31230Y-38971D01*
X31470Y-38732D01*
X31600Y-38420D01*
X31600Y-39030D01*
X31532Y-39030D01*
X31183Y-39174D01*
X30915Y-39441D01*
X30770Y-39790D01*
X30770Y-40168D01*
X30914Y-40517D01*
X31181Y-40785D01*
X31530Y-40930D01*
X31648Y-40930D01*
X31593Y-40953D01*
X31519Y-41088D01*
X32110Y-41679D01*
X32701Y-41088D01*
X32701Y-41230D01*
X32181Y-41750D01*
X32772Y-42341D01*
X32907Y-42267D01*
X33044Y-41923D01*
X33044Y-46676D01*
X33026Y-46676D01*
X32701Y-46676D01*
X32701Y-42412D01*
X32110Y-41821D01*
X32039Y-41892D01*
X32039Y-41750D01*
X31448Y-41159D01*
X31313Y-41233D01*
X31310Y-41239D01*
X31287Y-41216D01*
X31056Y-41120D01*
X30805Y-41120D01*
X30573Y-41216D01*
X30396Y-41393D01*
X30300Y-41624D01*
X30300Y-41875D01*
X30396Y-42107D01*
X30573Y-42284D01*
X30804Y-42380D01*
X31055Y-42380D01*
X31287Y-42284D01*
X31310Y-42260D01*
X31313Y-42267D01*
X31448Y-42341D01*
X32039Y-41750D01*
X32039Y-41892D01*
X31519Y-42412D01*
X31593Y-42547D01*
X31650Y-42570D01*
X31532Y-42570D01*
X31183Y-42714D01*
X30915Y-42981D01*
X30770Y-43330D01*
X30770Y-43708D01*
X30914Y-44057D01*
X31181Y-44325D01*
X31530Y-44470D01*
X31908Y-44470D01*
X32257Y-44326D01*
X32525Y-44059D01*
X32670Y-43710D01*
X32670Y-43332D01*
X32526Y-42983D01*
X32259Y-42715D01*
X32178Y-42681D01*
X32307Y-42680D01*
X32627Y-42547D01*
X32701Y-42412D01*
X32701Y-46676D01*
X32663Y-46676D01*
X32674Y-46650D01*
X32674Y-46551D01*
X32675Y-45862D01*
X32675Y-45638D01*
X32674Y-44949D01*
X32674Y-44850D01*
X32636Y-44759D01*
X32566Y-44689D01*
X32474Y-44651D01*
X32162Y-44650D01*
X32100Y-44712D01*
X32100Y-45700D01*
X32613Y-45700D01*
X32675Y-45638D01*
X32675Y-45862D01*
X32613Y-45800D01*
X32100Y-45800D01*
X32100Y-46788D01*
X32162Y-46850D01*
X32186Y-46849D01*
X32176Y-46875D01*
X32176Y-46974D01*
X32176Y-47624D01*
X32214Y-47716D01*
X32284Y-47786D01*
X32375Y-47824D01*
X32434Y-47824D01*
X32425Y-47854D01*
X32750Y-48179D01*
X33075Y-47854D01*
X33065Y-47824D01*
X33124Y-47824D01*
X33216Y-47786D01*
X33286Y-47716D01*
X33324Y-47625D01*
X33324Y-52705D01*
X33318Y-52705D01*
X33318Y-48334D01*
X33306Y-48111D01*
X33242Y-47954D01*
X33146Y-47925D01*
X32821Y-48250D01*
X33146Y-48575D01*
X33242Y-48546D01*
X33318Y-48334D01*
X33318Y-52705D01*
X33075Y-52705D01*
X33075Y-48646D01*
X32750Y-48321D01*
X32679Y-48392D01*
X32679Y-48250D01*
X32354Y-47925D01*
X32258Y-47954D01*
X32182Y-48166D01*
X32194Y-48389D01*
X32258Y-48546D01*
X32354Y-48575D01*
X32679Y-48250D01*
X32679Y-48392D01*
X32425Y-48646D01*
X32454Y-48742D01*
X32666Y-48818D01*
X32889Y-48806D01*
X33046Y-48742D01*
X33075Y-48646D01*
X33075Y-52705D01*
X32000Y-52705D01*
X32000Y-46788D01*
X32000Y-45850D01*
X32000Y-45800D01*
X32000Y-45700D01*
X32000Y-45650D01*
X32000Y-44712D01*
X31938Y-44650D01*
X31626Y-44651D01*
X31534Y-44689D01*
X31464Y-44759D01*
X31462Y-44761D01*
X31232Y-44530D01*
X30920Y-44400D01*
X30582Y-44400D01*
X30270Y-44529D01*
X30030Y-44768D01*
X29900Y-45080D01*
X29900Y-45418D01*
X30029Y-45730D01*
X30268Y-45970D01*
X30580Y-46100D01*
X30918Y-46100D01*
X31230Y-45971D01*
X31425Y-45776D01*
X31425Y-45850D01*
X31437Y-45850D01*
X31425Y-45862D01*
X31426Y-46551D01*
X31426Y-46650D01*
X31464Y-46741D01*
X31534Y-46811D01*
X31626Y-46849D01*
X31938Y-46850D01*
X32000Y-46788D01*
X32000Y-52705D01*
X31780Y-52705D01*
X31780Y-51946D01*
X31777Y-51536D01*
X31627Y-51174D01*
X31600Y-51157D01*
X31600Y-49420D01*
X31600Y-49082D01*
X31471Y-48770D01*
X31232Y-48530D01*
X30920Y-48400D01*
X30582Y-48400D01*
X30270Y-48529D01*
X30030Y-48768D01*
X29900Y-49080D01*
X29900Y-49418D01*
X30029Y-49730D01*
X30268Y-49970D01*
X30580Y-50100D01*
X30918Y-50100D01*
X31230Y-49971D01*
X31470Y-49732D01*
X31600Y-49420D01*
X31600Y-51157D01*
X31483Y-51088D01*
X31412Y-51159D01*
X31412Y-51017D01*
X31326Y-50873D01*
X30946Y-50720D01*
X30536Y-50723D01*
X30174Y-50873D01*
X30088Y-51017D01*
X30750Y-51679D01*
X31412Y-51017D01*
X31412Y-51159D01*
X30821Y-51750D01*
X31483Y-52412D01*
X31627Y-52326D01*
X31780Y-51946D01*
X31780Y-52705D01*
X31137Y-52705D01*
X31326Y-52627D01*
X31412Y-52483D01*
X30750Y-51821D01*
X30088Y-52483D01*
X30174Y-52627D01*
X30367Y-52705D01*
X29795Y-52705D01*
X29795Y-52137D01*
X29873Y-52326D01*
X30017Y-52412D01*
X30679Y-51750D01*
X30017Y-51088D01*
X29873Y-51174D01*
X29795Y-51367D01*
X29795Y-32137D01*
X29873Y-32326D01*
X30017Y-32412D01*
X30679Y-31750D01*
X30017Y-31088D01*
X29873Y-31174D01*
X29795Y-31367D01*
X29795Y-30795D01*
X30362Y-30795D01*
X30174Y-30873D01*
X30088Y-31017D01*
X30750Y-31679D01*
X31412Y-31017D01*
X31326Y-30873D01*
X31132Y-30795D01*
X40362Y-30795D01*
X40174Y-30873D01*
X40088Y-31017D01*
X40750Y-31679D01*
X41412Y-31017D01*
X41326Y-30873D01*
X41132Y-30795D01*
X60362Y-30795D01*
X60174Y-30873D01*
X60088Y-31017D01*
X60750Y-31679D01*
X61412Y-31017D01*
X61326Y-30873D01*
X61132Y-30795D01*
X70362Y-30795D01*
X70174Y-30873D01*
X70088Y-31017D01*
X70750Y-31679D01*
X71412Y-31017D01*
X71326Y-30873D01*
X71132Y-30795D01*
X71705Y-30795D01*
X71705Y-31362D01*
X71627Y-31174D01*
X71483Y-31088D01*
X70821Y-31750D01*
X71483Y-32412D01*
X71627Y-32326D01*
X71705Y-32132D01*
X71705Y-38735D01*
X71535Y-38565D01*
X71412Y-38513D01*
X71412Y-32483D01*
X70750Y-31821D01*
X70679Y-31892D01*
X70679Y-31750D01*
X70017Y-31088D01*
X69873Y-31174D01*
X69720Y-31554D01*
X69723Y-31964D01*
X69873Y-32326D01*
X70017Y-32412D01*
X70679Y-31750D01*
X70679Y-31892D01*
X70088Y-32483D01*
X70174Y-32627D01*
X70554Y-32780D01*
X70964Y-32777D01*
X71326Y-32627D01*
X71412Y-32483D01*
X71412Y-38513D01*
X71247Y-38445D01*
X70935Y-38445D01*
X70646Y-38564D01*
X70425Y-38785D01*
X70305Y-39073D01*
X70305Y-39385D01*
X70424Y-39674D01*
X70645Y-39895D01*
X70933Y-40015D01*
X71245Y-40015D01*
X71534Y-39896D01*
X71705Y-39725D01*
X71705Y-43828D01*
X71635Y-43796D01*
X71605Y-43826D01*
X71605Y-41907D01*
X71605Y-41595D01*
X71486Y-41306D01*
X71265Y-41085D01*
X70977Y-40965D01*
X70665Y-40965D01*
X70376Y-41084D01*
X70155Y-41305D01*
X70035Y-41593D01*
X70035Y-41905D01*
X70154Y-42194D01*
X70375Y-42415D01*
X70663Y-42535D01*
X70975Y-42535D01*
X71264Y-42416D01*
X71485Y-42195D01*
X71605Y-41907D01*
X71605Y-43826D01*
X71564Y-43867D01*
X71564Y-43725D01*
X71510Y-43607D01*
X71224Y-43496D01*
X70918Y-43504D01*
X70670Y-43607D01*
X70616Y-43725D01*
X71090Y-44199D01*
X71564Y-43725D01*
X71564Y-43867D01*
X71161Y-44270D01*
X71635Y-44744D01*
X71705Y-44711D01*
X71705Y-51362D01*
X71627Y-51174D01*
X71564Y-51136D01*
X71564Y-44815D01*
X71090Y-44341D01*
X71019Y-44412D01*
X71019Y-44270D01*
X70545Y-43796D01*
X70427Y-43850D01*
X70316Y-44136D01*
X70324Y-44442D01*
X70427Y-44690D01*
X70545Y-44744D01*
X71019Y-44270D01*
X71019Y-44412D01*
X70616Y-44815D01*
X70670Y-44933D01*
X70956Y-45044D01*
X71262Y-45036D01*
X71510Y-44933D01*
X71564Y-44815D01*
X71564Y-51136D01*
X71483Y-51088D01*
X71412Y-51159D01*
X71412Y-51017D01*
X71326Y-50873D01*
X70946Y-50720D01*
X70536Y-50723D01*
X70174Y-50873D01*
X70088Y-51017D01*
X70750Y-51679D01*
X71412Y-51017D01*
X71412Y-51159D01*
X70821Y-51750D01*
X71483Y-52412D01*
X71627Y-52326D01*
X71705Y-52132D01*
X71705Y-52705D01*
M02*
