G04 (created by PCBnew (20090216-final)) date Mon 26 Oct 2009 16:49:24 PDT*
G01*
G70*
G90*
%MOIN*%
G04 Gerber Fmt 3.4, Leading zero omitted, Abs format*
%FSLAX34Y34*%
G04 APERTURE LIST*
%ADD10C,0.009000*%
%ADD11R,0.060000X0.060000*%
%ADD12C,0.060000*%
%ADD13R,0.035000X0.055000*%
%ADD14R,0.060000X0.025000*%
%ADD15C,0.122000*%
%ADD16C,0.066000*%
%ADD17R,0.066000X0.066000*%
%ADD18C,0.107000*%
%ADD19C,0.056000*%
%ADD20R,0.056000X0.056000*%
%ADD21C,0.045000*%
%ADD22C,0.018000*%
%ADD23C,0.010000*%
%ADD24R,0.055000X0.035000*%
G04 APERTURE END LIST*
G54D10*
X51250Y-35000D02*
X51250Y-50000D01*
X58750Y-35000D02*
X51250Y-35000D01*
X58750Y-50000D02*
X58750Y-35000D01*
X51250Y-50000D02*
X58750Y-50000D01*
G54D11*
X56500Y-38660D03*
G54D12*
X56500Y-37660D03*
X56500Y-36660D03*
X56500Y-35660D03*
X53500Y-35660D03*
X53500Y-36660D03*
X53500Y-37660D03*
X53500Y-38660D03*
X58050Y-45000D03*
X58050Y-44000D03*
X58050Y-42000D03*
X58050Y-41000D03*
X58050Y-39000D03*
X58050Y-38000D03*
G54D24*
X52100Y-44825D03*
X52100Y-45575D03*
X52100Y-38125D03*
X52100Y-38875D03*
G54D13*
X53125Y-39900D03*
X53875Y-39900D03*
X56125Y-39900D03*
X56875Y-39900D03*
G54D15*
X52188Y-36150D03*
X57813Y-36150D03*
G54D16*
X55000Y-44940D03*
X56000Y-43940D03*
G54D17*
X54000Y-43940D03*
G54D24*
X52100Y-42575D03*
X52100Y-41825D03*
X52100Y-40475D03*
X52100Y-39725D03*
G54D13*
X54625Y-40800D03*
X55375Y-40800D03*
G54D18*
X52480Y-48930D03*
X57520Y-48930D03*
G54D19*
X53230Y-47010D03*
X56770Y-47010D03*
X53935Y-47010D03*
G54D20*
X56065Y-47010D03*
G54D18*
X55000Y-48660D03*
G54D21*
X55920Y-40560D03*
X55805Y-38488D03*
X55468Y-42030D03*
X57651Y-42874D03*
X57309Y-37702D03*
X53658Y-40757D03*
X52726Y-37895D03*
X54418Y-42623D03*
X52123Y-41030D03*
G54D22*
X56241Y-39412D02*
X56500Y-39153D01*
X56125Y-39412D02*
X56241Y-39412D01*
X56500Y-38660D02*
X56500Y-39153D01*
X56125Y-39900D02*
X56125Y-39412D01*
X56566Y-40341D02*
X56125Y-39900D01*
X56566Y-46036D02*
X56566Y-40341D01*
X56065Y-46537D02*
X56566Y-46036D01*
X56065Y-47010D02*
X56065Y-46537D01*
X52242Y-37737D02*
X52100Y-37737D01*
X52819Y-37160D02*
X52242Y-37737D01*
X54682Y-37160D02*
X52819Y-37160D01*
X55682Y-36160D02*
X54682Y-37160D01*
X56768Y-36160D02*
X55682Y-36160D01*
X56993Y-36385D02*
X56768Y-36160D01*
X56993Y-37167D02*
X56993Y-36385D01*
X56500Y-37660D02*
X56993Y-37167D01*
X52100Y-38125D02*
X52100Y-37737D01*
X55260Y-37900D02*
X56500Y-36660D01*
X55260Y-39900D02*
X55260Y-37900D01*
X55920Y-40560D02*
X55260Y-39900D01*
X55260Y-39900D02*
X53875Y-39900D01*
X55920Y-42807D02*
X55920Y-40560D01*
X55305Y-43422D02*
X55920Y-42807D01*
X55305Y-44011D02*
X55305Y-43422D01*
X55591Y-44297D02*
X55305Y-44011D01*
X55591Y-47433D02*
X55591Y-44297D01*
X55642Y-47484D02*
X55591Y-47433D01*
X56495Y-47484D02*
X55642Y-47484D01*
X56770Y-47209D02*
X56495Y-47484D01*
X56770Y-47010D02*
X56770Y-47209D01*
X58050Y-38000D02*
X58050Y-39000D01*
X52100Y-39725D02*
X52100Y-38875D01*
X51611Y-38386D02*
X52100Y-38875D01*
X51611Y-37787D02*
X51611Y-38386D01*
X52401Y-36997D02*
X51611Y-37787D01*
X52547Y-36997D02*
X52401Y-36997D01*
X52994Y-36550D02*
X52547Y-36997D01*
X52994Y-36166D02*
X52994Y-36550D01*
X53500Y-35660D02*
X52994Y-36166D01*
X52100Y-46823D02*
X52100Y-45575D01*
X52807Y-47530D02*
X52100Y-46823D01*
X53415Y-47530D02*
X52807Y-47530D01*
X53935Y-47010D02*
X53415Y-47530D01*
X55805Y-38199D02*
X55805Y-38488D01*
X55838Y-38166D02*
X55805Y-38199D01*
X56943Y-38166D02*
X55838Y-38166D01*
X56994Y-38217D02*
X56943Y-38166D01*
X56994Y-39293D02*
X56994Y-38217D01*
X56875Y-39412D02*
X56994Y-39293D01*
X56875Y-39900D02*
X56875Y-39412D01*
X53125Y-39035D02*
X53500Y-38660D01*
X53125Y-39900D02*
X53125Y-39035D01*
X53500Y-38660D02*
X53500Y-37660D01*
X58050Y-44000D02*
X58050Y-45000D01*
X56875Y-42825D02*
X56875Y-39900D01*
X58050Y-44000D02*
X56875Y-42825D01*
X58050Y-41000D02*
X58050Y-42000D01*
X53230Y-46710D02*
X55000Y-44940D01*
X53230Y-47010D02*
X53230Y-46710D01*
X55375Y-40800D02*
X55375Y-41288D01*
X52100Y-44825D02*
X52588Y-44825D01*
X55375Y-41937D02*
X55468Y-42030D01*
X55375Y-41288D02*
X55375Y-41937D01*
X54173Y-44825D02*
X52588Y-44825D01*
X54827Y-44171D02*
X54173Y-44825D01*
X54827Y-43327D02*
X54827Y-44171D01*
X55468Y-42686D02*
X54827Y-43327D01*
X55468Y-42030D02*
X55468Y-42686D01*
X57309Y-42532D02*
X57309Y-37702D01*
X57651Y-42874D02*
X57309Y-42532D01*
X52726Y-40292D02*
X52726Y-37895D01*
X53191Y-40757D02*
X52726Y-40292D01*
X53658Y-40757D02*
X53191Y-40757D01*
X52100Y-42575D02*
X52588Y-42575D01*
X53658Y-40757D02*
X53658Y-42456D01*
X52707Y-42456D02*
X53658Y-42456D01*
X52588Y-42575D02*
X52707Y-42456D01*
X54251Y-42456D02*
X54418Y-42623D01*
X53658Y-42456D02*
X54251Y-42456D01*
X52100Y-41825D02*
X52100Y-41437D01*
X52100Y-41007D02*
X52123Y-41030D01*
X52100Y-40475D02*
X52100Y-41007D01*
X52123Y-41414D02*
X52100Y-41437D01*
X52123Y-41030D02*
X52123Y-41414D01*
X54837Y-41500D02*
X54625Y-41288D01*
X54837Y-42857D02*
X54837Y-41500D01*
X54277Y-43417D02*
X54837Y-42857D01*
X54000Y-43417D02*
X54277Y-43417D01*
X54000Y-43940D02*
X54000Y-43417D01*
X54625Y-40800D02*
X54625Y-41288D01*
G54D23*
X54033Y-36765D02*
X54596Y-36765D01*
X53534Y-36765D02*
X53534Y-36765D01*
X53324Y-36765D02*
X53324Y-36765D01*
X54041Y-36685D02*
X54676Y-36685D01*
X53454Y-36685D02*
X53546Y-36685D01*
X53404Y-36685D02*
X53404Y-36685D01*
X54037Y-36605D02*
X54756Y-36605D01*
X53484Y-36605D02*
X53626Y-36605D01*
X53374Y-36605D02*
X53374Y-36605D01*
X54032Y-36525D02*
X54836Y-36525D01*
X53564Y-36525D02*
X53706Y-36525D01*
X53436Y-36525D02*
X53436Y-36525D01*
X53999Y-36445D02*
X54916Y-36445D01*
X53644Y-36445D02*
X53786Y-36445D01*
X53356Y-36445D02*
X53356Y-36445D01*
X53924Y-36365D02*
X54996Y-36365D01*
X53724Y-36365D02*
X53866Y-36365D01*
X53804Y-36285D02*
X55076Y-36285D01*
X53786Y-36205D02*
X55156Y-36205D01*
X53811Y-36125D02*
X55236Y-36125D01*
X53891Y-36045D02*
X55316Y-36045D01*
X53967Y-35965D02*
X55396Y-35965D01*
X54000Y-35885D02*
X55494Y-35885D01*
X54034Y-35805D02*
X55965Y-35805D01*
X54049Y-35725D02*
X55951Y-35725D01*
X54049Y-35645D02*
X55951Y-35645D01*
X54049Y-35565D02*
X55951Y-35565D01*
X54022Y-35485D02*
X55979Y-35485D01*
X53989Y-35405D02*
X56012Y-35405D01*
X53941Y-35325D02*
X56059Y-35325D01*
X53860Y-35245D02*
X56139Y-35245D01*
X55690Y-39849D02*
X55701Y-39849D01*
X55610Y-39769D02*
X55701Y-39769D01*
X55600Y-39689D02*
X55701Y-39689D01*
X55600Y-39609D02*
X55701Y-39609D01*
X55600Y-39529D02*
X55721Y-39529D01*
X55600Y-39449D02*
X55774Y-39449D01*
X55600Y-39369D02*
X55794Y-39369D01*
X55600Y-39289D02*
X55810Y-39289D01*
X55600Y-39209D02*
X55861Y-39209D01*
X55600Y-39129D02*
X55948Y-39129D01*
X55600Y-39049D02*
X55967Y-39049D01*
X55600Y-38969D02*
X55951Y-38969D01*
X55600Y-38889D02*
X55951Y-38889D01*
X55600Y-38809D02*
X55951Y-38809D01*
X55600Y-38729D02*
X55951Y-38729D01*
X55600Y-38649D02*
X55951Y-38649D01*
X55600Y-38569D02*
X55951Y-38569D01*
X55600Y-38489D02*
X55951Y-38489D01*
X55600Y-38409D02*
X55951Y-38409D01*
X55600Y-38329D02*
X55951Y-38329D01*
X55600Y-38249D02*
X55977Y-38249D01*
X55600Y-38169D02*
X56039Y-38169D01*
X55600Y-38089D02*
X56153Y-38089D01*
X55631Y-38009D02*
X56073Y-38009D01*
X55711Y-37929D02*
X56017Y-37929D01*
X55791Y-37849D02*
X55984Y-37849D01*
X55871Y-37769D02*
X55951Y-37769D01*
X55951Y-37689D02*
X55951Y-37689D01*
X53075Y-39940D02*
X53175Y-39940D01*
X53075Y-39860D02*
X53175Y-39860D01*
X53075Y-39780D02*
X53175Y-39780D01*
X53075Y-39700D02*
X53175Y-39700D01*
X53075Y-39620D02*
X53175Y-39620D01*
X54284Y-39540D02*
X54920Y-39540D01*
X53075Y-39540D02*
X53175Y-39540D01*
X54237Y-39460D02*
X54920Y-39460D01*
X53487Y-39460D02*
X53513Y-39460D01*
X53075Y-39460D02*
X53175Y-39460D01*
X54110Y-39380D02*
X54920Y-39380D01*
X53359Y-39380D02*
X53642Y-39380D01*
X53066Y-39380D02*
X53232Y-39380D01*
X53066Y-39300D02*
X54920Y-39300D01*
X53066Y-39220D02*
X54920Y-39220D01*
X53761Y-39140D02*
X54920Y-39140D01*
X53066Y-39140D02*
X53241Y-39140D01*
X53801Y-39060D02*
X54920Y-39060D01*
X53066Y-39060D02*
X53198Y-39060D01*
X53750Y-38980D02*
X54920Y-38980D01*
X53066Y-38980D02*
X53251Y-38980D01*
X53986Y-38900D02*
X54920Y-38900D01*
X53670Y-38900D02*
X53810Y-38900D01*
X53189Y-38900D02*
X53331Y-38900D01*
X54014Y-38820D02*
X54920Y-38820D01*
X53590Y-38820D02*
X53730Y-38820D01*
X53269Y-38820D02*
X53411Y-38820D01*
X54042Y-38740D02*
X54920Y-38740D01*
X53510Y-38740D02*
X53650Y-38740D01*
X53349Y-38740D02*
X53491Y-38740D01*
X54039Y-38660D02*
X54920Y-38660D01*
X53429Y-38660D02*
X53571Y-38660D01*
X54035Y-38580D02*
X54920Y-38580D01*
X53509Y-38580D02*
X53651Y-38580D01*
X53350Y-38580D02*
X53490Y-38580D01*
X54022Y-38500D02*
X54920Y-38500D01*
X53589Y-38500D02*
X53731Y-38500D01*
X53270Y-38500D02*
X53410Y-38500D01*
X53989Y-38420D02*
X54920Y-38420D01*
X53669Y-38420D02*
X53811Y-38420D01*
X53190Y-38420D02*
X53330Y-38420D01*
X53749Y-38340D02*
X54920Y-38340D01*
X53066Y-38340D02*
X53250Y-38340D01*
X53802Y-38260D02*
X54920Y-38260D01*
X53066Y-38260D02*
X53199Y-38260D01*
X53759Y-38180D02*
X54920Y-38180D01*
X53112Y-38180D02*
X53238Y-38180D01*
X53790Y-38100D02*
X54920Y-38100D01*
X53154Y-38100D02*
X53209Y-38100D01*
X53790Y-38020D02*
X54920Y-38020D01*
X53972Y-37940D02*
X54920Y-37940D01*
X53710Y-37940D02*
X53850Y-37940D01*
X54000Y-37860D02*
X54928Y-37860D01*
X53630Y-37860D02*
X53770Y-37860D01*
X53229Y-37860D02*
X53229Y-37860D01*
X54028Y-37780D02*
X54944Y-37780D01*
X53550Y-37780D02*
X53690Y-37780D01*
X53309Y-37780D02*
X53309Y-37780D01*
X54041Y-37700D02*
X54994Y-37700D01*
X53469Y-37700D02*
X53610Y-37700D01*
X53389Y-37700D02*
X53389Y-37700D01*
X54037Y-37620D02*
X55060Y-37620D01*
X53469Y-37620D02*
X53531Y-37620D01*
X53389Y-37620D02*
X53389Y-37620D01*
X54033Y-37540D02*
X55140Y-37540D01*
X53549Y-37540D02*
X53549Y-37540D01*
X53309Y-37540D02*
X53309Y-37540D01*
X54832Y-37460D02*
X55220Y-37460D01*
X54942Y-37380D02*
X55300Y-37380D01*
X55022Y-37300D02*
X55380Y-37300D01*
X55102Y-37220D02*
X55460Y-37220D01*
X55182Y-37140D02*
X55540Y-37140D01*
X55262Y-37060D02*
X55620Y-37060D01*
X55342Y-36980D02*
X55700Y-36980D01*
X55422Y-36900D02*
X55780Y-36900D01*
X55502Y-36820D02*
X55860Y-36820D01*
X55582Y-36740D02*
X55940Y-36740D01*
X55662Y-36660D02*
X55951Y-36660D01*
X55742Y-36580D02*
X55951Y-36580D01*
X55822Y-36500D02*
X55972Y-36500D01*
X56825Y-39943D02*
X56925Y-39943D01*
X56825Y-39863D02*
X56925Y-39863D01*
X56825Y-39783D02*
X56925Y-39783D01*
X56825Y-39703D02*
X56925Y-39703D01*
X56825Y-39623D02*
X56925Y-39623D01*
X56825Y-39543D02*
X56925Y-39543D01*
X56825Y-39463D02*
X56925Y-39463D01*
X56771Y-39383D02*
X56969Y-39383D01*
X56800Y-39303D02*
X56969Y-39303D01*
X56825Y-39223D02*
X56969Y-39223D01*
X56969Y-39143D02*
X56969Y-39143D01*
X57687Y-49710D02*
X58505Y-49710D01*
X52647Y-49710D02*
X57351Y-49710D01*
X51495Y-49710D02*
X52311Y-49710D01*
X57881Y-49630D02*
X58505Y-49630D01*
X52841Y-49630D02*
X57159Y-49630D01*
X51495Y-49630D02*
X52119Y-49630D01*
X58010Y-49550D02*
X58505Y-49550D01*
X52970Y-49550D02*
X57030Y-49550D01*
X51495Y-49550D02*
X51990Y-49550D01*
X58090Y-49470D02*
X58505Y-49470D01*
X53050Y-49470D02*
X56950Y-49470D01*
X51495Y-49470D02*
X51910Y-49470D01*
X58170Y-49390D02*
X58505Y-49390D01*
X55288Y-49390D02*
X56870Y-49390D01*
X53130Y-49390D02*
X54711Y-49390D01*
X51495Y-49390D02*
X51830Y-49390D01*
X58212Y-49310D02*
X58505Y-49310D01*
X55460Y-49310D02*
X56827Y-49310D01*
X53172Y-49310D02*
X54540Y-49310D01*
X51495Y-49310D02*
X51787Y-49310D01*
X58245Y-49230D02*
X58505Y-49230D01*
X55540Y-49230D02*
X56794Y-49230D01*
X53205Y-49230D02*
X54460Y-49230D01*
X51495Y-49230D02*
X51754Y-49230D01*
X58278Y-49150D02*
X58505Y-49150D01*
X55620Y-49150D02*
X56761Y-49150D01*
X53238Y-49150D02*
X54380Y-49150D01*
X51495Y-49150D02*
X51721Y-49150D01*
X58305Y-49070D02*
X58505Y-49070D01*
X55679Y-49070D02*
X56735Y-49070D01*
X53265Y-49070D02*
X54320Y-49070D01*
X51495Y-49070D02*
X51695Y-49070D01*
X58305Y-48990D02*
X58505Y-48990D01*
X55712Y-48990D02*
X56735Y-48990D01*
X53265Y-48990D02*
X54287Y-48990D01*
X51495Y-48990D02*
X51695Y-48990D01*
X58305Y-48910D02*
X58505Y-48910D01*
X55746Y-48910D02*
X56735Y-48910D01*
X53265Y-48910D02*
X54254Y-48910D01*
X51495Y-48910D02*
X51695Y-48910D01*
X58305Y-48830D02*
X58505Y-48830D01*
X55779Y-48830D02*
X56735Y-48830D01*
X53265Y-48830D02*
X54221Y-48830D01*
X51495Y-48830D02*
X51695Y-48830D01*
X58295Y-48750D02*
X58505Y-48750D01*
X55785Y-48750D02*
X56745Y-48750D01*
X53255Y-48750D02*
X54215Y-48750D01*
X51495Y-48750D02*
X51705Y-48750D01*
X58262Y-48670D02*
X58505Y-48670D01*
X55785Y-48670D02*
X56778Y-48670D01*
X53222Y-48670D02*
X54215Y-48670D01*
X51495Y-48670D02*
X51738Y-48670D01*
X58229Y-48590D02*
X58505Y-48590D01*
X55785Y-48590D02*
X56812Y-48590D01*
X53189Y-48590D02*
X54215Y-48590D01*
X51495Y-48590D02*
X51772Y-48590D01*
X58196Y-48510D02*
X58505Y-48510D01*
X55785Y-48510D02*
X56845Y-48510D01*
X53156Y-48510D02*
X54215Y-48510D01*
X51495Y-48510D02*
X51805Y-48510D01*
X58131Y-48430D02*
X58505Y-48430D01*
X55755Y-48430D02*
X56910Y-48430D01*
X53090Y-48430D02*
X54246Y-48430D01*
X51495Y-48430D02*
X51870Y-48430D01*
X58051Y-48350D02*
X58505Y-48350D01*
X55722Y-48350D02*
X56990Y-48350D01*
X53010Y-48350D02*
X54279Y-48350D01*
X51495Y-48350D02*
X51950Y-48350D01*
X57971Y-48270D02*
X58505Y-48270D01*
X55689Y-48270D02*
X57070Y-48270D01*
X52930Y-48270D02*
X54312Y-48270D01*
X51495Y-48270D02*
X52030Y-48270D01*
X57785Y-48190D02*
X58505Y-48190D01*
X55640Y-48190D02*
X57256Y-48190D01*
X52745Y-48190D02*
X54360Y-48190D01*
X51495Y-48190D02*
X52215Y-48190D01*
X55560Y-48110D02*
X58505Y-48110D01*
X51495Y-48110D02*
X54440Y-48110D01*
X55480Y-48030D02*
X58505Y-48030D01*
X51495Y-48030D02*
X54520Y-48030D01*
X55337Y-47950D02*
X58505Y-47950D01*
X51495Y-47950D02*
X54663Y-47950D01*
X51495Y-47870D02*
X58505Y-47870D01*
X56636Y-47790D02*
X58505Y-47790D01*
X51495Y-47790D02*
X55500Y-47790D01*
X56749Y-47710D02*
X58505Y-47710D01*
X51495Y-47710D02*
X55387Y-47710D01*
X56829Y-47630D02*
X58505Y-47630D01*
X51495Y-47630D02*
X55322Y-47630D01*
X56909Y-47550D02*
X58505Y-47550D01*
X51495Y-47550D02*
X55274Y-47550D01*
X57043Y-47470D02*
X58505Y-47470D01*
X54194Y-47470D02*
X55258Y-47470D01*
X53503Y-47470D02*
X53677Y-47470D01*
X51495Y-47470D02*
X52955Y-47470D01*
X57139Y-47390D02*
X58505Y-47390D01*
X54223Y-47390D02*
X55251Y-47390D01*
X53626Y-47390D02*
X53646Y-47390D01*
X53598Y-47390D02*
X53624Y-47390D01*
X51495Y-47390D02*
X52860Y-47390D01*
X57219Y-47310D02*
X58505Y-47310D01*
X54164Y-47310D02*
X55251Y-47310D01*
X51495Y-47310D02*
X52781Y-47310D01*
X57252Y-47230D02*
X58505Y-47230D01*
X54408Y-47230D02*
X55251Y-47230D01*
X54084Y-47230D02*
X54226Y-47230D01*
X51495Y-47230D02*
X52747Y-47230D01*
X57285Y-47150D02*
X58505Y-47150D01*
X54435Y-47150D02*
X55251Y-47150D01*
X54004Y-47150D02*
X54146Y-47150D01*
X51495Y-47150D02*
X52714Y-47150D01*
X57300Y-47070D02*
X58505Y-47070D01*
X54459Y-47070D02*
X55251Y-47070D01*
X53924Y-47070D02*
X54066Y-47070D01*
X51495Y-47070D02*
X52700Y-47070D01*
X57300Y-46990D02*
X58505Y-46990D01*
X54454Y-46990D02*
X55251Y-46990D01*
X53884Y-46990D02*
X54026Y-46990D01*
X51495Y-46990D02*
X52700Y-46990D01*
X57300Y-46910D02*
X58505Y-46910D01*
X54450Y-46910D02*
X55251Y-46910D01*
X53964Y-46910D02*
X54106Y-46910D01*
X51495Y-46910D02*
X52700Y-46910D01*
X57269Y-46830D02*
X58505Y-46830D01*
X54429Y-46830D02*
X55251Y-46830D01*
X54044Y-46830D02*
X54186Y-46830D01*
X51495Y-46830D02*
X52731Y-46830D01*
X57236Y-46750D02*
X58505Y-46750D01*
X54395Y-46750D02*
X55251Y-46750D01*
X54124Y-46750D02*
X54266Y-46750D01*
X51495Y-46750D02*
X52764Y-46750D01*
X57180Y-46670D02*
X58505Y-46670D01*
X54204Y-46670D02*
X55251Y-46670D01*
X51495Y-46670D02*
X52820Y-46670D01*
X57100Y-46590D02*
X58505Y-46590D01*
X54214Y-46590D02*
X55251Y-46590D01*
X51495Y-46590D02*
X52900Y-46590D01*
X56949Y-46510D02*
X58505Y-46510D01*
X56572Y-46510D02*
X56593Y-46510D01*
X54078Y-46510D02*
X55251Y-46510D01*
X51495Y-46510D02*
X52963Y-46510D01*
X56652Y-46430D02*
X58505Y-46430D01*
X53988Y-46430D02*
X55251Y-46430D01*
X51495Y-46430D02*
X53030Y-46430D01*
X56732Y-46350D02*
X58505Y-46350D01*
X54068Y-46350D02*
X55251Y-46350D01*
X51495Y-46350D02*
X53110Y-46350D01*
X56810Y-46270D02*
X58505Y-46270D01*
X54148Y-46270D02*
X55251Y-46270D01*
X51495Y-46270D02*
X53190Y-46270D01*
X56864Y-46190D02*
X58505Y-46190D01*
X54228Y-46190D02*
X55251Y-46190D01*
X51495Y-46190D02*
X53270Y-46190D01*
X56891Y-46110D02*
X58505Y-46110D01*
X54308Y-46110D02*
X55251Y-46110D01*
X51495Y-46110D02*
X53350Y-46110D01*
X56906Y-46030D02*
X58505Y-46030D01*
X54388Y-46030D02*
X55251Y-46030D01*
X51495Y-46030D02*
X53430Y-46030D01*
X56906Y-45950D02*
X58505Y-45950D01*
X54468Y-45950D02*
X55251Y-45950D01*
X52527Y-45950D02*
X53510Y-45950D01*
X52038Y-45950D02*
X52162Y-45950D01*
X51495Y-45950D02*
X51673Y-45950D01*
X56906Y-45870D02*
X58505Y-45870D01*
X54548Y-45870D02*
X55251Y-45870D01*
X52594Y-45870D02*
X53590Y-45870D01*
X52050Y-45870D02*
X52150Y-45870D01*
X51495Y-45870D02*
X51605Y-45870D01*
X56906Y-45790D02*
X58505Y-45790D01*
X54628Y-45790D02*
X55251Y-45790D01*
X52624Y-45790D02*
X53670Y-45790D01*
X52050Y-45790D02*
X52150Y-45790D01*
X51495Y-45790D02*
X51575Y-45790D01*
X56906Y-45710D02*
X58505Y-45710D01*
X54708Y-45710D02*
X55251Y-45710D01*
X52624Y-45710D02*
X53749Y-45710D01*
X52050Y-45710D02*
X52150Y-45710D01*
X51495Y-45710D02*
X51575Y-45710D01*
X56906Y-45630D02*
X58505Y-45630D01*
X54788Y-45630D02*
X55251Y-45630D01*
X52568Y-45630D02*
X53829Y-45630D01*
X52050Y-45630D02*
X52150Y-45630D01*
X51495Y-45630D02*
X51632Y-45630D01*
X56906Y-45550D02*
X58505Y-45550D01*
X54868Y-45550D02*
X55251Y-45550D01*
X51495Y-45550D02*
X53909Y-45550D01*
X58331Y-45470D02*
X58505Y-45470D01*
X56906Y-45470D02*
X57768Y-45470D01*
X55234Y-45470D02*
X55251Y-45470D01*
X52618Y-45470D02*
X53989Y-45470D01*
X51495Y-45470D02*
X51582Y-45470D01*
X58354Y-45390D02*
X58505Y-45390D01*
X56906Y-45390D02*
X57745Y-45390D01*
X52625Y-45390D02*
X54069Y-45390D01*
X51495Y-45390D02*
X51576Y-45390D01*
X58290Y-45310D02*
X58505Y-45310D01*
X56906Y-45310D02*
X57811Y-45310D01*
X52608Y-45310D02*
X54149Y-45310D01*
X51495Y-45310D02*
X51593Y-45310D01*
X58210Y-45230D02*
X58350Y-45230D01*
X57749Y-45230D02*
X57891Y-45230D01*
X56906Y-45230D02*
X57557Y-45230D01*
X52557Y-45230D02*
X54229Y-45230D01*
X51495Y-45230D02*
X51643Y-45230D01*
X58130Y-45150D02*
X58270Y-45150D01*
X57829Y-45150D02*
X57971Y-45150D01*
X56906Y-45150D02*
X57524Y-45150D01*
X54248Y-45150D02*
X54309Y-45150D01*
X51495Y-45150D02*
X51623Y-45150D01*
X57909Y-45070D02*
X58190Y-45070D01*
X56906Y-45070D02*
X57514Y-45070D01*
X51495Y-45070D02*
X51584Y-45070D01*
X57970Y-44990D02*
X58131Y-44990D01*
X56906Y-44990D02*
X57510Y-44990D01*
X51495Y-44990D02*
X51576Y-44990D01*
X58069Y-44910D02*
X58211Y-44910D01*
X57890Y-44910D02*
X58030Y-44910D01*
X56906Y-44910D02*
X57511Y-44910D01*
X51495Y-44910D02*
X51576Y-44910D01*
X58149Y-44830D02*
X58291Y-44830D01*
X57810Y-44830D02*
X57950Y-44830D01*
X56906Y-44830D02*
X57539Y-44830D01*
X51495Y-44830D02*
X51576Y-44830D01*
X58229Y-44750D02*
X58371Y-44750D01*
X57730Y-44750D02*
X57870Y-44750D01*
X56906Y-44750D02*
X57568Y-44750D01*
X51495Y-44750D02*
X51576Y-44750D01*
X58309Y-44670D02*
X58505Y-44670D01*
X56906Y-44670D02*
X57790Y-44670D01*
X51495Y-44670D02*
X51576Y-44670D01*
X58349Y-44590D02*
X58505Y-44590D01*
X56906Y-44590D02*
X57752Y-44590D01*
X51495Y-44590D02*
X51581Y-44590D01*
X58280Y-44510D02*
X58505Y-44510D01*
X56906Y-44510D02*
X57812Y-44510D01*
X51495Y-44510D02*
X51614Y-44510D01*
X58343Y-44430D02*
X58505Y-44430D01*
X56906Y-44430D02*
X57756Y-44430D01*
X52495Y-44430D02*
X53478Y-44430D01*
X51495Y-44430D02*
X51706Y-44430D01*
X58330Y-44350D02*
X58505Y-44350D01*
X56906Y-44350D02*
X57771Y-44350D01*
X51495Y-44350D02*
X53433Y-44350D01*
X58250Y-44270D02*
X58390Y-44270D01*
X57709Y-44270D02*
X57851Y-44270D01*
X56906Y-44270D02*
X57573Y-44270D01*
X51495Y-44270D02*
X53421Y-44270D01*
X58170Y-44190D02*
X58310Y-44190D01*
X57789Y-44190D02*
X57931Y-44190D01*
X56906Y-44190D02*
X57540Y-44190D01*
X51495Y-44190D02*
X53421Y-44190D01*
X58090Y-44110D02*
X58230Y-44110D01*
X57869Y-44110D02*
X58011Y-44110D01*
X56906Y-44110D02*
X57516Y-44110D01*
X51495Y-44110D02*
X53421Y-44110D01*
X57949Y-44030D02*
X58150Y-44030D01*
X56906Y-44030D02*
X57512Y-44030D01*
X51495Y-44030D02*
X53421Y-44030D01*
X57930Y-43950D02*
X58171Y-43950D01*
X56906Y-43950D02*
X57508Y-43950D01*
X51495Y-43950D02*
X53421Y-43950D01*
X58109Y-43870D02*
X58251Y-43870D01*
X57850Y-43870D02*
X57990Y-43870D01*
X56906Y-43870D02*
X57525Y-43870D01*
X51495Y-43870D02*
X53421Y-43870D01*
X58189Y-43790D02*
X58331Y-43790D01*
X57770Y-43790D02*
X57910Y-43790D01*
X56906Y-43790D02*
X57554Y-43790D01*
X51495Y-43790D02*
X53421Y-43790D01*
X58491Y-43710D02*
X58505Y-43710D01*
X58269Y-43710D02*
X58411Y-43710D01*
X57690Y-43710D02*
X57830Y-43710D01*
X56906Y-43710D02*
X57610Y-43710D01*
X51495Y-43710D02*
X53421Y-43710D01*
X58349Y-43630D02*
X58505Y-43630D01*
X56906Y-43630D02*
X57750Y-43630D01*
X51495Y-43630D02*
X53421Y-43630D01*
X58338Y-43550D02*
X58505Y-43550D01*
X56906Y-43550D02*
X57763Y-43550D01*
X51495Y-43550D02*
X53426Y-43550D01*
X58166Y-43470D02*
X58505Y-43470D01*
X56906Y-43470D02*
X57912Y-43470D01*
X51495Y-43470D02*
X53459Y-43470D01*
X56906Y-43390D02*
X58505Y-43390D01*
X51495Y-43390D02*
X53551Y-43390D01*
X57839Y-43310D02*
X58505Y-43310D01*
X56906Y-43310D02*
X57463Y-43310D01*
X51495Y-43310D02*
X53682Y-43310D01*
X57966Y-43230D02*
X58505Y-43230D01*
X56906Y-43230D02*
X57335Y-43230D01*
X51495Y-43230D02*
X53725Y-43230D01*
X58046Y-43150D02*
X58505Y-43150D01*
X56906Y-43150D02*
X57255Y-43150D01*
X51495Y-43150D02*
X53801Y-43150D01*
X58083Y-43070D02*
X58505Y-43070D01*
X56906Y-43070D02*
X57217Y-43070D01*
X51495Y-43070D02*
X54143Y-43070D01*
X58117Y-42990D02*
X58505Y-42990D01*
X56906Y-42990D02*
X57185Y-42990D01*
X52445Y-42990D02*
X54113Y-42990D01*
X51495Y-42990D02*
X51753Y-42990D01*
X58126Y-42910D02*
X58505Y-42910D01*
X56906Y-42910D02*
X57176Y-42910D01*
X52613Y-42910D02*
X54033Y-42910D01*
X51495Y-42910D02*
X51633Y-42910D01*
X58126Y-42830D02*
X58505Y-42830D01*
X56906Y-42830D02*
X57127Y-42830D01*
X52805Y-42830D02*
X53989Y-42830D01*
X51495Y-42830D02*
X51588Y-42830D01*
X58114Y-42750D02*
X58505Y-42750D01*
X56906Y-42750D02*
X57054Y-42750D01*
X51495Y-42750D02*
X51576Y-42750D01*
X58081Y-42670D02*
X58505Y-42670D01*
X56906Y-42670D02*
X57000Y-42670D01*
X51495Y-42670D02*
X51576Y-42670D01*
X58039Y-42590D02*
X58505Y-42590D01*
X56906Y-42590D02*
X56980Y-42590D01*
X51495Y-42590D02*
X51576Y-42590D01*
X58252Y-42510D02*
X58505Y-42510D01*
X56906Y-42510D02*
X56969Y-42510D01*
X51495Y-42510D02*
X51576Y-42510D01*
X58396Y-42430D02*
X58505Y-42430D01*
X56906Y-42430D02*
X56969Y-42430D01*
X51495Y-42430D02*
X51576Y-42430D01*
X58476Y-42350D02*
X58505Y-42350D01*
X56906Y-42350D02*
X56969Y-42350D01*
X51495Y-42350D02*
X51576Y-42350D01*
X56906Y-42270D02*
X56969Y-42270D01*
X51495Y-42270D02*
X51610Y-42270D01*
X56906Y-42190D02*
X56969Y-42190D01*
X51495Y-42190D02*
X51663Y-42190D01*
X56906Y-42110D02*
X56969Y-42110D01*
X51495Y-42110D02*
X51601Y-42110D01*
X56906Y-42030D02*
X56969Y-42030D01*
X51495Y-42030D02*
X51576Y-42030D01*
X56906Y-41950D02*
X56969Y-41950D01*
X51495Y-41950D02*
X51576Y-41950D01*
X56906Y-41870D02*
X56969Y-41870D01*
X51495Y-41870D02*
X51576Y-41870D01*
X56906Y-41790D02*
X56969Y-41790D01*
X51495Y-41790D02*
X51576Y-41790D01*
X56906Y-41710D02*
X56969Y-41710D01*
X51495Y-41710D02*
X51576Y-41710D01*
X56906Y-41630D02*
X56969Y-41630D01*
X51495Y-41630D02*
X51576Y-41630D01*
X56906Y-41550D02*
X56969Y-41550D01*
X51495Y-41550D02*
X51597Y-41550D01*
X56906Y-41470D02*
X56969Y-41470D01*
X51495Y-41470D02*
X51653Y-41470D01*
X56906Y-41390D02*
X56969Y-41390D01*
X51495Y-41390D02*
X51769Y-41390D01*
X56906Y-41310D02*
X56969Y-41310D01*
X51495Y-41310D02*
X51731Y-41310D01*
X56906Y-41230D02*
X56969Y-41230D01*
X51495Y-41230D02*
X51691Y-41230D01*
X56906Y-41150D02*
X56969Y-41150D01*
X51495Y-41150D02*
X51658Y-41150D01*
X56906Y-41070D02*
X56969Y-41070D01*
X51495Y-41070D02*
X51648Y-41070D01*
X56906Y-40990D02*
X56969Y-40990D01*
X51495Y-40990D02*
X51648Y-40990D01*
X56906Y-40910D02*
X56969Y-40910D01*
X51495Y-40910D02*
X51659Y-40910D01*
X56906Y-40830D02*
X56969Y-40830D01*
X51495Y-40830D02*
X51653Y-40830D01*
X56906Y-40750D02*
X56969Y-40750D01*
X51495Y-40750D02*
X51597Y-40750D01*
X56906Y-40670D02*
X56969Y-40670D01*
X51495Y-40670D02*
X51576Y-40670D01*
X56906Y-40590D02*
X56969Y-40590D01*
X51495Y-40590D02*
X51576Y-40590D01*
X56906Y-40510D02*
X56969Y-40510D01*
X51495Y-40510D02*
X51576Y-40510D01*
X56906Y-40430D02*
X56969Y-40430D01*
X51495Y-40430D02*
X51576Y-40430D01*
X51495Y-40350D02*
X51576Y-40350D01*
X51495Y-40270D02*
X51576Y-40270D01*
X51495Y-40190D02*
X51602Y-40190D01*
X51495Y-40110D02*
X51663Y-40110D01*
X51495Y-40030D02*
X51609Y-40030D01*
X51495Y-39950D02*
X51576Y-39950D01*
X51495Y-39870D02*
X51576Y-39870D01*
X51495Y-39790D02*
X51576Y-39790D01*
X51495Y-39710D02*
X51576Y-39710D01*
X51495Y-39630D02*
X51576Y-39630D01*
X51495Y-39550D02*
X51576Y-39550D01*
X51495Y-39470D02*
X51589Y-39470D01*
X51495Y-39390D02*
X51633Y-39390D01*
X51495Y-39310D02*
X51753Y-39310D01*
X51495Y-39230D02*
X51653Y-39230D01*
X51495Y-39150D02*
X51597Y-39150D01*
X51495Y-39070D02*
X51576Y-39070D01*
X51495Y-38990D02*
X51576Y-38990D01*
X51495Y-38910D02*
X51576Y-38910D01*
X51495Y-38830D02*
X51575Y-38830D01*
X51495Y-38750D02*
X51495Y-38750D01*
X58505Y-49755D02*
X58505Y-45285D01*
X58505Y-45285D02*
X58428Y-45308D01*
X58428Y-45308D02*
X58121Y-45000D01*
X58121Y-45000D02*
X58428Y-44692D01*
X58428Y-44692D02*
X58505Y-44714D01*
X58505Y-44714D02*
X58505Y-44285D01*
X58505Y-44285D02*
X58428Y-44308D01*
X58428Y-44308D02*
X58121Y-44000D01*
X58121Y-44000D02*
X58428Y-43692D01*
X58428Y-43692D02*
X58505Y-43714D01*
X58505Y-43714D02*
X58505Y-42321D01*
X58505Y-42321D02*
X58361Y-42465D01*
X58361Y-42465D02*
X58159Y-42549D01*
X58159Y-42549D02*
X57997Y-42549D01*
X57997Y-42549D02*
X58054Y-42605D01*
X58054Y-42605D02*
X58126Y-42780D01*
X58126Y-42780D02*
X58126Y-42969D01*
X58126Y-42969D02*
X58053Y-43143D01*
X58053Y-43143D02*
X57920Y-43277D01*
X57920Y-43277D02*
X57745Y-43349D01*
X57745Y-43349D02*
X57556Y-43349D01*
X57556Y-43349D02*
X57382Y-43276D01*
X57382Y-43276D02*
X57248Y-43143D01*
X57248Y-43143D02*
X57176Y-42968D01*
X57176Y-42968D02*
X57176Y-42879D01*
X57176Y-42879D02*
X57069Y-42772D01*
X57069Y-42772D02*
X56995Y-42662D01*
X56995Y-42662D02*
X56969Y-42532D01*
X56969Y-42532D02*
X56969Y-40407D01*
X56969Y-40407D02*
X56925Y-40363D01*
X56925Y-40363D02*
X56925Y-40375D01*
X56925Y-40375D02*
X56906Y-40375D01*
X56906Y-40375D02*
X56906Y-46036D01*
X56906Y-46036D02*
X56880Y-46166D01*
X56880Y-46166D02*
X56806Y-46277D01*
X56806Y-46277D02*
X56558Y-46524D01*
X56558Y-46524D02*
X56665Y-46480D01*
X56665Y-46480D02*
X56876Y-46480D01*
X56876Y-46480D02*
X57071Y-46561D01*
X57071Y-46561D02*
X57219Y-46710D01*
X57219Y-46710D02*
X57300Y-46905D01*
X57300Y-46905D02*
X57300Y-47116D01*
X57300Y-47116D02*
X57219Y-47311D01*
X57219Y-47311D02*
X57070Y-47459D01*
X57070Y-47459D02*
X56951Y-47508D01*
X56951Y-47508D02*
X56735Y-47724D01*
X56735Y-47724D02*
X56625Y-47798D01*
X56625Y-47798D02*
X56495Y-47824D01*
X56495Y-47824D02*
X55642Y-47824D01*
X55642Y-47824D02*
X55512Y-47798D01*
X55512Y-47798D02*
X55401Y-47724D01*
X55401Y-47724D02*
X55351Y-47673D01*
X55351Y-47673D02*
X55277Y-47563D01*
X55277Y-47563D02*
X55251Y-47433D01*
X55251Y-47433D02*
X55251Y-45463D01*
X55251Y-45463D02*
X55115Y-45520D01*
X55115Y-45520D02*
X54900Y-45519D01*
X54900Y-45519D02*
X53928Y-46490D01*
X53928Y-46490D02*
X54009Y-46486D01*
X54009Y-46486D02*
X54204Y-46554D01*
X54204Y-46554D02*
X54228Y-46646D01*
X54228Y-46646D02*
X53935Y-46939D01*
X53935Y-46939D02*
X53864Y-47010D01*
X53864Y-47010D02*
X53935Y-47081D01*
X53935Y-47081D02*
X54228Y-47374D01*
X54228Y-47374D02*
X54204Y-47466D01*
X54204Y-47466D02*
X54067Y-47523D01*
X54067Y-47523D02*
X53861Y-47534D01*
X53861Y-47534D02*
X53666Y-47466D01*
X53666Y-47466D02*
X53642Y-47374D01*
X53642Y-47374D02*
X53625Y-47391D01*
X53625Y-47391D02*
X53611Y-47377D01*
X53611Y-47377D02*
X53530Y-47459D01*
X53530Y-47459D02*
X53335Y-47540D01*
X53335Y-47540D02*
X53124Y-47540D01*
X53124Y-47540D02*
X52929Y-47459D01*
X52929Y-47459D02*
X52781Y-47310D01*
X52781Y-47310D02*
X52700Y-47115D01*
X52700Y-47115D02*
X52700Y-46904D01*
X52700Y-46904D02*
X52781Y-46709D01*
X52781Y-46709D02*
X52926Y-46564D01*
X52926Y-46564D02*
X52990Y-46470D01*
X52990Y-46470D02*
X54355Y-45103D01*
X54355Y-45103D02*
X54303Y-45139D01*
X54303Y-45139D02*
X54173Y-45165D01*
X54173Y-45165D02*
X52561Y-45165D01*
X52561Y-45165D02*
X52526Y-45199D01*
X52526Y-45199D02*
X52586Y-45259D01*
X52586Y-45259D02*
X52624Y-45351D01*
X52624Y-45351D02*
X52625Y-45463D01*
X52625Y-45463D02*
X52563Y-45525D01*
X52563Y-45525D02*
X52150Y-45525D01*
X52150Y-45525D02*
X52050Y-45525D01*
X52050Y-45525D02*
X51637Y-45525D01*
X51637Y-45525D02*
X51575Y-45463D01*
X51575Y-45463D02*
X51576Y-45351D01*
X51576Y-45351D02*
X51614Y-45259D01*
X51614Y-45259D02*
X51673Y-45200D01*
X51673Y-45200D02*
X51614Y-45141D01*
X51614Y-45141D02*
X51576Y-45049D01*
X51576Y-45049D02*
X51576Y-44600D01*
X51576Y-44600D02*
X51614Y-44509D01*
X51614Y-44509D02*
X51684Y-44439D01*
X51684Y-44439D02*
X51776Y-44401D01*
X51776Y-44401D02*
X52425Y-44401D01*
X52425Y-44401D02*
X52516Y-44439D01*
X52516Y-44439D02*
X52561Y-44485D01*
X52561Y-44485D02*
X53538Y-44484D01*
X53538Y-44484D02*
X53529Y-44481D01*
X53529Y-44481D02*
X53459Y-44411D01*
X53459Y-44411D02*
X53421Y-44319D01*
X53421Y-44319D02*
X53421Y-43560D01*
X53421Y-43560D02*
X53459Y-43469D01*
X53459Y-43469D02*
X53529Y-43399D01*
X53529Y-43399D02*
X53621Y-43361D01*
X53621Y-43361D02*
X53671Y-43361D01*
X53671Y-43361D02*
X53686Y-43287D01*
X53686Y-43287D02*
X53760Y-43177D01*
X53760Y-43177D02*
X53870Y-43103D01*
X53870Y-43103D02*
X54000Y-43077D01*
X54000Y-43077D02*
X54136Y-43077D01*
X54136Y-43077D02*
X54177Y-43036D01*
X54177Y-43036D02*
X54149Y-43025D01*
X54149Y-43025D02*
X54015Y-42892D01*
X54015Y-42892D02*
X53975Y-42796D01*
X53975Y-42796D02*
X52847Y-42796D01*
X52847Y-42796D02*
X52828Y-42815D01*
X52828Y-42815D02*
X52718Y-42889D01*
X52718Y-42889D02*
X52588Y-42915D01*
X52588Y-42915D02*
X52561Y-42915D01*
X52561Y-42915D02*
X52516Y-42961D01*
X52516Y-42961D02*
X52424Y-42999D01*
X52424Y-42999D02*
X51775Y-42999D01*
X51775Y-42999D02*
X51684Y-42961D01*
X51684Y-42961D02*
X51614Y-42891D01*
X51614Y-42891D02*
X51576Y-42799D01*
X51576Y-42799D02*
X51576Y-42350D01*
X51576Y-42350D02*
X51614Y-42259D01*
X51614Y-42259D02*
X51672Y-42199D01*
X51672Y-42199D02*
X51614Y-42141D01*
X51614Y-42141D02*
X51576Y-42049D01*
X51576Y-42049D02*
X51576Y-41600D01*
X51576Y-41600D02*
X51614Y-41509D01*
X51614Y-41509D02*
X51684Y-41439D01*
X51684Y-41439D02*
X51766Y-41404D01*
X51766Y-41404D02*
X51776Y-41354D01*
X51776Y-41354D02*
X51720Y-41299D01*
X51720Y-41299D02*
X51648Y-41124D01*
X51648Y-41124D02*
X51648Y-40935D01*
X51648Y-40935D02*
X51680Y-40857D01*
X51680Y-40857D02*
X51614Y-40791D01*
X51614Y-40791D02*
X51576Y-40699D01*
X51576Y-40699D02*
X51576Y-40250D01*
X51576Y-40250D02*
X51614Y-40159D01*
X51614Y-40159D02*
X51672Y-40100D01*
X51672Y-40100D02*
X51614Y-40041D01*
X51614Y-40041D02*
X51576Y-39949D01*
X51576Y-39949D02*
X51576Y-39500D01*
X51576Y-39500D02*
X51614Y-39409D01*
X51614Y-39409D02*
X51684Y-39339D01*
X51684Y-39339D02*
X51760Y-39307D01*
X51760Y-39307D02*
X51760Y-39292D01*
X51760Y-39292D02*
X51684Y-39261D01*
X51684Y-39261D02*
X51614Y-39191D01*
X51614Y-39191D02*
X51576Y-39099D01*
X51576Y-39099D02*
X51576Y-38831D01*
X51576Y-38831D02*
X51495Y-38750D01*
X51495Y-38750D02*
X51495Y-49755D01*
X51495Y-49755D02*
X52323Y-49755D01*
X52323Y-49755D02*
X52323Y-49715D01*
X52323Y-49715D02*
X52035Y-49595D01*
X52035Y-49595D02*
X51814Y-49374D01*
X51814Y-49374D02*
X51695Y-49085D01*
X51695Y-49085D02*
X51695Y-48773D01*
X51695Y-48773D02*
X51815Y-48485D01*
X51815Y-48485D02*
X51988Y-48312D01*
X51988Y-48312D02*
X51988Y-46000D01*
X51988Y-46000D02*
X51775Y-45999D01*
X51775Y-45999D02*
X51684Y-45961D01*
X51684Y-45961D02*
X51614Y-45891D01*
X51614Y-45891D02*
X51576Y-45799D01*
X51576Y-45799D02*
X51575Y-45687D01*
X51575Y-45687D02*
X51637Y-45625D01*
X51637Y-45625D02*
X52050Y-45625D01*
X52050Y-45625D02*
X52050Y-45938D01*
X52050Y-45938D02*
X51988Y-46000D01*
X51988Y-46000D02*
X51988Y-48312D01*
X51988Y-48312D02*
X52036Y-48264D01*
X52036Y-48264D02*
X52212Y-48191D01*
X52212Y-48191D02*
X52212Y-46000D01*
X52212Y-46000D02*
X52150Y-45938D01*
X52150Y-45938D02*
X52150Y-45625D01*
X52150Y-45625D02*
X52563Y-45625D01*
X52563Y-45625D02*
X52625Y-45687D01*
X52625Y-45687D02*
X52624Y-45799D01*
X52624Y-45799D02*
X52586Y-45891D01*
X52586Y-45891D02*
X52516Y-45961D01*
X52516Y-45961D02*
X52425Y-45999D01*
X52425Y-45999D02*
X52212Y-46000D01*
X52212Y-46000D02*
X52212Y-48191D01*
X52212Y-48191D02*
X52325Y-48145D01*
X52325Y-48145D02*
X52637Y-48145D01*
X52637Y-48145D02*
X52925Y-48265D01*
X52925Y-48265D02*
X53146Y-48486D01*
X53146Y-48486D02*
X53265Y-48775D01*
X53265Y-48775D02*
X53265Y-49087D01*
X53265Y-49087D02*
X53145Y-49375D01*
X53145Y-49375D02*
X52924Y-49596D01*
X52924Y-49596D02*
X52635Y-49715D01*
X52635Y-49715D02*
X52323Y-49715D01*
X52323Y-49715D02*
X52323Y-49755D01*
X52323Y-49755D02*
X53861Y-49755D01*
X53861Y-49755D02*
X54843Y-49755D01*
X54843Y-49755D02*
X54843Y-49445D01*
X54843Y-49445D02*
X54555Y-49325D01*
X54555Y-49325D02*
X54334Y-49104D01*
X54334Y-49104D02*
X54215Y-48815D01*
X54215Y-48815D02*
X54215Y-48503D01*
X54215Y-48503D02*
X54299Y-48301D01*
X54299Y-48301D02*
X54299Y-47303D01*
X54299Y-47303D02*
X54006Y-47010D01*
X54006Y-47010D02*
X54299Y-46717D01*
X54299Y-46717D02*
X54391Y-46741D01*
X54391Y-46741D02*
X54448Y-46878D01*
X54448Y-46878D02*
X54459Y-47084D01*
X54459Y-47084D02*
X54391Y-47279D01*
X54391Y-47279D02*
X54299Y-47303D01*
X54299Y-47303D02*
X54299Y-48301D01*
X54299Y-48301D02*
X54335Y-48215D01*
X54335Y-48215D02*
X54556Y-47994D01*
X54556Y-47994D02*
X54845Y-47875D01*
X54845Y-47875D02*
X55157Y-47875D01*
X55157Y-47875D02*
X55445Y-47995D01*
X55445Y-47995D02*
X55666Y-48216D01*
X55666Y-48216D02*
X55785Y-48505D01*
X55785Y-48505D02*
X55785Y-48817D01*
X55785Y-48817D02*
X55665Y-49105D01*
X55665Y-49105D02*
X55444Y-49326D01*
X55444Y-49326D02*
X55155Y-49445D01*
X55155Y-49445D02*
X54843Y-49445D01*
X54843Y-49445D02*
X54843Y-49755D01*
X54843Y-49755D02*
X57363Y-49755D01*
X57363Y-49755D02*
X57363Y-49715D01*
X57363Y-49715D02*
X57075Y-49595D01*
X57075Y-49595D02*
X56854Y-49374D01*
X56854Y-49374D02*
X56735Y-49085D01*
X56735Y-49085D02*
X56735Y-48773D01*
X56735Y-48773D02*
X56855Y-48485D01*
X56855Y-48485D02*
X57076Y-48264D01*
X57076Y-48264D02*
X57365Y-48145D01*
X57365Y-48145D02*
X57672Y-48145D01*
X57672Y-48145D02*
X57672Y-45308D01*
X57672Y-45308D02*
X57578Y-45281D01*
X57578Y-45281D02*
X57518Y-45134D01*
X57518Y-45134D02*
X57507Y-44921D01*
X57507Y-44921D02*
X57578Y-44719D01*
X57578Y-44719D02*
X57672Y-44692D01*
X57672Y-44692D02*
X57672Y-44308D01*
X57672Y-44308D02*
X57578Y-44281D01*
X57578Y-44281D02*
X57518Y-44134D01*
X57518Y-44134D02*
X57507Y-43921D01*
X57507Y-43921D02*
X57578Y-43719D01*
X57578Y-43719D02*
X57672Y-43692D01*
X57672Y-43692D02*
X57979Y-44000D01*
X57979Y-44000D02*
X57672Y-44308D01*
X57672Y-44308D02*
X57672Y-44692D01*
X57672Y-44692D02*
X57979Y-45000D01*
X57979Y-45000D02*
X57672Y-45308D01*
X57672Y-45308D02*
X57672Y-48145D01*
X57672Y-48145D02*
X57677Y-48145D01*
X57677Y-48145D02*
X57965Y-48265D01*
X57965Y-48265D02*
X57971Y-48270D01*
X57971Y-48270D02*
X57971Y-45543D01*
X57971Y-45543D02*
X57769Y-45472D01*
X57769Y-45472D02*
X57742Y-45378D01*
X57742Y-45378D02*
X58050Y-45071D01*
X58050Y-45071D02*
X58050Y-44929D01*
X58050Y-44929D02*
X57742Y-44622D01*
X57742Y-44622D02*
X57769Y-44528D01*
X57769Y-44528D02*
X57842Y-44497D01*
X57842Y-44497D02*
X57769Y-44472D01*
X57769Y-44472D02*
X57742Y-44378D01*
X57742Y-44378D02*
X58050Y-44071D01*
X58050Y-44071D02*
X58050Y-43929D01*
X58050Y-43929D02*
X57742Y-43622D01*
X57742Y-43622D02*
X57769Y-43528D01*
X57769Y-43528D02*
X57916Y-43468D01*
X57916Y-43468D02*
X58129Y-43457D01*
X58129Y-43457D02*
X58331Y-43528D01*
X58331Y-43528D02*
X58358Y-43622D01*
X58358Y-43622D02*
X58050Y-43929D01*
X58050Y-43929D02*
X58050Y-44071D01*
X58050Y-44071D02*
X58358Y-44378D01*
X58358Y-44378D02*
X58331Y-44472D01*
X58331Y-44472D02*
X58257Y-44502D01*
X58257Y-44502D02*
X58331Y-44528D01*
X58331Y-44528D02*
X58358Y-44622D01*
X58358Y-44622D02*
X58050Y-44929D01*
X58050Y-44929D02*
X58050Y-45071D01*
X58050Y-45071D02*
X58358Y-45378D01*
X58358Y-45378D02*
X58331Y-45472D01*
X58331Y-45472D02*
X58184Y-45532D01*
X58184Y-45532D02*
X57971Y-45543D01*
X57971Y-45543D02*
X57971Y-48270D01*
X57971Y-48270D02*
X58186Y-48486D01*
X58186Y-48486D02*
X58305Y-48775D01*
X58305Y-48775D02*
X58305Y-49087D01*
X58305Y-49087D02*
X58185Y-49375D01*
X58185Y-49375D02*
X57964Y-49596D01*
X57964Y-49596D02*
X57675Y-49715D01*
X57675Y-49715D02*
X57363Y-49715D01*
X57363Y-49715D02*
X57363Y-49755D01*
X57363Y-49755D02*
X58505Y-49755D01*
X56925Y-39950D02*
X56925Y-39850D01*
X56925Y-39850D02*
X56925Y-39437D01*
X56925Y-39437D02*
X56969Y-39393D01*
X56969Y-39393D02*
X56969Y-39143D01*
X56969Y-39143D02*
X56941Y-39171D01*
X56941Y-39171D02*
X56849Y-39209D01*
X56849Y-39209D02*
X56828Y-39209D01*
X56828Y-39209D02*
X56814Y-39283D01*
X56814Y-39283D02*
X56752Y-39375D01*
X56752Y-39375D02*
X56763Y-39375D01*
X56763Y-39375D02*
X56825Y-39437D01*
X56825Y-39437D02*
X56825Y-39850D01*
X56825Y-39850D02*
X56556Y-39849D01*
X56556Y-39849D02*
X56556Y-39850D01*
X56556Y-39850D02*
X56825Y-39850D01*
X56825Y-39850D02*
X56825Y-39950D01*
X56825Y-39950D02*
X56925Y-39950D01*
X53175Y-39950D02*
X53175Y-39850D01*
X53175Y-39850D02*
X53175Y-39437D01*
X53175Y-39437D02*
X53237Y-39375D01*
X53237Y-39375D02*
X53349Y-39376D01*
X53349Y-39376D02*
X53421Y-39405D01*
X53421Y-39405D02*
X53421Y-39203D01*
X53421Y-39203D02*
X53219Y-39132D01*
X53219Y-39132D02*
X53192Y-39038D01*
X53192Y-39038D02*
X53500Y-38731D01*
X53500Y-38731D02*
X53808Y-39038D01*
X53808Y-39038D02*
X53781Y-39132D01*
X53781Y-39132D02*
X53634Y-39192D01*
X53634Y-39192D02*
X53421Y-39203D01*
X53421Y-39203D02*
X53421Y-39405D01*
X53421Y-39405D02*
X53441Y-39414D01*
X53441Y-39414D02*
X53500Y-39473D01*
X53500Y-39473D02*
X53559Y-39414D01*
X53559Y-39414D02*
X53651Y-39376D01*
X53651Y-39376D02*
X53878Y-39376D01*
X53878Y-39376D02*
X53878Y-38968D01*
X53878Y-38968D02*
X53571Y-38660D01*
X53571Y-38660D02*
X53878Y-38352D01*
X53878Y-38352D02*
X53972Y-38379D01*
X53972Y-38379D02*
X54032Y-38526D01*
X54032Y-38526D02*
X54043Y-38739D01*
X54043Y-38739D02*
X53972Y-38941D01*
X53972Y-38941D02*
X53878Y-38968D01*
X53878Y-38968D02*
X53878Y-39376D01*
X53878Y-39376D02*
X54100Y-39376D01*
X54100Y-39376D02*
X54191Y-39414D01*
X54191Y-39414D02*
X54261Y-39484D01*
X54261Y-39484D02*
X54292Y-39560D01*
X54292Y-39560D02*
X54920Y-39560D01*
X54920Y-39560D02*
X54920Y-37900D01*
X54920Y-37900D02*
X54946Y-37770D01*
X54946Y-37770D02*
X55020Y-37660D01*
X55020Y-37660D02*
X55951Y-36728D01*
X55951Y-36728D02*
X55951Y-36551D01*
X55951Y-36551D02*
X55972Y-36500D01*
X55972Y-36500D02*
X55822Y-36500D01*
X55822Y-36500D02*
X54922Y-37400D01*
X54922Y-37400D02*
X54812Y-37474D01*
X54812Y-37474D02*
X54682Y-37500D01*
X54682Y-37500D02*
X54021Y-37500D01*
X54021Y-37500D02*
X54032Y-37526D01*
X54032Y-37526D02*
X54043Y-37739D01*
X54043Y-37739D02*
X53972Y-37941D01*
X53972Y-37941D02*
X53878Y-37968D01*
X53878Y-37968D02*
X53571Y-37660D01*
X53571Y-37660D02*
X53500Y-37589D01*
X53500Y-37589D02*
X53589Y-37500D01*
X53589Y-37500D02*
X53589Y-37500D01*
X53589Y-37500D02*
X53500Y-37589D01*
X53500Y-37589D02*
X53429Y-37660D01*
X53429Y-37660D02*
X53269Y-37500D01*
X53269Y-37500D02*
X53269Y-37500D01*
X53269Y-37500D02*
X53429Y-37660D01*
X53429Y-37660D02*
X53201Y-37888D01*
X53201Y-37888D02*
X53201Y-37888D01*
X53201Y-37888D02*
X53429Y-37660D01*
X53429Y-37660D02*
X53500Y-37731D01*
X53500Y-37731D02*
X53808Y-38038D01*
X53808Y-38038D02*
X53781Y-38132D01*
X53781Y-38132D02*
X53707Y-38162D01*
X53707Y-38162D02*
X53781Y-38188D01*
X53781Y-38188D02*
X53808Y-38282D01*
X53808Y-38282D02*
X53500Y-38589D01*
X53500Y-38589D02*
X53192Y-38282D01*
X53192Y-38282D02*
X53219Y-38188D01*
X53219Y-38188D02*
X53292Y-38157D01*
X53292Y-38157D02*
X53219Y-38132D01*
X53219Y-38132D02*
X53192Y-38038D01*
X53192Y-38038D02*
X53175Y-38055D01*
X53175Y-38055D02*
X53174Y-38054D01*
X53174Y-38054D02*
X53128Y-38164D01*
X53128Y-38164D02*
X53066Y-38226D01*
X53066Y-38226D02*
X53066Y-38368D01*
X53066Y-38368D02*
X53122Y-38352D01*
X53122Y-38352D02*
X53429Y-38660D01*
X53429Y-38660D02*
X53122Y-38968D01*
X53122Y-38968D02*
X53066Y-38951D01*
X53066Y-38951D02*
X53066Y-39428D01*
X53066Y-39428D02*
X53075Y-39437D01*
X53075Y-39437D02*
X53075Y-39850D01*
X53075Y-39850D02*
X53075Y-39950D01*
X53075Y-39950D02*
X53175Y-39950D01*
X55701Y-39860D02*
X55701Y-39575D01*
X55701Y-39575D02*
X55739Y-39484D01*
X55739Y-39484D02*
X55785Y-39438D01*
X55785Y-39438D02*
X55785Y-39412D01*
X55785Y-39412D02*
X55811Y-39282D01*
X55811Y-39282D02*
X55885Y-39172D01*
X55885Y-39172D02*
X55989Y-39101D01*
X55989Y-39101D02*
X55951Y-39009D01*
X55951Y-39009D02*
X55951Y-38310D01*
X55951Y-38310D02*
X55989Y-38219D01*
X55989Y-38219D02*
X56059Y-38149D01*
X56059Y-38149D02*
X56151Y-38111D01*
X56151Y-38111D02*
X56175Y-38111D01*
X56175Y-38111D02*
X56035Y-37971D01*
X56035Y-37971D02*
X55951Y-37769D01*
X55951Y-37769D02*
X55951Y-37689D01*
X55951Y-37689D02*
X55600Y-38040D01*
X55600Y-38040D02*
X55600Y-39759D01*
X55600Y-39759D02*
X55701Y-39860D01*
X54541Y-36820D02*
X55441Y-35920D01*
X55441Y-35920D02*
X55552Y-35846D01*
X55552Y-35846D02*
X55682Y-35820D01*
X55682Y-35820D02*
X55972Y-35820D01*
X55972Y-35820D02*
X55951Y-35769D01*
X55951Y-35769D02*
X55951Y-35551D01*
X55951Y-35551D02*
X56035Y-35349D01*
X56035Y-35349D02*
X56139Y-35245D01*
X56139Y-35245D02*
X53860Y-35245D01*
X53860Y-35245D02*
X53965Y-35349D01*
X53965Y-35349D02*
X54049Y-35551D01*
X54049Y-35551D02*
X54049Y-35769D01*
X54049Y-35769D02*
X53965Y-35971D01*
X53965Y-35971D02*
X53811Y-36125D01*
X53811Y-36125D02*
X53715Y-36164D01*
X53715Y-36164D02*
X53781Y-36188D01*
X53781Y-36188D02*
X53808Y-36282D01*
X53808Y-36282D02*
X53500Y-36589D01*
X53500Y-36589D02*
X53334Y-36423D01*
X53334Y-36423D02*
X53334Y-36423D01*
X53334Y-36423D02*
X53500Y-36589D01*
X53500Y-36589D02*
X53429Y-36660D01*
X53429Y-36660D02*
X53331Y-36561D01*
X53331Y-36561D02*
X53331Y-36562D01*
X53331Y-36562D02*
X53429Y-36660D01*
X53429Y-36660D02*
X53269Y-36820D01*
X53269Y-36820D02*
X53269Y-36820D01*
X53269Y-36820D02*
X53429Y-36660D01*
X53429Y-36660D02*
X53500Y-36731D01*
X53500Y-36731D02*
X53589Y-36820D01*
X53589Y-36820D02*
X53589Y-36820D01*
X53589Y-36820D02*
X53500Y-36731D01*
X53500Y-36731D02*
X53571Y-36660D01*
X53571Y-36660D02*
X53878Y-36352D01*
X53878Y-36352D02*
X53972Y-36379D01*
X53972Y-36379D02*
X54032Y-36526D01*
X54032Y-36526D02*
X54043Y-36739D01*
X54043Y-36739D02*
X54014Y-36820D01*
X54014Y-36820D02*
X54541Y-36820D01*
M02*
