G04 (created by PCBNEW-RS274X (2010-03-14)-final) date Sun 12 Jun 2011 03:53:41 PM PDT*
G01*
G70*
G90*
%MOIN*%
G04 Gerber Fmt 3.4, Leading zero omitted, Abs format*
%FSLAX34Y34*%
G04 APERTURE LIST*
%ADD10C,0.006000*%
%ADD11C,0.009000*%
%ADD12C,0.120000*%
%ADD13R,0.065000X0.065000*%
%ADD14C,0.065000*%
%ADD15R,0.040000X0.020000*%
%ADD16C,0.107000*%
%ADD17C,0.056000*%
%ADD18R,0.056000X0.056000*%
%ADD19C,0.200000*%
%ADD20C,0.181100*%
%ADD21C,0.080000*%
%ADD22C,0.160000*%
%ADD23R,0.100000X0.050000*%
%ADD24R,0.050000X0.100000*%
%ADD25C,0.046000*%
%ADD26C,0.036000*%
%ADD27C,0.024000*%
%ADD28C,0.010000*%
G04 APERTURE END LIST*
G54D10*
G54D11*
X52250Y-29000D02*
X52250Y-54000D01*
X64750Y-29000D02*
X52250Y-29000D01*
X64750Y-54000D02*
X64750Y-29000D01*
X52250Y-54000D02*
X64750Y-54000D01*
G54D12*
X59500Y-30500D03*
X63500Y-30500D03*
G54D13*
X61500Y-32500D03*
G54D14*
X60500Y-32500D03*
G54D12*
X59500Y-34500D03*
G54D15*
X57370Y-41750D03*
X57370Y-41250D03*
X57370Y-40750D03*
X57370Y-40250D03*
X59630Y-40250D03*
X59630Y-40750D03*
X59630Y-41250D03*
X59630Y-41750D03*
G54D16*
X55980Y-52840D03*
X61020Y-52840D03*
G54D17*
X56730Y-50920D03*
X60270Y-50920D03*
X57435Y-50920D03*
G54D18*
X59565Y-50920D03*
G54D16*
X58500Y-52570D03*
G54D19*
X54250Y-34500D03*
G54D20*
X54250Y-32138D03*
G54D21*
X61500Y-37800D03*
X61500Y-38800D03*
X55500Y-37800D03*
X55500Y-38800D03*
X61500Y-44800D03*
X55500Y-44800D03*
X55500Y-46800D03*
X61500Y-46800D03*
G54D22*
X63500Y-41500D03*
X53500Y-51500D03*
X63500Y-51500D03*
X53500Y-41500D03*
G54D23*
X55500Y-40400D03*
X55500Y-41600D03*
X61500Y-40400D03*
X61500Y-41600D03*
X60000Y-46350D03*
X60000Y-45150D03*
X63000Y-46350D03*
X63000Y-45150D03*
X57000Y-45150D03*
X57000Y-46350D03*
X54000Y-45150D03*
X54000Y-46350D03*
G54D22*
X63500Y-36500D03*
X57250Y-31500D03*
X53500Y-36500D03*
G54D23*
X56750Y-48400D03*
X56750Y-49600D03*
G54D24*
X57900Y-43500D03*
X59100Y-43500D03*
G54D25*
X57000Y-44250D03*
G54D26*
X56450Y-40250D02*
X57370Y-40250D01*
X56300Y-40400D02*
X56450Y-40250D01*
X55500Y-40400D02*
X56300Y-40400D01*
X57000Y-46350D02*
X56325Y-46350D01*
X55050Y-46350D02*
X55500Y-46800D01*
X54000Y-46350D02*
X55050Y-46350D01*
X56300Y-43409D02*
X56300Y-40400D01*
X56216Y-43493D02*
X56300Y-43409D01*
X56216Y-46350D02*
X56216Y-43493D01*
X56325Y-46350D02*
X56216Y-46350D01*
X55950Y-46350D02*
X55500Y-46800D01*
X56216Y-46350D02*
X55950Y-46350D01*
G54D27*
X57370Y-40750D02*
X57810Y-40750D01*
X57900Y-40840D02*
X57900Y-43500D01*
X57810Y-40750D02*
X57900Y-40840D01*
X57900Y-46760D02*
X56750Y-47910D01*
X57900Y-43500D02*
X57900Y-46760D01*
X56750Y-48400D02*
X56750Y-47910D01*
X56730Y-50110D02*
X56730Y-50920D01*
X56750Y-50090D02*
X56730Y-50110D01*
X56750Y-49600D02*
X56750Y-50090D01*
X60324Y-34241D02*
X61500Y-33065D01*
X60324Y-40496D02*
X60324Y-34241D01*
X60070Y-40750D02*
X60324Y-40496D01*
X59630Y-40750D02*
X60070Y-40750D01*
X61500Y-32500D02*
X61500Y-33065D01*
G54D26*
X56166Y-34054D02*
X54250Y-32138D01*
X56166Y-37134D02*
X56166Y-34054D01*
X55500Y-37800D02*
X56166Y-37134D01*
X59565Y-48735D02*
X59565Y-50920D01*
X61500Y-46800D02*
X59565Y-48735D01*
X59630Y-41250D02*
X60130Y-41250D01*
X61500Y-40400D02*
X61500Y-40950D01*
X60000Y-46350D02*
X60676Y-46350D01*
X60356Y-41250D02*
X60130Y-41250D01*
X60656Y-40950D02*
X61500Y-40950D01*
X60356Y-41250D02*
X60656Y-40950D01*
X61950Y-46350D02*
X61500Y-46800D01*
X63000Y-46350D02*
X61950Y-46350D01*
X60676Y-46350D02*
X60784Y-46350D01*
X60356Y-43065D02*
X60356Y-41250D01*
X60784Y-43493D02*
X60356Y-43065D01*
X60784Y-46350D02*
X60784Y-43493D01*
X61050Y-46350D02*
X61500Y-46800D01*
X60784Y-46350D02*
X61050Y-46350D01*
G54D28*
X52495Y-29245D02*
X64505Y-29245D01*
X52495Y-29325D02*
X64505Y-29325D01*
X52495Y-29405D02*
X64505Y-29405D01*
X52495Y-29485D02*
X64505Y-29485D01*
X52495Y-29565D02*
X64505Y-29565D01*
X52495Y-29645D02*
X64505Y-29645D01*
X52495Y-29725D02*
X59151Y-29725D01*
X59850Y-29725D02*
X63151Y-29725D01*
X63850Y-29725D02*
X64505Y-29725D01*
X52495Y-29805D02*
X58994Y-29805D01*
X60007Y-29805D02*
X62994Y-29805D01*
X64007Y-29805D02*
X64505Y-29805D01*
X52495Y-29885D02*
X58914Y-29885D01*
X60087Y-29885D02*
X62914Y-29885D01*
X64087Y-29885D02*
X64505Y-29885D01*
X52495Y-29965D02*
X58834Y-29965D01*
X60167Y-29965D02*
X62834Y-29965D01*
X64167Y-29965D02*
X64505Y-29965D01*
X52495Y-30045D02*
X58769Y-30045D01*
X60232Y-30045D02*
X62769Y-30045D01*
X64232Y-30045D02*
X64505Y-30045D01*
X52495Y-30125D02*
X58736Y-30125D01*
X60265Y-30125D02*
X62736Y-30125D01*
X64265Y-30125D02*
X64505Y-30125D01*
X52495Y-30205D02*
X58703Y-30205D01*
X60298Y-30205D02*
X62703Y-30205D01*
X64298Y-30205D02*
X64505Y-30205D01*
X52495Y-30285D02*
X58669Y-30285D01*
X60331Y-30285D02*
X62669Y-30285D01*
X64331Y-30285D02*
X64505Y-30285D01*
X52495Y-30365D02*
X58650Y-30365D01*
X60350Y-30365D02*
X62650Y-30365D01*
X64350Y-30365D02*
X64505Y-30365D01*
X52495Y-30445D02*
X58650Y-30445D01*
X60350Y-30445D02*
X62650Y-30445D01*
X64350Y-30445D02*
X64505Y-30445D01*
X52495Y-30525D02*
X56911Y-30525D01*
X57583Y-30525D02*
X58650Y-30525D01*
X60350Y-30525D02*
X62650Y-30525D01*
X64350Y-30525D02*
X64505Y-30525D01*
X52495Y-30605D02*
X56718Y-30605D01*
X57782Y-30605D02*
X58650Y-30605D01*
X60350Y-30605D02*
X62650Y-30605D01*
X64350Y-30605D02*
X64505Y-30605D01*
X52495Y-30685D02*
X56637Y-30685D01*
X57864Y-30685D02*
X58657Y-30685D01*
X60343Y-30685D02*
X62657Y-30685D01*
X64343Y-30685D02*
X64505Y-30685D01*
X52495Y-30765D02*
X56590Y-30765D01*
X57911Y-30765D02*
X58690Y-30765D01*
X60310Y-30765D02*
X62690Y-30765D01*
X64310Y-30765D02*
X64505Y-30765D01*
X52495Y-30845D02*
X56506Y-30845D01*
X56524Y-30845D02*
X56666Y-30845D01*
X57834Y-30845D02*
X57976Y-30845D01*
X57995Y-30845D02*
X58723Y-30845D01*
X60277Y-30845D02*
X62723Y-30845D01*
X64277Y-30845D02*
X64505Y-30845D01*
X52495Y-30925D02*
X56373Y-30925D01*
X56604Y-30925D02*
X56746Y-30925D01*
X57754Y-30925D02*
X57896Y-30925D01*
X58128Y-30925D02*
X58756Y-30925D01*
X60243Y-30925D02*
X62756Y-30925D01*
X64243Y-30925D02*
X64505Y-30925D01*
X52495Y-31005D02*
X53968Y-31005D01*
X54534Y-31005D02*
X56341Y-31005D01*
X56684Y-31005D02*
X56826Y-31005D01*
X57674Y-31005D02*
X57816Y-31005D01*
X58161Y-31005D02*
X58803Y-31005D01*
X60196Y-31005D02*
X62803Y-31005D01*
X64196Y-31005D02*
X64505Y-31005D01*
X52495Y-31085D02*
X53775Y-31085D01*
X54727Y-31085D02*
X56309Y-31085D01*
X56764Y-31085D02*
X56906Y-31085D01*
X57594Y-31085D02*
X57736Y-31085D01*
X58194Y-31085D02*
X58883Y-31085D01*
X60116Y-31085D02*
X62883Y-31085D01*
X64116Y-31085D02*
X64505Y-31085D01*
X52495Y-31165D02*
X53590Y-31165D01*
X54911Y-31165D02*
X56276Y-31165D01*
X56844Y-31165D02*
X56986Y-31165D01*
X57514Y-31165D02*
X57656Y-31165D01*
X58227Y-31165D02*
X58963Y-31165D01*
X60036Y-31165D02*
X62963Y-31165D01*
X64036Y-31165D02*
X64505Y-31165D01*
X52495Y-31245D02*
X53510Y-31245D01*
X54991Y-31245D02*
X56244Y-31245D01*
X56924Y-31245D02*
X57066Y-31245D01*
X57434Y-31245D02*
X57576Y-31245D01*
X58261Y-31245D02*
X59078Y-31245D01*
X59921Y-31245D02*
X63078Y-31245D01*
X63921Y-31245D02*
X64505Y-31245D01*
X52495Y-31325D02*
X53430Y-31325D01*
X55071Y-31325D02*
X56220Y-31325D01*
X57004Y-31325D02*
X57146Y-31325D01*
X57354Y-31325D02*
X57496Y-31325D01*
X58278Y-31325D02*
X59270Y-31325D01*
X59728Y-31325D02*
X63270Y-31325D01*
X63728Y-31325D02*
X64505Y-31325D01*
X52495Y-31405D02*
X53350Y-31405D01*
X55151Y-31405D02*
X56220Y-31405D01*
X57084Y-31405D02*
X57226Y-31405D01*
X57274Y-31405D02*
X57416Y-31405D01*
X58278Y-31405D02*
X64505Y-31405D01*
X52495Y-31485D02*
X53271Y-31485D01*
X55230Y-31485D02*
X56221Y-31485D01*
X57164Y-31485D02*
X57336Y-31485D01*
X58279Y-31485D02*
X64505Y-31485D01*
X52495Y-31565D02*
X53238Y-31565D01*
X55263Y-31565D02*
X56221Y-31565D01*
X57114Y-31565D02*
X57386Y-31565D01*
X58280Y-31565D02*
X64505Y-31565D01*
X52495Y-31645D02*
X53204Y-31645D01*
X55296Y-31645D02*
X56222Y-31645D01*
X57034Y-31645D02*
X57176Y-31645D01*
X57324Y-31645D02*
X57466Y-31645D01*
X58280Y-31645D02*
X64505Y-31645D01*
X52495Y-31725D02*
X53171Y-31725D01*
X55329Y-31725D02*
X56227Y-31725D01*
X56954Y-31725D02*
X57096Y-31725D01*
X57404Y-31725D02*
X57546Y-31725D01*
X58268Y-31725D02*
X64505Y-31725D01*
X52495Y-31805D02*
X53138Y-31805D01*
X55362Y-31805D02*
X56260Y-31805D01*
X56874Y-31805D02*
X57016Y-31805D01*
X57484Y-31805D02*
X57626Y-31805D01*
X58236Y-31805D02*
X64505Y-31805D01*
X52495Y-31885D02*
X53105Y-31885D01*
X55396Y-31885D02*
X56293Y-31885D01*
X56794Y-31885D02*
X56936Y-31885D01*
X57564Y-31885D02*
X57706Y-31885D01*
X58203Y-31885D02*
X64505Y-31885D01*
X52495Y-31965D02*
X53095Y-31965D01*
X55405Y-31965D02*
X56327Y-31965D01*
X56714Y-31965D02*
X56856Y-31965D01*
X57644Y-31965D02*
X57786Y-31965D01*
X58171Y-31965D02*
X60310Y-31965D01*
X60677Y-31965D02*
X61033Y-31965D01*
X61967Y-31965D02*
X64505Y-31965D01*
X52495Y-32045D02*
X53095Y-32045D01*
X55405Y-32045D02*
X56360Y-32045D01*
X56634Y-32045D02*
X56776Y-32045D01*
X57724Y-32045D02*
X57866Y-32045D01*
X58139Y-32045D02*
X60193Y-32045D01*
X60808Y-32045D02*
X60960Y-32045D01*
X62041Y-32045D02*
X64505Y-32045D01*
X52495Y-32125D02*
X53095Y-32125D01*
X55405Y-32125D02*
X56455Y-32125D01*
X56554Y-32125D02*
X56696Y-32125D01*
X57804Y-32125D02*
X57946Y-32125D01*
X58044Y-32125D02*
X60196Y-32125D01*
X60804Y-32125D02*
X60926Y-32125D01*
X62074Y-32125D02*
X64505Y-32125D01*
X52495Y-32205D02*
X53095Y-32205D01*
X55405Y-32205D02*
X56616Y-32205D01*
X57884Y-32205D02*
X60008Y-32205D01*
X60134Y-32205D02*
X60276Y-32205D01*
X60724Y-32205D02*
X60866Y-32205D01*
X62074Y-32205D02*
X64505Y-32205D01*
X52495Y-32285D02*
X53095Y-32285D01*
X55405Y-32285D02*
X56619Y-32285D01*
X57880Y-32285D02*
X59979Y-32285D01*
X60214Y-32285D02*
X60356Y-32285D01*
X60644Y-32285D02*
X60786Y-32285D01*
X62074Y-32285D02*
X64505Y-32285D01*
X52495Y-32365D02*
X53095Y-32365D01*
X55405Y-32365D02*
X56666Y-32365D01*
X57833Y-32365D02*
X59951Y-32365D01*
X60294Y-32365D02*
X60436Y-32365D01*
X60564Y-32365D02*
X60706Y-32365D01*
X62074Y-32365D02*
X64505Y-32365D01*
X52495Y-32445D02*
X53127Y-32445D01*
X55372Y-32445D02*
X56842Y-32445D01*
X57661Y-32445D02*
X59933Y-32445D01*
X60374Y-32445D02*
X60626Y-32445D01*
X62074Y-32445D02*
X64505Y-32445D01*
X52495Y-32525D02*
X53160Y-32525D01*
X55339Y-32525D02*
X57041Y-32525D01*
X57468Y-32525D02*
X59937Y-32525D01*
X60404Y-32525D02*
X60596Y-32525D01*
X62074Y-32525D02*
X64505Y-32525D01*
X52495Y-32605D02*
X53193Y-32605D01*
X55326Y-32605D02*
X59942Y-32605D01*
X60324Y-32605D02*
X60466Y-32605D01*
X60534Y-32605D02*
X60676Y-32605D01*
X62074Y-32605D02*
X64505Y-32605D01*
X52495Y-32685D02*
X53226Y-32685D01*
X55406Y-32685D02*
X59962Y-32685D01*
X60244Y-32685D02*
X60386Y-32685D01*
X60614Y-32685D02*
X60756Y-32685D01*
X62074Y-32685D02*
X64505Y-32685D01*
X52495Y-32765D02*
X53259Y-32765D01*
X55486Y-32765D02*
X59995Y-32765D01*
X60164Y-32765D02*
X60306Y-32765D01*
X60694Y-32765D02*
X60836Y-32765D01*
X62074Y-32765D02*
X64505Y-32765D01*
X52495Y-32845D02*
X53323Y-32845D01*
X55566Y-32845D02*
X60226Y-32845D01*
X60774Y-32845D02*
X60926Y-32845D01*
X62074Y-32845D02*
X64505Y-32845D01*
X52495Y-32925D02*
X53403Y-32925D01*
X55646Y-32925D02*
X60183Y-32925D01*
X60816Y-32925D02*
X60947Y-32925D01*
X62053Y-32925D02*
X64505Y-32925D01*
X52495Y-33005D02*
X53483Y-33005D01*
X55726Y-33005D02*
X60240Y-33005D01*
X60764Y-33005D02*
X61003Y-33005D01*
X61997Y-33005D02*
X64505Y-33005D01*
X52495Y-33085D02*
X53563Y-33085D01*
X55806Y-33085D02*
X60955Y-33085D01*
X61865Y-33085D02*
X64505Y-33085D01*
X52495Y-33165D02*
X53711Y-33165D01*
X55886Y-33165D02*
X60875Y-33165D01*
X61850Y-33165D02*
X64505Y-33165D01*
X52495Y-33245D02*
X53905Y-33245D01*
X55966Y-33245D02*
X60795Y-33245D01*
X61816Y-33245D02*
X64505Y-33245D01*
X52495Y-33325D02*
X53820Y-33325D01*
X56046Y-33325D02*
X60715Y-33325D01*
X61763Y-33325D02*
X64505Y-33325D01*
X52495Y-33405D02*
X53628Y-33405D01*
X56126Y-33405D02*
X60635Y-33405D01*
X61684Y-33405D02*
X64505Y-33405D01*
X52495Y-33485D02*
X53498Y-33485D01*
X56206Y-33485D02*
X60555Y-33485D01*
X61604Y-33485D02*
X64505Y-33485D01*
X52495Y-33565D02*
X53418Y-33565D01*
X56286Y-33565D02*
X60475Y-33565D01*
X61524Y-33565D02*
X64505Y-33565D01*
X52495Y-33645D02*
X53338Y-33645D01*
X56366Y-33645D02*
X60395Y-33645D01*
X61444Y-33645D02*
X64505Y-33645D01*
X52495Y-33725D02*
X53258Y-33725D01*
X56446Y-33725D02*
X59150Y-33725D01*
X59850Y-33725D02*
X60315Y-33725D01*
X61364Y-33725D02*
X64505Y-33725D01*
X52495Y-33805D02*
X53186Y-33805D01*
X56507Y-33805D02*
X58994Y-33805D01*
X60007Y-33805D02*
X60235Y-33805D01*
X61284Y-33805D02*
X64505Y-33805D01*
X52495Y-33885D02*
X53153Y-33885D01*
X55348Y-33885D02*
X55388Y-33885D01*
X56561Y-33885D02*
X58914Y-33885D01*
X60087Y-33885D02*
X60155Y-33885D01*
X61204Y-33885D02*
X64505Y-33885D01*
X52495Y-33965D02*
X53119Y-33965D01*
X55381Y-33965D02*
X55468Y-33965D01*
X56579Y-33965D02*
X58834Y-33965D01*
X61124Y-33965D02*
X64505Y-33965D01*
X52495Y-34045D02*
X53086Y-34045D01*
X55414Y-34045D02*
X55548Y-34045D01*
X56595Y-34045D02*
X58769Y-34045D01*
X61044Y-34045D02*
X64505Y-34045D01*
X52495Y-34125D02*
X53053Y-34125D01*
X55447Y-34125D02*
X55628Y-34125D01*
X56596Y-34125D02*
X58736Y-34125D01*
X60964Y-34125D02*
X64505Y-34125D01*
X52495Y-34205D02*
X53020Y-34205D01*
X55481Y-34205D02*
X55708Y-34205D01*
X56596Y-34205D02*
X58703Y-34205D01*
X60884Y-34205D02*
X64505Y-34205D01*
X52495Y-34285D02*
X53001Y-34285D01*
X55499Y-34285D02*
X55736Y-34285D01*
X56596Y-34285D02*
X58669Y-34285D01*
X60804Y-34285D02*
X64505Y-34285D01*
X52495Y-34365D02*
X53001Y-34365D01*
X55499Y-34365D02*
X55736Y-34365D01*
X56596Y-34365D02*
X58650Y-34365D01*
X60724Y-34365D02*
X64505Y-34365D01*
X52495Y-34445D02*
X53001Y-34445D01*
X55499Y-34445D02*
X55736Y-34445D01*
X56596Y-34445D02*
X58650Y-34445D01*
X60694Y-34445D02*
X64505Y-34445D01*
X52495Y-34525D02*
X53001Y-34525D01*
X55499Y-34525D02*
X55736Y-34525D01*
X56596Y-34525D02*
X58650Y-34525D01*
X60694Y-34525D02*
X64505Y-34525D01*
X52495Y-34605D02*
X53001Y-34605D01*
X55499Y-34605D02*
X55736Y-34605D01*
X56596Y-34605D02*
X58650Y-34605D01*
X60694Y-34605D02*
X64505Y-34605D01*
X52495Y-34685D02*
X53001Y-34685D01*
X55499Y-34685D02*
X55736Y-34685D01*
X56596Y-34685D02*
X58657Y-34685D01*
X60694Y-34685D02*
X64505Y-34685D01*
X52495Y-34765D02*
X53007Y-34765D01*
X55492Y-34765D02*
X55736Y-34765D01*
X56596Y-34765D02*
X58690Y-34765D01*
X60694Y-34765D02*
X64505Y-34765D01*
X52495Y-34845D02*
X53040Y-34845D01*
X55459Y-34845D02*
X55736Y-34845D01*
X56596Y-34845D02*
X58723Y-34845D01*
X60694Y-34845D02*
X64505Y-34845D01*
X52495Y-34925D02*
X53073Y-34925D01*
X55426Y-34925D02*
X55736Y-34925D01*
X56596Y-34925D02*
X58756Y-34925D01*
X60694Y-34925D02*
X64505Y-34925D01*
X52495Y-35005D02*
X53106Y-35005D01*
X55393Y-35005D02*
X55736Y-35005D01*
X56596Y-35005D02*
X58803Y-35005D01*
X60694Y-35005D02*
X64505Y-35005D01*
X52495Y-35085D02*
X53139Y-35085D01*
X55360Y-35085D02*
X55736Y-35085D01*
X56596Y-35085D02*
X58883Y-35085D01*
X60694Y-35085D02*
X64505Y-35085D01*
X52495Y-35165D02*
X53172Y-35165D01*
X55327Y-35165D02*
X55736Y-35165D01*
X56596Y-35165D02*
X58963Y-35165D01*
X60694Y-35165D02*
X64505Y-35165D01*
X52495Y-35245D02*
X53228Y-35245D01*
X55272Y-35245D02*
X55736Y-35245D01*
X56596Y-35245D02*
X59078Y-35245D01*
X59920Y-35245D02*
X59954Y-35245D01*
X60694Y-35245D02*
X64505Y-35245D01*
X52495Y-35325D02*
X53308Y-35325D01*
X55192Y-35325D02*
X55736Y-35325D01*
X56596Y-35325D02*
X59270Y-35325D01*
X59728Y-35325D02*
X59954Y-35325D01*
X60694Y-35325D02*
X64505Y-35325D01*
X52495Y-35405D02*
X53388Y-35405D01*
X55112Y-35405D02*
X55736Y-35405D01*
X56596Y-35405D02*
X59954Y-35405D01*
X60694Y-35405D02*
X64505Y-35405D01*
X52495Y-35485D02*
X53258Y-35485D01*
X55032Y-35485D02*
X55736Y-35485D01*
X56596Y-35485D02*
X59954Y-35485D01*
X60694Y-35485D02*
X63258Y-35485D01*
X63734Y-35485D02*
X64505Y-35485D01*
X52495Y-35565D02*
X53064Y-35565D01*
X54944Y-35565D02*
X55736Y-35565D01*
X56596Y-35565D02*
X59954Y-35565D01*
X60694Y-35565D02*
X63064Y-35565D01*
X63932Y-35565D02*
X64505Y-35565D01*
X52495Y-35645D02*
X52911Y-35645D01*
X54751Y-35645D02*
X55736Y-35645D01*
X56596Y-35645D02*
X59954Y-35645D01*
X60694Y-35645D02*
X62911Y-35645D01*
X64090Y-35645D02*
X64505Y-35645D01*
X52495Y-35725D02*
X52864Y-35725D01*
X54557Y-35725D02*
X55736Y-35725D01*
X56596Y-35725D02*
X59954Y-35725D01*
X60694Y-35725D02*
X62864Y-35725D01*
X64137Y-35725D02*
X64505Y-35725D01*
X52495Y-35805D02*
X52876Y-35805D01*
X54246Y-35805D02*
X55736Y-35805D01*
X56596Y-35805D02*
X59954Y-35805D01*
X60694Y-35805D02*
X62876Y-35805D01*
X64124Y-35805D02*
X64505Y-35805D01*
X52495Y-35885D02*
X52689Y-35885D01*
X52814Y-35885D02*
X52956Y-35885D01*
X54312Y-35885D02*
X55736Y-35885D01*
X56596Y-35885D02*
X59954Y-35885D01*
X60694Y-35885D02*
X62689Y-35885D01*
X62814Y-35885D02*
X62956Y-35885D01*
X64044Y-35885D02*
X64186Y-35885D01*
X64312Y-35885D02*
X64505Y-35885D01*
X52495Y-35965D02*
X52607Y-35965D01*
X52894Y-35965D02*
X53036Y-35965D01*
X54394Y-35965D02*
X55736Y-35965D01*
X56596Y-35965D02*
X59954Y-35965D01*
X60694Y-35965D02*
X62607Y-35965D01*
X62894Y-35965D02*
X63036Y-35965D01*
X63964Y-35965D02*
X64106Y-35965D01*
X64395Y-35965D02*
X64505Y-35965D01*
X52495Y-36045D02*
X52575Y-36045D01*
X52974Y-36045D02*
X53116Y-36045D01*
X54428Y-36045D02*
X55736Y-36045D01*
X56596Y-36045D02*
X59954Y-36045D01*
X60694Y-36045D02*
X62575Y-36045D01*
X62974Y-36045D02*
X63116Y-36045D01*
X63884Y-36045D02*
X64026Y-36045D01*
X64428Y-36045D02*
X64505Y-36045D01*
X52495Y-36125D02*
X52542Y-36125D01*
X53054Y-36125D02*
X53196Y-36125D01*
X54461Y-36125D02*
X55736Y-36125D01*
X56596Y-36125D02*
X59954Y-36125D01*
X60694Y-36125D02*
X62543Y-36125D01*
X63054Y-36125D02*
X63196Y-36125D01*
X63804Y-36125D02*
X63946Y-36125D01*
X64461Y-36125D02*
X64505Y-36125D01*
X52495Y-36205D02*
X52510Y-36205D01*
X53134Y-36205D02*
X53276Y-36205D01*
X54494Y-36205D02*
X55736Y-36205D01*
X56596Y-36205D02*
X59954Y-36205D01*
X60694Y-36205D02*
X62510Y-36205D01*
X63134Y-36205D02*
X63276Y-36205D01*
X63724Y-36205D02*
X63866Y-36205D01*
X64494Y-36205D02*
X64505Y-36205D01*
X53214Y-36285D02*
X53356Y-36285D01*
X54527Y-36285D02*
X55736Y-36285D01*
X56596Y-36285D02*
X59954Y-36285D01*
X60694Y-36285D02*
X62478Y-36285D01*
X63214Y-36285D02*
X63356Y-36285D01*
X63644Y-36285D02*
X63786Y-36285D01*
X53294Y-36365D02*
X53436Y-36365D01*
X54528Y-36365D02*
X55736Y-36365D01*
X56596Y-36365D02*
X59954Y-36365D01*
X60694Y-36365D02*
X62470Y-36365D01*
X63294Y-36365D02*
X63436Y-36365D01*
X63564Y-36365D02*
X63706Y-36365D01*
X53374Y-36445D02*
X53516Y-36445D01*
X54529Y-36445D02*
X55736Y-36445D01*
X56596Y-36445D02*
X59954Y-36445D01*
X60694Y-36445D02*
X62471Y-36445D01*
X63374Y-36445D02*
X63626Y-36445D01*
X53404Y-36525D02*
X53596Y-36525D01*
X54529Y-36525D02*
X55736Y-36525D01*
X56596Y-36525D02*
X59954Y-36525D01*
X60694Y-36525D02*
X62471Y-36525D01*
X63404Y-36525D02*
X63596Y-36525D01*
X53324Y-36605D02*
X53466Y-36605D01*
X53534Y-36605D02*
X53676Y-36605D01*
X54530Y-36605D02*
X55736Y-36605D01*
X56596Y-36605D02*
X59954Y-36605D01*
X60694Y-36605D02*
X62472Y-36605D01*
X63324Y-36605D02*
X63466Y-36605D01*
X63534Y-36605D02*
X63676Y-36605D01*
X53244Y-36685D02*
X53386Y-36685D01*
X53614Y-36685D02*
X53756Y-36685D01*
X54530Y-36685D02*
X55736Y-36685D01*
X56596Y-36685D02*
X59954Y-36685D01*
X60694Y-36685D02*
X62472Y-36685D01*
X63244Y-36685D02*
X63386Y-36685D01*
X63614Y-36685D02*
X63756Y-36685D01*
X53164Y-36765D02*
X53306Y-36765D01*
X53694Y-36765D02*
X53836Y-36765D01*
X54502Y-36765D02*
X55736Y-36765D01*
X56596Y-36765D02*
X59954Y-36765D01*
X60694Y-36765D02*
X62494Y-36765D01*
X63164Y-36765D02*
X63306Y-36765D01*
X63694Y-36765D02*
X63836Y-36765D01*
X64502Y-36765D02*
X64505Y-36765D01*
X52495Y-36845D02*
X52527Y-36845D01*
X53084Y-36845D02*
X53226Y-36845D01*
X53774Y-36845D02*
X53916Y-36845D01*
X54470Y-36845D02*
X55736Y-36845D01*
X56596Y-36845D02*
X59954Y-36845D01*
X60694Y-36845D02*
X62527Y-36845D01*
X63084Y-36845D02*
X63226Y-36845D01*
X63774Y-36845D02*
X63916Y-36845D01*
X64469Y-36845D02*
X64505Y-36845D01*
X52495Y-36925D02*
X52560Y-36925D01*
X53004Y-36925D02*
X53146Y-36925D01*
X53854Y-36925D02*
X53996Y-36925D01*
X54437Y-36925D02*
X55736Y-36925D01*
X56596Y-36925D02*
X59954Y-36925D01*
X60694Y-36925D02*
X62560Y-36925D01*
X63004Y-36925D02*
X63146Y-36925D01*
X63854Y-36925D02*
X63996Y-36925D01*
X64437Y-36925D02*
X64505Y-36925D01*
X52495Y-37005D02*
X52593Y-37005D01*
X52924Y-37005D02*
X53066Y-37005D01*
X53934Y-37005D02*
X54076Y-37005D01*
X54405Y-37005D02*
X55687Y-37005D01*
X56596Y-37005D02*
X59954Y-37005D01*
X60694Y-37005D02*
X62593Y-37005D01*
X62924Y-37005D02*
X63066Y-37005D01*
X63934Y-37005D02*
X64076Y-37005D01*
X64405Y-37005D02*
X64505Y-37005D01*
X52495Y-37085D02*
X52638Y-37085D01*
X52844Y-37085D02*
X52986Y-37085D01*
X54014Y-37085D02*
X54156Y-37085D01*
X54361Y-37085D02*
X55607Y-37085D01*
X56596Y-37085D02*
X59954Y-37085D01*
X60694Y-37085D02*
X62638Y-37085D01*
X62844Y-37085D02*
X62986Y-37085D01*
X64014Y-37085D02*
X64156Y-37085D01*
X64361Y-37085D02*
X64505Y-37085D01*
X52495Y-37165D02*
X52906Y-37165D01*
X54094Y-37165D02*
X55338Y-37165D01*
X56589Y-37165D02*
X59954Y-37165D01*
X60694Y-37165D02*
X61338Y-37165D01*
X61663Y-37165D02*
X62906Y-37165D01*
X64094Y-37165D02*
X64505Y-37165D01*
X52495Y-37245D02*
X52845Y-37245D01*
X54154Y-37245D02*
X55145Y-37245D01*
X56573Y-37245D02*
X59954Y-37245D01*
X60694Y-37245D02*
X61145Y-37245D01*
X61856Y-37245D02*
X62845Y-37245D01*
X64154Y-37245D02*
X64505Y-37245D01*
X52495Y-37325D02*
X52892Y-37325D01*
X54107Y-37325D02*
X55057Y-37325D01*
X56544Y-37325D02*
X59954Y-37325D01*
X60694Y-37325D02*
X61057Y-37325D01*
X61943Y-37325D02*
X62892Y-37325D01*
X64107Y-37325D02*
X64505Y-37325D01*
X52495Y-37405D02*
X52993Y-37405D01*
X54008Y-37405D02*
X54977Y-37405D01*
X56491Y-37405D02*
X59954Y-37405D01*
X60694Y-37405D02*
X60977Y-37405D01*
X62023Y-37405D02*
X62993Y-37405D01*
X64008Y-37405D02*
X64505Y-37405D01*
X52495Y-37485D02*
X53192Y-37485D01*
X53815Y-37485D02*
X54929Y-37485D01*
X56423Y-37485D02*
X59954Y-37485D01*
X60694Y-37485D02*
X60929Y-37485D01*
X62072Y-37485D02*
X63192Y-37485D01*
X63815Y-37485D02*
X64505Y-37485D01*
X52495Y-37565D02*
X54895Y-37565D01*
X56343Y-37565D02*
X59954Y-37565D01*
X60694Y-37565D02*
X60895Y-37565D01*
X62106Y-37565D02*
X64505Y-37565D01*
X52495Y-37645D02*
X54862Y-37645D01*
X56263Y-37645D02*
X59954Y-37645D01*
X60694Y-37645D02*
X60862Y-37645D01*
X62139Y-37645D02*
X64505Y-37645D01*
X52495Y-37725D02*
X54851Y-37725D01*
X56183Y-37725D02*
X59954Y-37725D01*
X60694Y-37725D02*
X60851Y-37725D01*
X62149Y-37725D02*
X64505Y-37725D01*
X52495Y-37805D02*
X54851Y-37805D01*
X56149Y-37805D02*
X59954Y-37805D01*
X60694Y-37805D02*
X60851Y-37805D01*
X62149Y-37805D02*
X64505Y-37805D01*
X52495Y-37885D02*
X54851Y-37885D01*
X56149Y-37885D02*
X59954Y-37885D01*
X60694Y-37885D02*
X60851Y-37885D01*
X62149Y-37885D02*
X64505Y-37885D01*
X52495Y-37965D02*
X54865Y-37965D01*
X56134Y-37965D02*
X59954Y-37965D01*
X60694Y-37965D02*
X60865Y-37965D01*
X62134Y-37965D02*
X64505Y-37965D01*
X52495Y-38045D02*
X54899Y-38045D01*
X56100Y-38045D02*
X59954Y-38045D01*
X60694Y-38045D02*
X60899Y-38045D01*
X62100Y-38045D02*
X64505Y-38045D01*
X52495Y-38125D02*
X54932Y-38125D01*
X56067Y-38125D02*
X59954Y-38125D01*
X60694Y-38125D02*
X60932Y-38125D01*
X62067Y-38125D02*
X64505Y-38125D01*
X52495Y-38205D02*
X54987Y-38205D01*
X56013Y-38205D02*
X59954Y-38205D01*
X60694Y-38205D02*
X60987Y-38205D01*
X62012Y-38205D02*
X64505Y-38205D01*
X52495Y-38285D02*
X55067Y-38285D01*
X55933Y-38285D02*
X59954Y-38285D01*
X60694Y-38285D02*
X61067Y-38285D01*
X61931Y-38285D02*
X64505Y-38285D01*
X52495Y-38365D02*
X55017Y-38365D01*
X55983Y-38365D02*
X59954Y-38365D01*
X60694Y-38365D02*
X61017Y-38365D01*
X61983Y-38365D02*
X64505Y-38365D01*
X52495Y-38445D02*
X54945Y-38445D01*
X56056Y-38445D02*
X59954Y-38445D01*
X60694Y-38445D02*
X60945Y-38445D01*
X62056Y-38445D02*
X64505Y-38445D01*
X52495Y-38525D02*
X54912Y-38525D01*
X56089Y-38525D02*
X59954Y-38525D01*
X60694Y-38525D02*
X60912Y-38525D01*
X62089Y-38525D02*
X64505Y-38525D01*
X52495Y-38605D02*
X54879Y-38605D01*
X56122Y-38605D02*
X59954Y-38605D01*
X60694Y-38605D02*
X60879Y-38605D01*
X62122Y-38605D02*
X64505Y-38605D01*
X52495Y-38685D02*
X54851Y-38685D01*
X56149Y-38685D02*
X59954Y-38685D01*
X60694Y-38685D02*
X60851Y-38685D01*
X62149Y-38685D02*
X64505Y-38685D01*
X52495Y-38765D02*
X54851Y-38765D01*
X56149Y-38765D02*
X59954Y-38765D01*
X60694Y-38765D02*
X60851Y-38765D01*
X62149Y-38765D02*
X64505Y-38765D01*
X52495Y-38845D02*
X54851Y-38845D01*
X56149Y-38845D02*
X59954Y-38845D01*
X60694Y-38845D02*
X60851Y-38845D01*
X62149Y-38845D02*
X64505Y-38845D01*
X52495Y-38925D02*
X54851Y-38925D01*
X56149Y-38925D02*
X59954Y-38925D01*
X60694Y-38925D02*
X60851Y-38925D01*
X62149Y-38925D02*
X64505Y-38925D01*
X52495Y-39005D02*
X54882Y-39005D01*
X56117Y-39005D02*
X59954Y-39005D01*
X60694Y-39005D02*
X60882Y-39005D01*
X62117Y-39005D02*
X64505Y-39005D01*
X52495Y-39085D02*
X54915Y-39085D01*
X56084Y-39085D02*
X59954Y-39085D01*
X60694Y-39085D02*
X60915Y-39085D01*
X62084Y-39085D02*
X64505Y-39085D01*
X52495Y-39165D02*
X54948Y-39165D01*
X56051Y-39165D02*
X59954Y-39165D01*
X60694Y-39165D02*
X60948Y-39165D01*
X62051Y-39165D02*
X64505Y-39165D01*
X52495Y-39245D02*
X55027Y-39245D01*
X55973Y-39245D02*
X59954Y-39245D01*
X60694Y-39245D02*
X61027Y-39245D01*
X61973Y-39245D02*
X64505Y-39245D01*
X52495Y-39325D02*
X55107Y-39325D01*
X55893Y-39325D02*
X59954Y-39325D01*
X60694Y-39325D02*
X61107Y-39325D01*
X61893Y-39325D02*
X64505Y-39325D01*
X52495Y-39405D02*
X55264Y-39405D01*
X55735Y-39405D02*
X59954Y-39405D01*
X60694Y-39405D02*
X61264Y-39405D01*
X61735Y-39405D02*
X64505Y-39405D01*
X52495Y-39485D02*
X59954Y-39485D01*
X60694Y-39485D02*
X64505Y-39485D01*
X52495Y-39565D02*
X59954Y-39565D01*
X60694Y-39565D02*
X64505Y-39565D01*
X52495Y-39645D02*
X59954Y-39645D01*
X60694Y-39645D02*
X64505Y-39645D01*
X52495Y-39725D02*
X59954Y-39725D01*
X60694Y-39725D02*
X64505Y-39725D01*
X52495Y-39805D02*
X59954Y-39805D01*
X60694Y-39805D02*
X64505Y-39805D01*
X52495Y-39885D02*
X56237Y-39885D01*
X57583Y-39885D02*
X59954Y-39885D01*
X60694Y-39885D02*
X64505Y-39885D01*
X52495Y-39965D02*
X54833Y-39965D01*
X57737Y-39965D02*
X59263Y-39965D01*
X60694Y-39965D02*
X60833Y-39965D01*
X62167Y-39965D02*
X64505Y-39965D01*
X52495Y-40045D02*
X54774Y-40045D01*
X57796Y-40045D02*
X59204Y-40045D01*
X60694Y-40045D02*
X60774Y-40045D01*
X62226Y-40045D02*
X64505Y-40045D01*
X52495Y-40125D02*
X54751Y-40125D01*
X57819Y-40125D02*
X59181Y-40125D01*
X60694Y-40125D02*
X60751Y-40125D01*
X62249Y-40125D02*
X64505Y-40125D01*
X52495Y-40205D02*
X54751Y-40205D01*
X57819Y-40205D02*
X59181Y-40205D01*
X60694Y-40205D02*
X60751Y-40205D01*
X62249Y-40205D02*
X64505Y-40205D01*
X52495Y-40285D02*
X54751Y-40285D01*
X57819Y-40285D02*
X59181Y-40285D01*
X60694Y-40285D02*
X60751Y-40285D01*
X62249Y-40285D02*
X64505Y-40285D01*
X52495Y-40365D02*
X54751Y-40365D01*
X57819Y-40365D02*
X59181Y-40365D01*
X60694Y-40365D02*
X60751Y-40365D01*
X62249Y-40365D02*
X64505Y-40365D01*
X52495Y-40445D02*
X54751Y-40445D01*
X58009Y-40445D02*
X59200Y-40445D01*
X60694Y-40445D02*
X60751Y-40445D01*
X62249Y-40445D02*
X64505Y-40445D01*
X52495Y-40525D02*
X53161Y-40525D01*
X53833Y-40525D02*
X54751Y-40525D01*
X58109Y-40525D02*
X59213Y-40525D01*
X62249Y-40525D02*
X63161Y-40525D01*
X63833Y-40525D02*
X64505Y-40525D01*
X52495Y-40605D02*
X52968Y-40605D01*
X54032Y-40605D02*
X54751Y-40605D01*
X58180Y-40605D02*
X59181Y-40605D01*
X62249Y-40605D02*
X62968Y-40605D01*
X64032Y-40605D02*
X64505Y-40605D01*
X52495Y-40685D02*
X52887Y-40685D01*
X54114Y-40685D02*
X54751Y-40685D01*
X58234Y-40685D02*
X59181Y-40685D01*
X62249Y-40685D02*
X62887Y-40685D01*
X64114Y-40685D02*
X64505Y-40685D01*
X52495Y-40765D02*
X52840Y-40765D01*
X54161Y-40765D02*
X54778Y-40765D01*
X58256Y-40765D02*
X59181Y-40765D01*
X62221Y-40765D02*
X62840Y-40765D01*
X64161Y-40765D02*
X64505Y-40765D01*
X52495Y-40845D02*
X52756Y-40845D01*
X52774Y-40845D02*
X52916Y-40845D01*
X54084Y-40845D02*
X54226Y-40845D01*
X54245Y-40845D02*
X54843Y-40845D01*
X58270Y-40845D02*
X59181Y-40845D01*
X62157Y-40845D02*
X62756Y-40845D01*
X62774Y-40845D02*
X62916Y-40845D01*
X64084Y-40845D02*
X64226Y-40845D01*
X64245Y-40845D02*
X64505Y-40845D01*
X52495Y-40925D02*
X52623Y-40925D01*
X52854Y-40925D02*
X52996Y-40925D01*
X54004Y-40925D02*
X54146Y-40925D01*
X54378Y-40925D02*
X55870Y-40925D01*
X58270Y-40925D02*
X59191Y-40925D01*
X61930Y-40925D02*
X62623Y-40925D01*
X62854Y-40925D02*
X62996Y-40925D01*
X64004Y-40925D02*
X64146Y-40925D01*
X64378Y-40925D02*
X64505Y-40925D01*
X52495Y-41005D02*
X52591Y-41005D01*
X52934Y-41005D02*
X53076Y-41005D01*
X53924Y-41005D02*
X54066Y-41005D01*
X54411Y-41005D02*
X55870Y-41005D01*
X58270Y-41005D02*
X59223Y-41005D01*
X61918Y-41005D02*
X62591Y-41005D01*
X62934Y-41005D02*
X63076Y-41005D01*
X63924Y-41005D02*
X64066Y-41005D01*
X64411Y-41005D02*
X64505Y-41005D01*
X52495Y-41085D02*
X52558Y-41085D01*
X53014Y-41085D02*
X53156Y-41085D01*
X53844Y-41085D02*
X53986Y-41085D01*
X54444Y-41085D02*
X55870Y-41085D01*
X58270Y-41085D02*
X59188Y-41085D01*
X61902Y-41085D02*
X62559Y-41085D01*
X63014Y-41085D02*
X63156Y-41085D01*
X63844Y-41085D02*
X63986Y-41085D01*
X64444Y-41085D02*
X64505Y-41085D01*
X52495Y-41165D02*
X52526Y-41165D01*
X53094Y-41165D02*
X53236Y-41165D01*
X53764Y-41165D02*
X53906Y-41165D01*
X54477Y-41165D02*
X54833Y-41165D01*
X55450Y-41165D02*
X55550Y-41165D01*
X58270Y-41165D02*
X59181Y-41165D01*
X62167Y-41165D02*
X62526Y-41165D01*
X63094Y-41165D02*
X63236Y-41165D01*
X63764Y-41165D02*
X63906Y-41165D01*
X64478Y-41165D02*
X64505Y-41165D01*
X53174Y-41245D02*
X53316Y-41245D01*
X53684Y-41245D02*
X53826Y-41245D01*
X54511Y-41245D02*
X54775Y-41245D01*
X55450Y-41245D02*
X55550Y-41245D01*
X58270Y-41245D02*
X59181Y-41245D01*
X62226Y-41245D02*
X62494Y-41245D01*
X63174Y-41245D02*
X63316Y-41245D01*
X63684Y-41245D02*
X63826Y-41245D01*
X53254Y-41325D02*
X53396Y-41325D01*
X53604Y-41325D02*
X53746Y-41325D01*
X54528Y-41325D02*
X54751Y-41325D01*
X55450Y-41325D02*
X55550Y-41325D01*
X58270Y-41325D02*
X59181Y-41325D01*
X62250Y-41325D02*
X62470Y-41325D01*
X63254Y-41325D02*
X63396Y-41325D01*
X63604Y-41325D02*
X63746Y-41325D01*
X53334Y-41405D02*
X53476Y-41405D01*
X53524Y-41405D02*
X53666Y-41405D01*
X54528Y-41405D02*
X54751Y-41405D01*
X55450Y-41405D02*
X55550Y-41405D01*
X58270Y-41405D02*
X59183Y-41405D01*
X62250Y-41405D02*
X62470Y-41405D01*
X63334Y-41405D02*
X63476Y-41405D01*
X63524Y-41405D02*
X63666Y-41405D01*
X53414Y-41485D02*
X53586Y-41485D01*
X54529Y-41485D02*
X54751Y-41485D01*
X55450Y-41485D02*
X55550Y-41485D01*
X58270Y-41485D02*
X59216Y-41485D01*
X62250Y-41485D02*
X62471Y-41485D01*
X63414Y-41485D02*
X63586Y-41485D01*
X53364Y-41565D02*
X53636Y-41565D01*
X54530Y-41565D02*
X55550Y-41565D01*
X58270Y-41565D02*
X59196Y-41565D01*
X61450Y-41565D02*
X62471Y-41565D01*
X63364Y-41565D02*
X63636Y-41565D01*
X53284Y-41645D02*
X53426Y-41645D01*
X53574Y-41645D02*
X53716Y-41645D01*
X54530Y-41645D02*
X55550Y-41645D01*
X58270Y-41645D02*
X59181Y-41645D01*
X61450Y-41645D02*
X62472Y-41645D01*
X63284Y-41645D02*
X63426Y-41645D01*
X63574Y-41645D02*
X63716Y-41645D01*
X53204Y-41725D02*
X53346Y-41725D01*
X53654Y-41725D02*
X53796Y-41725D01*
X54518Y-41725D02*
X54750Y-41725D01*
X55450Y-41725D02*
X55550Y-41725D01*
X58270Y-41725D02*
X59181Y-41725D01*
X61450Y-41725D02*
X61550Y-41725D01*
X62249Y-41725D02*
X62477Y-41725D01*
X63204Y-41725D02*
X63346Y-41725D01*
X63654Y-41725D02*
X63796Y-41725D01*
X52495Y-41805D02*
X52510Y-41805D01*
X53124Y-41805D02*
X53266Y-41805D01*
X53734Y-41805D02*
X53876Y-41805D01*
X54486Y-41805D02*
X54750Y-41805D01*
X55450Y-41805D02*
X55550Y-41805D01*
X58270Y-41805D02*
X59181Y-41805D01*
X61450Y-41805D02*
X61550Y-41805D01*
X62249Y-41805D02*
X62510Y-41805D01*
X63124Y-41805D02*
X63266Y-41805D01*
X63734Y-41805D02*
X63876Y-41805D01*
X64486Y-41805D02*
X64505Y-41805D01*
X52495Y-41885D02*
X52543Y-41885D01*
X53044Y-41885D02*
X53186Y-41885D01*
X53814Y-41885D02*
X53956Y-41885D01*
X54453Y-41885D02*
X54750Y-41885D01*
X55450Y-41885D02*
X55550Y-41885D01*
X58270Y-41885D02*
X59181Y-41885D01*
X61450Y-41885D02*
X61550Y-41885D01*
X62249Y-41885D02*
X62543Y-41885D01*
X63044Y-41885D02*
X63186Y-41885D01*
X63814Y-41885D02*
X63956Y-41885D01*
X64453Y-41885D02*
X64505Y-41885D01*
X52495Y-41965D02*
X52577Y-41965D01*
X52964Y-41965D02*
X53106Y-41965D01*
X53894Y-41965D02*
X54036Y-41965D01*
X54421Y-41965D02*
X54778Y-41965D01*
X55450Y-41965D02*
X55550Y-41965D01*
X58270Y-41965D02*
X59208Y-41965D01*
X61450Y-41965D02*
X61550Y-41965D01*
X62221Y-41965D02*
X62577Y-41965D01*
X62964Y-41965D02*
X63106Y-41965D01*
X63894Y-41965D02*
X64036Y-41965D01*
X64421Y-41965D02*
X64505Y-41965D01*
X52495Y-42045D02*
X52610Y-42045D01*
X52884Y-42045D02*
X53026Y-42045D01*
X53974Y-42045D02*
X54116Y-42045D01*
X54389Y-42045D02*
X54843Y-42045D01*
X55443Y-42045D02*
X55557Y-42045D01*
X58270Y-42045D02*
X59273Y-42045D01*
X60786Y-42045D02*
X60843Y-42045D01*
X61443Y-42045D02*
X61557Y-42045D01*
X62157Y-42045D02*
X62610Y-42045D01*
X62884Y-42045D02*
X63026Y-42045D01*
X63974Y-42045D02*
X64116Y-42045D01*
X64389Y-42045D02*
X64505Y-42045D01*
X52495Y-42125D02*
X52705Y-42125D01*
X52804Y-42125D02*
X52946Y-42125D01*
X54054Y-42125D02*
X54196Y-42125D01*
X54294Y-42125D02*
X55870Y-42125D01*
X58270Y-42125D02*
X59926Y-42125D01*
X60786Y-42125D02*
X62705Y-42125D01*
X62804Y-42125D02*
X62946Y-42125D01*
X64054Y-42125D02*
X64196Y-42125D01*
X64294Y-42125D02*
X64505Y-42125D01*
X52495Y-42205D02*
X52866Y-42205D01*
X54134Y-42205D02*
X55870Y-42205D01*
X58270Y-42205D02*
X59926Y-42205D01*
X60786Y-42205D02*
X62866Y-42205D01*
X64134Y-42205D02*
X64505Y-42205D01*
X52495Y-42285D02*
X52869Y-42285D01*
X54130Y-42285D02*
X55870Y-42285D01*
X58270Y-42285D02*
X59926Y-42285D01*
X60786Y-42285D02*
X62869Y-42285D01*
X64130Y-42285D02*
X64505Y-42285D01*
X52495Y-42365D02*
X52916Y-42365D01*
X54083Y-42365D02*
X55870Y-42365D01*
X58270Y-42365D02*
X59926Y-42365D01*
X60786Y-42365D02*
X62916Y-42365D01*
X64083Y-42365D02*
X64505Y-42365D01*
X52495Y-42445D02*
X53092Y-42445D01*
X53911Y-42445D02*
X55870Y-42445D01*
X58270Y-42445D02*
X59926Y-42445D01*
X60786Y-42445D02*
X63092Y-42445D01*
X63911Y-42445D02*
X64505Y-42445D01*
X52495Y-42525D02*
X53291Y-42525D01*
X53718Y-42525D02*
X55870Y-42525D01*
X58270Y-42525D02*
X59926Y-42525D01*
X60786Y-42525D02*
X63291Y-42525D01*
X63718Y-42525D02*
X64505Y-42525D01*
X52495Y-42605D02*
X55870Y-42605D01*
X58270Y-42605D02*
X59926Y-42605D01*
X60786Y-42605D02*
X64505Y-42605D01*
X52495Y-42685D02*
X55870Y-42685D01*
X58270Y-42685D02*
X59926Y-42685D01*
X60786Y-42685D02*
X64505Y-42685D01*
X52495Y-42765D02*
X55870Y-42765D01*
X58270Y-42765D02*
X58768Y-42765D01*
X59003Y-42765D02*
X59197Y-42765D01*
X59433Y-42765D02*
X59926Y-42765D01*
X60786Y-42765D02*
X64505Y-42765D01*
X52495Y-42845D02*
X55870Y-42845D01*
X58347Y-42845D02*
X58653Y-42845D01*
X59050Y-42845D02*
X59150Y-42845D01*
X59547Y-42845D02*
X59926Y-42845D01*
X60786Y-42845D02*
X64505Y-42845D01*
X52495Y-42925D02*
X55870Y-42925D01*
X58389Y-42925D02*
X58612Y-42925D01*
X59050Y-42925D02*
X59150Y-42925D01*
X59589Y-42925D02*
X59926Y-42925D01*
X60824Y-42925D02*
X64505Y-42925D01*
X52495Y-43005D02*
X55870Y-43005D01*
X58399Y-43005D02*
X58601Y-43005D01*
X59050Y-43005D02*
X59150Y-43005D01*
X59599Y-43005D02*
X59926Y-43005D01*
X60904Y-43005D02*
X64505Y-43005D01*
X52495Y-43085D02*
X55870Y-43085D01*
X58399Y-43085D02*
X58601Y-43085D01*
X59050Y-43085D02*
X59150Y-43085D01*
X59600Y-43085D02*
X59930Y-43085D01*
X60984Y-43085D02*
X64505Y-43085D01*
X52495Y-43165D02*
X55870Y-43165D01*
X58399Y-43165D02*
X58601Y-43165D01*
X59050Y-43165D02*
X59150Y-43165D01*
X59600Y-43165D02*
X59946Y-43165D01*
X61064Y-43165D02*
X64505Y-43165D01*
X52495Y-43245D02*
X55870Y-43245D01*
X58399Y-43245D02*
X58601Y-43245D01*
X59050Y-43245D02*
X59150Y-43245D01*
X59600Y-43245D02*
X59969Y-43245D01*
X61126Y-43245D02*
X64505Y-43245D01*
X52495Y-43325D02*
X55821Y-43325D01*
X58399Y-43325D02*
X58601Y-43325D01*
X59050Y-43325D02*
X59150Y-43325D01*
X59600Y-43325D02*
X60022Y-43325D01*
X61179Y-43325D02*
X64505Y-43325D01*
X52495Y-43405D02*
X55804Y-43405D01*
X58399Y-43405D02*
X58617Y-43405D01*
X59050Y-43405D02*
X59150Y-43405D01*
X59583Y-43405D02*
X60088Y-43405D01*
X61197Y-43405D02*
X64505Y-43405D01*
X52495Y-43485D02*
X55788Y-43485D01*
X58399Y-43485D02*
X60168Y-43485D01*
X61213Y-43485D02*
X64505Y-43485D01*
X52495Y-43565D02*
X55786Y-43565D01*
X58399Y-43565D02*
X58647Y-43565D01*
X59050Y-43565D02*
X59150Y-43565D01*
X59553Y-43565D02*
X60248Y-43565D01*
X61214Y-43565D02*
X64505Y-43565D01*
X52495Y-43645D02*
X55786Y-43645D01*
X58399Y-43645D02*
X58600Y-43645D01*
X59050Y-43645D02*
X59150Y-43645D01*
X59599Y-43645D02*
X60328Y-43645D01*
X61214Y-43645D02*
X64505Y-43645D01*
X52495Y-43725D02*
X55786Y-43725D01*
X58399Y-43725D02*
X58600Y-43725D01*
X59050Y-43725D02*
X59150Y-43725D01*
X59599Y-43725D02*
X60354Y-43725D01*
X61214Y-43725D02*
X64505Y-43725D01*
X52495Y-43805D02*
X55786Y-43805D01*
X58399Y-43805D02*
X58600Y-43805D01*
X59050Y-43805D02*
X59150Y-43805D01*
X59599Y-43805D02*
X60354Y-43805D01*
X61214Y-43805D02*
X64505Y-43805D01*
X52495Y-43885D02*
X55786Y-43885D01*
X58399Y-43885D02*
X58600Y-43885D01*
X59050Y-43885D02*
X59150Y-43885D01*
X59599Y-43885D02*
X60354Y-43885D01*
X61214Y-43885D02*
X64505Y-43885D01*
X52495Y-43965D02*
X55786Y-43965D01*
X58399Y-43965D02*
X58601Y-43965D01*
X59050Y-43965D02*
X59150Y-43965D01*
X59599Y-43965D02*
X60354Y-43965D01*
X61214Y-43965D02*
X64505Y-43965D01*
X52495Y-44045D02*
X55786Y-44045D01*
X58399Y-44045D02*
X58601Y-44045D01*
X59050Y-44045D02*
X59150Y-44045D01*
X59599Y-44045D02*
X60354Y-44045D01*
X61214Y-44045D02*
X64505Y-44045D01*
X52495Y-44125D02*
X55786Y-44125D01*
X58367Y-44125D02*
X58632Y-44125D01*
X59050Y-44125D02*
X59150Y-44125D01*
X59567Y-44125D02*
X60354Y-44125D01*
X61214Y-44125D02*
X64505Y-44125D01*
X52495Y-44205D02*
X55261Y-44205D01*
X55729Y-44205D02*
X55786Y-44205D01*
X58297Y-44205D02*
X58703Y-44205D01*
X59033Y-44205D02*
X59167Y-44205D01*
X59497Y-44205D02*
X60354Y-44205D01*
X61214Y-44205D02*
X61261Y-44205D01*
X61729Y-44205D02*
X64505Y-44205D01*
X52495Y-44285D02*
X55146Y-44285D01*
X58270Y-44285D02*
X60354Y-44285D01*
X61855Y-44285D02*
X64505Y-44285D01*
X52495Y-44365D02*
X55136Y-44365D01*
X58270Y-44365D02*
X60354Y-44365D01*
X61864Y-44365D02*
X64505Y-44365D01*
X52495Y-44445D02*
X54988Y-44445D01*
X55074Y-44445D02*
X55216Y-44445D01*
X58270Y-44445D02*
X60354Y-44445D01*
X61784Y-44445D02*
X61926Y-44445D01*
X62013Y-44445D02*
X64505Y-44445D01*
X52495Y-44525D02*
X54923Y-44525D01*
X55154Y-44525D02*
X55296Y-44525D01*
X58270Y-44525D02*
X60354Y-44525D01*
X61704Y-44525D02*
X61846Y-44525D01*
X62081Y-44525D02*
X64505Y-44525D01*
X52495Y-44605D02*
X54893Y-44605D01*
X55234Y-44605D02*
X55376Y-44605D01*
X58270Y-44605D02*
X60354Y-44605D01*
X61624Y-44605D02*
X61766Y-44605D01*
X62114Y-44605D02*
X64505Y-44605D01*
X52495Y-44685D02*
X53369Y-44685D01*
X53923Y-44685D02*
X54077Y-44685D01*
X54632Y-44685D02*
X54864Y-44685D01*
X55314Y-44685D02*
X55456Y-44685D01*
X58270Y-44685D02*
X59369Y-44685D01*
X59923Y-44685D02*
X60077Y-44685D01*
X61544Y-44685D02*
X61686Y-44685D01*
X62133Y-44685D02*
X62369Y-44685D01*
X62923Y-44685D02*
X63077Y-44685D01*
X63632Y-44685D02*
X64505Y-44685D01*
X52495Y-44765D02*
X53287Y-44765D01*
X53950Y-44765D02*
X54050Y-44765D01*
X54714Y-44765D02*
X54861Y-44765D01*
X55394Y-44765D02*
X55536Y-44765D01*
X58270Y-44765D02*
X59287Y-44765D01*
X59950Y-44765D02*
X60050Y-44765D01*
X61464Y-44765D02*
X61606Y-44765D01*
X62136Y-44765D02*
X62287Y-44765D01*
X62950Y-44765D02*
X63050Y-44765D01*
X63714Y-44765D02*
X64505Y-44765D01*
X52495Y-44845D02*
X53254Y-44845D01*
X53950Y-44845D02*
X54050Y-44845D01*
X54747Y-44845D02*
X54864Y-44845D01*
X55384Y-44845D02*
X55526Y-44845D01*
X58270Y-44845D02*
X59254Y-44845D01*
X59950Y-44845D02*
X60050Y-44845D01*
X61474Y-44845D02*
X61616Y-44845D01*
X62139Y-44845D02*
X62254Y-44845D01*
X62950Y-44845D02*
X63050Y-44845D01*
X63747Y-44845D02*
X64505Y-44845D01*
X52495Y-44925D02*
X53251Y-44925D01*
X53950Y-44925D02*
X54050Y-44925D01*
X54750Y-44925D02*
X54867Y-44925D01*
X55304Y-44925D02*
X55446Y-44925D01*
X58270Y-44925D02*
X59251Y-44925D01*
X59950Y-44925D02*
X60050Y-44925D01*
X61554Y-44925D02*
X61696Y-44925D01*
X62132Y-44925D02*
X62251Y-44925D01*
X62950Y-44925D02*
X63050Y-44925D01*
X63750Y-44925D02*
X64505Y-44925D01*
X52495Y-45005D02*
X53251Y-45005D01*
X53950Y-45005D02*
X54050Y-45005D01*
X54750Y-45005D02*
X54891Y-45005D01*
X55224Y-45005D02*
X55366Y-45005D01*
X58270Y-45005D02*
X59251Y-45005D01*
X59950Y-45005D02*
X60050Y-45005D01*
X61634Y-45005D02*
X61776Y-45005D01*
X62103Y-45005D02*
X62251Y-45005D01*
X62950Y-45005D02*
X63050Y-45005D01*
X63750Y-45005D02*
X64505Y-45005D01*
X52495Y-45085D02*
X53297Y-45085D01*
X53950Y-45085D02*
X54050Y-45085D01*
X54703Y-45085D02*
X54923Y-45085D01*
X55144Y-45085D02*
X55286Y-45085D01*
X58270Y-45085D02*
X59297Y-45085D01*
X59950Y-45085D02*
X60050Y-45085D01*
X61714Y-45085D02*
X61856Y-45085D01*
X62074Y-45085D02*
X62297Y-45085D01*
X62950Y-45085D02*
X63050Y-45085D01*
X63703Y-45085D02*
X64505Y-45085D01*
X52495Y-45165D02*
X55015Y-45165D01*
X55064Y-45165D02*
X55206Y-45165D01*
X58270Y-45165D02*
X60050Y-45165D01*
X61794Y-45165D02*
X61936Y-45165D01*
X61984Y-45165D02*
X64505Y-45165D01*
X52495Y-45245D02*
X53267Y-45245D01*
X53950Y-45245D02*
X54050Y-45245D01*
X54733Y-45245D02*
X55126Y-45245D01*
X58270Y-45245D02*
X59267Y-45245D01*
X59950Y-45245D02*
X60050Y-45245D01*
X61874Y-45245D02*
X62267Y-45245D01*
X62950Y-45245D02*
X63050Y-45245D01*
X63733Y-45245D02*
X64505Y-45245D01*
X52495Y-45325D02*
X53250Y-45325D01*
X53950Y-45325D02*
X54050Y-45325D01*
X54749Y-45325D02*
X55149Y-45325D01*
X58270Y-45325D02*
X59250Y-45325D01*
X59950Y-45325D02*
X60050Y-45325D01*
X61850Y-45325D02*
X62250Y-45325D01*
X62950Y-45325D02*
X63050Y-45325D01*
X63749Y-45325D02*
X64505Y-45325D01*
X52495Y-45405D02*
X53250Y-45405D01*
X53950Y-45405D02*
X54050Y-45405D01*
X54749Y-45405D02*
X55298Y-45405D01*
X55714Y-45405D02*
X55786Y-45405D01*
X58270Y-45405D02*
X59250Y-45405D01*
X59950Y-45405D02*
X60050Y-45405D01*
X61214Y-45405D02*
X61300Y-45405D01*
X61714Y-45405D02*
X62250Y-45405D01*
X62950Y-45405D02*
X63050Y-45405D01*
X63749Y-45405D02*
X64505Y-45405D01*
X52495Y-45485D02*
X53265Y-45485D01*
X53950Y-45485D02*
X54050Y-45485D01*
X54734Y-45485D02*
X55786Y-45485D01*
X58270Y-45485D02*
X59265Y-45485D01*
X59950Y-45485D02*
X60050Y-45485D01*
X61214Y-45485D02*
X62265Y-45485D01*
X62950Y-45485D02*
X63050Y-45485D01*
X63734Y-45485D02*
X64505Y-45485D01*
X52495Y-45565D02*
X53313Y-45565D01*
X53950Y-45565D02*
X54050Y-45565D01*
X54687Y-45565D02*
X55786Y-45565D01*
X58270Y-45565D02*
X59313Y-45565D01*
X59950Y-45565D02*
X60050Y-45565D01*
X61214Y-45565D02*
X62313Y-45565D01*
X62950Y-45565D02*
X63050Y-45565D01*
X63687Y-45565D02*
X64505Y-45565D01*
X52495Y-45645D02*
X53440Y-45645D01*
X53893Y-45645D02*
X54107Y-45645D01*
X54559Y-45645D02*
X55786Y-45645D01*
X58270Y-45645D02*
X59440Y-45645D01*
X59893Y-45645D02*
X60107Y-45645D01*
X61214Y-45645D02*
X62440Y-45645D01*
X62893Y-45645D02*
X63107Y-45645D01*
X63559Y-45645D02*
X64505Y-45645D01*
X52495Y-45725D02*
X55786Y-45725D01*
X58270Y-45725D02*
X60354Y-45725D01*
X61214Y-45725D02*
X64505Y-45725D01*
X52495Y-45805D02*
X55786Y-45805D01*
X58270Y-45805D02*
X60354Y-45805D01*
X61214Y-45805D02*
X64505Y-45805D01*
X52495Y-45885D02*
X53369Y-45885D01*
X54632Y-45885D02*
X55786Y-45885D01*
X58270Y-45885D02*
X59369Y-45885D01*
X61214Y-45885D02*
X62369Y-45885D01*
X63632Y-45885D02*
X64505Y-45885D01*
X52495Y-45965D02*
X53287Y-45965D01*
X55233Y-45965D02*
X55767Y-45965D01*
X58270Y-45965D02*
X59287Y-45965D01*
X61233Y-45965D02*
X61768Y-45965D01*
X63714Y-45965D02*
X64505Y-45965D01*
X52495Y-46045D02*
X53254Y-46045D01*
X55353Y-46045D02*
X55647Y-46045D01*
X58270Y-46045D02*
X59254Y-46045D01*
X61353Y-46045D02*
X61648Y-46045D01*
X63747Y-46045D02*
X64505Y-46045D01*
X52495Y-46125D02*
X53251Y-46125D01*
X55433Y-46125D02*
X55567Y-46125D01*
X58270Y-46125D02*
X59251Y-46125D01*
X61433Y-46125D02*
X61567Y-46125D01*
X63749Y-46125D02*
X64505Y-46125D01*
X52495Y-46205D02*
X53251Y-46205D01*
X58270Y-46205D02*
X59251Y-46205D01*
X63749Y-46205D02*
X64505Y-46205D01*
X52495Y-46285D02*
X53251Y-46285D01*
X58270Y-46285D02*
X59251Y-46285D01*
X63749Y-46285D02*
X64505Y-46285D01*
X52495Y-46365D02*
X53251Y-46365D01*
X58270Y-46365D02*
X59251Y-46365D01*
X63749Y-46365D02*
X64505Y-46365D01*
X52495Y-46445D02*
X53251Y-46445D01*
X58270Y-46445D02*
X59251Y-46445D01*
X63749Y-46445D02*
X64505Y-46445D01*
X52495Y-46525D02*
X53251Y-46525D01*
X58270Y-46525D02*
X59251Y-46525D01*
X63749Y-46525D02*
X64505Y-46525D01*
X52495Y-46605D02*
X53251Y-46605D01*
X58270Y-46605D02*
X59251Y-46605D01*
X63749Y-46605D02*
X64505Y-46605D01*
X52495Y-46685D02*
X53265Y-46685D01*
X58270Y-46685D02*
X59265Y-46685D01*
X63734Y-46685D02*
X64505Y-46685D01*
X52495Y-46765D02*
X53313Y-46765D01*
X58269Y-46765D02*
X59313Y-46765D01*
X63687Y-46765D02*
X64505Y-46765D01*
X52495Y-46845D02*
X53440Y-46845D01*
X54558Y-46845D02*
X54851Y-46845D01*
X56149Y-46845D02*
X56440Y-46845D01*
X58253Y-46845D02*
X59440Y-46845D01*
X60558Y-46845D02*
X60847Y-46845D01*
X62149Y-46845D02*
X62440Y-46845D01*
X63558Y-46845D02*
X64505Y-46845D01*
X52495Y-46925D02*
X54851Y-46925D01*
X56149Y-46925D02*
X57211Y-46925D01*
X58226Y-46925D02*
X60767Y-46925D01*
X62149Y-46925D02*
X64505Y-46925D01*
X52495Y-47005D02*
X54882Y-47005D01*
X56117Y-47005D02*
X57131Y-47005D01*
X58173Y-47005D02*
X60687Y-47005D01*
X62117Y-47005D02*
X64505Y-47005D01*
X52495Y-47085D02*
X54915Y-47085D01*
X56084Y-47085D02*
X57051Y-47085D01*
X58097Y-47085D02*
X60607Y-47085D01*
X62084Y-47085D02*
X64505Y-47085D01*
X52495Y-47165D02*
X54948Y-47165D01*
X56051Y-47165D02*
X56971Y-47165D01*
X58017Y-47165D02*
X60527Y-47165D01*
X62051Y-47165D02*
X64505Y-47165D01*
X52495Y-47245D02*
X55027Y-47245D01*
X55973Y-47245D02*
X56891Y-47245D01*
X57937Y-47245D02*
X60447Y-47245D01*
X61973Y-47245D02*
X64505Y-47245D01*
X52495Y-47325D02*
X55107Y-47325D01*
X55893Y-47325D02*
X56811Y-47325D01*
X57857Y-47325D02*
X60367Y-47325D01*
X61893Y-47325D02*
X64505Y-47325D01*
X52495Y-47405D02*
X55264Y-47405D01*
X55735Y-47405D02*
X56731Y-47405D01*
X57777Y-47405D02*
X60287Y-47405D01*
X61735Y-47405D02*
X64505Y-47405D01*
X52495Y-47485D02*
X56651Y-47485D01*
X57697Y-47485D02*
X60207Y-47485D01*
X61423Y-47485D02*
X64505Y-47485D01*
X52495Y-47565D02*
X56571Y-47565D01*
X57617Y-47565D02*
X60127Y-47565D01*
X61343Y-47565D02*
X64505Y-47565D01*
X52495Y-47645D02*
X56491Y-47645D01*
X57537Y-47645D02*
X60047Y-47645D01*
X61263Y-47645D02*
X64505Y-47645D01*
X52495Y-47725D02*
X56437Y-47725D01*
X57457Y-47725D02*
X59967Y-47725D01*
X61183Y-47725D02*
X64505Y-47725D01*
X52495Y-47805D02*
X56401Y-47805D01*
X57377Y-47805D02*
X59887Y-47805D01*
X61103Y-47805D02*
X64505Y-47805D01*
X52495Y-47885D02*
X56384Y-47885D01*
X57297Y-47885D02*
X59807Y-47885D01*
X61023Y-47885D02*
X64505Y-47885D01*
X52495Y-47965D02*
X56083Y-47965D01*
X57417Y-47965D02*
X59727Y-47965D01*
X60943Y-47965D02*
X64505Y-47965D01*
X52495Y-48045D02*
X56024Y-48045D01*
X57476Y-48045D02*
X59647Y-48045D01*
X60863Y-48045D02*
X64505Y-48045D01*
X52495Y-48125D02*
X56001Y-48125D01*
X57499Y-48125D02*
X59567Y-48125D01*
X60783Y-48125D02*
X64505Y-48125D01*
X52495Y-48205D02*
X56001Y-48205D01*
X57499Y-48205D02*
X59487Y-48205D01*
X60703Y-48205D02*
X64505Y-48205D01*
X52495Y-48285D02*
X56001Y-48285D01*
X57499Y-48285D02*
X59407Y-48285D01*
X60623Y-48285D02*
X64505Y-48285D01*
X52495Y-48365D02*
X56001Y-48365D01*
X57499Y-48365D02*
X59327Y-48365D01*
X60543Y-48365D02*
X64505Y-48365D01*
X52495Y-48445D02*
X56001Y-48445D01*
X57499Y-48445D02*
X59252Y-48445D01*
X60463Y-48445D02*
X64505Y-48445D01*
X52495Y-48525D02*
X56001Y-48525D01*
X57499Y-48525D02*
X59198Y-48525D01*
X60383Y-48525D02*
X64505Y-48525D01*
X52495Y-48605D02*
X56001Y-48605D01*
X57499Y-48605D02*
X59161Y-48605D01*
X60303Y-48605D02*
X64505Y-48605D01*
X52495Y-48685D02*
X56001Y-48685D01*
X57499Y-48685D02*
X59145Y-48685D01*
X60223Y-48685D02*
X64505Y-48685D01*
X52495Y-48765D02*
X56028Y-48765D01*
X57471Y-48765D02*
X59135Y-48765D01*
X60143Y-48765D02*
X64505Y-48765D01*
X52495Y-48845D02*
X56093Y-48845D01*
X57407Y-48845D02*
X59135Y-48845D01*
X60063Y-48845D02*
X64505Y-48845D01*
X52495Y-48925D02*
X59135Y-48925D01*
X59995Y-48925D02*
X64505Y-48925D01*
X52495Y-49005D02*
X59135Y-49005D01*
X59995Y-49005D02*
X64505Y-49005D01*
X52495Y-49085D02*
X59135Y-49085D01*
X59995Y-49085D02*
X64505Y-49085D01*
X52495Y-49165D02*
X56083Y-49165D01*
X57417Y-49165D02*
X59135Y-49165D01*
X59995Y-49165D02*
X64505Y-49165D01*
X52495Y-49245D02*
X56024Y-49245D01*
X57476Y-49245D02*
X59135Y-49245D01*
X59995Y-49245D02*
X64505Y-49245D01*
X52495Y-49325D02*
X56001Y-49325D01*
X57499Y-49325D02*
X59135Y-49325D01*
X59995Y-49325D02*
X64505Y-49325D01*
X52495Y-49405D02*
X56001Y-49405D01*
X57499Y-49405D02*
X59135Y-49405D01*
X59995Y-49405D02*
X64505Y-49405D01*
X52495Y-49485D02*
X56001Y-49485D01*
X57499Y-49485D02*
X59135Y-49485D01*
X59995Y-49485D02*
X64505Y-49485D01*
X52495Y-49565D02*
X56001Y-49565D01*
X57499Y-49565D02*
X59135Y-49565D01*
X59995Y-49565D02*
X64505Y-49565D01*
X52495Y-49645D02*
X56001Y-49645D01*
X57499Y-49645D02*
X59135Y-49645D01*
X59995Y-49645D02*
X64505Y-49645D01*
X52495Y-49725D02*
X56001Y-49725D01*
X57499Y-49725D02*
X59135Y-49725D01*
X59995Y-49725D02*
X64505Y-49725D01*
X52495Y-49805D02*
X56001Y-49805D01*
X57499Y-49805D02*
X59135Y-49805D01*
X59995Y-49805D02*
X64505Y-49805D01*
X52495Y-49885D02*
X56001Y-49885D01*
X57499Y-49885D02*
X59135Y-49885D01*
X59995Y-49885D02*
X64505Y-49885D01*
X52495Y-49965D02*
X56028Y-49965D01*
X57471Y-49965D02*
X59135Y-49965D01*
X59995Y-49965D02*
X64505Y-49965D01*
X52495Y-50045D02*
X56093Y-50045D01*
X57407Y-50045D02*
X59135Y-50045D01*
X59995Y-50045D02*
X64505Y-50045D01*
X52495Y-50125D02*
X56360Y-50125D01*
X57112Y-50125D02*
X59135Y-50125D01*
X59995Y-50125D02*
X64505Y-50125D01*
X52495Y-50205D02*
X56360Y-50205D01*
X57100Y-50205D02*
X59135Y-50205D01*
X59995Y-50205D02*
X64505Y-50205D01*
X52495Y-50285D02*
X56360Y-50285D01*
X57100Y-50285D02*
X59135Y-50285D01*
X59995Y-50285D02*
X64505Y-50285D01*
X52495Y-50365D02*
X56360Y-50365D01*
X57100Y-50365D02*
X59135Y-50365D01*
X59995Y-50365D02*
X64505Y-50365D01*
X52495Y-50445D02*
X56360Y-50445D01*
X57100Y-50445D02*
X57212Y-50445D01*
X57650Y-50445D02*
X59128Y-50445D01*
X60002Y-50445D02*
X60030Y-50445D01*
X60509Y-50445D02*
X64505Y-50445D01*
X52495Y-50525D02*
X53161Y-50525D01*
X53833Y-50525D02*
X56360Y-50525D01*
X57100Y-50525D02*
X57151Y-50525D01*
X57720Y-50525D02*
X59064Y-50525D01*
X60625Y-50525D02*
X63161Y-50525D01*
X63833Y-50525D02*
X64505Y-50525D01*
X52495Y-50605D02*
X52968Y-50605D01*
X54032Y-50605D02*
X56295Y-50605D01*
X57679Y-50605D02*
X59036Y-50605D01*
X60705Y-50605D02*
X62968Y-50605D01*
X64032Y-50605D02*
X64505Y-50605D01*
X52495Y-50685D02*
X52887Y-50685D01*
X54114Y-50685D02*
X56254Y-50685D01*
X57599Y-50685D02*
X57741Y-50685D01*
X57906Y-50685D02*
X59036Y-50685D01*
X60746Y-50685D02*
X62887Y-50685D01*
X64114Y-50685D02*
X64505Y-50685D01*
X52495Y-50765D02*
X52840Y-50765D01*
X54161Y-50765D02*
X56221Y-50765D01*
X57519Y-50765D02*
X57661Y-50765D01*
X57939Y-50765D02*
X59036Y-50765D01*
X60780Y-50765D02*
X62840Y-50765D01*
X64161Y-50765D02*
X64505Y-50765D01*
X52495Y-50845D02*
X52756Y-50845D01*
X52774Y-50845D02*
X52916Y-50845D01*
X54084Y-50845D02*
X54226Y-50845D01*
X54245Y-50845D02*
X56200Y-50845D01*
X57439Y-50845D02*
X57581Y-50845D01*
X57952Y-50845D02*
X59036Y-50845D01*
X60800Y-50845D02*
X62756Y-50845D01*
X62774Y-50845D02*
X62916Y-50845D01*
X64084Y-50845D02*
X64226Y-50845D01*
X64245Y-50845D02*
X64505Y-50845D01*
X52495Y-50925D02*
X52623Y-50925D01*
X52854Y-50925D02*
X52996Y-50925D01*
X54004Y-50925D02*
X54146Y-50925D01*
X54378Y-50925D02*
X56200Y-50925D01*
X57369Y-50925D02*
X57511Y-50925D01*
X57956Y-50925D02*
X59036Y-50925D01*
X60800Y-50925D02*
X62623Y-50925D01*
X62854Y-50925D02*
X62996Y-50925D01*
X64004Y-50925D02*
X64146Y-50925D01*
X64378Y-50925D02*
X64505Y-50925D01*
X52495Y-51005D02*
X52591Y-51005D01*
X52934Y-51005D02*
X53076Y-51005D01*
X53924Y-51005D02*
X54066Y-51005D01*
X54411Y-51005D02*
X56200Y-51005D01*
X57449Y-51005D02*
X57591Y-51005D01*
X57955Y-51005D02*
X59036Y-51005D01*
X60800Y-51005D02*
X62591Y-51005D01*
X62934Y-51005D02*
X63076Y-51005D01*
X63924Y-51005D02*
X64066Y-51005D01*
X64411Y-51005D02*
X64505Y-51005D01*
X52495Y-51085D02*
X52558Y-51085D01*
X53014Y-51085D02*
X53156Y-51085D01*
X53844Y-51085D02*
X53986Y-51085D01*
X54444Y-51085D02*
X56224Y-51085D01*
X57529Y-51085D02*
X57671Y-51085D01*
X57927Y-51085D02*
X59036Y-51085D01*
X60775Y-51085D02*
X62559Y-51085D01*
X63014Y-51085D02*
X63156Y-51085D01*
X63844Y-51085D02*
X63986Y-51085D01*
X64444Y-51085D02*
X64505Y-51085D01*
X52495Y-51165D02*
X52526Y-51165D01*
X53094Y-51165D02*
X53236Y-51165D01*
X53764Y-51165D02*
X53906Y-51165D01*
X54477Y-51165D02*
X56258Y-51165D01*
X57609Y-51165D02*
X57751Y-51165D01*
X57899Y-51165D02*
X59036Y-51165D01*
X60742Y-51165D02*
X62526Y-51165D01*
X63094Y-51165D02*
X63236Y-51165D01*
X63764Y-51165D02*
X63906Y-51165D01*
X64478Y-51165D02*
X64505Y-51165D01*
X53174Y-51245D02*
X53316Y-51245D01*
X53684Y-51245D02*
X53826Y-51245D01*
X54511Y-51245D02*
X56305Y-51245D01*
X57689Y-51245D02*
X59036Y-51245D01*
X60694Y-51245D02*
X62494Y-51245D01*
X63174Y-51245D02*
X63316Y-51245D01*
X63684Y-51245D02*
X63826Y-51245D01*
X53254Y-51325D02*
X53396Y-51325D01*
X53604Y-51325D02*
X53746Y-51325D01*
X54528Y-51325D02*
X56385Y-51325D01*
X57073Y-51325D02*
X57152Y-51325D01*
X57717Y-51325D02*
X59067Y-51325D01*
X60614Y-51325D02*
X62470Y-51325D01*
X63254Y-51325D02*
X63396Y-51325D01*
X63604Y-51325D02*
X63746Y-51325D01*
X53334Y-51405D02*
X53476Y-51405D01*
X53524Y-51405D02*
X53666Y-51405D01*
X54528Y-51405D02*
X56515Y-51405D01*
X56943Y-51405D02*
X57249Y-51405D01*
X57634Y-51405D02*
X59138Y-51405D01*
X59991Y-51405D02*
X60055Y-51405D01*
X60483Y-51405D02*
X62470Y-51405D01*
X63334Y-51405D02*
X63476Y-51405D01*
X63524Y-51405D02*
X63666Y-51405D01*
X53414Y-51485D02*
X53586Y-51485D01*
X54529Y-51485D02*
X62471Y-51485D01*
X63414Y-51485D02*
X63586Y-51485D01*
X53364Y-51565D02*
X53636Y-51565D01*
X54530Y-51565D02*
X62471Y-51565D01*
X63364Y-51565D02*
X63636Y-51565D01*
X53284Y-51645D02*
X53426Y-51645D01*
X53574Y-51645D02*
X53716Y-51645D01*
X54530Y-51645D02*
X62472Y-51645D01*
X63284Y-51645D02*
X63426Y-51645D01*
X63574Y-51645D02*
X63716Y-51645D01*
X53204Y-51725D02*
X53346Y-51725D01*
X53654Y-51725D02*
X53796Y-51725D01*
X54518Y-51725D02*
X62477Y-51725D01*
X63204Y-51725D02*
X63346Y-51725D01*
X63654Y-51725D02*
X63796Y-51725D01*
X52495Y-51805D02*
X52510Y-51805D01*
X53124Y-51805D02*
X53266Y-51805D01*
X53734Y-51805D02*
X53876Y-51805D01*
X54486Y-51805D02*
X58297Y-51805D01*
X58705Y-51805D02*
X62510Y-51805D01*
X63124Y-51805D02*
X63266Y-51805D01*
X63734Y-51805D02*
X63876Y-51805D01*
X64486Y-51805D02*
X64505Y-51805D01*
X52495Y-51885D02*
X52543Y-51885D01*
X53044Y-51885D02*
X53186Y-51885D01*
X53814Y-51885D02*
X53956Y-51885D01*
X54453Y-51885D02*
X58103Y-51885D01*
X58897Y-51885D02*
X62543Y-51885D01*
X63044Y-51885D02*
X63186Y-51885D01*
X63814Y-51885D02*
X63956Y-51885D01*
X64453Y-51885D02*
X64505Y-51885D01*
X52495Y-51965D02*
X52577Y-51965D01*
X52964Y-51965D02*
X53106Y-51965D01*
X53894Y-51965D02*
X54036Y-51965D01*
X54421Y-51965D02*
X57995Y-51965D01*
X59005Y-51965D02*
X62577Y-51965D01*
X62964Y-51965D02*
X63106Y-51965D01*
X63894Y-51965D02*
X64036Y-51965D01*
X64421Y-51965D02*
X64505Y-51965D01*
X52495Y-52045D02*
X52610Y-52045D01*
X52884Y-52045D02*
X53026Y-52045D01*
X53974Y-52045D02*
X54116Y-52045D01*
X54389Y-52045D02*
X57915Y-52045D01*
X59085Y-52045D02*
X62610Y-52045D01*
X62884Y-52045D02*
X63026Y-52045D01*
X63974Y-52045D02*
X64116Y-52045D01*
X64389Y-52045D02*
X64505Y-52045D01*
X52495Y-52125D02*
X52705Y-52125D01*
X52804Y-52125D02*
X52946Y-52125D01*
X54054Y-52125D02*
X54196Y-52125D01*
X54294Y-52125D02*
X55686Y-52125D01*
X56267Y-52125D02*
X57835Y-52125D01*
X59165Y-52125D02*
X60695Y-52125D01*
X61345Y-52125D02*
X62705Y-52125D01*
X62804Y-52125D02*
X62946Y-52125D01*
X64054Y-52125D02*
X64196Y-52125D01*
X64294Y-52125D02*
X64505Y-52125D01*
X52495Y-52205D02*
X52866Y-52205D01*
X54134Y-52205D02*
X55548Y-52205D01*
X56413Y-52205D02*
X57802Y-52205D01*
X59199Y-52205D02*
X60545Y-52205D01*
X61495Y-52205D02*
X62866Y-52205D01*
X64134Y-52205D02*
X64505Y-52205D01*
X52495Y-52285D02*
X52869Y-52285D01*
X54130Y-52285D02*
X55511Y-52285D01*
X56450Y-52285D02*
X57769Y-52285D01*
X59232Y-52285D02*
X60465Y-52285D01*
X61575Y-52285D02*
X62869Y-52285D01*
X64130Y-52285D02*
X64505Y-52285D01*
X52495Y-52365D02*
X52916Y-52365D01*
X54083Y-52365D02*
X55576Y-52365D01*
X56384Y-52365D02*
X57735Y-52365D01*
X59265Y-52365D02*
X60385Y-52365D01*
X61655Y-52365D02*
X62916Y-52365D01*
X64083Y-52365D02*
X64505Y-52365D01*
X52495Y-52445D02*
X53092Y-52445D01*
X53911Y-52445D02*
X55308Y-52445D01*
X55514Y-52445D02*
X55656Y-52445D01*
X56304Y-52445D02*
X56446Y-52445D01*
X56654Y-52445D02*
X57715Y-52445D01*
X59285Y-52445D02*
X60335Y-52445D01*
X61707Y-52445D02*
X63092Y-52445D01*
X63911Y-52445D02*
X64505Y-52445D01*
X52495Y-52525D02*
X53291Y-52525D01*
X53718Y-52525D02*
X55277Y-52525D01*
X55594Y-52525D02*
X55736Y-52525D01*
X56224Y-52525D02*
X56366Y-52525D01*
X56687Y-52525D02*
X57715Y-52525D01*
X59285Y-52525D02*
X60301Y-52525D01*
X61740Y-52525D02*
X63291Y-52525D01*
X63718Y-52525D02*
X64505Y-52525D01*
X52495Y-52605D02*
X55246Y-52605D01*
X55674Y-52605D02*
X55816Y-52605D01*
X56144Y-52605D02*
X56286Y-52605D01*
X56720Y-52605D02*
X57715Y-52605D01*
X59285Y-52605D02*
X60268Y-52605D01*
X61773Y-52605D02*
X64505Y-52605D01*
X52495Y-52685D02*
X55215Y-52685D01*
X55754Y-52685D02*
X55896Y-52685D01*
X56064Y-52685D02*
X56206Y-52685D01*
X56747Y-52685D02*
X57715Y-52685D01*
X59285Y-52685D02*
X60235Y-52685D01*
X61805Y-52685D02*
X64505Y-52685D01*
X52495Y-52765D02*
X55207Y-52765D01*
X55834Y-52765D02*
X55976Y-52765D01*
X55984Y-52765D02*
X56126Y-52765D01*
X56749Y-52765D02*
X57731Y-52765D01*
X59269Y-52765D02*
X60235Y-52765D01*
X61805Y-52765D02*
X64505Y-52765D01*
X52495Y-52845D02*
X55209Y-52845D01*
X55904Y-52845D02*
X56056Y-52845D01*
X56751Y-52845D02*
X57764Y-52845D01*
X59235Y-52845D02*
X60235Y-52845D01*
X61805Y-52845D02*
X64505Y-52845D01*
X52495Y-52925D02*
X55211Y-52925D01*
X55824Y-52925D02*
X55966Y-52925D01*
X55994Y-52925D02*
X56136Y-52925D01*
X56753Y-52925D02*
X57797Y-52925D01*
X59202Y-52925D02*
X60235Y-52925D01*
X61805Y-52925D02*
X64505Y-52925D01*
X52495Y-53005D02*
X55213Y-53005D01*
X55744Y-53005D02*
X55886Y-53005D01*
X56074Y-53005D02*
X56216Y-53005D01*
X56741Y-53005D02*
X57830Y-53005D01*
X59169Y-53005D02*
X60239Y-53005D01*
X61801Y-53005D02*
X64505Y-53005D01*
X52495Y-53085D02*
X55244Y-53085D01*
X55664Y-53085D02*
X55806Y-53085D01*
X56154Y-53085D02*
X56296Y-53085D01*
X56710Y-53085D02*
X57905Y-53085D01*
X59095Y-53085D02*
X60272Y-53085D01*
X61768Y-53085D02*
X64505Y-53085D01*
X52495Y-53165D02*
X55277Y-53165D01*
X55584Y-53165D02*
X55726Y-53165D01*
X56234Y-53165D02*
X56376Y-53165D01*
X56679Y-53165D02*
X57985Y-53165D01*
X59015Y-53165D02*
X60305Y-53165D01*
X61735Y-53165D02*
X64505Y-53165D01*
X52495Y-53245D02*
X55310Y-53245D01*
X55504Y-53245D02*
X55646Y-53245D01*
X56314Y-53245D02*
X56456Y-53245D01*
X56648Y-53245D02*
X58079Y-53245D01*
X58922Y-53245D02*
X60337Y-53245D01*
X61701Y-53245D02*
X64505Y-53245D01*
X52495Y-53325D02*
X55566Y-53325D01*
X56394Y-53325D02*
X58271Y-53325D01*
X58727Y-53325D02*
X60395Y-53325D01*
X61645Y-53325D02*
X64505Y-53325D01*
X52495Y-53405D02*
X55515Y-53405D01*
X56444Y-53405D02*
X60475Y-53405D01*
X61565Y-53405D02*
X64505Y-53405D01*
X52495Y-53485D02*
X55551Y-53485D01*
X56408Y-53485D02*
X60555Y-53485D01*
X61485Y-53485D02*
X64505Y-53485D01*
X52495Y-53565D02*
X55719Y-53565D01*
X56250Y-53565D02*
X60719Y-53565D01*
X61320Y-53565D02*
X64505Y-53565D01*
X52495Y-53645D02*
X64505Y-53645D01*
X52495Y-53725D02*
X64505Y-53725D01*
X56730Y-40680D02*
X56921Y-40680D01*
X56730Y-40760D02*
X56921Y-40760D01*
X56730Y-40840D02*
X56921Y-40840D01*
X56730Y-40920D02*
X56929Y-40920D01*
X56730Y-41000D02*
X56967Y-41000D01*
X56730Y-41080D02*
X56930Y-41080D01*
X56730Y-41160D02*
X56921Y-41160D01*
X56730Y-41240D02*
X56921Y-41240D01*
X56730Y-41320D02*
X56921Y-41320D01*
X56730Y-41400D02*
X56921Y-41400D01*
X56730Y-41480D02*
X56954Y-41480D01*
X56730Y-41560D02*
X56938Y-41560D01*
X56730Y-41640D02*
X56921Y-41640D01*
X56730Y-41720D02*
X56921Y-41720D01*
X56730Y-41800D02*
X56921Y-41800D01*
X56730Y-41880D02*
X56921Y-41880D01*
X56730Y-41960D02*
X56946Y-41960D01*
X56730Y-42040D02*
X57008Y-42040D01*
X56730Y-42120D02*
X57530Y-42120D01*
X56730Y-42200D02*
X57530Y-42200D01*
X56730Y-42280D02*
X57530Y-42280D01*
X56730Y-42360D02*
X57530Y-42360D01*
X56730Y-42440D02*
X57530Y-42440D01*
X56730Y-42520D02*
X57530Y-42520D01*
X56730Y-42600D02*
X57530Y-42600D01*
X56730Y-42680D02*
X57530Y-42680D01*
X56730Y-42760D02*
X57530Y-42760D01*
X56730Y-42840D02*
X57458Y-42840D01*
X56730Y-42920D02*
X57414Y-42920D01*
X56730Y-43000D02*
X57401Y-43000D01*
X56730Y-43080D02*
X57401Y-43080D01*
X56730Y-43160D02*
X57401Y-43160D01*
X56730Y-43240D02*
X57401Y-43240D01*
X56730Y-43320D02*
X57401Y-43320D01*
X56730Y-43400D02*
X57401Y-43400D01*
X56715Y-43480D02*
X57401Y-43480D01*
X56698Y-43560D02*
X57401Y-43560D01*
X56652Y-43640D02*
X57401Y-43640D01*
X56646Y-43720D02*
X57401Y-43720D01*
X56646Y-43800D02*
X57401Y-43800D01*
X56646Y-43880D02*
X57401Y-43880D01*
X56646Y-43960D02*
X57401Y-43960D01*
X56646Y-44040D02*
X57401Y-44040D01*
X56646Y-44120D02*
X57430Y-44120D01*
X56646Y-44200D02*
X57498Y-44200D01*
X56646Y-44280D02*
X57530Y-44280D01*
X56646Y-44360D02*
X57530Y-44360D01*
X56646Y-44440D02*
X57530Y-44440D01*
X56646Y-44520D02*
X57530Y-44520D01*
X56646Y-44600D02*
X57530Y-44600D01*
X56918Y-44680D02*
X57082Y-44680D01*
X56950Y-44760D02*
X57050Y-44760D01*
X56950Y-44840D02*
X57050Y-44840D01*
X56950Y-44920D02*
X57050Y-44920D01*
X56950Y-45000D02*
X57050Y-45000D01*
X56950Y-45080D02*
X57050Y-45080D01*
X56950Y-45160D02*
X57050Y-45160D01*
X56950Y-45240D02*
X57050Y-45240D01*
X56950Y-45320D02*
X57050Y-45320D01*
X56950Y-45400D02*
X57050Y-45400D01*
X56950Y-45480D02*
X57050Y-45480D01*
X56950Y-45560D02*
X57050Y-45560D01*
X56898Y-45640D02*
X57102Y-45640D01*
X56646Y-45720D02*
X57530Y-45720D01*
X56646Y-45800D02*
X57530Y-45800D01*
X64505Y-53755D02*
X64505Y-51758D01*
X64377Y-52076D01*
X64233Y-52162D01*
X63571Y-51500D01*
X64233Y-50838D01*
X64377Y-50924D01*
X64505Y-51232D01*
X64505Y-41758D01*
X64377Y-42076D01*
X64233Y-42162D01*
X63571Y-41500D01*
X64233Y-40838D01*
X64377Y-40924D01*
X64505Y-41232D01*
X64505Y-36758D01*
X64377Y-37076D01*
X64233Y-37162D01*
X63571Y-36500D01*
X64233Y-35838D01*
X64377Y-35924D01*
X64505Y-36232D01*
X64505Y-29245D01*
X52495Y-29245D01*
X52495Y-36241D01*
X52623Y-35924D01*
X52767Y-35838D01*
X53429Y-36500D01*
X52767Y-37162D01*
X52623Y-37076D01*
X52495Y-36767D01*
X52495Y-41241D01*
X52623Y-40924D01*
X52767Y-40838D01*
X53429Y-41500D01*
X52767Y-42162D01*
X52623Y-42076D01*
X52495Y-41767D01*
X52495Y-51241D01*
X52623Y-50924D01*
X52767Y-50838D01*
X53429Y-51500D01*
X52767Y-52162D01*
X52623Y-52076D01*
X52495Y-51767D01*
X52495Y-53755D01*
X53304Y-53755D01*
X53304Y-52530D01*
X52924Y-52377D01*
X52838Y-52233D01*
X53500Y-51571D01*
X53500Y-51429D01*
X52838Y-50767D01*
X52924Y-50623D01*
X53286Y-50473D01*
X53696Y-50470D01*
X54076Y-50623D01*
X54162Y-50767D01*
X53500Y-51429D01*
X53500Y-51571D01*
X54162Y-52233D01*
X54076Y-52377D01*
X53714Y-52527D01*
X53304Y-52530D01*
X53304Y-53755D01*
X54233Y-53755D01*
X54233Y-52162D01*
X53571Y-51500D01*
X54233Y-50838D01*
X54377Y-50924D01*
X54527Y-51286D01*
X54530Y-51696D01*
X54377Y-52076D01*
X54233Y-52162D01*
X54233Y-53755D01*
X55435Y-53755D01*
X55435Y-53314D01*
X55317Y-53260D01*
X55214Y-53012D01*
X55206Y-52706D01*
X55317Y-52420D01*
X55435Y-52366D01*
X55909Y-52840D01*
X55435Y-53314D01*
X55435Y-53755D01*
X55846Y-53755D01*
X55846Y-53614D01*
X55560Y-53503D01*
X55506Y-53385D01*
X55980Y-52911D01*
X55980Y-52769D01*
X55506Y-52295D01*
X55560Y-52177D01*
X55808Y-52074D01*
X56114Y-52066D01*
X56400Y-52177D01*
X56454Y-52295D01*
X55980Y-52769D01*
X55980Y-52911D01*
X56454Y-53385D01*
X56400Y-53503D01*
X56152Y-53606D01*
X55846Y-53614D01*
X55846Y-53755D01*
X56525Y-53755D01*
X56525Y-53314D01*
X56051Y-52840D01*
X56525Y-52366D01*
X56624Y-52411D01*
X56624Y-51450D01*
X56429Y-51369D01*
X56281Y-51220D01*
X56200Y-51025D01*
X56200Y-50814D01*
X56281Y-50619D01*
X56360Y-50540D01*
X56360Y-50114D01*
X56359Y-50110D01*
X56361Y-50099D01*
X56200Y-50099D01*
X56109Y-50061D01*
X56039Y-49991D01*
X56001Y-49899D01*
X56001Y-49300D01*
X56039Y-49209D01*
X56109Y-49139D01*
X56200Y-49101D01*
X56200Y-48899D01*
X56109Y-48861D01*
X56039Y-48791D01*
X56001Y-48699D01*
X56001Y-48100D01*
X56039Y-48009D01*
X56109Y-47939D01*
X56201Y-47901D01*
X56380Y-47901D01*
X56403Y-47792D01*
X56408Y-47768D01*
X56488Y-47648D01*
X57287Y-46849D01*
X56450Y-46849D01*
X56359Y-46811D01*
X56328Y-46780D01*
X56149Y-46780D01*
X56149Y-46929D01*
X56050Y-47168D01*
X55868Y-47350D01*
X55629Y-47449D01*
X55371Y-47449D01*
X55132Y-47350D01*
X54950Y-47168D01*
X54851Y-46929D01*
X54851Y-46780D01*
X54672Y-46780D01*
X54641Y-46811D01*
X54549Y-46849D01*
X53450Y-46849D01*
X53359Y-46811D01*
X53289Y-46741D01*
X53251Y-46649D01*
X53251Y-46050D01*
X53289Y-45959D01*
X53359Y-45889D01*
X53451Y-45851D01*
X53888Y-45851D01*
X53888Y-45650D01*
X53549Y-45649D01*
X53450Y-45649D01*
X53359Y-45611D01*
X53289Y-45541D01*
X53251Y-45449D01*
X53250Y-45262D01*
X53312Y-45200D01*
X53312Y-45100D01*
X53250Y-45038D01*
X53251Y-44851D01*
X53289Y-44759D01*
X53304Y-44744D01*
X53304Y-42530D01*
X52924Y-42377D01*
X52838Y-42233D01*
X53500Y-41571D01*
X53500Y-41429D01*
X52838Y-40767D01*
X52924Y-40623D01*
X53286Y-40473D01*
X53304Y-40472D01*
X53304Y-37530D01*
X52924Y-37377D01*
X52838Y-37233D01*
X53500Y-36571D01*
X54162Y-37233D01*
X54076Y-37377D01*
X53714Y-37527D01*
X53304Y-37530D01*
X53304Y-40472D01*
X53696Y-40470D01*
X54076Y-40623D01*
X54162Y-40767D01*
X53500Y-41429D01*
X53500Y-41571D01*
X54162Y-42233D01*
X54076Y-42377D01*
X53714Y-42527D01*
X53304Y-42530D01*
X53304Y-44744D01*
X53359Y-44689D01*
X53450Y-44651D01*
X53549Y-44651D01*
X53888Y-44650D01*
X53950Y-44712D01*
X53950Y-45100D01*
X53312Y-45100D01*
X53312Y-45200D01*
X53950Y-45200D01*
X53950Y-45588D01*
X53888Y-45650D01*
X53888Y-45851D01*
X54112Y-45851D01*
X54112Y-45650D01*
X54050Y-45588D01*
X54050Y-45200D01*
X54050Y-45100D01*
X54050Y-44712D01*
X54112Y-44650D01*
X54233Y-44650D01*
X54233Y-42162D01*
X53571Y-41500D01*
X54233Y-40838D01*
X54377Y-40924D01*
X54527Y-41286D01*
X54530Y-41696D01*
X54377Y-42076D01*
X54233Y-42162D01*
X54233Y-44650D01*
X54451Y-44651D01*
X54550Y-44651D01*
X54641Y-44689D01*
X54711Y-44759D01*
X54749Y-44851D01*
X54750Y-45038D01*
X54688Y-45100D01*
X54050Y-45100D01*
X54050Y-45200D01*
X54688Y-45200D01*
X54750Y-45262D01*
X54749Y-45449D01*
X54711Y-45541D01*
X54641Y-45611D01*
X54550Y-45649D01*
X54451Y-45649D01*
X54112Y-45650D01*
X54112Y-45851D01*
X54550Y-45851D01*
X54641Y-45889D01*
X54672Y-45920D01*
X55051Y-45920D01*
X55051Y-45178D01*
X54946Y-45140D01*
X54869Y-44951D01*
X54859Y-44697D01*
X54946Y-44460D01*
X55051Y-44422D01*
X55429Y-44800D01*
X55051Y-45178D01*
X55051Y-45920D01*
X55215Y-45953D01*
X55354Y-46046D01*
X55458Y-46151D01*
X55541Y-46151D01*
X55645Y-46046D01*
X55785Y-45953D01*
X55786Y-45952D01*
X55786Y-45376D01*
X55651Y-45431D01*
X55397Y-45441D01*
X55160Y-45354D01*
X55122Y-45249D01*
X55500Y-44871D01*
X55571Y-44800D01*
X55500Y-44729D01*
X55122Y-44351D01*
X55160Y-44246D01*
X55349Y-44169D01*
X55388Y-44167D01*
X55388Y-42100D01*
X55049Y-42099D01*
X54950Y-42099D01*
X54859Y-42061D01*
X54789Y-41991D01*
X54751Y-41899D01*
X54750Y-41712D01*
X54812Y-41650D01*
X54812Y-41550D01*
X54750Y-41488D01*
X54751Y-41301D01*
X54789Y-41209D01*
X54859Y-41139D01*
X54950Y-41101D01*
X55049Y-41101D01*
X55388Y-41100D01*
X55450Y-41162D01*
X55450Y-41550D01*
X54812Y-41550D01*
X54812Y-41650D01*
X55450Y-41650D01*
X55450Y-42038D01*
X55388Y-42100D01*
X55388Y-44167D01*
X55603Y-44159D01*
X55786Y-44226D01*
X55786Y-43493D01*
X55819Y-43328D01*
X55870Y-43251D01*
X55870Y-42099D01*
X55612Y-42100D01*
X55550Y-42038D01*
X55550Y-41650D01*
X55550Y-41550D01*
X55550Y-41162D01*
X55612Y-41100D01*
X55870Y-41100D01*
X55870Y-40899D01*
X54950Y-40899D01*
X54859Y-40861D01*
X54789Y-40791D01*
X54751Y-40699D01*
X54751Y-40100D01*
X54789Y-40009D01*
X54859Y-39939D01*
X54951Y-39901D01*
X55371Y-39901D01*
X55371Y-39449D01*
X55132Y-39350D01*
X54950Y-39168D01*
X54851Y-38929D01*
X54851Y-38671D01*
X54950Y-38432D01*
X55082Y-38300D01*
X54950Y-38168D01*
X54851Y-37929D01*
X54851Y-37671D01*
X54950Y-37432D01*
X55132Y-37250D01*
X55371Y-37151D01*
X55540Y-37151D01*
X55736Y-36956D01*
X55736Y-34232D01*
X55319Y-33816D01*
X55500Y-34253D01*
X55499Y-34750D01*
X55309Y-35209D01*
X54957Y-35560D01*
X54497Y-35750D01*
X54190Y-35749D01*
X54256Y-35815D01*
X54233Y-35838D01*
X54377Y-35924D01*
X54527Y-36286D01*
X54530Y-36696D01*
X54377Y-37076D01*
X54233Y-37162D01*
X53571Y-36500D01*
X53500Y-36429D01*
X52838Y-35767D01*
X52924Y-35623D01*
X53286Y-35473D01*
X53454Y-35471D01*
X53190Y-35207D01*
X53000Y-34747D01*
X53001Y-34250D01*
X53191Y-33791D01*
X53543Y-33440D01*
X53959Y-33267D01*
X53595Y-33117D01*
X53271Y-32792D01*
X53095Y-32367D01*
X53095Y-31908D01*
X53271Y-31483D01*
X53596Y-31159D01*
X54021Y-30983D01*
X54480Y-30983D01*
X54905Y-31159D01*
X55229Y-31484D01*
X55405Y-31909D01*
X55405Y-32368D01*
X55312Y-32591D01*
X56470Y-33749D01*
X56516Y-33819D01*
X56517Y-33820D01*
X56517Y-32162D01*
X56373Y-32076D01*
X56223Y-31714D01*
X56220Y-31304D01*
X56373Y-30924D01*
X56517Y-30838D01*
X57179Y-31500D01*
X56517Y-32162D01*
X56517Y-33820D01*
X56563Y-33889D01*
X56596Y-34054D01*
X56596Y-37134D01*
X56562Y-37299D01*
X56470Y-37438D01*
X56469Y-37438D01*
X56469Y-37439D01*
X56149Y-37759D01*
X56149Y-37929D01*
X56050Y-38168D01*
X55918Y-38300D01*
X56050Y-38432D01*
X56149Y-38671D01*
X56149Y-38929D01*
X56050Y-39168D01*
X55868Y-39350D01*
X55629Y-39449D01*
X55371Y-39449D01*
X55371Y-39901D01*
X56050Y-39901D01*
X56141Y-39939D01*
X56147Y-39945D01*
X56285Y-39853D01*
X56450Y-39820D01*
X57054Y-39820D01*
X57054Y-32530D01*
X56674Y-32377D01*
X56588Y-32233D01*
X57250Y-31571D01*
X57250Y-31429D01*
X56588Y-30767D01*
X56674Y-30623D01*
X57036Y-30473D01*
X57446Y-30470D01*
X57826Y-30623D01*
X57912Y-30767D01*
X57250Y-31429D01*
X57250Y-31571D01*
X57912Y-32233D01*
X57826Y-32377D01*
X57464Y-32527D01*
X57054Y-32530D01*
X57054Y-39820D01*
X57370Y-39820D01*
X57535Y-39853D01*
X57606Y-39901D01*
X57620Y-39901D01*
X57711Y-39939D01*
X57781Y-40009D01*
X57819Y-40101D01*
X57819Y-40380D01*
X57927Y-40403D01*
X57952Y-40408D01*
X57983Y-40428D01*
X57983Y-32162D01*
X57321Y-31500D01*
X57983Y-30838D01*
X58127Y-30924D01*
X58277Y-31286D01*
X58280Y-31696D01*
X58127Y-32076D01*
X57983Y-32162D01*
X57983Y-40428D01*
X58072Y-40488D01*
X58159Y-40576D01*
X58162Y-40578D01*
X58242Y-40698D01*
X58270Y-40840D01*
X58270Y-42780D01*
X58291Y-42789D01*
X58361Y-42859D01*
X58399Y-42951D01*
X58399Y-44050D01*
X58361Y-44141D01*
X58291Y-44211D01*
X58270Y-44219D01*
X58270Y-46760D01*
X58242Y-46902D01*
X58162Y-47022D01*
X58159Y-47023D01*
X57282Y-47901D01*
X57300Y-47901D01*
X57391Y-47939D01*
X57461Y-48009D01*
X57499Y-48101D01*
X57499Y-48700D01*
X57461Y-48791D01*
X57391Y-48861D01*
X57299Y-48899D01*
X56200Y-48899D01*
X56200Y-49101D01*
X57300Y-49101D01*
X57391Y-49139D01*
X57461Y-49209D01*
X57499Y-49301D01*
X57499Y-49900D01*
X57461Y-49991D01*
X57391Y-50061D01*
X57299Y-50099D01*
X57118Y-50099D01*
X57100Y-50191D01*
X57100Y-50540D01*
X57111Y-50552D01*
X57125Y-50539D01*
X57142Y-50556D01*
X57166Y-50464D01*
X57303Y-50407D01*
X57509Y-50396D01*
X57704Y-50464D01*
X57728Y-50556D01*
X57435Y-50849D01*
X57364Y-50920D01*
X57435Y-50991D01*
X57728Y-51284D01*
X57704Y-51376D01*
X57567Y-51433D01*
X57361Y-51444D01*
X57166Y-51376D01*
X57142Y-51284D01*
X57125Y-51301D01*
X57111Y-51287D01*
X57030Y-51369D01*
X56835Y-51450D01*
X56624Y-51450D01*
X56624Y-52411D01*
X56643Y-52420D01*
X56746Y-52668D01*
X56754Y-52974D01*
X56643Y-53260D01*
X56624Y-53268D01*
X56525Y-53314D01*
X56525Y-53755D01*
X57361Y-53755D01*
X58343Y-53755D01*
X58343Y-53355D01*
X58055Y-53235D01*
X57834Y-53014D01*
X57715Y-52725D01*
X57715Y-52413D01*
X57799Y-52211D01*
X57799Y-51213D01*
X57506Y-50920D01*
X57799Y-50627D01*
X57891Y-50651D01*
X57948Y-50788D01*
X57959Y-50994D01*
X57891Y-51189D01*
X57799Y-51213D01*
X57799Y-52211D01*
X57835Y-52125D01*
X58056Y-51904D01*
X58345Y-51785D01*
X58657Y-51785D01*
X58945Y-51905D01*
X58988Y-51948D01*
X58988Y-44250D01*
X58801Y-44249D01*
X58709Y-44211D01*
X58639Y-44141D01*
X58601Y-44050D01*
X58601Y-43951D01*
X58600Y-43612D01*
X58662Y-43550D01*
X58662Y-43450D01*
X58600Y-43388D01*
X58601Y-43049D01*
X58601Y-42950D01*
X58639Y-42859D01*
X58709Y-42789D01*
X58801Y-42751D01*
X58988Y-42750D01*
X59050Y-42812D01*
X59050Y-43450D01*
X58662Y-43450D01*
X58662Y-43550D01*
X59050Y-43550D01*
X59050Y-44188D01*
X58988Y-44250D01*
X58988Y-51948D01*
X59166Y-52126D01*
X59285Y-52415D01*
X59285Y-52727D01*
X59165Y-53015D01*
X58944Y-53236D01*
X58655Y-53355D01*
X58343Y-53355D01*
X58343Y-53755D01*
X60164Y-53755D01*
X60164Y-51450D01*
X60010Y-51386D01*
X59986Y-51411D01*
X59894Y-51449D01*
X59235Y-51449D01*
X59144Y-51411D01*
X59074Y-51341D01*
X59036Y-51249D01*
X59036Y-50590D01*
X59074Y-50499D01*
X59135Y-50438D01*
X59135Y-48735D01*
X59168Y-48570D01*
X59212Y-48504D01*
X59212Y-44250D01*
X59150Y-44188D01*
X59150Y-43550D01*
X59150Y-43450D01*
X59150Y-42812D01*
X59212Y-42750D01*
X59399Y-42751D01*
X59491Y-42789D01*
X59561Y-42859D01*
X59599Y-42950D01*
X59599Y-43049D01*
X59600Y-43388D01*
X59538Y-43450D01*
X59150Y-43450D01*
X59150Y-43550D01*
X59538Y-43550D01*
X59600Y-43612D01*
X59599Y-43951D01*
X59599Y-44050D01*
X59561Y-44141D01*
X59491Y-44211D01*
X59399Y-44249D01*
X59212Y-44250D01*
X59212Y-48504D01*
X59261Y-48431D01*
X60851Y-46841D01*
X60851Y-46780D01*
X60672Y-46780D01*
X60641Y-46811D01*
X60549Y-46849D01*
X59450Y-46849D01*
X59359Y-46811D01*
X59289Y-46741D01*
X59251Y-46649D01*
X59251Y-46050D01*
X59289Y-45959D01*
X59359Y-45889D01*
X59451Y-45851D01*
X59888Y-45851D01*
X59888Y-45650D01*
X59549Y-45649D01*
X59450Y-45649D01*
X59359Y-45611D01*
X59289Y-45541D01*
X59251Y-45449D01*
X59250Y-45262D01*
X59312Y-45200D01*
X59312Y-45100D01*
X59250Y-45038D01*
X59251Y-44851D01*
X59289Y-44759D01*
X59359Y-44689D01*
X59450Y-44651D01*
X59549Y-44651D01*
X59888Y-44650D01*
X59950Y-44712D01*
X59950Y-45100D01*
X59312Y-45100D01*
X59312Y-45200D01*
X59950Y-45200D01*
X59950Y-45588D01*
X59888Y-45650D01*
X59888Y-45851D01*
X60354Y-45851D01*
X60354Y-45649D01*
X60112Y-45650D01*
X60050Y-45588D01*
X60050Y-45200D01*
X60050Y-45100D01*
X60050Y-44712D01*
X60112Y-44650D01*
X60354Y-44650D01*
X60354Y-43671D01*
X60052Y-43369D01*
X59959Y-43230D01*
X59926Y-43065D01*
X59926Y-42079D01*
X59879Y-42099D01*
X59380Y-42099D01*
X59289Y-42061D01*
X59219Y-41991D01*
X59181Y-41899D01*
X59181Y-41600D01*
X59219Y-41509D01*
X59227Y-41499D01*
X59219Y-41491D01*
X59181Y-41399D01*
X59181Y-41100D01*
X59219Y-41009D01*
X59227Y-40999D01*
X59219Y-40991D01*
X59181Y-40899D01*
X59181Y-40600D01*
X59219Y-40509D01*
X59228Y-40500D01*
X59219Y-40491D01*
X59181Y-40399D01*
X59181Y-40100D01*
X59219Y-40009D01*
X59289Y-39939D01*
X59381Y-39901D01*
X59880Y-39901D01*
X59954Y-39931D01*
X59954Y-35231D01*
X59668Y-35350D01*
X59330Y-35350D01*
X59018Y-35220D01*
X58779Y-34980D01*
X58650Y-34668D01*
X58650Y-34330D01*
X58780Y-34018D01*
X59020Y-33779D01*
X59330Y-33650D01*
X59330Y-31350D01*
X59018Y-31220D01*
X58779Y-30980D01*
X58650Y-30668D01*
X58650Y-30330D01*
X58780Y-30018D01*
X59020Y-29779D01*
X59332Y-29650D01*
X59670Y-29650D01*
X59982Y-29780D01*
X60221Y-30020D01*
X60350Y-30332D01*
X60350Y-30670D01*
X60220Y-30982D01*
X59980Y-31221D01*
X59668Y-31350D01*
X59330Y-31350D01*
X59330Y-33650D01*
X59670Y-33650D01*
X59982Y-33780D01*
X60104Y-33902D01*
X60104Y-32825D01*
X60008Y-32796D01*
X59944Y-32639D01*
X59932Y-32416D01*
X60008Y-32204D01*
X60104Y-32175D01*
X60429Y-32500D01*
X60104Y-32825D01*
X60104Y-33902D01*
X60121Y-33919D01*
X60416Y-33623D01*
X60416Y-33068D01*
X60204Y-32992D01*
X60175Y-32896D01*
X60500Y-32571D01*
X60500Y-32429D01*
X60175Y-32104D01*
X60204Y-32008D01*
X60361Y-31944D01*
X60584Y-31932D01*
X60796Y-32008D01*
X60825Y-32104D01*
X60500Y-32429D01*
X60500Y-32571D01*
X60825Y-32896D01*
X60796Y-32992D01*
X60639Y-33056D01*
X60416Y-33068D01*
X60416Y-33623D01*
X61019Y-33021D01*
X60964Y-32966D01*
X60926Y-32874D01*
X60926Y-32815D01*
X60896Y-32825D01*
X60571Y-32500D01*
X60896Y-32175D01*
X60926Y-32184D01*
X60926Y-32125D01*
X60964Y-32034D01*
X61034Y-31964D01*
X61126Y-31926D01*
X61875Y-31926D01*
X61966Y-31964D01*
X62036Y-32034D01*
X62074Y-32126D01*
X62074Y-32875D01*
X62036Y-32966D01*
X61966Y-33036D01*
X61874Y-33074D01*
X61868Y-33074D01*
X61842Y-33207D01*
X61762Y-33327D01*
X60694Y-34395D01*
X60694Y-40496D01*
X60689Y-40520D01*
X60751Y-40520D01*
X60751Y-40100D01*
X60789Y-40009D01*
X60859Y-39939D01*
X60951Y-39901D01*
X61371Y-39901D01*
X61371Y-39449D01*
X61132Y-39350D01*
X60950Y-39168D01*
X60851Y-38929D01*
X60851Y-38671D01*
X60950Y-38432D01*
X61082Y-38300D01*
X60950Y-38168D01*
X60851Y-37929D01*
X60851Y-37671D01*
X60950Y-37432D01*
X61132Y-37250D01*
X61371Y-37151D01*
X61629Y-37151D01*
X61868Y-37250D01*
X62050Y-37432D01*
X62149Y-37671D01*
X62149Y-37929D01*
X62050Y-38168D01*
X61917Y-38299D01*
X62050Y-38432D01*
X62149Y-38671D01*
X62149Y-38929D01*
X62050Y-39168D01*
X61868Y-39350D01*
X61629Y-39449D01*
X61371Y-39449D01*
X61371Y-39901D01*
X62050Y-39901D01*
X62141Y-39939D01*
X62211Y-40009D01*
X62249Y-40101D01*
X62249Y-40700D01*
X62211Y-40791D01*
X62141Y-40861D01*
X62049Y-40899D01*
X61930Y-40899D01*
X61930Y-40950D01*
X61899Y-41100D01*
X61951Y-41101D01*
X62050Y-41101D01*
X62141Y-41139D01*
X62211Y-41209D01*
X62249Y-41301D01*
X62250Y-41488D01*
X62188Y-41550D01*
X61550Y-41550D01*
X61450Y-41550D01*
X61450Y-41650D01*
X61450Y-42038D01*
X61388Y-42100D01*
X61049Y-42099D01*
X60950Y-42099D01*
X60859Y-42061D01*
X60789Y-41991D01*
X60786Y-41983D01*
X60786Y-42887D01*
X61088Y-43189D01*
X61181Y-43328D01*
X61214Y-43493D01*
X61214Y-44224D01*
X61349Y-44169D01*
X61603Y-44159D01*
X61612Y-44162D01*
X61612Y-42100D01*
X61550Y-42038D01*
X61550Y-41650D01*
X62188Y-41650D01*
X62250Y-41712D01*
X62249Y-41899D01*
X62211Y-41991D01*
X62141Y-42061D01*
X62050Y-42099D01*
X61951Y-42099D01*
X61612Y-42100D01*
X61612Y-44162D01*
X61840Y-44246D01*
X61878Y-44351D01*
X61500Y-44729D01*
X61429Y-44800D01*
X61500Y-44871D01*
X61878Y-45249D01*
X61840Y-45354D01*
X61651Y-45431D01*
X61397Y-45441D01*
X61214Y-45373D01*
X61214Y-45952D01*
X61215Y-45953D01*
X61354Y-46046D01*
X61459Y-46151D01*
X61540Y-46151D01*
X61646Y-46046D01*
X61785Y-45953D01*
X61949Y-45920D01*
X61949Y-45178D01*
X61571Y-44800D01*
X61949Y-44422D01*
X62054Y-44460D01*
X62131Y-44649D01*
X62141Y-44903D01*
X62054Y-45140D01*
X61949Y-45178D01*
X61949Y-45920D01*
X62328Y-45920D01*
X62359Y-45889D01*
X62451Y-45851D01*
X62888Y-45851D01*
X62888Y-45650D01*
X62549Y-45649D01*
X62450Y-45649D01*
X62359Y-45611D01*
X62289Y-45541D01*
X62251Y-45449D01*
X62250Y-45262D01*
X62312Y-45200D01*
X62312Y-45100D01*
X62250Y-45038D01*
X62251Y-44851D01*
X62289Y-44759D01*
X62359Y-44689D01*
X62450Y-44651D01*
X62549Y-44651D01*
X62767Y-44650D01*
X62767Y-42162D01*
X62623Y-42076D01*
X62473Y-41714D01*
X62470Y-41304D01*
X62623Y-40924D01*
X62767Y-40838D01*
X62767Y-37162D01*
X62623Y-37076D01*
X62473Y-36714D01*
X62470Y-36304D01*
X62623Y-35924D01*
X62767Y-35838D01*
X63429Y-36500D01*
X62767Y-37162D01*
X62767Y-40838D01*
X63429Y-41500D01*
X62767Y-42162D01*
X62767Y-44650D01*
X62888Y-44650D01*
X62950Y-44712D01*
X62950Y-45100D01*
X62312Y-45100D01*
X62312Y-45200D01*
X62950Y-45200D01*
X62950Y-45588D01*
X62888Y-45650D01*
X62888Y-45851D01*
X63112Y-45851D01*
X63112Y-45650D01*
X63050Y-45588D01*
X63050Y-45200D01*
X63330Y-45200D01*
X63330Y-45100D01*
X63050Y-45100D01*
X63050Y-44712D01*
X63112Y-44650D01*
X63304Y-44650D01*
X63304Y-42530D01*
X62924Y-42377D01*
X62838Y-42233D01*
X63500Y-41571D01*
X63500Y-41429D01*
X62838Y-40767D01*
X62924Y-40623D01*
X63286Y-40473D01*
X63304Y-40472D01*
X63304Y-37530D01*
X62924Y-37377D01*
X62838Y-37233D01*
X63500Y-36571D01*
X63500Y-36429D01*
X62838Y-35767D01*
X62924Y-35623D01*
X63286Y-35473D01*
X63330Y-35472D01*
X63330Y-31350D01*
X63018Y-31220D01*
X62779Y-30980D01*
X62650Y-30668D01*
X62650Y-30330D01*
X62780Y-30018D01*
X63020Y-29779D01*
X63332Y-29650D01*
X63670Y-29650D01*
X63982Y-29780D01*
X64221Y-30020D01*
X64350Y-30332D01*
X64350Y-30670D01*
X64220Y-30982D01*
X63980Y-31221D01*
X63668Y-31350D01*
X63330Y-31350D01*
X63330Y-35472D01*
X63696Y-35470D01*
X64076Y-35623D01*
X64162Y-35767D01*
X63500Y-36429D01*
X63500Y-36571D01*
X64162Y-37233D01*
X64076Y-37377D01*
X63714Y-37527D01*
X63330Y-37529D01*
X63304Y-37530D01*
X63304Y-40472D01*
X63330Y-40472D01*
X63696Y-40470D01*
X64076Y-40623D01*
X64162Y-40767D01*
X63500Y-41429D01*
X63500Y-41571D01*
X64162Y-42233D01*
X64076Y-42377D01*
X63714Y-42527D01*
X63330Y-42529D01*
X63304Y-42530D01*
X63304Y-44650D01*
X63330Y-44650D01*
X63451Y-44651D01*
X63550Y-44651D01*
X63641Y-44689D01*
X63711Y-44759D01*
X63749Y-44851D01*
X63750Y-45038D01*
X63688Y-45100D01*
X63330Y-45100D01*
X63330Y-45200D01*
X63688Y-45200D01*
X63750Y-45262D01*
X63749Y-45449D01*
X63711Y-45541D01*
X63641Y-45611D01*
X63550Y-45649D01*
X63330Y-45649D01*
X63112Y-45650D01*
X63112Y-45851D01*
X63550Y-45851D01*
X63641Y-45889D01*
X63711Y-45959D01*
X63749Y-46051D01*
X63749Y-46650D01*
X63711Y-46741D01*
X63641Y-46811D01*
X63549Y-46849D01*
X62450Y-46849D01*
X62359Y-46811D01*
X62328Y-46780D01*
X62149Y-46780D01*
X62149Y-46929D01*
X62050Y-47168D01*
X61868Y-47350D01*
X61629Y-47449D01*
X61459Y-47449D01*
X59995Y-48913D01*
X59995Y-50438D01*
X60010Y-50453D01*
X60165Y-50390D01*
X60376Y-50390D01*
X60571Y-50471D01*
X60719Y-50620D01*
X60800Y-50815D01*
X60800Y-51026D01*
X60719Y-51221D01*
X60570Y-51369D01*
X60375Y-51450D01*
X60164Y-51450D01*
X60164Y-53755D01*
X60863Y-53755D01*
X60863Y-53625D01*
X60575Y-53505D01*
X60354Y-53284D01*
X60235Y-52995D01*
X60235Y-52683D01*
X60355Y-52395D01*
X60576Y-52174D01*
X60865Y-52055D01*
X61177Y-52055D01*
X61465Y-52175D01*
X61686Y-52396D01*
X61805Y-52685D01*
X61805Y-52997D01*
X61685Y-53285D01*
X61464Y-53506D01*
X61175Y-53625D01*
X60863Y-53625D01*
X60863Y-53755D01*
X62767Y-53755D01*
X62767Y-52162D01*
X62623Y-52076D01*
X62473Y-51714D01*
X62470Y-51304D01*
X62623Y-50924D01*
X62767Y-50838D01*
X63429Y-51500D01*
X62767Y-52162D01*
X62767Y-53755D01*
X63304Y-53755D01*
X63304Y-52530D01*
X62924Y-52377D01*
X62838Y-52233D01*
X63500Y-51571D01*
X63500Y-51429D01*
X62838Y-50767D01*
X62924Y-50623D01*
X63286Y-50473D01*
X63696Y-50470D01*
X64076Y-50623D01*
X64162Y-50767D01*
X63500Y-51429D01*
X63500Y-51571D01*
X64162Y-52233D01*
X64076Y-52377D01*
X63714Y-52527D01*
X63304Y-52530D01*
X63304Y-53755D01*
X64505Y-53755D01*
X52495Y-29245D02*
X64505Y-29245D01*
X52495Y-29325D02*
X64505Y-29325D01*
X52495Y-29405D02*
X64505Y-29405D01*
X52495Y-29485D02*
X64505Y-29485D01*
X52495Y-29565D02*
X64505Y-29565D01*
X52495Y-29645D02*
X64505Y-29645D01*
X52495Y-29725D02*
X59151Y-29725D01*
X59850Y-29725D02*
X63151Y-29725D01*
X63850Y-29725D02*
X64505Y-29725D01*
X52495Y-29805D02*
X58994Y-29805D01*
X60007Y-29805D02*
X62994Y-29805D01*
X64007Y-29805D02*
X64505Y-29805D01*
X52495Y-29885D02*
X58914Y-29885D01*
X60087Y-29885D02*
X62914Y-29885D01*
X64087Y-29885D02*
X64505Y-29885D01*
X52495Y-29965D02*
X58834Y-29965D01*
X60167Y-29965D02*
X62834Y-29965D01*
X64167Y-29965D02*
X64505Y-29965D01*
X52495Y-30045D02*
X58769Y-30045D01*
X60232Y-30045D02*
X62769Y-30045D01*
X64232Y-30045D02*
X64505Y-30045D01*
X52495Y-30125D02*
X58736Y-30125D01*
X60265Y-30125D02*
X62736Y-30125D01*
X64265Y-30125D02*
X64505Y-30125D01*
X52495Y-30205D02*
X58703Y-30205D01*
X60298Y-30205D02*
X62703Y-30205D01*
X64298Y-30205D02*
X64505Y-30205D01*
X52495Y-30285D02*
X58669Y-30285D01*
X60331Y-30285D02*
X62669Y-30285D01*
X64331Y-30285D02*
X64505Y-30285D01*
X52495Y-30365D02*
X58650Y-30365D01*
X60350Y-30365D02*
X62650Y-30365D01*
X64350Y-30365D02*
X64505Y-30365D01*
X52495Y-30445D02*
X58650Y-30445D01*
X60350Y-30445D02*
X62650Y-30445D01*
X64350Y-30445D02*
X64505Y-30445D01*
X52495Y-30525D02*
X56911Y-30525D01*
X57583Y-30525D02*
X58650Y-30525D01*
X60350Y-30525D02*
X62650Y-30525D01*
X64350Y-30525D02*
X64505Y-30525D01*
X52495Y-30605D02*
X56718Y-30605D01*
X57782Y-30605D02*
X58650Y-30605D01*
X60350Y-30605D02*
X62650Y-30605D01*
X64350Y-30605D02*
X64505Y-30605D01*
X52495Y-30685D02*
X56637Y-30685D01*
X57864Y-30685D02*
X58657Y-30685D01*
X60343Y-30685D02*
X62657Y-30685D01*
X64343Y-30685D02*
X64505Y-30685D01*
X52495Y-30765D02*
X56590Y-30765D01*
X57911Y-30765D02*
X58690Y-30765D01*
X60310Y-30765D02*
X62690Y-30765D01*
X64310Y-30765D02*
X64505Y-30765D01*
X52495Y-30845D02*
X56506Y-30845D01*
X56524Y-30845D02*
X56666Y-30845D01*
X57834Y-30845D02*
X57976Y-30845D01*
X57995Y-30845D02*
X58723Y-30845D01*
X60277Y-30845D02*
X62723Y-30845D01*
X64277Y-30845D02*
X64505Y-30845D01*
X52495Y-30925D02*
X56373Y-30925D01*
X56604Y-30925D02*
X56746Y-30925D01*
X57754Y-30925D02*
X57896Y-30925D01*
X58128Y-30925D02*
X58756Y-30925D01*
X60243Y-30925D02*
X62756Y-30925D01*
X64243Y-30925D02*
X64505Y-30925D01*
X52495Y-31005D02*
X53968Y-31005D01*
X54534Y-31005D02*
X56341Y-31005D01*
X56684Y-31005D02*
X56826Y-31005D01*
X57674Y-31005D02*
X57816Y-31005D01*
X58161Y-31005D02*
X58803Y-31005D01*
X60196Y-31005D02*
X62803Y-31005D01*
X64196Y-31005D02*
X64505Y-31005D01*
X52495Y-31085D02*
X53775Y-31085D01*
X54727Y-31085D02*
X56309Y-31085D01*
X56764Y-31085D02*
X56906Y-31085D01*
X57594Y-31085D02*
X57736Y-31085D01*
X58194Y-31085D02*
X58883Y-31085D01*
X60116Y-31085D02*
X62883Y-31085D01*
X64116Y-31085D02*
X64505Y-31085D01*
X52495Y-31165D02*
X53590Y-31165D01*
X54911Y-31165D02*
X56276Y-31165D01*
X56844Y-31165D02*
X56986Y-31165D01*
X57514Y-31165D02*
X57656Y-31165D01*
X58227Y-31165D02*
X58963Y-31165D01*
X60036Y-31165D02*
X62963Y-31165D01*
X64036Y-31165D02*
X64505Y-31165D01*
X52495Y-31245D02*
X53510Y-31245D01*
X54991Y-31245D02*
X56244Y-31245D01*
X56924Y-31245D02*
X57066Y-31245D01*
X57434Y-31245D02*
X57576Y-31245D01*
X58261Y-31245D02*
X59078Y-31245D01*
X59921Y-31245D02*
X63078Y-31245D01*
X63921Y-31245D02*
X64505Y-31245D01*
X52495Y-31325D02*
X53430Y-31325D01*
X55071Y-31325D02*
X56220Y-31325D01*
X57004Y-31325D02*
X57146Y-31325D01*
X57354Y-31325D02*
X57496Y-31325D01*
X58278Y-31325D02*
X59270Y-31325D01*
X59728Y-31325D02*
X63270Y-31325D01*
X63728Y-31325D02*
X64505Y-31325D01*
X52495Y-31405D02*
X53350Y-31405D01*
X55151Y-31405D02*
X56220Y-31405D01*
X57084Y-31405D02*
X57226Y-31405D01*
X57274Y-31405D02*
X57416Y-31405D01*
X58278Y-31405D02*
X64505Y-31405D01*
X52495Y-31485D02*
X53271Y-31485D01*
X55230Y-31485D02*
X56221Y-31485D01*
X57164Y-31485D02*
X57336Y-31485D01*
X58279Y-31485D02*
X64505Y-31485D01*
X52495Y-31565D02*
X53238Y-31565D01*
X55263Y-31565D02*
X56221Y-31565D01*
X57114Y-31565D02*
X57386Y-31565D01*
X58280Y-31565D02*
X64505Y-31565D01*
X52495Y-31645D02*
X53204Y-31645D01*
X55296Y-31645D02*
X56222Y-31645D01*
X57034Y-31645D02*
X57176Y-31645D01*
X57324Y-31645D02*
X57466Y-31645D01*
X58280Y-31645D02*
X64505Y-31645D01*
X52495Y-31725D02*
X53171Y-31725D01*
X55329Y-31725D02*
X56227Y-31725D01*
X56954Y-31725D02*
X57096Y-31725D01*
X57404Y-31725D02*
X57546Y-31725D01*
X58268Y-31725D02*
X64505Y-31725D01*
X52495Y-31805D02*
X53138Y-31805D01*
X55362Y-31805D02*
X56260Y-31805D01*
X56874Y-31805D02*
X57016Y-31805D01*
X57484Y-31805D02*
X57626Y-31805D01*
X58236Y-31805D02*
X64505Y-31805D01*
X52495Y-31885D02*
X53105Y-31885D01*
X55396Y-31885D02*
X56293Y-31885D01*
X56794Y-31885D02*
X56936Y-31885D01*
X57564Y-31885D02*
X57706Y-31885D01*
X58203Y-31885D02*
X64505Y-31885D01*
X52495Y-31965D02*
X53095Y-31965D01*
X55405Y-31965D02*
X56327Y-31965D01*
X56714Y-31965D02*
X56856Y-31965D01*
X57644Y-31965D02*
X57786Y-31965D01*
X58171Y-31965D02*
X60310Y-31965D01*
X60677Y-31965D02*
X61033Y-31965D01*
X61967Y-31965D02*
X64505Y-31965D01*
X52495Y-32045D02*
X53095Y-32045D01*
X55405Y-32045D02*
X56360Y-32045D01*
X56634Y-32045D02*
X56776Y-32045D01*
X57724Y-32045D02*
X57866Y-32045D01*
X58139Y-32045D02*
X60193Y-32045D01*
X60808Y-32045D02*
X60960Y-32045D01*
X62041Y-32045D02*
X64505Y-32045D01*
X52495Y-32125D02*
X53095Y-32125D01*
X55405Y-32125D02*
X56455Y-32125D01*
X56554Y-32125D02*
X56696Y-32125D01*
X57804Y-32125D02*
X57946Y-32125D01*
X58044Y-32125D02*
X60196Y-32125D01*
X60804Y-32125D02*
X60926Y-32125D01*
X62074Y-32125D02*
X64505Y-32125D01*
X52495Y-32205D02*
X53095Y-32205D01*
X55405Y-32205D02*
X56616Y-32205D01*
X57884Y-32205D02*
X60008Y-32205D01*
X60134Y-32205D02*
X60276Y-32205D01*
X60724Y-32205D02*
X60866Y-32205D01*
X62074Y-32205D02*
X64505Y-32205D01*
X52495Y-32285D02*
X53095Y-32285D01*
X55405Y-32285D02*
X56619Y-32285D01*
X57880Y-32285D02*
X59979Y-32285D01*
X60214Y-32285D02*
X60356Y-32285D01*
X60644Y-32285D02*
X60786Y-32285D01*
X62074Y-32285D02*
X64505Y-32285D01*
X52495Y-32365D02*
X53095Y-32365D01*
X55405Y-32365D02*
X56666Y-32365D01*
X57833Y-32365D02*
X59951Y-32365D01*
X60294Y-32365D02*
X60436Y-32365D01*
X60564Y-32365D02*
X60706Y-32365D01*
X62074Y-32365D02*
X64505Y-32365D01*
X52495Y-32445D02*
X53127Y-32445D01*
X55372Y-32445D02*
X56842Y-32445D01*
X57661Y-32445D02*
X59933Y-32445D01*
X60374Y-32445D02*
X60626Y-32445D01*
X62074Y-32445D02*
X64505Y-32445D01*
X52495Y-32525D02*
X53160Y-32525D01*
X55339Y-32525D02*
X57041Y-32525D01*
X57468Y-32525D02*
X59937Y-32525D01*
X60404Y-32525D02*
X60596Y-32525D01*
X62074Y-32525D02*
X64505Y-32525D01*
X52495Y-32605D02*
X53193Y-32605D01*
X55326Y-32605D02*
X59942Y-32605D01*
X60324Y-32605D02*
X60466Y-32605D01*
X60534Y-32605D02*
X60676Y-32605D01*
X62074Y-32605D02*
X64505Y-32605D01*
X52495Y-32685D02*
X53226Y-32685D01*
X55406Y-32685D02*
X59962Y-32685D01*
X60244Y-32685D02*
X60386Y-32685D01*
X60614Y-32685D02*
X60756Y-32685D01*
X62074Y-32685D02*
X64505Y-32685D01*
X52495Y-32765D02*
X53259Y-32765D01*
X55486Y-32765D02*
X59995Y-32765D01*
X60164Y-32765D02*
X60306Y-32765D01*
X60694Y-32765D02*
X60836Y-32765D01*
X62074Y-32765D02*
X64505Y-32765D01*
X52495Y-32845D02*
X53323Y-32845D01*
X55566Y-32845D02*
X60226Y-32845D01*
X60774Y-32845D02*
X60926Y-32845D01*
X62074Y-32845D02*
X64505Y-32845D01*
X52495Y-32925D02*
X53403Y-32925D01*
X55646Y-32925D02*
X60183Y-32925D01*
X60816Y-32925D02*
X60947Y-32925D01*
X62053Y-32925D02*
X64505Y-32925D01*
X52495Y-33005D02*
X53483Y-33005D01*
X55726Y-33005D02*
X60240Y-33005D01*
X60764Y-33005D02*
X61003Y-33005D01*
X61997Y-33005D02*
X64505Y-33005D01*
X52495Y-33085D02*
X53563Y-33085D01*
X55806Y-33085D02*
X60955Y-33085D01*
X61865Y-33085D02*
X64505Y-33085D01*
X52495Y-33165D02*
X53711Y-33165D01*
X55886Y-33165D02*
X60875Y-33165D01*
X61850Y-33165D02*
X64505Y-33165D01*
X52495Y-33245D02*
X53905Y-33245D01*
X55966Y-33245D02*
X60795Y-33245D01*
X61816Y-33245D02*
X64505Y-33245D01*
X52495Y-33325D02*
X53820Y-33325D01*
X56046Y-33325D02*
X60715Y-33325D01*
X61763Y-33325D02*
X64505Y-33325D01*
X52495Y-33405D02*
X53628Y-33405D01*
X56126Y-33405D02*
X60635Y-33405D01*
X61684Y-33405D02*
X64505Y-33405D01*
X52495Y-33485D02*
X53498Y-33485D01*
X56206Y-33485D02*
X60555Y-33485D01*
X61604Y-33485D02*
X64505Y-33485D01*
X52495Y-33565D02*
X53418Y-33565D01*
X56286Y-33565D02*
X60475Y-33565D01*
X61524Y-33565D02*
X64505Y-33565D01*
X52495Y-33645D02*
X53338Y-33645D01*
X56366Y-33645D02*
X60395Y-33645D01*
X61444Y-33645D02*
X64505Y-33645D01*
X52495Y-33725D02*
X53258Y-33725D01*
X56446Y-33725D02*
X59150Y-33725D01*
X59850Y-33725D02*
X60315Y-33725D01*
X61364Y-33725D02*
X64505Y-33725D01*
X52495Y-33805D02*
X53186Y-33805D01*
X56507Y-33805D02*
X58994Y-33805D01*
X60007Y-33805D02*
X60235Y-33805D01*
X61284Y-33805D02*
X64505Y-33805D01*
X52495Y-33885D02*
X53153Y-33885D01*
X55348Y-33885D02*
X55388Y-33885D01*
X56561Y-33885D02*
X58914Y-33885D01*
X60087Y-33885D02*
X60155Y-33885D01*
X61204Y-33885D02*
X64505Y-33885D01*
X52495Y-33965D02*
X53119Y-33965D01*
X55381Y-33965D02*
X55468Y-33965D01*
X56579Y-33965D02*
X58834Y-33965D01*
X61124Y-33965D02*
X64505Y-33965D01*
X52495Y-34045D02*
X53086Y-34045D01*
X55414Y-34045D02*
X55548Y-34045D01*
X56595Y-34045D02*
X58769Y-34045D01*
X61044Y-34045D02*
X64505Y-34045D01*
X52495Y-34125D02*
X53053Y-34125D01*
X55447Y-34125D02*
X55628Y-34125D01*
X56596Y-34125D02*
X58736Y-34125D01*
X60964Y-34125D02*
X64505Y-34125D01*
X52495Y-34205D02*
X53020Y-34205D01*
X55481Y-34205D02*
X55708Y-34205D01*
X56596Y-34205D02*
X58703Y-34205D01*
X60884Y-34205D02*
X64505Y-34205D01*
X52495Y-34285D02*
X53001Y-34285D01*
X55499Y-34285D02*
X55736Y-34285D01*
X56596Y-34285D02*
X58669Y-34285D01*
X60804Y-34285D02*
X64505Y-34285D01*
X52495Y-34365D02*
X53001Y-34365D01*
X55499Y-34365D02*
X55736Y-34365D01*
X56596Y-34365D02*
X58650Y-34365D01*
X60724Y-34365D02*
X64505Y-34365D01*
X52495Y-34445D02*
X53001Y-34445D01*
X55499Y-34445D02*
X55736Y-34445D01*
X56596Y-34445D02*
X58650Y-34445D01*
X60694Y-34445D02*
X64505Y-34445D01*
X52495Y-34525D02*
X53001Y-34525D01*
X55499Y-34525D02*
X55736Y-34525D01*
X56596Y-34525D02*
X58650Y-34525D01*
X60694Y-34525D02*
X64505Y-34525D01*
X52495Y-34605D02*
X53001Y-34605D01*
X55499Y-34605D02*
X55736Y-34605D01*
X56596Y-34605D02*
X58650Y-34605D01*
X60694Y-34605D02*
X64505Y-34605D01*
X52495Y-34685D02*
X53001Y-34685D01*
X55499Y-34685D02*
X55736Y-34685D01*
X56596Y-34685D02*
X58657Y-34685D01*
X60694Y-34685D02*
X64505Y-34685D01*
X52495Y-34765D02*
X53007Y-34765D01*
X55492Y-34765D02*
X55736Y-34765D01*
X56596Y-34765D02*
X58690Y-34765D01*
X60694Y-34765D02*
X64505Y-34765D01*
X52495Y-34845D02*
X53040Y-34845D01*
X55459Y-34845D02*
X55736Y-34845D01*
X56596Y-34845D02*
X58723Y-34845D01*
X60694Y-34845D02*
X64505Y-34845D01*
X52495Y-34925D02*
X53073Y-34925D01*
X55426Y-34925D02*
X55736Y-34925D01*
X56596Y-34925D02*
X58756Y-34925D01*
X60694Y-34925D02*
X64505Y-34925D01*
X52495Y-35005D02*
X53106Y-35005D01*
X55393Y-35005D02*
X55736Y-35005D01*
X56596Y-35005D02*
X58803Y-35005D01*
X60694Y-35005D02*
X64505Y-35005D01*
X52495Y-35085D02*
X53139Y-35085D01*
X55360Y-35085D02*
X55736Y-35085D01*
X56596Y-35085D02*
X58883Y-35085D01*
X60694Y-35085D02*
X64505Y-35085D01*
X52495Y-35165D02*
X53172Y-35165D01*
X55327Y-35165D02*
X55736Y-35165D01*
X56596Y-35165D02*
X58963Y-35165D01*
X60694Y-35165D02*
X64505Y-35165D01*
X52495Y-35245D02*
X53228Y-35245D01*
X55272Y-35245D02*
X55736Y-35245D01*
X56596Y-35245D02*
X59078Y-35245D01*
X59920Y-35245D02*
X59954Y-35245D01*
X60694Y-35245D02*
X64505Y-35245D01*
X52495Y-35325D02*
X53308Y-35325D01*
X55192Y-35325D02*
X55736Y-35325D01*
X56596Y-35325D02*
X59270Y-35325D01*
X59728Y-35325D02*
X59954Y-35325D01*
X60694Y-35325D02*
X64505Y-35325D01*
X52495Y-35405D02*
X53388Y-35405D01*
X55112Y-35405D02*
X55736Y-35405D01*
X56596Y-35405D02*
X59954Y-35405D01*
X60694Y-35405D02*
X64505Y-35405D01*
X52495Y-35485D02*
X53258Y-35485D01*
X55032Y-35485D02*
X55736Y-35485D01*
X56596Y-35485D02*
X59954Y-35485D01*
X60694Y-35485D02*
X63258Y-35485D01*
X63734Y-35485D02*
X64505Y-35485D01*
X52495Y-35565D02*
X53064Y-35565D01*
X54944Y-35565D02*
X55736Y-35565D01*
X56596Y-35565D02*
X59954Y-35565D01*
X60694Y-35565D02*
X63064Y-35565D01*
X63932Y-35565D02*
X64505Y-35565D01*
X52495Y-35645D02*
X52911Y-35645D01*
X54751Y-35645D02*
X55736Y-35645D01*
X56596Y-35645D02*
X59954Y-35645D01*
X60694Y-35645D02*
X62911Y-35645D01*
X64090Y-35645D02*
X64505Y-35645D01*
X52495Y-35725D02*
X52864Y-35725D01*
X54557Y-35725D02*
X55736Y-35725D01*
X56596Y-35725D02*
X59954Y-35725D01*
X60694Y-35725D02*
X62864Y-35725D01*
X64137Y-35725D02*
X64505Y-35725D01*
X52495Y-35805D02*
X52876Y-35805D01*
X54246Y-35805D02*
X55736Y-35805D01*
X56596Y-35805D02*
X59954Y-35805D01*
X60694Y-35805D02*
X62876Y-35805D01*
X64124Y-35805D02*
X64505Y-35805D01*
X52495Y-35885D02*
X52689Y-35885D01*
X52814Y-35885D02*
X52956Y-35885D01*
X54312Y-35885D02*
X55736Y-35885D01*
X56596Y-35885D02*
X59954Y-35885D01*
X60694Y-35885D02*
X62689Y-35885D01*
X62814Y-35885D02*
X62956Y-35885D01*
X64044Y-35885D02*
X64186Y-35885D01*
X64312Y-35885D02*
X64505Y-35885D01*
X52495Y-35965D02*
X52607Y-35965D01*
X52894Y-35965D02*
X53036Y-35965D01*
X54394Y-35965D02*
X55736Y-35965D01*
X56596Y-35965D02*
X59954Y-35965D01*
X60694Y-35965D02*
X62607Y-35965D01*
X62894Y-35965D02*
X63036Y-35965D01*
X63964Y-35965D02*
X64106Y-35965D01*
X64395Y-35965D02*
X64505Y-35965D01*
X52495Y-36045D02*
X52575Y-36045D01*
X52974Y-36045D02*
X53116Y-36045D01*
X54428Y-36045D02*
X55736Y-36045D01*
X56596Y-36045D02*
X59954Y-36045D01*
X60694Y-36045D02*
X62575Y-36045D01*
X62974Y-36045D02*
X63116Y-36045D01*
X63884Y-36045D02*
X64026Y-36045D01*
X64428Y-36045D02*
X64505Y-36045D01*
X52495Y-36125D02*
X52542Y-36125D01*
X53054Y-36125D02*
X53196Y-36125D01*
X54461Y-36125D02*
X55736Y-36125D01*
X56596Y-36125D02*
X59954Y-36125D01*
X60694Y-36125D02*
X62543Y-36125D01*
X63054Y-36125D02*
X63196Y-36125D01*
X63804Y-36125D02*
X63946Y-36125D01*
X64461Y-36125D02*
X64505Y-36125D01*
X52495Y-36205D02*
X52510Y-36205D01*
X53134Y-36205D02*
X53276Y-36205D01*
X54494Y-36205D02*
X55736Y-36205D01*
X56596Y-36205D02*
X59954Y-36205D01*
X60694Y-36205D02*
X62510Y-36205D01*
X63134Y-36205D02*
X63276Y-36205D01*
X63724Y-36205D02*
X63866Y-36205D01*
X64494Y-36205D02*
X64505Y-36205D01*
X53214Y-36285D02*
X53356Y-36285D01*
X54527Y-36285D02*
X55736Y-36285D01*
X56596Y-36285D02*
X59954Y-36285D01*
X60694Y-36285D02*
X62478Y-36285D01*
X63214Y-36285D02*
X63356Y-36285D01*
X63644Y-36285D02*
X63786Y-36285D01*
X53294Y-36365D02*
X53436Y-36365D01*
X54528Y-36365D02*
X55736Y-36365D01*
X56596Y-36365D02*
X59954Y-36365D01*
X60694Y-36365D02*
X62470Y-36365D01*
X63294Y-36365D02*
X63436Y-36365D01*
X63564Y-36365D02*
X63706Y-36365D01*
X53374Y-36445D02*
X53516Y-36445D01*
X54529Y-36445D02*
X55736Y-36445D01*
X56596Y-36445D02*
X59954Y-36445D01*
X60694Y-36445D02*
X62471Y-36445D01*
X63374Y-36445D02*
X63626Y-36445D01*
X53404Y-36525D02*
X53596Y-36525D01*
X54529Y-36525D02*
X55736Y-36525D01*
X56596Y-36525D02*
X59954Y-36525D01*
X60694Y-36525D02*
X62471Y-36525D01*
X63404Y-36525D02*
X63596Y-36525D01*
X53324Y-36605D02*
X53466Y-36605D01*
X53534Y-36605D02*
X53676Y-36605D01*
X54530Y-36605D02*
X55736Y-36605D01*
X56596Y-36605D02*
X59954Y-36605D01*
X60694Y-36605D02*
X62472Y-36605D01*
X63324Y-36605D02*
X63466Y-36605D01*
X63534Y-36605D02*
X63676Y-36605D01*
X53244Y-36685D02*
X53386Y-36685D01*
X53614Y-36685D02*
X53756Y-36685D01*
X54530Y-36685D02*
X55736Y-36685D01*
X56596Y-36685D02*
X59954Y-36685D01*
X60694Y-36685D02*
X62472Y-36685D01*
X63244Y-36685D02*
X63386Y-36685D01*
X63614Y-36685D02*
X63756Y-36685D01*
X53164Y-36765D02*
X53306Y-36765D01*
X53694Y-36765D02*
X53836Y-36765D01*
X54502Y-36765D02*
X55736Y-36765D01*
X56596Y-36765D02*
X59954Y-36765D01*
X60694Y-36765D02*
X62494Y-36765D01*
X63164Y-36765D02*
X63306Y-36765D01*
X63694Y-36765D02*
X63836Y-36765D01*
X64502Y-36765D02*
X64505Y-36765D01*
X52495Y-36845D02*
X52527Y-36845D01*
X53084Y-36845D02*
X53226Y-36845D01*
X53774Y-36845D02*
X53916Y-36845D01*
X54470Y-36845D02*
X55736Y-36845D01*
X56596Y-36845D02*
X59954Y-36845D01*
X60694Y-36845D02*
X62527Y-36845D01*
X63084Y-36845D02*
X63226Y-36845D01*
X63774Y-36845D02*
X63916Y-36845D01*
X64469Y-36845D02*
X64505Y-36845D01*
X52495Y-36925D02*
X52560Y-36925D01*
X53004Y-36925D02*
X53146Y-36925D01*
X53854Y-36925D02*
X53996Y-36925D01*
X54437Y-36925D02*
X55736Y-36925D01*
X56596Y-36925D02*
X59954Y-36925D01*
X60694Y-36925D02*
X62560Y-36925D01*
X63004Y-36925D02*
X63146Y-36925D01*
X63854Y-36925D02*
X63996Y-36925D01*
X64437Y-36925D02*
X64505Y-36925D01*
X52495Y-37005D02*
X52593Y-37005D01*
X52924Y-37005D02*
X53066Y-37005D01*
X53934Y-37005D02*
X54076Y-37005D01*
X54405Y-37005D02*
X55687Y-37005D01*
X56596Y-37005D02*
X59954Y-37005D01*
X60694Y-37005D02*
X62593Y-37005D01*
X62924Y-37005D02*
X63066Y-37005D01*
X63934Y-37005D02*
X64076Y-37005D01*
X64405Y-37005D02*
X64505Y-37005D01*
X52495Y-37085D02*
X52638Y-37085D01*
X52844Y-37085D02*
X52986Y-37085D01*
X54014Y-37085D02*
X54156Y-37085D01*
X54361Y-37085D02*
X55607Y-37085D01*
X56596Y-37085D02*
X59954Y-37085D01*
X60694Y-37085D02*
X62638Y-37085D01*
X62844Y-37085D02*
X62986Y-37085D01*
X64014Y-37085D02*
X64156Y-37085D01*
X64361Y-37085D02*
X64505Y-37085D01*
X52495Y-37165D02*
X52906Y-37165D01*
X54094Y-37165D02*
X55338Y-37165D01*
X56589Y-37165D02*
X59954Y-37165D01*
X60694Y-37165D02*
X61338Y-37165D01*
X61663Y-37165D02*
X62906Y-37165D01*
X64094Y-37165D02*
X64505Y-37165D01*
X52495Y-37245D02*
X52845Y-37245D01*
X54154Y-37245D02*
X55145Y-37245D01*
X56573Y-37245D02*
X59954Y-37245D01*
X60694Y-37245D02*
X61145Y-37245D01*
X61856Y-37245D02*
X62845Y-37245D01*
X64154Y-37245D02*
X64505Y-37245D01*
X52495Y-37325D02*
X52892Y-37325D01*
X54107Y-37325D02*
X55057Y-37325D01*
X56544Y-37325D02*
X59954Y-37325D01*
X60694Y-37325D02*
X61057Y-37325D01*
X61943Y-37325D02*
X62892Y-37325D01*
X64107Y-37325D02*
X64505Y-37325D01*
X52495Y-37405D02*
X52993Y-37405D01*
X54008Y-37405D02*
X54977Y-37405D01*
X56491Y-37405D02*
X59954Y-37405D01*
X60694Y-37405D02*
X60977Y-37405D01*
X62023Y-37405D02*
X62993Y-37405D01*
X64008Y-37405D02*
X64505Y-37405D01*
X52495Y-37485D02*
X53192Y-37485D01*
X53815Y-37485D02*
X54929Y-37485D01*
X56423Y-37485D02*
X59954Y-37485D01*
X60694Y-37485D02*
X60929Y-37485D01*
X62072Y-37485D02*
X63192Y-37485D01*
X63815Y-37485D02*
X64505Y-37485D01*
X52495Y-37565D02*
X54895Y-37565D01*
X56343Y-37565D02*
X59954Y-37565D01*
X60694Y-37565D02*
X60895Y-37565D01*
X62106Y-37565D02*
X64505Y-37565D01*
X52495Y-37645D02*
X54862Y-37645D01*
X56263Y-37645D02*
X59954Y-37645D01*
X60694Y-37645D02*
X60862Y-37645D01*
X62139Y-37645D02*
X64505Y-37645D01*
X52495Y-37725D02*
X54851Y-37725D01*
X56183Y-37725D02*
X59954Y-37725D01*
X60694Y-37725D02*
X60851Y-37725D01*
X62149Y-37725D02*
X64505Y-37725D01*
X52495Y-37805D02*
X54851Y-37805D01*
X56149Y-37805D02*
X59954Y-37805D01*
X60694Y-37805D02*
X60851Y-37805D01*
X62149Y-37805D02*
X64505Y-37805D01*
X52495Y-37885D02*
X54851Y-37885D01*
X56149Y-37885D02*
X59954Y-37885D01*
X60694Y-37885D02*
X60851Y-37885D01*
X62149Y-37885D02*
X64505Y-37885D01*
X52495Y-37965D02*
X54865Y-37965D01*
X56134Y-37965D02*
X59954Y-37965D01*
X60694Y-37965D02*
X60865Y-37965D01*
X62134Y-37965D02*
X64505Y-37965D01*
X52495Y-38045D02*
X54899Y-38045D01*
X56100Y-38045D02*
X59954Y-38045D01*
X60694Y-38045D02*
X60899Y-38045D01*
X62100Y-38045D02*
X64505Y-38045D01*
X52495Y-38125D02*
X54932Y-38125D01*
X56067Y-38125D02*
X59954Y-38125D01*
X60694Y-38125D02*
X60932Y-38125D01*
X62067Y-38125D02*
X64505Y-38125D01*
X52495Y-38205D02*
X54987Y-38205D01*
X56013Y-38205D02*
X59954Y-38205D01*
X60694Y-38205D02*
X60987Y-38205D01*
X62012Y-38205D02*
X64505Y-38205D01*
X52495Y-38285D02*
X55067Y-38285D01*
X55933Y-38285D02*
X59954Y-38285D01*
X60694Y-38285D02*
X61067Y-38285D01*
X61931Y-38285D02*
X64505Y-38285D01*
X52495Y-38365D02*
X55017Y-38365D01*
X55983Y-38365D02*
X59954Y-38365D01*
X60694Y-38365D02*
X61017Y-38365D01*
X61983Y-38365D02*
X64505Y-38365D01*
X52495Y-38445D02*
X54945Y-38445D01*
X56056Y-38445D02*
X59954Y-38445D01*
X60694Y-38445D02*
X60945Y-38445D01*
X62056Y-38445D02*
X64505Y-38445D01*
X52495Y-38525D02*
X54912Y-38525D01*
X56089Y-38525D02*
X59954Y-38525D01*
X60694Y-38525D02*
X60912Y-38525D01*
X62089Y-38525D02*
X64505Y-38525D01*
X52495Y-38605D02*
X54879Y-38605D01*
X56122Y-38605D02*
X59954Y-38605D01*
X60694Y-38605D02*
X60879Y-38605D01*
X62122Y-38605D02*
X64505Y-38605D01*
X52495Y-38685D02*
X54851Y-38685D01*
X56149Y-38685D02*
X59954Y-38685D01*
X60694Y-38685D02*
X60851Y-38685D01*
X62149Y-38685D02*
X64505Y-38685D01*
X52495Y-38765D02*
X54851Y-38765D01*
X56149Y-38765D02*
X59954Y-38765D01*
X60694Y-38765D02*
X60851Y-38765D01*
X62149Y-38765D02*
X64505Y-38765D01*
X52495Y-38845D02*
X54851Y-38845D01*
X56149Y-38845D02*
X59954Y-38845D01*
X60694Y-38845D02*
X60851Y-38845D01*
X62149Y-38845D02*
X64505Y-38845D01*
X52495Y-38925D02*
X54851Y-38925D01*
X56149Y-38925D02*
X59954Y-38925D01*
X60694Y-38925D02*
X60851Y-38925D01*
X62149Y-38925D02*
X64505Y-38925D01*
X52495Y-39005D02*
X54882Y-39005D01*
X56117Y-39005D02*
X59954Y-39005D01*
X60694Y-39005D02*
X60882Y-39005D01*
X62117Y-39005D02*
X64505Y-39005D01*
X52495Y-39085D02*
X54915Y-39085D01*
X56084Y-39085D02*
X59954Y-39085D01*
X60694Y-39085D02*
X60915Y-39085D01*
X62084Y-39085D02*
X64505Y-39085D01*
X52495Y-39165D02*
X54948Y-39165D01*
X56051Y-39165D02*
X59954Y-39165D01*
X60694Y-39165D02*
X60948Y-39165D01*
X62051Y-39165D02*
X64505Y-39165D01*
X52495Y-39245D02*
X55027Y-39245D01*
X55973Y-39245D02*
X59954Y-39245D01*
X60694Y-39245D02*
X61027Y-39245D01*
X61973Y-39245D02*
X64505Y-39245D01*
X52495Y-39325D02*
X55107Y-39325D01*
X55893Y-39325D02*
X59954Y-39325D01*
X60694Y-39325D02*
X61107Y-39325D01*
X61893Y-39325D02*
X64505Y-39325D01*
X52495Y-39405D02*
X55264Y-39405D01*
X55735Y-39405D02*
X59954Y-39405D01*
X60694Y-39405D02*
X61264Y-39405D01*
X61735Y-39405D02*
X64505Y-39405D01*
X52495Y-39485D02*
X59954Y-39485D01*
X60694Y-39485D02*
X64505Y-39485D01*
X52495Y-39565D02*
X59954Y-39565D01*
X60694Y-39565D02*
X64505Y-39565D01*
X52495Y-39645D02*
X59954Y-39645D01*
X60694Y-39645D02*
X64505Y-39645D01*
X52495Y-39725D02*
X59954Y-39725D01*
X60694Y-39725D02*
X64505Y-39725D01*
X52495Y-39805D02*
X59954Y-39805D01*
X60694Y-39805D02*
X64505Y-39805D01*
X52495Y-39885D02*
X56237Y-39885D01*
X57583Y-39885D02*
X59954Y-39885D01*
X60694Y-39885D02*
X64505Y-39885D01*
X52495Y-39965D02*
X54833Y-39965D01*
X57737Y-39965D02*
X59263Y-39965D01*
X60694Y-39965D02*
X60833Y-39965D01*
X62167Y-39965D02*
X64505Y-39965D01*
X52495Y-40045D02*
X54774Y-40045D01*
X57796Y-40045D02*
X59204Y-40045D01*
X60694Y-40045D02*
X60774Y-40045D01*
X62226Y-40045D02*
X64505Y-40045D01*
X52495Y-40125D02*
X54751Y-40125D01*
X57819Y-40125D02*
X59181Y-40125D01*
X60694Y-40125D02*
X60751Y-40125D01*
X62249Y-40125D02*
X64505Y-40125D01*
X52495Y-40205D02*
X54751Y-40205D01*
X57819Y-40205D02*
X59181Y-40205D01*
X60694Y-40205D02*
X60751Y-40205D01*
X62249Y-40205D02*
X64505Y-40205D01*
X52495Y-40285D02*
X54751Y-40285D01*
X57819Y-40285D02*
X59181Y-40285D01*
X60694Y-40285D02*
X60751Y-40285D01*
X62249Y-40285D02*
X64505Y-40285D01*
X52495Y-40365D02*
X54751Y-40365D01*
X57819Y-40365D02*
X59181Y-40365D01*
X60694Y-40365D02*
X60751Y-40365D01*
X62249Y-40365D02*
X64505Y-40365D01*
X52495Y-40445D02*
X54751Y-40445D01*
X58009Y-40445D02*
X59200Y-40445D01*
X60694Y-40445D02*
X60751Y-40445D01*
X62249Y-40445D02*
X64505Y-40445D01*
X52495Y-40525D02*
X53161Y-40525D01*
X53833Y-40525D02*
X54751Y-40525D01*
X58109Y-40525D02*
X59213Y-40525D01*
X62249Y-40525D02*
X63161Y-40525D01*
X63833Y-40525D02*
X64505Y-40525D01*
X52495Y-40605D02*
X52968Y-40605D01*
X54032Y-40605D02*
X54751Y-40605D01*
X58180Y-40605D02*
X59181Y-40605D01*
X62249Y-40605D02*
X62968Y-40605D01*
X64032Y-40605D02*
X64505Y-40605D01*
X52495Y-40685D02*
X52887Y-40685D01*
X54114Y-40685D02*
X54751Y-40685D01*
X58234Y-40685D02*
X59181Y-40685D01*
X62249Y-40685D02*
X62887Y-40685D01*
X64114Y-40685D02*
X64505Y-40685D01*
X52495Y-40765D02*
X52840Y-40765D01*
X54161Y-40765D02*
X54778Y-40765D01*
X58256Y-40765D02*
X59181Y-40765D01*
X62221Y-40765D02*
X62840Y-40765D01*
X64161Y-40765D02*
X64505Y-40765D01*
X52495Y-40845D02*
X52756Y-40845D01*
X52774Y-40845D02*
X52916Y-40845D01*
X54084Y-40845D02*
X54226Y-40845D01*
X54245Y-40845D02*
X54843Y-40845D01*
X58270Y-40845D02*
X59181Y-40845D01*
X62157Y-40845D02*
X62756Y-40845D01*
X62774Y-40845D02*
X62916Y-40845D01*
X64084Y-40845D02*
X64226Y-40845D01*
X64245Y-40845D02*
X64505Y-40845D01*
X52495Y-40925D02*
X52623Y-40925D01*
X52854Y-40925D02*
X52996Y-40925D01*
X54004Y-40925D02*
X54146Y-40925D01*
X54378Y-40925D02*
X55870Y-40925D01*
X58270Y-40925D02*
X59191Y-40925D01*
X61930Y-40925D02*
X62623Y-40925D01*
X62854Y-40925D02*
X62996Y-40925D01*
X64004Y-40925D02*
X64146Y-40925D01*
X64378Y-40925D02*
X64505Y-40925D01*
X52495Y-41005D02*
X52591Y-41005D01*
X52934Y-41005D02*
X53076Y-41005D01*
X53924Y-41005D02*
X54066Y-41005D01*
X54411Y-41005D02*
X55870Y-41005D01*
X58270Y-41005D02*
X59223Y-41005D01*
X61918Y-41005D02*
X62591Y-41005D01*
X62934Y-41005D02*
X63076Y-41005D01*
X63924Y-41005D02*
X64066Y-41005D01*
X64411Y-41005D02*
X64505Y-41005D01*
X52495Y-41085D02*
X52558Y-41085D01*
X53014Y-41085D02*
X53156Y-41085D01*
X53844Y-41085D02*
X53986Y-41085D01*
X54444Y-41085D02*
X55870Y-41085D01*
X58270Y-41085D02*
X59188Y-41085D01*
X61902Y-41085D02*
X62559Y-41085D01*
X63014Y-41085D02*
X63156Y-41085D01*
X63844Y-41085D02*
X63986Y-41085D01*
X64444Y-41085D02*
X64505Y-41085D01*
X52495Y-41165D02*
X52526Y-41165D01*
X53094Y-41165D02*
X53236Y-41165D01*
X53764Y-41165D02*
X53906Y-41165D01*
X54477Y-41165D02*
X54833Y-41165D01*
X55450Y-41165D02*
X55550Y-41165D01*
X58270Y-41165D02*
X59181Y-41165D01*
X62167Y-41165D02*
X62526Y-41165D01*
X63094Y-41165D02*
X63236Y-41165D01*
X63764Y-41165D02*
X63906Y-41165D01*
X64478Y-41165D02*
X64505Y-41165D01*
X53174Y-41245D02*
X53316Y-41245D01*
X53684Y-41245D02*
X53826Y-41245D01*
X54511Y-41245D02*
X54775Y-41245D01*
X55450Y-41245D02*
X55550Y-41245D01*
X58270Y-41245D02*
X59181Y-41245D01*
X62226Y-41245D02*
X62494Y-41245D01*
X63174Y-41245D02*
X63316Y-41245D01*
X63684Y-41245D02*
X63826Y-41245D01*
X53254Y-41325D02*
X53396Y-41325D01*
X53604Y-41325D02*
X53746Y-41325D01*
X54528Y-41325D02*
X54751Y-41325D01*
X55450Y-41325D02*
X55550Y-41325D01*
X58270Y-41325D02*
X59181Y-41325D01*
X62250Y-41325D02*
X62470Y-41325D01*
X63254Y-41325D02*
X63396Y-41325D01*
X63604Y-41325D02*
X63746Y-41325D01*
X53334Y-41405D02*
X53476Y-41405D01*
X53524Y-41405D02*
X53666Y-41405D01*
X54528Y-41405D02*
X54751Y-41405D01*
X55450Y-41405D02*
X55550Y-41405D01*
X58270Y-41405D02*
X59183Y-41405D01*
X62250Y-41405D02*
X62470Y-41405D01*
X63334Y-41405D02*
X63476Y-41405D01*
X63524Y-41405D02*
X63666Y-41405D01*
X53414Y-41485D02*
X53586Y-41485D01*
X54529Y-41485D02*
X54751Y-41485D01*
X55450Y-41485D02*
X55550Y-41485D01*
X58270Y-41485D02*
X59216Y-41485D01*
X62250Y-41485D02*
X62471Y-41485D01*
X63414Y-41485D02*
X63586Y-41485D01*
X53364Y-41565D02*
X53636Y-41565D01*
X54530Y-41565D02*
X55550Y-41565D01*
X58270Y-41565D02*
X59196Y-41565D01*
X61450Y-41565D02*
X62471Y-41565D01*
X63364Y-41565D02*
X63636Y-41565D01*
X53284Y-41645D02*
X53426Y-41645D01*
X53574Y-41645D02*
X53716Y-41645D01*
X54530Y-41645D02*
X55550Y-41645D01*
X58270Y-41645D02*
X59181Y-41645D01*
X61450Y-41645D02*
X62472Y-41645D01*
X63284Y-41645D02*
X63426Y-41645D01*
X63574Y-41645D02*
X63716Y-41645D01*
X53204Y-41725D02*
X53346Y-41725D01*
X53654Y-41725D02*
X53796Y-41725D01*
X54518Y-41725D02*
X54750Y-41725D01*
X55450Y-41725D02*
X55550Y-41725D01*
X58270Y-41725D02*
X59181Y-41725D01*
X61450Y-41725D02*
X61550Y-41725D01*
X62249Y-41725D02*
X62477Y-41725D01*
X63204Y-41725D02*
X63346Y-41725D01*
X63654Y-41725D02*
X63796Y-41725D01*
X52495Y-41805D02*
X52510Y-41805D01*
X53124Y-41805D02*
X53266Y-41805D01*
X53734Y-41805D02*
X53876Y-41805D01*
X54486Y-41805D02*
X54750Y-41805D01*
X55450Y-41805D02*
X55550Y-41805D01*
X58270Y-41805D02*
X59181Y-41805D01*
X61450Y-41805D02*
X61550Y-41805D01*
X62249Y-41805D02*
X62510Y-41805D01*
X63124Y-41805D02*
X63266Y-41805D01*
X63734Y-41805D02*
X63876Y-41805D01*
X64486Y-41805D02*
X64505Y-41805D01*
X52495Y-41885D02*
X52543Y-41885D01*
X53044Y-41885D02*
X53186Y-41885D01*
X53814Y-41885D02*
X53956Y-41885D01*
X54453Y-41885D02*
X54750Y-41885D01*
X55450Y-41885D02*
X55550Y-41885D01*
X58270Y-41885D02*
X59181Y-41885D01*
X61450Y-41885D02*
X61550Y-41885D01*
X62249Y-41885D02*
X62543Y-41885D01*
X63044Y-41885D02*
X63186Y-41885D01*
X63814Y-41885D02*
X63956Y-41885D01*
X64453Y-41885D02*
X64505Y-41885D01*
X52495Y-41965D02*
X52577Y-41965D01*
X52964Y-41965D02*
X53106Y-41965D01*
X53894Y-41965D02*
X54036Y-41965D01*
X54421Y-41965D02*
X54778Y-41965D01*
X55450Y-41965D02*
X55550Y-41965D01*
X58270Y-41965D02*
X59208Y-41965D01*
X61450Y-41965D02*
X61550Y-41965D01*
X62221Y-41965D02*
X62577Y-41965D01*
X62964Y-41965D02*
X63106Y-41965D01*
X63894Y-41965D02*
X64036Y-41965D01*
X64421Y-41965D02*
X64505Y-41965D01*
X52495Y-42045D02*
X52610Y-42045D01*
X52884Y-42045D02*
X53026Y-42045D01*
X53974Y-42045D02*
X54116Y-42045D01*
X54389Y-42045D02*
X54843Y-42045D01*
X55443Y-42045D02*
X55557Y-42045D01*
X58270Y-42045D02*
X59273Y-42045D01*
X60786Y-42045D02*
X60843Y-42045D01*
X61443Y-42045D02*
X61557Y-42045D01*
X62157Y-42045D02*
X62610Y-42045D01*
X62884Y-42045D02*
X63026Y-42045D01*
X63974Y-42045D02*
X64116Y-42045D01*
X64389Y-42045D02*
X64505Y-42045D01*
X52495Y-42125D02*
X52705Y-42125D01*
X52804Y-42125D02*
X52946Y-42125D01*
X54054Y-42125D02*
X54196Y-42125D01*
X54294Y-42125D02*
X55870Y-42125D01*
X58270Y-42125D02*
X59926Y-42125D01*
X60786Y-42125D02*
X62705Y-42125D01*
X62804Y-42125D02*
X62946Y-42125D01*
X64054Y-42125D02*
X64196Y-42125D01*
X64294Y-42125D02*
X64505Y-42125D01*
X52495Y-42205D02*
X52866Y-42205D01*
X54134Y-42205D02*
X55870Y-42205D01*
X58270Y-42205D02*
X59926Y-42205D01*
X60786Y-42205D02*
X62866Y-42205D01*
X64134Y-42205D02*
X64505Y-42205D01*
X52495Y-42285D02*
X52869Y-42285D01*
X54130Y-42285D02*
X55870Y-42285D01*
X58270Y-42285D02*
X59926Y-42285D01*
X60786Y-42285D02*
X62869Y-42285D01*
X64130Y-42285D02*
X64505Y-42285D01*
X52495Y-42365D02*
X52916Y-42365D01*
X54083Y-42365D02*
X55870Y-42365D01*
X58270Y-42365D02*
X59926Y-42365D01*
X60786Y-42365D02*
X62916Y-42365D01*
X64083Y-42365D02*
X64505Y-42365D01*
X52495Y-42445D02*
X53092Y-42445D01*
X53911Y-42445D02*
X55870Y-42445D01*
X58270Y-42445D02*
X59926Y-42445D01*
X60786Y-42445D02*
X63092Y-42445D01*
X63911Y-42445D02*
X64505Y-42445D01*
X52495Y-42525D02*
X53291Y-42525D01*
X53718Y-42525D02*
X55870Y-42525D01*
X58270Y-42525D02*
X59926Y-42525D01*
X60786Y-42525D02*
X63291Y-42525D01*
X63718Y-42525D02*
X64505Y-42525D01*
X52495Y-42605D02*
X55870Y-42605D01*
X58270Y-42605D02*
X59926Y-42605D01*
X60786Y-42605D02*
X64505Y-42605D01*
X52495Y-42685D02*
X55870Y-42685D01*
X58270Y-42685D02*
X59926Y-42685D01*
X60786Y-42685D02*
X64505Y-42685D01*
X52495Y-42765D02*
X55870Y-42765D01*
X58270Y-42765D02*
X58768Y-42765D01*
X59003Y-42765D02*
X59197Y-42765D01*
X59433Y-42765D02*
X59926Y-42765D01*
X60786Y-42765D02*
X64505Y-42765D01*
X52495Y-42845D02*
X55870Y-42845D01*
X58347Y-42845D02*
X58653Y-42845D01*
X59050Y-42845D02*
X59150Y-42845D01*
X59547Y-42845D02*
X59926Y-42845D01*
X60786Y-42845D02*
X64505Y-42845D01*
X52495Y-42925D02*
X55870Y-42925D01*
X58389Y-42925D02*
X58612Y-42925D01*
X59050Y-42925D02*
X59150Y-42925D01*
X59589Y-42925D02*
X59926Y-42925D01*
X60824Y-42925D02*
X64505Y-42925D01*
X52495Y-43005D02*
X55870Y-43005D01*
X58399Y-43005D02*
X58601Y-43005D01*
X59050Y-43005D02*
X59150Y-43005D01*
X59599Y-43005D02*
X59926Y-43005D01*
X60904Y-43005D02*
X64505Y-43005D01*
X52495Y-43085D02*
X55870Y-43085D01*
X58399Y-43085D02*
X58601Y-43085D01*
X59050Y-43085D02*
X59150Y-43085D01*
X59600Y-43085D02*
X59930Y-43085D01*
X60984Y-43085D02*
X64505Y-43085D01*
X52495Y-43165D02*
X55870Y-43165D01*
X58399Y-43165D02*
X58601Y-43165D01*
X59050Y-43165D02*
X59150Y-43165D01*
X59600Y-43165D02*
X59946Y-43165D01*
X61064Y-43165D02*
X64505Y-43165D01*
X52495Y-43245D02*
X55870Y-43245D01*
X58399Y-43245D02*
X58601Y-43245D01*
X59050Y-43245D02*
X59150Y-43245D01*
X59600Y-43245D02*
X59969Y-43245D01*
X61126Y-43245D02*
X64505Y-43245D01*
X52495Y-43325D02*
X55821Y-43325D01*
X58399Y-43325D02*
X58601Y-43325D01*
X59050Y-43325D02*
X59150Y-43325D01*
X59600Y-43325D02*
X60022Y-43325D01*
X61179Y-43325D02*
X64505Y-43325D01*
X52495Y-43405D02*
X55804Y-43405D01*
X58399Y-43405D02*
X58617Y-43405D01*
X59050Y-43405D02*
X59150Y-43405D01*
X59583Y-43405D02*
X60088Y-43405D01*
X61197Y-43405D02*
X64505Y-43405D01*
X52495Y-43485D02*
X55788Y-43485D01*
X58399Y-43485D02*
X60168Y-43485D01*
X61213Y-43485D02*
X64505Y-43485D01*
X52495Y-43565D02*
X55786Y-43565D01*
X58399Y-43565D02*
X58647Y-43565D01*
X59050Y-43565D02*
X59150Y-43565D01*
X59553Y-43565D02*
X60248Y-43565D01*
X61214Y-43565D02*
X64505Y-43565D01*
X52495Y-43645D02*
X55786Y-43645D01*
X58399Y-43645D02*
X58600Y-43645D01*
X59050Y-43645D02*
X59150Y-43645D01*
X59599Y-43645D02*
X60328Y-43645D01*
X61214Y-43645D02*
X64505Y-43645D01*
X52495Y-43725D02*
X55786Y-43725D01*
X58399Y-43725D02*
X58600Y-43725D01*
X59050Y-43725D02*
X59150Y-43725D01*
X59599Y-43725D02*
X60354Y-43725D01*
X61214Y-43725D02*
X64505Y-43725D01*
X52495Y-43805D02*
X55786Y-43805D01*
X58399Y-43805D02*
X58600Y-43805D01*
X59050Y-43805D02*
X59150Y-43805D01*
X59599Y-43805D02*
X60354Y-43805D01*
X61214Y-43805D02*
X64505Y-43805D01*
X52495Y-43885D02*
X55786Y-43885D01*
X58399Y-43885D02*
X58600Y-43885D01*
X59050Y-43885D02*
X59150Y-43885D01*
X59599Y-43885D02*
X60354Y-43885D01*
X61214Y-43885D02*
X64505Y-43885D01*
X52495Y-43965D02*
X55786Y-43965D01*
X58399Y-43965D02*
X58601Y-43965D01*
X59050Y-43965D02*
X59150Y-43965D01*
X59599Y-43965D02*
X60354Y-43965D01*
X61214Y-43965D02*
X64505Y-43965D01*
X52495Y-44045D02*
X55786Y-44045D01*
X58399Y-44045D02*
X58601Y-44045D01*
X59050Y-44045D02*
X59150Y-44045D01*
X59599Y-44045D02*
X60354Y-44045D01*
X61214Y-44045D02*
X64505Y-44045D01*
X52495Y-44125D02*
X55786Y-44125D01*
X58367Y-44125D02*
X58632Y-44125D01*
X59050Y-44125D02*
X59150Y-44125D01*
X59567Y-44125D02*
X60354Y-44125D01*
X61214Y-44125D02*
X64505Y-44125D01*
X52495Y-44205D02*
X55261Y-44205D01*
X55729Y-44205D02*
X55786Y-44205D01*
X58297Y-44205D02*
X58703Y-44205D01*
X59033Y-44205D02*
X59167Y-44205D01*
X59497Y-44205D02*
X60354Y-44205D01*
X61214Y-44205D02*
X61261Y-44205D01*
X61729Y-44205D02*
X64505Y-44205D01*
X52495Y-44285D02*
X55146Y-44285D01*
X58270Y-44285D02*
X60354Y-44285D01*
X61855Y-44285D02*
X64505Y-44285D01*
X52495Y-44365D02*
X55136Y-44365D01*
X58270Y-44365D02*
X60354Y-44365D01*
X61864Y-44365D02*
X64505Y-44365D01*
X52495Y-44445D02*
X54988Y-44445D01*
X55074Y-44445D02*
X55216Y-44445D01*
X58270Y-44445D02*
X60354Y-44445D01*
X61784Y-44445D02*
X61926Y-44445D01*
X62013Y-44445D02*
X64505Y-44445D01*
X52495Y-44525D02*
X54923Y-44525D01*
X55154Y-44525D02*
X55296Y-44525D01*
X58270Y-44525D02*
X60354Y-44525D01*
X61704Y-44525D02*
X61846Y-44525D01*
X62081Y-44525D02*
X64505Y-44525D01*
X52495Y-44605D02*
X54893Y-44605D01*
X55234Y-44605D02*
X55376Y-44605D01*
X58270Y-44605D02*
X60354Y-44605D01*
X61624Y-44605D02*
X61766Y-44605D01*
X62114Y-44605D02*
X64505Y-44605D01*
X52495Y-44685D02*
X53369Y-44685D01*
X53923Y-44685D02*
X54077Y-44685D01*
X54632Y-44685D02*
X54864Y-44685D01*
X55314Y-44685D02*
X55456Y-44685D01*
X58270Y-44685D02*
X59369Y-44685D01*
X59923Y-44685D02*
X60077Y-44685D01*
X61544Y-44685D02*
X61686Y-44685D01*
X62133Y-44685D02*
X62369Y-44685D01*
X62923Y-44685D02*
X63077Y-44685D01*
X63632Y-44685D02*
X64505Y-44685D01*
X52495Y-44765D02*
X53287Y-44765D01*
X53950Y-44765D02*
X54050Y-44765D01*
X54714Y-44765D02*
X54861Y-44765D01*
X55394Y-44765D02*
X55536Y-44765D01*
X58270Y-44765D02*
X59287Y-44765D01*
X59950Y-44765D02*
X60050Y-44765D01*
X61464Y-44765D02*
X61606Y-44765D01*
X62136Y-44765D02*
X62287Y-44765D01*
X62950Y-44765D02*
X63050Y-44765D01*
X63714Y-44765D02*
X64505Y-44765D01*
X52495Y-44845D02*
X53254Y-44845D01*
X53950Y-44845D02*
X54050Y-44845D01*
X54747Y-44845D02*
X54864Y-44845D01*
X55384Y-44845D02*
X55526Y-44845D01*
X58270Y-44845D02*
X59254Y-44845D01*
X59950Y-44845D02*
X60050Y-44845D01*
X61474Y-44845D02*
X61616Y-44845D01*
X62139Y-44845D02*
X62254Y-44845D01*
X62950Y-44845D02*
X63050Y-44845D01*
X63747Y-44845D02*
X64505Y-44845D01*
X52495Y-44925D02*
X53251Y-44925D01*
X53950Y-44925D02*
X54050Y-44925D01*
X54750Y-44925D02*
X54867Y-44925D01*
X55304Y-44925D02*
X55446Y-44925D01*
X58270Y-44925D02*
X59251Y-44925D01*
X59950Y-44925D02*
X60050Y-44925D01*
X61554Y-44925D02*
X61696Y-44925D01*
X62132Y-44925D02*
X62251Y-44925D01*
X62950Y-44925D02*
X63050Y-44925D01*
X63750Y-44925D02*
X64505Y-44925D01*
X52495Y-45005D02*
X53251Y-45005D01*
X53950Y-45005D02*
X54050Y-45005D01*
X54750Y-45005D02*
X54891Y-45005D01*
X55224Y-45005D02*
X55366Y-45005D01*
X58270Y-45005D02*
X59251Y-45005D01*
X59950Y-45005D02*
X60050Y-45005D01*
X61634Y-45005D02*
X61776Y-45005D01*
X62103Y-45005D02*
X62251Y-45005D01*
X62950Y-45005D02*
X63050Y-45005D01*
X63750Y-45005D02*
X64505Y-45005D01*
X52495Y-45085D02*
X53297Y-45085D01*
X53950Y-45085D02*
X54050Y-45085D01*
X54703Y-45085D02*
X54923Y-45085D01*
X55144Y-45085D02*
X55286Y-45085D01*
X58270Y-45085D02*
X59297Y-45085D01*
X59950Y-45085D02*
X60050Y-45085D01*
X61714Y-45085D02*
X61856Y-45085D01*
X62074Y-45085D02*
X62297Y-45085D01*
X62950Y-45085D02*
X63050Y-45085D01*
X63703Y-45085D02*
X64505Y-45085D01*
X52495Y-45165D02*
X55015Y-45165D01*
X55064Y-45165D02*
X55206Y-45165D01*
X58270Y-45165D02*
X60050Y-45165D01*
X61794Y-45165D02*
X61936Y-45165D01*
X61984Y-45165D02*
X64505Y-45165D01*
X52495Y-45245D02*
X53267Y-45245D01*
X53950Y-45245D02*
X54050Y-45245D01*
X54733Y-45245D02*
X55126Y-45245D01*
X58270Y-45245D02*
X59267Y-45245D01*
X59950Y-45245D02*
X60050Y-45245D01*
X61874Y-45245D02*
X62267Y-45245D01*
X62950Y-45245D02*
X63050Y-45245D01*
X63733Y-45245D02*
X64505Y-45245D01*
X52495Y-45325D02*
X53250Y-45325D01*
X53950Y-45325D02*
X54050Y-45325D01*
X54749Y-45325D02*
X55149Y-45325D01*
X58270Y-45325D02*
X59250Y-45325D01*
X59950Y-45325D02*
X60050Y-45325D01*
X61850Y-45325D02*
X62250Y-45325D01*
X62950Y-45325D02*
X63050Y-45325D01*
X63749Y-45325D02*
X64505Y-45325D01*
X52495Y-45405D02*
X53250Y-45405D01*
X53950Y-45405D02*
X54050Y-45405D01*
X54749Y-45405D02*
X55298Y-45405D01*
X55714Y-45405D02*
X55786Y-45405D01*
X58270Y-45405D02*
X59250Y-45405D01*
X59950Y-45405D02*
X60050Y-45405D01*
X61214Y-45405D02*
X61300Y-45405D01*
X61714Y-45405D02*
X62250Y-45405D01*
X62950Y-45405D02*
X63050Y-45405D01*
X63749Y-45405D02*
X64505Y-45405D01*
X52495Y-45485D02*
X53265Y-45485D01*
X53950Y-45485D02*
X54050Y-45485D01*
X54734Y-45485D02*
X55786Y-45485D01*
X58270Y-45485D02*
X59265Y-45485D01*
X59950Y-45485D02*
X60050Y-45485D01*
X61214Y-45485D02*
X62265Y-45485D01*
X62950Y-45485D02*
X63050Y-45485D01*
X63734Y-45485D02*
X64505Y-45485D01*
X52495Y-45565D02*
X53313Y-45565D01*
X53950Y-45565D02*
X54050Y-45565D01*
X54687Y-45565D02*
X55786Y-45565D01*
X58270Y-45565D02*
X59313Y-45565D01*
X59950Y-45565D02*
X60050Y-45565D01*
X61214Y-45565D02*
X62313Y-45565D01*
X62950Y-45565D02*
X63050Y-45565D01*
X63687Y-45565D02*
X64505Y-45565D01*
X52495Y-45645D02*
X53440Y-45645D01*
X53893Y-45645D02*
X54107Y-45645D01*
X54559Y-45645D02*
X55786Y-45645D01*
X58270Y-45645D02*
X59440Y-45645D01*
X59893Y-45645D02*
X60107Y-45645D01*
X61214Y-45645D02*
X62440Y-45645D01*
X62893Y-45645D02*
X63107Y-45645D01*
X63559Y-45645D02*
X64505Y-45645D01*
X52495Y-45725D02*
X55786Y-45725D01*
X58270Y-45725D02*
X60354Y-45725D01*
X61214Y-45725D02*
X64505Y-45725D01*
X52495Y-45805D02*
X55786Y-45805D01*
X58270Y-45805D02*
X60354Y-45805D01*
X61214Y-45805D02*
X64505Y-45805D01*
X52495Y-45885D02*
X53369Y-45885D01*
X54632Y-45885D02*
X55786Y-45885D01*
X58270Y-45885D02*
X59369Y-45885D01*
X61214Y-45885D02*
X62369Y-45885D01*
X63632Y-45885D02*
X64505Y-45885D01*
X52495Y-45965D02*
X53287Y-45965D01*
X55233Y-45965D02*
X55767Y-45965D01*
X58270Y-45965D02*
X59287Y-45965D01*
X61233Y-45965D02*
X61768Y-45965D01*
X63714Y-45965D02*
X64505Y-45965D01*
X52495Y-46045D02*
X53254Y-46045D01*
X55353Y-46045D02*
X55647Y-46045D01*
X58270Y-46045D02*
X59254Y-46045D01*
X61353Y-46045D02*
X61648Y-46045D01*
X63747Y-46045D02*
X64505Y-46045D01*
X52495Y-46125D02*
X53251Y-46125D01*
X55433Y-46125D02*
X55567Y-46125D01*
X58270Y-46125D02*
X59251Y-46125D01*
X61433Y-46125D02*
X61567Y-46125D01*
X63749Y-46125D02*
X64505Y-46125D01*
X52495Y-46205D02*
X53251Y-46205D01*
X58270Y-46205D02*
X59251Y-46205D01*
X63749Y-46205D02*
X64505Y-46205D01*
X52495Y-46285D02*
X53251Y-46285D01*
X58270Y-46285D02*
X59251Y-46285D01*
X63749Y-46285D02*
X64505Y-46285D01*
X52495Y-46365D02*
X53251Y-46365D01*
X58270Y-46365D02*
X59251Y-46365D01*
X63749Y-46365D02*
X64505Y-46365D01*
X52495Y-46445D02*
X53251Y-46445D01*
X58270Y-46445D02*
X59251Y-46445D01*
X63749Y-46445D02*
X64505Y-46445D01*
X52495Y-46525D02*
X53251Y-46525D01*
X58270Y-46525D02*
X59251Y-46525D01*
X63749Y-46525D02*
X64505Y-46525D01*
X52495Y-46605D02*
X53251Y-46605D01*
X58270Y-46605D02*
X59251Y-46605D01*
X63749Y-46605D02*
X64505Y-46605D01*
X52495Y-46685D02*
X53265Y-46685D01*
X58270Y-46685D02*
X59265Y-46685D01*
X63734Y-46685D02*
X64505Y-46685D01*
X52495Y-46765D02*
X53313Y-46765D01*
X58269Y-46765D02*
X59313Y-46765D01*
X63687Y-46765D02*
X64505Y-46765D01*
X52495Y-46845D02*
X53440Y-46845D01*
X54558Y-46845D02*
X54851Y-46845D01*
X56149Y-46845D02*
X56440Y-46845D01*
X58253Y-46845D02*
X59440Y-46845D01*
X60558Y-46845D02*
X60847Y-46845D01*
X62149Y-46845D02*
X62440Y-46845D01*
X63558Y-46845D02*
X64505Y-46845D01*
X52495Y-46925D02*
X54851Y-46925D01*
X56149Y-46925D02*
X57211Y-46925D01*
X58226Y-46925D02*
X60767Y-46925D01*
X62149Y-46925D02*
X64505Y-46925D01*
X52495Y-47005D02*
X54882Y-47005D01*
X56117Y-47005D02*
X57131Y-47005D01*
X58173Y-47005D02*
X60687Y-47005D01*
X62117Y-47005D02*
X64505Y-47005D01*
X52495Y-47085D02*
X54915Y-47085D01*
X56084Y-47085D02*
X57051Y-47085D01*
X58097Y-47085D02*
X60607Y-47085D01*
X62084Y-47085D02*
X64505Y-47085D01*
X52495Y-47165D02*
X54948Y-47165D01*
X56051Y-47165D02*
X56971Y-47165D01*
X58017Y-47165D02*
X60527Y-47165D01*
X62051Y-47165D02*
X64505Y-47165D01*
X52495Y-47245D02*
X55027Y-47245D01*
X55973Y-47245D02*
X56891Y-47245D01*
X57937Y-47245D02*
X60447Y-47245D01*
X61973Y-47245D02*
X64505Y-47245D01*
X52495Y-47325D02*
X55107Y-47325D01*
X55893Y-47325D02*
X56811Y-47325D01*
X57857Y-47325D02*
X60367Y-47325D01*
X61893Y-47325D02*
X64505Y-47325D01*
X52495Y-47405D02*
X55264Y-47405D01*
X55735Y-47405D02*
X56731Y-47405D01*
X57777Y-47405D02*
X60287Y-47405D01*
X61735Y-47405D02*
X64505Y-47405D01*
X52495Y-47485D02*
X56651Y-47485D01*
X57697Y-47485D02*
X60207Y-47485D01*
X61423Y-47485D02*
X64505Y-47485D01*
X52495Y-47565D02*
X56571Y-47565D01*
X57617Y-47565D02*
X60127Y-47565D01*
X61343Y-47565D02*
X64505Y-47565D01*
X52495Y-47645D02*
X56491Y-47645D01*
X57537Y-47645D02*
X60047Y-47645D01*
X61263Y-47645D02*
X64505Y-47645D01*
X52495Y-47725D02*
X56437Y-47725D01*
X57457Y-47725D02*
X59967Y-47725D01*
X61183Y-47725D02*
X64505Y-47725D01*
X52495Y-47805D02*
X56401Y-47805D01*
X57377Y-47805D02*
X59887Y-47805D01*
X61103Y-47805D02*
X64505Y-47805D01*
X52495Y-47885D02*
X56384Y-47885D01*
X57297Y-47885D02*
X59807Y-47885D01*
X61023Y-47885D02*
X64505Y-47885D01*
X52495Y-47965D02*
X56083Y-47965D01*
X57417Y-47965D02*
X59727Y-47965D01*
X60943Y-47965D02*
X64505Y-47965D01*
X52495Y-48045D02*
X56024Y-48045D01*
X57476Y-48045D02*
X59647Y-48045D01*
X60863Y-48045D02*
X64505Y-48045D01*
X52495Y-48125D02*
X56001Y-48125D01*
X57499Y-48125D02*
X59567Y-48125D01*
X60783Y-48125D02*
X64505Y-48125D01*
X52495Y-48205D02*
X56001Y-48205D01*
X57499Y-48205D02*
X59487Y-48205D01*
X60703Y-48205D02*
X64505Y-48205D01*
X52495Y-48285D02*
X56001Y-48285D01*
X57499Y-48285D02*
X59407Y-48285D01*
X60623Y-48285D02*
X64505Y-48285D01*
X52495Y-48365D02*
X56001Y-48365D01*
X57499Y-48365D02*
X59327Y-48365D01*
X60543Y-48365D02*
X64505Y-48365D01*
X52495Y-48445D02*
X56001Y-48445D01*
X57499Y-48445D02*
X59252Y-48445D01*
X60463Y-48445D02*
X64505Y-48445D01*
X52495Y-48525D02*
X56001Y-48525D01*
X57499Y-48525D02*
X59198Y-48525D01*
X60383Y-48525D02*
X64505Y-48525D01*
X52495Y-48605D02*
X56001Y-48605D01*
X57499Y-48605D02*
X59161Y-48605D01*
X60303Y-48605D02*
X64505Y-48605D01*
X52495Y-48685D02*
X56001Y-48685D01*
X57499Y-48685D02*
X59145Y-48685D01*
X60223Y-48685D02*
X64505Y-48685D01*
X52495Y-48765D02*
X56028Y-48765D01*
X57471Y-48765D02*
X59135Y-48765D01*
X60143Y-48765D02*
X64505Y-48765D01*
X52495Y-48845D02*
X56093Y-48845D01*
X57407Y-48845D02*
X59135Y-48845D01*
X60063Y-48845D02*
X64505Y-48845D01*
X52495Y-48925D02*
X59135Y-48925D01*
X59995Y-48925D02*
X64505Y-48925D01*
X52495Y-49005D02*
X59135Y-49005D01*
X59995Y-49005D02*
X64505Y-49005D01*
X52495Y-49085D02*
X59135Y-49085D01*
X59995Y-49085D02*
X64505Y-49085D01*
X52495Y-49165D02*
X56083Y-49165D01*
X57417Y-49165D02*
X59135Y-49165D01*
X59995Y-49165D02*
X64505Y-49165D01*
X52495Y-49245D02*
X56024Y-49245D01*
X57476Y-49245D02*
X59135Y-49245D01*
X59995Y-49245D02*
X64505Y-49245D01*
X52495Y-49325D02*
X56001Y-49325D01*
X57499Y-49325D02*
X59135Y-49325D01*
X59995Y-49325D02*
X64505Y-49325D01*
X52495Y-49405D02*
X56001Y-49405D01*
X57499Y-49405D02*
X59135Y-49405D01*
X59995Y-49405D02*
X64505Y-49405D01*
X52495Y-49485D02*
X56001Y-49485D01*
X57499Y-49485D02*
X59135Y-49485D01*
X59995Y-49485D02*
X64505Y-49485D01*
X52495Y-49565D02*
X56001Y-49565D01*
X57499Y-49565D02*
X59135Y-49565D01*
X59995Y-49565D02*
X64505Y-49565D01*
X52495Y-49645D02*
X56001Y-49645D01*
X57499Y-49645D02*
X59135Y-49645D01*
X59995Y-49645D02*
X64505Y-49645D01*
X52495Y-49725D02*
X56001Y-49725D01*
X57499Y-49725D02*
X59135Y-49725D01*
X59995Y-49725D02*
X64505Y-49725D01*
X52495Y-49805D02*
X56001Y-49805D01*
X57499Y-49805D02*
X59135Y-49805D01*
X59995Y-49805D02*
X64505Y-49805D01*
X52495Y-49885D02*
X56001Y-49885D01*
X57499Y-49885D02*
X59135Y-49885D01*
X59995Y-49885D02*
X64505Y-49885D01*
X52495Y-49965D02*
X56028Y-49965D01*
X57471Y-49965D02*
X59135Y-49965D01*
X59995Y-49965D02*
X64505Y-49965D01*
X52495Y-50045D02*
X56093Y-50045D01*
X57407Y-50045D02*
X59135Y-50045D01*
X59995Y-50045D02*
X64505Y-50045D01*
X52495Y-50125D02*
X56360Y-50125D01*
X57112Y-50125D02*
X59135Y-50125D01*
X59995Y-50125D02*
X64505Y-50125D01*
X52495Y-50205D02*
X56360Y-50205D01*
X57100Y-50205D02*
X59135Y-50205D01*
X59995Y-50205D02*
X64505Y-50205D01*
X52495Y-50285D02*
X56360Y-50285D01*
X57100Y-50285D02*
X59135Y-50285D01*
X59995Y-50285D02*
X64505Y-50285D01*
X52495Y-50365D02*
X56360Y-50365D01*
X57100Y-50365D02*
X59135Y-50365D01*
X59995Y-50365D02*
X64505Y-50365D01*
X52495Y-50445D02*
X56360Y-50445D01*
X57100Y-50445D02*
X57212Y-50445D01*
X57650Y-50445D02*
X59128Y-50445D01*
X60002Y-50445D02*
X60030Y-50445D01*
X60509Y-50445D02*
X64505Y-50445D01*
X52495Y-50525D02*
X53161Y-50525D01*
X53833Y-50525D02*
X56360Y-50525D01*
X57100Y-50525D02*
X57151Y-50525D01*
X57720Y-50525D02*
X59064Y-50525D01*
X60625Y-50525D02*
X63161Y-50525D01*
X63833Y-50525D02*
X64505Y-50525D01*
X52495Y-50605D02*
X52968Y-50605D01*
X54032Y-50605D02*
X56295Y-50605D01*
X57679Y-50605D02*
X59036Y-50605D01*
X60705Y-50605D02*
X62968Y-50605D01*
X64032Y-50605D02*
X64505Y-50605D01*
X52495Y-50685D02*
X52887Y-50685D01*
X54114Y-50685D02*
X56254Y-50685D01*
X57599Y-50685D02*
X57741Y-50685D01*
X57906Y-50685D02*
X59036Y-50685D01*
X60746Y-50685D02*
X62887Y-50685D01*
X64114Y-50685D02*
X64505Y-50685D01*
X52495Y-50765D02*
X52840Y-50765D01*
X54161Y-50765D02*
X56221Y-50765D01*
X57519Y-50765D02*
X57661Y-50765D01*
X57939Y-50765D02*
X59036Y-50765D01*
X60780Y-50765D02*
X62840Y-50765D01*
X64161Y-50765D02*
X64505Y-50765D01*
X52495Y-50845D02*
X52756Y-50845D01*
X52774Y-50845D02*
X52916Y-50845D01*
X54084Y-50845D02*
X54226Y-50845D01*
X54245Y-50845D02*
X56200Y-50845D01*
X57439Y-50845D02*
X57581Y-50845D01*
X57952Y-50845D02*
X59036Y-50845D01*
X60800Y-50845D02*
X62756Y-50845D01*
X62774Y-50845D02*
X62916Y-50845D01*
X64084Y-50845D02*
X64226Y-50845D01*
X64245Y-50845D02*
X64505Y-50845D01*
X52495Y-50925D02*
X52623Y-50925D01*
X52854Y-50925D02*
X52996Y-50925D01*
X54004Y-50925D02*
X54146Y-50925D01*
X54378Y-50925D02*
X56200Y-50925D01*
X57369Y-50925D02*
X57511Y-50925D01*
X57956Y-50925D02*
X59036Y-50925D01*
X60800Y-50925D02*
X62623Y-50925D01*
X62854Y-50925D02*
X62996Y-50925D01*
X64004Y-50925D02*
X64146Y-50925D01*
X64378Y-50925D02*
X64505Y-50925D01*
X52495Y-51005D02*
X52591Y-51005D01*
X52934Y-51005D02*
X53076Y-51005D01*
X53924Y-51005D02*
X54066Y-51005D01*
X54411Y-51005D02*
X56200Y-51005D01*
X57449Y-51005D02*
X57591Y-51005D01*
X57955Y-51005D02*
X59036Y-51005D01*
X60800Y-51005D02*
X62591Y-51005D01*
X62934Y-51005D02*
X63076Y-51005D01*
X63924Y-51005D02*
X64066Y-51005D01*
X64411Y-51005D02*
X64505Y-51005D01*
X52495Y-51085D02*
X52558Y-51085D01*
X53014Y-51085D02*
X53156Y-51085D01*
X53844Y-51085D02*
X53986Y-51085D01*
X54444Y-51085D02*
X56224Y-51085D01*
X57529Y-51085D02*
X57671Y-51085D01*
X57927Y-51085D02*
X59036Y-51085D01*
X60775Y-51085D02*
X62559Y-51085D01*
X63014Y-51085D02*
X63156Y-51085D01*
X63844Y-51085D02*
X63986Y-51085D01*
X64444Y-51085D02*
X64505Y-51085D01*
X52495Y-51165D02*
X52526Y-51165D01*
X53094Y-51165D02*
X53236Y-51165D01*
X53764Y-51165D02*
X53906Y-51165D01*
X54477Y-51165D02*
X56258Y-51165D01*
X57609Y-51165D02*
X57751Y-51165D01*
X57899Y-51165D02*
X59036Y-51165D01*
X60742Y-51165D02*
X62526Y-51165D01*
X63094Y-51165D02*
X63236Y-51165D01*
X63764Y-51165D02*
X63906Y-51165D01*
X64478Y-51165D02*
X64505Y-51165D01*
X53174Y-51245D02*
X53316Y-51245D01*
X53684Y-51245D02*
X53826Y-51245D01*
X54511Y-51245D02*
X56305Y-51245D01*
X57689Y-51245D02*
X59036Y-51245D01*
X60694Y-51245D02*
X62494Y-51245D01*
X63174Y-51245D02*
X63316Y-51245D01*
X63684Y-51245D02*
X63826Y-51245D01*
X53254Y-51325D02*
X53396Y-51325D01*
X53604Y-51325D02*
X53746Y-51325D01*
X54528Y-51325D02*
X56385Y-51325D01*
X57073Y-51325D02*
X57152Y-51325D01*
X57717Y-51325D02*
X59067Y-51325D01*
X60614Y-51325D02*
X62470Y-51325D01*
X63254Y-51325D02*
X63396Y-51325D01*
X63604Y-51325D02*
X63746Y-51325D01*
X53334Y-51405D02*
X53476Y-51405D01*
X53524Y-51405D02*
X53666Y-51405D01*
X54528Y-51405D02*
X56515Y-51405D01*
X56943Y-51405D02*
X57249Y-51405D01*
X57634Y-51405D02*
X59138Y-51405D01*
X59991Y-51405D02*
X60055Y-51405D01*
X60483Y-51405D02*
X62470Y-51405D01*
X63334Y-51405D02*
X63476Y-51405D01*
X63524Y-51405D02*
X63666Y-51405D01*
X53414Y-51485D02*
X53586Y-51485D01*
X54529Y-51485D02*
X62471Y-51485D01*
X63414Y-51485D02*
X63586Y-51485D01*
X53364Y-51565D02*
X53636Y-51565D01*
X54530Y-51565D02*
X62471Y-51565D01*
X63364Y-51565D02*
X63636Y-51565D01*
X53284Y-51645D02*
X53426Y-51645D01*
X53574Y-51645D02*
X53716Y-51645D01*
X54530Y-51645D02*
X62472Y-51645D01*
X63284Y-51645D02*
X63426Y-51645D01*
X63574Y-51645D02*
X63716Y-51645D01*
X53204Y-51725D02*
X53346Y-51725D01*
X53654Y-51725D02*
X53796Y-51725D01*
X54518Y-51725D02*
X62477Y-51725D01*
X63204Y-51725D02*
X63346Y-51725D01*
X63654Y-51725D02*
X63796Y-51725D01*
X52495Y-51805D02*
X52510Y-51805D01*
X53124Y-51805D02*
X53266Y-51805D01*
X53734Y-51805D02*
X53876Y-51805D01*
X54486Y-51805D02*
X58297Y-51805D01*
X58705Y-51805D02*
X62510Y-51805D01*
X63124Y-51805D02*
X63266Y-51805D01*
X63734Y-51805D02*
X63876Y-51805D01*
X64486Y-51805D02*
X64505Y-51805D01*
X52495Y-51885D02*
X52543Y-51885D01*
X53044Y-51885D02*
X53186Y-51885D01*
X53814Y-51885D02*
X53956Y-51885D01*
X54453Y-51885D02*
X58103Y-51885D01*
X58897Y-51885D02*
X62543Y-51885D01*
X63044Y-51885D02*
X63186Y-51885D01*
X63814Y-51885D02*
X63956Y-51885D01*
X64453Y-51885D02*
X64505Y-51885D01*
X52495Y-51965D02*
X52577Y-51965D01*
X52964Y-51965D02*
X53106Y-51965D01*
X53894Y-51965D02*
X54036Y-51965D01*
X54421Y-51965D02*
X57995Y-51965D01*
X59005Y-51965D02*
X62577Y-51965D01*
X62964Y-51965D02*
X63106Y-51965D01*
X63894Y-51965D02*
X64036Y-51965D01*
X64421Y-51965D02*
X64505Y-51965D01*
X52495Y-52045D02*
X52610Y-52045D01*
X52884Y-52045D02*
X53026Y-52045D01*
X53974Y-52045D02*
X54116Y-52045D01*
X54389Y-52045D02*
X57915Y-52045D01*
X59085Y-52045D02*
X62610Y-52045D01*
X62884Y-52045D02*
X63026Y-52045D01*
X63974Y-52045D02*
X64116Y-52045D01*
X64389Y-52045D02*
X64505Y-52045D01*
X52495Y-52125D02*
X52705Y-52125D01*
X52804Y-52125D02*
X52946Y-52125D01*
X54054Y-52125D02*
X54196Y-52125D01*
X54294Y-52125D02*
X55686Y-52125D01*
X56267Y-52125D02*
X57835Y-52125D01*
X59165Y-52125D02*
X60695Y-52125D01*
X61345Y-52125D02*
X62705Y-52125D01*
X62804Y-52125D02*
X62946Y-52125D01*
X64054Y-52125D02*
X64196Y-52125D01*
X64294Y-52125D02*
X64505Y-52125D01*
X52495Y-52205D02*
X52866Y-52205D01*
X54134Y-52205D02*
X55548Y-52205D01*
X56413Y-52205D02*
X57802Y-52205D01*
X59199Y-52205D02*
X60545Y-52205D01*
X61495Y-52205D02*
X62866Y-52205D01*
X64134Y-52205D02*
X64505Y-52205D01*
X52495Y-52285D02*
X52869Y-52285D01*
X54130Y-52285D02*
X55511Y-52285D01*
X56450Y-52285D02*
X57769Y-52285D01*
X59232Y-52285D02*
X60465Y-52285D01*
X61575Y-52285D02*
X62869Y-52285D01*
X64130Y-52285D02*
X64505Y-52285D01*
X52495Y-52365D02*
X52916Y-52365D01*
X54083Y-52365D02*
X55576Y-52365D01*
X56384Y-52365D02*
X57735Y-52365D01*
X59265Y-52365D02*
X60385Y-52365D01*
X61655Y-52365D02*
X62916Y-52365D01*
X64083Y-52365D02*
X64505Y-52365D01*
X52495Y-52445D02*
X53092Y-52445D01*
X53911Y-52445D02*
X55308Y-52445D01*
X55514Y-52445D02*
X55656Y-52445D01*
X56304Y-52445D02*
X56446Y-52445D01*
X56654Y-52445D02*
X57715Y-52445D01*
X59285Y-52445D02*
X60335Y-52445D01*
X61707Y-52445D02*
X63092Y-52445D01*
X63911Y-52445D02*
X64505Y-52445D01*
X52495Y-52525D02*
X53291Y-52525D01*
X53718Y-52525D02*
X55277Y-52525D01*
X55594Y-52525D02*
X55736Y-52525D01*
X56224Y-52525D02*
X56366Y-52525D01*
X56687Y-52525D02*
X57715Y-52525D01*
X59285Y-52525D02*
X60301Y-52525D01*
X61740Y-52525D02*
X63291Y-52525D01*
X63718Y-52525D02*
X64505Y-52525D01*
X52495Y-52605D02*
X55246Y-52605D01*
X55674Y-52605D02*
X55816Y-52605D01*
X56144Y-52605D02*
X56286Y-52605D01*
X56720Y-52605D02*
X57715Y-52605D01*
X59285Y-52605D02*
X60268Y-52605D01*
X61773Y-52605D02*
X64505Y-52605D01*
X52495Y-52685D02*
X55215Y-52685D01*
X55754Y-52685D02*
X55896Y-52685D01*
X56064Y-52685D02*
X56206Y-52685D01*
X56747Y-52685D02*
X57715Y-52685D01*
X59285Y-52685D02*
X60235Y-52685D01*
X61805Y-52685D02*
X64505Y-52685D01*
X52495Y-52765D02*
X55207Y-52765D01*
X55834Y-52765D02*
X55976Y-52765D01*
X55984Y-52765D02*
X56126Y-52765D01*
X56749Y-52765D02*
X57731Y-52765D01*
X59269Y-52765D02*
X60235Y-52765D01*
X61805Y-52765D02*
X64505Y-52765D01*
X52495Y-52845D02*
X55209Y-52845D01*
X55904Y-52845D02*
X56056Y-52845D01*
X56751Y-52845D02*
X57764Y-52845D01*
X59235Y-52845D02*
X60235Y-52845D01*
X61805Y-52845D02*
X64505Y-52845D01*
X52495Y-52925D02*
X55211Y-52925D01*
X55824Y-52925D02*
X55966Y-52925D01*
X55994Y-52925D02*
X56136Y-52925D01*
X56753Y-52925D02*
X57797Y-52925D01*
X59202Y-52925D02*
X60235Y-52925D01*
X61805Y-52925D02*
X64505Y-52925D01*
X52495Y-53005D02*
X55213Y-53005D01*
X55744Y-53005D02*
X55886Y-53005D01*
X56074Y-53005D02*
X56216Y-53005D01*
X56741Y-53005D02*
X57830Y-53005D01*
X59169Y-53005D02*
X60239Y-53005D01*
X61801Y-53005D02*
X64505Y-53005D01*
X52495Y-53085D02*
X55244Y-53085D01*
X55664Y-53085D02*
X55806Y-53085D01*
X56154Y-53085D02*
X56296Y-53085D01*
X56710Y-53085D02*
X57905Y-53085D01*
X59095Y-53085D02*
X60272Y-53085D01*
X61768Y-53085D02*
X64505Y-53085D01*
X52495Y-53165D02*
X55277Y-53165D01*
X55584Y-53165D02*
X55726Y-53165D01*
X56234Y-53165D02*
X56376Y-53165D01*
X56679Y-53165D02*
X57985Y-53165D01*
X59015Y-53165D02*
X60305Y-53165D01*
X61735Y-53165D02*
X64505Y-53165D01*
X52495Y-53245D02*
X55310Y-53245D01*
X55504Y-53245D02*
X55646Y-53245D01*
X56314Y-53245D02*
X56456Y-53245D01*
X56648Y-53245D02*
X58079Y-53245D01*
X58922Y-53245D02*
X60337Y-53245D01*
X61701Y-53245D02*
X64505Y-53245D01*
X52495Y-53325D02*
X55566Y-53325D01*
X56394Y-53325D02*
X58271Y-53325D01*
X58727Y-53325D02*
X60395Y-53325D01*
X61645Y-53325D02*
X64505Y-53325D01*
X52495Y-53405D02*
X55515Y-53405D01*
X56444Y-53405D02*
X60475Y-53405D01*
X61565Y-53405D02*
X64505Y-53405D01*
X52495Y-53485D02*
X55551Y-53485D01*
X56408Y-53485D02*
X60555Y-53485D01*
X61485Y-53485D02*
X64505Y-53485D01*
X52495Y-53565D02*
X55719Y-53565D01*
X56250Y-53565D02*
X60719Y-53565D01*
X61320Y-53565D02*
X64505Y-53565D01*
X52495Y-53645D02*
X64505Y-53645D01*
X52495Y-53725D02*
X64505Y-53725D01*
X56730Y-40680D02*
X56921Y-40680D01*
X56730Y-40760D02*
X56921Y-40760D01*
X56730Y-40840D02*
X56921Y-40840D01*
X56730Y-40920D02*
X56929Y-40920D01*
X56730Y-41000D02*
X56967Y-41000D01*
X56730Y-41080D02*
X56930Y-41080D01*
X56730Y-41160D02*
X56921Y-41160D01*
X56730Y-41240D02*
X56921Y-41240D01*
X56730Y-41320D02*
X56921Y-41320D01*
X56730Y-41400D02*
X56921Y-41400D01*
X56730Y-41480D02*
X56954Y-41480D01*
X56730Y-41560D02*
X56938Y-41560D01*
X56730Y-41640D02*
X56921Y-41640D01*
X56730Y-41720D02*
X56921Y-41720D01*
X56730Y-41800D02*
X56921Y-41800D01*
X56730Y-41880D02*
X56921Y-41880D01*
X56730Y-41960D02*
X56946Y-41960D01*
X56730Y-42040D02*
X57008Y-42040D01*
X56730Y-42120D02*
X57530Y-42120D01*
X56730Y-42200D02*
X57530Y-42200D01*
X56730Y-42280D02*
X57530Y-42280D01*
X56730Y-42360D02*
X57530Y-42360D01*
X56730Y-42440D02*
X57530Y-42440D01*
X56730Y-42520D02*
X57530Y-42520D01*
X56730Y-42600D02*
X57530Y-42600D01*
X56730Y-42680D02*
X57530Y-42680D01*
X56730Y-42760D02*
X57530Y-42760D01*
X56730Y-42840D02*
X57458Y-42840D01*
X56730Y-42920D02*
X57414Y-42920D01*
X56730Y-43000D02*
X57401Y-43000D01*
X56730Y-43080D02*
X57401Y-43080D01*
X56730Y-43160D02*
X57401Y-43160D01*
X56730Y-43240D02*
X57401Y-43240D01*
X56730Y-43320D02*
X57401Y-43320D01*
X56730Y-43400D02*
X57401Y-43400D01*
X56715Y-43480D02*
X57401Y-43480D01*
X56698Y-43560D02*
X57401Y-43560D01*
X56652Y-43640D02*
X57401Y-43640D01*
X56646Y-43720D02*
X57401Y-43720D01*
X56646Y-43800D02*
X57401Y-43800D01*
X56646Y-43880D02*
X57401Y-43880D01*
X56646Y-43960D02*
X57401Y-43960D01*
X56646Y-44040D02*
X57401Y-44040D01*
X56646Y-44120D02*
X57430Y-44120D01*
X56646Y-44200D02*
X57498Y-44200D01*
X56646Y-44280D02*
X57530Y-44280D01*
X56646Y-44360D02*
X57530Y-44360D01*
X56646Y-44440D02*
X57530Y-44440D01*
X56646Y-44520D02*
X57530Y-44520D01*
X56646Y-44600D02*
X57530Y-44600D01*
X56918Y-44680D02*
X57082Y-44680D01*
X56950Y-44760D02*
X57050Y-44760D01*
X56950Y-44840D02*
X57050Y-44840D01*
X56950Y-44920D02*
X57050Y-44920D01*
X56950Y-45000D02*
X57050Y-45000D01*
X56950Y-45080D02*
X57050Y-45080D01*
X56950Y-45160D02*
X57050Y-45160D01*
X56950Y-45240D02*
X57050Y-45240D01*
X56950Y-45320D02*
X57050Y-45320D01*
X56950Y-45400D02*
X57050Y-45400D01*
X56950Y-45480D02*
X57050Y-45480D01*
X56950Y-45560D02*
X57050Y-45560D01*
X56898Y-45640D02*
X57102Y-45640D01*
X56646Y-45720D02*
X57530Y-45720D01*
X56646Y-45800D02*
X57530Y-45800D01*
X57530Y-45851D02*
X57530Y-45649D01*
X57451Y-45649D01*
X57112Y-45650D01*
X57050Y-45588D01*
X57050Y-45200D01*
X57050Y-45100D01*
X57050Y-44712D01*
X57112Y-44650D01*
X57451Y-44651D01*
X57530Y-44651D01*
X57530Y-44219D01*
X57509Y-44211D01*
X57439Y-44141D01*
X57401Y-44049D01*
X57401Y-42950D01*
X57439Y-42859D01*
X57509Y-42789D01*
X57530Y-42780D01*
X57530Y-42099D01*
X57120Y-42099D01*
X57029Y-42061D01*
X56959Y-41991D01*
X56921Y-41899D01*
X56921Y-41600D01*
X56959Y-41509D01*
X56968Y-41500D01*
X56959Y-41491D01*
X56921Y-41399D01*
X56921Y-41100D01*
X56959Y-41009D01*
X56967Y-40999D01*
X56959Y-40991D01*
X56921Y-40899D01*
X56921Y-40680D01*
X56730Y-40680D01*
X56730Y-43409D01*
X56696Y-43573D01*
X56646Y-43650D01*
X56646Y-44650D01*
X56888Y-44650D01*
X56950Y-44712D01*
X56950Y-45100D01*
X56950Y-45200D01*
X56950Y-45588D01*
X56888Y-45650D01*
X56646Y-45649D01*
X56646Y-45851D01*
X57530Y-45851D01*
M02*
