G04 (created by PCBnew (20090216-final)) date Mon 26 Oct 2009 16:49:24 PDT*
G01*
G70*
G90*
%MOIN*%
G04 Gerber Fmt 3.4, Leading zero omitted, Abs format*
%FSLAX34Y34*%
G04 APERTURE LIST*
%ADD10C,0.009000*%
%ADD11R,0.060000X0.060000*%
%ADD12C,0.060000*%
%ADD13R,0.035000X0.055000*%
%ADD14R,0.060000X0.025000*%
%ADD15C,0.122000*%
%ADD16C,0.066000*%
%ADD17R,0.066000X0.066000*%
%ADD18C,0.107000*%
%ADD19C,0.056000*%
%ADD20R,0.056000X0.056000*%
%ADD21C,0.045000*%
%ADD22C,0.018000*%
%ADD23C,0.010000*%
%ADD24R,0.055000X0.035000*%
%ADD25C,0.015000*%
%ADD26C,0.005000*%
G04 APERTURE END LIST*
G54D10*
X51250Y-35000D02*
X51250Y-50000D01*
X58750Y-35000D02*
X51250Y-35000D01*
X58750Y-50000D02*
X58750Y-35000D01*
X51250Y-50000D02*
X58750Y-50000D01*
G54D23*
X56928Y-47500D02*
X56617Y-47500D01*
X56617Y-47500D02*
X56617Y-47545D01*
X56617Y-47545D02*
X56795Y-47678D01*
X56795Y-47678D02*
X56661Y-47678D01*
X56661Y-47678D02*
X56617Y-47723D01*
X56617Y-47723D02*
X56617Y-47856D01*
X56617Y-47856D02*
X56661Y-47900D01*
X56661Y-47900D02*
X56884Y-47900D01*
X56884Y-47900D02*
X56928Y-47856D01*
X56139Y-47900D02*
X55961Y-47900D01*
X56050Y-47900D02*
X56050Y-47500D01*
X56050Y-47545D02*
X56139Y-47634D01*
X53777Y-47900D02*
X54088Y-47900D01*
X54088Y-47900D02*
X54088Y-47767D01*
X54088Y-47767D02*
X54044Y-47723D01*
X54044Y-47723D02*
X53821Y-47723D01*
X53821Y-47723D02*
X53777Y-47678D01*
X53777Y-47678D02*
X53777Y-47545D01*
X53777Y-47545D02*
X53821Y-47500D01*
X53821Y-47500D02*
X54044Y-47500D01*
X54044Y-47500D02*
X54088Y-47545D01*
X53206Y-47900D02*
X53206Y-47500D01*
X53206Y-47500D02*
X53428Y-47812D01*
X53428Y-47812D02*
X53117Y-47812D01*
G54D25*
X58250Y-46340D02*
X51750Y-46340D01*
X58250Y-49840D02*
X58250Y-46340D01*
X51750Y-49845D02*
X58250Y-49845D01*
X51750Y-46340D02*
X51750Y-49840D01*
G54D26*
X55700Y-38250D02*
X55699Y-38259D01*
X55699Y-38259D02*
X55696Y-38269D01*
X55696Y-38269D02*
X55691Y-38277D01*
X55691Y-38277D02*
X55685Y-38285D01*
X55685Y-38285D02*
X55677Y-38291D01*
X55677Y-38291D02*
X55669Y-38296D01*
X55669Y-38296D02*
X55660Y-38298D01*
X55660Y-38298D02*
X55650Y-38299D01*
X55650Y-38299D02*
X55641Y-38299D01*
X55641Y-38299D02*
X55632Y-38296D01*
X55632Y-38296D02*
X55623Y-38291D01*
X55623Y-38291D02*
X55616Y-38285D01*
X55616Y-38285D02*
X55609Y-38278D01*
X55609Y-38278D02*
X55605Y-38269D01*
X55605Y-38269D02*
X55602Y-38260D01*
X55602Y-38260D02*
X55601Y-38250D01*
X55601Y-38250D02*
X55601Y-38241D01*
X55601Y-38241D02*
X55604Y-38232D01*
X55604Y-38232D02*
X55608Y-38223D01*
X55608Y-38223D02*
X55615Y-38216D01*
X55615Y-38216D02*
X55622Y-38209D01*
X55622Y-38209D02*
X55630Y-38205D01*
X55630Y-38205D02*
X55640Y-38202D01*
X55640Y-38202D02*
X55649Y-38201D01*
X55649Y-38201D02*
X55658Y-38201D01*
X55658Y-38201D02*
X55668Y-38204D01*
X55668Y-38204D02*
X55676Y-38208D01*
X55676Y-38208D02*
X55684Y-38214D01*
X55684Y-38214D02*
X55690Y-38222D01*
X55690Y-38222D02*
X55695Y-38230D01*
X55695Y-38230D02*
X55698Y-38239D01*
X55698Y-38239D02*
X55699Y-38249D01*
X55699Y-38249D02*
X55700Y-38250D01*
X55200Y-38250D02*
X55600Y-38250D01*
X55600Y-38250D02*
X55600Y-37650D01*
X55600Y-37650D02*
X55200Y-37650D01*
X54800Y-37650D02*
X54400Y-37650D01*
X54400Y-37650D02*
X54400Y-38250D01*
X54400Y-38250D02*
X54800Y-38250D01*
X55700Y-36350D02*
X55699Y-36359D01*
X55699Y-36359D02*
X55696Y-36369D01*
X55696Y-36369D02*
X55691Y-36377D01*
X55691Y-36377D02*
X55685Y-36385D01*
X55685Y-36385D02*
X55677Y-36391D01*
X55677Y-36391D02*
X55669Y-36396D01*
X55669Y-36396D02*
X55660Y-36398D01*
X55660Y-36398D02*
X55650Y-36399D01*
X55650Y-36399D02*
X55641Y-36399D01*
X55641Y-36399D02*
X55632Y-36396D01*
X55632Y-36396D02*
X55623Y-36391D01*
X55623Y-36391D02*
X55616Y-36385D01*
X55616Y-36385D02*
X55609Y-36378D01*
X55609Y-36378D02*
X55605Y-36369D01*
X55605Y-36369D02*
X55602Y-36360D01*
X55602Y-36360D02*
X55601Y-36350D01*
X55601Y-36350D02*
X55601Y-36341D01*
X55601Y-36341D02*
X55604Y-36332D01*
X55604Y-36332D02*
X55608Y-36323D01*
X55608Y-36323D02*
X55615Y-36316D01*
X55615Y-36316D02*
X55622Y-36309D01*
X55622Y-36309D02*
X55630Y-36305D01*
X55630Y-36305D02*
X55640Y-36302D01*
X55640Y-36302D02*
X55649Y-36301D01*
X55649Y-36301D02*
X55658Y-36301D01*
X55658Y-36301D02*
X55668Y-36304D01*
X55668Y-36304D02*
X55676Y-36308D01*
X55676Y-36308D02*
X55684Y-36314D01*
X55684Y-36314D02*
X55690Y-36322D01*
X55690Y-36322D02*
X55695Y-36330D01*
X55695Y-36330D02*
X55698Y-36339D01*
X55698Y-36339D02*
X55699Y-36349D01*
X55699Y-36349D02*
X55700Y-36350D01*
X55200Y-36350D02*
X55600Y-36350D01*
X55600Y-36350D02*
X55600Y-35750D01*
X55600Y-35750D02*
X55200Y-35750D01*
X54800Y-35750D02*
X54400Y-35750D01*
X54400Y-35750D02*
X54400Y-36350D01*
X54400Y-36350D02*
X54800Y-36350D01*
X52900Y-44100D02*
X52899Y-44109D01*
X52899Y-44109D02*
X52896Y-44119D01*
X52896Y-44119D02*
X52891Y-44127D01*
X52891Y-44127D02*
X52885Y-44135D01*
X52885Y-44135D02*
X52877Y-44141D01*
X52877Y-44141D02*
X52869Y-44146D01*
X52869Y-44146D02*
X52860Y-44148D01*
X52860Y-44148D02*
X52850Y-44149D01*
X52850Y-44149D02*
X52841Y-44149D01*
X52841Y-44149D02*
X52832Y-44146D01*
X52832Y-44146D02*
X52823Y-44141D01*
X52823Y-44141D02*
X52816Y-44135D01*
X52816Y-44135D02*
X52809Y-44128D01*
X52809Y-44128D02*
X52805Y-44119D01*
X52805Y-44119D02*
X52802Y-44110D01*
X52802Y-44110D02*
X52801Y-44100D01*
X52801Y-44100D02*
X52801Y-44091D01*
X52801Y-44091D02*
X52804Y-44082D01*
X52804Y-44082D02*
X52808Y-44073D01*
X52808Y-44073D02*
X52815Y-44066D01*
X52815Y-44066D02*
X52822Y-44059D01*
X52822Y-44059D02*
X52830Y-44055D01*
X52830Y-44055D02*
X52840Y-44052D01*
X52840Y-44052D02*
X52849Y-44051D01*
X52849Y-44051D02*
X52858Y-44051D01*
X52858Y-44051D02*
X52868Y-44054D01*
X52868Y-44054D02*
X52876Y-44058D01*
X52876Y-44058D02*
X52884Y-44064D01*
X52884Y-44064D02*
X52890Y-44072D01*
X52890Y-44072D02*
X52895Y-44080D01*
X52895Y-44080D02*
X52898Y-44089D01*
X52898Y-44089D02*
X52899Y-44099D01*
X52899Y-44099D02*
X52900Y-44100D01*
X52400Y-44100D02*
X52800Y-44100D01*
X52800Y-44100D02*
X52800Y-43500D01*
X52800Y-43500D02*
X52400Y-43500D01*
X52000Y-43500D02*
X51600Y-43500D01*
X51600Y-43500D02*
X51600Y-44100D01*
X51600Y-44100D02*
X52000Y-44100D01*
G54D25*
X56250Y-39530D02*
X56245Y-39578D01*
X56245Y-39578D02*
X56231Y-39625D01*
X56231Y-39625D02*
X56208Y-39668D01*
X56208Y-39668D02*
X56177Y-39706D01*
X56177Y-39706D02*
X56139Y-39737D01*
X56139Y-39737D02*
X56096Y-39760D01*
X56096Y-39760D02*
X56050Y-39774D01*
X56050Y-39774D02*
X56001Y-39779D01*
X56001Y-39779D02*
X55954Y-39775D01*
X55954Y-39775D02*
X55907Y-39761D01*
X55907Y-39761D02*
X55864Y-39739D01*
X55864Y-39739D02*
X55826Y-39708D01*
X55826Y-39708D02*
X55794Y-39671D01*
X55794Y-39671D02*
X55771Y-39628D01*
X55771Y-39628D02*
X55756Y-39581D01*
X55756Y-39581D02*
X55751Y-39533D01*
X55751Y-39533D02*
X55755Y-39485D01*
X55755Y-39485D02*
X55768Y-39438D01*
X55768Y-39438D02*
X55790Y-39395D01*
X55790Y-39395D02*
X55821Y-39357D01*
X55821Y-39357D02*
X55858Y-39325D01*
X55858Y-39325D02*
X55900Y-39301D01*
X55900Y-39301D02*
X55947Y-39286D01*
X55947Y-39286D02*
X55995Y-39281D01*
X55995Y-39281D02*
X56043Y-39284D01*
X56043Y-39284D02*
X56090Y-39297D01*
X56090Y-39297D02*
X56133Y-39319D01*
X56133Y-39319D02*
X56172Y-39349D01*
X56172Y-39349D02*
X56204Y-39386D01*
X56204Y-39386D02*
X56228Y-39429D01*
X56228Y-39429D02*
X56243Y-39475D01*
X56243Y-39475D02*
X56249Y-39524D01*
X56249Y-39524D02*
X56250Y-39530D01*
X56500Y-39030D02*
X56500Y-43530D01*
X56500Y-43530D02*
X53500Y-43530D01*
X53500Y-43530D02*
X53500Y-39030D01*
X53500Y-39030D02*
X56500Y-39030D01*
G54D26*
X57200Y-45600D02*
X57199Y-45609D01*
X57199Y-45609D02*
X57196Y-45619D01*
X57196Y-45619D02*
X57191Y-45627D01*
X57191Y-45627D02*
X57185Y-45635D01*
X57185Y-45635D02*
X57177Y-45641D01*
X57177Y-45641D02*
X57169Y-45646D01*
X57169Y-45646D02*
X57160Y-45648D01*
X57160Y-45648D02*
X57150Y-45649D01*
X57150Y-45649D02*
X57141Y-45649D01*
X57141Y-45649D02*
X57132Y-45646D01*
X57132Y-45646D02*
X57123Y-45641D01*
X57123Y-45641D02*
X57116Y-45635D01*
X57116Y-45635D02*
X57109Y-45628D01*
X57109Y-45628D02*
X57105Y-45619D01*
X57105Y-45619D02*
X57102Y-45610D01*
X57102Y-45610D02*
X57101Y-45600D01*
X57101Y-45600D02*
X57101Y-45591D01*
X57101Y-45591D02*
X57104Y-45582D01*
X57104Y-45582D02*
X57108Y-45573D01*
X57108Y-45573D02*
X57115Y-45566D01*
X57115Y-45566D02*
X57122Y-45559D01*
X57122Y-45559D02*
X57130Y-45555D01*
X57130Y-45555D02*
X57140Y-45552D01*
X57140Y-45552D02*
X57149Y-45551D01*
X57149Y-45551D02*
X57158Y-45551D01*
X57158Y-45551D02*
X57168Y-45554D01*
X57168Y-45554D02*
X57176Y-45558D01*
X57176Y-45558D02*
X57184Y-45564D01*
X57184Y-45564D02*
X57190Y-45572D01*
X57190Y-45572D02*
X57195Y-45580D01*
X57195Y-45580D02*
X57198Y-45589D01*
X57198Y-45589D02*
X57199Y-45599D01*
X57199Y-45599D02*
X57200Y-45600D01*
X56700Y-45600D02*
X57100Y-45600D01*
X57100Y-45600D02*
X57100Y-45000D01*
X57100Y-45000D02*
X56700Y-45000D01*
X56300Y-45000D02*
X55900Y-45000D01*
X55900Y-45000D02*
X55900Y-45600D01*
X55900Y-45600D02*
X56300Y-45600D01*
X54200Y-45600D02*
X54199Y-45609D01*
X54199Y-45609D02*
X54196Y-45619D01*
X54196Y-45619D02*
X54191Y-45627D01*
X54191Y-45627D02*
X54185Y-45635D01*
X54185Y-45635D02*
X54177Y-45641D01*
X54177Y-45641D02*
X54169Y-45646D01*
X54169Y-45646D02*
X54160Y-45648D01*
X54160Y-45648D02*
X54150Y-45649D01*
X54150Y-45649D02*
X54141Y-45649D01*
X54141Y-45649D02*
X54132Y-45646D01*
X54132Y-45646D02*
X54123Y-45641D01*
X54123Y-45641D02*
X54116Y-45635D01*
X54116Y-45635D02*
X54109Y-45628D01*
X54109Y-45628D02*
X54105Y-45619D01*
X54105Y-45619D02*
X54102Y-45610D01*
X54102Y-45610D02*
X54101Y-45600D01*
X54101Y-45600D02*
X54101Y-45591D01*
X54101Y-45591D02*
X54104Y-45582D01*
X54104Y-45582D02*
X54108Y-45573D01*
X54108Y-45573D02*
X54115Y-45566D01*
X54115Y-45566D02*
X54122Y-45559D01*
X54122Y-45559D02*
X54130Y-45555D01*
X54130Y-45555D02*
X54140Y-45552D01*
X54140Y-45552D02*
X54149Y-45551D01*
X54149Y-45551D02*
X54158Y-45551D01*
X54158Y-45551D02*
X54168Y-45554D01*
X54168Y-45554D02*
X54176Y-45558D01*
X54176Y-45558D02*
X54184Y-45564D01*
X54184Y-45564D02*
X54190Y-45572D01*
X54190Y-45572D02*
X54195Y-45580D01*
X54195Y-45580D02*
X54198Y-45589D01*
X54198Y-45589D02*
X54199Y-45599D01*
X54199Y-45599D02*
X54200Y-45600D01*
X53700Y-45600D02*
X54100Y-45600D01*
X54100Y-45600D02*
X54100Y-45000D01*
X54100Y-45000D02*
X53700Y-45000D01*
X53300Y-45000D02*
X52900Y-45000D01*
X52900Y-45000D02*
X52900Y-45600D01*
X52900Y-45600D02*
X53300Y-45600D01*
X55250Y-37475D02*
X55250Y-37225D01*
X55250Y-37225D02*
X55083Y-37225D01*
X55083Y-37225D02*
X55055Y-37253D01*
X55055Y-37253D02*
X55055Y-37337D01*
X55055Y-37337D02*
X55083Y-37364D01*
X55083Y-37364D02*
X55250Y-37364D01*
X55166Y-37364D02*
X55055Y-37475D01*
X54784Y-37475D02*
X54784Y-37225D01*
X54784Y-37225D02*
X54923Y-37420D01*
X54923Y-37420D02*
X54728Y-37420D01*
X55545Y-38675D02*
X55740Y-38675D01*
X55740Y-38675D02*
X55740Y-38592D01*
X55740Y-38592D02*
X55712Y-38564D01*
X55712Y-38564D02*
X55573Y-38564D01*
X55573Y-38564D02*
X55545Y-38537D01*
X55545Y-38537D02*
X55545Y-38453D01*
X55545Y-38453D02*
X55573Y-38425D01*
X55573Y-38425D02*
X55712Y-38425D01*
X55712Y-38425D02*
X55740Y-38453D01*
X55329Y-38675D02*
X55329Y-38648D01*
X55086Y-38620D02*
X55086Y-38648D01*
X55086Y-38648D02*
X55058Y-38675D01*
X55058Y-38675D02*
X54919Y-38675D01*
X54919Y-38675D02*
X54891Y-38648D01*
X54891Y-38648D02*
X54891Y-38564D01*
X54891Y-38564D02*
X54947Y-38509D01*
X54947Y-38509D02*
X55086Y-38509D01*
X55086Y-38509D02*
X55086Y-38425D01*
X55086Y-38425D02*
X54891Y-38425D01*
X54759Y-38620D02*
X54759Y-38648D01*
X54759Y-38648D02*
X54731Y-38675D01*
X54731Y-38675D02*
X54592Y-38675D01*
X54592Y-38675D02*
X54564Y-38648D01*
X54564Y-38648D02*
X54564Y-38564D01*
X54564Y-38564D02*
X54620Y-38509D01*
X54620Y-38509D02*
X54759Y-38509D01*
X54759Y-38509D02*
X54759Y-38425D01*
X54759Y-38425D02*
X54564Y-38425D01*
X54432Y-38675D02*
X54432Y-38425D01*
X54432Y-38425D02*
X54321Y-38537D01*
X54321Y-38537D02*
X54209Y-38425D01*
X54209Y-38425D02*
X54209Y-38675D01*
X55250Y-35575D02*
X55250Y-35325D01*
X55250Y-35325D02*
X55083Y-35325D01*
X55083Y-35325D02*
X55055Y-35353D01*
X55055Y-35353D02*
X55055Y-35437D01*
X55055Y-35437D02*
X55083Y-35464D01*
X55083Y-35464D02*
X55250Y-35464D01*
X55166Y-35464D02*
X55055Y-35575D01*
X54923Y-35325D02*
X54728Y-35325D01*
X54728Y-35325D02*
X54728Y-35353D01*
X54728Y-35353D02*
X54839Y-35437D01*
X54839Y-35437D02*
X54756Y-35437D01*
X54756Y-35437D02*
X54728Y-35464D01*
X54728Y-35464D02*
X54728Y-35548D01*
X54728Y-35548D02*
X54756Y-35575D01*
X54756Y-35575D02*
X54895Y-35575D01*
X54895Y-35575D02*
X54923Y-35548D01*
X55545Y-36775D02*
X55740Y-36775D01*
X55740Y-36775D02*
X55740Y-36692D01*
X55740Y-36692D02*
X55712Y-36664D01*
X55712Y-36664D02*
X55573Y-36664D01*
X55573Y-36664D02*
X55545Y-36637D01*
X55545Y-36637D02*
X55545Y-36553D01*
X55545Y-36553D02*
X55573Y-36525D01*
X55573Y-36525D02*
X55712Y-36525D01*
X55712Y-36525D02*
X55740Y-36553D01*
X55329Y-36775D02*
X55329Y-36748D01*
X55086Y-36720D02*
X55086Y-36748D01*
X55086Y-36748D02*
X55058Y-36775D01*
X55058Y-36775D02*
X54919Y-36775D01*
X54919Y-36775D02*
X54891Y-36748D01*
X54891Y-36748D02*
X54891Y-36664D01*
X54891Y-36664D02*
X54947Y-36609D01*
X54947Y-36609D02*
X55086Y-36609D01*
X55086Y-36609D02*
X55086Y-36525D01*
X55086Y-36525D02*
X54891Y-36525D01*
X54759Y-36720D02*
X54759Y-36748D01*
X54759Y-36748D02*
X54731Y-36775D01*
X54731Y-36775D02*
X54592Y-36775D01*
X54592Y-36775D02*
X54564Y-36748D01*
X54564Y-36748D02*
X54564Y-36664D01*
X54564Y-36664D02*
X54620Y-36609D01*
X54620Y-36609D02*
X54759Y-36609D01*
X54759Y-36609D02*
X54759Y-36525D01*
X54759Y-36525D02*
X54564Y-36525D01*
X54432Y-36775D02*
X54432Y-36525D01*
X54432Y-36525D02*
X54321Y-36637D01*
X54321Y-36637D02*
X54209Y-36525D01*
X54209Y-36525D02*
X54209Y-36775D01*
X52450Y-43375D02*
X52450Y-43125D01*
X52450Y-43125D02*
X52283Y-43125D01*
X52283Y-43125D02*
X52255Y-43153D01*
X52255Y-43153D02*
X52255Y-43237D01*
X52255Y-43237D02*
X52283Y-43264D01*
X52283Y-43264D02*
X52450Y-43264D01*
X52366Y-43264D02*
X52255Y-43375D01*
X51928Y-43375D02*
X52123Y-43375D01*
X52123Y-43375D02*
X52123Y-43292D01*
X52123Y-43292D02*
X52095Y-43264D01*
X52095Y-43264D02*
X51956Y-43264D01*
X51956Y-43264D02*
X51928Y-43237D01*
X51928Y-43237D02*
X51928Y-43153D01*
X51928Y-43153D02*
X51956Y-43125D01*
X51956Y-43125D02*
X52095Y-43125D01*
X52095Y-43125D02*
X52123Y-43153D01*
X52801Y-44475D02*
X52801Y-44225D01*
X52801Y-44225D02*
X52940Y-44420D01*
X52940Y-44420D02*
X52745Y-44420D01*
X52418Y-44475D02*
X52613Y-44475D01*
X52613Y-44475D02*
X52613Y-44392D01*
X52613Y-44392D02*
X52585Y-44364D01*
X52585Y-44364D02*
X52446Y-44364D01*
X52446Y-44364D02*
X52418Y-44337D01*
X52418Y-44337D02*
X52418Y-44253D01*
X52418Y-44253D02*
X52446Y-44225D01*
X52446Y-44225D02*
X52585Y-44225D01*
X52585Y-44225D02*
X52613Y-44253D01*
X52202Y-44475D02*
X52202Y-44448D01*
X51764Y-44475D02*
X51959Y-44475D01*
X51959Y-44475D02*
X51959Y-44392D01*
X51959Y-44392D02*
X51931Y-44364D01*
X51931Y-44364D02*
X51792Y-44364D01*
X51792Y-44364D02*
X51764Y-44337D01*
X51764Y-44337D02*
X51764Y-44253D01*
X51764Y-44253D02*
X51792Y-44225D01*
X51792Y-44225D02*
X51931Y-44225D01*
X51931Y-44225D02*
X51959Y-44253D01*
X51604Y-44475D02*
X51604Y-44225D01*
X51604Y-44392D02*
X51576Y-44392D01*
X51576Y-44392D02*
X51437Y-44309D01*
X51576Y-44392D02*
X51437Y-44475D01*
G54D23*
X55450Y-43730D02*
X55450Y-44086D01*
X55450Y-44086D02*
X55406Y-44130D01*
X55406Y-44130D02*
X55183Y-44130D01*
X55183Y-44130D02*
X55139Y-44086D01*
X55139Y-44086D02*
X55139Y-43730D01*
X54906Y-43730D02*
X54595Y-43730D01*
X54595Y-43730D02*
X54595Y-43775D01*
X54595Y-43775D02*
X54773Y-43908D01*
X54773Y-43908D02*
X54639Y-43908D01*
X54639Y-43908D02*
X54595Y-43953D01*
X54595Y-43953D02*
X54595Y-44086D01*
X54595Y-44086D02*
X54639Y-44130D01*
X54639Y-44130D02*
X54862Y-44130D01*
X54862Y-44130D02*
X54906Y-44086D01*
X56216Y-41180D02*
X56216Y-41536D01*
X56216Y-41536D02*
X56172Y-41580D01*
X56172Y-41580D02*
X55949Y-41580D01*
X55949Y-41580D02*
X55905Y-41536D01*
X55905Y-41536D02*
X55905Y-41180D01*
X55672Y-41580D02*
X55672Y-41269D01*
X55672Y-41269D02*
X55583Y-41180D01*
X55583Y-41180D02*
X55450Y-41180D01*
X55450Y-41180D02*
X55361Y-41269D01*
X55361Y-41269D02*
X55361Y-41580D01*
X55672Y-41358D02*
X55361Y-41358D01*
X55128Y-41580D02*
X55128Y-41180D01*
X55128Y-41180D02*
X54817Y-41180D01*
X55128Y-41358D02*
X54950Y-41358D01*
X54362Y-41580D02*
X54362Y-41180D01*
X54362Y-41180D02*
X54584Y-41492D01*
X54584Y-41492D02*
X54273Y-41492D01*
X53729Y-41580D02*
X54040Y-41580D01*
X54040Y-41580D02*
X54040Y-41447D01*
X54040Y-41447D02*
X53996Y-41403D01*
X53996Y-41403D02*
X53773Y-41403D01*
X53773Y-41403D02*
X53729Y-41358D01*
X53729Y-41358D02*
X53729Y-41225D01*
X53729Y-41225D02*
X53773Y-41180D01*
X53773Y-41180D02*
X53996Y-41180D01*
X53996Y-41180D02*
X54040Y-41225D01*
G54D26*
X56555Y-44798D02*
X56583Y-44825D01*
X56583Y-44825D02*
X56722Y-44825D01*
X56722Y-44825D02*
X56750Y-44798D01*
X56750Y-44798D02*
X56750Y-44603D01*
X56750Y-44603D02*
X56722Y-44575D01*
X56722Y-44575D02*
X56583Y-44575D01*
X56583Y-44575D02*
X56555Y-44603D01*
X56284Y-44825D02*
X56284Y-44575D01*
X56284Y-44575D02*
X56423Y-44770D01*
X56423Y-44770D02*
X56228Y-44770D01*
X57240Y-46025D02*
X57045Y-45775D01*
X57240Y-45998D02*
X57240Y-45803D01*
X57240Y-45803D02*
X57212Y-45775D01*
X57212Y-45775D02*
X57073Y-45775D01*
X57073Y-45775D02*
X57045Y-45803D01*
X57045Y-45803D02*
X57045Y-45998D01*
X57045Y-45998D02*
X57073Y-46025D01*
X57073Y-46025D02*
X57212Y-46025D01*
X57212Y-46025D02*
X57240Y-45998D01*
X56829Y-46025D02*
X56829Y-45998D01*
X56530Y-46025D02*
X56419Y-46025D01*
X56475Y-46025D02*
X56475Y-45775D01*
X56475Y-45803D02*
X56530Y-45859D01*
X56259Y-45859D02*
X56259Y-45970D01*
X56259Y-45970D02*
X56203Y-46025D01*
X56203Y-46025D02*
X56120Y-46025D01*
X56120Y-46025D02*
X56064Y-45970D01*
X56064Y-45970D02*
X56064Y-45859D01*
X55932Y-46025D02*
X55932Y-45775D01*
X55932Y-45775D02*
X55737Y-45775D01*
X55932Y-45887D02*
X55821Y-45887D01*
X53605Y-44798D02*
X53633Y-44825D01*
X53633Y-44825D02*
X53772Y-44825D01*
X53772Y-44825D02*
X53800Y-44798D01*
X53800Y-44798D02*
X53800Y-44603D01*
X53800Y-44603D02*
X53772Y-44575D01*
X53772Y-44575D02*
X53633Y-44575D01*
X53633Y-44575D02*
X53605Y-44603D01*
X53473Y-44575D02*
X53278Y-44575D01*
X53278Y-44575D02*
X53278Y-44603D01*
X53278Y-44603D02*
X53389Y-44687D01*
X53389Y-44687D02*
X53306Y-44687D01*
X53306Y-44687D02*
X53278Y-44714D01*
X53278Y-44714D02*
X53278Y-44798D01*
X53278Y-44798D02*
X53306Y-44825D01*
X53306Y-44825D02*
X53445Y-44825D01*
X53445Y-44825D02*
X53473Y-44798D01*
X54290Y-46025D02*
X54095Y-45775D01*
X54290Y-45998D02*
X54290Y-45803D01*
X54290Y-45803D02*
X54262Y-45775D01*
X54262Y-45775D02*
X54123Y-45775D01*
X54123Y-45775D02*
X54095Y-45803D01*
X54095Y-45803D02*
X54095Y-45998D01*
X54095Y-45998D02*
X54123Y-46025D01*
X54123Y-46025D02*
X54262Y-46025D01*
X54262Y-46025D02*
X54290Y-45998D01*
X53879Y-46025D02*
X53879Y-45998D01*
X53580Y-46025D02*
X53469Y-46025D01*
X53525Y-46025D02*
X53525Y-45775D01*
X53525Y-45803D02*
X53580Y-45859D01*
X53309Y-45859D02*
X53309Y-45970D01*
X53309Y-45970D02*
X53253Y-46025D01*
X53253Y-46025D02*
X53170Y-46025D01*
X53170Y-46025D02*
X53114Y-45970D01*
X53114Y-45970D02*
X53114Y-45859D01*
X52982Y-46025D02*
X52982Y-45775D01*
X52982Y-45775D02*
X52787Y-45775D01*
X52982Y-45887D02*
X52871Y-45887D01*
M02*
