G04 (created by PCBnew (20090216-final)) date Mon 26 Oct 2009 16:49:24 PDT*
G01*
G70*
G90*
%MOIN*%
G04 Gerber Fmt 3.4, Leading zero omitted, Abs format*
%FSLAX34Y34*%
G04 APERTURE LIST*
%ADD10C,0.009000*%
%ADD11R,0.060000X0.060000*%
%ADD12C,0.060000*%
%ADD13R,0.035000X0.055000*%
%ADD14R,0.060000X0.025000*%
%ADD15C,0.122000*%
%ADD16C,0.066000*%
%ADD17R,0.066000X0.066000*%
%ADD18C,0.107000*%
%ADD19C,0.056000*%
%ADD20R,0.056000X0.056000*%
%ADD21C,0.045000*%
%ADD22C,0.018000*%
%ADD23C,0.010000*%
%ADD24R,0.055000X0.035000*%
%ADD25C,0.015000*%
%ADD26C,0.005000*%
%ADD27C,0.009000*%
%ADD28C,0.007500*%
%ADD29C,0.012000*%
%ADD30R,0.041000X0.061000*%
%ADD31R,0.066000X0.031000*%
%ADD32C,0.128000*%
%ADD33C,0.072000*%
%ADD34R,0.072000X0.072000*%
%ADD35C,0.113000*%
%ADD36C,0.062000*%
%ADD37R,0.062000X0.062000*%
G04 APERTURE END LIST*
G54D10*
X51250Y-35000D02*
X51250Y-50000D01*
X58750Y-35000D02*
X51250Y-35000D01*
X58750Y-50000D02*
X58750Y-35000D01*
X51250Y-50000D02*
X58750Y-50000D01*
G54D17*
X56500Y-38660D03*
G54D16*
X56500Y-37660D03*
X56500Y-36660D03*
X56500Y-35660D03*
X53500Y-35660D03*
X53500Y-36660D03*
X53500Y-37660D03*
X53500Y-38660D03*
X58050Y-45000D03*
X58050Y-44000D03*
X58050Y-42000D03*
X58050Y-41000D03*
X58050Y-39000D03*
X58050Y-38000D03*
G54D30*
X55375Y-37950D03*
X54625Y-37950D03*
X55375Y-36050D03*
X54625Y-36050D03*
X52575Y-43800D03*
X51825Y-43800D03*
G54D31*
X57000Y-39530D03*
X57000Y-40030D03*
X57000Y-40530D03*
X57000Y-41030D03*
X57000Y-41530D03*
X57000Y-42030D03*
X57000Y-42530D03*
X57000Y-43030D03*
X53000Y-43030D03*
X53000Y-42530D03*
X53000Y-42030D03*
X53000Y-41530D03*
X53000Y-41030D03*
X53000Y-40530D03*
X53000Y-40030D03*
X53000Y-39530D03*
G54D32*
X52188Y-36150D03*
X57813Y-36150D03*
G54D30*
X56875Y-45300D03*
X56125Y-45300D03*
X53875Y-45300D03*
X53125Y-45300D03*
G54D33*
X55000Y-44940D03*
X56000Y-43940D03*
G54D34*
X54000Y-43940D03*
G54D35*
X52480Y-48930D03*
X57520Y-48930D03*
G54D36*
X53230Y-47010D03*
X56770Y-47010D03*
X53935Y-47010D03*
G54D37*
X56065Y-47010D03*
G54D35*
X55000Y-48660D03*
M02*
