G04 (created by PCBNEW-RS274X (2011-05-25)-stable) date Fri 04 Oct 2013 02:44:26 PM EDT*
G01*
G70*
G90*
%MOIN*%
G04 Gerber Fmt 3.4, Leading zero omitted, Abs format*
%FSLAX34Y34*%
G04 APERTURE LIST*
%ADD10C,0.006000*%
%ADD11C,0.009000*%
%ADD12C,0.005000*%
%ADD13C,0.015000*%
%ADD14C,0.010000*%
%ADD15C,0.012000*%
%ADD16C,0.127000*%
%ADD17C,0.076000*%
%ADD18R,0.076000X0.076000*%
%ADD19C,0.180000*%
%ADD20R,0.120000X0.070000*%
%ADD21C,0.080000*%
%ADD22R,0.070000X0.120000*%
%ADD23C,0.220000*%
%ADD24C,0.100000*%
%ADD25C,0.096000*%
%ADD26C,0.160000*%
%ADD27C,0.140000*%
%ADD28R,0.085000X0.085000*%
%ADD29C,0.085000*%
%ADD30C,0.093000*%
%ADD31R,0.093000X0.093000*%
%ADD32R,0.095000X0.190000*%
%ADD33C,0.155000*%
%ADD34R,0.080000X0.045000*%
G04 APERTURE END LIST*
G54D10*
G54D11*
X29500Y-30500D02*
X29500Y-53000D01*
X72000Y-30500D02*
X29500Y-30500D01*
X72000Y-53000D02*
X72000Y-30500D01*
X29500Y-53000D02*
X72000Y-53000D01*
G54D12*
X48920Y-44800D02*
X48918Y-44813D01*
X48914Y-44826D01*
X48908Y-44838D01*
X48899Y-44849D01*
X48889Y-44858D01*
X48877Y-44864D01*
X48864Y-44868D01*
X48850Y-44869D01*
X48837Y-44868D01*
X48824Y-44864D01*
X48812Y-44858D01*
X48802Y-44850D01*
X48793Y-44839D01*
X48786Y-44827D01*
X48782Y-44814D01*
X48781Y-44800D01*
X48782Y-44788D01*
X48785Y-44775D01*
X48792Y-44763D01*
X48800Y-44752D01*
X48811Y-44743D01*
X48822Y-44736D01*
X48835Y-44732D01*
X48849Y-44731D01*
X48862Y-44732D01*
X48875Y-44735D01*
X48887Y-44741D01*
X48898Y-44750D01*
X48907Y-44760D01*
X48913Y-44772D01*
X48918Y-44785D01*
X48919Y-44799D01*
X48920Y-44800D01*
X47700Y-45450D02*
X47700Y-44850D01*
X47700Y-44850D02*
X48800Y-44850D01*
X48800Y-44850D02*
X48800Y-45450D01*
X48800Y-46050D02*
X48800Y-46650D01*
X48800Y-46650D02*
X47700Y-46650D01*
X47700Y-46650D02*
X47700Y-46050D01*
X43220Y-46700D02*
X43218Y-46713D01*
X43214Y-46726D01*
X43208Y-46738D01*
X43199Y-46749D01*
X43189Y-46758D01*
X43177Y-46764D01*
X43164Y-46768D01*
X43150Y-46769D01*
X43137Y-46768D01*
X43124Y-46764D01*
X43112Y-46758D01*
X43102Y-46750D01*
X43093Y-46739D01*
X43086Y-46727D01*
X43082Y-46714D01*
X43081Y-46700D01*
X43082Y-46688D01*
X43085Y-46675D01*
X43092Y-46663D01*
X43100Y-46652D01*
X43111Y-46643D01*
X43122Y-46636D01*
X43135Y-46632D01*
X43149Y-46631D01*
X43162Y-46632D01*
X43175Y-46635D01*
X43187Y-46641D01*
X43198Y-46650D01*
X43207Y-46660D01*
X43213Y-46672D01*
X43218Y-46685D01*
X43219Y-46699D01*
X43220Y-46700D01*
X44300Y-46050D02*
X44300Y-46650D01*
X44300Y-46650D02*
X43200Y-46650D01*
X43200Y-46650D02*
X43200Y-46050D01*
X43200Y-45450D02*
X43200Y-44850D01*
X43200Y-44850D02*
X44300Y-44850D01*
X44300Y-44850D02*
X44300Y-45450D01*
X41470Y-46700D02*
X41468Y-46713D01*
X41464Y-46726D01*
X41458Y-46738D01*
X41449Y-46749D01*
X41439Y-46758D01*
X41427Y-46764D01*
X41414Y-46768D01*
X41400Y-46769D01*
X41387Y-46768D01*
X41374Y-46764D01*
X41362Y-46758D01*
X41352Y-46750D01*
X41343Y-46739D01*
X41336Y-46727D01*
X41332Y-46714D01*
X41331Y-46700D01*
X41332Y-46688D01*
X41335Y-46675D01*
X41342Y-46663D01*
X41350Y-46652D01*
X41361Y-46643D01*
X41372Y-46636D01*
X41385Y-46632D01*
X41399Y-46631D01*
X41412Y-46632D01*
X41425Y-46635D01*
X41437Y-46641D01*
X41448Y-46650D01*
X41457Y-46660D01*
X41463Y-46672D01*
X41468Y-46685D01*
X41469Y-46699D01*
X41470Y-46700D01*
X42550Y-46050D02*
X42550Y-46650D01*
X42550Y-46650D02*
X41450Y-46650D01*
X41450Y-46650D02*
X41450Y-46050D01*
X41450Y-45450D02*
X41450Y-44850D01*
X41450Y-44850D02*
X42550Y-44850D01*
X42550Y-44850D02*
X42550Y-45450D01*
X44420Y-48300D02*
X44418Y-48313D01*
X44414Y-48326D01*
X44408Y-48338D01*
X44399Y-48349D01*
X44389Y-48358D01*
X44377Y-48364D01*
X44364Y-48368D01*
X44350Y-48369D01*
X44337Y-48368D01*
X44324Y-48364D01*
X44312Y-48358D01*
X44302Y-48350D01*
X44293Y-48339D01*
X44286Y-48327D01*
X44282Y-48314D01*
X44281Y-48300D01*
X44282Y-48288D01*
X44285Y-48275D01*
X44292Y-48263D01*
X44300Y-48252D01*
X44311Y-48243D01*
X44322Y-48236D01*
X44335Y-48232D01*
X44349Y-48231D01*
X44362Y-48232D01*
X44375Y-48235D01*
X44387Y-48241D01*
X44398Y-48250D01*
X44407Y-48260D01*
X44413Y-48272D01*
X44418Y-48285D01*
X44419Y-48299D01*
X44420Y-48300D01*
X43200Y-48950D02*
X43200Y-48350D01*
X43200Y-48350D02*
X44300Y-48350D01*
X44300Y-48350D02*
X44300Y-48950D01*
X44300Y-49550D02*
X44300Y-50150D01*
X44300Y-50150D02*
X43200Y-50150D01*
X43200Y-50150D02*
X43200Y-49550D01*
X66370Y-42900D02*
X66368Y-42913D01*
X66364Y-42926D01*
X66358Y-42938D01*
X66349Y-42949D01*
X66339Y-42958D01*
X66327Y-42964D01*
X66314Y-42968D01*
X66300Y-42969D01*
X66287Y-42968D01*
X66274Y-42964D01*
X66262Y-42958D01*
X66252Y-42950D01*
X66243Y-42939D01*
X66236Y-42927D01*
X66232Y-42914D01*
X66231Y-42900D01*
X66232Y-42888D01*
X66235Y-42875D01*
X66242Y-42863D01*
X66250Y-42852D01*
X66261Y-42843D01*
X66272Y-42836D01*
X66285Y-42832D01*
X66299Y-42831D01*
X66312Y-42832D01*
X66325Y-42835D01*
X66337Y-42841D01*
X66348Y-42850D01*
X66357Y-42860D01*
X66363Y-42872D01*
X66368Y-42885D01*
X66369Y-42899D01*
X66370Y-42900D01*
X66950Y-44050D02*
X66350Y-44050D01*
X66350Y-44050D02*
X66350Y-42950D01*
X66350Y-42950D02*
X66950Y-42950D01*
X67550Y-42950D02*
X68150Y-42950D01*
X68150Y-42950D02*
X68150Y-44050D01*
X68150Y-44050D02*
X67550Y-44050D01*
X57970Y-46450D02*
X57968Y-46463D01*
X57964Y-46476D01*
X57958Y-46488D01*
X57949Y-46499D01*
X57939Y-46508D01*
X57927Y-46514D01*
X57914Y-46518D01*
X57900Y-46519D01*
X57887Y-46518D01*
X57874Y-46514D01*
X57862Y-46508D01*
X57852Y-46500D01*
X57843Y-46489D01*
X57836Y-46477D01*
X57832Y-46464D01*
X57831Y-46450D01*
X57832Y-46438D01*
X57835Y-46425D01*
X57842Y-46413D01*
X57850Y-46402D01*
X57861Y-46393D01*
X57872Y-46386D01*
X57885Y-46382D01*
X57899Y-46381D01*
X57912Y-46382D01*
X57925Y-46385D01*
X57937Y-46391D01*
X57948Y-46400D01*
X57957Y-46410D01*
X57963Y-46422D01*
X57968Y-46435D01*
X57969Y-46449D01*
X57970Y-46450D01*
X59050Y-45800D02*
X59050Y-46400D01*
X59050Y-46400D02*
X57950Y-46400D01*
X57950Y-46400D02*
X57950Y-45800D01*
X57950Y-45200D02*
X57950Y-44600D01*
X57950Y-44600D02*
X59050Y-44600D01*
X59050Y-44600D02*
X59050Y-45200D01*
X45120Y-46900D02*
X45118Y-46913D01*
X45114Y-46926D01*
X45108Y-46938D01*
X45099Y-46949D01*
X45089Y-46958D01*
X45077Y-46964D01*
X45064Y-46968D01*
X45050Y-46969D01*
X45037Y-46968D01*
X45024Y-46964D01*
X45012Y-46958D01*
X45002Y-46950D01*
X44993Y-46939D01*
X44986Y-46927D01*
X44982Y-46914D01*
X44981Y-46900D01*
X44982Y-46888D01*
X44985Y-46875D01*
X44992Y-46863D01*
X45000Y-46852D01*
X45011Y-46843D01*
X45022Y-46836D01*
X45035Y-46832D01*
X45049Y-46831D01*
X45062Y-46832D01*
X45075Y-46835D01*
X45087Y-46841D01*
X45098Y-46850D01*
X45107Y-46860D01*
X45113Y-46872D01*
X45118Y-46885D01*
X45119Y-46899D01*
X45120Y-46900D01*
X45700Y-48050D02*
X45100Y-48050D01*
X45100Y-48050D02*
X45100Y-46950D01*
X45100Y-46950D02*
X45700Y-46950D01*
X46300Y-46950D02*
X46900Y-46950D01*
X46900Y-46950D02*
X46900Y-48050D01*
X46900Y-48050D02*
X46300Y-48050D01*
X46670Y-48300D02*
X46668Y-48313D01*
X46664Y-48326D01*
X46658Y-48338D01*
X46649Y-48349D01*
X46639Y-48358D01*
X46627Y-48364D01*
X46614Y-48368D01*
X46600Y-48369D01*
X46587Y-48368D01*
X46574Y-48364D01*
X46562Y-48358D01*
X46552Y-48350D01*
X46543Y-48339D01*
X46536Y-48327D01*
X46532Y-48314D01*
X46531Y-48300D01*
X46532Y-48288D01*
X46535Y-48275D01*
X46542Y-48263D01*
X46550Y-48252D01*
X46561Y-48243D01*
X46572Y-48236D01*
X46585Y-48232D01*
X46599Y-48231D01*
X46612Y-48232D01*
X46625Y-48235D01*
X46637Y-48241D01*
X46648Y-48250D01*
X46657Y-48260D01*
X46663Y-48272D01*
X46668Y-48285D01*
X46669Y-48299D01*
X46670Y-48300D01*
X45450Y-48950D02*
X45450Y-48350D01*
X45450Y-48350D02*
X46550Y-48350D01*
X46550Y-48350D02*
X46550Y-48950D01*
X46550Y-49550D02*
X46550Y-50150D01*
X46550Y-50150D02*
X45450Y-50150D01*
X45450Y-50150D02*
X45450Y-49550D01*
X54470Y-46700D02*
X54468Y-46713D01*
X54464Y-46726D01*
X54458Y-46738D01*
X54449Y-46749D01*
X54439Y-46758D01*
X54427Y-46764D01*
X54414Y-46768D01*
X54400Y-46769D01*
X54387Y-46768D01*
X54374Y-46764D01*
X54362Y-46758D01*
X54352Y-46750D01*
X54343Y-46739D01*
X54336Y-46727D01*
X54332Y-46714D01*
X54331Y-46700D01*
X54332Y-46688D01*
X54335Y-46675D01*
X54342Y-46663D01*
X54350Y-46652D01*
X54361Y-46643D01*
X54372Y-46636D01*
X54385Y-46632D01*
X54399Y-46631D01*
X54412Y-46632D01*
X54425Y-46635D01*
X54437Y-46641D01*
X54448Y-46650D01*
X54457Y-46660D01*
X54463Y-46672D01*
X54468Y-46685D01*
X54469Y-46699D01*
X54470Y-46700D01*
X55550Y-46050D02*
X55550Y-46650D01*
X55550Y-46650D02*
X54450Y-46650D01*
X54450Y-46650D02*
X54450Y-46050D01*
X54450Y-45450D02*
X54450Y-44850D01*
X54450Y-44850D02*
X55550Y-44850D01*
X55550Y-44850D02*
X55550Y-45450D01*
X50670Y-44800D02*
X50668Y-44813D01*
X50664Y-44826D01*
X50658Y-44838D01*
X50649Y-44849D01*
X50639Y-44858D01*
X50627Y-44864D01*
X50614Y-44868D01*
X50600Y-44869D01*
X50587Y-44868D01*
X50574Y-44864D01*
X50562Y-44858D01*
X50552Y-44850D01*
X50543Y-44839D01*
X50536Y-44827D01*
X50532Y-44814D01*
X50531Y-44800D01*
X50532Y-44788D01*
X50535Y-44775D01*
X50542Y-44763D01*
X50550Y-44752D01*
X50561Y-44743D01*
X50572Y-44736D01*
X50585Y-44732D01*
X50599Y-44731D01*
X50612Y-44732D01*
X50625Y-44735D01*
X50637Y-44741D01*
X50648Y-44750D01*
X50657Y-44760D01*
X50663Y-44772D01*
X50668Y-44785D01*
X50669Y-44799D01*
X50670Y-44800D01*
X49450Y-45450D02*
X49450Y-44850D01*
X49450Y-44850D02*
X50550Y-44850D01*
X50550Y-44850D02*
X50550Y-45450D01*
X50550Y-46050D02*
X50550Y-46650D01*
X50550Y-46650D02*
X49450Y-46650D01*
X49450Y-46650D02*
X49450Y-46050D01*
X37670Y-44800D02*
X37668Y-44813D01*
X37664Y-44826D01*
X37658Y-44838D01*
X37649Y-44849D01*
X37639Y-44858D01*
X37627Y-44864D01*
X37614Y-44868D01*
X37600Y-44869D01*
X37587Y-44868D01*
X37574Y-44864D01*
X37562Y-44858D01*
X37552Y-44850D01*
X37543Y-44839D01*
X37536Y-44827D01*
X37532Y-44814D01*
X37531Y-44800D01*
X37532Y-44788D01*
X37535Y-44775D01*
X37542Y-44763D01*
X37550Y-44752D01*
X37561Y-44743D01*
X37572Y-44736D01*
X37585Y-44732D01*
X37599Y-44731D01*
X37612Y-44732D01*
X37625Y-44735D01*
X37637Y-44741D01*
X37648Y-44750D01*
X37657Y-44760D01*
X37663Y-44772D01*
X37668Y-44785D01*
X37669Y-44799D01*
X37670Y-44800D01*
X36450Y-45450D02*
X36450Y-44850D01*
X36450Y-44850D02*
X37550Y-44850D01*
X37550Y-44850D02*
X37550Y-45450D01*
X37550Y-46050D02*
X37550Y-46650D01*
X37550Y-46650D02*
X36450Y-46650D01*
X36450Y-46650D02*
X36450Y-46050D01*
X58770Y-39600D02*
X58768Y-39613D01*
X58764Y-39626D01*
X58758Y-39638D01*
X58749Y-39649D01*
X58739Y-39658D01*
X58727Y-39664D01*
X58714Y-39668D01*
X58700Y-39669D01*
X58687Y-39668D01*
X58674Y-39664D01*
X58662Y-39658D01*
X58652Y-39650D01*
X58643Y-39639D01*
X58636Y-39627D01*
X58632Y-39614D01*
X58631Y-39600D01*
X58632Y-39588D01*
X58635Y-39575D01*
X58642Y-39563D01*
X58650Y-39552D01*
X58661Y-39543D01*
X58672Y-39536D01*
X58685Y-39532D01*
X58699Y-39531D01*
X58712Y-39532D01*
X58725Y-39535D01*
X58737Y-39541D01*
X58748Y-39550D01*
X58757Y-39560D01*
X58763Y-39572D01*
X58768Y-39585D01*
X58769Y-39599D01*
X58770Y-39600D01*
X58050Y-38450D02*
X58650Y-38450D01*
X58650Y-38450D02*
X58650Y-39550D01*
X58650Y-39550D02*
X58050Y-39550D01*
X57450Y-39550D02*
X56850Y-39550D01*
X56850Y-39550D02*
X56850Y-38450D01*
X56850Y-38450D02*
X57450Y-38450D01*
X66370Y-39900D02*
X66368Y-39913D01*
X66364Y-39926D01*
X66358Y-39938D01*
X66349Y-39949D01*
X66339Y-39958D01*
X66327Y-39964D01*
X66314Y-39968D01*
X66300Y-39969D01*
X66287Y-39968D01*
X66274Y-39964D01*
X66262Y-39958D01*
X66252Y-39950D01*
X66243Y-39939D01*
X66236Y-39927D01*
X66232Y-39914D01*
X66231Y-39900D01*
X66232Y-39888D01*
X66235Y-39875D01*
X66242Y-39863D01*
X66250Y-39852D01*
X66261Y-39843D01*
X66272Y-39836D01*
X66285Y-39832D01*
X66299Y-39831D01*
X66312Y-39832D01*
X66325Y-39835D01*
X66337Y-39841D01*
X66348Y-39850D01*
X66357Y-39860D01*
X66363Y-39872D01*
X66368Y-39885D01*
X66369Y-39899D01*
X66370Y-39900D01*
X66950Y-41050D02*
X66350Y-41050D01*
X66350Y-41050D02*
X66350Y-39950D01*
X66350Y-39950D02*
X66950Y-39950D01*
X67550Y-39950D02*
X68150Y-39950D01*
X68150Y-39950D02*
X68150Y-41050D01*
X68150Y-41050D02*
X67550Y-41050D01*
X47720Y-50200D02*
X47718Y-50213D01*
X47714Y-50226D01*
X47708Y-50238D01*
X47699Y-50249D01*
X47689Y-50258D01*
X47677Y-50264D01*
X47664Y-50268D01*
X47650Y-50269D01*
X47637Y-50268D01*
X47624Y-50264D01*
X47612Y-50258D01*
X47602Y-50250D01*
X47593Y-50239D01*
X47586Y-50227D01*
X47582Y-50214D01*
X47581Y-50200D01*
X47582Y-50188D01*
X47585Y-50175D01*
X47592Y-50163D01*
X47600Y-50152D01*
X47611Y-50143D01*
X47622Y-50136D01*
X47635Y-50132D01*
X47649Y-50131D01*
X47662Y-50132D01*
X47675Y-50135D01*
X47687Y-50141D01*
X47698Y-50150D01*
X47707Y-50160D01*
X47713Y-50172D01*
X47718Y-50185D01*
X47719Y-50199D01*
X47720Y-50200D01*
X48800Y-49550D02*
X48800Y-50150D01*
X48800Y-50150D02*
X47700Y-50150D01*
X47700Y-50150D02*
X47700Y-49550D01*
X47700Y-48950D02*
X47700Y-48350D01*
X47700Y-48350D02*
X48800Y-48350D01*
X48800Y-48350D02*
X48800Y-48950D01*
X66370Y-41400D02*
X66368Y-41413D01*
X66364Y-41426D01*
X66358Y-41438D01*
X66349Y-41449D01*
X66339Y-41458D01*
X66327Y-41464D01*
X66314Y-41468D01*
X66300Y-41469D01*
X66287Y-41468D01*
X66274Y-41464D01*
X66262Y-41458D01*
X66252Y-41450D01*
X66243Y-41439D01*
X66236Y-41427D01*
X66232Y-41414D01*
X66231Y-41400D01*
X66232Y-41388D01*
X66235Y-41375D01*
X66242Y-41363D01*
X66250Y-41352D01*
X66261Y-41343D01*
X66272Y-41336D01*
X66285Y-41332D01*
X66299Y-41331D01*
X66312Y-41332D01*
X66325Y-41335D01*
X66337Y-41341D01*
X66348Y-41350D01*
X66357Y-41360D01*
X66363Y-41372D01*
X66368Y-41385D01*
X66369Y-41399D01*
X66370Y-41400D01*
X66950Y-42550D02*
X66350Y-42550D01*
X66350Y-42550D02*
X66350Y-41450D01*
X66350Y-41450D02*
X66950Y-41450D01*
X67550Y-41450D02*
X68150Y-41450D01*
X68150Y-41450D02*
X68150Y-42550D01*
X68150Y-42550D02*
X67550Y-42550D01*
G54D13*
X56550Y-33800D02*
X56550Y-34200D01*
X56750Y-34000D02*
X56350Y-34000D01*
G54D12*
X57450Y-34550D02*
X56850Y-34550D01*
X56850Y-34550D02*
X56850Y-33450D01*
X56850Y-33450D02*
X57450Y-33450D01*
X58050Y-33450D02*
X58650Y-33450D01*
X58650Y-33450D02*
X58650Y-34550D01*
X58650Y-34550D02*
X58050Y-34550D01*
G54D13*
X58950Y-36200D02*
X58950Y-35800D01*
X58750Y-36000D02*
X59150Y-36000D01*
G54D12*
X58050Y-35450D02*
X58650Y-35450D01*
X58650Y-35450D02*
X58650Y-36550D01*
X58650Y-36550D02*
X58050Y-36550D01*
X57450Y-36550D02*
X56850Y-36550D01*
X56850Y-36550D02*
X56850Y-35450D01*
X56850Y-35450D02*
X57450Y-35450D01*
G54D13*
X56550Y-41800D02*
X56550Y-42200D01*
X56750Y-42000D02*
X56350Y-42000D01*
G54D12*
X57450Y-42550D02*
X56850Y-42550D01*
X56850Y-42550D02*
X56850Y-41450D01*
X56850Y-41450D02*
X57450Y-41450D01*
X58050Y-41450D02*
X58650Y-41450D01*
X58650Y-41450D02*
X58650Y-42550D01*
X58650Y-42550D02*
X58050Y-42550D01*
G54D13*
X29750Y-39000D02*
X29750Y-44500D01*
X29750Y-44500D02*
X35500Y-44500D01*
X35500Y-44500D02*
X35500Y-39000D01*
X35500Y-39000D02*
X29750Y-39000D01*
X32500Y-46750D02*
X31500Y-46750D01*
X31500Y-46750D02*
X31500Y-44750D01*
X31500Y-44750D02*
X32500Y-44750D01*
X34500Y-44750D02*
X35500Y-44750D01*
X35500Y-44750D02*
X35500Y-46750D01*
X35500Y-46750D02*
X34500Y-46750D01*
X35950Y-45950D02*
X35950Y-45550D01*
X35750Y-45750D02*
X36150Y-45750D01*
X36000Y-43000D02*
X36000Y-33000D01*
X36000Y-33000D02*
X56000Y-33000D01*
X56000Y-33000D02*
X56000Y-43000D01*
X56000Y-43000D02*
X36000Y-43000D01*
X62250Y-41500D02*
X62247Y-41529D01*
X62238Y-41557D01*
X62224Y-41583D01*
X62206Y-41605D01*
X62183Y-41624D01*
X62158Y-41638D01*
X62130Y-41646D01*
X62101Y-41649D01*
X62072Y-41647D01*
X62044Y-41639D01*
X62018Y-41625D01*
X61996Y-41607D01*
X61977Y-41584D01*
X61963Y-41559D01*
X61954Y-41531D01*
X61951Y-41502D01*
X61953Y-41473D01*
X61961Y-41445D01*
X61974Y-41419D01*
X61993Y-41396D01*
X62015Y-41377D01*
X62040Y-41363D01*
X62068Y-41354D01*
X62097Y-41351D01*
X62126Y-41353D01*
X62154Y-41361D01*
X62180Y-41374D01*
X62203Y-41392D01*
X62222Y-41414D01*
X62237Y-41439D01*
X62246Y-41467D01*
X62249Y-41496D01*
X62250Y-41500D01*
X61800Y-41800D02*
X61800Y-38200D01*
X61800Y-38200D02*
X63200Y-38200D01*
X63200Y-38200D02*
X63200Y-41800D01*
X63200Y-41800D02*
X61800Y-41800D01*
G54D12*
X47550Y-44593D02*
X47564Y-44607D01*
X47607Y-44621D01*
X47636Y-44621D01*
X47679Y-44607D01*
X47707Y-44579D01*
X47722Y-44550D01*
X47736Y-44493D01*
X47736Y-44450D01*
X47722Y-44393D01*
X47707Y-44364D01*
X47679Y-44336D01*
X47636Y-44321D01*
X47607Y-44321D01*
X47564Y-44336D01*
X47550Y-44350D01*
X47293Y-44321D02*
X47350Y-44321D01*
X47379Y-44336D01*
X47393Y-44350D01*
X47422Y-44393D01*
X47436Y-44450D01*
X47436Y-44564D01*
X47422Y-44593D01*
X47407Y-44607D01*
X47379Y-44621D01*
X47322Y-44621D01*
X47293Y-44607D01*
X47279Y-44593D01*
X47264Y-44564D01*
X47264Y-44493D01*
X47279Y-44464D01*
X47293Y-44450D01*
X47322Y-44436D01*
X47379Y-44436D01*
X47407Y-44450D01*
X47422Y-44464D01*
X47436Y-44493D01*
X48742Y-45571D02*
X48714Y-45571D01*
X48685Y-45586D01*
X48671Y-45600D01*
X48657Y-45629D01*
X48642Y-45686D01*
X48642Y-45757D01*
X48657Y-45814D01*
X48671Y-45843D01*
X48685Y-45857D01*
X48714Y-45871D01*
X48742Y-45871D01*
X48771Y-45857D01*
X48785Y-45843D01*
X48800Y-45814D01*
X48814Y-45757D01*
X48814Y-45686D01*
X48800Y-45629D01*
X48785Y-45600D01*
X48771Y-45586D01*
X48742Y-45571D01*
X48514Y-45843D02*
X48499Y-45857D01*
X48514Y-45871D01*
X48528Y-45857D01*
X48514Y-45843D01*
X48514Y-45871D01*
X48213Y-45871D02*
X48385Y-45871D01*
X48299Y-45871D02*
X48299Y-45571D01*
X48328Y-45614D01*
X48356Y-45643D01*
X48385Y-45657D01*
X47956Y-45671D02*
X47956Y-45871D01*
X48085Y-45671D02*
X48085Y-45829D01*
X48070Y-45857D01*
X48042Y-45871D01*
X47999Y-45871D01*
X47970Y-45857D01*
X47956Y-45843D01*
X47714Y-45714D02*
X47814Y-45714D01*
X47814Y-45871D02*
X47814Y-45571D01*
X47671Y-45571D01*
X43800Y-44593D02*
X43814Y-44607D01*
X43857Y-44621D01*
X43886Y-44621D01*
X43929Y-44607D01*
X43957Y-44579D01*
X43972Y-44550D01*
X43986Y-44493D01*
X43986Y-44450D01*
X43972Y-44393D01*
X43957Y-44364D01*
X43929Y-44336D01*
X43886Y-44321D01*
X43857Y-44321D01*
X43814Y-44336D01*
X43800Y-44350D01*
X43529Y-44321D02*
X43672Y-44321D01*
X43686Y-44464D01*
X43672Y-44450D01*
X43643Y-44436D01*
X43572Y-44436D01*
X43543Y-44450D01*
X43529Y-44464D01*
X43514Y-44493D01*
X43514Y-44564D01*
X43529Y-44593D01*
X43543Y-44607D01*
X43572Y-44621D01*
X43643Y-44621D01*
X43672Y-44607D01*
X43686Y-44593D01*
X44242Y-45571D02*
X44214Y-45571D01*
X44185Y-45586D01*
X44171Y-45600D01*
X44157Y-45629D01*
X44142Y-45686D01*
X44142Y-45757D01*
X44157Y-45814D01*
X44171Y-45843D01*
X44185Y-45857D01*
X44214Y-45871D01*
X44242Y-45871D01*
X44271Y-45857D01*
X44285Y-45843D01*
X44300Y-45814D01*
X44314Y-45757D01*
X44314Y-45686D01*
X44300Y-45629D01*
X44285Y-45600D01*
X44271Y-45586D01*
X44242Y-45571D01*
X44014Y-45843D02*
X43999Y-45857D01*
X44014Y-45871D01*
X44028Y-45857D01*
X44014Y-45843D01*
X44014Y-45871D01*
X43713Y-45871D02*
X43885Y-45871D01*
X43799Y-45871D02*
X43799Y-45571D01*
X43828Y-45614D01*
X43856Y-45643D01*
X43885Y-45657D01*
X43456Y-45671D02*
X43456Y-45871D01*
X43585Y-45671D02*
X43585Y-45829D01*
X43570Y-45857D01*
X43542Y-45871D01*
X43499Y-45871D01*
X43470Y-45857D01*
X43456Y-45843D01*
X43214Y-45714D02*
X43314Y-45714D01*
X43314Y-45871D02*
X43314Y-45571D01*
X43171Y-45571D01*
X42050Y-44621D02*
X42150Y-44479D01*
X42222Y-44621D02*
X42222Y-44321D01*
X42107Y-44321D01*
X42079Y-44336D01*
X42064Y-44350D01*
X42050Y-44379D01*
X42050Y-44421D01*
X42064Y-44450D01*
X42079Y-44464D01*
X42107Y-44479D01*
X42222Y-44479D01*
X41764Y-44621D02*
X41936Y-44621D01*
X41850Y-44621D02*
X41850Y-44321D01*
X41879Y-44364D01*
X41907Y-44393D01*
X41936Y-44407D01*
X42035Y-45871D02*
X42207Y-45871D01*
X42121Y-45871D02*
X42121Y-45571D01*
X42150Y-45614D01*
X42178Y-45643D01*
X42207Y-45657D01*
X41907Y-45871D02*
X41907Y-45571D01*
X41878Y-45757D02*
X41792Y-45871D01*
X41792Y-45671D02*
X41907Y-45786D01*
X43800Y-50593D02*
X43814Y-50607D01*
X43857Y-50621D01*
X43886Y-50621D01*
X43929Y-50607D01*
X43957Y-50579D01*
X43972Y-50550D01*
X43986Y-50493D01*
X43986Y-50450D01*
X43972Y-50393D01*
X43957Y-50364D01*
X43929Y-50336D01*
X43886Y-50321D01*
X43857Y-50321D01*
X43814Y-50336D01*
X43800Y-50350D01*
X43700Y-50321D02*
X43500Y-50321D01*
X43629Y-50621D01*
X42821Y-48758D02*
X42821Y-48786D01*
X42836Y-48815D01*
X42850Y-48829D01*
X42879Y-48843D01*
X42936Y-48858D01*
X43007Y-48858D01*
X43064Y-48843D01*
X43093Y-48829D01*
X43107Y-48815D01*
X43121Y-48786D01*
X43121Y-48758D01*
X43107Y-48729D01*
X43093Y-48715D01*
X43064Y-48700D01*
X43007Y-48686D01*
X42936Y-48686D01*
X42879Y-48700D01*
X42850Y-48715D01*
X42836Y-48729D01*
X42821Y-48758D01*
X43093Y-48986D02*
X43107Y-49001D01*
X43121Y-48986D01*
X43107Y-48972D01*
X43093Y-48986D01*
X43121Y-48986D01*
X43121Y-49287D02*
X43121Y-49115D01*
X43121Y-49201D02*
X42821Y-49201D01*
X42864Y-49172D01*
X42893Y-49144D01*
X42907Y-49115D01*
X42921Y-49544D02*
X43121Y-49544D01*
X42921Y-49415D02*
X43079Y-49415D01*
X43107Y-49430D01*
X43121Y-49458D01*
X43121Y-49501D01*
X43107Y-49530D01*
X43093Y-49544D01*
X42964Y-49786D02*
X42964Y-49686D01*
X43121Y-49686D02*
X42821Y-49686D01*
X42821Y-49829D01*
X66121Y-43450D02*
X65979Y-43350D01*
X66121Y-43278D02*
X65821Y-43278D01*
X65821Y-43393D01*
X65836Y-43421D01*
X65850Y-43436D01*
X65879Y-43450D01*
X65921Y-43450D01*
X65950Y-43436D01*
X65964Y-43421D01*
X65979Y-43393D01*
X65979Y-43278D01*
X65821Y-43721D02*
X65821Y-43578D01*
X65964Y-43564D01*
X65950Y-43578D01*
X65936Y-43607D01*
X65936Y-43678D01*
X65950Y-43707D01*
X65964Y-43721D01*
X65993Y-43736D01*
X66064Y-43736D01*
X66093Y-43721D01*
X66107Y-43707D01*
X66121Y-43678D01*
X66121Y-43607D01*
X66107Y-43578D01*
X66093Y-43564D01*
X67071Y-43271D02*
X67071Y-43214D01*
X67086Y-43185D01*
X67100Y-43171D01*
X67143Y-43142D01*
X67200Y-43128D01*
X67314Y-43128D01*
X67343Y-43142D01*
X67357Y-43157D01*
X67371Y-43185D01*
X67371Y-43242D01*
X67357Y-43271D01*
X67343Y-43285D01*
X67314Y-43300D01*
X67243Y-43300D01*
X67214Y-43285D01*
X67200Y-43271D01*
X67186Y-43242D01*
X67186Y-43185D01*
X67200Y-43157D01*
X67214Y-43142D01*
X67243Y-43128D01*
X67071Y-43400D02*
X67071Y-43586D01*
X67186Y-43486D01*
X67186Y-43528D01*
X67200Y-43557D01*
X67214Y-43571D01*
X67243Y-43586D01*
X67314Y-43586D01*
X67343Y-43571D01*
X67357Y-43557D01*
X67371Y-43528D01*
X67371Y-43443D01*
X67357Y-43414D01*
X67343Y-43400D01*
X67171Y-43843D02*
X67371Y-43843D01*
X67057Y-43772D02*
X67271Y-43700D01*
X67271Y-43886D01*
X58550Y-44371D02*
X58650Y-44229D01*
X58722Y-44371D02*
X58722Y-44071D01*
X58607Y-44071D01*
X58579Y-44086D01*
X58564Y-44100D01*
X58550Y-44129D01*
X58550Y-44171D01*
X58564Y-44200D01*
X58579Y-44214D01*
X58607Y-44229D01*
X58722Y-44229D01*
X58379Y-44200D02*
X58407Y-44186D01*
X58422Y-44171D01*
X58436Y-44143D01*
X58436Y-44129D01*
X58422Y-44100D01*
X58407Y-44086D01*
X58379Y-44071D01*
X58322Y-44071D01*
X58293Y-44086D01*
X58279Y-44100D01*
X58264Y-44129D01*
X58264Y-44143D01*
X58279Y-44171D01*
X58293Y-44186D01*
X58322Y-44200D01*
X58379Y-44200D01*
X58407Y-44214D01*
X58422Y-44229D01*
X58436Y-44257D01*
X58436Y-44314D01*
X58422Y-44343D01*
X58407Y-44357D01*
X58379Y-44371D01*
X58322Y-44371D01*
X58293Y-44357D01*
X58279Y-44343D01*
X58264Y-44314D01*
X58264Y-44257D01*
X58279Y-44229D01*
X58293Y-44214D01*
X58322Y-44200D01*
X57421Y-45078D02*
X57621Y-45078D01*
X57307Y-45007D02*
X57521Y-44935D01*
X57521Y-45121D01*
X57421Y-45364D02*
X57621Y-45364D01*
X57307Y-45293D02*
X57521Y-45221D01*
X57521Y-45407D01*
X57593Y-45521D02*
X57607Y-45536D01*
X57621Y-45521D01*
X57607Y-45507D01*
X57593Y-45521D01*
X57621Y-45521D01*
X57350Y-45650D02*
X57336Y-45664D01*
X57321Y-45693D01*
X57321Y-45764D01*
X57336Y-45793D01*
X57350Y-45807D01*
X57379Y-45822D01*
X57407Y-45822D01*
X57450Y-45807D01*
X57621Y-45636D01*
X57621Y-45822D01*
X57621Y-45950D02*
X57321Y-45950D01*
X57507Y-45979D02*
X57621Y-46065D01*
X57421Y-46065D02*
X57536Y-45950D01*
X46050Y-46621D02*
X46150Y-46479D01*
X46222Y-46621D02*
X46222Y-46321D01*
X46107Y-46321D01*
X46079Y-46336D01*
X46064Y-46350D01*
X46050Y-46379D01*
X46050Y-46421D01*
X46064Y-46450D01*
X46079Y-46464D01*
X46107Y-46479D01*
X46222Y-46479D01*
X45793Y-46321D02*
X45850Y-46321D01*
X45879Y-46336D01*
X45893Y-46350D01*
X45922Y-46393D01*
X45936Y-46450D01*
X45936Y-46564D01*
X45922Y-46593D01*
X45907Y-46607D01*
X45879Y-46621D01*
X45822Y-46621D01*
X45793Y-46607D01*
X45779Y-46593D01*
X45764Y-46564D01*
X45764Y-46493D01*
X45779Y-46464D01*
X45793Y-46450D01*
X45822Y-46436D01*
X45879Y-46436D01*
X45907Y-46450D01*
X45922Y-46464D01*
X45936Y-46493D01*
X45821Y-47285D02*
X45821Y-47142D01*
X45964Y-47128D01*
X45950Y-47142D01*
X45936Y-47171D01*
X45936Y-47242D01*
X45950Y-47271D01*
X45964Y-47285D01*
X45993Y-47300D01*
X46064Y-47300D01*
X46093Y-47285D01*
X46107Y-47271D01*
X46121Y-47242D01*
X46121Y-47171D01*
X46107Y-47142D01*
X46093Y-47128D01*
X46121Y-47586D02*
X46121Y-47414D01*
X46121Y-47500D02*
X45821Y-47500D01*
X45864Y-47471D01*
X45893Y-47443D01*
X45907Y-47414D01*
X45821Y-47772D02*
X45821Y-47800D01*
X45836Y-47829D01*
X45850Y-47843D01*
X45879Y-47857D01*
X45936Y-47872D01*
X46007Y-47872D01*
X46064Y-47857D01*
X46093Y-47843D01*
X46107Y-47829D01*
X46121Y-47800D01*
X46121Y-47772D01*
X46107Y-47743D01*
X46093Y-47729D01*
X46064Y-47714D01*
X46007Y-47700D01*
X45936Y-47700D01*
X45879Y-47714D01*
X45850Y-47729D01*
X45836Y-47743D01*
X45821Y-47772D01*
X46550Y-50593D02*
X46564Y-50607D01*
X46607Y-50621D01*
X46636Y-50621D01*
X46679Y-50607D01*
X46707Y-50579D01*
X46722Y-50550D01*
X46736Y-50493D01*
X46736Y-50450D01*
X46722Y-50393D01*
X46707Y-50364D01*
X46679Y-50336D01*
X46636Y-50321D01*
X46607Y-50321D01*
X46564Y-50336D01*
X46550Y-50350D01*
X46379Y-50450D02*
X46407Y-50436D01*
X46422Y-50421D01*
X46436Y-50393D01*
X46436Y-50379D01*
X46422Y-50350D01*
X46407Y-50336D01*
X46379Y-50321D01*
X46322Y-50321D01*
X46293Y-50336D01*
X46279Y-50350D01*
X46264Y-50379D01*
X46264Y-50393D01*
X46279Y-50421D01*
X46293Y-50436D01*
X46322Y-50450D01*
X46379Y-50450D01*
X46407Y-50464D01*
X46422Y-50479D01*
X46436Y-50507D01*
X46436Y-50564D01*
X46422Y-50593D01*
X46407Y-50607D01*
X46379Y-50621D01*
X46322Y-50621D01*
X46293Y-50607D01*
X46279Y-50593D01*
X46264Y-50564D01*
X46264Y-50507D01*
X46279Y-50479D01*
X46293Y-50464D01*
X46322Y-50450D01*
X46492Y-49071D02*
X46464Y-49071D01*
X46435Y-49086D01*
X46421Y-49100D01*
X46407Y-49129D01*
X46392Y-49186D01*
X46392Y-49257D01*
X46407Y-49314D01*
X46421Y-49343D01*
X46435Y-49357D01*
X46464Y-49371D01*
X46492Y-49371D01*
X46521Y-49357D01*
X46535Y-49343D01*
X46550Y-49314D01*
X46564Y-49257D01*
X46564Y-49186D01*
X46550Y-49129D01*
X46535Y-49100D01*
X46521Y-49086D01*
X46492Y-49071D01*
X46264Y-49343D02*
X46249Y-49357D01*
X46264Y-49371D01*
X46278Y-49357D01*
X46264Y-49343D01*
X46264Y-49371D01*
X45963Y-49371D02*
X46135Y-49371D01*
X46049Y-49371D02*
X46049Y-49071D01*
X46078Y-49114D01*
X46106Y-49143D01*
X46135Y-49157D01*
X45706Y-49171D02*
X45706Y-49371D01*
X45835Y-49171D02*
X45835Y-49329D01*
X45820Y-49357D01*
X45792Y-49371D01*
X45749Y-49371D01*
X45720Y-49357D01*
X45706Y-49343D01*
X45464Y-49214D02*
X45564Y-49214D01*
X45564Y-49371D02*
X45564Y-49071D01*
X45421Y-49071D01*
X55050Y-44621D02*
X55150Y-44479D01*
X55222Y-44621D02*
X55222Y-44321D01*
X55107Y-44321D01*
X55079Y-44336D01*
X55064Y-44350D01*
X55050Y-44379D01*
X55050Y-44421D01*
X55064Y-44450D01*
X55079Y-44464D01*
X55107Y-44479D01*
X55222Y-44479D01*
X54793Y-44421D02*
X54793Y-44621D01*
X54864Y-44307D02*
X54936Y-44521D01*
X54750Y-44521D01*
X55372Y-45600D02*
X55358Y-45586D01*
X55329Y-45571D01*
X55258Y-45571D01*
X55229Y-45586D01*
X55215Y-45600D01*
X55200Y-45629D01*
X55200Y-45657D01*
X55215Y-45700D01*
X55386Y-45871D01*
X55200Y-45871D01*
X55086Y-45600D02*
X55072Y-45586D01*
X55043Y-45571D01*
X54972Y-45571D01*
X54943Y-45586D01*
X54929Y-45600D01*
X54914Y-45629D01*
X54914Y-45657D01*
X54929Y-45700D01*
X55100Y-45871D01*
X54914Y-45871D01*
X54728Y-45571D02*
X54700Y-45571D01*
X54671Y-45586D01*
X54657Y-45600D01*
X54643Y-45629D01*
X54628Y-45686D01*
X54628Y-45757D01*
X54643Y-45814D01*
X54657Y-45843D01*
X54671Y-45857D01*
X54700Y-45871D01*
X54728Y-45871D01*
X54757Y-45857D01*
X54771Y-45843D01*
X54786Y-45814D01*
X54800Y-45757D01*
X54800Y-45686D01*
X54786Y-45629D01*
X54771Y-45600D01*
X54757Y-45586D01*
X54728Y-45571D01*
X50050Y-44621D02*
X50150Y-44479D01*
X50222Y-44621D02*
X50222Y-44321D01*
X50107Y-44321D01*
X50079Y-44336D01*
X50064Y-44350D01*
X50050Y-44379D01*
X50050Y-44421D01*
X50064Y-44450D01*
X50079Y-44464D01*
X50107Y-44479D01*
X50222Y-44479D01*
X49950Y-44321D02*
X49764Y-44321D01*
X49864Y-44436D01*
X49822Y-44436D01*
X49793Y-44450D01*
X49779Y-44464D01*
X49764Y-44493D01*
X49764Y-44564D01*
X49779Y-44593D01*
X49793Y-44607D01*
X49822Y-44621D01*
X49907Y-44621D01*
X49936Y-44607D01*
X49950Y-44593D01*
X50372Y-45600D02*
X50358Y-45586D01*
X50329Y-45571D01*
X50258Y-45571D01*
X50229Y-45586D01*
X50215Y-45600D01*
X50200Y-45629D01*
X50200Y-45657D01*
X50215Y-45700D01*
X50386Y-45871D01*
X50200Y-45871D01*
X50086Y-45600D02*
X50072Y-45586D01*
X50043Y-45571D01*
X49972Y-45571D01*
X49943Y-45586D01*
X49929Y-45600D01*
X49914Y-45629D01*
X49914Y-45657D01*
X49929Y-45700D01*
X50100Y-45871D01*
X49914Y-45871D01*
X49728Y-45571D02*
X49700Y-45571D01*
X49671Y-45586D01*
X49657Y-45600D01*
X49643Y-45629D01*
X49628Y-45686D01*
X49628Y-45757D01*
X49643Y-45814D01*
X49657Y-45843D01*
X49671Y-45857D01*
X49700Y-45871D01*
X49728Y-45871D01*
X49757Y-45857D01*
X49771Y-45843D01*
X49786Y-45814D01*
X49800Y-45757D01*
X49800Y-45686D01*
X49786Y-45629D01*
X49771Y-45600D01*
X49757Y-45586D01*
X49728Y-45571D01*
X37050Y-44621D02*
X37150Y-44479D01*
X37222Y-44621D02*
X37222Y-44321D01*
X37107Y-44321D01*
X37079Y-44336D01*
X37064Y-44350D01*
X37050Y-44379D01*
X37050Y-44421D01*
X37064Y-44450D01*
X37079Y-44464D01*
X37107Y-44479D01*
X37222Y-44479D01*
X36936Y-44350D02*
X36922Y-44336D01*
X36893Y-44321D01*
X36822Y-44321D01*
X36793Y-44336D01*
X36779Y-44350D01*
X36764Y-44379D01*
X36764Y-44407D01*
X36779Y-44450D01*
X36950Y-44621D01*
X36764Y-44621D01*
X37035Y-45871D02*
X37207Y-45871D01*
X37121Y-45871D02*
X37121Y-45571D01*
X37150Y-45614D01*
X37178Y-45643D01*
X37207Y-45657D01*
X36907Y-45871D02*
X36907Y-45571D01*
X36878Y-45757D02*
X36792Y-45871D01*
X36792Y-45671D02*
X36907Y-45786D01*
X57943Y-38093D02*
X57957Y-38107D01*
X58000Y-38121D01*
X58029Y-38121D01*
X58072Y-38107D01*
X58100Y-38079D01*
X58115Y-38050D01*
X58129Y-37993D01*
X58129Y-37950D01*
X58115Y-37893D01*
X58100Y-37864D01*
X58072Y-37836D01*
X58029Y-37821D01*
X58000Y-37821D01*
X57957Y-37836D01*
X57943Y-37850D01*
X57657Y-38121D02*
X57829Y-38121D01*
X57743Y-38121D02*
X57743Y-37821D01*
X57772Y-37864D01*
X57800Y-37893D01*
X57829Y-37907D01*
X57557Y-37821D02*
X57371Y-37821D01*
X57471Y-37936D01*
X57429Y-37936D01*
X57400Y-37950D01*
X57386Y-37964D01*
X57371Y-37993D01*
X57371Y-38064D01*
X57386Y-38093D01*
X57400Y-38107D01*
X57429Y-38121D01*
X57514Y-38121D01*
X57543Y-38107D01*
X57557Y-38093D01*
X57571Y-38508D02*
X57571Y-38536D01*
X57586Y-38565D01*
X57600Y-38579D01*
X57629Y-38593D01*
X57686Y-38608D01*
X57757Y-38608D01*
X57814Y-38593D01*
X57843Y-38579D01*
X57857Y-38565D01*
X57871Y-38536D01*
X57871Y-38508D01*
X57857Y-38479D01*
X57843Y-38465D01*
X57814Y-38450D01*
X57757Y-38436D01*
X57686Y-38436D01*
X57629Y-38450D01*
X57600Y-38465D01*
X57586Y-38479D01*
X57571Y-38508D01*
X57843Y-38736D02*
X57857Y-38751D01*
X57871Y-38736D01*
X57857Y-38722D01*
X57843Y-38736D01*
X57871Y-38736D01*
X57871Y-39037D02*
X57871Y-38865D01*
X57871Y-38951D02*
X57571Y-38951D01*
X57614Y-38922D01*
X57643Y-38894D01*
X57657Y-38865D01*
X57671Y-39294D02*
X57871Y-39294D01*
X57671Y-39165D02*
X57829Y-39165D01*
X57857Y-39180D01*
X57871Y-39208D01*
X57871Y-39251D01*
X57857Y-39280D01*
X57843Y-39294D01*
X57714Y-39536D02*
X57714Y-39436D01*
X57871Y-39436D02*
X57571Y-39436D01*
X57571Y-39579D01*
X66093Y-40557D02*
X66107Y-40543D01*
X66121Y-40500D01*
X66121Y-40471D01*
X66107Y-40428D01*
X66079Y-40400D01*
X66050Y-40385D01*
X65993Y-40371D01*
X65950Y-40371D01*
X65893Y-40385D01*
X65864Y-40400D01*
X65836Y-40428D01*
X65821Y-40471D01*
X65821Y-40500D01*
X65836Y-40543D01*
X65850Y-40557D01*
X66121Y-40843D02*
X66121Y-40671D01*
X66121Y-40757D02*
X65821Y-40757D01*
X65864Y-40728D01*
X65893Y-40700D01*
X65907Y-40671D01*
X66121Y-41129D02*
X66121Y-40957D01*
X66121Y-41043D02*
X65821Y-41043D01*
X65864Y-41014D01*
X65893Y-40986D01*
X65907Y-40957D01*
X67071Y-40008D02*
X67071Y-40036D01*
X67086Y-40065D01*
X67100Y-40079D01*
X67129Y-40093D01*
X67186Y-40108D01*
X67257Y-40108D01*
X67314Y-40093D01*
X67343Y-40079D01*
X67357Y-40065D01*
X67371Y-40036D01*
X67371Y-40008D01*
X67357Y-39979D01*
X67343Y-39965D01*
X67314Y-39950D01*
X67257Y-39936D01*
X67186Y-39936D01*
X67129Y-39950D01*
X67100Y-39965D01*
X67086Y-39979D01*
X67071Y-40008D01*
X67343Y-40236D02*
X67357Y-40251D01*
X67371Y-40236D01*
X67357Y-40222D01*
X67343Y-40236D01*
X67371Y-40236D01*
X67371Y-40537D02*
X67371Y-40365D01*
X67371Y-40451D02*
X67071Y-40451D01*
X67114Y-40422D01*
X67143Y-40394D01*
X67157Y-40365D01*
X67171Y-40794D02*
X67371Y-40794D01*
X67171Y-40665D02*
X67329Y-40665D01*
X67357Y-40680D01*
X67371Y-40708D01*
X67371Y-40751D01*
X67357Y-40780D01*
X67343Y-40794D01*
X67214Y-41036D02*
X67214Y-40936D01*
X67371Y-40936D02*
X67071Y-40936D01*
X67071Y-41079D01*
X48443Y-50593D02*
X48457Y-50607D01*
X48500Y-50621D01*
X48529Y-50621D01*
X48572Y-50607D01*
X48600Y-50579D01*
X48615Y-50550D01*
X48629Y-50493D01*
X48629Y-50450D01*
X48615Y-50393D01*
X48600Y-50364D01*
X48572Y-50336D01*
X48529Y-50321D01*
X48500Y-50321D01*
X48457Y-50336D01*
X48443Y-50350D01*
X48157Y-50621D02*
X48329Y-50621D01*
X48243Y-50621D02*
X48243Y-50321D01*
X48272Y-50364D01*
X48300Y-50393D01*
X48329Y-50407D01*
X47971Y-50321D02*
X47943Y-50321D01*
X47914Y-50336D01*
X47900Y-50350D01*
X47886Y-50379D01*
X47871Y-50436D01*
X47871Y-50507D01*
X47886Y-50564D01*
X47900Y-50593D01*
X47914Y-50607D01*
X47943Y-50621D01*
X47971Y-50621D01*
X48000Y-50607D01*
X48014Y-50593D01*
X48029Y-50564D01*
X48043Y-50507D01*
X48043Y-50436D01*
X48029Y-50379D01*
X48014Y-50350D01*
X48000Y-50336D01*
X47971Y-50321D01*
X48742Y-49071D02*
X48714Y-49071D01*
X48685Y-49086D01*
X48671Y-49100D01*
X48657Y-49129D01*
X48642Y-49186D01*
X48642Y-49257D01*
X48657Y-49314D01*
X48671Y-49343D01*
X48685Y-49357D01*
X48714Y-49371D01*
X48742Y-49371D01*
X48771Y-49357D01*
X48785Y-49343D01*
X48800Y-49314D01*
X48814Y-49257D01*
X48814Y-49186D01*
X48800Y-49129D01*
X48785Y-49100D01*
X48771Y-49086D01*
X48742Y-49071D01*
X48514Y-49343D02*
X48499Y-49357D01*
X48514Y-49371D01*
X48528Y-49357D01*
X48514Y-49343D01*
X48514Y-49371D01*
X48213Y-49371D02*
X48385Y-49371D01*
X48299Y-49371D02*
X48299Y-49071D01*
X48328Y-49114D01*
X48356Y-49143D01*
X48385Y-49157D01*
X47956Y-49171D02*
X47956Y-49371D01*
X48085Y-49171D02*
X48085Y-49329D01*
X48070Y-49357D01*
X48042Y-49371D01*
X47999Y-49371D01*
X47970Y-49357D01*
X47956Y-49343D01*
X47714Y-49214D02*
X47814Y-49214D01*
X47814Y-49371D02*
X47814Y-49071D01*
X47671Y-49071D01*
X66093Y-41950D02*
X66107Y-41936D01*
X66121Y-41893D01*
X66121Y-41864D01*
X66107Y-41821D01*
X66079Y-41793D01*
X66050Y-41778D01*
X65993Y-41764D01*
X65950Y-41764D01*
X65893Y-41778D01*
X65864Y-41793D01*
X65836Y-41821D01*
X65821Y-41864D01*
X65821Y-41893D01*
X65836Y-41936D01*
X65850Y-41950D01*
X66121Y-42093D02*
X66121Y-42150D01*
X66107Y-42178D01*
X66093Y-42193D01*
X66050Y-42221D01*
X65993Y-42236D01*
X65879Y-42236D01*
X65850Y-42221D01*
X65836Y-42207D01*
X65821Y-42178D01*
X65821Y-42121D01*
X65836Y-42093D01*
X65850Y-42078D01*
X65879Y-42064D01*
X65950Y-42064D01*
X65979Y-42078D01*
X65993Y-42093D01*
X66007Y-42121D01*
X66007Y-42178D01*
X65993Y-42207D01*
X65979Y-42221D01*
X65950Y-42236D01*
X67071Y-41508D02*
X67071Y-41536D01*
X67086Y-41565D01*
X67100Y-41579D01*
X67129Y-41593D01*
X67186Y-41608D01*
X67257Y-41608D01*
X67314Y-41593D01*
X67343Y-41579D01*
X67357Y-41565D01*
X67371Y-41536D01*
X67371Y-41508D01*
X67357Y-41479D01*
X67343Y-41465D01*
X67314Y-41450D01*
X67257Y-41436D01*
X67186Y-41436D01*
X67129Y-41450D01*
X67100Y-41465D01*
X67086Y-41479D01*
X67071Y-41508D01*
X67343Y-41736D02*
X67357Y-41751D01*
X67371Y-41736D01*
X67357Y-41722D01*
X67343Y-41736D01*
X67371Y-41736D01*
X67371Y-42037D02*
X67371Y-41865D01*
X67371Y-41951D02*
X67071Y-41951D01*
X67114Y-41922D01*
X67143Y-41894D01*
X67157Y-41865D01*
X67171Y-42294D02*
X67371Y-42294D01*
X67171Y-42165D02*
X67329Y-42165D01*
X67357Y-42180D01*
X67371Y-42208D01*
X67371Y-42251D01*
X67357Y-42280D01*
X67343Y-42294D01*
X67214Y-42536D02*
X67214Y-42436D01*
X67371Y-42436D02*
X67071Y-42436D01*
X67071Y-42579D01*
X57800Y-33093D02*
X57814Y-33107D01*
X57857Y-33121D01*
X57886Y-33121D01*
X57929Y-33107D01*
X57957Y-33079D01*
X57972Y-33050D01*
X57986Y-32993D01*
X57986Y-32950D01*
X57972Y-32893D01*
X57957Y-32864D01*
X57929Y-32836D01*
X57886Y-32821D01*
X57857Y-32821D01*
X57814Y-32836D01*
X57800Y-32850D01*
X57686Y-32850D02*
X57672Y-32836D01*
X57643Y-32821D01*
X57572Y-32821D01*
X57543Y-32836D01*
X57529Y-32850D01*
X57514Y-32879D01*
X57514Y-32907D01*
X57529Y-32950D01*
X57700Y-33121D01*
X57514Y-33121D01*
X58850Y-33507D02*
X58836Y-33521D01*
X58821Y-33550D01*
X58821Y-33621D01*
X58836Y-33650D01*
X58850Y-33664D01*
X58879Y-33679D01*
X58907Y-33679D01*
X58950Y-33664D01*
X59121Y-33493D01*
X59121Y-33679D01*
X58850Y-33793D02*
X58836Y-33807D01*
X58821Y-33836D01*
X58821Y-33907D01*
X58836Y-33936D01*
X58850Y-33950D01*
X58879Y-33965D01*
X58907Y-33965D01*
X58950Y-33950D01*
X59121Y-33779D01*
X59121Y-33965D01*
X58921Y-34222D02*
X59121Y-34222D01*
X58921Y-34093D02*
X59079Y-34093D01*
X59107Y-34108D01*
X59121Y-34136D01*
X59121Y-34179D01*
X59107Y-34208D01*
X59093Y-34222D01*
X58964Y-34464D02*
X58964Y-34364D01*
X59121Y-34364D02*
X58821Y-34364D01*
X58821Y-34507D01*
X57800Y-35093D02*
X57814Y-35107D01*
X57857Y-35121D01*
X57886Y-35121D01*
X57929Y-35107D01*
X57957Y-35079D01*
X57972Y-35050D01*
X57986Y-34993D01*
X57986Y-34950D01*
X57972Y-34893D01*
X57957Y-34864D01*
X57929Y-34836D01*
X57886Y-34821D01*
X57857Y-34821D01*
X57814Y-34836D01*
X57800Y-34850D01*
X57700Y-34821D02*
X57514Y-34821D01*
X57614Y-34936D01*
X57572Y-34936D01*
X57543Y-34950D01*
X57529Y-34964D01*
X57514Y-34993D01*
X57514Y-35064D01*
X57529Y-35093D01*
X57543Y-35107D01*
X57572Y-35121D01*
X57657Y-35121D01*
X57686Y-35107D01*
X57700Y-35093D01*
X56350Y-35507D02*
X56336Y-35521D01*
X56321Y-35550D01*
X56321Y-35621D01*
X56336Y-35650D01*
X56350Y-35664D01*
X56379Y-35679D01*
X56407Y-35679D01*
X56450Y-35664D01*
X56621Y-35493D01*
X56621Y-35679D01*
X56350Y-35793D02*
X56336Y-35807D01*
X56321Y-35836D01*
X56321Y-35907D01*
X56336Y-35936D01*
X56350Y-35950D01*
X56379Y-35965D01*
X56407Y-35965D01*
X56450Y-35950D01*
X56621Y-35779D01*
X56621Y-35965D01*
X56421Y-36222D02*
X56621Y-36222D01*
X56421Y-36093D02*
X56579Y-36093D01*
X56607Y-36108D01*
X56621Y-36136D01*
X56621Y-36179D01*
X56607Y-36208D01*
X56593Y-36222D01*
X56464Y-36464D02*
X56464Y-36364D01*
X56621Y-36364D02*
X56321Y-36364D01*
X56321Y-36507D01*
X57800Y-41093D02*
X57814Y-41107D01*
X57857Y-41121D01*
X57886Y-41121D01*
X57929Y-41107D01*
X57957Y-41079D01*
X57972Y-41050D01*
X57986Y-40993D01*
X57986Y-40950D01*
X57972Y-40893D01*
X57957Y-40864D01*
X57929Y-40836D01*
X57886Y-40821D01*
X57857Y-40821D01*
X57814Y-40836D01*
X57800Y-40850D01*
X57543Y-40921D02*
X57543Y-41121D01*
X57614Y-40807D02*
X57686Y-41021D01*
X57500Y-41021D01*
X58921Y-41650D02*
X59121Y-41650D01*
X58807Y-41579D02*
X59021Y-41507D01*
X59021Y-41693D01*
X58821Y-41779D02*
X58821Y-41979D01*
X59121Y-41850D01*
X58921Y-42222D02*
X59121Y-42222D01*
X58921Y-42093D02*
X59079Y-42093D01*
X59107Y-42108D01*
X59121Y-42136D01*
X59121Y-42179D01*
X59107Y-42208D01*
X59093Y-42222D01*
X58964Y-42464D02*
X58964Y-42364D01*
X59121Y-42364D02*
X58821Y-42364D01*
X58821Y-42507D01*
G54D14*
X33045Y-38662D02*
X33045Y-38262D01*
X32892Y-38262D01*
X32854Y-38281D01*
X32835Y-38300D01*
X32816Y-38338D01*
X32816Y-38395D01*
X32835Y-38433D01*
X32854Y-38452D01*
X32892Y-38471D01*
X33045Y-38471D01*
X32664Y-38300D02*
X32645Y-38281D01*
X32607Y-38262D01*
X32511Y-38262D01*
X32473Y-38281D01*
X32454Y-38300D01*
X32435Y-38338D01*
X32435Y-38376D01*
X32454Y-38433D01*
X32683Y-38662D01*
X32435Y-38662D01*
X30412Y-40474D02*
X30412Y-40245D01*
X30412Y-40359D02*
X30012Y-40359D01*
X30069Y-40321D01*
X30107Y-40283D01*
X30126Y-40245D01*
X30183Y-40702D02*
X30164Y-40664D01*
X30145Y-40645D01*
X30107Y-40626D01*
X30088Y-40626D01*
X30050Y-40645D01*
X30031Y-40664D01*
X30012Y-40702D01*
X30012Y-40779D01*
X30031Y-40817D01*
X30050Y-40836D01*
X30088Y-40855D01*
X30107Y-40855D01*
X30145Y-40836D01*
X30164Y-40817D01*
X30183Y-40779D01*
X30183Y-40702D01*
X30202Y-40664D01*
X30221Y-40645D01*
X30260Y-40626D01*
X30336Y-40626D01*
X30374Y-40645D01*
X30393Y-40664D01*
X30412Y-40702D01*
X30412Y-40779D01*
X30393Y-40817D01*
X30374Y-40836D01*
X30336Y-40855D01*
X30260Y-40855D01*
X30221Y-40836D01*
X30202Y-40817D01*
X30183Y-40779D01*
X30260Y-41026D02*
X30260Y-41331D01*
X30012Y-41483D02*
X30012Y-41731D01*
X30164Y-41597D01*
X30164Y-41655D01*
X30183Y-41693D01*
X30202Y-41712D01*
X30240Y-41731D01*
X30336Y-41731D01*
X30374Y-41712D01*
X30393Y-41693D01*
X30412Y-41655D01*
X30412Y-41540D01*
X30393Y-41502D01*
X30374Y-41483D01*
X30012Y-42074D02*
X30012Y-41997D01*
X30031Y-41959D01*
X30050Y-41940D01*
X30107Y-41902D01*
X30183Y-41883D01*
X30336Y-41883D01*
X30374Y-41902D01*
X30393Y-41921D01*
X30412Y-41959D01*
X30412Y-42036D01*
X30393Y-42074D01*
X30374Y-42093D01*
X30336Y-42112D01*
X30240Y-42112D01*
X30202Y-42093D01*
X30183Y-42074D01*
X30164Y-42036D01*
X30164Y-41959D01*
X30183Y-41921D01*
X30202Y-41902D01*
X30240Y-41883D01*
X30012Y-42226D02*
X30412Y-42359D01*
X30012Y-42493D01*
X30412Y-42626D02*
X30012Y-42626D01*
X30012Y-42721D01*
X30031Y-42779D01*
X30069Y-42817D01*
X30107Y-42836D01*
X30183Y-42855D01*
X30240Y-42855D01*
X30317Y-42836D01*
X30355Y-42817D01*
X30393Y-42779D01*
X30412Y-42721D01*
X30412Y-42626D01*
X30374Y-43255D02*
X30393Y-43236D01*
X30412Y-43179D01*
X30412Y-43141D01*
X30393Y-43083D01*
X30355Y-43045D01*
X30317Y-43026D01*
X30240Y-43007D01*
X30183Y-43007D01*
X30107Y-43026D01*
X30069Y-43045D01*
X30031Y-43083D01*
X30012Y-43141D01*
X30012Y-43179D01*
X30031Y-43236D01*
X30050Y-43255D01*
G54D12*
X31343Y-46450D02*
X31357Y-46436D01*
X31371Y-46393D01*
X31371Y-46364D01*
X31357Y-46321D01*
X31329Y-46293D01*
X31300Y-46278D01*
X31243Y-46264D01*
X31200Y-46264D01*
X31143Y-46278D01*
X31114Y-46293D01*
X31086Y-46321D01*
X31071Y-46364D01*
X31071Y-46393D01*
X31086Y-46436D01*
X31100Y-46450D01*
X31371Y-46736D02*
X31371Y-46564D01*
X31371Y-46650D02*
X31071Y-46650D01*
X31114Y-46621D01*
X31143Y-46593D01*
X31157Y-46564D01*
X33993Y-45600D02*
X33979Y-45586D01*
X33950Y-45571D01*
X33879Y-45571D01*
X33850Y-45586D01*
X33836Y-45600D01*
X33821Y-45629D01*
X33821Y-45657D01*
X33836Y-45700D01*
X34007Y-45871D01*
X33821Y-45871D01*
X33707Y-45600D02*
X33693Y-45586D01*
X33664Y-45571D01*
X33593Y-45571D01*
X33564Y-45586D01*
X33550Y-45600D01*
X33535Y-45629D01*
X33535Y-45657D01*
X33550Y-45700D01*
X33721Y-45871D01*
X33535Y-45871D01*
X33278Y-45671D02*
X33278Y-45871D01*
X33407Y-45671D02*
X33407Y-45829D01*
X33392Y-45857D01*
X33364Y-45871D01*
X33321Y-45871D01*
X33292Y-45857D01*
X33278Y-45843D01*
X33036Y-45714D02*
X33136Y-45714D01*
X33136Y-45871D02*
X33136Y-45571D01*
X32993Y-45571D01*
G54D14*
X46305Y-43643D02*
X46248Y-43662D01*
X46152Y-43662D01*
X46114Y-43643D01*
X46095Y-43624D01*
X46076Y-43586D01*
X46076Y-43548D01*
X46095Y-43510D01*
X46114Y-43490D01*
X46152Y-43471D01*
X46229Y-43452D01*
X46267Y-43433D01*
X46286Y-43414D01*
X46305Y-43376D01*
X46305Y-43338D01*
X46286Y-43300D01*
X46267Y-43281D01*
X46229Y-43262D01*
X46133Y-43262D01*
X46076Y-43281D01*
X45695Y-43662D02*
X45924Y-43662D01*
X45810Y-43662D02*
X45810Y-43262D01*
X45848Y-43319D01*
X45886Y-43357D01*
X45924Y-43376D01*
G54D15*
X50457Y-32143D02*
X50114Y-32143D01*
X50285Y-32743D02*
X50285Y-32143D01*
X49971Y-32143D02*
X49828Y-32743D01*
X49714Y-32314D01*
X49600Y-32743D01*
X49457Y-32143D01*
X48885Y-32743D02*
X49085Y-32457D01*
X49228Y-32743D02*
X49228Y-32143D01*
X49000Y-32143D01*
X48942Y-32171D01*
X48914Y-32200D01*
X48885Y-32257D01*
X48885Y-32343D01*
X48914Y-32400D01*
X48942Y-32429D01*
X49000Y-32457D01*
X49228Y-32457D01*
X48771Y-32800D02*
X48314Y-32800D01*
X48257Y-32143D02*
X47914Y-32143D01*
X48085Y-32743D02*
X48085Y-32143D01*
X47371Y-32743D02*
X47571Y-32457D01*
X47714Y-32743D02*
X47714Y-32143D01*
X47486Y-32143D01*
X47428Y-32171D01*
X47400Y-32200D01*
X47371Y-32257D01*
X47371Y-32343D01*
X47400Y-32400D01*
X47428Y-32429D01*
X47486Y-32457D01*
X47714Y-32457D01*
X47114Y-32743D02*
X47114Y-32143D01*
X46828Y-32743D02*
X46828Y-32143D01*
X46600Y-32143D01*
X46542Y-32171D01*
X46514Y-32200D01*
X46485Y-32257D01*
X46485Y-32343D01*
X46514Y-32400D01*
X46542Y-32429D01*
X46600Y-32457D01*
X46828Y-32457D01*
X45942Y-32743D02*
X46228Y-32743D01*
X46228Y-32143D01*
X45742Y-32429D02*
X45542Y-32429D01*
X45456Y-32743D02*
X45742Y-32743D01*
X45742Y-32143D01*
X45456Y-32143D01*
X45342Y-32800D02*
X44885Y-32800D01*
X44771Y-32714D02*
X44685Y-32743D01*
X44542Y-32743D01*
X44485Y-32714D01*
X44456Y-32686D01*
X44428Y-32629D01*
X44428Y-32571D01*
X44456Y-32514D01*
X44485Y-32486D01*
X44542Y-32457D01*
X44656Y-32429D01*
X44714Y-32400D01*
X44742Y-32371D01*
X44771Y-32314D01*
X44771Y-32257D01*
X44742Y-32200D01*
X44714Y-32171D01*
X44656Y-32143D01*
X44514Y-32143D01*
X44428Y-32171D01*
X44171Y-32143D02*
X44171Y-32629D01*
X44143Y-32686D01*
X44114Y-32714D01*
X44057Y-32743D01*
X43943Y-32743D01*
X43885Y-32714D01*
X43857Y-32686D01*
X43828Y-32629D01*
X43828Y-32143D01*
X43542Y-32743D02*
X43542Y-32143D01*
X43314Y-32143D01*
X43256Y-32171D01*
X43228Y-32200D01*
X43199Y-32257D01*
X43199Y-32343D01*
X43228Y-32400D01*
X43256Y-32429D01*
X43314Y-32457D01*
X43542Y-32457D01*
X42942Y-32743D02*
X42942Y-32143D01*
X42714Y-32143D01*
X42656Y-32171D01*
X42628Y-32200D01*
X42599Y-32257D01*
X42599Y-32343D01*
X42628Y-32400D01*
X42656Y-32429D01*
X42714Y-32457D01*
X42942Y-32457D01*
X42056Y-32743D02*
X42342Y-32743D01*
X42342Y-32143D01*
X41742Y-32457D02*
X41742Y-32743D01*
X41942Y-32143D02*
X41742Y-32457D01*
X41542Y-32143D01*
X53521Y-41764D02*
X53064Y-41764D01*
X53293Y-41993D02*
X53293Y-41536D01*
X52492Y-41393D02*
X52778Y-41393D01*
X52807Y-41679D01*
X52778Y-41650D01*
X52721Y-41621D01*
X52578Y-41621D01*
X52521Y-41650D01*
X52492Y-41679D01*
X52464Y-41736D01*
X52464Y-41879D01*
X52492Y-41936D01*
X52521Y-41964D01*
X52578Y-41993D01*
X52721Y-41993D01*
X52778Y-41964D01*
X52807Y-41936D01*
X52293Y-41393D02*
X52093Y-41993D01*
X51893Y-41393D01*
X53443Y-39186D02*
X53472Y-39214D01*
X53558Y-39243D01*
X53615Y-39243D01*
X53700Y-39214D01*
X53758Y-39157D01*
X53786Y-39100D01*
X53815Y-38986D01*
X53815Y-38900D01*
X53786Y-38786D01*
X53758Y-38729D01*
X53700Y-38671D01*
X53615Y-38643D01*
X53558Y-38643D01*
X53472Y-38671D01*
X53443Y-38700D01*
X53072Y-38643D02*
X52958Y-38643D01*
X52900Y-38671D01*
X52843Y-38729D01*
X52815Y-38843D01*
X52815Y-39043D01*
X52843Y-39157D01*
X52900Y-39214D01*
X52958Y-39243D01*
X53072Y-39243D01*
X53129Y-39214D01*
X53186Y-39157D01*
X53215Y-39043D01*
X53215Y-38843D01*
X53186Y-38729D01*
X53129Y-38671D01*
X53072Y-38643D01*
X52557Y-39243D02*
X52557Y-38643D01*
X52357Y-39071D01*
X52157Y-38643D01*
X52157Y-39243D01*
X51871Y-39243D02*
X51871Y-38643D01*
X51671Y-39071D01*
X51471Y-38643D01*
X51471Y-39243D01*
X51071Y-38643D02*
X50957Y-38643D01*
X50899Y-38671D01*
X50842Y-38729D01*
X50814Y-38843D01*
X50814Y-39043D01*
X50842Y-39157D01*
X50899Y-39214D01*
X50957Y-39243D01*
X51071Y-39243D01*
X51128Y-39214D01*
X51185Y-39157D01*
X51214Y-39043D01*
X51214Y-38843D01*
X51185Y-38729D01*
X51128Y-38671D01*
X51071Y-38643D01*
X50556Y-39243D02*
X50556Y-38643D01*
X50213Y-39243D01*
X50213Y-38643D01*
X53556Y-36014D02*
X53099Y-36014D01*
X52499Y-36243D02*
X52842Y-36243D01*
X52670Y-36243D02*
X52670Y-35643D01*
X52727Y-35729D01*
X52785Y-35786D01*
X52842Y-35814D01*
X51956Y-35643D02*
X52242Y-35643D01*
X52271Y-35929D01*
X52242Y-35900D01*
X52185Y-35871D01*
X52042Y-35871D01*
X51985Y-35900D01*
X51956Y-35929D01*
X51928Y-35986D01*
X51928Y-36129D01*
X51956Y-36186D01*
X51985Y-36214D01*
X52042Y-36243D01*
X52185Y-36243D01*
X52242Y-36214D01*
X52271Y-36186D01*
X51757Y-35643D02*
X51557Y-36243D01*
X51357Y-35643D01*
X53556Y-34014D02*
X53099Y-34014D01*
X53328Y-34243D02*
X53328Y-33786D01*
X52499Y-34243D02*
X52842Y-34243D01*
X52670Y-34243D02*
X52670Y-33643D01*
X52727Y-33729D01*
X52785Y-33786D01*
X52842Y-33814D01*
X51956Y-33643D02*
X52242Y-33643D01*
X52271Y-33929D01*
X52242Y-33900D01*
X52185Y-33871D01*
X52042Y-33871D01*
X51985Y-33900D01*
X51956Y-33929D01*
X51928Y-33986D01*
X51928Y-34129D01*
X51956Y-34186D01*
X51985Y-34214D01*
X52042Y-34243D01*
X52185Y-34243D01*
X52242Y-34214D01*
X52271Y-34186D01*
X51757Y-33643D02*
X51557Y-34243D01*
X51357Y-33643D01*
X41029Y-39014D02*
X40572Y-39014D01*
X40286Y-39243D02*
X40286Y-38643D01*
X40000Y-39243D02*
X40000Y-38643D01*
X39657Y-39243D01*
X39657Y-38643D01*
X39371Y-39243D02*
X39371Y-38643D01*
X39143Y-38643D01*
X39085Y-38671D01*
X39057Y-38700D01*
X39028Y-38757D01*
X39028Y-38843D01*
X39057Y-38900D01*
X39085Y-38929D01*
X39143Y-38957D01*
X39371Y-38957D01*
X38771Y-38643D02*
X38771Y-39129D01*
X38743Y-39186D01*
X38714Y-39214D01*
X38657Y-39243D01*
X38543Y-39243D01*
X38485Y-39214D01*
X38457Y-39186D01*
X38428Y-39129D01*
X38428Y-38643D01*
X38228Y-38643D02*
X37885Y-38643D01*
X38056Y-39243D02*
X38056Y-38643D01*
X41029Y-37014D02*
X40572Y-37014D01*
X40801Y-37243D02*
X40801Y-36786D01*
X40286Y-37243D02*
X40286Y-36643D01*
X40000Y-37243D02*
X40000Y-36643D01*
X39657Y-37243D01*
X39657Y-36643D01*
X39371Y-37243D02*
X39371Y-36643D01*
X39143Y-36643D01*
X39085Y-36671D01*
X39057Y-36700D01*
X39028Y-36757D01*
X39028Y-36843D01*
X39057Y-36900D01*
X39085Y-36929D01*
X39143Y-36957D01*
X39371Y-36957D01*
X38771Y-36643D02*
X38771Y-37129D01*
X38743Y-37186D01*
X38714Y-37214D01*
X38657Y-37243D01*
X38543Y-37243D01*
X38485Y-37214D01*
X38457Y-37186D01*
X38428Y-37129D01*
X38428Y-36643D01*
X38228Y-36643D02*
X37885Y-36643D01*
X38056Y-37243D02*
X38056Y-36643D01*
G54D14*
X62305Y-37512D02*
X62305Y-37836D01*
X62286Y-37874D01*
X62267Y-37893D01*
X62229Y-37912D01*
X62152Y-37912D01*
X62114Y-37893D01*
X62095Y-37874D01*
X62076Y-37836D01*
X62076Y-37512D01*
X61714Y-37645D02*
X61714Y-37912D01*
X61810Y-37493D02*
X61905Y-37779D01*
X61657Y-37779D01*
G54D15*
X64456Y-42743D02*
X64456Y-42143D01*
X64199Y-42714D02*
X64113Y-42743D01*
X63970Y-42743D01*
X63913Y-42714D01*
X63884Y-42686D01*
X63856Y-42629D01*
X63856Y-42571D01*
X63884Y-42514D01*
X63913Y-42486D01*
X63970Y-42457D01*
X64084Y-42429D01*
X64142Y-42400D01*
X64170Y-42371D01*
X64199Y-42314D01*
X64199Y-42257D01*
X64170Y-42200D01*
X64142Y-42171D01*
X64084Y-42143D01*
X63942Y-42143D01*
X63856Y-42171D01*
X63313Y-42743D02*
X63599Y-42743D01*
X63599Y-42143D01*
X62827Y-42143D02*
X63113Y-42143D01*
X63142Y-42429D01*
X63113Y-42400D01*
X63056Y-42371D01*
X62913Y-42371D01*
X62856Y-42400D01*
X62827Y-42429D01*
X62799Y-42486D01*
X62799Y-42629D01*
X62827Y-42686D01*
X62856Y-42714D01*
X62913Y-42743D01*
X63056Y-42743D01*
X63113Y-42714D01*
X63142Y-42686D01*
X62256Y-42143D02*
X62542Y-42143D01*
X62571Y-42429D01*
X62542Y-42400D01*
X62485Y-42371D01*
X62342Y-42371D01*
X62285Y-42400D01*
X62256Y-42429D01*
X62228Y-42486D01*
X62228Y-42629D01*
X62256Y-42686D01*
X62285Y-42714D01*
X62342Y-42743D01*
X62485Y-42743D01*
X62542Y-42714D01*
X62571Y-42686D01*
X61857Y-42143D02*
X61800Y-42143D01*
X61743Y-42171D01*
X61714Y-42200D01*
X61685Y-42257D01*
X61657Y-42371D01*
X61657Y-42514D01*
X61685Y-42629D01*
X61714Y-42686D01*
X61743Y-42714D01*
X61800Y-42743D01*
X61857Y-42743D01*
X61914Y-42714D01*
X61943Y-42686D01*
X61971Y-42629D01*
X62000Y-42514D01*
X62000Y-42371D01*
X61971Y-42257D01*
X61943Y-42200D01*
X61914Y-42171D01*
X61857Y-42143D01*
X61286Y-42143D02*
X61229Y-42143D01*
X61172Y-42171D01*
X61143Y-42200D01*
X61114Y-42257D01*
X61086Y-42371D01*
X61086Y-42514D01*
X61114Y-42629D01*
X61143Y-42686D01*
X61172Y-42714D01*
X61229Y-42743D01*
X61286Y-42743D01*
X61343Y-42714D01*
X61372Y-42686D01*
X61400Y-42629D01*
X61429Y-42514D01*
X61429Y-42371D01*
X61400Y-42257D01*
X61372Y-42200D01*
X61343Y-42171D01*
X61286Y-42143D01*
X60572Y-42343D02*
X60572Y-42743D01*
X60715Y-42114D02*
X60858Y-42543D01*
X60486Y-42543D01*
%LPC*%
G54D16*
X71090Y-44270D03*
X71090Y-39230D03*
G54D17*
X69170Y-43520D03*
X69170Y-39980D03*
X69170Y-42815D03*
G54D18*
X69170Y-40685D03*
G54D16*
X70820Y-41750D03*
G54D19*
X30750Y-51750D03*
X40750Y-51750D03*
X30750Y-31750D03*
G54D20*
X48250Y-45150D03*
X48250Y-46350D03*
X43750Y-46350D03*
X43750Y-45150D03*
G54D19*
X60750Y-51750D03*
X70750Y-31750D03*
X70750Y-51750D03*
G54D20*
X42000Y-46350D03*
X42000Y-45150D03*
X43750Y-48650D03*
X43750Y-49850D03*
G54D21*
X44500Y-42500D03*
X43500Y-42500D03*
X40500Y-42500D03*
X39500Y-42500D03*
X47500Y-42500D03*
X48500Y-42500D03*
X51500Y-42500D03*
X52500Y-42500D03*
X38500Y-33500D03*
X39500Y-33500D03*
X40500Y-33500D03*
X41500Y-33500D03*
X42500Y-33500D03*
X43500Y-33500D03*
X44500Y-33500D03*
X45500Y-33500D03*
X46500Y-33500D03*
X47500Y-33500D03*
X48500Y-33500D03*
X49500Y-33500D03*
G54D22*
X66650Y-43500D03*
X67850Y-43500D03*
G54D20*
X58500Y-46100D03*
X58500Y-44900D03*
G54D22*
X45400Y-47500D03*
X46600Y-47500D03*
G54D20*
X46000Y-48650D03*
X46000Y-49850D03*
X55000Y-46350D03*
X55000Y-45150D03*
X50000Y-45150D03*
X50000Y-46350D03*
X37000Y-45150D03*
X37000Y-46350D03*
G54D22*
X58350Y-39000D03*
X57150Y-39000D03*
X66650Y-40500D03*
X67850Y-40500D03*
G54D20*
X48250Y-49850D03*
X48250Y-48650D03*
G54D22*
X66650Y-42000D03*
X67850Y-42000D03*
G54D23*
X41670Y-48000D03*
X37330Y-48000D03*
G54D24*
X39500Y-44060D03*
X40980Y-44060D03*
X38020Y-44060D03*
G54D23*
X54670Y-48000D03*
X50330Y-48000D03*
G54D24*
X52500Y-44060D03*
X53980Y-44060D03*
X51020Y-44060D03*
G54D19*
X40750Y-31750D03*
G54D22*
X57150Y-34000D03*
X58350Y-34000D03*
X58350Y-36000D03*
X57150Y-36000D03*
X57150Y-42000D03*
X58350Y-42000D03*
G54D25*
X30930Y-41750D03*
G54D26*
X32110Y-41750D03*
G54D19*
X34470Y-41750D03*
G54D26*
X31720Y-39980D03*
X31720Y-43520D03*
G54D27*
X30750Y-38250D03*
X30750Y-34250D03*
G54D28*
X32750Y-36250D03*
G54D29*
X32750Y-37250D03*
G54D27*
X34750Y-38250D03*
X30750Y-49250D03*
X30750Y-45250D03*
G54D28*
X32750Y-47250D03*
G54D29*
X32750Y-48250D03*
G54D27*
X34750Y-49250D03*
G54D30*
X66750Y-50500D03*
X65750Y-50500D03*
G54D31*
X67750Y-50500D03*
G54D30*
X64750Y-50500D03*
X63750Y-50500D03*
G54D19*
X60750Y-31750D03*
G54D32*
X34950Y-45750D03*
X32050Y-45750D03*
G54D33*
X37000Y-39000D03*
X37000Y-37000D03*
X55000Y-34000D03*
X55000Y-36000D03*
X55000Y-39000D03*
X55000Y-42000D03*
G54D34*
X61300Y-41500D03*
X61300Y-41000D03*
X61300Y-40500D03*
X61300Y-40000D03*
X61300Y-39500D03*
X61300Y-39000D03*
X61300Y-38500D03*
X63700Y-38500D03*
X63700Y-39000D03*
X63700Y-39500D03*
X63700Y-40000D03*
X63700Y-40500D03*
X63700Y-41000D03*
X63700Y-41500D03*
M02*
