G04 (created by PCBNEW-RS274X (2011-05-25)-stable) date Wed 30 Oct 2013 02:01:52 PM EDT*
G01*
G70*
G90*
%MOIN*%
G04 Gerber Fmt 3.4, Leading zero omitted, Abs format*
%FSLAX34Y34*%
G04 APERTURE LIST*
%ADD10C,0.006000*%
%ADD11C,0.009000*%
%ADD12C,0.107000*%
%ADD13C,0.056000*%
%ADD14R,0.056000X0.056000*%
%ADD15C,0.160000*%
%ADD16R,0.100000X0.050000*%
%ADD17C,0.060000*%
%ADD18R,0.050000X0.100000*%
%ADD19C,0.200000*%
%ADD20C,0.080000*%
%ADD21C,0.076000*%
%ADD22C,0.140000*%
%ADD23C,0.120000*%
%ADD24R,0.065000X0.065000*%
%ADD25C,0.065000*%
%ADD26R,0.075000X0.170000*%
%ADD27C,0.135000*%
%ADD28R,0.060000X0.025000*%
%ADD29C,0.073000*%
%ADD30R,0.073000X0.073000*%
%ADD31R,0.039000X0.028000*%
%ADD32C,0.046000*%
%ADD33C,0.035000*%
%ADD34C,0.036000*%
%ADD35C,0.024000*%
%ADD36C,0.010000*%
G04 APERTURE END LIST*
G54D10*
G54D11*
X29500Y-30500D02*
X29500Y-53000D01*
X72000Y-30500D02*
X29500Y-30500D01*
X72000Y-53000D02*
X72000Y-30500D01*
X29500Y-53000D02*
X72000Y-53000D01*
G54D12*
X71090Y-44270D03*
X71090Y-39230D03*
G54D13*
X69170Y-43520D03*
X69170Y-39980D03*
X69170Y-42815D03*
G54D14*
X69170Y-40685D03*
G54D12*
X70820Y-41750D03*
G54D15*
X30750Y-51750D03*
X70750Y-31750D03*
X30750Y-31750D03*
G54D16*
X48250Y-45150D03*
X48250Y-46350D03*
X43750Y-46350D03*
X43750Y-45150D03*
G54D15*
X70750Y-51750D03*
G54D16*
X42000Y-46350D03*
X42000Y-45150D03*
X43750Y-48650D03*
X43750Y-49850D03*
G54D17*
X44500Y-42500D03*
X43500Y-42500D03*
X40500Y-42500D03*
X39500Y-42500D03*
X47500Y-42500D03*
X48500Y-42500D03*
X51500Y-42500D03*
X52500Y-42500D03*
X38500Y-33500D03*
X39500Y-33500D03*
X40500Y-33500D03*
X41500Y-33500D03*
X42500Y-33500D03*
X43500Y-33500D03*
X44500Y-33500D03*
X45500Y-33500D03*
X46500Y-33500D03*
X47500Y-33500D03*
X48500Y-33500D03*
X49500Y-33500D03*
G54D18*
X61900Y-36000D03*
X63100Y-36000D03*
G54D16*
X58500Y-46100D03*
X58500Y-44900D03*
G54D18*
X45400Y-47500D03*
X46600Y-47500D03*
G54D16*
X46000Y-48650D03*
X46000Y-49850D03*
X55000Y-46350D03*
X55000Y-45150D03*
X50000Y-45150D03*
X50000Y-46350D03*
X37000Y-45150D03*
X37000Y-46350D03*
G54D18*
X58350Y-39000D03*
X57150Y-39000D03*
G54D16*
X66000Y-39900D03*
X66000Y-41100D03*
X48250Y-49850D03*
X48250Y-48650D03*
G54D18*
X61900Y-34000D03*
X63100Y-34000D03*
G54D19*
X41670Y-48000D03*
X37330Y-48000D03*
G54D20*
X39500Y-44060D03*
X40980Y-44060D03*
X38020Y-44060D03*
G54D19*
X54670Y-48000D03*
X50330Y-48000D03*
G54D20*
X52500Y-44060D03*
X53980Y-44060D03*
X51020Y-44060D03*
G54D18*
X57150Y-34000D03*
X58350Y-34000D03*
X58350Y-36000D03*
X57150Y-36000D03*
X57150Y-42000D03*
X58350Y-42000D03*
G54D21*
X30930Y-41750D03*
G54D22*
X32110Y-41750D03*
G54D15*
X34470Y-41750D03*
G54D22*
X31720Y-39980D03*
X31720Y-43520D03*
G54D23*
X30750Y-38250D03*
X30750Y-34250D03*
G54D24*
X32750Y-36250D03*
G54D25*
X32750Y-37250D03*
G54D23*
X34750Y-38250D03*
X30750Y-49250D03*
X30750Y-45250D03*
G54D24*
X32750Y-47250D03*
G54D25*
X32750Y-48250D03*
G54D23*
X34750Y-49250D03*
G54D26*
X34950Y-45750D03*
X32050Y-45750D03*
G54D27*
X37000Y-39000D03*
X37000Y-37000D03*
X55000Y-34000D03*
X55000Y-36000D03*
X55000Y-39000D03*
X55000Y-42000D03*
G54D28*
X61300Y-41500D03*
X61300Y-41000D03*
X61300Y-40500D03*
X61300Y-40000D03*
X61300Y-39500D03*
X61300Y-39000D03*
X61300Y-38500D03*
X63700Y-38500D03*
X63700Y-39000D03*
X63700Y-39500D03*
X63700Y-40000D03*
X63700Y-40500D03*
X63700Y-41000D03*
X63700Y-41500D03*
G54D29*
X67250Y-50500D03*
X66250Y-50500D03*
G54D30*
X68250Y-50500D03*
G54D29*
X65250Y-50500D03*
X64250Y-50500D03*
X63250Y-50500D03*
G54D31*
X65220Y-43500D03*
X64280Y-43870D03*
X64280Y-43130D03*
X66780Y-43500D03*
X67720Y-43130D03*
X67720Y-43870D03*
G54D32*
X44788Y-47582D03*
X53187Y-41534D03*
X66888Y-39618D03*
X47934Y-49250D03*
G54D33*
X60096Y-36566D03*
X58265Y-47481D03*
X65633Y-45883D03*
X44639Y-47000D03*
X56612Y-42527D03*
X47281Y-47715D03*
X58411Y-46656D03*
X49208Y-46402D03*
G54D32*
X46539Y-45000D03*
X42908Y-45641D03*
X43514Y-48055D03*
X61913Y-47003D03*
G54D34*
X57150Y-42000D02*
X56600Y-42000D01*
X44850Y-47520D02*
X44788Y-47582D01*
X44850Y-47500D02*
X44850Y-47520D01*
X45400Y-47500D02*
X44850Y-47500D01*
X56600Y-42000D02*
X55000Y-42000D01*
X49027Y-41903D02*
X45705Y-41903D01*
X50225Y-43101D02*
X49027Y-41903D01*
X53899Y-43101D02*
X50225Y-43101D01*
X55000Y-42000D02*
X53899Y-43101D01*
X45705Y-40705D02*
X38500Y-33500D01*
X45705Y-41903D02*
X45705Y-40705D01*
X45400Y-47500D02*
X45680Y-47500D01*
X45705Y-47475D02*
X45680Y-47500D01*
X45705Y-41903D02*
X45705Y-47475D01*
X45680Y-47780D02*
X46000Y-48100D01*
X45680Y-47500D02*
X45680Y-47780D01*
X46000Y-48650D02*
X46000Y-48100D01*
X57150Y-36000D02*
X56600Y-36000D01*
X55000Y-36000D02*
X56600Y-36000D01*
X65100Y-40000D02*
X63700Y-40000D01*
X65200Y-39900D02*
X65100Y-40000D01*
X66000Y-39900D02*
X65200Y-39900D01*
X66000Y-39900D02*
X66800Y-39900D01*
X66800Y-39706D02*
X66888Y-39618D01*
X66800Y-39900D02*
X66800Y-39706D01*
X53187Y-37813D02*
X53187Y-41534D01*
X55000Y-36000D02*
X53187Y-37813D01*
X47934Y-49534D02*
X47934Y-49250D01*
X48250Y-49850D02*
X47934Y-49534D01*
X45340Y-49250D02*
X44820Y-48730D01*
X47934Y-49250D02*
X45340Y-49250D01*
X44250Y-49300D02*
X44820Y-48730D01*
X41153Y-49300D02*
X44250Y-49300D01*
X38203Y-46350D02*
X41153Y-49300D01*
X37000Y-46350D02*
X38203Y-46350D01*
X43750Y-47353D02*
X43750Y-46350D01*
X44820Y-48423D02*
X43750Y-47353D01*
X44820Y-48730D02*
X44820Y-48423D01*
G54D35*
X61840Y-46090D02*
X61840Y-41500D01*
X66250Y-50500D02*
X61840Y-46090D01*
X61300Y-41500D02*
X61840Y-41500D01*
X61300Y-41000D02*
X61300Y-41500D01*
X60760Y-38500D02*
X60760Y-39000D01*
X61300Y-39000D02*
X60760Y-39000D01*
X61300Y-38500D02*
X61030Y-38500D01*
X61030Y-38500D02*
X60760Y-38500D01*
X61030Y-37500D02*
X60096Y-36566D01*
X61030Y-38500D02*
X61030Y-37500D01*
X62231Y-47481D02*
X65250Y-50500D01*
X58265Y-47481D02*
X62231Y-47481D01*
X63160Y-41500D02*
X63160Y-41000D01*
X63700Y-41000D02*
X63160Y-41000D01*
X63700Y-41500D02*
X63468Y-41500D01*
X63468Y-41500D02*
X63397Y-41500D01*
X63397Y-41500D02*
X63160Y-41500D01*
X63397Y-43647D02*
X65633Y-45883D01*
X63397Y-41500D02*
X63397Y-43647D01*
X63160Y-39000D02*
X63160Y-38500D01*
X63700Y-39000D02*
X63160Y-39000D01*
X63700Y-38500D02*
X63464Y-38500D01*
X63464Y-38500D02*
X63160Y-38500D01*
X63464Y-37104D02*
X63100Y-36740D01*
X63464Y-38500D02*
X63464Y-37104D01*
X63100Y-36000D02*
X63100Y-36740D01*
X63700Y-40500D02*
X63160Y-40500D01*
X63160Y-40500D02*
X63160Y-39500D01*
X63700Y-39500D02*
X63160Y-39500D01*
X68110Y-43520D02*
X69170Y-43520D01*
X67720Y-43130D02*
X68110Y-43520D01*
X67250Y-48103D02*
X65662Y-46515D01*
X67250Y-50500D02*
X67250Y-48103D01*
X62786Y-40874D02*
X63160Y-40500D01*
X62786Y-43639D02*
X62786Y-40874D01*
X65662Y-46515D02*
X62786Y-43639D01*
X67199Y-43651D02*
X67720Y-43130D01*
X67199Y-44978D02*
X67199Y-43651D01*
X65662Y-46515D02*
X67199Y-44978D01*
X61900Y-34000D02*
X61900Y-36000D01*
X61300Y-39500D02*
X61746Y-39500D01*
X61900Y-36000D02*
X61900Y-36740D01*
X61746Y-39500D02*
X61785Y-39500D01*
X61900Y-39385D02*
X61900Y-36740D01*
X61785Y-39500D02*
X61900Y-39385D01*
X61840Y-39555D02*
X61840Y-40500D01*
X61785Y-39500D02*
X61840Y-39555D01*
X61300Y-40500D02*
X61840Y-40500D01*
X63283Y-49533D02*
X64250Y-50500D01*
X59555Y-49533D02*
X63283Y-49533D01*
X55898Y-45876D02*
X59555Y-49533D01*
X54316Y-45876D02*
X55898Y-45876D01*
X52500Y-44060D02*
X54316Y-45876D01*
X44639Y-43639D02*
X43500Y-42500D01*
X44639Y-47000D02*
X44639Y-43639D01*
G54D34*
X35647Y-40573D02*
X34470Y-41750D01*
X35647Y-38353D02*
X35647Y-40573D01*
X37000Y-37000D02*
X35647Y-38353D01*
X34470Y-44120D02*
X34470Y-41750D01*
X34950Y-44600D02*
X34470Y-44120D01*
X34950Y-45750D02*
X34950Y-44600D01*
X32545Y-49955D02*
X30750Y-51750D01*
X32545Y-48250D02*
X32545Y-49955D01*
X32545Y-48250D02*
X32750Y-48250D01*
X58350Y-44200D02*
X58500Y-44350D01*
X58350Y-42000D02*
X58350Y-44200D01*
X58500Y-44900D02*
X58500Y-44350D01*
X58350Y-34000D02*
X58350Y-36000D01*
X57800Y-38900D02*
X57700Y-39000D01*
X57800Y-36000D02*
X57800Y-38900D01*
X58350Y-36000D02*
X57800Y-36000D01*
X57150Y-39000D02*
X57700Y-39000D01*
X58350Y-42000D02*
X57800Y-42000D01*
X57700Y-41900D02*
X57800Y-42000D01*
X57700Y-39000D02*
X57700Y-41900D01*
X67455Y-41100D02*
X66000Y-41100D01*
X63100Y-34000D02*
X63650Y-34000D01*
X69500Y-50500D02*
X70750Y-51750D01*
X32050Y-47755D02*
X32050Y-45750D01*
X32545Y-48250D02*
X32050Y-47755D01*
X32704Y-42344D02*
X32110Y-41750D01*
X32704Y-43946D02*
X32704Y-42344D01*
X32050Y-44600D02*
X32704Y-43946D01*
X32050Y-45750D02*
X32050Y-44600D01*
X46000Y-49850D02*
X46000Y-49764D01*
X43750Y-49850D02*
X44550Y-49850D01*
X69170Y-42815D02*
X67455Y-41100D01*
X71090Y-48910D02*
X69500Y-50500D01*
X71090Y-44270D02*
X71090Y-48910D01*
X69929Y-42521D02*
X69635Y-42815D01*
X69929Y-32571D02*
X69929Y-42521D01*
X70750Y-31750D02*
X69929Y-32571D01*
X71090Y-44270D02*
X69635Y-42815D01*
X69635Y-42815D02*
X69170Y-42815D01*
X67455Y-37805D02*
X67455Y-41100D01*
X63650Y-34000D02*
X67455Y-37805D01*
X68250Y-50500D02*
X69500Y-50500D01*
X44636Y-49764D02*
X46000Y-49764D01*
X44550Y-49850D02*
X44636Y-49764D01*
X49034Y-43034D02*
X48500Y-42500D01*
X49034Y-45566D02*
X49034Y-43034D01*
X48800Y-45800D02*
X49034Y-45566D01*
X48250Y-45800D02*
X48800Y-45800D01*
X48250Y-46350D02*
X48250Y-45800D01*
X63801Y-42499D02*
X65200Y-41100D01*
X63801Y-43391D02*
X63801Y-42499D01*
X64280Y-43870D02*
X63801Y-43391D01*
X66000Y-41100D02*
X65200Y-41100D01*
X48250Y-46350D02*
X48250Y-46900D01*
X48250Y-48650D02*
X48250Y-46900D01*
X55000Y-40456D02*
X55000Y-39000D01*
X52956Y-42500D02*
X55000Y-40456D01*
X52500Y-42500D02*
X52956Y-42500D01*
X57150Y-39000D02*
X56600Y-39000D01*
X55000Y-39000D02*
X56600Y-39000D01*
X32750Y-41110D02*
X32750Y-37250D01*
X32110Y-41750D02*
X32750Y-41110D01*
X35200Y-32872D02*
X33536Y-34536D01*
X39872Y-32872D02*
X35200Y-32872D01*
X40500Y-33500D02*
X39872Y-32872D01*
X33536Y-36956D02*
X33536Y-34536D01*
X33242Y-37250D02*
X33536Y-36956D01*
X32750Y-37250D02*
X33242Y-37250D01*
X33536Y-34536D02*
X30750Y-31750D01*
X43750Y-45150D02*
X43750Y-44600D01*
X42660Y-42500D02*
X40500Y-42500D01*
X43244Y-41916D02*
X42660Y-42500D01*
X43916Y-41916D02*
X43244Y-41916D01*
X44500Y-42500D02*
X43916Y-41916D01*
X42660Y-43510D02*
X43750Y-44600D01*
X42660Y-42500D02*
X42660Y-43510D01*
X46000Y-49850D02*
X46000Y-50400D01*
X49286Y-50400D02*
X46000Y-50400D01*
X50327Y-51441D02*
X49286Y-50400D01*
X67309Y-51441D02*
X50327Y-51441D01*
X68250Y-50500D02*
X67309Y-51441D01*
X49286Y-49686D02*
X48250Y-48650D01*
X49286Y-50400D02*
X49286Y-49686D01*
G54D35*
X55000Y-44139D02*
X56612Y-42527D01*
X55000Y-45150D02*
X55000Y-44139D01*
X41580Y-44660D02*
X42000Y-44660D01*
X40980Y-44060D02*
X41580Y-44660D01*
X42000Y-45150D02*
X42000Y-44660D01*
X47090Y-47524D02*
X47281Y-47715D01*
X47090Y-47500D02*
X47090Y-47524D01*
X46600Y-47500D02*
X47090Y-47500D01*
X58477Y-46590D02*
X58411Y-46656D01*
X58500Y-46590D02*
X58477Y-46590D01*
X58500Y-46100D02*
X58500Y-46590D01*
X37420Y-44660D02*
X37000Y-44660D01*
X38020Y-44060D02*
X37420Y-44660D01*
X37000Y-45150D02*
X37000Y-44660D01*
X50420Y-44660D02*
X50000Y-44660D01*
X51020Y-44060D02*
X50420Y-44660D01*
X50000Y-45150D02*
X50000Y-44660D01*
X66780Y-43500D02*
X65220Y-43500D01*
X50000Y-46350D02*
X55000Y-46350D01*
X50000Y-46350D02*
X49260Y-46350D01*
X49208Y-46402D02*
X49260Y-46350D01*
G54D34*
X48250Y-45150D02*
X47450Y-45150D01*
X47300Y-45000D02*
X46539Y-45000D01*
X47450Y-45150D02*
X47300Y-45000D01*
X55000Y-34000D02*
X56600Y-34000D01*
X57150Y-34000D02*
X56600Y-34000D01*
X42000Y-46350D02*
X42800Y-46350D01*
X43750Y-48650D02*
X43750Y-48100D01*
X43559Y-48100D02*
X43750Y-48100D01*
X43514Y-48055D02*
X43559Y-48100D01*
X42908Y-46242D02*
X42800Y-46350D01*
X42908Y-45641D02*
X42908Y-46242D01*
X43514Y-47774D02*
X43514Y-48055D01*
X42800Y-47060D02*
X43514Y-47774D01*
X42800Y-46350D02*
X42800Y-47060D01*
X69170Y-40685D02*
X68590Y-40685D01*
X57150Y-34000D02*
X57700Y-34000D01*
X58350Y-39000D02*
X58900Y-39000D01*
X63588Y-33216D02*
X58900Y-33216D01*
X68590Y-38218D02*
X63588Y-33216D01*
X68590Y-40685D02*
X68590Y-38218D01*
X57700Y-33450D02*
X57700Y-34000D01*
X57934Y-33216D02*
X57700Y-33450D01*
X58900Y-33216D02*
X57934Y-33216D01*
X58900Y-33216D02*
X58900Y-39000D01*
X60550Y-45640D02*
X61913Y-47003D01*
X60550Y-40000D02*
X60550Y-45640D01*
X60550Y-40000D02*
X61300Y-40000D01*
X59900Y-40000D02*
X60550Y-40000D01*
X58900Y-39000D02*
X59900Y-40000D01*
G54D10*
G36*
X71705Y-52705D02*
X71137Y-52705D01*
X71326Y-52627D01*
X71412Y-52483D01*
X70750Y-51821D01*
X70679Y-51892D01*
X70679Y-51750D01*
X70017Y-51088D01*
X69873Y-51174D01*
X69720Y-51554D01*
X69723Y-51964D01*
X69873Y-52326D01*
X70017Y-52412D01*
X70679Y-51750D01*
X70679Y-51892D01*
X70088Y-52483D01*
X70174Y-52627D01*
X70367Y-52705D01*
X69700Y-52705D01*
X69700Y-43626D01*
X69700Y-43415D01*
X69694Y-43400D01*
X69619Y-43220D01*
X69573Y-43173D01*
X69622Y-43125D01*
X69590Y-43093D01*
X69626Y-43084D01*
X69694Y-42889D01*
X69683Y-42683D01*
X69626Y-42546D01*
X69534Y-42522D01*
X69463Y-42593D01*
X69463Y-42451D01*
X69439Y-42359D01*
X69244Y-42291D01*
X69038Y-42302D01*
X68901Y-42359D01*
X68877Y-42451D01*
X69170Y-42744D01*
X69463Y-42451D01*
X69463Y-42593D01*
X69276Y-42780D01*
X69241Y-42815D01*
X69170Y-42886D01*
X69099Y-42815D01*
X69064Y-42780D01*
X68806Y-42522D01*
X68714Y-42546D01*
X68646Y-42741D01*
X68657Y-42947D01*
X68714Y-43084D01*
X68749Y-43093D01*
X68718Y-43125D01*
X68743Y-43150D01*
X68263Y-43150D01*
X68164Y-43050D01*
X68164Y-42941D01*
X68126Y-42849D01*
X68056Y-42779D01*
X67965Y-42741D01*
X67866Y-42741D01*
X67476Y-42741D01*
X67384Y-42779D01*
X67314Y-42849D01*
X67276Y-42940D01*
X67276Y-43039D01*
X67276Y-43050D01*
X67146Y-43179D01*
X67116Y-43149D01*
X67025Y-43111D01*
X66926Y-43111D01*
X66750Y-43111D01*
X66750Y-41212D01*
X66750Y-40988D01*
X66749Y-40801D01*
X66711Y-40709D01*
X66641Y-40639D01*
X66550Y-40601D01*
X66451Y-40601D01*
X66112Y-40600D01*
X66050Y-40662D01*
X66050Y-41050D01*
X66688Y-41050D01*
X66750Y-40988D01*
X66750Y-41212D01*
X66688Y-41150D01*
X66050Y-41150D01*
X66050Y-41538D01*
X66112Y-41600D01*
X66451Y-41599D01*
X66550Y-41599D01*
X66641Y-41561D01*
X66711Y-41491D01*
X66749Y-41399D01*
X66750Y-41212D01*
X66750Y-43111D01*
X66536Y-43111D01*
X66490Y-43130D01*
X65950Y-43130D01*
X65950Y-41538D01*
X65950Y-41150D01*
X65950Y-41050D01*
X65950Y-40662D01*
X65888Y-40600D01*
X65549Y-40601D01*
X65450Y-40601D01*
X65359Y-40639D01*
X65289Y-40709D01*
X65251Y-40801D01*
X65250Y-40988D01*
X65312Y-41050D01*
X65950Y-41050D01*
X65950Y-41150D01*
X65312Y-41150D01*
X65250Y-41212D01*
X65251Y-41399D01*
X65289Y-41491D01*
X65359Y-41561D01*
X65450Y-41599D01*
X65549Y-41599D01*
X65888Y-41600D01*
X65950Y-41538D01*
X65950Y-43130D01*
X65510Y-43130D01*
X65465Y-43111D01*
X65366Y-43111D01*
X64976Y-43111D01*
X64884Y-43149D01*
X64814Y-43219D01*
X64776Y-43310D01*
X64776Y-43409D01*
X64776Y-43689D01*
X64814Y-43781D01*
X64884Y-43851D01*
X64975Y-43889D01*
X65074Y-43889D01*
X65464Y-43889D01*
X65510Y-43870D01*
X66489Y-43870D01*
X66535Y-43889D01*
X66634Y-43889D01*
X66829Y-43889D01*
X66829Y-44824D01*
X65998Y-45654D01*
X65994Y-45643D01*
X65874Y-45523D01*
X65742Y-45468D01*
X64530Y-44256D01*
X64616Y-44221D01*
X64686Y-44151D01*
X64724Y-44059D01*
X64725Y-43982D01*
X64663Y-43920D01*
X64380Y-43920D01*
X64330Y-43920D01*
X64230Y-43920D01*
X64230Y-43820D01*
X64330Y-43820D01*
X64380Y-43820D01*
X64663Y-43820D01*
X64725Y-43758D01*
X64724Y-43681D01*
X64686Y-43589D01*
X64616Y-43519D01*
X64570Y-43499D01*
X64616Y-43481D01*
X64686Y-43411D01*
X64724Y-43320D01*
X64724Y-43221D01*
X64724Y-42941D01*
X64686Y-42849D01*
X64616Y-42779D01*
X64525Y-42741D01*
X64426Y-42741D01*
X64036Y-42741D01*
X63944Y-42779D01*
X63874Y-42849D01*
X63836Y-42940D01*
X63836Y-43039D01*
X63836Y-43319D01*
X63874Y-43411D01*
X63944Y-43481D01*
X63989Y-43500D01*
X63944Y-43519D01*
X63874Y-43589D01*
X63870Y-43596D01*
X63767Y-43493D01*
X63767Y-41874D01*
X64049Y-41874D01*
X64141Y-41836D01*
X64211Y-41766D01*
X64249Y-41675D01*
X64249Y-41576D01*
X64249Y-41326D01*
X64217Y-41250D01*
X64249Y-41175D01*
X64249Y-41076D01*
X64249Y-40826D01*
X64217Y-40750D01*
X64249Y-40675D01*
X64249Y-40576D01*
X64249Y-40430D01*
X65100Y-40430D01*
X65264Y-40397D01*
X65265Y-40397D01*
X65342Y-40344D01*
X65359Y-40361D01*
X65450Y-40399D01*
X65549Y-40399D01*
X66549Y-40399D01*
X66641Y-40361D01*
X66672Y-40330D01*
X66800Y-40330D01*
X66965Y-40297D01*
X67104Y-40204D01*
X67197Y-40065D01*
X67216Y-39968D01*
X67295Y-39890D01*
X67368Y-39714D01*
X67368Y-39523D01*
X67295Y-39347D01*
X67160Y-39211D01*
X66984Y-39138D01*
X66793Y-39138D01*
X66617Y-39211D01*
X66481Y-39346D01*
X66458Y-39401D01*
X66451Y-39401D01*
X65451Y-39401D01*
X65359Y-39439D01*
X65328Y-39470D01*
X65200Y-39470D01*
X65035Y-39503D01*
X64934Y-39570D01*
X64249Y-39570D01*
X64249Y-39326D01*
X64217Y-39250D01*
X64249Y-39175D01*
X64249Y-39076D01*
X64249Y-38826D01*
X64217Y-38750D01*
X64249Y-38675D01*
X64249Y-38576D01*
X64249Y-38326D01*
X64211Y-38234D01*
X64141Y-38164D01*
X64050Y-38126D01*
X63951Y-38126D01*
X63834Y-38126D01*
X63834Y-37104D01*
X63833Y-37103D01*
X63834Y-37103D01*
X63806Y-36962D01*
X63726Y-36842D01*
X63723Y-36840D01*
X63600Y-36717D01*
X63600Y-34112D01*
X63538Y-34050D01*
X63150Y-34050D01*
X63150Y-34688D01*
X63212Y-34750D01*
X63399Y-34749D01*
X63491Y-34711D01*
X63561Y-34641D01*
X63599Y-34550D01*
X63599Y-34451D01*
X63600Y-34112D01*
X63600Y-36717D01*
X63542Y-36659D01*
X63561Y-36641D01*
X63599Y-36550D01*
X63599Y-36451D01*
X63599Y-35451D01*
X63561Y-35359D01*
X63491Y-35289D01*
X63400Y-35251D01*
X63301Y-35251D01*
X63050Y-35251D01*
X63050Y-34688D01*
X63050Y-34050D01*
X62662Y-34050D01*
X62600Y-34112D01*
X62601Y-34451D01*
X62601Y-34550D01*
X62639Y-34641D01*
X62709Y-34711D01*
X62801Y-34749D01*
X62988Y-34750D01*
X63050Y-34688D01*
X63050Y-35251D01*
X62801Y-35251D01*
X62709Y-35289D01*
X62639Y-35359D01*
X62601Y-35450D01*
X62601Y-35549D01*
X62601Y-36549D01*
X62639Y-36641D01*
X62709Y-36711D01*
X62730Y-36719D01*
X62730Y-36735D01*
X62729Y-36740D01*
X62753Y-36857D01*
X62758Y-36882D01*
X62838Y-37002D01*
X63094Y-37257D01*
X63094Y-38143D01*
X63018Y-38158D01*
X62898Y-38238D01*
X62818Y-38358D01*
X62790Y-38500D01*
X62790Y-39000D01*
X62818Y-39142D01*
X62890Y-39250D01*
X62818Y-39358D01*
X62790Y-39500D01*
X62790Y-40346D01*
X62524Y-40612D01*
X62444Y-40732D01*
X62439Y-40756D01*
X62415Y-40874D01*
X62416Y-40878D01*
X62416Y-43634D01*
X62415Y-43639D01*
X62439Y-43756D01*
X62444Y-43781D01*
X62524Y-43901D01*
X65398Y-46774D01*
X65400Y-46777D01*
X66880Y-48256D01*
X66880Y-50000D01*
X66749Y-50130D01*
X66599Y-49979D01*
X66373Y-49885D01*
X66158Y-49885D01*
X62210Y-45936D01*
X62210Y-41500D01*
X62182Y-41358D01*
X62102Y-41238D01*
X61982Y-41158D01*
X61849Y-41131D01*
X61849Y-41076D01*
X61849Y-40868D01*
X61982Y-40842D01*
X62102Y-40762D01*
X62182Y-40642D01*
X62210Y-40500D01*
X62210Y-39575D01*
X62210Y-39574D01*
X62242Y-39527D01*
X62270Y-39385D01*
X62270Y-36740D01*
X62270Y-36719D01*
X62291Y-36711D01*
X62361Y-36641D01*
X62399Y-36550D01*
X62399Y-36451D01*
X62399Y-35451D01*
X62361Y-35359D01*
X62291Y-35289D01*
X62270Y-35280D01*
X62270Y-34719D01*
X62291Y-34711D01*
X62361Y-34641D01*
X62399Y-34550D01*
X62399Y-34451D01*
X62399Y-33646D01*
X62600Y-33646D01*
X62600Y-33888D01*
X62662Y-33950D01*
X63000Y-33950D01*
X63050Y-33950D01*
X63150Y-33950D01*
X63200Y-33950D01*
X63538Y-33950D01*
X63600Y-33888D01*
X63599Y-33835D01*
X68160Y-38396D01*
X68160Y-40685D01*
X68193Y-40850D01*
X68286Y-40989D01*
X68425Y-41082D01*
X68590Y-41115D01*
X68688Y-41115D01*
X68749Y-41176D01*
X68840Y-41214D01*
X68939Y-41214D01*
X69499Y-41214D01*
X69591Y-41176D01*
X69661Y-41106D01*
X69699Y-41015D01*
X69699Y-40916D01*
X69699Y-40356D01*
X69661Y-40264D01*
X69636Y-40239D01*
X69700Y-40086D01*
X69700Y-39875D01*
X69619Y-39680D01*
X69471Y-39531D01*
X69276Y-39450D01*
X69065Y-39450D01*
X69020Y-39468D01*
X69020Y-38218D01*
X69019Y-38217D01*
X68987Y-38053D01*
X68894Y-37914D01*
X68893Y-37913D01*
X63892Y-32912D01*
X63753Y-32819D01*
X63588Y-32786D01*
X58900Y-32786D01*
X57934Y-32786D01*
X57769Y-32819D01*
X57630Y-32912D01*
X57629Y-32912D01*
X57629Y-32913D01*
X57396Y-33146D01*
X57325Y-33251D01*
X56851Y-33251D01*
X56759Y-33289D01*
X56689Y-33359D01*
X56651Y-33450D01*
X56651Y-33549D01*
X56651Y-33570D01*
X56600Y-33570D01*
X55823Y-33570D01*
X55785Y-33477D01*
X55525Y-33217D01*
X55185Y-33075D01*
X54817Y-33075D01*
X54477Y-33215D01*
X54217Y-33475D01*
X54075Y-33815D01*
X54075Y-34183D01*
X54215Y-34523D01*
X54475Y-34783D01*
X54815Y-34925D01*
X55183Y-34925D01*
X55523Y-34785D01*
X55783Y-34525D01*
X55822Y-34430D01*
X56600Y-34430D01*
X56651Y-34430D01*
X56651Y-34549D01*
X56689Y-34641D01*
X56759Y-34711D01*
X56850Y-34749D01*
X56949Y-34749D01*
X57449Y-34749D01*
X57541Y-34711D01*
X57611Y-34641D01*
X57649Y-34550D01*
X57649Y-34451D01*
X57649Y-34430D01*
X57700Y-34430D01*
X57850Y-34399D01*
X57851Y-34451D01*
X57851Y-34550D01*
X57889Y-34641D01*
X57959Y-34711D01*
X58051Y-34749D01*
X58238Y-34750D01*
X58300Y-34688D01*
X58300Y-34100D01*
X58300Y-34050D01*
X58300Y-33950D01*
X58400Y-33950D01*
X58400Y-34050D01*
X58400Y-34100D01*
X58400Y-34688D01*
X58462Y-34750D01*
X58470Y-34749D01*
X58470Y-35250D01*
X58462Y-35250D01*
X58400Y-35312D01*
X58400Y-35900D01*
X58400Y-35950D01*
X58400Y-36050D01*
X58400Y-36100D01*
X58400Y-36688D01*
X58462Y-36750D01*
X58470Y-36749D01*
X58470Y-38251D01*
X58300Y-38251D01*
X58300Y-36688D01*
X58300Y-36050D01*
X58300Y-35950D01*
X58300Y-35312D01*
X58238Y-35250D01*
X58051Y-35251D01*
X57959Y-35289D01*
X57889Y-35359D01*
X57851Y-35450D01*
X57851Y-35549D01*
X57850Y-35888D01*
X57912Y-35950D01*
X58300Y-35950D01*
X58300Y-36050D01*
X57912Y-36050D01*
X57850Y-36112D01*
X57851Y-36451D01*
X57851Y-36550D01*
X57889Y-36641D01*
X57959Y-36711D01*
X58051Y-36749D01*
X58238Y-36750D01*
X58300Y-36688D01*
X58300Y-38251D01*
X58051Y-38251D01*
X57959Y-38289D01*
X57889Y-38359D01*
X57851Y-38450D01*
X57851Y-38549D01*
X57851Y-39549D01*
X57889Y-39641D01*
X57959Y-39711D01*
X58050Y-39749D01*
X58149Y-39749D01*
X58649Y-39749D01*
X58741Y-39711D01*
X58811Y-39641D01*
X58846Y-39554D01*
X59596Y-40304D01*
X59735Y-40397D01*
X59736Y-40397D01*
X59900Y-40430D01*
X60120Y-40430D01*
X60120Y-45640D01*
X60153Y-45805D01*
X60246Y-45944D01*
X61413Y-47111D01*
X59250Y-47111D01*
X59250Y-45012D01*
X59250Y-44788D01*
X59249Y-44601D01*
X59211Y-44509D01*
X59141Y-44439D01*
X59050Y-44401D01*
X58951Y-44401D01*
X58850Y-44400D01*
X58850Y-42112D01*
X58850Y-41888D01*
X58849Y-41549D01*
X58849Y-41450D01*
X58811Y-41359D01*
X58741Y-41289D01*
X58649Y-41251D01*
X58462Y-41250D01*
X58400Y-41312D01*
X58400Y-41950D01*
X58788Y-41950D01*
X58850Y-41888D01*
X58850Y-42112D01*
X58788Y-42050D01*
X58400Y-42050D01*
X58400Y-42688D01*
X58462Y-42750D01*
X58649Y-42749D01*
X58741Y-42711D01*
X58811Y-42641D01*
X58849Y-42550D01*
X58849Y-42451D01*
X58850Y-42112D01*
X58850Y-44400D01*
X58612Y-44400D01*
X58550Y-44462D01*
X58550Y-44850D01*
X59188Y-44850D01*
X59250Y-44788D01*
X59250Y-45012D01*
X59188Y-44950D01*
X58550Y-44950D01*
X58550Y-45338D01*
X58612Y-45400D01*
X58951Y-45399D01*
X59050Y-45399D01*
X59141Y-45361D01*
X59211Y-45291D01*
X59249Y-45199D01*
X59250Y-45012D01*
X59250Y-47111D01*
X58482Y-47111D01*
X58410Y-47081D01*
X58495Y-47081D01*
X58651Y-47017D01*
X58771Y-46897D01*
X58836Y-46741D01*
X58842Y-46732D01*
X58868Y-46599D01*
X59049Y-46599D01*
X59141Y-46561D01*
X59211Y-46491D01*
X59249Y-46400D01*
X59249Y-46301D01*
X59249Y-45801D01*
X59211Y-45709D01*
X59141Y-45639D01*
X59050Y-45601D01*
X58951Y-45601D01*
X58450Y-45601D01*
X58450Y-45338D01*
X58450Y-44950D01*
X58450Y-44850D01*
X58450Y-44462D01*
X58388Y-44400D01*
X58300Y-44400D01*
X58300Y-42688D01*
X58300Y-42050D01*
X58300Y-41950D01*
X58300Y-41312D01*
X58238Y-41250D01*
X58051Y-41251D01*
X57959Y-41289D01*
X57889Y-41359D01*
X57851Y-41450D01*
X57851Y-41549D01*
X57850Y-41888D01*
X57912Y-41950D01*
X58300Y-41950D01*
X58300Y-42050D01*
X57912Y-42050D01*
X57850Y-42112D01*
X57851Y-42451D01*
X57851Y-42550D01*
X57889Y-42641D01*
X57959Y-42711D01*
X58051Y-42749D01*
X58238Y-42750D01*
X58300Y-42688D01*
X58300Y-44400D01*
X58049Y-44401D01*
X57950Y-44401D01*
X57859Y-44439D01*
X57789Y-44509D01*
X57751Y-44601D01*
X57750Y-44788D01*
X57812Y-44850D01*
X58450Y-44850D01*
X58450Y-44950D01*
X57812Y-44950D01*
X57750Y-45012D01*
X57751Y-45199D01*
X57789Y-45291D01*
X57859Y-45361D01*
X57950Y-45399D01*
X58049Y-45399D01*
X58388Y-45400D01*
X58450Y-45338D01*
X58450Y-45601D01*
X57951Y-45601D01*
X57859Y-45639D01*
X57789Y-45709D01*
X57751Y-45800D01*
X57751Y-45899D01*
X57751Y-46399D01*
X57789Y-46491D01*
X57859Y-46561D01*
X57950Y-46599D01*
X57986Y-46599D01*
X57986Y-46740D01*
X58050Y-46896D01*
X58170Y-47016D01*
X58266Y-47056D01*
X58181Y-47056D01*
X58025Y-47120D01*
X57905Y-47240D01*
X57869Y-47324D01*
X57650Y-47104D01*
X57650Y-39112D01*
X57650Y-38888D01*
X57649Y-38549D01*
X57649Y-38450D01*
X57649Y-36550D01*
X57649Y-36451D01*
X57649Y-35451D01*
X57611Y-35359D01*
X57541Y-35289D01*
X57450Y-35251D01*
X57351Y-35251D01*
X56851Y-35251D01*
X56759Y-35289D01*
X56689Y-35359D01*
X56651Y-35450D01*
X56651Y-35549D01*
X56651Y-35570D01*
X56600Y-35570D01*
X55823Y-35570D01*
X55785Y-35477D01*
X55525Y-35217D01*
X55185Y-35075D01*
X54817Y-35075D01*
X54477Y-35215D01*
X54217Y-35475D01*
X54075Y-35815D01*
X54075Y-36183D01*
X54114Y-36277D01*
X52883Y-37509D01*
X52790Y-37648D01*
X52757Y-37813D01*
X52757Y-41317D01*
X52707Y-41438D01*
X52707Y-41629D01*
X52780Y-41805D01*
X52915Y-41941D01*
X53091Y-42014D01*
X53282Y-42014D01*
X53458Y-41941D01*
X53594Y-41806D01*
X53667Y-41630D01*
X53667Y-41439D01*
X53617Y-41318D01*
X53617Y-37991D01*
X54721Y-36886D01*
X54815Y-36925D01*
X55183Y-36925D01*
X55523Y-36785D01*
X55783Y-36525D01*
X55822Y-36430D01*
X56600Y-36430D01*
X56651Y-36430D01*
X56651Y-36549D01*
X56689Y-36641D01*
X56759Y-36711D01*
X56850Y-36749D01*
X56949Y-36749D01*
X57449Y-36749D01*
X57541Y-36711D01*
X57611Y-36641D01*
X57649Y-36550D01*
X57649Y-38450D01*
X57611Y-38359D01*
X57541Y-38289D01*
X57449Y-38251D01*
X57262Y-38250D01*
X57200Y-38312D01*
X57200Y-38950D01*
X57588Y-38950D01*
X57650Y-38888D01*
X57650Y-39112D01*
X57588Y-39050D01*
X57200Y-39050D01*
X57200Y-39688D01*
X57262Y-39750D01*
X57449Y-39749D01*
X57541Y-39711D01*
X57611Y-39641D01*
X57649Y-39550D01*
X57649Y-39451D01*
X57650Y-39112D01*
X57650Y-47104D01*
X56160Y-45614D01*
X56040Y-45534D01*
X56015Y-45529D01*
X55898Y-45505D01*
X55893Y-45506D01*
X55725Y-45506D01*
X55749Y-45450D01*
X55749Y-45351D01*
X55749Y-44851D01*
X55711Y-44759D01*
X55641Y-44689D01*
X55550Y-44651D01*
X55451Y-44651D01*
X55370Y-44651D01*
X55370Y-44292D01*
X56719Y-42942D01*
X56852Y-42888D01*
X56972Y-42768D01*
X56979Y-42749D01*
X57449Y-42749D01*
X57541Y-42711D01*
X57611Y-42641D01*
X57649Y-42550D01*
X57649Y-42451D01*
X57649Y-41451D01*
X57611Y-41359D01*
X57541Y-41289D01*
X57450Y-41251D01*
X57351Y-41251D01*
X57100Y-41251D01*
X57100Y-39688D01*
X57100Y-39050D01*
X57100Y-38950D01*
X57100Y-38312D01*
X57038Y-38250D01*
X56851Y-38251D01*
X56759Y-38289D01*
X56689Y-38359D01*
X56651Y-38450D01*
X56651Y-38549D01*
X56650Y-38888D01*
X56712Y-38950D01*
X57100Y-38950D01*
X57100Y-39050D01*
X56712Y-39050D01*
X56650Y-39112D01*
X56651Y-39451D01*
X56651Y-39550D01*
X56689Y-39641D01*
X56759Y-39711D01*
X56851Y-39749D01*
X57038Y-39750D01*
X57100Y-39688D01*
X57100Y-41251D01*
X56851Y-41251D01*
X56759Y-41289D01*
X56689Y-41359D01*
X56651Y-41450D01*
X56651Y-41549D01*
X56651Y-41570D01*
X56600Y-41570D01*
X55909Y-41570D01*
X55909Y-39167D01*
X55904Y-38806D01*
X55776Y-38498D01*
X55644Y-38427D01*
X55573Y-38498D01*
X55573Y-38356D01*
X55502Y-38224D01*
X55167Y-38091D01*
X54806Y-38096D01*
X54498Y-38224D01*
X54427Y-38356D01*
X55000Y-38929D01*
X55573Y-38356D01*
X55573Y-38498D01*
X55071Y-39000D01*
X55644Y-39573D01*
X55776Y-39502D01*
X55909Y-39167D01*
X55909Y-41570D01*
X55823Y-41570D01*
X55785Y-41477D01*
X55573Y-41265D01*
X55573Y-39644D01*
X55000Y-39071D01*
X54929Y-39142D01*
X54929Y-39000D01*
X54356Y-38427D01*
X54224Y-38498D01*
X54091Y-38833D01*
X54096Y-39194D01*
X54224Y-39502D01*
X54356Y-39573D01*
X54929Y-39000D01*
X54929Y-39142D01*
X54427Y-39644D01*
X54498Y-39776D01*
X54833Y-39909D01*
X55194Y-39904D01*
X55502Y-39776D01*
X55573Y-39644D01*
X55573Y-41265D01*
X55525Y-41217D01*
X55185Y-41075D01*
X54817Y-41075D01*
X54477Y-41215D01*
X54217Y-41475D01*
X54075Y-41815D01*
X54075Y-42183D01*
X54114Y-42277D01*
X53721Y-42671D01*
X53010Y-42671D01*
X53043Y-42579D01*
X53032Y-42366D01*
X52972Y-42219D01*
X52878Y-42192D01*
X52808Y-42262D01*
X52808Y-42122D01*
X52781Y-42028D01*
X52579Y-41957D01*
X52366Y-41968D01*
X52219Y-42028D01*
X52192Y-42122D01*
X52500Y-42429D01*
X52808Y-42122D01*
X52808Y-42262D01*
X52571Y-42500D01*
X52500Y-42571D01*
X52429Y-42500D01*
X52394Y-42465D01*
X52122Y-42192D01*
X52028Y-42219D01*
X52004Y-42284D01*
X51965Y-42189D01*
X51811Y-42035D01*
X51609Y-41951D01*
X51391Y-41951D01*
X51189Y-42035D01*
X51035Y-42189D01*
X50951Y-42391D01*
X50951Y-42609D01*
X50976Y-42671D01*
X50403Y-42671D01*
X50049Y-42317D01*
X50049Y-33609D01*
X50049Y-33391D01*
X49965Y-33189D01*
X49811Y-33035D01*
X49609Y-32951D01*
X49391Y-32951D01*
X49189Y-33035D01*
X49035Y-33189D01*
X49000Y-33273D01*
X48965Y-33189D01*
X48811Y-33035D01*
X48609Y-32951D01*
X48391Y-32951D01*
X48189Y-33035D01*
X48035Y-33189D01*
X48000Y-33273D01*
X47965Y-33189D01*
X47811Y-33035D01*
X47609Y-32951D01*
X47391Y-32951D01*
X47189Y-33035D01*
X47035Y-33189D01*
X47000Y-33273D01*
X46965Y-33189D01*
X46811Y-33035D01*
X46609Y-32951D01*
X46391Y-32951D01*
X46189Y-33035D01*
X46035Y-33189D01*
X46000Y-33273D01*
X45965Y-33189D01*
X45811Y-33035D01*
X45609Y-32951D01*
X45391Y-32951D01*
X45189Y-33035D01*
X45035Y-33189D01*
X45000Y-33273D01*
X44965Y-33189D01*
X44811Y-33035D01*
X44609Y-32951D01*
X44391Y-32951D01*
X44189Y-33035D01*
X44035Y-33189D01*
X44000Y-33273D01*
X43965Y-33189D01*
X43811Y-33035D01*
X43609Y-32951D01*
X43391Y-32951D01*
X43189Y-33035D01*
X43035Y-33189D01*
X43000Y-33273D01*
X42965Y-33189D01*
X42811Y-33035D01*
X42609Y-32951D01*
X42391Y-32951D01*
X42189Y-33035D01*
X42035Y-33189D01*
X42000Y-33273D01*
X41965Y-33189D01*
X41811Y-33035D01*
X41609Y-32951D01*
X41391Y-32951D01*
X41189Y-33035D01*
X41035Y-33189D01*
X40997Y-33280D01*
X40972Y-33219D01*
X40878Y-33192D01*
X40808Y-33262D01*
X40808Y-33122D01*
X40781Y-33028D01*
X40579Y-32957D01*
X40366Y-32968D01*
X40219Y-33028D01*
X40192Y-33122D01*
X40500Y-33429D01*
X40808Y-33122D01*
X40808Y-33262D01*
X40571Y-33500D01*
X40878Y-33808D01*
X40972Y-33781D01*
X40995Y-33715D01*
X41035Y-33811D01*
X41189Y-33965D01*
X41391Y-34049D01*
X41609Y-34049D01*
X41811Y-33965D01*
X41965Y-33811D01*
X42000Y-33726D01*
X42035Y-33811D01*
X42189Y-33965D01*
X42391Y-34049D01*
X42609Y-34049D01*
X42811Y-33965D01*
X42965Y-33811D01*
X43000Y-33726D01*
X43035Y-33811D01*
X43189Y-33965D01*
X43391Y-34049D01*
X43609Y-34049D01*
X43811Y-33965D01*
X43965Y-33811D01*
X44000Y-33726D01*
X44035Y-33811D01*
X44189Y-33965D01*
X44391Y-34049D01*
X44609Y-34049D01*
X44811Y-33965D01*
X44965Y-33811D01*
X45000Y-33726D01*
X45035Y-33811D01*
X45189Y-33965D01*
X45391Y-34049D01*
X45609Y-34049D01*
X45811Y-33965D01*
X45965Y-33811D01*
X46000Y-33726D01*
X46035Y-33811D01*
X46189Y-33965D01*
X46391Y-34049D01*
X46609Y-34049D01*
X46811Y-33965D01*
X46965Y-33811D01*
X47000Y-33726D01*
X47035Y-33811D01*
X47189Y-33965D01*
X47391Y-34049D01*
X47609Y-34049D01*
X47811Y-33965D01*
X47965Y-33811D01*
X48000Y-33726D01*
X48035Y-33811D01*
X48189Y-33965D01*
X48391Y-34049D01*
X48609Y-34049D01*
X48811Y-33965D01*
X48965Y-33811D01*
X49000Y-33726D01*
X49035Y-33811D01*
X49189Y-33965D01*
X49391Y-34049D01*
X49609Y-34049D01*
X49811Y-33965D01*
X49965Y-33811D01*
X50049Y-33609D01*
X50049Y-42317D01*
X49331Y-41599D01*
X49192Y-41506D01*
X49027Y-41473D01*
X46135Y-41473D01*
X46135Y-40705D01*
X46102Y-40541D01*
X46102Y-40540D01*
X46009Y-40401D01*
X40808Y-35200D01*
X40808Y-33878D01*
X40500Y-33571D01*
X40192Y-33878D01*
X40219Y-33972D01*
X40421Y-34043D01*
X40634Y-34032D01*
X40781Y-33972D01*
X40808Y-33878D01*
X40808Y-35200D01*
X39642Y-34034D01*
X39811Y-33965D01*
X39965Y-33811D01*
X40002Y-33719D01*
X40028Y-33781D01*
X40122Y-33808D01*
X40429Y-33500D01*
X40122Y-33192D01*
X40028Y-33219D01*
X40004Y-33284D01*
X39965Y-33189D01*
X39811Y-33035D01*
X39609Y-32951D01*
X39391Y-32951D01*
X39189Y-33035D01*
X39035Y-33189D01*
X39000Y-33273D01*
X38965Y-33189D01*
X38811Y-33035D01*
X38609Y-32951D01*
X38391Y-32951D01*
X38189Y-33035D01*
X38035Y-33189D01*
X37951Y-33391D01*
X37951Y-33609D01*
X38035Y-33811D01*
X38189Y-33965D01*
X38391Y-34049D01*
X38441Y-34049D01*
X45275Y-40883D01*
X45275Y-41903D01*
X45275Y-46751D01*
X45101Y-46751D01*
X45043Y-46774D01*
X45043Y-42579D01*
X45032Y-42366D01*
X44972Y-42219D01*
X44878Y-42192D01*
X44808Y-42262D01*
X44808Y-42122D01*
X44781Y-42028D01*
X44579Y-41957D01*
X44366Y-41968D01*
X44219Y-42028D01*
X44192Y-42122D01*
X44500Y-42429D01*
X44808Y-42122D01*
X44808Y-42262D01*
X44571Y-42500D01*
X44878Y-42808D01*
X44972Y-42781D01*
X45043Y-42579D01*
X45043Y-46774D01*
X45011Y-46787D01*
X45009Y-46781D01*
X45009Y-43639D01*
X45008Y-43638D01*
X45009Y-43638D01*
X44981Y-43497D01*
X44901Y-43377D01*
X44898Y-43375D01*
X44559Y-43035D01*
X44634Y-43032D01*
X44781Y-42972D01*
X44808Y-42878D01*
X44535Y-42606D01*
X44500Y-42571D01*
X44429Y-42500D01*
X44394Y-42465D01*
X44122Y-42192D01*
X44028Y-42219D01*
X44004Y-42284D01*
X43965Y-42189D01*
X43811Y-42035D01*
X43609Y-41951D01*
X43391Y-41951D01*
X43189Y-42035D01*
X43035Y-42189D01*
X42951Y-42391D01*
X42951Y-42609D01*
X43035Y-42811D01*
X43189Y-42965D01*
X43391Y-43049D01*
X43525Y-43049D01*
X44269Y-43792D01*
X44269Y-44651D01*
X44201Y-44651D01*
X43862Y-44650D01*
X43800Y-44712D01*
X43800Y-45050D01*
X43800Y-45100D01*
X43800Y-45200D01*
X43800Y-45250D01*
X43800Y-45588D01*
X43862Y-45650D01*
X44201Y-45649D01*
X44269Y-45649D01*
X44269Y-45851D01*
X44201Y-45851D01*
X43340Y-45851D01*
X43388Y-45737D01*
X43388Y-45649D01*
X43638Y-45650D01*
X43700Y-45588D01*
X43700Y-45200D01*
X43700Y-45100D01*
X43700Y-44712D01*
X43638Y-44650D01*
X43299Y-44651D01*
X43200Y-44651D01*
X43109Y-44689D01*
X43039Y-44759D01*
X43001Y-44851D01*
X43000Y-45038D01*
X43062Y-45100D01*
X43700Y-45100D01*
X43700Y-45200D01*
X43098Y-45200D01*
X43004Y-45161D01*
X42813Y-45161D01*
X42749Y-45187D01*
X42749Y-44851D01*
X42711Y-44759D01*
X42641Y-44689D01*
X42550Y-44651D01*
X42451Y-44651D01*
X42368Y-44651D01*
X42342Y-44518D01*
X42262Y-44398D01*
X42142Y-44318D01*
X42000Y-44290D01*
X41733Y-44290D01*
X41629Y-44185D01*
X41629Y-43931D01*
X41530Y-43692D01*
X41348Y-43510D01*
X41109Y-43411D01*
X41043Y-43411D01*
X41043Y-42579D01*
X41032Y-42366D01*
X40972Y-42219D01*
X40878Y-42192D01*
X40808Y-42262D01*
X40808Y-42122D01*
X40781Y-42028D01*
X40579Y-41957D01*
X40366Y-41968D01*
X40219Y-42028D01*
X40192Y-42122D01*
X40500Y-42429D01*
X40808Y-42122D01*
X40808Y-42262D01*
X40571Y-42500D01*
X40878Y-42808D01*
X40972Y-42781D01*
X41043Y-42579D01*
X41043Y-43411D01*
X40851Y-43411D01*
X40808Y-43428D01*
X40808Y-42878D01*
X40500Y-42571D01*
X40429Y-42641D01*
X40429Y-42500D01*
X40122Y-42192D01*
X40028Y-42219D01*
X40004Y-42284D01*
X39965Y-42189D01*
X39811Y-42035D01*
X39609Y-41951D01*
X39391Y-41951D01*
X39189Y-42035D01*
X39035Y-42189D01*
X38951Y-42391D01*
X38951Y-42609D01*
X39035Y-42811D01*
X39189Y-42965D01*
X39391Y-43049D01*
X39609Y-43049D01*
X39811Y-42965D01*
X39965Y-42811D01*
X40002Y-42719D01*
X40028Y-42781D01*
X40122Y-42808D01*
X40429Y-42500D01*
X40429Y-42641D01*
X40192Y-42878D01*
X40219Y-42972D01*
X40421Y-43043D01*
X40634Y-43032D01*
X40781Y-42972D01*
X40808Y-42878D01*
X40808Y-43428D01*
X40612Y-43510D01*
X40430Y-43692D01*
X40331Y-43931D01*
X40331Y-44189D01*
X40430Y-44428D01*
X40612Y-44610D01*
X40851Y-44709D01*
X41105Y-44709D01*
X41251Y-44854D01*
X41251Y-44949D01*
X41251Y-45449D01*
X41289Y-45541D01*
X41359Y-45611D01*
X41450Y-45649D01*
X41549Y-45649D01*
X42428Y-45649D01*
X42428Y-45736D01*
X42475Y-45851D01*
X42451Y-45851D01*
X41451Y-45851D01*
X41359Y-45889D01*
X41289Y-45959D01*
X41251Y-46050D01*
X41251Y-46149D01*
X41251Y-46649D01*
X41289Y-46741D01*
X41334Y-46786D01*
X40963Y-46940D01*
X40611Y-47291D01*
X40421Y-47750D01*
X40420Y-47959D01*
X40149Y-47688D01*
X40149Y-44189D01*
X40149Y-43931D01*
X40050Y-43692D01*
X39868Y-43510D01*
X39629Y-43411D01*
X39371Y-43411D01*
X39132Y-43510D01*
X38950Y-43692D01*
X38851Y-43931D01*
X38851Y-44189D01*
X38950Y-44428D01*
X39132Y-44610D01*
X39371Y-44709D01*
X39629Y-44709D01*
X39868Y-44610D01*
X40050Y-44428D01*
X40149Y-44189D01*
X40149Y-47688D01*
X38669Y-46208D01*
X38669Y-44189D01*
X38669Y-43931D01*
X38570Y-43692D01*
X38388Y-43510D01*
X38149Y-43411D01*
X37925Y-43411D01*
X37925Y-37185D01*
X37925Y-36817D01*
X37785Y-36477D01*
X37525Y-36217D01*
X37185Y-36075D01*
X36817Y-36075D01*
X36477Y-36215D01*
X36217Y-36475D01*
X36075Y-36815D01*
X36075Y-37183D01*
X36114Y-37277D01*
X35515Y-37876D01*
X35471Y-37770D01*
X35232Y-37530D01*
X34920Y-37400D01*
X34582Y-37400D01*
X34270Y-37529D01*
X34030Y-37768D01*
X33900Y-38080D01*
X33900Y-38418D01*
X34029Y-38730D01*
X34268Y-38970D01*
X34580Y-39100D01*
X34918Y-39100D01*
X35217Y-38976D01*
X35217Y-40395D01*
X34843Y-40768D01*
X34680Y-40700D01*
X34262Y-40700D01*
X33876Y-40860D01*
X33580Y-41155D01*
X33420Y-41540D01*
X33420Y-41958D01*
X33580Y-42344D01*
X33875Y-42640D01*
X34040Y-42708D01*
X34040Y-44120D01*
X34073Y-44285D01*
X34166Y-44424D01*
X34432Y-44690D01*
X34364Y-44759D01*
X34326Y-44850D01*
X34326Y-44949D01*
X34326Y-46649D01*
X34364Y-46741D01*
X34434Y-46811D01*
X34525Y-46849D01*
X34624Y-46849D01*
X35374Y-46849D01*
X35466Y-46811D01*
X35536Y-46741D01*
X35574Y-46650D01*
X35574Y-46551D01*
X35574Y-44851D01*
X35536Y-44759D01*
X35466Y-44689D01*
X35380Y-44653D01*
X35380Y-44600D01*
X35379Y-44599D01*
X35347Y-44435D01*
X35254Y-44296D01*
X35253Y-44295D01*
X34900Y-43942D01*
X34900Y-42707D01*
X35064Y-42640D01*
X35360Y-42345D01*
X35520Y-41960D01*
X35520Y-41542D01*
X35451Y-41376D01*
X35951Y-40877D01*
X36044Y-40738D01*
X36044Y-40737D01*
X36077Y-40573D01*
X36077Y-38531D01*
X36721Y-37886D01*
X36815Y-37925D01*
X37183Y-37925D01*
X37523Y-37785D01*
X37783Y-37525D01*
X37925Y-37185D01*
X37925Y-43411D01*
X37909Y-43411D01*
X37909Y-39167D01*
X37904Y-38806D01*
X37776Y-38498D01*
X37644Y-38427D01*
X37573Y-38498D01*
X37573Y-38356D01*
X37502Y-38224D01*
X37167Y-38091D01*
X36806Y-38096D01*
X36498Y-38224D01*
X36427Y-38356D01*
X37000Y-38929D01*
X37573Y-38356D01*
X37573Y-38498D01*
X37071Y-39000D01*
X37644Y-39573D01*
X37776Y-39502D01*
X37909Y-39167D01*
X37909Y-43411D01*
X37891Y-43411D01*
X37652Y-43510D01*
X37573Y-43589D01*
X37573Y-39644D01*
X37000Y-39071D01*
X36929Y-39142D01*
X36929Y-39000D01*
X36356Y-38427D01*
X36224Y-38498D01*
X36091Y-38833D01*
X36096Y-39194D01*
X36224Y-39502D01*
X36356Y-39573D01*
X36929Y-39000D01*
X36929Y-39142D01*
X36427Y-39644D01*
X36498Y-39776D01*
X36833Y-39909D01*
X37194Y-39904D01*
X37502Y-39776D01*
X37573Y-39644D01*
X37573Y-43589D01*
X37470Y-43692D01*
X37371Y-43931D01*
X37371Y-44185D01*
X37266Y-44290D01*
X37000Y-44290D01*
X36858Y-44318D01*
X36738Y-44398D01*
X36658Y-44518D01*
X36631Y-44651D01*
X36451Y-44651D01*
X36359Y-44689D01*
X36289Y-44759D01*
X36251Y-44850D01*
X36251Y-44949D01*
X36251Y-45449D01*
X36289Y-45541D01*
X36359Y-45611D01*
X36450Y-45649D01*
X36549Y-45649D01*
X37549Y-45649D01*
X37641Y-45611D01*
X37711Y-45541D01*
X37749Y-45450D01*
X37749Y-45351D01*
X37749Y-44854D01*
X37894Y-44709D01*
X38149Y-44709D01*
X38388Y-44610D01*
X38570Y-44428D01*
X38669Y-44189D01*
X38669Y-46208D01*
X38507Y-46046D01*
X38368Y-45953D01*
X38203Y-45920D01*
X37672Y-45920D01*
X37641Y-45889D01*
X37550Y-45851D01*
X37451Y-45851D01*
X36451Y-45851D01*
X36359Y-45889D01*
X36289Y-45959D01*
X36251Y-46050D01*
X36251Y-46149D01*
X36251Y-46649D01*
X36289Y-46741D01*
X36359Y-46811D01*
X36450Y-46849D01*
X36549Y-46849D01*
X36843Y-46849D01*
X36623Y-46940D01*
X36271Y-47291D01*
X36081Y-47750D01*
X36080Y-48247D01*
X36270Y-48707D01*
X36621Y-49059D01*
X37080Y-49249D01*
X37577Y-49250D01*
X38037Y-49060D01*
X38389Y-48709D01*
X38579Y-48250D01*
X38580Y-47753D01*
X38390Y-47293D01*
X38039Y-46941D01*
X37665Y-46786D01*
X37672Y-46780D01*
X38025Y-46780D01*
X40848Y-49603D01*
X40849Y-49604D01*
X40988Y-49697D01*
X41152Y-49729D01*
X41153Y-49730D01*
X43000Y-49730D01*
X43000Y-49738D01*
X43062Y-49800D01*
X43650Y-49800D01*
X43700Y-49800D01*
X43800Y-49800D01*
X43850Y-49800D01*
X44438Y-49800D01*
X44500Y-49738D01*
X44499Y-49640D01*
X44554Y-49604D01*
X44820Y-49338D01*
X45036Y-49554D01*
X45175Y-49647D01*
X45176Y-49647D01*
X45250Y-49662D01*
X45250Y-49738D01*
X45312Y-49800D01*
X45900Y-49800D01*
X45950Y-49800D01*
X46050Y-49800D01*
X46100Y-49800D01*
X46688Y-49800D01*
X46750Y-49738D01*
X46749Y-49680D01*
X47501Y-49680D01*
X47501Y-50149D01*
X47539Y-50241D01*
X47609Y-50311D01*
X47700Y-50349D01*
X47799Y-50349D01*
X48799Y-50349D01*
X48891Y-50311D01*
X48961Y-50241D01*
X48999Y-50150D01*
X48999Y-50051D01*
X48999Y-49551D01*
X48961Y-49459D01*
X48891Y-49389D01*
X48800Y-49351D01*
X48701Y-49351D01*
X48411Y-49351D01*
X48414Y-49346D01*
X48414Y-49155D01*
X48411Y-49149D01*
X48701Y-49149D01*
X48800Y-49149D01*
X48891Y-49111D01*
X48961Y-49041D01*
X48999Y-48949D01*
X49000Y-48762D01*
X49000Y-48538D01*
X48999Y-48351D01*
X48961Y-48259D01*
X48891Y-48189D01*
X48800Y-48151D01*
X48701Y-48151D01*
X48362Y-48150D01*
X48300Y-48212D01*
X48300Y-48600D01*
X48938Y-48600D01*
X49000Y-48538D01*
X49000Y-48762D01*
X48938Y-48700D01*
X48350Y-48700D01*
X48300Y-48700D01*
X48200Y-48700D01*
X48200Y-48600D01*
X48200Y-48212D01*
X48200Y-46788D01*
X48200Y-46400D01*
X48200Y-46300D01*
X48200Y-45912D01*
X48138Y-45850D01*
X47799Y-45851D01*
X47700Y-45851D01*
X47609Y-45889D01*
X47539Y-45959D01*
X47501Y-46051D01*
X47500Y-46238D01*
X47562Y-46300D01*
X48200Y-46300D01*
X48200Y-46400D01*
X47562Y-46400D01*
X47500Y-46462D01*
X47501Y-46649D01*
X47539Y-46741D01*
X47609Y-46811D01*
X47700Y-46849D01*
X47799Y-46849D01*
X48138Y-46850D01*
X48200Y-46788D01*
X48200Y-48212D01*
X48138Y-48150D01*
X47799Y-48151D01*
X47700Y-48151D01*
X47609Y-48189D01*
X47539Y-48259D01*
X47501Y-48351D01*
X47500Y-48538D01*
X47562Y-48600D01*
X48200Y-48600D01*
X48200Y-48700D01*
X48150Y-48700D01*
X47562Y-48700D01*
X47500Y-48762D01*
X47500Y-48820D01*
X46749Y-48820D01*
X46749Y-48351D01*
X46711Y-48259D01*
X46701Y-48249D01*
X46899Y-48249D01*
X46991Y-48211D01*
X47061Y-48141D01*
X47081Y-48092D01*
X47196Y-48140D01*
X47365Y-48140D01*
X47521Y-48076D01*
X47641Y-47956D01*
X47706Y-47800D01*
X47706Y-47631D01*
X47642Y-47475D01*
X47522Y-47355D01*
X47394Y-47301D01*
X47352Y-47238D01*
X47232Y-47158D01*
X47099Y-47131D01*
X47099Y-46951D01*
X47061Y-46859D01*
X46991Y-46789D01*
X46900Y-46751D01*
X46801Y-46751D01*
X46301Y-46751D01*
X46209Y-46789D01*
X46139Y-46859D01*
X46135Y-46868D01*
X46135Y-45274D01*
X46267Y-45407D01*
X46443Y-45480D01*
X46634Y-45480D01*
X46754Y-45430D01*
X47122Y-45430D01*
X47146Y-45454D01*
X47285Y-45547D01*
X47286Y-45547D01*
X47450Y-45580D01*
X47578Y-45580D01*
X47609Y-45611D01*
X47700Y-45649D01*
X47799Y-45649D01*
X48799Y-45649D01*
X48891Y-45611D01*
X48961Y-45541D01*
X48999Y-45450D01*
X48999Y-45351D01*
X48999Y-44851D01*
X48961Y-44759D01*
X48891Y-44689D01*
X48808Y-44654D01*
X48808Y-42878D01*
X48500Y-42571D01*
X48192Y-42878D01*
X48219Y-42972D01*
X48421Y-43043D01*
X48634Y-43032D01*
X48781Y-42972D01*
X48808Y-42878D01*
X48808Y-44654D01*
X48800Y-44651D01*
X48701Y-44651D01*
X47701Y-44651D01*
X47609Y-44689D01*
X47602Y-44695D01*
X47465Y-44603D01*
X47300Y-44570D01*
X46755Y-44570D01*
X46635Y-44520D01*
X46444Y-44520D01*
X46268Y-44593D01*
X46135Y-44725D01*
X46135Y-42333D01*
X46975Y-42333D01*
X46951Y-42391D01*
X46951Y-42609D01*
X47035Y-42811D01*
X47189Y-42965D01*
X47391Y-43049D01*
X47609Y-43049D01*
X47811Y-42965D01*
X47965Y-42811D01*
X48002Y-42719D01*
X48028Y-42781D01*
X48122Y-42808D01*
X48394Y-42535D01*
X48429Y-42500D01*
X48500Y-42429D01*
X48571Y-42500D01*
X48606Y-42535D01*
X48878Y-42808D01*
X48972Y-42781D01*
X49043Y-42579D01*
X49040Y-42524D01*
X49921Y-43405D01*
X50060Y-43498D01*
X50061Y-43498D01*
X50225Y-43531D01*
X50631Y-43531D01*
X50470Y-43692D01*
X50371Y-43931D01*
X50371Y-44185D01*
X50266Y-44290D01*
X50000Y-44290D01*
X49858Y-44318D01*
X49738Y-44398D01*
X49658Y-44518D01*
X49631Y-44651D01*
X49451Y-44651D01*
X49359Y-44689D01*
X49289Y-44759D01*
X49251Y-44850D01*
X49251Y-44949D01*
X49251Y-45449D01*
X49289Y-45541D01*
X49359Y-45611D01*
X49450Y-45649D01*
X49549Y-45649D01*
X50549Y-45649D01*
X50641Y-45611D01*
X50711Y-45541D01*
X50749Y-45450D01*
X50749Y-45351D01*
X50749Y-44854D01*
X50894Y-44709D01*
X51149Y-44709D01*
X51388Y-44610D01*
X51570Y-44428D01*
X51669Y-44189D01*
X51669Y-43931D01*
X51570Y-43692D01*
X51409Y-43531D01*
X52111Y-43531D01*
X51950Y-43692D01*
X51851Y-43931D01*
X51851Y-44189D01*
X51950Y-44428D01*
X52132Y-44610D01*
X52371Y-44709D01*
X52625Y-44709D01*
X53896Y-45980D01*
X50719Y-45980D01*
X50711Y-45959D01*
X50641Y-45889D01*
X50550Y-45851D01*
X50451Y-45851D01*
X49451Y-45851D01*
X49359Y-45889D01*
X49289Y-45959D01*
X49281Y-45977D01*
X49124Y-45977D01*
X48990Y-46031D01*
X48961Y-45959D01*
X48891Y-45889D01*
X48800Y-45851D01*
X48701Y-45851D01*
X48362Y-45850D01*
X48300Y-45912D01*
X48300Y-46250D01*
X48300Y-46300D01*
X48300Y-46400D01*
X48300Y-46450D01*
X48300Y-46788D01*
X48362Y-46850D01*
X48701Y-46849D01*
X48800Y-46849D01*
X48891Y-46811D01*
X48953Y-46748D01*
X48967Y-46762D01*
X49123Y-46827D01*
X49292Y-46827D01*
X49350Y-46802D01*
X49359Y-46811D01*
X49450Y-46849D01*
X49549Y-46849D01*
X49843Y-46849D01*
X49623Y-46940D01*
X49271Y-47291D01*
X49081Y-47750D01*
X49080Y-48247D01*
X49270Y-48707D01*
X49621Y-49059D01*
X50080Y-49249D01*
X50577Y-49250D01*
X51037Y-49060D01*
X51389Y-48709D01*
X51579Y-48250D01*
X51580Y-47753D01*
X51390Y-47293D01*
X51039Y-46941D01*
X50665Y-46786D01*
X50711Y-46741D01*
X50719Y-46720D01*
X54280Y-46720D01*
X54289Y-46741D01*
X54334Y-46786D01*
X53963Y-46940D01*
X53611Y-47291D01*
X53421Y-47750D01*
X53420Y-48247D01*
X53610Y-48707D01*
X53961Y-49059D01*
X54420Y-49249D01*
X54917Y-49250D01*
X55377Y-49060D01*
X55729Y-48709D01*
X55919Y-48250D01*
X55920Y-47753D01*
X55730Y-47293D01*
X55379Y-46941D01*
X55156Y-46849D01*
X55549Y-46849D01*
X55641Y-46811D01*
X55711Y-46741D01*
X55749Y-46650D01*
X55749Y-46551D01*
X55749Y-46250D01*
X59291Y-49792D01*
X59293Y-49795D01*
X59413Y-49875D01*
X59554Y-49903D01*
X59554Y-49902D01*
X59555Y-49903D01*
X63084Y-49903D01*
X62902Y-49979D01*
X62729Y-50151D01*
X62635Y-50377D01*
X62635Y-50622D01*
X62729Y-50848D01*
X62901Y-51021D01*
X63127Y-51115D01*
X63372Y-51115D01*
X63598Y-51021D01*
X63750Y-50869D01*
X63901Y-51021D01*
X64127Y-51115D01*
X64372Y-51115D01*
X64598Y-51021D01*
X64750Y-50869D01*
X64901Y-51021D01*
X65127Y-51115D01*
X65372Y-51115D01*
X65598Y-51021D01*
X65750Y-50869D01*
X65901Y-51021D01*
X66127Y-51115D01*
X66372Y-51115D01*
X66598Y-51021D01*
X66750Y-50869D01*
X66901Y-51021D01*
X67127Y-51115D01*
X67372Y-51115D01*
X67598Y-51021D01*
X67656Y-50963D01*
X67674Y-51006D01*
X67744Y-51076D01*
X67836Y-51114D01*
X68138Y-51115D01*
X68200Y-51053D01*
X68200Y-50600D01*
X68200Y-50550D01*
X68200Y-50450D01*
X68200Y-50400D01*
X68200Y-49947D01*
X68138Y-49885D01*
X67836Y-49886D01*
X67744Y-49924D01*
X67674Y-49994D01*
X67656Y-50036D01*
X67620Y-50000D01*
X67620Y-48103D01*
X67619Y-48102D01*
X67620Y-48102D01*
X67592Y-47961D01*
X67512Y-47841D01*
X67509Y-47839D01*
X66185Y-46514D01*
X67458Y-45241D01*
X67460Y-45240D01*
X67461Y-45240D01*
X67541Y-45120D01*
X67569Y-44978D01*
X67569Y-44259D01*
X67574Y-44259D01*
X67964Y-44259D01*
X68056Y-44221D01*
X68126Y-44151D01*
X68164Y-44060D01*
X68164Y-43961D01*
X68164Y-43890D01*
X68790Y-43890D01*
X68869Y-43969D01*
X69064Y-44050D01*
X69275Y-44050D01*
X69470Y-43969D01*
X69619Y-43821D01*
X69700Y-43626D01*
X69700Y-52705D01*
X68865Y-52705D01*
X68865Y-50612D01*
X68865Y-50388D01*
X68864Y-50184D01*
X68864Y-50085D01*
X68826Y-49994D01*
X68756Y-49924D01*
X68664Y-49886D01*
X68362Y-49885D01*
X68300Y-49947D01*
X68300Y-50450D01*
X68803Y-50450D01*
X68865Y-50388D01*
X68865Y-50612D01*
X68803Y-50550D01*
X68300Y-50550D01*
X68300Y-51053D01*
X68362Y-51115D01*
X68664Y-51114D01*
X68756Y-51076D01*
X68826Y-51006D01*
X68864Y-50915D01*
X68864Y-50816D01*
X68865Y-50612D01*
X68865Y-52705D01*
X46750Y-52705D01*
X46750Y-49962D01*
X46688Y-49900D01*
X46050Y-49900D01*
X46050Y-50288D01*
X46112Y-50350D01*
X46451Y-50349D01*
X46550Y-50349D01*
X46641Y-50311D01*
X46711Y-50241D01*
X46749Y-50149D01*
X46750Y-49962D01*
X46750Y-52705D01*
X45950Y-52705D01*
X45950Y-50288D01*
X45950Y-49900D01*
X45312Y-49900D01*
X45250Y-49962D01*
X45251Y-50149D01*
X45289Y-50241D01*
X45359Y-50311D01*
X45450Y-50349D01*
X45549Y-50349D01*
X45888Y-50350D01*
X45950Y-50288D01*
X45950Y-52705D01*
X44500Y-52705D01*
X44500Y-49962D01*
X44438Y-49900D01*
X43800Y-49900D01*
X43800Y-50288D01*
X43862Y-50350D01*
X44201Y-50349D01*
X44300Y-50349D01*
X44391Y-50311D01*
X44461Y-50241D01*
X44499Y-50149D01*
X44500Y-49962D01*
X44500Y-52705D01*
X43700Y-52705D01*
X43700Y-50288D01*
X43700Y-49900D01*
X43062Y-49900D01*
X43000Y-49962D01*
X43001Y-50149D01*
X43039Y-50241D01*
X43109Y-50311D01*
X43200Y-50349D01*
X43299Y-50349D01*
X43638Y-50350D01*
X43700Y-50288D01*
X43700Y-52705D01*
X35600Y-52705D01*
X35600Y-49420D01*
X35600Y-49082D01*
X35471Y-48770D01*
X35232Y-48530D01*
X34920Y-48400D01*
X34582Y-48400D01*
X34270Y-48529D01*
X34030Y-48768D01*
X33900Y-49080D01*
X33900Y-49418D01*
X34029Y-49730D01*
X34268Y-49970D01*
X34580Y-50100D01*
X34918Y-50100D01*
X35230Y-49971D01*
X35470Y-49732D01*
X35600Y-49420D01*
X35600Y-52705D01*
X33324Y-52705D01*
X33324Y-47625D01*
X33324Y-47526D01*
X33324Y-46876D01*
X33324Y-36625D01*
X33324Y-36526D01*
X33324Y-35876D01*
X33286Y-35784D01*
X33216Y-35714D01*
X33125Y-35676D01*
X33026Y-35676D01*
X32376Y-35676D01*
X32284Y-35714D01*
X32214Y-35784D01*
X32176Y-35875D01*
X32176Y-35974D01*
X32176Y-36624D01*
X32214Y-36716D01*
X32284Y-36786D01*
X32375Y-36824D01*
X32434Y-36824D01*
X32425Y-36854D01*
X32750Y-37179D01*
X33075Y-36854D01*
X33065Y-36824D01*
X33124Y-36824D01*
X33216Y-36786D01*
X33286Y-36716D01*
X33324Y-36625D01*
X33324Y-46876D01*
X33318Y-46861D01*
X33318Y-37334D01*
X33306Y-37111D01*
X33242Y-36954D01*
X33146Y-36925D01*
X32821Y-37250D01*
X33146Y-37575D01*
X33242Y-37546D01*
X33318Y-37334D01*
X33318Y-46861D01*
X33286Y-46784D01*
X33216Y-46714D01*
X33125Y-46676D01*
X33075Y-46676D01*
X33075Y-37646D01*
X32750Y-37321D01*
X32679Y-37392D01*
X32679Y-37250D01*
X32354Y-36925D01*
X32258Y-36954D01*
X32182Y-37166D01*
X32194Y-37389D01*
X32258Y-37546D01*
X32354Y-37575D01*
X32679Y-37250D01*
X32679Y-37392D01*
X32425Y-37646D01*
X32454Y-37742D01*
X32666Y-37818D01*
X32889Y-37806D01*
X33046Y-37742D01*
X33075Y-37646D01*
X33075Y-46676D01*
X33044Y-46676D01*
X33044Y-41923D01*
X33040Y-41553D01*
X32907Y-41233D01*
X32772Y-41159D01*
X32701Y-41230D01*
X32701Y-41088D01*
X32627Y-40953D01*
X32283Y-40816D01*
X32181Y-40817D01*
X32257Y-40786D01*
X32525Y-40519D01*
X32670Y-40170D01*
X32670Y-39792D01*
X32526Y-39443D01*
X32259Y-39175D01*
X31910Y-39030D01*
X31780Y-39030D01*
X31780Y-31946D01*
X31777Y-31536D01*
X31627Y-31174D01*
X31483Y-31088D01*
X30821Y-31750D01*
X31483Y-32412D01*
X31627Y-32326D01*
X31780Y-31946D01*
X31780Y-39030D01*
X31600Y-39030D01*
X31600Y-38420D01*
X31600Y-38082D01*
X31600Y-34420D01*
X31600Y-34082D01*
X31471Y-33770D01*
X31412Y-33710D01*
X31412Y-32483D01*
X30750Y-31821D01*
X30088Y-32483D01*
X30174Y-32627D01*
X30554Y-32780D01*
X30964Y-32777D01*
X31326Y-32627D01*
X31412Y-32483D01*
X31412Y-33710D01*
X31232Y-33530D01*
X30920Y-33400D01*
X30582Y-33400D01*
X30270Y-33529D01*
X30030Y-33768D01*
X29900Y-34080D01*
X29900Y-34418D01*
X30029Y-34730D01*
X30268Y-34970D01*
X30580Y-35100D01*
X30918Y-35100D01*
X31230Y-34971D01*
X31470Y-34732D01*
X31600Y-34420D01*
X31600Y-38082D01*
X31471Y-37770D01*
X31232Y-37530D01*
X30920Y-37400D01*
X30582Y-37400D01*
X30270Y-37529D01*
X30030Y-37768D01*
X29900Y-38080D01*
X29900Y-38418D01*
X30029Y-38730D01*
X30268Y-38970D01*
X30580Y-39100D01*
X30918Y-39100D01*
X31230Y-38971D01*
X31470Y-38732D01*
X31600Y-38420D01*
X31600Y-39030D01*
X31532Y-39030D01*
X31183Y-39174D01*
X30915Y-39441D01*
X30770Y-39790D01*
X30770Y-40168D01*
X30914Y-40517D01*
X31181Y-40785D01*
X31530Y-40930D01*
X31648Y-40930D01*
X31593Y-40953D01*
X31519Y-41088D01*
X32110Y-41679D01*
X32701Y-41088D01*
X32701Y-41230D01*
X32181Y-41750D01*
X32772Y-42341D01*
X32907Y-42267D01*
X33044Y-41923D01*
X33044Y-46676D01*
X33026Y-46676D01*
X32701Y-46676D01*
X32701Y-42412D01*
X32110Y-41821D01*
X32039Y-41892D01*
X32039Y-41750D01*
X31448Y-41159D01*
X31313Y-41233D01*
X31310Y-41239D01*
X31287Y-41216D01*
X31056Y-41120D01*
X30805Y-41120D01*
X30573Y-41216D01*
X30396Y-41393D01*
X30300Y-41624D01*
X30300Y-41875D01*
X30396Y-42107D01*
X30573Y-42284D01*
X30804Y-42380D01*
X31055Y-42380D01*
X31287Y-42284D01*
X31310Y-42260D01*
X31313Y-42267D01*
X31448Y-42341D01*
X32039Y-41750D01*
X32039Y-41892D01*
X31519Y-42412D01*
X31593Y-42547D01*
X31650Y-42570D01*
X31532Y-42570D01*
X31183Y-42714D01*
X30915Y-42981D01*
X30770Y-43330D01*
X30770Y-43708D01*
X30914Y-44057D01*
X31181Y-44325D01*
X31530Y-44470D01*
X31908Y-44470D01*
X32257Y-44326D01*
X32525Y-44059D01*
X32670Y-43710D01*
X32670Y-43332D01*
X32526Y-42983D01*
X32259Y-42715D01*
X32178Y-42681D01*
X32307Y-42680D01*
X32627Y-42547D01*
X32701Y-42412D01*
X32701Y-46676D01*
X32663Y-46676D01*
X32674Y-46650D01*
X32674Y-46551D01*
X32675Y-45862D01*
X32675Y-45638D01*
X32674Y-44949D01*
X32674Y-44850D01*
X32636Y-44759D01*
X32566Y-44689D01*
X32474Y-44651D01*
X32162Y-44650D01*
X32100Y-44712D01*
X32100Y-45700D01*
X32613Y-45700D01*
X32675Y-45638D01*
X32675Y-45862D01*
X32613Y-45800D01*
X32100Y-45800D01*
X32100Y-46788D01*
X32162Y-46850D01*
X32186Y-46849D01*
X32176Y-46875D01*
X32176Y-46974D01*
X32176Y-47624D01*
X32214Y-47716D01*
X32284Y-47786D01*
X32375Y-47824D01*
X32434Y-47824D01*
X32425Y-47854D01*
X32750Y-48179D01*
X33075Y-47854D01*
X33065Y-47824D01*
X33124Y-47824D01*
X33216Y-47786D01*
X33286Y-47716D01*
X33324Y-47625D01*
X33324Y-52705D01*
X33318Y-52705D01*
X33318Y-48334D01*
X33306Y-48111D01*
X33242Y-47954D01*
X33146Y-47925D01*
X32821Y-48250D01*
X33146Y-48575D01*
X33242Y-48546D01*
X33318Y-48334D01*
X33318Y-52705D01*
X33075Y-52705D01*
X33075Y-48646D01*
X32750Y-48321D01*
X32679Y-48392D01*
X32679Y-48250D01*
X32354Y-47925D01*
X32258Y-47954D01*
X32182Y-48166D01*
X32194Y-48389D01*
X32258Y-48546D01*
X32354Y-48575D01*
X32679Y-48250D01*
X32679Y-48392D01*
X32425Y-48646D01*
X32454Y-48742D01*
X32666Y-48818D01*
X32889Y-48806D01*
X33046Y-48742D01*
X33075Y-48646D01*
X33075Y-52705D01*
X32000Y-52705D01*
X32000Y-46788D01*
X32000Y-45850D01*
X32000Y-45800D01*
X32000Y-45700D01*
X32000Y-45650D01*
X32000Y-44712D01*
X31938Y-44650D01*
X31626Y-44651D01*
X31534Y-44689D01*
X31464Y-44759D01*
X31462Y-44761D01*
X31232Y-44530D01*
X30920Y-44400D01*
X30582Y-44400D01*
X30270Y-44529D01*
X30030Y-44768D01*
X29900Y-45080D01*
X29900Y-45418D01*
X30029Y-45730D01*
X30268Y-45970D01*
X30580Y-46100D01*
X30918Y-46100D01*
X31230Y-45971D01*
X31425Y-45776D01*
X31425Y-45850D01*
X31437Y-45850D01*
X31425Y-45862D01*
X31426Y-46551D01*
X31426Y-46650D01*
X31464Y-46741D01*
X31534Y-46811D01*
X31626Y-46849D01*
X31938Y-46850D01*
X32000Y-46788D01*
X32000Y-52705D01*
X31780Y-52705D01*
X31780Y-51946D01*
X31777Y-51536D01*
X31627Y-51174D01*
X31600Y-51157D01*
X31600Y-49420D01*
X31600Y-49082D01*
X31471Y-48770D01*
X31232Y-48530D01*
X30920Y-48400D01*
X30582Y-48400D01*
X30270Y-48529D01*
X30030Y-48768D01*
X29900Y-49080D01*
X29900Y-49418D01*
X30029Y-49730D01*
X30268Y-49970D01*
X30580Y-50100D01*
X30918Y-50100D01*
X31230Y-49971D01*
X31470Y-49732D01*
X31600Y-49420D01*
X31600Y-51157D01*
X31483Y-51088D01*
X31412Y-51159D01*
X31412Y-51017D01*
X31326Y-50873D01*
X30946Y-50720D01*
X30536Y-50723D01*
X30174Y-50873D01*
X30088Y-51017D01*
X30750Y-51679D01*
X31412Y-51017D01*
X31412Y-51159D01*
X30821Y-51750D01*
X31483Y-52412D01*
X31627Y-52326D01*
X31780Y-51946D01*
X31780Y-52705D01*
X31137Y-52705D01*
X31326Y-52627D01*
X31412Y-52483D01*
X30750Y-51821D01*
X30088Y-52483D01*
X30174Y-52627D01*
X30367Y-52705D01*
X29795Y-52705D01*
X29795Y-52137D01*
X29873Y-52326D01*
X30017Y-52412D01*
X30679Y-51750D01*
X30017Y-51088D01*
X29873Y-51174D01*
X29795Y-51367D01*
X29795Y-32137D01*
X29873Y-32326D01*
X30017Y-32412D01*
X30679Y-31750D01*
X30017Y-31088D01*
X29873Y-31174D01*
X29795Y-31367D01*
X29795Y-30795D01*
X30362Y-30795D01*
X30174Y-30873D01*
X30088Y-31017D01*
X30750Y-31679D01*
X31412Y-31017D01*
X31326Y-30873D01*
X31132Y-30795D01*
X70362Y-30795D01*
X70174Y-30873D01*
X70088Y-31017D01*
X70750Y-31679D01*
X71412Y-31017D01*
X71326Y-30873D01*
X71132Y-30795D01*
X71705Y-30795D01*
X71705Y-31362D01*
X71627Y-31174D01*
X71483Y-31088D01*
X70821Y-31750D01*
X71483Y-32412D01*
X71627Y-32326D01*
X71705Y-32132D01*
X71705Y-38735D01*
X71535Y-38565D01*
X71412Y-38513D01*
X71412Y-32483D01*
X70750Y-31821D01*
X70679Y-31892D01*
X70679Y-31750D01*
X70017Y-31088D01*
X69873Y-31174D01*
X69720Y-31554D01*
X69723Y-31964D01*
X69873Y-32326D01*
X70017Y-32412D01*
X70679Y-31750D01*
X70679Y-31892D01*
X70088Y-32483D01*
X70174Y-32627D01*
X70554Y-32780D01*
X70964Y-32777D01*
X71326Y-32627D01*
X71412Y-32483D01*
X71412Y-38513D01*
X71247Y-38445D01*
X70935Y-38445D01*
X70646Y-38564D01*
X70425Y-38785D01*
X70305Y-39073D01*
X70305Y-39385D01*
X70424Y-39674D01*
X70645Y-39895D01*
X70933Y-40015D01*
X71245Y-40015D01*
X71534Y-39896D01*
X71705Y-39725D01*
X71705Y-43828D01*
X71635Y-43796D01*
X71605Y-43826D01*
X71605Y-41907D01*
X71605Y-41595D01*
X71486Y-41306D01*
X71265Y-41085D01*
X70977Y-40965D01*
X70665Y-40965D01*
X70376Y-41084D01*
X70155Y-41305D01*
X70035Y-41593D01*
X70035Y-41905D01*
X70154Y-42194D01*
X70375Y-42415D01*
X70663Y-42535D01*
X70975Y-42535D01*
X71264Y-42416D01*
X71485Y-42195D01*
X71605Y-41907D01*
X71605Y-43826D01*
X71564Y-43867D01*
X71564Y-43725D01*
X71510Y-43607D01*
X71224Y-43496D01*
X70918Y-43504D01*
X70670Y-43607D01*
X70616Y-43725D01*
X71090Y-44199D01*
X71564Y-43725D01*
X71564Y-43867D01*
X71161Y-44270D01*
X71635Y-44744D01*
X71705Y-44711D01*
X71705Y-51362D01*
X71627Y-51174D01*
X71564Y-51136D01*
X71564Y-44815D01*
X71090Y-44341D01*
X71019Y-44412D01*
X71019Y-44270D01*
X70545Y-43796D01*
X70427Y-43850D01*
X70316Y-44136D01*
X70324Y-44442D01*
X70427Y-44690D01*
X70545Y-44744D01*
X71019Y-44270D01*
X71019Y-44412D01*
X70616Y-44815D01*
X70670Y-44933D01*
X70956Y-45044D01*
X71262Y-45036D01*
X71510Y-44933D01*
X71564Y-44815D01*
X71564Y-51136D01*
X71483Y-51088D01*
X71412Y-51159D01*
X71412Y-51017D01*
X71326Y-50873D01*
X70946Y-50720D01*
X70536Y-50723D01*
X70174Y-50873D01*
X70088Y-51017D01*
X70750Y-51679D01*
X71412Y-51017D01*
X71412Y-51159D01*
X70821Y-51750D01*
X71483Y-52412D01*
X71627Y-52326D01*
X71705Y-52132D01*
X71705Y-52705D01*
X71705Y-52705D01*
G37*
G54D36*
X71705Y-52705D02*
X71137Y-52705D01*
X71326Y-52627D01*
X71412Y-52483D01*
X70750Y-51821D01*
X70679Y-51892D01*
X70679Y-51750D01*
X70017Y-51088D01*
X69873Y-51174D01*
X69720Y-51554D01*
X69723Y-51964D01*
X69873Y-52326D01*
X70017Y-52412D01*
X70679Y-51750D01*
X70679Y-51892D01*
X70088Y-52483D01*
X70174Y-52627D01*
X70367Y-52705D01*
X69700Y-52705D01*
X69700Y-43626D01*
X69700Y-43415D01*
X69694Y-43400D01*
X69619Y-43220D01*
X69573Y-43173D01*
X69622Y-43125D01*
X69590Y-43093D01*
X69626Y-43084D01*
X69694Y-42889D01*
X69683Y-42683D01*
X69626Y-42546D01*
X69534Y-42522D01*
X69463Y-42593D01*
X69463Y-42451D01*
X69439Y-42359D01*
X69244Y-42291D01*
X69038Y-42302D01*
X68901Y-42359D01*
X68877Y-42451D01*
X69170Y-42744D01*
X69463Y-42451D01*
X69463Y-42593D01*
X69276Y-42780D01*
X69241Y-42815D01*
X69170Y-42886D01*
X69099Y-42815D01*
X69064Y-42780D01*
X68806Y-42522D01*
X68714Y-42546D01*
X68646Y-42741D01*
X68657Y-42947D01*
X68714Y-43084D01*
X68749Y-43093D01*
X68718Y-43125D01*
X68743Y-43150D01*
X68263Y-43150D01*
X68164Y-43050D01*
X68164Y-42941D01*
X68126Y-42849D01*
X68056Y-42779D01*
X67965Y-42741D01*
X67866Y-42741D01*
X67476Y-42741D01*
X67384Y-42779D01*
X67314Y-42849D01*
X67276Y-42940D01*
X67276Y-43039D01*
X67276Y-43050D01*
X67146Y-43179D01*
X67116Y-43149D01*
X67025Y-43111D01*
X66926Y-43111D01*
X66750Y-43111D01*
X66750Y-41212D01*
X66750Y-40988D01*
X66749Y-40801D01*
X66711Y-40709D01*
X66641Y-40639D01*
X66550Y-40601D01*
X66451Y-40601D01*
X66112Y-40600D01*
X66050Y-40662D01*
X66050Y-41050D01*
X66688Y-41050D01*
X66750Y-40988D01*
X66750Y-41212D01*
X66688Y-41150D01*
X66050Y-41150D01*
X66050Y-41538D01*
X66112Y-41600D01*
X66451Y-41599D01*
X66550Y-41599D01*
X66641Y-41561D01*
X66711Y-41491D01*
X66749Y-41399D01*
X66750Y-41212D01*
X66750Y-43111D01*
X66536Y-43111D01*
X66490Y-43130D01*
X65950Y-43130D01*
X65950Y-41538D01*
X65950Y-41150D01*
X65950Y-41050D01*
X65950Y-40662D01*
X65888Y-40600D01*
X65549Y-40601D01*
X65450Y-40601D01*
X65359Y-40639D01*
X65289Y-40709D01*
X65251Y-40801D01*
X65250Y-40988D01*
X65312Y-41050D01*
X65950Y-41050D01*
X65950Y-41150D01*
X65312Y-41150D01*
X65250Y-41212D01*
X65251Y-41399D01*
X65289Y-41491D01*
X65359Y-41561D01*
X65450Y-41599D01*
X65549Y-41599D01*
X65888Y-41600D01*
X65950Y-41538D01*
X65950Y-43130D01*
X65510Y-43130D01*
X65465Y-43111D01*
X65366Y-43111D01*
X64976Y-43111D01*
X64884Y-43149D01*
X64814Y-43219D01*
X64776Y-43310D01*
X64776Y-43409D01*
X64776Y-43689D01*
X64814Y-43781D01*
X64884Y-43851D01*
X64975Y-43889D01*
X65074Y-43889D01*
X65464Y-43889D01*
X65510Y-43870D01*
X66489Y-43870D01*
X66535Y-43889D01*
X66634Y-43889D01*
X66829Y-43889D01*
X66829Y-44824D01*
X65998Y-45654D01*
X65994Y-45643D01*
X65874Y-45523D01*
X65742Y-45468D01*
X64530Y-44256D01*
X64616Y-44221D01*
X64686Y-44151D01*
X64724Y-44059D01*
X64725Y-43982D01*
X64663Y-43920D01*
X64380Y-43920D01*
X64330Y-43920D01*
X64230Y-43920D01*
X64230Y-43820D01*
X64330Y-43820D01*
X64380Y-43820D01*
X64663Y-43820D01*
X64725Y-43758D01*
X64724Y-43681D01*
X64686Y-43589D01*
X64616Y-43519D01*
X64570Y-43499D01*
X64616Y-43481D01*
X64686Y-43411D01*
X64724Y-43320D01*
X64724Y-43221D01*
X64724Y-42941D01*
X64686Y-42849D01*
X64616Y-42779D01*
X64525Y-42741D01*
X64426Y-42741D01*
X64036Y-42741D01*
X63944Y-42779D01*
X63874Y-42849D01*
X63836Y-42940D01*
X63836Y-43039D01*
X63836Y-43319D01*
X63874Y-43411D01*
X63944Y-43481D01*
X63989Y-43500D01*
X63944Y-43519D01*
X63874Y-43589D01*
X63870Y-43596D01*
X63767Y-43493D01*
X63767Y-41874D01*
X64049Y-41874D01*
X64141Y-41836D01*
X64211Y-41766D01*
X64249Y-41675D01*
X64249Y-41576D01*
X64249Y-41326D01*
X64217Y-41250D01*
X64249Y-41175D01*
X64249Y-41076D01*
X64249Y-40826D01*
X64217Y-40750D01*
X64249Y-40675D01*
X64249Y-40576D01*
X64249Y-40430D01*
X65100Y-40430D01*
X65264Y-40397D01*
X65265Y-40397D01*
X65342Y-40344D01*
X65359Y-40361D01*
X65450Y-40399D01*
X65549Y-40399D01*
X66549Y-40399D01*
X66641Y-40361D01*
X66672Y-40330D01*
X66800Y-40330D01*
X66965Y-40297D01*
X67104Y-40204D01*
X67197Y-40065D01*
X67216Y-39968D01*
X67295Y-39890D01*
X67368Y-39714D01*
X67368Y-39523D01*
X67295Y-39347D01*
X67160Y-39211D01*
X66984Y-39138D01*
X66793Y-39138D01*
X66617Y-39211D01*
X66481Y-39346D01*
X66458Y-39401D01*
X66451Y-39401D01*
X65451Y-39401D01*
X65359Y-39439D01*
X65328Y-39470D01*
X65200Y-39470D01*
X65035Y-39503D01*
X64934Y-39570D01*
X64249Y-39570D01*
X64249Y-39326D01*
X64217Y-39250D01*
X64249Y-39175D01*
X64249Y-39076D01*
X64249Y-38826D01*
X64217Y-38750D01*
X64249Y-38675D01*
X64249Y-38576D01*
X64249Y-38326D01*
X64211Y-38234D01*
X64141Y-38164D01*
X64050Y-38126D01*
X63951Y-38126D01*
X63834Y-38126D01*
X63834Y-37104D01*
X63833Y-37103D01*
X63834Y-37103D01*
X63806Y-36962D01*
X63726Y-36842D01*
X63723Y-36840D01*
X63600Y-36717D01*
X63600Y-34112D01*
X63538Y-34050D01*
X63150Y-34050D01*
X63150Y-34688D01*
X63212Y-34750D01*
X63399Y-34749D01*
X63491Y-34711D01*
X63561Y-34641D01*
X63599Y-34550D01*
X63599Y-34451D01*
X63600Y-34112D01*
X63600Y-36717D01*
X63542Y-36659D01*
X63561Y-36641D01*
X63599Y-36550D01*
X63599Y-36451D01*
X63599Y-35451D01*
X63561Y-35359D01*
X63491Y-35289D01*
X63400Y-35251D01*
X63301Y-35251D01*
X63050Y-35251D01*
X63050Y-34688D01*
X63050Y-34050D01*
X62662Y-34050D01*
X62600Y-34112D01*
X62601Y-34451D01*
X62601Y-34550D01*
X62639Y-34641D01*
X62709Y-34711D01*
X62801Y-34749D01*
X62988Y-34750D01*
X63050Y-34688D01*
X63050Y-35251D01*
X62801Y-35251D01*
X62709Y-35289D01*
X62639Y-35359D01*
X62601Y-35450D01*
X62601Y-35549D01*
X62601Y-36549D01*
X62639Y-36641D01*
X62709Y-36711D01*
X62730Y-36719D01*
X62730Y-36735D01*
X62729Y-36740D01*
X62753Y-36857D01*
X62758Y-36882D01*
X62838Y-37002D01*
X63094Y-37257D01*
X63094Y-38143D01*
X63018Y-38158D01*
X62898Y-38238D01*
X62818Y-38358D01*
X62790Y-38500D01*
X62790Y-39000D01*
X62818Y-39142D01*
X62890Y-39250D01*
X62818Y-39358D01*
X62790Y-39500D01*
X62790Y-40346D01*
X62524Y-40612D01*
X62444Y-40732D01*
X62439Y-40756D01*
X62415Y-40874D01*
X62416Y-40878D01*
X62416Y-43634D01*
X62415Y-43639D01*
X62439Y-43756D01*
X62444Y-43781D01*
X62524Y-43901D01*
X65398Y-46774D01*
X65400Y-46777D01*
X66880Y-48256D01*
X66880Y-50000D01*
X66749Y-50130D01*
X66599Y-49979D01*
X66373Y-49885D01*
X66158Y-49885D01*
X62210Y-45936D01*
X62210Y-41500D01*
X62182Y-41358D01*
X62102Y-41238D01*
X61982Y-41158D01*
X61849Y-41131D01*
X61849Y-41076D01*
X61849Y-40868D01*
X61982Y-40842D01*
X62102Y-40762D01*
X62182Y-40642D01*
X62210Y-40500D01*
X62210Y-39575D01*
X62210Y-39574D01*
X62242Y-39527D01*
X62270Y-39385D01*
X62270Y-36740D01*
X62270Y-36719D01*
X62291Y-36711D01*
X62361Y-36641D01*
X62399Y-36550D01*
X62399Y-36451D01*
X62399Y-35451D01*
X62361Y-35359D01*
X62291Y-35289D01*
X62270Y-35280D01*
X62270Y-34719D01*
X62291Y-34711D01*
X62361Y-34641D01*
X62399Y-34550D01*
X62399Y-34451D01*
X62399Y-33646D01*
X62600Y-33646D01*
X62600Y-33888D01*
X62662Y-33950D01*
X63000Y-33950D01*
X63050Y-33950D01*
X63150Y-33950D01*
X63200Y-33950D01*
X63538Y-33950D01*
X63600Y-33888D01*
X63599Y-33835D01*
X68160Y-38396D01*
X68160Y-40685D01*
X68193Y-40850D01*
X68286Y-40989D01*
X68425Y-41082D01*
X68590Y-41115D01*
X68688Y-41115D01*
X68749Y-41176D01*
X68840Y-41214D01*
X68939Y-41214D01*
X69499Y-41214D01*
X69591Y-41176D01*
X69661Y-41106D01*
X69699Y-41015D01*
X69699Y-40916D01*
X69699Y-40356D01*
X69661Y-40264D01*
X69636Y-40239D01*
X69700Y-40086D01*
X69700Y-39875D01*
X69619Y-39680D01*
X69471Y-39531D01*
X69276Y-39450D01*
X69065Y-39450D01*
X69020Y-39468D01*
X69020Y-38218D01*
X69019Y-38217D01*
X68987Y-38053D01*
X68894Y-37914D01*
X68893Y-37913D01*
X63892Y-32912D01*
X63753Y-32819D01*
X63588Y-32786D01*
X58900Y-32786D01*
X57934Y-32786D01*
X57769Y-32819D01*
X57630Y-32912D01*
X57629Y-32912D01*
X57629Y-32913D01*
X57396Y-33146D01*
X57325Y-33251D01*
X56851Y-33251D01*
X56759Y-33289D01*
X56689Y-33359D01*
X56651Y-33450D01*
X56651Y-33549D01*
X56651Y-33570D01*
X56600Y-33570D01*
X55823Y-33570D01*
X55785Y-33477D01*
X55525Y-33217D01*
X55185Y-33075D01*
X54817Y-33075D01*
X54477Y-33215D01*
X54217Y-33475D01*
X54075Y-33815D01*
X54075Y-34183D01*
X54215Y-34523D01*
X54475Y-34783D01*
X54815Y-34925D01*
X55183Y-34925D01*
X55523Y-34785D01*
X55783Y-34525D01*
X55822Y-34430D01*
X56600Y-34430D01*
X56651Y-34430D01*
X56651Y-34549D01*
X56689Y-34641D01*
X56759Y-34711D01*
X56850Y-34749D01*
X56949Y-34749D01*
X57449Y-34749D01*
X57541Y-34711D01*
X57611Y-34641D01*
X57649Y-34550D01*
X57649Y-34451D01*
X57649Y-34430D01*
X57700Y-34430D01*
X57850Y-34399D01*
X57851Y-34451D01*
X57851Y-34550D01*
X57889Y-34641D01*
X57959Y-34711D01*
X58051Y-34749D01*
X58238Y-34750D01*
X58300Y-34688D01*
X58300Y-34100D01*
X58300Y-34050D01*
X58300Y-33950D01*
X58400Y-33950D01*
X58400Y-34050D01*
X58400Y-34100D01*
X58400Y-34688D01*
X58462Y-34750D01*
X58470Y-34749D01*
X58470Y-35250D01*
X58462Y-35250D01*
X58400Y-35312D01*
X58400Y-35900D01*
X58400Y-35950D01*
X58400Y-36050D01*
X58400Y-36100D01*
X58400Y-36688D01*
X58462Y-36750D01*
X58470Y-36749D01*
X58470Y-38251D01*
X58300Y-38251D01*
X58300Y-36688D01*
X58300Y-36050D01*
X58300Y-35950D01*
X58300Y-35312D01*
X58238Y-35250D01*
X58051Y-35251D01*
X57959Y-35289D01*
X57889Y-35359D01*
X57851Y-35450D01*
X57851Y-35549D01*
X57850Y-35888D01*
X57912Y-35950D01*
X58300Y-35950D01*
X58300Y-36050D01*
X57912Y-36050D01*
X57850Y-36112D01*
X57851Y-36451D01*
X57851Y-36550D01*
X57889Y-36641D01*
X57959Y-36711D01*
X58051Y-36749D01*
X58238Y-36750D01*
X58300Y-36688D01*
X58300Y-38251D01*
X58051Y-38251D01*
X57959Y-38289D01*
X57889Y-38359D01*
X57851Y-38450D01*
X57851Y-38549D01*
X57851Y-39549D01*
X57889Y-39641D01*
X57959Y-39711D01*
X58050Y-39749D01*
X58149Y-39749D01*
X58649Y-39749D01*
X58741Y-39711D01*
X58811Y-39641D01*
X58846Y-39554D01*
X59596Y-40304D01*
X59735Y-40397D01*
X59736Y-40397D01*
X59900Y-40430D01*
X60120Y-40430D01*
X60120Y-45640D01*
X60153Y-45805D01*
X60246Y-45944D01*
X61413Y-47111D01*
X59250Y-47111D01*
X59250Y-45012D01*
X59250Y-44788D01*
X59249Y-44601D01*
X59211Y-44509D01*
X59141Y-44439D01*
X59050Y-44401D01*
X58951Y-44401D01*
X58850Y-44400D01*
X58850Y-42112D01*
X58850Y-41888D01*
X58849Y-41549D01*
X58849Y-41450D01*
X58811Y-41359D01*
X58741Y-41289D01*
X58649Y-41251D01*
X58462Y-41250D01*
X58400Y-41312D01*
X58400Y-41950D01*
X58788Y-41950D01*
X58850Y-41888D01*
X58850Y-42112D01*
X58788Y-42050D01*
X58400Y-42050D01*
X58400Y-42688D01*
X58462Y-42750D01*
X58649Y-42749D01*
X58741Y-42711D01*
X58811Y-42641D01*
X58849Y-42550D01*
X58849Y-42451D01*
X58850Y-42112D01*
X58850Y-44400D01*
X58612Y-44400D01*
X58550Y-44462D01*
X58550Y-44850D01*
X59188Y-44850D01*
X59250Y-44788D01*
X59250Y-45012D01*
X59188Y-44950D01*
X58550Y-44950D01*
X58550Y-45338D01*
X58612Y-45400D01*
X58951Y-45399D01*
X59050Y-45399D01*
X59141Y-45361D01*
X59211Y-45291D01*
X59249Y-45199D01*
X59250Y-45012D01*
X59250Y-47111D01*
X58482Y-47111D01*
X58410Y-47081D01*
X58495Y-47081D01*
X58651Y-47017D01*
X58771Y-46897D01*
X58836Y-46741D01*
X58842Y-46732D01*
X58868Y-46599D01*
X59049Y-46599D01*
X59141Y-46561D01*
X59211Y-46491D01*
X59249Y-46400D01*
X59249Y-46301D01*
X59249Y-45801D01*
X59211Y-45709D01*
X59141Y-45639D01*
X59050Y-45601D01*
X58951Y-45601D01*
X58450Y-45601D01*
X58450Y-45338D01*
X58450Y-44950D01*
X58450Y-44850D01*
X58450Y-44462D01*
X58388Y-44400D01*
X58300Y-44400D01*
X58300Y-42688D01*
X58300Y-42050D01*
X58300Y-41950D01*
X58300Y-41312D01*
X58238Y-41250D01*
X58051Y-41251D01*
X57959Y-41289D01*
X57889Y-41359D01*
X57851Y-41450D01*
X57851Y-41549D01*
X57850Y-41888D01*
X57912Y-41950D01*
X58300Y-41950D01*
X58300Y-42050D01*
X57912Y-42050D01*
X57850Y-42112D01*
X57851Y-42451D01*
X57851Y-42550D01*
X57889Y-42641D01*
X57959Y-42711D01*
X58051Y-42749D01*
X58238Y-42750D01*
X58300Y-42688D01*
X58300Y-44400D01*
X58049Y-44401D01*
X57950Y-44401D01*
X57859Y-44439D01*
X57789Y-44509D01*
X57751Y-44601D01*
X57750Y-44788D01*
X57812Y-44850D01*
X58450Y-44850D01*
X58450Y-44950D01*
X57812Y-44950D01*
X57750Y-45012D01*
X57751Y-45199D01*
X57789Y-45291D01*
X57859Y-45361D01*
X57950Y-45399D01*
X58049Y-45399D01*
X58388Y-45400D01*
X58450Y-45338D01*
X58450Y-45601D01*
X57951Y-45601D01*
X57859Y-45639D01*
X57789Y-45709D01*
X57751Y-45800D01*
X57751Y-45899D01*
X57751Y-46399D01*
X57789Y-46491D01*
X57859Y-46561D01*
X57950Y-46599D01*
X57986Y-46599D01*
X57986Y-46740D01*
X58050Y-46896D01*
X58170Y-47016D01*
X58266Y-47056D01*
X58181Y-47056D01*
X58025Y-47120D01*
X57905Y-47240D01*
X57869Y-47324D01*
X57650Y-47104D01*
X57650Y-39112D01*
X57650Y-38888D01*
X57649Y-38549D01*
X57649Y-38450D01*
X57649Y-36550D01*
X57649Y-36451D01*
X57649Y-35451D01*
X57611Y-35359D01*
X57541Y-35289D01*
X57450Y-35251D01*
X57351Y-35251D01*
X56851Y-35251D01*
X56759Y-35289D01*
X56689Y-35359D01*
X56651Y-35450D01*
X56651Y-35549D01*
X56651Y-35570D01*
X56600Y-35570D01*
X55823Y-35570D01*
X55785Y-35477D01*
X55525Y-35217D01*
X55185Y-35075D01*
X54817Y-35075D01*
X54477Y-35215D01*
X54217Y-35475D01*
X54075Y-35815D01*
X54075Y-36183D01*
X54114Y-36277D01*
X52883Y-37509D01*
X52790Y-37648D01*
X52757Y-37813D01*
X52757Y-41317D01*
X52707Y-41438D01*
X52707Y-41629D01*
X52780Y-41805D01*
X52915Y-41941D01*
X53091Y-42014D01*
X53282Y-42014D01*
X53458Y-41941D01*
X53594Y-41806D01*
X53667Y-41630D01*
X53667Y-41439D01*
X53617Y-41318D01*
X53617Y-37991D01*
X54721Y-36886D01*
X54815Y-36925D01*
X55183Y-36925D01*
X55523Y-36785D01*
X55783Y-36525D01*
X55822Y-36430D01*
X56600Y-36430D01*
X56651Y-36430D01*
X56651Y-36549D01*
X56689Y-36641D01*
X56759Y-36711D01*
X56850Y-36749D01*
X56949Y-36749D01*
X57449Y-36749D01*
X57541Y-36711D01*
X57611Y-36641D01*
X57649Y-36550D01*
X57649Y-38450D01*
X57611Y-38359D01*
X57541Y-38289D01*
X57449Y-38251D01*
X57262Y-38250D01*
X57200Y-38312D01*
X57200Y-38950D01*
X57588Y-38950D01*
X57650Y-38888D01*
X57650Y-39112D01*
X57588Y-39050D01*
X57200Y-39050D01*
X57200Y-39688D01*
X57262Y-39750D01*
X57449Y-39749D01*
X57541Y-39711D01*
X57611Y-39641D01*
X57649Y-39550D01*
X57649Y-39451D01*
X57650Y-39112D01*
X57650Y-47104D01*
X56160Y-45614D01*
X56040Y-45534D01*
X56015Y-45529D01*
X55898Y-45505D01*
X55893Y-45506D01*
X55725Y-45506D01*
X55749Y-45450D01*
X55749Y-45351D01*
X55749Y-44851D01*
X55711Y-44759D01*
X55641Y-44689D01*
X55550Y-44651D01*
X55451Y-44651D01*
X55370Y-44651D01*
X55370Y-44292D01*
X56719Y-42942D01*
X56852Y-42888D01*
X56972Y-42768D01*
X56979Y-42749D01*
X57449Y-42749D01*
X57541Y-42711D01*
X57611Y-42641D01*
X57649Y-42550D01*
X57649Y-42451D01*
X57649Y-41451D01*
X57611Y-41359D01*
X57541Y-41289D01*
X57450Y-41251D01*
X57351Y-41251D01*
X57100Y-41251D01*
X57100Y-39688D01*
X57100Y-39050D01*
X57100Y-38950D01*
X57100Y-38312D01*
X57038Y-38250D01*
X56851Y-38251D01*
X56759Y-38289D01*
X56689Y-38359D01*
X56651Y-38450D01*
X56651Y-38549D01*
X56650Y-38888D01*
X56712Y-38950D01*
X57100Y-38950D01*
X57100Y-39050D01*
X56712Y-39050D01*
X56650Y-39112D01*
X56651Y-39451D01*
X56651Y-39550D01*
X56689Y-39641D01*
X56759Y-39711D01*
X56851Y-39749D01*
X57038Y-39750D01*
X57100Y-39688D01*
X57100Y-41251D01*
X56851Y-41251D01*
X56759Y-41289D01*
X56689Y-41359D01*
X56651Y-41450D01*
X56651Y-41549D01*
X56651Y-41570D01*
X56600Y-41570D01*
X55909Y-41570D01*
X55909Y-39167D01*
X55904Y-38806D01*
X55776Y-38498D01*
X55644Y-38427D01*
X55573Y-38498D01*
X55573Y-38356D01*
X55502Y-38224D01*
X55167Y-38091D01*
X54806Y-38096D01*
X54498Y-38224D01*
X54427Y-38356D01*
X55000Y-38929D01*
X55573Y-38356D01*
X55573Y-38498D01*
X55071Y-39000D01*
X55644Y-39573D01*
X55776Y-39502D01*
X55909Y-39167D01*
X55909Y-41570D01*
X55823Y-41570D01*
X55785Y-41477D01*
X55573Y-41265D01*
X55573Y-39644D01*
X55000Y-39071D01*
X54929Y-39142D01*
X54929Y-39000D01*
X54356Y-38427D01*
X54224Y-38498D01*
X54091Y-38833D01*
X54096Y-39194D01*
X54224Y-39502D01*
X54356Y-39573D01*
X54929Y-39000D01*
X54929Y-39142D01*
X54427Y-39644D01*
X54498Y-39776D01*
X54833Y-39909D01*
X55194Y-39904D01*
X55502Y-39776D01*
X55573Y-39644D01*
X55573Y-41265D01*
X55525Y-41217D01*
X55185Y-41075D01*
X54817Y-41075D01*
X54477Y-41215D01*
X54217Y-41475D01*
X54075Y-41815D01*
X54075Y-42183D01*
X54114Y-42277D01*
X53721Y-42671D01*
X53010Y-42671D01*
X53043Y-42579D01*
X53032Y-42366D01*
X52972Y-42219D01*
X52878Y-42192D01*
X52808Y-42262D01*
X52808Y-42122D01*
X52781Y-42028D01*
X52579Y-41957D01*
X52366Y-41968D01*
X52219Y-42028D01*
X52192Y-42122D01*
X52500Y-42429D01*
X52808Y-42122D01*
X52808Y-42262D01*
X52571Y-42500D01*
X52500Y-42571D01*
X52429Y-42500D01*
X52394Y-42465D01*
X52122Y-42192D01*
X52028Y-42219D01*
X52004Y-42284D01*
X51965Y-42189D01*
X51811Y-42035D01*
X51609Y-41951D01*
X51391Y-41951D01*
X51189Y-42035D01*
X51035Y-42189D01*
X50951Y-42391D01*
X50951Y-42609D01*
X50976Y-42671D01*
X50403Y-42671D01*
X50049Y-42317D01*
X50049Y-33609D01*
X50049Y-33391D01*
X49965Y-33189D01*
X49811Y-33035D01*
X49609Y-32951D01*
X49391Y-32951D01*
X49189Y-33035D01*
X49035Y-33189D01*
X49000Y-33273D01*
X48965Y-33189D01*
X48811Y-33035D01*
X48609Y-32951D01*
X48391Y-32951D01*
X48189Y-33035D01*
X48035Y-33189D01*
X48000Y-33273D01*
X47965Y-33189D01*
X47811Y-33035D01*
X47609Y-32951D01*
X47391Y-32951D01*
X47189Y-33035D01*
X47035Y-33189D01*
X47000Y-33273D01*
X46965Y-33189D01*
X46811Y-33035D01*
X46609Y-32951D01*
X46391Y-32951D01*
X46189Y-33035D01*
X46035Y-33189D01*
X46000Y-33273D01*
X45965Y-33189D01*
X45811Y-33035D01*
X45609Y-32951D01*
X45391Y-32951D01*
X45189Y-33035D01*
X45035Y-33189D01*
X45000Y-33273D01*
X44965Y-33189D01*
X44811Y-33035D01*
X44609Y-32951D01*
X44391Y-32951D01*
X44189Y-33035D01*
X44035Y-33189D01*
X44000Y-33273D01*
X43965Y-33189D01*
X43811Y-33035D01*
X43609Y-32951D01*
X43391Y-32951D01*
X43189Y-33035D01*
X43035Y-33189D01*
X43000Y-33273D01*
X42965Y-33189D01*
X42811Y-33035D01*
X42609Y-32951D01*
X42391Y-32951D01*
X42189Y-33035D01*
X42035Y-33189D01*
X42000Y-33273D01*
X41965Y-33189D01*
X41811Y-33035D01*
X41609Y-32951D01*
X41391Y-32951D01*
X41189Y-33035D01*
X41035Y-33189D01*
X40997Y-33280D01*
X40972Y-33219D01*
X40878Y-33192D01*
X40808Y-33262D01*
X40808Y-33122D01*
X40781Y-33028D01*
X40579Y-32957D01*
X40366Y-32968D01*
X40219Y-33028D01*
X40192Y-33122D01*
X40500Y-33429D01*
X40808Y-33122D01*
X40808Y-33262D01*
X40571Y-33500D01*
X40878Y-33808D01*
X40972Y-33781D01*
X40995Y-33715D01*
X41035Y-33811D01*
X41189Y-33965D01*
X41391Y-34049D01*
X41609Y-34049D01*
X41811Y-33965D01*
X41965Y-33811D01*
X42000Y-33726D01*
X42035Y-33811D01*
X42189Y-33965D01*
X42391Y-34049D01*
X42609Y-34049D01*
X42811Y-33965D01*
X42965Y-33811D01*
X43000Y-33726D01*
X43035Y-33811D01*
X43189Y-33965D01*
X43391Y-34049D01*
X43609Y-34049D01*
X43811Y-33965D01*
X43965Y-33811D01*
X44000Y-33726D01*
X44035Y-33811D01*
X44189Y-33965D01*
X44391Y-34049D01*
X44609Y-34049D01*
X44811Y-33965D01*
X44965Y-33811D01*
X45000Y-33726D01*
X45035Y-33811D01*
X45189Y-33965D01*
X45391Y-34049D01*
X45609Y-34049D01*
X45811Y-33965D01*
X45965Y-33811D01*
X46000Y-33726D01*
X46035Y-33811D01*
X46189Y-33965D01*
X46391Y-34049D01*
X46609Y-34049D01*
X46811Y-33965D01*
X46965Y-33811D01*
X47000Y-33726D01*
X47035Y-33811D01*
X47189Y-33965D01*
X47391Y-34049D01*
X47609Y-34049D01*
X47811Y-33965D01*
X47965Y-33811D01*
X48000Y-33726D01*
X48035Y-33811D01*
X48189Y-33965D01*
X48391Y-34049D01*
X48609Y-34049D01*
X48811Y-33965D01*
X48965Y-33811D01*
X49000Y-33726D01*
X49035Y-33811D01*
X49189Y-33965D01*
X49391Y-34049D01*
X49609Y-34049D01*
X49811Y-33965D01*
X49965Y-33811D01*
X50049Y-33609D01*
X50049Y-42317D01*
X49331Y-41599D01*
X49192Y-41506D01*
X49027Y-41473D01*
X46135Y-41473D01*
X46135Y-40705D01*
X46102Y-40541D01*
X46102Y-40540D01*
X46009Y-40401D01*
X40808Y-35200D01*
X40808Y-33878D01*
X40500Y-33571D01*
X40192Y-33878D01*
X40219Y-33972D01*
X40421Y-34043D01*
X40634Y-34032D01*
X40781Y-33972D01*
X40808Y-33878D01*
X40808Y-35200D01*
X39642Y-34034D01*
X39811Y-33965D01*
X39965Y-33811D01*
X40002Y-33719D01*
X40028Y-33781D01*
X40122Y-33808D01*
X40429Y-33500D01*
X40122Y-33192D01*
X40028Y-33219D01*
X40004Y-33284D01*
X39965Y-33189D01*
X39811Y-33035D01*
X39609Y-32951D01*
X39391Y-32951D01*
X39189Y-33035D01*
X39035Y-33189D01*
X39000Y-33273D01*
X38965Y-33189D01*
X38811Y-33035D01*
X38609Y-32951D01*
X38391Y-32951D01*
X38189Y-33035D01*
X38035Y-33189D01*
X37951Y-33391D01*
X37951Y-33609D01*
X38035Y-33811D01*
X38189Y-33965D01*
X38391Y-34049D01*
X38441Y-34049D01*
X45275Y-40883D01*
X45275Y-41903D01*
X45275Y-46751D01*
X45101Y-46751D01*
X45043Y-46774D01*
X45043Y-42579D01*
X45032Y-42366D01*
X44972Y-42219D01*
X44878Y-42192D01*
X44808Y-42262D01*
X44808Y-42122D01*
X44781Y-42028D01*
X44579Y-41957D01*
X44366Y-41968D01*
X44219Y-42028D01*
X44192Y-42122D01*
X44500Y-42429D01*
X44808Y-42122D01*
X44808Y-42262D01*
X44571Y-42500D01*
X44878Y-42808D01*
X44972Y-42781D01*
X45043Y-42579D01*
X45043Y-46774D01*
X45011Y-46787D01*
X45009Y-46781D01*
X45009Y-43639D01*
X45008Y-43638D01*
X45009Y-43638D01*
X44981Y-43497D01*
X44901Y-43377D01*
X44898Y-43375D01*
X44559Y-43035D01*
X44634Y-43032D01*
X44781Y-42972D01*
X44808Y-42878D01*
X44535Y-42606D01*
X44500Y-42571D01*
X44429Y-42500D01*
X44394Y-42465D01*
X44122Y-42192D01*
X44028Y-42219D01*
X44004Y-42284D01*
X43965Y-42189D01*
X43811Y-42035D01*
X43609Y-41951D01*
X43391Y-41951D01*
X43189Y-42035D01*
X43035Y-42189D01*
X42951Y-42391D01*
X42951Y-42609D01*
X43035Y-42811D01*
X43189Y-42965D01*
X43391Y-43049D01*
X43525Y-43049D01*
X44269Y-43792D01*
X44269Y-44651D01*
X44201Y-44651D01*
X43862Y-44650D01*
X43800Y-44712D01*
X43800Y-45050D01*
X43800Y-45100D01*
X43800Y-45200D01*
X43800Y-45250D01*
X43800Y-45588D01*
X43862Y-45650D01*
X44201Y-45649D01*
X44269Y-45649D01*
X44269Y-45851D01*
X44201Y-45851D01*
X43340Y-45851D01*
X43388Y-45737D01*
X43388Y-45649D01*
X43638Y-45650D01*
X43700Y-45588D01*
X43700Y-45200D01*
X43700Y-45100D01*
X43700Y-44712D01*
X43638Y-44650D01*
X43299Y-44651D01*
X43200Y-44651D01*
X43109Y-44689D01*
X43039Y-44759D01*
X43001Y-44851D01*
X43000Y-45038D01*
X43062Y-45100D01*
X43700Y-45100D01*
X43700Y-45200D01*
X43098Y-45200D01*
X43004Y-45161D01*
X42813Y-45161D01*
X42749Y-45187D01*
X42749Y-44851D01*
X42711Y-44759D01*
X42641Y-44689D01*
X42550Y-44651D01*
X42451Y-44651D01*
X42368Y-44651D01*
X42342Y-44518D01*
X42262Y-44398D01*
X42142Y-44318D01*
X42000Y-44290D01*
X41733Y-44290D01*
X41629Y-44185D01*
X41629Y-43931D01*
X41530Y-43692D01*
X41348Y-43510D01*
X41109Y-43411D01*
X41043Y-43411D01*
X41043Y-42579D01*
X41032Y-42366D01*
X40972Y-42219D01*
X40878Y-42192D01*
X40808Y-42262D01*
X40808Y-42122D01*
X40781Y-42028D01*
X40579Y-41957D01*
X40366Y-41968D01*
X40219Y-42028D01*
X40192Y-42122D01*
X40500Y-42429D01*
X40808Y-42122D01*
X40808Y-42262D01*
X40571Y-42500D01*
X40878Y-42808D01*
X40972Y-42781D01*
X41043Y-42579D01*
X41043Y-43411D01*
X40851Y-43411D01*
X40808Y-43428D01*
X40808Y-42878D01*
X40500Y-42571D01*
X40429Y-42641D01*
X40429Y-42500D01*
X40122Y-42192D01*
X40028Y-42219D01*
X40004Y-42284D01*
X39965Y-42189D01*
X39811Y-42035D01*
X39609Y-41951D01*
X39391Y-41951D01*
X39189Y-42035D01*
X39035Y-42189D01*
X38951Y-42391D01*
X38951Y-42609D01*
X39035Y-42811D01*
X39189Y-42965D01*
X39391Y-43049D01*
X39609Y-43049D01*
X39811Y-42965D01*
X39965Y-42811D01*
X40002Y-42719D01*
X40028Y-42781D01*
X40122Y-42808D01*
X40429Y-42500D01*
X40429Y-42641D01*
X40192Y-42878D01*
X40219Y-42972D01*
X40421Y-43043D01*
X40634Y-43032D01*
X40781Y-42972D01*
X40808Y-42878D01*
X40808Y-43428D01*
X40612Y-43510D01*
X40430Y-43692D01*
X40331Y-43931D01*
X40331Y-44189D01*
X40430Y-44428D01*
X40612Y-44610D01*
X40851Y-44709D01*
X41105Y-44709D01*
X41251Y-44854D01*
X41251Y-44949D01*
X41251Y-45449D01*
X41289Y-45541D01*
X41359Y-45611D01*
X41450Y-45649D01*
X41549Y-45649D01*
X42428Y-45649D01*
X42428Y-45736D01*
X42475Y-45851D01*
X42451Y-45851D01*
X41451Y-45851D01*
X41359Y-45889D01*
X41289Y-45959D01*
X41251Y-46050D01*
X41251Y-46149D01*
X41251Y-46649D01*
X41289Y-46741D01*
X41334Y-46786D01*
X40963Y-46940D01*
X40611Y-47291D01*
X40421Y-47750D01*
X40420Y-47959D01*
X40149Y-47688D01*
X40149Y-44189D01*
X40149Y-43931D01*
X40050Y-43692D01*
X39868Y-43510D01*
X39629Y-43411D01*
X39371Y-43411D01*
X39132Y-43510D01*
X38950Y-43692D01*
X38851Y-43931D01*
X38851Y-44189D01*
X38950Y-44428D01*
X39132Y-44610D01*
X39371Y-44709D01*
X39629Y-44709D01*
X39868Y-44610D01*
X40050Y-44428D01*
X40149Y-44189D01*
X40149Y-47688D01*
X38669Y-46208D01*
X38669Y-44189D01*
X38669Y-43931D01*
X38570Y-43692D01*
X38388Y-43510D01*
X38149Y-43411D01*
X37925Y-43411D01*
X37925Y-37185D01*
X37925Y-36817D01*
X37785Y-36477D01*
X37525Y-36217D01*
X37185Y-36075D01*
X36817Y-36075D01*
X36477Y-36215D01*
X36217Y-36475D01*
X36075Y-36815D01*
X36075Y-37183D01*
X36114Y-37277D01*
X35515Y-37876D01*
X35471Y-37770D01*
X35232Y-37530D01*
X34920Y-37400D01*
X34582Y-37400D01*
X34270Y-37529D01*
X34030Y-37768D01*
X33900Y-38080D01*
X33900Y-38418D01*
X34029Y-38730D01*
X34268Y-38970D01*
X34580Y-39100D01*
X34918Y-39100D01*
X35217Y-38976D01*
X35217Y-40395D01*
X34843Y-40768D01*
X34680Y-40700D01*
X34262Y-40700D01*
X33876Y-40860D01*
X33580Y-41155D01*
X33420Y-41540D01*
X33420Y-41958D01*
X33580Y-42344D01*
X33875Y-42640D01*
X34040Y-42708D01*
X34040Y-44120D01*
X34073Y-44285D01*
X34166Y-44424D01*
X34432Y-44690D01*
X34364Y-44759D01*
X34326Y-44850D01*
X34326Y-44949D01*
X34326Y-46649D01*
X34364Y-46741D01*
X34434Y-46811D01*
X34525Y-46849D01*
X34624Y-46849D01*
X35374Y-46849D01*
X35466Y-46811D01*
X35536Y-46741D01*
X35574Y-46650D01*
X35574Y-46551D01*
X35574Y-44851D01*
X35536Y-44759D01*
X35466Y-44689D01*
X35380Y-44653D01*
X35380Y-44600D01*
X35379Y-44599D01*
X35347Y-44435D01*
X35254Y-44296D01*
X35253Y-44295D01*
X34900Y-43942D01*
X34900Y-42707D01*
X35064Y-42640D01*
X35360Y-42345D01*
X35520Y-41960D01*
X35520Y-41542D01*
X35451Y-41376D01*
X35951Y-40877D01*
X36044Y-40738D01*
X36044Y-40737D01*
X36077Y-40573D01*
X36077Y-38531D01*
X36721Y-37886D01*
X36815Y-37925D01*
X37183Y-37925D01*
X37523Y-37785D01*
X37783Y-37525D01*
X37925Y-37185D01*
X37925Y-43411D01*
X37909Y-43411D01*
X37909Y-39167D01*
X37904Y-38806D01*
X37776Y-38498D01*
X37644Y-38427D01*
X37573Y-38498D01*
X37573Y-38356D01*
X37502Y-38224D01*
X37167Y-38091D01*
X36806Y-38096D01*
X36498Y-38224D01*
X36427Y-38356D01*
X37000Y-38929D01*
X37573Y-38356D01*
X37573Y-38498D01*
X37071Y-39000D01*
X37644Y-39573D01*
X37776Y-39502D01*
X37909Y-39167D01*
X37909Y-43411D01*
X37891Y-43411D01*
X37652Y-43510D01*
X37573Y-43589D01*
X37573Y-39644D01*
X37000Y-39071D01*
X36929Y-39142D01*
X36929Y-39000D01*
X36356Y-38427D01*
X36224Y-38498D01*
X36091Y-38833D01*
X36096Y-39194D01*
X36224Y-39502D01*
X36356Y-39573D01*
X36929Y-39000D01*
X36929Y-39142D01*
X36427Y-39644D01*
X36498Y-39776D01*
X36833Y-39909D01*
X37194Y-39904D01*
X37502Y-39776D01*
X37573Y-39644D01*
X37573Y-43589D01*
X37470Y-43692D01*
X37371Y-43931D01*
X37371Y-44185D01*
X37266Y-44290D01*
X37000Y-44290D01*
X36858Y-44318D01*
X36738Y-44398D01*
X36658Y-44518D01*
X36631Y-44651D01*
X36451Y-44651D01*
X36359Y-44689D01*
X36289Y-44759D01*
X36251Y-44850D01*
X36251Y-44949D01*
X36251Y-45449D01*
X36289Y-45541D01*
X36359Y-45611D01*
X36450Y-45649D01*
X36549Y-45649D01*
X37549Y-45649D01*
X37641Y-45611D01*
X37711Y-45541D01*
X37749Y-45450D01*
X37749Y-45351D01*
X37749Y-44854D01*
X37894Y-44709D01*
X38149Y-44709D01*
X38388Y-44610D01*
X38570Y-44428D01*
X38669Y-44189D01*
X38669Y-46208D01*
X38507Y-46046D01*
X38368Y-45953D01*
X38203Y-45920D01*
X37672Y-45920D01*
X37641Y-45889D01*
X37550Y-45851D01*
X37451Y-45851D01*
X36451Y-45851D01*
X36359Y-45889D01*
X36289Y-45959D01*
X36251Y-46050D01*
X36251Y-46149D01*
X36251Y-46649D01*
X36289Y-46741D01*
X36359Y-46811D01*
X36450Y-46849D01*
X36549Y-46849D01*
X36843Y-46849D01*
X36623Y-46940D01*
X36271Y-47291D01*
X36081Y-47750D01*
X36080Y-48247D01*
X36270Y-48707D01*
X36621Y-49059D01*
X37080Y-49249D01*
X37577Y-49250D01*
X38037Y-49060D01*
X38389Y-48709D01*
X38579Y-48250D01*
X38580Y-47753D01*
X38390Y-47293D01*
X38039Y-46941D01*
X37665Y-46786D01*
X37672Y-46780D01*
X38025Y-46780D01*
X40848Y-49603D01*
X40849Y-49604D01*
X40988Y-49697D01*
X41152Y-49729D01*
X41153Y-49730D01*
X43000Y-49730D01*
X43000Y-49738D01*
X43062Y-49800D01*
X43650Y-49800D01*
X43700Y-49800D01*
X43800Y-49800D01*
X43850Y-49800D01*
X44438Y-49800D01*
X44500Y-49738D01*
X44499Y-49640D01*
X44554Y-49604D01*
X44820Y-49338D01*
X45036Y-49554D01*
X45175Y-49647D01*
X45176Y-49647D01*
X45250Y-49662D01*
X45250Y-49738D01*
X45312Y-49800D01*
X45900Y-49800D01*
X45950Y-49800D01*
X46050Y-49800D01*
X46100Y-49800D01*
X46688Y-49800D01*
X46750Y-49738D01*
X46749Y-49680D01*
X47501Y-49680D01*
X47501Y-50149D01*
X47539Y-50241D01*
X47609Y-50311D01*
X47700Y-50349D01*
X47799Y-50349D01*
X48799Y-50349D01*
X48891Y-50311D01*
X48961Y-50241D01*
X48999Y-50150D01*
X48999Y-50051D01*
X48999Y-49551D01*
X48961Y-49459D01*
X48891Y-49389D01*
X48800Y-49351D01*
X48701Y-49351D01*
X48411Y-49351D01*
X48414Y-49346D01*
X48414Y-49155D01*
X48411Y-49149D01*
X48701Y-49149D01*
X48800Y-49149D01*
X48891Y-49111D01*
X48961Y-49041D01*
X48999Y-48949D01*
X49000Y-48762D01*
X49000Y-48538D01*
X48999Y-48351D01*
X48961Y-48259D01*
X48891Y-48189D01*
X48800Y-48151D01*
X48701Y-48151D01*
X48362Y-48150D01*
X48300Y-48212D01*
X48300Y-48600D01*
X48938Y-48600D01*
X49000Y-48538D01*
X49000Y-48762D01*
X48938Y-48700D01*
X48350Y-48700D01*
X48300Y-48700D01*
X48200Y-48700D01*
X48200Y-48600D01*
X48200Y-48212D01*
X48200Y-46788D01*
X48200Y-46400D01*
X48200Y-46300D01*
X48200Y-45912D01*
X48138Y-45850D01*
X47799Y-45851D01*
X47700Y-45851D01*
X47609Y-45889D01*
X47539Y-45959D01*
X47501Y-46051D01*
X47500Y-46238D01*
X47562Y-46300D01*
X48200Y-46300D01*
X48200Y-46400D01*
X47562Y-46400D01*
X47500Y-46462D01*
X47501Y-46649D01*
X47539Y-46741D01*
X47609Y-46811D01*
X47700Y-46849D01*
X47799Y-46849D01*
X48138Y-46850D01*
X48200Y-46788D01*
X48200Y-48212D01*
X48138Y-48150D01*
X47799Y-48151D01*
X47700Y-48151D01*
X47609Y-48189D01*
X47539Y-48259D01*
X47501Y-48351D01*
X47500Y-48538D01*
X47562Y-48600D01*
X48200Y-48600D01*
X48200Y-48700D01*
X48150Y-48700D01*
X47562Y-48700D01*
X47500Y-48762D01*
X47500Y-48820D01*
X46749Y-48820D01*
X46749Y-48351D01*
X46711Y-48259D01*
X46701Y-48249D01*
X46899Y-48249D01*
X46991Y-48211D01*
X47061Y-48141D01*
X47081Y-48092D01*
X47196Y-48140D01*
X47365Y-48140D01*
X47521Y-48076D01*
X47641Y-47956D01*
X47706Y-47800D01*
X47706Y-47631D01*
X47642Y-47475D01*
X47522Y-47355D01*
X47394Y-47301D01*
X47352Y-47238D01*
X47232Y-47158D01*
X47099Y-47131D01*
X47099Y-46951D01*
X47061Y-46859D01*
X46991Y-46789D01*
X46900Y-46751D01*
X46801Y-46751D01*
X46301Y-46751D01*
X46209Y-46789D01*
X46139Y-46859D01*
X46135Y-46868D01*
X46135Y-45274D01*
X46267Y-45407D01*
X46443Y-45480D01*
X46634Y-45480D01*
X46754Y-45430D01*
X47122Y-45430D01*
X47146Y-45454D01*
X47285Y-45547D01*
X47286Y-45547D01*
X47450Y-45580D01*
X47578Y-45580D01*
X47609Y-45611D01*
X47700Y-45649D01*
X47799Y-45649D01*
X48799Y-45649D01*
X48891Y-45611D01*
X48961Y-45541D01*
X48999Y-45450D01*
X48999Y-45351D01*
X48999Y-44851D01*
X48961Y-44759D01*
X48891Y-44689D01*
X48808Y-44654D01*
X48808Y-42878D01*
X48500Y-42571D01*
X48192Y-42878D01*
X48219Y-42972D01*
X48421Y-43043D01*
X48634Y-43032D01*
X48781Y-42972D01*
X48808Y-42878D01*
X48808Y-44654D01*
X48800Y-44651D01*
X48701Y-44651D01*
X47701Y-44651D01*
X47609Y-44689D01*
X47602Y-44695D01*
X47465Y-44603D01*
X47300Y-44570D01*
X46755Y-44570D01*
X46635Y-44520D01*
X46444Y-44520D01*
X46268Y-44593D01*
X46135Y-44725D01*
X46135Y-42333D01*
X46975Y-42333D01*
X46951Y-42391D01*
X46951Y-42609D01*
X47035Y-42811D01*
X47189Y-42965D01*
X47391Y-43049D01*
X47609Y-43049D01*
X47811Y-42965D01*
X47965Y-42811D01*
X48002Y-42719D01*
X48028Y-42781D01*
X48122Y-42808D01*
X48394Y-42535D01*
X48429Y-42500D01*
X48500Y-42429D01*
X48571Y-42500D01*
X48606Y-42535D01*
X48878Y-42808D01*
X48972Y-42781D01*
X49043Y-42579D01*
X49040Y-42524D01*
X49921Y-43405D01*
X50060Y-43498D01*
X50061Y-43498D01*
X50225Y-43531D01*
X50631Y-43531D01*
X50470Y-43692D01*
X50371Y-43931D01*
X50371Y-44185D01*
X50266Y-44290D01*
X50000Y-44290D01*
X49858Y-44318D01*
X49738Y-44398D01*
X49658Y-44518D01*
X49631Y-44651D01*
X49451Y-44651D01*
X49359Y-44689D01*
X49289Y-44759D01*
X49251Y-44850D01*
X49251Y-44949D01*
X49251Y-45449D01*
X49289Y-45541D01*
X49359Y-45611D01*
X49450Y-45649D01*
X49549Y-45649D01*
X50549Y-45649D01*
X50641Y-45611D01*
X50711Y-45541D01*
X50749Y-45450D01*
X50749Y-45351D01*
X50749Y-44854D01*
X50894Y-44709D01*
X51149Y-44709D01*
X51388Y-44610D01*
X51570Y-44428D01*
X51669Y-44189D01*
X51669Y-43931D01*
X51570Y-43692D01*
X51409Y-43531D01*
X52111Y-43531D01*
X51950Y-43692D01*
X51851Y-43931D01*
X51851Y-44189D01*
X51950Y-44428D01*
X52132Y-44610D01*
X52371Y-44709D01*
X52625Y-44709D01*
X53896Y-45980D01*
X50719Y-45980D01*
X50711Y-45959D01*
X50641Y-45889D01*
X50550Y-45851D01*
X50451Y-45851D01*
X49451Y-45851D01*
X49359Y-45889D01*
X49289Y-45959D01*
X49281Y-45977D01*
X49124Y-45977D01*
X48990Y-46031D01*
X48961Y-45959D01*
X48891Y-45889D01*
X48800Y-45851D01*
X48701Y-45851D01*
X48362Y-45850D01*
X48300Y-45912D01*
X48300Y-46250D01*
X48300Y-46300D01*
X48300Y-46400D01*
X48300Y-46450D01*
X48300Y-46788D01*
X48362Y-46850D01*
X48701Y-46849D01*
X48800Y-46849D01*
X48891Y-46811D01*
X48953Y-46748D01*
X48967Y-46762D01*
X49123Y-46827D01*
X49292Y-46827D01*
X49350Y-46802D01*
X49359Y-46811D01*
X49450Y-46849D01*
X49549Y-46849D01*
X49843Y-46849D01*
X49623Y-46940D01*
X49271Y-47291D01*
X49081Y-47750D01*
X49080Y-48247D01*
X49270Y-48707D01*
X49621Y-49059D01*
X50080Y-49249D01*
X50577Y-49250D01*
X51037Y-49060D01*
X51389Y-48709D01*
X51579Y-48250D01*
X51580Y-47753D01*
X51390Y-47293D01*
X51039Y-46941D01*
X50665Y-46786D01*
X50711Y-46741D01*
X50719Y-46720D01*
X54280Y-46720D01*
X54289Y-46741D01*
X54334Y-46786D01*
X53963Y-46940D01*
X53611Y-47291D01*
X53421Y-47750D01*
X53420Y-48247D01*
X53610Y-48707D01*
X53961Y-49059D01*
X54420Y-49249D01*
X54917Y-49250D01*
X55377Y-49060D01*
X55729Y-48709D01*
X55919Y-48250D01*
X55920Y-47753D01*
X55730Y-47293D01*
X55379Y-46941D01*
X55156Y-46849D01*
X55549Y-46849D01*
X55641Y-46811D01*
X55711Y-46741D01*
X55749Y-46650D01*
X55749Y-46551D01*
X55749Y-46250D01*
X59291Y-49792D01*
X59293Y-49795D01*
X59413Y-49875D01*
X59554Y-49903D01*
X59554Y-49902D01*
X59555Y-49903D01*
X63084Y-49903D01*
X62902Y-49979D01*
X62729Y-50151D01*
X62635Y-50377D01*
X62635Y-50622D01*
X62729Y-50848D01*
X62901Y-51021D01*
X63127Y-51115D01*
X63372Y-51115D01*
X63598Y-51021D01*
X63750Y-50869D01*
X63901Y-51021D01*
X64127Y-51115D01*
X64372Y-51115D01*
X64598Y-51021D01*
X64750Y-50869D01*
X64901Y-51021D01*
X65127Y-51115D01*
X65372Y-51115D01*
X65598Y-51021D01*
X65750Y-50869D01*
X65901Y-51021D01*
X66127Y-51115D01*
X66372Y-51115D01*
X66598Y-51021D01*
X66750Y-50869D01*
X66901Y-51021D01*
X67127Y-51115D01*
X67372Y-51115D01*
X67598Y-51021D01*
X67656Y-50963D01*
X67674Y-51006D01*
X67744Y-51076D01*
X67836Y-51114D01*
X68138Y-51115D01*
X68200Y-51053D01*
X68200Y-50600D01*
X68200Y-50550D01*
X68200Y-50450D01*
X68200Y-50400D01*
X68200Y-49947D01*
X68138Y-49885D01*
X67836Y-49886D01*
X67744Y-49924D01*
X67674Y-49994D01*
X67656Y-50036D01*
X67620Y-50000D01*
X67620Y-48103D01*
X67619Y-48102D01*
X67620Y-48102D01*
X67592Y-47961D01*
X67512Y-47841D01*
X67509Y-47839D01*
X66185Y-46514D01*
X67458Y-45241D01*
X67460Y-45240D01*
X67461Y-45240D01*
X67541Y-45120D01*
X67569Y-44978D01*
X67569Y-44259D01*
X67574Y-44259D01*
X67964Y-44259D01*
X68056Y-44221D01*
X68126Y-44151D01*
X68164Y-44060D01*
X68164Y-43961D01*
X68164Y-43890D01*
X68790Y-43890D01*
X68869Y-43969D01*
X69064Y-44050D01*
X69275Y-44050D01*
X69470Y-43969D01*
X69619Y-43821D01*
X69700Y-43626D01*
X69700Y-52705D01*
X68865Y-52705D01*
X68865Y-50612D01*
X68865Y-50388D01*
X68864Y-50184D01*
X68864Y-50085D01*
X68826Y-49994D01*
X68756Y-49924D01*
X68664Y-49886D01*
X68362Y-49885D01*
X68300Y-49947D01*
X68300Y-50450D01*
X68803Y-50450D01*
X68865Y-50388D01*
X68865Y-50612D01*
X68803Y-50550D01*
X68300Y-50550D01*
X68300Y-51053D01*
X68362Y-51115D01*
X68664Y-51114D01*
X68756Y-51076D01*
X68826Y-51006D01*
X68864Y-50915D01*
X68864Y-50816D01*
X68865Y-50612D01*
X68865Y-52705D01*
X46750Y-52705D01*
X46750Y-49962D01*
X46688Y-49900D01*
X46050Y-49900D01*
X46050Y-50288D01*
X46112Y-50350D01*
X46451Y-50349D01*
X46550Y-50349D01*
X46641Y-50311D01*
X46711Y-50241D01*
X46749Y-50149D01*
X46750Y-49962D01*
X46750Y-52705D01*
X45950Y-52705D01*
X45950Y-50288D01*
X45950Y-49900D01*
X45312Y-49900D01*
X45250Y-49962D01*
X45251Y-50149D01*
X45289Y-50241D01*
X45359Y-50311D01*
X45450Y-50349D01*
X45549Y-50349D01*
X45888Y-50350D01*
X45950Y-50288D01*
X45950Y-52705D01*
X44500Y-52705D01*
X44500Y-49962D01*
X44438Y-49900D01*
X43800Y-49900D01*
X43800Y-50288D01*
X43862Y-50350D01*
X44201Y-50349D01*
X44300Y-50349D01*
X44391Y-50311D01*
X44461Y-50241D01*
X44499Y-50149D01*
X44500Y-49962D01*
X44500Y-52705D01*
X43700Y-52705D01*
X43700Y-50288D01*
X43700Y-49900D01*
X43062Y-49900D01*
X43000Y-49962D01*
X43001Y-50149D01*
X43039Y-50241D01*
X43109Y-50311D01*
X43200Y-50349D01*
X43299Y-50349D01*
X43638Y-50350D01*
X43700Y-50288D01*
X43700Y-52705D01*
X35600Y-52705D01*
X35600Y-49420D01*
X35600Y-49082D01*
X35471Y-48770D01*
X35232Y-48530D01*
X34920Y-48400D01*
X34582Y-48400D01*
X34270Y-48529D01*
X34030Y-48768D01*
X33900Y-49080D01*
X33900Y-49418D01*
X34029Y-49730D01*
X34268Y-49970D01*
X34580Y-50100D01*
X34918Y-50100D01*
X35230Y-49971D01*
X35470Y-49732D01*
X35600Y-49420D01*
X35600Y-52705D01*
X33324Y-52705D01*
X33324Y-47625D01*
X33324Y-47526D01*
X33324Y-46876D01*
X33324Y-36625D01*
X33324Y-36526D01*
X33324Y-35876D01*
X33286Y-35784D01*
X33216Y-35714D01*
X33125Y-35676D01*
X33026Y-35676D01*
X32376Y-35676D01*
X32284Y-35714D01*
X32214Y-35784D01*
X32176Y-35875D01*
X32176Y-35974D01*
X32176Y-36624D01*
X32214Y-36716D01*
X32284Y-36786D01*
X32375Y-36824D01*
X32434Y-36824D01*
X32425Y-36854D01*
X32750Y-37179D01*
X33075Y-36854D01*
X33065Y-36824D01*
X33124Y-36824D01*
X33216Y-36786D01*
X33286Y-36716D01*
X33324Y-36625D01*
X33324Y-46876D01*
X33318Y-46861D01*
X33318Y-37334D01*
X33306Y-37111D01*
X33242Y-36954D01*
X33146Y-36925D01*
X32821Y-37250D01*
X33146Y-37575D01*
X33242Y-37546D01*
X33318Y-37334D01*
X33318Y-46861D01*
X33286Y-46784D01*
X33216Y-46714D01*
X33125Y-46676D01*
X33075Y-46676D01*
X33075Y-37646D01*
X32750Y-37321D01*
X32679Y-37392D01*
X32679Y-37250D01*
X32354Y-36925D01*
X32258Y-36954D01*
X32182Y-37166D01*
X32194Y-37389D01*
X32258Y-37546D01*
X32354Y-37575D01*
X32679Y-37250D01*
X32679Y-37392D01*
X32425Y-37646D01*
X32454Y-37742D01*
X32666Y-37818D01*
X32889Y-37806D01*
X33046Y-37742D01*
X33075Y-37646D01*
X33075Y-46676D01*
X33044Y-46676D01*
X33044Y-41923D01*
X33040Y-41553D01*
X32907Y-41233D01*
X32772Y-41159D01*
X32701Y-41230D01*
X32701Y-41088D01*
X32627Y-40953D01*
X32283Y-40816D01*
X32181Y-40817D01*
X32257Y-40786D01*
X32525Y-40519D01*
X32670Y-40170D01*
X32670Y-39792D01*
X32526Y-39443D01*
X32259Y-39175D01*
X31910Y-39030D01*
X31780Y-39030D01*
X31780Y-31946D01*
X31777Y-31536D01*
X31627Y-31174D01*
X31483Y-31088D01*
X30821Y-31750D01*
X31483Y-32412D01*
X31627Y-32326D01*
X31780Y-31946D01*
X31780Y-39030D01*
X31600Y-39030D01*
X31600Y-38420D01*
X31600Y-38082D01*
X31600Y-34420D01*
X31600Y-34082D01*
X31471Y-33770D01*
X31412Y-33710D01*
X31412Y-32483D01*
X30750Y-31821D01*
X30088Y-32483D01*
X30174Y-32627D01*
X30554Y-32780D01*
X30964Y-32777D01*
X31326Y-32627D01*
X31412Y-32483D01*
X31412Y-33710D01*
X31232Y-33530D01*
X30920Y-33400D01*
X30582Y-33400D01*
X30270Y-33529D01*
X30030Y-33768D01*
X29900Y-34080D01*
X29900Y-34418D01*
X30029Y-34730D01*
X30268Y-34970D01*
X30580Y-35100D01*
X30918Y-35100D01*
X31230Y-34971D01*
X31470Y-34732D01*
X31600Y-34420D01*
X31600Y-38082D01*
X31471Y-37770D01*
X31232Y-37530D01*
X30920Y-37400D01*
X30582Y-37400D01*
X30270Y-37529D01*
X30030Y-37768D01*
X29900Y-38080D01*
X29900Y-38418D01*
X30029Y-38730D01*
X30268Y-38970D01*
X30580Y-39100D01*
X30918Y-39100D01*
X31230Y-38971D01*
X31470Y-38732D01*
X31600Y-38420D01*
X31600Y-39030D01*
X31532Y-39030D01*
X31183Y-39174D01*
X30915Y-39441D01*
X30770Y-39790D01*
X30770Y-40168D01*
X30914Y-40517D01*
X31181Y-40785D01*
X31530Y-40930D01*
X31648Y-40930D01*
X31593Y-40953D01*
X31519Y-41088D01*
X32110Y-41679D01*
X32701Y-41088D01*
X32701Y-41230D01*
X32181Y-41750D01*
X32772Y-42341D01*
X32907Y-42267D01*
X33044Y-41923D01*
X33044Y-46676D01*
X33026Y-46676D01*
X32701Y-46676D01*
X32701Y-42412D01*
X32110Y-41821D01*
X32039Y-41892D01*
X32039Y-41750D01*
X31448Y-41159D01*
X31313Y-41233D01*
X31310Y-41239D01*
X31287Y-41216D01*
X31056Y-41120D01*
X30805Y-41120D01*
X30573Y-41216D01*
X30396Y-41393D01*
X30300Y-41624D01*
X30300Y-41875D01*
X30396Y-42107D01*
X30573Y-42284D01*
X30804Y-42380D01*
X31055Y-42380D01*
X31287Y-42284D01*
X31310Y-42260D01*
X31313Y-42267D01*
X31448Y-42341D01*
X32039Y-41750D01*
X32039Y-41892D01*
X31519Y-42412D01*
X31593Y-42547D01*
X31650Y-42570D01*
X31532Y-42570D01*
X31183Y-42714D01*
X30915Y-42981D01*
X30770Y-43330D01*
X30770Y-43708D01*
X30914Y-44057D01*
X31181Y-44325D01*
X31530Y-44470D01*
X31908Y-44470D01*
X32257Y-44326D01*
X32525Y-44059D01*
X32670Y-43710D01*
X32670Y-43332D01*
X32526Y-42983D01*
X32259Y-42715D01*
X32178Y-42681D01*
X32307Y-42680D01*
X32627Y-42547D01*
X32701Y-42412D01*
X32701Y-46676D01*
X32663Y-46676D01*
X32674Y-46650D01*
X32674Y-46551D01*
X32675Y-45862D01*
X32675Y-45638D01*
X32674Y-44949D01*
X32674Y-44850D01*
X32636Y-44759D01*
X32566Y-44689D01*
X32474Y-44651D01*
X32162Y-44650D01*
X32100Y-44712D01*
X32100Y-45700D01*
X32613Y-45700D01*
X32675Y-45638D01*
X32675Y-45862D01*
X32613Y-45800D01*
X32100Y-45800D01*
X32100Y-46788D01*
X32162Y-46850D01*
X32186Y-46849D01*
X32176Y-46875D01*
X32176Y-46974D01*
X32176Y-47624D01*
X32214Y-47716D01*
X32284Y-47786D01*
X32375Y-47824D01*
X32434Y-47824D01*
X32425Y-47854D01*
X32750Y-48179D01*
X33075Y-47854D01*
X33065Y-47824D01*
X33124Y-47824D01*
X33216Y-47786D01*
X33286Y-47716D01*
X33324Y-47625D01*
X33324Y-52705D01*
X33318Y-52705D01*
X33318Y-48334D01*
X33306Y-48111D01*
X33242Y-47954D01*
X33146Y-47925D01*
X32821Y-48250D01*
X33146Y-48575D01*
X33242Y-48546D01*
X33318Y-48334D01*
X33318Y-52705D01*
X33075Y-52705D01*
X33075Y-48646D01*
X32750Y-48321D01*
X32679Y-48392D01*
X32679Y-48250D01*
X32354Y-47925D01*
X32258Y-47954D01*
X32182Y-48166D01*
X32194Y-48389D01*
X32258Y-48546D01*
X32354Y-48575D01*
X32679Y-48250D01*
X32679Y-48392D01*
X32425Y-48646D01*
X32454Y-48742D01*
X32666Y-48818D01*
X32889Y-48806D01*
X33046Y-48742D01*
X33075Y-48646D01*
X33075Y-52705D01*
X32000Y-52705D01*
X32000Y-46788D01*
X32000Y-45850D01*
X32000Y-45800D01*
X32000Y-45700D01*
X32000Y-45650D01*
X32000Y-44712D01*
X31938Y-44650D01*
X31626Y-44651D01*
X31534Y-44689D01*
X31464Y-44759D01*
X31462Y-44761D01*
X31232Y-44530D01*
X30920Y-44400D01*
X30582Y-44400D01*
X30270Y-44529D01*
X30030Y-44768D01*
X29900Y-45080D01*
X29900Y-45418D01*
X30029Y-45730D01*
X30268Y-45970D01*
X30580Y-46100D01*
X30918Y-46100D01*
X31230Y-45971D01*
X31425Y-45776D01*
X31425Y-45850D01*
X31437Y-45850D01*
X31425Y-45862D01*
X31426Y-46551D01*
X31426Y-46650D01*
X31464Y-46741D01*
X31534Y-46811D01*
X31626Y-46849D01*
X31938Y-46850D01*
X32000Y-46788D01*
X32000Y-52705D01*
X31780Y-52705D01*
X31780Y-51946D01*
X31777Y-51536D01*
X31627Y-51174D01*
X31600Y-51157D01*
X31600Y-49420D01*
X31600Y-49082D01*
X31471Y-48770D01*
X31232Y-48530D01*
X30920Y-48400D01*
X30582Y-48400D01*
X30270Y-48529D01*
X30030Y-48768D01*
X29900Y-49080D01*
X29900Y-49418D01*
X30029Y-49730D01*
X30268Y-49970D01*
X30580Y-50100D01*
X30918Y-50100D01*
X31230Y-49971D01*
X31470Y-49732D01*
X31600Y-49420D01*
X31600Y-51157D01*
X31483Y-51088D01*
X31412Y-51159D01*
X31412Y-51017D01*
X31326Y-50873D01*
X30946Y-50720D01*
X30536Y-50723D01*
X30174Y-50873D01*
X30088Y-51017D01*
X30750Y-51679D01*
X31412Y-51017D01*
X31412Y-51159D01*
X30821Y-51750D01*
X31483Y-52412D01*
X31627Y-52326D01*
X31780Y-51946D01*
X31780Y-52705D01*
X31137Y-52705D01*
X31326Y-52627D01*
X31412Y-52483D01*
X30750Y-51821D01*
X30088Y-52483D01*
X30174Y-52627D01*
X30367Y-52705D01*
X29795Y-52705D01*
X29795Y-52137D01*
X29873Y-52326D01*
X30017Y-52412D01*
X30679Y-51750D01*
X30017Y-51088D01*
X29873Y-51174D01*
X29795Y-51367D01*
X29795Y-32137D01*
X29873Y-32326D01*
X30017Y-32412D01*
X30679Y-31750D01*
X30017Y-31088D01*
X29873Y-31174D01*
X29795Y-31367D01*
X29795Y-30795D01*
X30362Y-30795D01*
X30174Y-30873D01*
X30088Y-31017D01*
X30750Y-31679D01*
X31412Y-31017D01*
X31326Y-30873D01*
X31132Y-30795D01*
X70362Y-30795D01*
X70174Y-30873D01*
X70088Y-31017D01*
X70750Y-31679D01*
X71412Y-31017D01*
X71326Y-30873D01*
X71132Y-30795D01*
X71705Y-30795D01*
X71705Y-31362D01*
X71627Y-31174D01*
X71483Y-31088D01*
X70821Y-31750D01*
X71483Y-32412D01*
X71627Y-32326D01*
X71705Y-32132D01*
X71705Y-38735D01*
X71535Y-38565D01*
X71412Y-38513D01*
X71412Y-32483D01*
X70750Y-31821D01*
X70679Y-31892D01*
X70679Y-31750D01*
X70017Y-31088D01*
X69873Y-31174D01*
X69720Y-31554D01*
X69723Y-31964D01*
X69873Y-32326D01*
X70017Y-32412D01*
X70679Y-31750D01*
X70679Y-31892D01*
X70088Y-32483D01*
X70174Y-32627D01*
X70554Y-32780D01*
X70964Y-32777D01*
X71326Y-32627D01*
X71412Y-32483D01*
X71412Y-38513D01*
X71247Y-38445D01*
X70935Y-38445D01*
X70646Y-38564D01*
X70425Y-38785D01*
X70305Y-39073D01*
X70305Y-39385D01*
X70424Y-39674D01*
X70645Y-39895D01*
X70933Y-40015D01*
X71245Y-40015D01*
X71534Y-39896D01*
X71705Y-39725D01*
X71705Y-43828D01*
X71635Y-43796D01*
X71605Y-43826D01*
X71605Y-41907D01*
X71605Y-41595D01*
X71486Y-41306D01*
X71265Y-41085D01*
X70977Y-40965D01*
X70665Y-40965D01*
X70376Y-41084D01*
X70155Y-41305D01*
X70035Y-41593D01*
X70035Y-41905D01*
X70154Y-42194D01*
X70375Y-42415D01*
X70663Y-42535D01*
X70975Y-42535D01*
X71264Y-42416D01*
X71485Y-42195D01*
X71605Y-41907D01*
X71605Y-43826D01*
X71564Y-43867D01*
X71564Y-43725D01*
X71510Y-43607D01*
X71224Y-43496D01*
X70918Y-43504D01*
X70670Y-43607D01*
X70616Y-43725D01*
X71090Y-44199D01*
X71564Y-43725D01*
X71564Y-43867D01*
X71161Y-44270D01*
X71635Y-44744D01*
X71705Y-44711D01*
X71705Y-51362D01*
X71627Y-51174D01*
X71564Y-51136D01*
X71564Y-44815D01*
X71090Y-44341D01*
X71019Y-44412D01*
X71019Y-44270D01*
X70545Y-43796D01*
X70427Y-43850D01*
X70316Y-44136D01*
X70324Y-44442D01*
X70427Y-44690D01*
X70545Y-44744D01*
X71019Y-44270D01*
X71019Y-44412D01*
X70616Y-44815D01*
X70670Y-44933D01*
X70956Y-45044D01*
X71262Y-45036D01*
X71510Y-44933D01*
X71564Y-44815D01*
X71564Y-51136D01*
X71483Y-51088D01*
X71412Y-51159D01*
X71412Y-51017D01*
X71326Y-50873D01*
X70946Y-50720D01*
X70536Y-50723D01*
X70174Y-50873D01*
X70088Y-51017D01*
X70750Y-51679D01*
X71412Y-51017D01*
X71412Y-51159D01*
X70821Y-51750D01*
X71483Y-52412D01*
X71627Y-52326D01*
X71705Y-52132D01*
X71705Y-52705D01*
M02*
