M48
;DRILL file {PCBnew (2010-03-14)-final} date Fri 10 Jun 2011 04:11:10 PM PDT
;FORMAT={2:4/ absolute / inch / suppress trailing zeros}
R,T
VER,1
FMAT,2
INCH,LZ
TCST,OFF
ICI,OFF
ATC,ON
T1C0.035
T2C0.036
T3C0.050
T4C0.079
T5C0.087
T6C0.102
T7C0.118
T8C0.120
%
M47
G05
M72
T1
X05673Y-05092
X057435Y-05092
X059565Y-05092
X06027Y-05092
X0605Y-0325
X0615Y-0325
T2
X057Y-04425
T3
X0555Y-0378
X0555Y-0388
X0555Y-0448
X0555Y-0468
X0615Y-0378
X0615Y-0388
X0615Y-0448
X0615Y-0468
T4
X0595Y-0305
X0595Y-0345
X0635Y-0305
T5
X05598Y-05284
X0585Y-05257
X06102Y-05284
T6
X05425Y-032138
T7
X05425Y-0345
T8
X0535Y-0365
X0535Y-0415
X0535Y-0515
X05725Y-0315
X0635Y-0365
X0635Y-0415
X0635Y-0515
T0
M30
