G04 (created by PCBNEW-RS274X (2011-05-25)-stable) date Wed 18 Sep 2013 05:27:13 PM EDT*
G01*
G70*
G90*
%MOIN*%
G04 Gerber Fmt 3.4, Leading zero omitted, Abs format*
%FSLAX34Y34*%
G04 APERTURE LIST*
%ADD10C,0.006000*%
%ADD11C,0.010000*%
%ADD12C,0.005000*%
%ADD13C,0.009000*%
%ADD14C,0.012000*%
%ADD15C,0.015000*%
%ADD16C,0.127000*%
%ADD17C,0.076000*%
%ADD18R,0.076000X0.076000*%
%ADD19C,0.180000*%
%ADD20C,0.080000*%
%ADD21R,0.080000X0.045000*%
%ADD22C,0.100000*%
%ADD23R,0.070000X0.120000*%
%ADD24R,0.120000X0.070000*%
%ADD25C,0.220000*%
%ADD26C,0.096000*%
%ADD27C,0.160000*%
%ADD28C,0.140000*%
%ADD29R,0.085000X0.085000*%
%ADD30C,0.085000*%
%ADD31C,0.093000*%
%ADD32R,0.093000X0.093000*%
G04 APERTURE END LIST*
G54D10*
G54D11*
X30362Y-43026D02*
X30362Y-43255D01*
X30362Y-43141D02*
X29962Y-43141D01*
X30019Y-43179D01*
X30057Y-43217D01*
X30076Y-43255D01*
X30133Y-42798D02*
X30114Y-42836D01*
X30095Y-42855D01*
X30057Y-42874D01*
X30038Y-42874D01*
X30000Y-42855D01*
X29981Y-42836D01*
X29962Y-42798D01*
X29962Y-42721D01*
X29981Y-42683D01*
X30000Y-42664D01*
X30038Y-42645D01*
X30057Y-42645D01*
X30095Y-42664D01*
X30114Y-42683D01*
X30133Y-42721D01*
X30133Y-42798D01*
X30152Y-42836D01*
X30171Y-42855D01*
X30210Y-42874D01*
X30286Y-42874D01*
X30324Y-42855D01*
X30343Y-42836D01*
X30362Y-42798D01*
X30362Y-42721D01*
X30343Y-42683D01*
X30324Y-42664D01*
X30286Y-42645D01*
X30210Y-42645D01*
X30171Y-42664D01*
X30152Y-42683D01*
X30133Y-42721D01*
X30210Y-42474D02*
X30210Y-42169D01*
X29962Y-42017D02*
X29962Y-41769D01*
X30114Y-41903D01*
X30114Y-41845D01*
X30133Y-41807D01*
X30152Y-41788D01*
X30190Y-41769D01*
X30286Y-41769D01*
X30324Y-41788D01*
X30343Y-41807D01*
X30362Y-41845D01*
X30362Y-41960D01*
X30343Y-41998D01*
X30324Y-42017D01*
X29962Y-41426D02*
X29962Y-41503D01*
X29981Y-41541D01*
X30000Y-41560D01*
X30057Y-41598D01*
X30133Y-41617D01*
X30286Y-41617D01*
X30324Y-41598D01*
X30343Y-41579D01*
X30362Y-41541D01*
X30362Y-41464D01*
X30343Y-41426D01*
X30324Y-41407D01*
X30286Y-41388D01*
X30190Y-41388D01*
X30152Y-41407D01*
X30133Y-41426D01*
X30114Y-41464D01*
X30114Y-41541D01*
X30133Y-41579D01*
X30152Y-41598D01*
X30190Y-41617D01*
X29962Y-41274D02*
X30362Y-41141D01*
X29962Y-41007D01*
X30362Y-40874D02*
X29962Y-40874D01*
X29962Y-40779D01*
X29981Y-40721D01*
X30019Y-40683D01*
X30057Y-40664D01*
X30133Y-40645D01*
X30190Y-40645D01*
X30267Y-40664D01*
X30305Y-40683D01*
X30343Y-40721D01*
X30362Y-40779D01*
X30362Y-40874D01*
X30324Y-40245D02*
X30343Y-40264D01*
X30362Y-40321D01*
X30362Y-40359D01*
X30343Y-40417D01*
X30305Y-40455D01*
X30267Y-40474D01*
X30190Y-40493D01*
X30133Y-40493D01*
X30057Y-40474D01*
X30019Y-40455D01*
X29981Y-40417D01*
X29962Y-40359D01*
X29962Y-40321D01*
X29981Y-40264D01*
X30000Y-40245D01*
X31769Y-51162D02*
X31769Y-50762D01*
X31864Y-50762D01*
X31922Y-50781D01*
X31960Y-50819D01*
X31979Y-50857D01*
X31998Y-50933D01*
X31998Y-50990D01*
X31979Y-51067D01*
X31960Y-51105D01*
X31922Y-51143D01*
X31864Y-51162D01*
X31769Y-51162D01*
X32169Y-51162D02*
X32169Y-50762D01*
X32569Y-50781D02*
X32531Y-50762D01*
X32474Y-50762D01*
X32416Y-50781D01*
X32378Y-50819D01*
X32359Y-50857D01*
X32340Y-50933D01*
X32340Y-50990D01*
X32359Y-51067D01*
X32378Y-51105D01*
X32416Y-51143D01*
X32474Y-51162D01*
X32512Y-51162D01*
X32569Y-51143D01*
X32588Y-51124D01*
X32588Y-50990D01*
X32512Y-50990D01*
X32759Y-51162D02*
X32759Y-50762D01*
X32892Y-50762D02*
X33121Y-50762D01*
X33006Y-51162D02*
X33006Y-50762D01*
X33235Y-51048D02*
X33426Y-51048D01*
X33197Y-51162D02*
X33330Y-50762D01*
X33464Y-51162D01*
X33788Y-51162D02*
X33597Y-51162D01*
X33597Y-50762D01*
X31702Y-32798D02*
X31893Y-32798D01*
X31664Y-32912D02*
X31797Y-32512D01*
X31931Y-32912D01*
X32064Y-32912D02*
X32064Y-32512D01*
X32293Y-32912D01*
X32293Y-32512D01*
X32464Y-32798D02*
X32655Y-32798D01*
X32426Y-32912D02*
X32559Y-32512D01*
X32693Y-32912D01*
X33017Y-32912D02*
X32826Y-32912D01*
X32826Y-32512D01*
X33226Y-32512D02*
X33303Y-32512D01*
X33341Y-32531D01*
X33379Y-32569D01*
X33398Y-32645D01*
X33398Y-32779D01*
X33379Y-32855D01*
X33341Y-32893D01*
X33303Y-32912D01*
X33226Y-32912D01*
X33188Y-32893D01*
X33150Y-32855D01*
X33131Y-32779D01*
X33131Y-32645D01*
X33150Y-32569D01*
X33188Y-32531D01*
X33226Y-32512D01*
X33779Y-32531D02*
X33741Y-32512D01*
X33684Y-32512D01*
X33626Y-32531D01*
X33588Y-32569D01*
X33569Y-32607D01*
X33550Y-32683D01*
X33550Y-32740D01*
X33569Y-32817D01*
X33588Y-32855D01*
X33626Y-32893D01*
X33684Y-32912D01*
X33722Y-32912D01*
X33779Y-32893D01*
X33798Y-32874D01*
X33798Y-32740D01*
X33722Y-32740D01*
X48922Y-51012D02*
X49017Y-51412D01*
X49094Y-51126D01*
X49170Y-51412D01*
X49265Y-51012D01*
X49417Y-51412D02*
X49417Y-51012D01*
X49607Y-51412D02*
X49607Y-51012D01*
X49702Y-51012D01*
X49760Y-51031D01*
X49798Y-51069D01*
X49817Y-51107D01*
X49836Y-51183D01*
X49836Y-51240D01*
X49817Y-51317D01*
X49798Y-51355D01*
X49760Y-51393D01*
X49702Y-51412D01*
X49607Y-51412D01*
X49950Y-51012D02*
X50179Y-51012D01*
X50064Y-51412D02*
X50064Y-51012D01*
X50312Y-51412D02*
X50312Y-51012D01*
X50312Y-51202D02*
X50541Y-51202D01*
X50541Y-51412D02*
X50541Y-51012D01*
X36450Y-51374D02*
X36431Y-51393D01*
X36374Y-51412D01*
X36336Y-51412D01*
X36278Y-51393D01*
X36240Y-51355D01*
X36221Y-51317D01*
X36202Y-51240D01*
X36202Y-51183D01*
X36221Y-51107D01*
X36240Y-51069D01*
X36278Y-51031D01*
X36336Y-51012D01*
X36374Y-51012D01*
X36431Y-51031D01*
X36450Y-51050D01*
X36621Y-51202D02*
X36755Y-51202D01*
X36812Y-51412D02*
X36621Y-51412D01*
X36621Y-51012D01*
X36812Y-51012D01*
X36983Y-51412D02*
X36983Y-51012D01*
X37212Y-51412D01*
X37212Y-51012D01*
X37345Y-51012D02*
X37574Y-51012D01*
X37459Y-51412D02*
X37459Y-51012D01*
X37707Y-51202D02*
X37841Y-51202D01*
X37898Y-51412D02*
X37707Y-51412D01*
X37707Y-51012D01*
X37898Y-51012D01*
X38298Y-51412D02*
X38164Y-51221D01*
X38069Y-51412D02*
X38069Y-51012D01*
X38222Y-51012D01*
X38260Y-51031D01*
X38279Y-51050D01*
X38298Y-51088D01*
X38298Y-51145D01*
X38279Y-51183D01*
X38260Y-51202D01*
X38222Y-51221D01*
X38069Y-51221D01*
G54D12*
X67597Y-48640D02*
X67578Y-48631D01*
X67550Y-48631D01*
X67521Y-48640D01*
X67502Y-48660D01*
X67493Y-48679D01*
X67483Y-48717D01*
X67483Y-48745D01*
X67493Y-48783D01*
X67502Y-48802D01*
X67521Y-48821D01*
X67550Y-48831D01*
X67569Y-48831D01*
X67597Y-48821D01*
X67607Y-48812D01*
X67607Y-48745D01*
X67569Y-48745D01*
X67693Y-48831D02*
X67693Y-48631D01*
X67807Y-48831D01*
X67807Y-48631D01*
X67903Y-48831D02*
X67903Y-48631D01*
X67950Y-48631D01*
X67979Y-48640D01*
X67998Y-48660D01*
X68007Y-48679D01*
X68017Y-48717D01*
X68017Y-48745D01*
X68007Y-48783D01*
X67998Y-48802D01*
X67979Y-48821D01*
X67950Y-48831D01*
X67903Y-48831D01*
X66631Y-49480D02*
X66631Y-49442D01*
X66640Y-49423D01*
X66660Y-49404D01*
X66698Y-49395D01*
X66764Y-49395D01*
X66802Y-49404D01*
X66821Y-49423D01*
X66831Y-49442D01*
X66831Y-49480D01*
X66821Y-49499D01*
X66802Y-49518D01*
X66764Y-49528D01*
X66698Y-49528D01*
X66660Y-49518D01*
X66640Y-49499D01*
X66631Y-49480D01*
X66831Y-49308D02*
X66631Y-49308D01*
X66631Y-49232D01*
X66640Y-49213D01*
X66650Y-49204D01*
X66669Y-49194D01*
X66698Y-49194D01*
X66717Y-49204D01*
X66726Y-49213D01*
X66736Y-49232D01*
X66736Y-49308D01*
X66631Y-49137D02*
X66631Y-49023D01*
X66831Y-49080D02*
X66631Y-49080D01*
X66831Y-48852D02*
X66831Y-48966D01*
X66831Y-48909D02*
X66631Y-48909D01*
X66660Y-48928D01*
X66679Y-48947D01*
X66688Y-48966D01*
X66631Y-48728D02*
X66631Y-48709D01*
X66640Y-48690D01*
X66650Y-48681D01*
X66669Y-48671D01*
X66707Y-48662D01*
X66755Y-48662D01*
X66793Y-48671D01*
X66812Y-48681D01*
X66821Y-48690D01*
X66831Y-48709D01*
X66831Y-48728D01*
X66821Y-48747D01*
X66812Y-48757D01*
X66793Y-48766D01*
X66755Y-48776D01*
X66707Y-48776D01*
X66669Y-48766D01*
X66650Y-48757D01*
X66640Y-48747D01*
X66631Y-48728D01*
X66831Y-48472D02*
X66831Y-48586D01*
X66831Y-48529D02*
X66631Y-48529D01*
X66660Y-48548D01*
X66679Y-48567D01*
X66688Y-48586D01*
X65631Y-49418D02*
X65793Y-49418D01*
X65812Y-49409D01*
X65821Y-49399D01*
X65831Y-49380D01*
X65831Y-49342D01*
X65821Y-49323D01*
X65812Y-49314D01*
X65793Y-49304D01*
X65631Y-49304D01*
X65774Y-49218D02*
X65774Y-49123D01*
X65831Y-49237D02*
X65631Y-49170D01*
X65831Y-49104D01*
X65726Y-48971D02*
X65726Y-49037D01*
X65831Y-49037D02*
X65631Y-49037D01*
X65631Y-48942D01*
X65698Y-48781D02*
X65831Y-48781D01*
X65621Y-48828D02*
X65764Y-48876D01*
X65764Y-48752D01*
X65650Y-48686D02*
X65640Y-48676D01*
X65631Y-48657D01*
X65631Y-48610D01*
X65640Y-48591D01*
X65650Y-48581D01*
X65669Y-48572D01*
X65688Y-48572D01*
X65717Y-48581D01*
X65831Y-48695D01*
X65831Y-48572D01*
X63774Y-49432D02*
X63774Y-49337D01*
X63831Y-49451D02*
X63631Y-49384D01*
X63831Y-49318D01*
X63831Y-49251D02*
X63631Y-49251D01*
X63631Y-49204D01*
X63640Y-49175D01*
X63660Y-49156D01*
X63679Y-49147D01*
X63717Y-49137D01*
X63745Y-49137D01*
X63783Y-49147D01*
X63802Y-49156D01*
X63821Y-49175D01*
X63831Y-49204D01*
X63831Y-49251D01*
X63631Y-49070D02*
X63631Y-48937D01*
X63831Y-49023D01*
X63831Y-48852D02*
X63831Y-48814D01*
X63821Y-48795D01*
X63812Y-48785D01*
X63783Y-48766D01*
X63745Y-48757D01*
X63669Y-48757D01*
X63650Y-48766D01*
X63640Y-48776D01*
X63631Y-48795D01*
X63631Y-48833D01*
X63640Y-48852D01*
X63650Y-48861D01*
X63669Y-48871D01*
X63717Y-48871D01*
X63736Y-48861D01*
X63745Y-48852D01*
X63755Y-48833D01*
X63755Y-48795D01*
X63745Y-48776D01*
X63736Y-48766D01*
X63717Y-48757D01*
X63631Y-48633D02*
X63631Y-48614D01*
X63640Y-48595D01*
X63650Y-48586D01*
X63669Y-48576D01*
X63707Y-48567D01*
X63755Y-48567D01*
X63793Y-48576D01*
X63812Y-48586D01*
X63821Y-48595D01*
X63831Y-48614D01*
X63831Y-48633D01*
X63821Y-48652D01*
X63812Y-48662D01*
X63793Y-48671D01*
X63755Y-48681D01*
X63707Y-48681D01*
X63669Y-48671D01*
X63650Y-48662D01*
X63640Y-48652D01*
X63631Y-48633D01*
X64831Y-49432D02*
X64831Y-49527D01*
X64631Y-49527D01*
X64831Y-49365D02*
X64631Y-49365D01*
X64774Y-49299D01*
X64631Y-49232D01*
X64831Y-49232D01*
X64631Y-49051D02*
X64631Y-49089D01*
X64640Y-49108D01*
X64650Y-49117D01*
X64679Y-49136D01*
X64717Y-49146D01*
X64793Y-49146D01*
X64812Y-49136D01*
X64821Y-49127D01*
X64831Y-49108D01*
X64831Y-49070D01*
X64821Y-49051D01*
X64812Y-49041D01*
X64793Y-49032D01*
X64745Y-49032D01*
X64726Y-49041D01*
X64717Y-49051D01*
X64707Y-49070D01*
X64707Y-49108D01*
X64717Y-49127D01*
X64726Y-49136D01*
X64745Y-49146D01*
X64831Y-48842D02*
X64831Y-48956D01*
X64831Y-48899D02*
X64631Y-48899D01*
X64660Y-48918D01*
X64679Y-48937D01*
X64688Y-48956D01*
X64631Y-48775D02*
X64631Y-48642D01*
X64831Y-48728D01*
X64650Y-48576D02*
X64640Y-48566D01*
X64631Y-48547D01*
X64631Y-48500D01*
X64640Y-48481D01*
X64650Y-48471D01*
X64669Y-48462D01*
X64688Y-48462D01*
X64717Y-48471D01*
X64831Y-48585D01*
X64831Y-48462D01*
G54D13*
X29500Y-30500D02*
X29500Y-53000D01*
X72000Y-30500D02*
X29500Y-30500D01*
X72000Y-53000D02*
X72000Y-30500D01*
X29500Y-53000D02*
X72000Y-53000D01*
G54D11*
X62254Y-39214D02*
X62311Y-39243D01*
X62407Y-39243D01*
X62445Y-39214D01*
X62464Y-39186D01*
X62483Y-39129D01*
X62483Y-39071D01*
X62464Y-39014D01*
X62445Y-38986D01*
X62407Y-38957D01*
X62330Y-38929D01*
X62292Y-38900D01*
X62273Y-38871D01*
X62254Y-38814D01*
X62254Y-38757D01*
X62273Y-38700D01*
X62292Y-38671D01*
X62330Y-38643D01*
X62426Y-38643D01*
X62483Y-38671D01*
X62807Y-39214D02*
X62769Y-39243D01*
X62692Y-39243D01*
X62654Y-39214D01*
X62635Y-39157D01*
X62635Y-38929D01*
X62654Y-38871D01*
X62692Y-38843D01*
X62769Y-38843D01*
X62807Y-38871D01*
X62826Y-38929D01*
X62826Y-38986D01*
X62635Y-39043D01*
X62997Y-38843D02*
X62997Y-39443D01*
X62997Y-38871D02*
X63035Y-38843D01*
X63112Y-38843D01*
X63150Y-38871D01*
X63169Y-38900D01*
X63188Y-38957D01*
X63188Y-39129D01*
X63169Y-39186D01*
X63150Y-39214D01*
X63112Y-39243D01*
X63035Y-39243D01*
X62997Y-39214D01*
X63302Y-38843D02*
X63454Y-38843D01*
X63359Y-38643D02*
X63359Y-39157D01*
X63378Y-39214D01*
X63416Y-39243D01*
X63454Y-39243D01*
X63874Y-38700D02*
X63893Y-38671D01*
X63931Y-38643D01*
X64027Y-38643D01*
X64065Y-38671D01*
X64084Y-38700D01*
X64103Y-38757D01*
X64103Y-38814D01*
X64084Y-38900D01*
X63855Y-39243D01*
X64103Y-39243D01*
X64350Y-38643D02*
X64389Y-38643D01*
X64427Y-38671D01*
X64446Y-38700D01*
X64465Y-38757D01*
X64484Y-38871D01*
X64484Y-39014D01*
X64465Y-39129D01*
X64446Y-39186D01*
X64427Y-39214D01*
X64389Y-39243D01*
X64350Y-39243D01*
X64312Y-39214D01*
X64293Y-39186D01*
X64274Y-39129D01*
X64255Y-39014D01*
X64255Y-38871D01*
X64274Y-38757D01*
X64293Y-38700D01*
X64312Y-38671D01*
X64350Y-38643D01*
X64865Y-39243D02*
X64636Y-39243D01*
X64750Y-39243D02*
X64750Y-38643D01*
X64712Y-38729D01*
X64674Y-38786D01*
X64636Y-38814D01*
X64998Y-38643D02*
X65246Y-38643D01*
X65112Y-38871D01*
X65170Y-38871D01*
X65208Y-38900D01*
X65227Y-38929D01*
X65246Y-38986D01*
X65246Y-39129D01*
X65227Y-39186D01*
X65208Y-39214D01*
X65170Y-39243D01*
X65055Y-39243D01*
X65017Y-39214D01*
X64998Y-39186D01*
X62693Y-36643D02*
X62826Y-37243D01*
X62960Y-36643D01*
X63246Y-37214D02*
X63208Y-37243D01*
X63131Y-37243D01*
X63093Y-37214D01*
X63074Y-37157D01*
X63074Y-36929D01*
X63093Y-36871D01*
X63131Y-36843D01*
X63208Y-36843D01*
X63246Y-36871D01*
X63265Y-36929D01*
X63265Y-36986D01*
X63074Y-37043D01*
X63436Y-37243D02*
X63436Y-36843D01*
X63436Y-36957D02*
X63455Y-36900D01*
X63474Y-36871D01*
X63512Y-36843D01*
X63551Y-36843D01*
X64199Y-37243D02*
X63970Y-37243D01*
X64084Y-37243D02*
X64084Y-36643D01*
X64046Y-36729D01*
X64008Y-36786D01*
X63970Y-36814D01*
X64370Y-37186D02*
X64389Y-37214D01*
X64370Y-37243D01*
X64351Y-37214D01*
X64370Y-37186D01*
X64370Y-37243D01*
X64636Y-36643D02*
X64675Y-36643D01*
X64713Y-36671D01*
X64732Y-36700D01*
X64751Y-36757D01*
X64770Y-36871D01*
X64770Y-37014D01*
X64751Y-37129D01*
X64732Y-37186D01*
X64713Y-37214D01*
X64675Y-37243D01*
X64636Y-37243D01*
X64598Y-37214D01*
X64579Y-37186D01*
X64560Y-37129D01*
X64541Y-37014D01*
X64541Y-36871D01*
X64560Y-36757D01*
X64579Y-36700D01*
X64598Y-36671D01*
X64636Y-36643D01*
G54D14*
X59208Y-35324D02*
X59208Y-34524D01*
X59436Y-34524D01*
X59494Y-34562D01*
X59522Y-34600D01*
X59551Y-34676D01*
X59551Y-34790D01*
X59522Y-34867D01*
X59494Y-34905D01*
X59436Y-34943D01*
X59208Y-34943D01*
X59894Y-35324D02*
X59836Y-35286D01*
X59808Y-35248D01*
X59779Y-35171D01*
X59779Y-34943D01*
X59808Y-34867D01*
X59836Y-34829D01*
X59894Y-34790D01*
X59979Y-34790D01*
X60036Y-34829D01*
X60065Y-34867D01*
X60094Y-34943D01*
X60094Y-35171D01*
X60065Y-35248D01*
X60036Y-35286D01*
X59979Y-35324D01*
X59894Y-35324D01*
X60294Y-34790D02*
X60408Y-35324D01*
X60522Y-34943D01*
X60637Y-35324D01*
X60751Y-34790D01*
X61208Y-35286D02*
X61151Y-35324D01*
X61037Y-35324D01*
X60980Y-35286D01*
X60951Y-35210D01*
X60951Y-34905D01*
X60980Y-34829D01*
X61037Y-34790D01*
X61151Y-34790D01*
X61208Y-34829D01*
X61237Y-34905D01*
X61237Y-34981D01*
X60951Y-35057D01*
X61494Y-35324D02*
X61494Y-34790D01*
X61494Y-34943D02*
X61522Y-34867D01*
X61551Y-34829D01*
X61608Y-34790D01*
X61665Y-34790D01*
X61836Y-35286D02*
X61922Y-35324D01*
X62065Y-35324D01*
X62122Y-35286D01*
X62151Y-35248D01*
X62179Y-35171D01*
X62179Y-35095D01*
X62151Y-35019D01*
X62122Y-34981D01*
X62065Y-34943D01*
X61951Y-34905D01*
X61893Y-34867D01*
X61865Y-34829D01*
X61836Y-34752D01*
X61836Y-34676D01*
X61865Y-34600D01*
X61893Y-34562D01*
X61951Y-34524D01*
X62093Y-34524D01*
X62179Y-34562D01*
X62436Y-35324D02*
X62436Y-34790D01*
X62436Y-34524D02*
X62407Y-34562D01*
X62436Y-34600D01*
X62464Y-34562D01*
X62436Y-34524D01*
X62436Y-34600D01*
X62979Y-34790D02*
X62979Y-35438D01*
X62950Y-35514D01*
X62922Y-35552D01*
X62865Y-35590D01*
X62779Y-35590D01*
X62722Y-35552D01*
X62979Y-35286D02*
X62922Y-35324D01*
X62808Y-35324D01*
X62750Y-35286D01*
X62722Y-35248D01*
X62693Y-35171D01*
X62693Y-34943D01*
X62722Y-34867D01*
X62750Y-34829D01*
X62808Y-34790D01*
X62922Y-34790D01*
X62979Y-34829D01*
X63265Y-34790D02*
X63265Y-35324D01*
X63265Y-34867D02*
X63293Y-34829D01*
X63351Y-34790D01*
X63436Y-34790D01*
X63493Y-34829D01*
X63522Y-34905D01*
X63522Y-35324D01*
X64065Y-35324D02*
X64065Y-34905D01*
X64036Y-34829D01*
X63979Y-34790D01*
X63865Y-34790D01*
X63808Y-34829D01*
X64065Y-35286D02*
X64008Y-35324D01*
X63865Y-35324D01*
X63808Y-35286D01*
X63779Y-35210D01*
X63779Y-35133D01*
X63808Y-35057D01*
X63865Y-35019D01*
X64008Y-35019D01*
X64065Y-34981D01*
X64437Y-35324D02*
X64379Y-35286D01*
X64351Y-35210D01*
X64351Y-34524D01*
X65008Y-35248D02*
X64979Y-35286D01*
X64893Y-35324D01*
X64836Y-35324D01*
X64751Y-35286D01*
X64693Y-35210D01*
X64665Y-35133D01*
X64636Y-34981D01*
X64636Y-34867D01*
X64665Y-34714D01*
X64693Y-34638D01*
X64751Y-34562D01*
X64836Y-34524D01*
X64893Y-34524D01*
X64979Y-34562D01*
X65008Y-34600D01*
X65351Y-35324D02*
X65293Y-35286D01*
X65265Y-35248D01*
X65236Y-35171D01*
X65236Y-34943D01*
X65265Y-34867D01*
X65293Y-34829D01*
X65351Y-34790D01*
X65436Y-34790D01*
X65493Y-34829D01*
X65522Y-34867D01*
X65551Y-34943D01*
X65551Y-35171D01*
X65522Y-35248D01*
X65493Y-35286D01*
X65436Y-35324D01*
X65351Y-35324D01*
X65808Y-35324D02*
X65808Y-34790D01*
X65808Y-34867D02*
X65836Y-34829D01*
X65894Y-34790D01*
X65979Y-34790D01*
X66036Y-34829D01*
X66065Y-34905D01*
X66065Y-35324D01*
X66065Y-34905D02*
X66094Y-34829D01*
X66151Y-34790D01*
X66236Y-34790D01*
X66294Y-34829D01*
X66322Y-34905D01*
X66322Y-35324D01*
X66608Y-34790D02*
X66608Y-35590D01*
X66608Y-34829D02*
X66665Y-34790D01*
X66779Y-34790D01*
X66836Y-34829D01*
X66865Y-34867D01*
X66894Y-34943D01*
X66894Y-35171D01*
X66865Y-35248D01*
X66836Y-35286D01*
X66779Y-35324D01*
X66665Y-35324D01*
X66608Y-35286D01*
X67408Y-35324D02*
X67408Y-34905D01*
X67379Y-34829D01*
X67322Y-34790D01*
X67208Y-34790D01*
X67151Y-34829D01*
X67408Y-35286D02*
X67351Y-35324D01*
X67208Y-35324D01*
X67151Y-35286D01*
X67122Y-35210D01*
X67122Y-35133D01*
X67151Y-35057D01*
X67208Y-35019D01*
X67351Y-35019D01*
X67408Y-34981D01*
X67694Y-35324D02*
X67694Y-34790D01*
X67694Y-34943D02*
X67722Y-34867D01*
X67751Y-34829D01*
X67808Y-34790D01*
X67865Y-34790D01*
X68293Y-35286D02*
X68236Y-35324D01*
X68122Y-35324D01*
X68065Y-35286D01*
X68036Y-35210D01*
X68036Y-34905D01*
X68065Y-34829D01*
X68122Y-34790D01*
X68236Y-34790D01*
X68293Y-34829D01*
X68322Y-34905D01*
X68322Y-34981D01*
X68036Y-35057D01*
G54D15*
X72000Y-38500D02*
X68500Y-38500D01*
X68500Y-38500D02*
X68500Y-45000D01*
X68500Y-45000D02*
X72000Y-45000D01*
X72000Y-38500D02*
X72000Y-45000D01*
X31650Y-51750D02*
X31632Y-51924D01*
X31582Y-52092D01*
X31499Y-52248D01*
X31388Y-52384D01*
X31253Y-52496D01*
X31098Y-52579D01*
X30930Y-52631D01*
X30756Y-52649D01*
X30582Y-52634D01*
X30413Y-52584D01*
X30258Y-52503D01*
X30121Y-52393D01*
X30008Y-52258D01*
X29923Y-52104D01*
X29870Y-51937D01*
X29851Y-51762D01*
X29865Y-51588D01*
X29914Y-51419D01*
X29994Y-51263D01*
X30103Y-51125D01*
X30237Y-51011D01*
X30390Y-50926D01*
X30557Y-50871D01*
X30732Y-50851D01*
X30906Y-50864D01*
X31075Y-50911D01*
X31232Y-50991D01*
X31370Y-51099D01*
X31485Y-51232D01*
X31572Y-51384D01*
X31627Y-51551D01*
X31649Y-51725D01*
X31650Y-51750D01*
X41650Y-51750D02*
X41632Y-51924D01*
X41582Y-52092D01*
X41499Y-52248D01*
X41388Y-52384D01*
X41253Y-52496D01*
X41098Y-52579D01*
X40930Y-52631D01*
X40756Y-52649D01*
X40582Y-52634D01*
X40413Y-52584D01*
X40258Y-52503D01*
X40121Y-52393D01*
X40008Y-52258D01*
X39923Y-52104D01*
X39870Y-51937D01*
X39851Y-51762D01*
X39865Y-51588D01*
X39914Y-51419D01*
X39994Y-51263D01*
X40103Y-51125D01*
X40237Y-51011D01*
X40390Y-50926D01*
X40557Y-50871D01*
X40732Y-50851D01*
X40906Y-50864D01*
X41075Y-50911D01*
X41232Y-50991D01*
X41370Y-51099D01*
X41485Y-51232D01*
X41572Y-51384D01*
X41627Y-51551D01*
X41649Y-51725D01*
X41650Y-51750D01*
X31650Y-31750D02*
X31632Y-31924D01*
X31582Y-32092D01*
X31499Y-32248D01*
X31388Y-32384D01*
X31253Y-32496D01*
X31098Y-32579D01*
X30930Y-32631D01*
X30756Y-32649D01*
X30582Y-32634D01*
X30413Y-32584D01*
X30258Y-32503D01*
X30121Y-32393D01*
X30008Y-32258D01*
X29923Y-32104D01*
X29870Y-31937D01*
X29851Y-31762D01*
X29865Y-31588D01*
X29914Y-31419D01*
X29994Y-31263D01*
X30103Y-31125D01*
X30237Y-31011D01*
X30390Y-30926D01*
X30557Y-30871D01*
X30732Y-30851D01*
X30906Y-30864D01*
X31075Y-30911D01*
X31232Y-30991D01*
X31370Y-31099D01*
X31485Y-31232D01*
X31572Y-31384D01*
X31627Y-31551D01*
X31649Y-31725D01*
X31650Y-31750D01*
X61650Y-51750D02*
X61632Y-51924D01*
X61582Y-52092D01*
X61499Y-52248D01*
X61388Y-52384D01*
X61253Y-52496D01*
X61098Y-52579D01*
X60930Y-52631D01*
X60756Y-52649D01*
X60582Y-52634D01*
X60413Y-52584D01*
X60258Y-52503D01*
X60121Y-52393D01*
X60008Y-52258D01*
X59923Y-52104D01*
X59870Y-51937D01*
X59851Y-51762D01*
X59865Y-51588D01*
X59914Y-51419D01*
X59994Y-51263D01*
X60103Y-51125D01*
X60237Y-51011D01*
X60390Y-50926D01*
X60557Y-50871D01*
X60732Y-50851D01*
X60906Y-50864D01*
X61075Y-50911D01*
X61232Y-50991D01*
X61370Y-51099D01*
X61485Y-51232D01*
X61572Y-51384D01*
X61627Y-51551D01*
X61649Y-51725D01*
X61650Y-51750D01*
X71650Y-31750D02*
X71632Y-31924D01*
X71582Y-32092D01*
X71499Y-32248D01*
X71388Y-32384D01*
X71253Y-32496D01*
X71098Y-32579D01*
X70930Y-32631D01*
X70756Y-32649D01*
X70582Y-32634D01*
X70413Y-32584D01*
X70258Y-32503D01*
X70121Y-32393D01*
X70008Y-32258D01*
X69923Y-32104D01*
X69870Y-31937D01*
X69851Y-31762D01*
X69865Y-31588D01*
X69914Y-31419D01*
X69994Y-31263D01*
X70103Y-31125D01*
X70237Y-31011D01*
X70390Y-30926D01*
X70557Y-30871D01*
X70732Y-30851D01*
X70906Y-30864D01*
X71075Y-30911D01*
X71232Y-30991D01*
X71370Y-31099D01*
X71485Y-31232D01*
X71572Y-31384D01*
X71627Y-31551D01*
X71649Y-31725D01*
X71650Y-31750D01*
X71650Y-51750D02*
X71632Y-51924D01*
X71582Y-52092D01*
X71499Y-52248D01*
X71388Y-52384D01*
X71253Y-52496D01*
X71098Y-52579D01*
X70930Y-52631D01*
X70756Y-52649D01*
X70582Y-52634D01*
X70413Y-52584D01*
X70258Y-52503D01*
X70121Y-52393D01*
X70008Y-52258D01*
X69923Y-52104D01*
X69870Y-51937D01*
X69851Y-51762D01*
X69865Y-51588D01*
X69914Y-51419D01*
X69994Y-51263D01*
X70103Y-51125D01*
X70237Y-51011D01*
X70390Y-50926D01*
X70557Y-50871D01*
X70732Y-50851D01*
X70906Y-50864D01*
X71075Y-50911D01*
X71232Y-50991D01*
X71370Y-51099D01*
X71485Y-51232D01*
X71572Y-51384D01*
X71627Y-51551D01*
X71649Y-51725D01*
X71650Y-51750D01*
X49000Y-36500D02*
X39000Y-36500D01*
X49000Y-34000D02*
X39000Y-34000D01*
X39000Y-34000D02*
X39000Y-42000D01*
X39000Y-42000D02*
X49000Y-42000D01*
X49000Y-42000D02*
X49000Y-34000D01*
X50500Y-32500D02*
X54000Y-32500D01*
X54000Y-32500D02*
X54000Y-33000D01*
X50500Y-32500D02*
X50500Y-35000D01*
X50500Y-35000D02*
X54000Y-35000D01*
X38000Y-33000D02*
X38000Y-43000D01*
X38000Y-43000D02*
X54000Y-43000D01*
X54000Y-43000D02*
X54000Y-33000D01*
X54000Y-33000D02*
X38000Y-33000D01*
X58500Y-44500D02*
X58495Y-44548D01*
X58481Y-44595D01*
X58458Y-44638D01*
X58427Y-44676D01*
X58389Y-44707D01*
X58346Y-44730D01*
X58300Y-44744D01*
X58251Y-44749D01*
X58204Y-44745D01*
X58157Y-44731D01*
X58114Y-44709D01*
X58076Y-44678D01*
X58044Y-44641D01*
X58021Y-44598D01*
X58006Y-44551D01*
X58001Y-44503D01*
X58005Y-44455D01*
X58018Y-44408D01*
X58040Y-44365D01*
X58071Y-44327D01*
X58108Y-44295D01*
X58150Y-44271D01*
X58197Y-44256D01*
X58245Y-44251D01*
X58293Y-44254D01*
X58340Y-44267D01*
X58383Y-44289D01*
X58422Y-44319D01*
X58454Y-44356D01*
X58478Y-44399D01*
X58493Y-44445D01*
X58499Y-44494D01*
X58500Y-44500D01*
X57750Y-44000D02*
X57750Y-48500D01*
X57750Y-48500D02*
X60750Y-48500D01*
X60750Y-48500D02*
X60750Y-44000D01*
X60750Y-44000D02*
X57750Y-44000D01*
X44500Y-48000D02*
X47500Y-48000D01*
X47500Y-48000D02*
X47500Y-50500D01*
X47500Y-50500D02*
X44500Y-50500D01*
X44500Y-50500D02*
X44500Y-48000D01*
X45250Y-48500D02*
X45245Y-48548D01*
X45231Y-48595D01*
X45208Y-48638D01*
X45177Y-48676D01*
X45139Y-48707D01*
X45096Y-48730D01*
X45050Y-48744D01*
X45001Y-48749D01*
X44954Y-48745D01*
X44907Y-48731D01*
X44864Y-48709D01*
X44826Y-48678D01*
X44794Y-48641D01*
X44771Y-48598D01*
X44756Y-48551D01*
X44751Y-48503D01*
X44755Y-48455D01*
X44768Y-48408D01*
X44790Y-48365D01*
X44821Y-48327D01*
X44858Y-48295D01*
X44900Y-48271D01*
X44947Y-48256D01*
X44995Y-48251D01*
X45043Y-48254D01*
X45090Y-48267D01*
X45133Y-48289D01*
X45172Y-48319D01*
X45204Y-48356D01*
X45228Y-48399D01*
X45243Y-48445D01*
X45249Y-48494D01*
X45250Y-48500D01*
G54D12*
X60270Y-42650D02*
X60268Y-42663D01*
X60264Y-42676D01*
X60258Y-42688D01*
X60249Y-42699D01*
X60239Y-42708D01*
X60227Y-42714D01*
X60214Y-42718D01*
X60200Y-42719D01*
X60187Y-42718D01*
X60174Y-42714D01*
X60162Y-42708D01*
X60152Y-42700D01*
X60143Y-42689D01*
X60136Y-42677D01*
X60132Y-42664D01*
X60131Y-42650D01*
X60132Y-42638D01*
X60135Y-42625D01*
X60142Y-42613D01*
X60150Y-42602D01*
X60161Y-42593D01*
X60172Y-42586D01*
X60185Y-42582D01*
X60199Y-42581D01*
X60212Y-42582D01*
X60225Y-42585D01*
X60237Y-42591D01*
X60248Y-42600D01*
X60257Y-42610D01*
X60263Y-42622D01*
X60268Y-42635D01*
X60269Y-42649D01*
X60270Y-42650D01*
X59550Y-43800D02*
X60150Y-43800D01*
X60150Y-43800D02*
X60150Y-42700D01*
X60150Y-42700D02*
X59550Y-42700D01*
X58950Y-42700D02*
X58350Y-42700D01*
X58350Y-42700D02*
X58350Y-43800D01*
X58350Y-43800D02*
X58950Y-43800D01*
X64270Y-44650D02*
X64268Y-44663D01*
X64264Y-44676D01*
X64258Y-44688D01*
X64249Y-44699D01*
X64239Y-44708D01*
X64227Y-44714D01*
X64214Y-44718D01*
X64200Y-44719D01*
X64187Y-44718D01*
X64174Y-44714D01*
X64162Y-44708D01*
X64152Y-44700D01*
X64143Y-44689D01*
X64136Y-44677D01*
X64132Y-44664D01*
X64131Y-44650D01*
X64132Y-44638D01*
X64135Y-44625D01*
X64142Y-44613D01*
X64150Y-44602D01*
X64161Y-44593D01*
X64172Y-44586D01*
X64185Y-44582D01*
X64199Y-44581D01*
X64212Y-44582D01*
X64225Y-44585D01*
X64237Y-44591D01*
X64248Y-44600D01*
X64257Y-44610D01*
X64263Y-44622D01*
X64268Y-44635D01*
X64269Y-44649D01*
X64270Y-44650D01*
X63550Y-45800D02*
X64150Y-45800D01*
X64150Y-45800D02*
X64150Y-44700D01*
X64150Y-44700D02*
X63550Y-44700D01*
X62950Y-44700D02*
X62350Y-44700D01*
X62350Y-44700D02*
X62350Y-45800D01*
X62350Y-45800D02*
X62950Y-45800D01*
X60270Y-48650D02*
X60268Y-48663D01*
X60264Y-48676D01*
X60258Y-48688D01*
X60249Y-48699D01*
X60239Y-48708D01*
X60227Y-48714D01*
X60214Y-48718D01*
X60200Y-48719D01*
X60187Y-48718D01*
X60174Y-48714D01*
X60162Y-48708D01*
X60152Y-48700D01*
X60143Y-48689D01*
X60136Y-48677D01*
X60132Y-48664D01*
X60131Y-48650D01*
X60132Y-48638D01*
X60135Y-48625D01*
X60142Y-48613D01*
X60150Y-48602D01*
X60161Y-48593D01*
X60172Y-48586D01*
X60185Y-48582D01*
X60199Y-48581D01*
X60212Y-48582D01*
X60225Y-48585D01*
X60237Y-48591D01*
X60248Y-48600D01*
X60257Y-48610D01*
X60263Y-48622D01*
X60268Y-48635D01*
X60269Y-48649D01*
X60270Y-48650D01*
X59550Y-49800D02*
X60150Y-49800D01*
X60150Y-49800D02*
X60150Y-48700D01*
X60150Y-48700D02*
X59550Y-48700D01*
X58950Y-48700D02*
X58350Y-48700D01*
X58350Y-48700D02*
X58350Y-49800D01*
X58350Y-49800D02*
X58950Y-49800D01*
X64670Y-47950D02*
X64668Y-47963D01*
X64664Y-47976D01*
X64658Y-47988D01*
X64649Y-47999D01*
X64639Y-48008D01*
X64627Y-48014D01*
X64614Y-48018D01*
X64600Y-48019D01*
X64587Y-48018D01*
X64574Y-48014D01*
X64562Y-48008D01*
X64552Y-48000D01*
X64543Y-47989D01*
X64536Y-47977D01*
X64532Y-47964D01*
X64531Y-47950D01*
X64532Y-47938D01*
X64535Y-47925D01*
X64542Y-47913D01*
X64550Y-47902D01*
X64561Y-47893D01*
X64572Y-47886D01*
X64585Y-47882D01*
X64599Y-47881D01*
X64612Y-47882D01*
X64625Y-47885D01*
X64637Y-47891D01*
X64648Y-47900D01*
X64657Y-47910D01*
X64663Y-47922D01*
X64668Y-47935D01*
X64669Y-47949D01*
X64670Y-47950D01*
X63450Y-47300D02*
X63450Y-47900D01*
X63450Y-47900D02*
X64550Y-47900D01*
X64550Y-47900D02*
X64550Y-47300D01*
X64550Y-46700D02*
X64550Y-46100D01*
X64550Y-46100D02*
X63450Y-46100D01*
X63450Y-46100D02*
X63450Y-46700D01*
X63170Y-47950D02*
X63168Y-47963D01*
X63164Y-47976D01*
X63158Y-47988D01*
X63149Y-47999D01*
X63139Y-48008D01*
X63127Y-48014D01*
X63114Y-48018D01*
X63100Y-48019D01*
X63087Y-48018D01*
X63074Y-48014D01*
X63062Y-48008D01*
X63052Y-48000D01*
X63043Y-47989D01*
X63036Y-47977D01*
X63032Y-47964D01*
X63031Y-47950D01*
X63032Y-47938D01*
X63035Y-47925D01*
X63042Y-47913D01*
X63050Y-47902D01*
X63061Y-47893D01*
X63072Y-47886D01*
X63085Y-47882D01*
X63099Y-47881D01*
X63112Y-47882D01*
X63125Y-47885D01*
X63137Y-47891D01*
X63148Y-47900D01*
X63157Y-47910D01*
X63163Y-47922D01*
X63168Y-47935D01*
X63169Y-47949D01*
X63170Y-47950D01*
X61950Y-47300D02*
X61950Y-47900D01*
X61950Y-47900D02*
X63050Y-47900D01*
X63050Y-47900D02*
X63050Y-47300D01*
X63050Y-46700D02*
X63050Y-46100D01*
X63050Y-46100D02*
X61950Y-46100D01*
X61950Y-46100D02*
X61950Y-46700D01*
G54D15*
X40500Y-48000D02*
X40480Y-48194D01*
X40424Y-48381D01*
X40332Y-48553D01*
X40209Y-48704D01*
X40059Y-48829D01*
X39887Y-48921D01*
X39701Y-48979D01*
X39506Y-48999D01*
X39313Y-48982D01*
X39126Y-48927D01*
X38953Y-48836D01*
X38801Y-48714D01*
X38675Y-48564D01*
X38581Y-48393D01*
X38522Y-48207D01*
X38501Y-48013D01*
X38517Y-47820D01*
X38571Y-47632D01*
X38660Y-47459D01*
X38781Y-47306D01*
X38930Y-47179D01*
X39100Y-47084D01*
X39286Y-47024D01*
X39480Y-47001D01*
X39673Y-47016D01*
X39861Y-47068D01*
X40035Y-47156D01*
X40189Y-47276D01*
X40317Y-47424D01*
X40413Y-47594D01*
X40475Y-47779D01*
X40499Y-47973D01*
X40500Y-48000D01*
X43000Y-50500D02*
X36000Y-50500D01*
X36000Y-50500D02*
X36000Y-43500D01*
X36000Y-43500D02*
X43000Y-43500D01*
X43000Y-43500D02*
X43000Y-50500D01*
X53500Y-48000D02*
X53480Y-48194D01*
X53424Y-48381D01*
X53332Y-48553D01*
X53209Y-48704D01*
X53059Y-48829D01*
X52887Y-48921D01*
X52701Y-48979D01*
X52506Y-48999D01*
X52313Y-48982D01*
X52126Y-48927D01*
X51953Y-48836D01*
X51801Y-48714D01*
X51675Y-48564D01*
X51581Y-48393D01*
X51522Y-48207D01*
X51501Y-48013D01*
X51517Y-47820D01*
X51571Y-47632D01*
X51660Y-47459D01*
X51781Y-47306D01*
X51930Y-47179D01*
X52100Y-47084D01*
X52286Y-47024D01*
X52480Y-47001D01*
X52673Y-47016D01*
X52861Y-47068D01*
X53035Y-47156D01*
X53189Y-47276D01*
X53317Y-47424D01*
X53413Y-47594D01*
X53475Y-47779D01*
X53499Y-47973D01*
X53500Y-48000D01*
X56000Y-50500D02*
X49000Y-50500D01*
X49000Y-50500D02*
X49000Y-43500D01*
X49000Y-43500D02*
X56000Y-43500D01*
X56000Y-43500D02*
X56000Y-50500D01*
X41650Y-31750D02*
X41632Y-31924D01*
X41582Y-32092D01*
X41499Y-32248D01*
X41388Y-32384D01*
X41253Y-32496D01*
X41098Y-32579D01*
X40930Y-32631D01*
X40756Y-32649D01*
X40582Y-32634D01*
X40413Y-32584D01*
X40258Y-32503D01*
X40121Y-32393D01*
X40008Y-32258D01*
X39923Y-32104D01*
X39870Y-31937D01*
X39851Y-31762D01*
X39865Y-31588D01*
X39914Y-31419D01*
X39994Y-31263D01*
X40103Y-31125D01*
X40237Y-31011D01*
X40390Y-30926D01*
X40557Y-30871D01*
X40732Y-30851D01*
X40906Y-30864D01*
X41075Y-30911D01*
X41232Y-30991D01*
X41370Y-31099D01*
X41485Y-31232D01*
X41572Y-31384D01*
X41627Y-31551D01*
X41649Y-31725D01*
X41650Y-31750D01*
X29750Y-33250D02*
X35750Y-33250D01*
X29750Y-39250D02*
X35750Y-39250D01*
X29750Y-38250D02*
X29450Y-38250D01*
X29450Y-38250D02*
X29450Y-34250D01*
X29450Y-34250D02*
X29750Y-34250D01*
X33750Y-39250D02*
X33750Y-33250D01*
X29750Y-39250D02*
X29750Y-33250D01*
X35750Y-39250D02*
X35750Y-33250D01*
X29750Y-44250D02*
X35750Y-44250D01*
X29750Y-50250D02*
X35750Y-50250D01*
X29750Y-49250D02*
X29450Y-49250D01*
X29450Y-49250D02*
X29450Y-45250D01*
X29450Y-45250D02*
X29750Y-45250D01*
X33750Y-50250D02*
X33750Y-44250D01*
X29750Y-50250D02*
X29750Y-44250D01*
X35750Y-50250D02*
X35750Y-44250D01*
X44500Y-44500D02*
X47500Y-44500D01*
X47500Y-44500D02*
X47500Y-47000D01*
X47500Y-47000D02*
X44500Y-47000D01*
X44500Y-47000D02*
X44500Y-44500D01*
X45250Y-45000D02*
X45245Y-45048D01*
X45231Y-45095D01*
X45208Y-45138D01*
X45177Y-45176D01*
X45139Y-45207D01*
X45096Y-45230D01*
X45050Y-45244D01*
X45001Y-45249D01*
X44954Y-45245D01*
X44907Y-45231D01*
X44864Y-45209D01*
X44826Y-45178D01*
X44794Y-45141D01*
X44771Y-45098D01*
X44756Y-45051D01*
X44751Y-45003D01*
X44755Y-44955D01*
X44768Y-44908D01*
X44790Y-44865D01*
X44821Y-44827D01*
X44858Y-44795D01*
X44900Y-44771D01*
X44947Y-44756D01*
X44995Y-44751D01*
X45043Y-44754D01*
X45090Y-44767D01*
X45133Y-44789D01*
X45172Y-44819D01*
X45204Y-44856D01*
X45228Y-44899D01*
X45243Y-44945D01*
X45249Y-44994D01*
X45250Y-45000D01*
X63000Y-51250D02*
X68500Y-51250D01*
X63000Y-49750D02*
X68500Y-49750D01*
X67500Y-49250D02*
X67750Y-49750D01*
X67750Y-49750D02*
X68000Y-49250D01*
X68000Y-49250D02*
X67500Y-49250D01*
X63000Y-49750D02*
X63000Y-51250D01*
X68500Y-51250D02*
X68500Y-49750D01*
X61650Y-31750D02*
X61632Y-31924D01*
X61582Y-32092D01*
X61499Y-32248D01*
X61388Y-32384D01*
X61253Y-32496D01*
X61098Y-32579D01*
X60930Y-32631D01*
X60756Y-32649D01*
X60582Y-32634D01*
X60413Y-32584D01*
X60258Y-32503D01*
X60121Y-32393D01*
X60008Y-32258D01*
X59923Y-32104D01*
X59870Y-31937D01*
X59851Y-31762D01*
X59865Y-31588D01*
X59914Y-31419D01*
X59994Y-31263D01*
X60103Y-31125D01*
X60237Y-31011D01*
X60390Y-30926D01*
X60557Y-30871D01*
X60732Y-30851D01*
X60906Y-30864D01*
X61075Y-30911D01*
X61232Y-30991D01*
X61370Y-31099D01*
X61485Y-31232D01*
X61572Y-31384D01*
X61627Y-31551D01*
X61649Y-31725D01*
X61650Y-31750D01*
G54D11*
X68705Y-45662D02*
X68705Y-45262D01*
X68858Y-45262D01*
X68896Y-45281D01*
X68915Y-45300D01*
X68934Y-45338D01*
X68934Y-45395D01*
X68915Y-45433D01*
X68896Y-45452D01*
X68858Y-45471D01*
X68705Y-45471D01*
X69315Y-45662D02*
X69086Y-45662D01*
X69200Y-45662D02*
X69200Y-45262D01*
X69162Y-45319D01*
X69124Y-45357D01*
X69086Y-45376D01*
X69612Y-40033D02*
X69612Y-39785D01*
X69764Y-39919D01*
X69764Y-39861D01*
X69783Y-39823D01*
X69802Y-39804D01*
X69840Y-39785D01*
X69936Y-39785D01*
X69974Y-39804D01*
X69993Y-39823D01*
X70012Y-39861D01*
X70012Y-39976D01*
X69993Y-40014D01*
X69974Y-40033D01*
X70012Y-40535D02*
X70012Y-40764D01*
X70012Y-40650D02*
X69612Y-40650D01*
X69669Y-40688D01*
X69707Y-40726D01*
X69726Y-40764D01*
X69650Y-42864D02*
X69631Y-42845D01*
X69612Y-42807D01*
X69612Y-42711D01*
X69631Y-42673D01*
X69650Y-42654D01*
X69688Y-42635D01*
X69726Y-42635D01*
X69783Y-42654D01*
X70012Y-42883D01*
X70012Y-42635D01*
X69745Y-43423D02*
X70012Y-43423D01*
X69593Y-43519D02*
X69879Y-43614D01*
X69879Y-43366D01*
G54D14*
X38015Y-31893D02*
X38415Y-32493D01*
X38415Y-31893D02*
X38015Y-32493D01*
X38957Y-32493D02*
X38614Y-32493D01*
X38786Y-32493D02*
X38786Y-31893D01*
X38729Y-31979D01*
X38671Y-32036D01*
X38614Y-32064D01*
X43543Y-31893D02*
X43943Y-32493D01*
X43943Y-31893D02*
X43543Y-32493D01*
X44171Y-32493D02*
X44171Y-31893D01*
X44399Y-31893D01*
X44457Y-31921D01*
X44485Y-31950D01*
X44514Y-32007D01*
X44514Y-32093D01*
X44485Y-32150D01*
X44457Y-32179D01*
X44399Y-32207D01*
X44171Y-32207D01*
X45114Y-32493D02*
X44914Y-32207D01*
X44771Y-32493D02*
X44771Y-31893D01*
X44999Y-31893D01*
X45057Y-31921D01*
X45085Y-31950D01*
X45114Y-32007D01*
X45114Y-32093D01*
X45085Y-32150D01*
X45057Y-32179D01*
X44999Y-32207D01*
X44771Y-32207D01*
X45485Y-31893D02*
X45599Y-31893D01*
X45657Y-31921D01*
X45714Y-31979D01*
X45742Y-32093D01*
X45742Y-32293D01*
X45714Y-32407D01*
X45657Y-32464D01*
X45599Y-32493D01*
X45485Y-32493D01*
X45428Y-32464D01*
X45371Y-32407D01*
X45342Y-32293D01*
X45342Y-32093D01*
X45371Y-31979D01*
X45428Y-31921D01*
X45485Y-31893D01*
X45914Y-31893D02*
X46257Y-31893D01*
X46086Y-32493D02*
X46086Y-31893D01*
X46571Y-31893D02*
X46685Y-31893D01*
X46743Y-31921D01*
X46800Y-31979D01*
X46828Y-32093D01*
X46828Y-32293D01*
X46800Y-32407D01*
X46743Y-32464D01*
X46685Y-32493D01*
X46571Y-32493D01*
X46514Y-32464D01*
X46457Y-32407D01*
X46428Y-32293D01*
X46428Y-32093D01*
X46457Y-31979D01*
X46514Y-31921D01*
X46571Y-31893D01*
X47372Y-32493D02*
X47086Y-32493D01*
X47086Y-31893D01*
X47543Y-32321D02*
X47829Y-32321D01*
X47486Y-32493D02*
X47686Y-31893D01*
X47886Y-32493D01*
X48286Y-32179D02*
X48372Y-32207D01*
X48400Y-32236D01*
X48429Y-32293D01*
X48429Y-32379D01*
X48400Y-32436D01*
X48372Y-32464D01*
X48314Y-32493D01*
X48086Y-32493D01*
X48086Y-31893D01*
X48286Y-31893D01*
X48343Y-31921D01*
X48372Y-31950D01*
X48400Y-32007D01*
X48400Y-32064D01*
X48372Y-32121D01*
X48343Y-32150D01*
X48286Y-32179D01*
X48086Y-32179D01*
X51243Y-33643D02*
X51243Y-34129D01*
X51271Y-34186D01*
X51300Y-34214D01*
X51357Y-34243D01*
X51471Y-34243D01*
X51529Y-34214D01*
X51557Y-34186D01*
X51586Y-34129D01*
X51586Y-33643D01*
X51843Y-34214D02*
X51929Y-34243D01*
X52072Y-34243D01*
X52129Y-34214D01*
X52158Y-34186D01*
X52186Y-34129D01*
X52186Y-34071D01*
X52158Y-34014D01*
X52129Y-33986D01*
X52072Y-33957D01*
X51958Y-33929D01*
X51900Y-33900D01*
X51872Y-33871D01*
X51843Y-33814D01*
X51843Y-33757D01*
X51872Y-33700D01*
X51900Y-33671D01*
X51958Y-33643D01*
X52100Y-33643D01*
X52186Y-33671D01*
X52643Y-33929D02*
X52729Y-33957D01*
X52757Y-33986D01*
X52786Y-34043D01*
X52786Y-34129D01*
X52757Y-34186D01*
X52729Y-34214D01*
X52671Y-34243D01*
X52443Y-34243D01*
X52443Y-33643D01*
X52643Y-33643D01*
X52700Y-33671D01*
X52729Y-33700D01*
X52757Y-33757D01*
X52757Y-33814D01*
X52729Y-33871D01*
X52700Y-33900D01*
X52643Y-33929D01*
X52443Y-33929D01*
X52171Y-41207D02*
X52143Y-41264D01*
X52143Y-41350D01*
X52171Y-41435D01*
X52229Y-41493D01*
X52286Y-41521D01*
X52400Y-41550D01*
X52486Y-41550D01*
X52600Y-41521D01*
X52657Y-41493D01*
X52714Y-41435D01*
X52743Y-41350D01*
X52743Y-41293D01*
X52714Y-41207D01*
X52686Y-41178D01*
X52486Y-41178D01*
X52486Y-41293D01*
X52743Y-40921D02*
X52143Y-40921D01*
X52743Y-40578D01*
X52143Y-40578D01*
X52743Y-40292D02*
X52143Y-40292D01*
X52143Y-40149D01*
X52171Y-40064D01*
X52229Y-40006D01*
X52286Y-39978D01*
X52400Y-39949D01*
X52486Y-39949D01*
X52600Y-39978D01*
X52657Y-40006D01*
X52714Y-40064D01*
X52743Y-40149D01*
X52743Y-40292D01*
X48171Y-41207D02*
X48143Y-41264D01*
X48143Y-41350D01*
X48171Y-41435D01*
X48229Y-41493D01*
X48286Y-41521D01*
X48400Y-41550D01*
X48486Y-41550D01*
X48600Y-41521D01*
X48657Y-41493D01*
X48714Y-41435D01*
X48743Y-41350D01*
X48743Y-41293D01*
X48714Y-41207D01*
X48686Y-41178D01*
X48486Y-41178D01*
X48486Y-41293D01*
X48743Y-40921D02*
X48143Y-40921D01*
X48743Y-40578D01*
X48143Y-40578D01*
X48743Y-40292D02*
X48143Y-40292D01*
X48143Y-40149D01*
X48171Y-40064D01*
X48229Y-40006D01*
X48286Y-39978D01*
X48400Y-39949D01*
X48486Y-39949D01*
X48600Y-39978D01*
X48657Y-40006D01*
X48714Y-40064D01*
X48743Y-40149D01*
X48743Y-40292D01*
X44171Y-41207D02*
X44143Y-41264D01*
X44143Y-41350D01*
X44171Y-41435D01*
X44229Y-41493D01*
X44286Y-41521D01*
X44400Y-41550D01*
X44486Y-41550D01*
X44600Y-41521D01*
X44657Y-41493D01*
X44714Y-41435D01*
X44743Y-41350D01*
X44743Y-41293D01*
X44714Y-41207D01*
X44686Y-41178D01*
X44486Y-41178D01*
X44486Y-41293D01*
X44743Y-40921D02*
X44143Y-40921D01*
X44743Y-40578D01*
X44143Y-40578D01*
X44743Y-40292D02*
X44143Y-40292D01*
X44143Y-40149D01*
X44171Y-40064D01*
X44229Y-40006D01*
X44286Y-39978D01*
X44400Y-39949D01*
X44486Y-39949D01*
X44600Y-39978D01*
X44657Y-40006D01*
X44714Y-40064D01*
X44743Y-40149D01*
X44743Y-40292D01*
X40171Y-41207D02*
X40143Y-41264D01*
X40143Y-41350D01*
X40171Y-41435D01*
X40229Y-41493D01*
X40286Y-41521D01*
X40400Y-41550D01*
X40486Y-41550D01*
X40600Y-41521D01*
X40657Y-41493D01*
X40714Y-41435D01*
X40743Y-41350D01*
X40743Y-41293D01*
X40714Y-41207D01*
X40686Y-41178D01*
X40486Y-41178D01*
X40486Y-41293D01*
X40743Y-40921D02*
X40143Y-40921D01*
X40743Y-40578D01*
X40143Y-40578D01*
X40743Y-40292D02*
X40143Y-40292D01*
X40143Y-40149D01*
X40171Y-40064D01*
X40229Y-40006D01*
X40286Y-39978D01*
X40400Y-39949D01*
X40486Y-39949D01*
X40600Y-39978D01*
X40657Y-40006D01*
X40714Y-40064D01*
X40743Y-40149D01*
X40743Y-40292D01*
X46615Y-34593D02*
X46615Y-34993D01*
X46472Y-34364D02*
X46329Y-34793D01*
X46701Y-34793D01*
X38514Y-37457D02*
X38514Y-37000D01*
X38743Y-37229D02*
X38286Y-37229D01*
X38143Y-36428D02*
X38143Y-36714D01*
X38429Y-36743D01*
X38400Y-36714D01*
X38371Y-36657D01*
X38371Y-36514D01*
X38400Y-36457D01*
X38429Y-36428D01*
X38486Y-36400D01*
X38629Y-36400D01*
X38686Y-36428D01*
X38714Y-36457D01*
X38743Y-36514D01*
X38743Y-36657D01*
X38714Y-36714D01*
X38686Y-36743D01*
X38143Y-36229D02*
X38743Y-36029D01*
X38143Y-35829D01*
X38743Y-35172D02*
X38143Y-35172D01*
X38743Y-34886D02*
X38143Y-34886D01*
X38743Y-34543D01*
X38143Y-34543D01*
X39514Y-38357D02*
X39514Y-37900D01*
X39143Y-37328D02*
X39143Y-37614D01*
X39429Y-37643D01*
X39400Y-37614D01*
X39371Y-37557D01*
X39371Y-37414D01*
X39400Y-37357D01*
X39429Y-37328D01*
X39486Y-37300D01*
X39629Y-37300D01*
X39686Y-37328D01*
X39714Y-37357D01*
X39743Y-37414D01*
X39743Y-37557D01*
X39714Y-37614D01*
X39686Y-37643D01*
X39143Y-37129D02*
X39743Y-36929D01*
X39143Y-36729D01*
X39143Y-35958D02*
X39143Y-35844D01*
X39171Y-35786D01*
X39229Y-35729D01*
X39343Y-35701D01*
X39543Y-35701D01*
X39657Y-35729D01*
X39714Y-35786D01*
X39743Y-35844D01*
X39743Y-35958D01*
X39714Y-36015D01*
X39657Y-36072D01*
X39543Y-36101D01*
X39343Y-36101D01*
X39229Y-36072D01*
X39171Y-36015D01*
X39143Y-35958D01*
X39143Y-35443D02*
X39629Y-35443D01*
X39686Y-35415D01*
X39714Y-35386D01*
X39743Y-35329D01*
X39743Y-35215D01*
X39714Y-35157D01*
X39686Y-35129D01*
X39629Y-35100D01*
X39143Y-35100D01*
X39143Y-34900D02*
X39143Y-34557D01*
X39743Y-34728D02*
X39143Y-34728D01*
X40171Y-35707D02*
X40143Y-35764D01*
X40143Y-35850D01*
X40171Y-35935D01*
X40229Y-35993D01*
X40286Y-36021D01*
X40400Y-36050D01*
X40486Y-36050D01*
X40600Y-36021D01*
X40657Y-35993D01*
X40714Y-35935D01*
X40743Y-35850D01*
X40743Y-35793D01*
X40714Y-35707D01*
X40686Y-35678D01*
X40486Y-35678D01*
X40486Y-35793D01*
X40743Y-35421D02*
X40143Y-35421D01*
X40743Y-35078D01*
X40143Y-35078D01*
X40743Y-34792D02*
X40143Y-34792D01*
X40143Y-34649D01*
X40171Y-34564D01*
X40229Y-34506D01*
X40286Y-34478D01*
X40400Y-34449D01*
X40486Y-34449D01*
X40600Y-34478D01*
X40657Y-34506D01*
X40714Y-34564D01*
X40743Y-34649D01*
X40743Y-34792D01*
X41514Y-35514D02*
X41514Y-35057D01*
X41743Y-35286D02*
X41286Y-35286D01*
X41143Y-34828D02*
X41143Y-34457D01*
X41371Y-34657D01*
X41371Y-34571D01*
X41400Y-34514D01*
X41429Y-34485D01*
X41486Y-34457D01*
X41629Y-34457D01*
X41686Y-34485D01*
X41714Y-34514D01*
X41743Y-34571D01*
X41743Y-34743D01*
X41714Y-34800D01*
X41686Y-34828D01*
X42472Y-34393D02*
X42529Y-34393D01*
X42586Y-34421D01*
X42615Y-34450D01*
X42644Y-34507D01*
X42672Y-34621D01*
X42672Y-34764D01*
X42644Y-34879D01*
X42615Y-34936D01*
X42586Y-34964D01*
X42529Y-34993D01*
X42472Y-34993D01*
X42415Y-34964D01*
X42386Y-34936D01*
X42358Y-34879D01*
X42329Y-34764D01*
X42329Y-34621D01*
X42358Y-34507D01*
X42386Y-34450D01*
X42415Y-34421D01*
X42472Y-34393D01*
X43672Y-34993D02*
X43329Y-34993D01*
X43501Y-34993D02*
X43501Y-34393D01*
X43444Y-34479D01*
X43386Y-34536D01*
X43329Y-34564D01*
X44329Y-34450D02*
X44358Y-34421D01*
X44415Y-34393D01*
X44558Y-34393D01*
X44615Y-34421D01*
X44644Y-34450D01*
X44672Y-34507D01*
X44672Y-34564D01*
X44644Y-34650D01*
X44301Y-34993D01*
X44672Y-34993D01*
X45301Y-34393D02*
X45672Y-34393D01*
X45472Y-34621D01*
X45558Y-34621D01*
X45615Y-34650D01*
X45644Y-34679D01*
X45672Y-34736D01*
X45672Y-34879D01*
X45644Y-34936D01*
X45615Y-34964D01*
X45558Y-34993D01*
X45386Y-34993D01*
X45329Y-34964D01*
X45301Y-34936D01*
X47644Y-34393D02*
X47358Y-34393D01*
X47329Y-34679D01*
X47358Y-34650D01*
X47415Y-34621D01*
X47558Y-34621D01*
X47615Y-34650D01*
X47644Y-34679D01*
X47672Y-34736D01*
X47672Y-34879D01*
X47644Y-34936D01*
X47615Y-34964D01*
X47558Y-34993D01*
X47415Y-34993D01*
X47358Y-34964D01*
X47329Y-34936D01*
X48615Y-34393D02*
X48501Y-34393D01*
X48444Y-34421D01*
X48415Y-34450D01*
X48358Y-34536D01*
X48329Y-34650D01*
X48329Y-34879D01*
X48358Y-34936D01*
X48386Y-34964D01*
X48444Y-34993D01*
X48558Y-34993D01*
X48615Y-34964D01*
X48644Y-34936D01*
X48672Y-34879D01*
X48672Y-34736D01*
X48644Y-34679D01*
X48615Y-34650D01*
X48558Y-34621D01*
X48444Y-34621D01*
X48386Y-34650D01*
X48358Y-34679D01*
X48329Y-34736D01*
X49301Y-34393D02*
X49701Y-34393D01*
X49444Y-34993D01*
X51429Y-41599D02*
X51429Y-41399D01*
X51743Y-41313D02*
X51743Y-41599D01*
X51143Y-41599D01*
X51143Y-41313D01*
X51143Y-41113D02*
X51743Y-40713D01*
X51143Y-40713D02*
X51743Y-41113D01*
X51143Y-40571D02*
X51143Y-40228D01*
X51743Y-40399D02*
X51143Y-40399D01*
X51143Y-39657D02*
X51143Y-39314D01*
X51743Y-39485D02*
X51143Y-39485D01*
X47571Y-41536D02*
X47571Y-41250D01*
X47743Y-41593D02*
X47143Y-41393D01*
X47743Y-41193D01*
X47143Y-41050D02*
X47743Y-40907D01*
X47314Y-40793D01*
X47743Y-40679D01*
X47143Y-40536D01*
X47171Y-39993D02*
X47143Y-40050D01*
X47143Y-40136D01*
X47171Y-40221D01*
X47229Y-40279D01*
X47286Y-40307D01*
X47400Y-40336D01*
X47486Y-40336D01*
X47600Y-40307D01*
X47657Y-40279D01*
X47714Y-40221D01*
X47743Y-40136D01*
X47743Y-40079D01*
X47714Y-39993D01*
X47686Y-39964D01*
X47486Y-39964D01*
X47486Y-40079D01*
X43686Y-41164D02*
X43714Y-41193D01*
X43743Y-41279D01*
X43743Y-41336D01*
X43714Y-41421D01*
X43657Y-41479D01*
X43600Y-41507D01*
X43486Y-41536D01*
X43400Y-41536D01*
X43286Y-41507D01*
X43229Y-41479D01*
X43171Y-41421D01*
X43143Y-41336D01*
X43143Y-41279D01*
X43171Y-41193D01*
X43200Y-41164D01*
X43743Y-40907D02*
X43143Y-40907D01*
X43429Y-40907D02*
X43429Y-40564D01*
X43743Y-40564D02*
X43143Y-40564D01*
X43200Y-40307D02*
X43171Y-40278D01*
X43143Y-40221D01*
X43143Y-40078D01*
X43171Y-40021D01*
X43200Y-39992D01*
X43257Y-39964D01*
X43314Y-39964D01*
X43400Y-39992D01*
X43743Y-40335D01*
X43743Y-39964D01*
X39686Y-41164D02*
X39714Y-41193D01*
X39743Y-41279D01*
X39743Y-41336D01*
X39714Y-41421D01*
X39657Y-41479D01*
X39600Y-41507D01*
X39486Y-41536D01*
X39400Y-41536D01*
X39286Y-41507D01*
X39229Y-41479D01*
X39171Y-41421D01*
X39143Y-41336D01*
X39143Y-41279D01*
X39171Y-41193D01*
X39200Y-41164D01*
X39743Y-40907D02*
X39143Y-40907D01*
X39429Y-40907D02*
X39429Y-40564D01*
X39743Y-40564D02*
X39143Y-40564D01*
X39743Y-39964D02*
X39743Y-40307D01*
X39743Y-40135D02*
X39143Y-40135D01*
X39229Y-40192D01*
X39286Y-40250D01*
X39314Y-40307D01*
X61043Y-43393D02*
X61043Y-43879D01*
X61071Y-43936D01*
X61100Y-43964D01*
X61157Y-43993D01*
X61271Y-43993D01*
X61329Y-43964D01*
X61357Y-43936D01*
X61386Y-43879D01*
X61386Y-43393D01*
X61615Y-43393D02*
X61986Y-43393D01*
X61786Y-43621D01*
X61872Y-43621D01*
X61929Y-43650D01*
X61958Y-43679D01*
X61986Y-43736D01*
X61986Y-43879D01*
X61958Y-43936D01*
X61929Y-43964D01*
X61872Y-43993D01*
X61700Y-43993D01*
X61643Y-43964D01*
X61615Y-43936D01*
X57994Y-45893D02*
X57994Y-46379D01*
X58022Y-46436D01*
X58051Y-46464D01*
X58108Y-46493D01*
X58222Y-46493D01*
X58280Y-46464D01*
X58308Y-46436D01*
X58337Y-46379D01*
X58337Y-45893D01*
X58594Y-46321D02*
X58880Y-46321D01*
X58537Y-46493D02*
X58737Y-45893D01*
X58937Y-46493D01*
X59337Y-46179D02*
X59137Y-46179D01*
X59137Y-46493D02*
X59137Y-45893D01*
X59423Y-45893D01*
X59908Y-46093D02*
X59908Y-46493D01*
X59765Y-45864D02*
X59622Y-46293D01*
X59994Y-46293D01*
X60193Y-45950D02*
X60222Y-45921D01*
X60279Y-45893D01*
X60422Y-45893D01*
X60479Y-45921D01*
X60508Y-45950D01*
X60536Y-46007D01*
X60536Y-46064D01*
X60508Y-46150D01*
X60165Y-46493D01*
X60536Y-46493D01*
X43293Y-47393D02*
X43293Y-47879D01*
X43321Y-47936D01*
X43350Y-47964D01*
X43407Y-47993D01*
X43521Y-47993D01*
X43579Y-47964D01*
X43607Y-47936D01*
X43636Y-47879D01*
X43636Y-47393D01*
X43893Y-47450D02*
X43922Y-47421D01*
X43979Y-47393D01*
X44122Y-47393D01*
X44179Y-47421D01*
X44208Y-47450D01*
X44236Y-47507D01*
X44236Y-47564D01*
X44208Y-47650D01*
X43865Y-47993D01*
X44236Y-47993D01*
X44701Y-51171D02*
X44987Y-51171D01*
X44644Y-51343D02*
X44844Y-50743D01*
X45044Y-51343D01*
X45244Y-51343D02*
X45244Y-50743D01*
X45387Y-50743D01*
X45472Y-50771D01*
X45530Y-50829D01*
X45558Y-50886D01*
X45587Y-51000D01*
X45587Y-51086D01*
X45558Y-51200D01*
X45530Y-51257D01*
X45472Y-51314D01*
X45387Y-51343D01*
X45244Y-51343D01*
X45787Y-50743D02*
X46187Y-50743D01*
X45930Y-51343D01*
X46443Y-51343D02*
X46558Y-51343D01*
X46615Y-51314D01*
X46643Y-51286D01*
X46701Y-51200D01*
X46729Y-51086D01*
X46729Y-50857D01*
X46701Y-50800D01*
X46672Y-50771D01*
X46615Y-50743D01*
X46501Y-50743D01*
X46443Y-50771D01*
X46415Y-50800D01*
X46386Y-50857D01*
X46386Y-51000D01*
X46415Y-51057D01*
X46443Y-51086D01*
X46501Y-51114D01*
X46615Y-51114D01*
X46672Y-51086D01*
X46701Y-51057D01*
X46729Y-51000D01*
X47100Y-50743D02*
X47157Y-50743D01*
X47214Y-50771D01*
X47243Y-50800D01*
X47272Y-50857D01*
X47300Y-50971D01*
X47300Y-51114D01*
X47272Y-51229D01*
X47243Y-51286D01*
X47214Y-51314D01*
X47157Y-51343D01*
X47100Y-51343D01*
X47043Y-51314D01*
X47014Y-51286D01*
X46986Y-51229D01*
X46957Y-51114D01*
X46957Y-50971D01*
X46986Y-50857D01*
X47014Y-50800D01*
X47043Y-50771D01*
X47100Y-50743D01*
G54D12*
X59107Y-42521D02*
X59007Y-42379D01*
X58935Y-42521D02*
X58935Y-42221D01*
X59050Y-42221D01*
X59078Y-42236D01*
X59093Y-42250D01*
X59107Y-42279D01*
X59107Y-42321D01*
X59093Y-42350D01*
X59078Y-42364D01*
X59050Y-42379D01*
X58935Y-42379D01*
X59393Y-42521D02*
X59221Y-42521D01*
X59307Y-42521D02*
X59307Y-42221D01*
X59278Y-42264D01*
X59250Y-42293D01*
X59221Y-42307D01*
X59579Y-42221D02*
X59607Y-42221D01*
X59636Y-42236D01*
X59650Y-42250D01*
X59664Y-42279D01*
X59679Y-42336D01*
X59679Y-42407D01*
X59664Y-42464D01*
X59650Y-42493D01*
X59636Y-42507D01*
X59607Y-42521D01*
X59579Y-42521D01*
X59550Y-42507D01*
X59536Y-42493D01*
X59521Y-42464D01*
X59507Y-42407D01*
X59507Y-42336D01*
X59521Y-42279D01*
X59536Y-42250D01*
X59550Y-42236D01*
X59579Y-42221D01*
X59171Y-43600D02*
X59371Y-43600D01*
X59057Y-43671D02*
X59271Y-43743D01*
X59271Y-43557D01*
X59071Y-43385D02*
X59071Y-43357D01*
X59086Y-43328D01*
X59100Y-43314D01*
X59129Y-43300D01*
X59186Y-43285D01*
X59257Y-43285D01*
X59314Y-43300D01*
X59343Y-43314D01*
X59357Y-43328D01*
X59371Y-43357D01*
X59371Y-43385D01*
X59357Y-43414D01*
X59343Y-43428D01*
X59314Y-43443D01*
X59257Y-43457D01*
X59186Y-43457D01*
X59129Y-43443D01*
X59100Y-43428D01*
X59086Y-43414D01*
X59071Y-43385D01*
X59100Y-43171D02*
X59086Y-43157D01*
X59071Y-43128D01*
X59071Y-43057D01*
X59086Y-43028D01*
X59100Y-43014D01*
X59129Y-42999D01*
X59157Y-42999D01*
X59200Y-43014D01*
X59371Y-43185D01*
X59371Y-42999D01*
X59371Y-42871D02*
X59071Y-42871D01*
X59257Y-42842D02*
X59371Y-42756D01*
X59171Y-42756D02*
X59286Y-42871D01*
X63200Y-44571D02*
X63100Y-44429D01*
X63028Y-44571D02*
X63028Y-44271D01*
X63143Y-44271D01*
X63171Y-44286D01*
X63186Y-44300D01*
X63200Y-44329D01*
X63200Y-44371D01*
X63186Y-44400D01*
X63171Y-44414D01*
X63143Y-44429D01*
X63028Y-44429D01*
X63343Y-44571D02*
X63400Y-44571D01*
X63428Y-44557D01*
X63443Y-44543D01*
X63471Y-44500D01*
X63486Y-44443D01*
X63486Y-44329D01*
X63471Y-44300D01*
X63457Y-44286D01*
X63428Y-44271D01*
X63371Y-44271D01*
X63343Y-44286D01*
X63328Y-44300D01*
X63314Y-44329D01*
X63314Y-44400D01*
X63328Y-44429D01*
X63343Y-44443D01*
X63371Y-44457D01*
X63428Y-44457D01*
X63457Y-44443D01*
X63471Y-44429D01*
X63486Y-44400D01*
X63171Y-45600D02*
X63371Y-45600D01*
X63057Y-45671D02*
X63271Y-45743D01*
X63271Y-45557D01*
X63071Y-45385D02*
X63071Y-45357D01*
X63086Y-45328D01*
X63100Y-45314D01*
X63129Y-45300D01*
X63186Y-45285D01*
X63257Y-45285D01*
X63314Y-45300D01*
X63343Y-45314D01*
X63357Y-45328D01*
X63371Y-45357D01*
X63371Y-45385D01*
X63357Y-45414D01*
X63343Y-45428D01*
X63314Y-45443D01*
X63257Y-45457D01*
X63186Y-45457D01*
X63129Y-45443D01*
X63100Y-45428D01*
X63086Y-45414D01*
X63071Y-45385D01*
X63100Y-45171D02*
X63086Y-45157D01*
X63071Y-45128D01*
X63071Y-45057D01*
X63086Y-45028D01*
X63100Y-45014D01*
X63129Y-44999D01*
X63157Y-44999D01*
X63200Y-45014D01*
X63371Y-45185D01*
X63371Y-44999D01*
X63371Y-44871D02*
X63071Y-44871D01*
X63257Y-44842D02*
X63371Y-44756D01*
X63171Y-44756D02*
X63286Y-44871D01*
X59200Y-50271D02*
X59100Y-50129D01*
X59028Y-50271D02*
X59028Y-49971D01*
X59143Y-49971D01*
X59171Y-49986D01*
X59186Y-50000D01*
X59200Y-50029D01*
X59200Y-50071D01*
X59186Y-50100D01*
X59171Y-50114D01*
X59143Y-50129D01*
X59028Y-50129D01*
X59300Y-49971D02*
X59500Y-49971D01*
X59371Y-50271D01*
X59071Y-49443D02*
X59071Y-49586D01*
X59214Y-49600D01*
X59200Y-49586D01*
X59186Y-49557D01*
X59186Y-49486D01*
X59200Y-49457D01*
X59214Y-49443D01*
X59243Y-49428D01*
X59314Y-49428D01*
X59343Y-49443D01*
X59357Y-49457D01*
X59371Y-49486D01*
X59371Y-49557D01*
X59357Y-49586D01*
X59343Y-49600D01*
X59071Y-49242D02*
X59071Y-49214D01*
X59086Y-49185D01*
X59100Y-49171D01*
X59129Y-49157D01*
X59186Y-49142D01*
X59257Y-49142D01*
X59314Y-49157D01*
X59343Y-49171D01*
X59357Y-49185D01*
X59371Y-49214D01*
X59371Y-49242D01*
X59357Y-49271D01*
X59343Y-49285D01*
X59314Y-49300D01*
X59257Y-49314D01*
X59186Y-49314D01*
X59129Y-49300D01*
X59100Y-49285D01*
X59086Y-49271D01*
X59071Y-49242D01*
X59371Y-49014D02*
X59071Y-49014D01*
X59257Y-48985D02*
X59371Y-48899D01*
X59171Y-48899D02*
X59286Y-49014D01*
X63807Y-48343D02*
X63793Y-48357D01*
X63750Y-48371D01*
X63721Y-48371D01*
X63678Y-48357D01*
X63650Y-48329D01*
X63635Y-48300D01*
X63621Y-48243D01*
X63621Y-48200D01*
X63635Y-48143D01*
X63650Y-48114D01*
X63678Y-48086D01*
X63721Y-48071D01*
X63750Y-48071D01*
X63793Y-48086D01*
X63807Y-48100D01*
X64093Y-48371D02*
X63921Y-48371D01*
X64007Y-48371D02*
X64007Y-48071D01*
X63978Y-48114D01*
X63950Y-48143D01*
X63921Y-48157D01*
X64350Y-48171D02*
X64350Y-48371D01*
X64279Y-48057D02*
X64207Y-48271D01*
X64393Y-48271D01*
X63508Y-46821D02*
X63536Y-46821D01*
X63565Y-46836D01*
X63579Y-46850D01*
X63593Y-46879D01*
X63608Y-46936D01*
X63608Y-47007D01*
X63593Y-47064D01*
X63579Y-47093D01*
X63565Y-47107D01*
X63536Y-47121D01*
X63508Y-47121D01*
X63479Y-47107D01*
X63465Y-47093D01*
X63450Y-47064D01*
X63436Y-47007D01*
X63436Y-46936D01*
X63450Y-46879D01*
X63465Y-46850D01*
X63479Y-46836D01*
X63508Y-46821D01*
X63736Y-47093D02*
X63751Y-47107D01*
X63736Y-47121D01*
X63722Y-47107D01*
X63736Y-47093D01*
X63736Y-47121D01*
X64037Y-47121D02*
X63865Y-47121D01*
X63951Y-47121D02*
X63951Y-46821D01*
X63922Y-46864D01*
X63894Y-46893D01*
X63865Y-46907D01*
X64294Y-46921D02*
X64294Y-47121D01*
X64165Y-46921D02*
X64165Y-47079D01*
X64180Y-47107D01*
X64208Y-47121D01*
X64251Y-47121D01*
X64280Y-47107D01*
X64294Y-47093D01*
X64536Y-46964D02*
X64436Y-46964D01*
X64436Y-47121D02*
X64436Y-46821D01*
X64579Y-46821D01*
X62307Y-48343D02*
X62293Y-48357D01*
X62250Y-48371D01*
X62221Y-48371D01*
X62178Y-48357D01*
X62150Y-48329D01*
X62135Y-48300D01*
X62121Y-48243D01*
X62121Y-48200D01*
X62135Y-48143D01*
X62150Y-48114D01*
X62178Y-48086D01*
X62221Y-48071D01*
X62250Y-48071D01*
X62293Y-48086D01*
X62307Y-48100D01*
X62593Y-48371D02*
X62421Y-48371D01*
X62507Y-48371D02*
X62507Y-48071D01*
X62478Y-48114D01*
X62450Y-48143D01*
X62421Y-48157D01*
X62707Y-48100D02*
X62721Y-48086D01*
X62750Y-48071D01*
X62821Y-48071D01*
X62850Y-48086D01*
X62864Y-48100D01*
X62879Y-48129D01*
X62879Y-48157D01*
X62864Y-48200D01*
X62693Y-48371D01*
X62879Y-48371D01*
X62008Y-46821D02*
X62036Y-46821D01*
X62065Y-46836D01*
X62079Y-46850D01*
X62093Y-46879D01*
X62108Y-46936D01*
X62108Y-47007D01*
X62093Y-47064D01*
X62079Y-47093D01*
X62065Y-47107D01*
X62036Y-47121D01*
X62008Y-47121D01*
X61979Y-47107D01*
X61965Y-47093D01*
X61950Y-47064D01*
X61936Y-47007D01*
X61936Y-46936D01*
X61950Y-46879D01*
X61965Y-46850D01*
X61979Y-46836D01*
X62008Y-46821D01*
X62236Y-47093D02*
X62251Y-47107D01*
X62236Y-47121D01*
X62222Y-47107D01*
X62236Y-47093D01*
X62236Y-47121D01*
X62537Y-47121D02*
X62365Y-47121D01*
X62451Y-47121D02*
X62451Y-46821D01*
X62422Y-46864D01*
X62394Y-46893D01*
X62365Y-46907D01*
X62794Y-46921D02*
X62794Y-47121D01*
X62665Y-46921D02*
X62665Y-47079D01*
X62680Y-47107D01*
X62708Y-47121D01*
X62751Y-47121D01*
X62780Y-47107D01*
X62794Y-47093D01*
X63036Y-46964D02*
X62936Y-46964D01*
X62936Y-47121D02*
X62936Y-46821D01*
X63079Y-46821D01*
G54D14*
X42394Y-51493D02*
X42194Y-51207D01*
X42051Y-51493D02*
X42051Y-50893D01*
X42279Y-50893D01*
X42337Y-50921D01*
X42365Y-50950D01*
X42394Y-51007D01*
X42394Y-51093D01*
X42365Y-51150D01*
X42337Y-51179D01*
X42279Y-51207D01*
X42051Y-51207D01*
X42565Y-50893D02*
X42765Y-51493D01*
X42965Y-50893D01*
X43479Y-51493D02*
X43136Y-51493D01*
X43308Y-51493D02*
X43308Y-50893D01*
X43251Y-50979D01*
X43193Y-51036D01*
X43136Y-51064D01*
X39143Y-45743D02*
X38800Y-45743D01*
X38972Y-45743D02*
X38972Y-45143D01*
X38915Y-45229D01*
X38857Y-45286D01*
X38800Y-45314D01*
X39514Y-45143D02*
X39571Y-45143D01*
X39628Y-45171D01*
X39657Y-45200D01*
X39686Y-45257D01*
X39714Y-45371D01*
X39714Y-45514D01*
X39686Y-45629D01*
X39657Y-45686D01*
X39628Y-45714D01*
X39571Y-45743D01*
X39514Y-45743D01*
X39457Y-45714D01*
X39428Y-45686D01*
X39400Y-45629D01*
X39371Y-45514D01*
X39371Y-45371D01*
X39400Y-45257D01*
X39428Y-45200D01*
X39457Y-45171D01*
X39514Y-45143D01*
X39971Y-45743D02*
X39971Y-45143D01*
X40028Y-45514D02*
X40199Y-45743D01*
X40199Y-45343D02*
X39971Y-45571D01*
X55394Y-51493D02*
X55194Y-51207D01*
X55051Y-51493D02*
X55051Y-50893D01*
X55279Y-50893D01*
X55337Y-50921D01*
X55365Y-50950D01*
X55394Y-51007D01*
X55394Y-51093D01*
X55365Y-51150D01*
X55337Y-51179D01*
X55279Y-51207D01*
X55051Y-51207D01*
X55565Y-50893D02*
X55765Y-51493D01*
X55965Y-50893D01*
X56136Y-50950D02*
X56165Y-50921D01*
X56222Y-50893D01*
X56365Y-50893D01*
X56422Y-50921D01*
X56451Y-50950D01*
X56479Y-51007D01*
X56479Y-51064D01*
X56451Y-51150D01*
X56108Y-51493D01*
X56479Y-51493D01*
X52143Y-45743D02*
X51800Y-45743D01*
X51972Y-45743D02*
X51972Y-45143D01*
X51915Y-45229D01*
X51857Y-45286D01*
X51800Y-45314D01*
X52514Y-45143D02*
X52571Y-45143D01*
X52628Y-45171D01*
X52657Y-45200D01*
X52686Y-45257D01*
X52714Y-45371D01*
X52714Y-45514D01*
X52686Y-45629D01*
X52657Y-45686D01*
X52628Y-45714D01*
X52571Y-45743D01*
X52514Y-45743D01*
X52457Y-45714D01*
X52428Y-45686D01*
X52400Y-45629D01*
X52371Y-45514D01*
X52371Y-45371D01*
X52400Y-45257D01*
X52428Y-45200D01*
X52457Y-45171D01*
X52514Y-45143D01*
X52971Y-45743D02*
X52971Y-45143D01*
X53028Y-45514D02*
X53199Y-45743D01*
X53199Y-45343D02*
X52971Y-45571D01*
X34558Y-32993D02*
X34558Y-32393D01*
X34786Y-32393D01*
X34844Y-32421D01*
X34872Y-32450D01*
X34901Y-32507D01*
X34901Y-32593D01*
X34872Y-32650D01*
X34844Y-32679D01*
X34786Y-32707D01*
X34558Y-32707D01*
X35101Y-32393D02*
X35472Y-32393D01*
X35272Y-32621D01*
X35358Y-32621D01*
X35415Y-32650D01*
X35444Y-32679D01*
X35472Y-32736D01*
X35472Y-32879D01*
X35444Y-32936D01*
X35415Y-32964D01*
X35358Y-32993D01*
X35186Y-32993D01*
X35129Y-32964D01*
X35101Y-32936D01*
X31779Y-36721D02*
X31807Y-36635D01*
X31836Y-36607D01*
X31893Y-36578D01*
X31979Y-36578D01*
X32036Y-36607D01*
X32064Y-36635D01*
X32093Y-36693D01*
X32093Y-36921D01*
X31493Y-36921D01*
X31493Y-36721D01*
X31521Y-36664D01*
X31550Y-36635D01*
X31607Y-36607D01*
X31664Y-36607D01*
X31721Y-36635D01*
X31750Y-36664D01*
X31779Y-36721D01*
X31779Y-36921D01*
X32093Y-36321D02*
X31493Y-36321D01*
X32093Y-35978D01*
X31493Y-35978D01*
X32036Y-35349D02*
X32064Y-35378D01*
X32093Y-35464D01*
X32093Y-35521D01*
X32064Y-35606D01*
X32007Y-35664D01*
X31950Y-35692D01*
X31836Y-35721D01*
X31750Y-35721D01*
X31636Y-35692D01*
X31579Y-35664D01*
X31521Y-35606D01*
X31493Y-35521D01*
X31493Y-35464D01*
X31521Y-35378D01*
X31550Y-35349D01*
X34558Y-51243D02*
X34558Y-50643D01*
X34786Y-50643D01*
X34844Y-50671D01*
X34872Y-50700D01*
X34901Y-50757D01*
X34901Y-50843D01*
X34872Y-50900D01*
X34844Y-50929D01*
X34786Y-50957D01*
X34558Y-50957D01*
X35415Y-50843D02*
X35415Y-51243D01*
X35272Y-50614D02*
X35129Y-51043D01*
X35501Y-51043D01*
X31779Y-47721D02*
X31807Y-47635D01*
X31836Y-47607D01*
X31893Y-47578D01*
X31979Y-47578D01*
X32036Y-47607D01*
X32064Y-47635D01*
X32093Y-47693D01*
X32093Y-47921D01*
X31493Y-47921D01*
X31493Y-47721D01*
X31521Y-47664D01*
X31550Y-47635D01*
X31607Y-47607D01*
X31664Y-47607D01*
X31721Y-47635D01*
X31750Y-47664D01*
X31779Y-47721D01*
X31779Y-47921D01*
X32093Y-47321D02*
X31493Y-47321D01*
X32093Y-46978D01*
X31493Y-46978D01*
X32036Y-46349D02*
X32064Y-46378D01*
X32093Y-46464D01*
X32093Y-46521D01*
X32064Y-46606D01*
X32007Y-46664D01*
X31950Y-46692D01*
X31836Y-46721D01*
X31750Y-46721D01*
X31636Y-46692D01*
X31579Y-46664D01*
X31521Y-46606D01*
X31493Y-46521D01*
X31493Y-46464D01*
X31521Y-46378D01*
X31550Y-46349D01*
X47793Y-46893D02*
X47793Y-47379D01*
X47821Y-47436D01*
X47850Y-47464D01*
X47907Y-47493D01*
X48021Y-47493D01*
X48079Y-47464D01*
X48107Y-47436D01*
X48136Y-47379D01*
X48136Y-46893D01*
X48736Y-47493D02*
X48393Y-47493D01*
X48565Y-47493D02*
X48565Y-46893D01*
X48508Y-46979D01*
X48450Y-47036D01*
X48393Y-47064D01*
X44701Y-44243D02*
X44415Y-44243D01*
X44415Y-43643D01*
X44901Y-44243D02*
X44901Y-43643D01*
X45101Y-44071D01*
X45301Y-43643D01*
X45301Y-44243D01*
X45844Y-43643D02*
X45730Y-43643D01*
X45673Y-43671D01*
X45644Y-43700D01*
X45587Y-43786D01*
X45558Y-43900D01*
X45558Y-44129D01*
X45587Y-44186D01*
X45615Y-44214D01*
X45673Y-44243D01*
X45787Y-44243D01*
X45844Y-44214D01*
X45873Y-44186D01*
X45901Y-44129D01*
X45901Y-43986D01*
X45873Y-43929D01*
X45844Y-43900D01*
X45787Y-43871D01*
X45673Y-43871D01*
X45615Y-43900D01*
X45587Y-43929D01*
X45558Y-43986D01*
X46472Y-44243D02*
X46129Y-44243D01*
X46301Y-44243D02*
X46301Y-43643D01*
X46244Y-43729D01*
X46186Y-43786D01*
X46129Y-43814D01*
X46672Y-43643D02*
X47072Y-43643D01*
X46815Y-44243D01*
X47271Y-43700D02*
X47300Y-43671D01*
X47357Y-43643D01*
X47500Y-43643D01*
X47557Y-43671D01*
X47586Y-43700D01*
X47614Y-43757D01*
X47614Y-43814D01*
X47586Y-43900D01*
X47243Y-44243D01*
X47614Y-44243D01*
X65022Y-52243D02*
X65022Y-51643D01*
X65250Y-51643D01*
X65308Y-51671D01*
X65336Y-51700D01*
X65365Y-51757D01*
X65365Y-51843D01*
X65336Y-51900D01*
X65308Y-51929D01*
X65250Y-51957D01*
X65022Y-51957D01*
X65936Y-52243D02*
X65593Y-52243D01*
X65765Y-52243D02*
X65765Y-51643D01*
X65708Y-51729D01*
X65650Y-51786D01*
X65593Y-51814D01*
X66136Y-51643D02*
X66507Y-51643D01*
X66307Y-51871D01*
X66393Y-51871D01*
X66450Y-51900D01*
X66479Y-51929D01*
X66507Y-51986D01*
X66507Y-52129D01*
X66479Y-52186D01*
X66450Y-52214D01*
X66393Y-52243D01*
X66221Y-52243D01*
X66164Y-52214D01*
X66136Y-52186D01*
%LPC*%
G54D16*
X71090Y-44270D03*
X71090Y-39230D03*
G54D17*
X69170Y-43520D03*
X69170Y-39980D03*
X69170Y-42815D03*
G54D18*
X69170Y-40685D03*
G54D16*
X70820Y-41750D03*
G54D19*
X30750Y-51750D03*
X40750Y-51750D03*
X30750Y-31750D03*
X60750Y-51750D03*
X70750Y-31750D03*
X70750Y-51750D03*
G54D20*
X44500Y-42500D03*
X43500Y-42500D03*
X40500Y-42500D03*
X39500Y-42500D03*
X47500Y-42500D03*
X48500Y-42500D03*
X51500Y-42500D03*
X52500Y-42500D03*
X38500Y-33500D03*
X39500Y-33500D03*
X40500Y-33500D03*
X41500Y-33500D03*
X42500Y-33500D03*
X43500Y-33500D03*
X44500Y-33500D03*
X45500Y-33500D03*
X46500Y-33500D03*
X47500Y-33500D03*
X48500Y-33500D03*
X49500Y-33500D03*
G54D21*
X57250Y-44500D03*
X57250Y-45000D03*
X57250Y-45500D03*
X57250Y-46000D03*
X57250Y-46500D03*
X57250Y-47000D03*
X57250Y-47500D03*
X57250Y-48000D03*
X61250Y-48000D03*
X61250Y-47500D03*
X61250Y-47000D03*
X61250Y-46500D03*
X61250Y-46000D03*
X61250Y-45500D03*
X61250Y-45000D03*
X61250Y-44500D03*
G54D22*
X37000Y-39000D03*
X37000Y-37000D03*
X55000Y-34000D03*
X55000Y-36000D03*
X55000Y-39000D03*
X55000Y-42000D03*
G54D21*
X44000Y-48500D03*
X44000Y-49000D03*
X44000Y-49500D03*
X44000Y-50000D03*
X48000Y-50000D03*
X48000Y-49500D03*
X48000Y-49000D03*
X48000Y-48500D03*
G54D23*
X59850Y-43250D03*
X58650Y-43250D03*
X63850Y-45250D03*
X62650Y-45250D03*
X59850Y-49250D03*
X58650Y-49250D03*
G54D24*
X64000Y-47600D03*
X64000Y-46400D03*
X62500Y-47600D03*
X62500Y-46400D03*
G54D25*
X41670Y-48000D03*
X37330Y-48000D03*
G54D22*
X39500Y-44060D03*
X40980Y-44060D03*
X38020Y-44060D03*
G54D25*
X54670Y-48000D03*
X50330Y-48000D03*
G54D22*
X52500Y-44060D03*
X53980Y-44060D03*
X51020Y-44060D03*
G54D19*
X40750Y-31750D03*
G54D26*
X30930Y-41750D03*
G54D27*
X32110Y-41750D03*
G54D19*
X34470Y-41750D03*
G54D27*
X31720Y-39980D03*
X31720Y-43520D03*
G54D28*
X30750Y-38250D03*
X30750Y-34250D03*
G54D29*
X32750Y-36250D03*
G54D30*
X32750Y-37250D03*
G54D28*
X34750Y-38250D03*
X30750Y-49250D03*
X30750Y-45250D03*
G54D29*
X32750Y-47250D03*
G54D30*
X32750Y-48250D03*
G54D28*
X34750Y-49250D03*
G54D21*
X44000Y-45000D03*
X44000Y-45500D03*
X44000Y-46000D03*
X44000Y-46500D03*
X48000Y-46500D03*
X48000Y-46000D03*
X48000Y-45500D03*
X48000Y-45000D03*
G54D31*
X66750Y-50500D03*
X65750Y-50500D03*
G54D32*
X67750Y-50500D03*
G54D31*
X64750Y-50500D03*
X63750Y-50500D03*
G54D19*
X60750Y-31750D03*
M02*
